<svg width="16" height="16" viewBox="0 0 16 16" fill="none" xmlns="http://www.w3.org/2000/svg">
<path d="M0.907812 14.8647C-0.292187 13.6416 -0.292187 11.7049 0.907812 10.4817L10.0078 1.20596C11.2078 -0.0172194 13.1078 -0.0172194 14.3078 1.20596C15.5078 2.42913 15.5078 4.36583 14.3078 5.589L5.20781 14.8647C4.10781 16.0879 2.10781 16.0879 0.907812 14.8647Z" fill="#EC595A"/>
<path d="M14.3078 14.8647C13.1078 16.0879 11.2078 16.0879 10.0078 14.8647L0.907812 5.589C-0.292187 4.36583 -0.292187 2.42913 0.907812 1.20596C2.10781 -0.0172194 4.00781 -0.0172194 5.20781 1.20596L14.3078 10.4817C15.5078 11.7049 15.5078 13.6416 14.3078 14.8647Z" fill="#EC595A"/>
</svg>
