<svg width="679" height="488" viewBox="0 0 679 488" fill="none" xmlns="http://www.w3.org/2000/svg">
<path d="M38.7518 468.366C39.9683 460.282 41.2503 452.211 42.4014 444.113C44.9523 426.218 47.4377 408.31 49.9624 390.415C52.5002 372.415 55.0641 354.428 57.628 336.429C60.3751 317.134 63.109 297.839 65.8561 278.544C66.484 274.149 66.9942 269.727 67.7529 265.345C68.1192 263.174 66.7587 263.592 65.6206 263.592C59.2501 263.566 52.8795 263.645 46.5089 263.553C42.977 263.501 40.2954 261.826 38.8564 258.53C37.5091 255.456 38.0846 252.565 40.2038 250.027C42.0221 247.869 44.4683 247.162 47.2415 247.162C58.4652 247.175 69.702 247.136 80.9257 247.11C81.8152 246.26 82.9533 246.234 84.0521 246.234C91.2337 246.22 98.4153 246.09 105.584 246.286C109.103 246.116 112.635 246.22 116.153 246.22C117.357 246.22 118.587 246.234 119.581 247.097C127.286 247.097 134.977 247.084 142.682 247.084C143.977 246.443 145.338 246.168 146.777 246.168C180.84 246.194 214.891 246.103 248.954 246.22C265.685 246.142 282.416 246.194 299.147 246.168C300.861 246.168 302.574 246.194 304.288 246.286C306.106 246.077 307.925 246.181 309.743 246.181C350.674 246.181 391.592 246.181 432.523 246.181C434.145 246.181 435.754 246.116 437.363 246.299C440.084 246.247 442.805 246.22 445.526 246.312C450.955 246.508 454.657 250.066 454.775 255.116C454.892 260.244 451.478 263.959 446.023 264.39C441.406 264.757 436.762 264.299 432.144 264.626C431.281 265.358 431.595 266.313 431.712 267.177C434.159 283.594 436.238 300.063 438.711 316.48C439.849 326.134 441.706 335.683 442.609 345.363C444.833 359.033 446.625 372.755 448.587 386.451C452.171 411.554 455.625 436.683 459.327 461.773C459.706 464.769 460.229 467.738 460.543 470.747C460.857 473.677 460.046 474.527 457.077 474.724C450.732 475.155 450.301 474.828 449.045 468.706C448.535 466.247 448.116 463.761 447.711 461.289C441.235 428.141 434.852 394.967 428.337 361.819C427.225 356.168 426.27 350.478 425.067 344.84C425.015 344.5 424.975 344.16 424.949 343.82C423.118 335.748 421.81 327.573 420.135 319.462C416.734 302.705 413.686 285.883 410.285 269.126C409.343 264.469 409.343 264.482 404.582 264.456C400.841 264.443 397.099 264.508 393.358 264.443C381.049 264.521 368.752 264.534 356.456 264.521C351.603 264.521 351.603 264.534 350.517 269.322C350.386 269.911 350.255 270.499 350.085 271.088C348.476 278.91 346.959 286.746 345.442 294.582C342.969 307.284 340.588 320.012 338.011 332.701C337.972 333.211 337.894 333.721 337.737 334.218C333.067 358.706 328.083 383.142 323.583 407.669C321.869 415.256 320.417 422.883 318.978 430.522C317.173 440.15 315.054 449.712 313.445 459.392C312.686 463.147 311.967 466.901 311.247 470.655C310.619 473.939 309.861 474.567 306.669 474.711C299.997 475.024 299.553 474.54 300.534 467.856C300.874 465.567 301.109 463.264 301.606 460.988C303.529 446.167 305.779 431.385 307.872 416.591C309.73 403.496 311.443 390.376 313.366 377.281C314.884 367.902 315.943 358.444 317.343 349.039C317.84 345.743 318.298 342.433 318.743 339.123C318.926 337.907 319.318 336.73 319.279 335.487C322.419 313.393 325.545 291.311 328.632 269.217C328.698 268.72 328.75 268.21 328.841 267.713C329.325 265.332 328.37 264.443 325.964 264.456C317.683 264.521 309.403 264.482 301.122 264.482C300.311 264.482 299.513 264.534 298.702 264.456C255.586 264.573 212.471 264.482 169.368 264.508C164.018 264.508 164.018 264.508 164.776 269.924C169.957 307.31 175.346 344.683 180.618 382.056C180.775 383.155 180.919 384.267 181.154 385.339C181.468 386.412 181.089 387.302 180.435 388.126C177.374 391.972 174.679 396.105 171.605 399.938C171.016 400.671 170.48 402.437 168.884 400.998C167.34 396.576 166.752 391.945 165.875 387.38C158.38 348.215 150.636 309.115 143.101 269.963C142.97 269.27 142.761 268.576 142.695 267.883C142.46 265.201 140.942 264.39 138.392 264.403C127.665 264.482 116.938 264.443 106.212 264.43C101.764 264.43 97.3034 264.416 92.8558 264.43C89.0622 264.456 88.7875 264.665 88.0419 268.367C85.0594 283.044 82.3254 297.774 79.4475 312.464C70.3299 359.046 61.3431 405.642 52.2516 452.224C51.2574 457.286 50.3025 462.362 49.3083 467.424C49.2691 467.83 49.2037 468.222 49.1252 468.615C47.9086 474.632 47.4508 474.985 41.3419 474.684C37.7968 474.514 36.8812 473.219 37.8753 469.844C38.0715 469.36 38.3724 468.85 38.7518 468.366Z" fill="#4D7CB2"/>
<path d="M466.378 57.6281C468.275 58.9101 470.485 58.1514 472.526 58.4915C485.32 60.5976 495.536 67.2036 503.908 76.7006C515.603 89.9388 525.793 104.263 533.589 120.183C538.508 130.216 541.66 140.877 544.368 151.669C546.082 154.822 547.194 158.144 547.377 161.755C546.043 162.906 546.134 164.423 546.317 165.954C547.037 171.801 547.39 177.662 546.644 183.522C544.918 197.166 537.71 207.722 527.31 216.147C512.869 227.854 495.994 234.146 477.798 237.077C465.488 239.052 453.074 239.837 440.608 239.562C437.913 239.51 435.402 239.719 433.191 241.42C429.175 240.085 425.028 240.321 420.908 240.321C411.424 240.321 401.94 240.334 392.456 240.321C390.951 240.321 389.421 240.465 387.982 239.85C387.642 239.68 387.433 239.418 387.367 239.039C388.296 237.534 389.853 237.914 391.2 237.901C397.571 237.835 403.954 237.901 410.325 237.862C413.386 237.848 413.543 237.626 412.339 234.774C410.155 229.542 407.879 224.362 405.668 219.142C404.961 217.468 404.085 215.846 403.902 214.001C404.281 211.032 406.27 209.187 408.506 207.605C412.431 204.844 416.826 203.078 421.522 202.254C427.056 201.273 432.576 200.188 438.214 199.939C439.771 200.724 441.288 200.515 442.897 199.965C449.176 197.82 454.84 194.484 460.531 191.175C465.776 188.114 470.956 184.948 476.385 182.214C483.07 178.839 490.055 176.641 498.178 176.602C487.426 163.377 477.157 150.309 469.858 135.213C469.727 137.332 470.904 138.954 471.741 140.681C477.013 151.381 484.208 160.8 491.559 170.088C496.125 175.856 495.471 175.189 489.283 176.393C480.676 178.067 473.206 182.384 465.763 186.727C458.254 191.109 450.994 195.975 442.675 198.827C441.589 199.193 440.477 200.083 439.26 199.063C438.463 198.081 438.214 196.878 437.965 195.701C432.288 169.015 426.389 142.382 420.764 115.683C420.031 107.612 419.809 99.5797 421.732 91.5871C426.062 73.5742 439.588 61.2124 458.006 58.8316C460.831 58.3999 463.474 57.0133 466.378 57.6281Z" fill="#EE8F94"/>
<path d="M243.029 112.347C253.167 112.007 263.252 111.026 273.312 109.888C274.293 110.149 275.13 110.751 276.15 110.921C279.015 111.392 280.807 113.158 281.958 115.722C290.121 133.892 298.375 152.009 306.577 170.166C314.74 188.218 322.968 206.244 331.131 224.309C332.295 226.886 333.42 229.49 334.623 232.054C336.036 235.062 335.434 236.069 332.753 238.071C330.385 239.837 327.9 240.242 325.087 240.203C318.612 240.098 312.137 240.177 305.675 240.164C304.366 240.164 303.032 240.295 301.803 239.68C300.691 238.934 300.508 237.692 300.128 236.54C296.086 224.453 292.423 212.249 288.42 200.148C287.976 198.814 287.714 197.388 286.694 196.316C279.538 196.773 272.357 196.067 265.227 196.943C264.521 197.035 263.815 197.114 263.108 197.1C253.088 196.747 243.094 197.467 233.113 197.872C217.572 198.487 202.006 198.526 186.478 199.56C184.608 199.691 183.273 200.462 182.096 201.862C177.936 206.82 173.816 211.804 169.525 216.657C168.688 217.612 168.021 218.894 166.399 218.684C158.825 198.265 151.237 177.845 143.663 157.425C140.053 147.68 136.443 137.947 132.898 128.175C131.655 124.748 133.852 121.739 137.463 121.439C148.674 120.497 159.884 119.424 171.095 118.482C177.204 117.972 183.339 117.684 189.461 117.187C196.172 116.638 202.869 115.957 209.58 115.343C212.366 113.812 215.401 113.838 218.449 113.878C220.699 113.511 222.949 113.106 225.251 113.289C227.684 112.962 230.104 112.543 232.564 112.661C236.069 112.269 239.523 111.418 243.029 112.347Z" fill="#C9EAF7"/>
<path d="M448.365 461.028C449.124 464.56 450.078 468.065 450.562 471.624C450.85 473.677 451.753 473.991 453.532 474.004C459.902 474.044 459.902 474.096 459.209 467.751C458.987 465.75 458.751 463.749 458.529 461.747C460.059 460.387 461.799 460.792 463.539 461.119C464.703 461.551 464.991 462.65 465.462 463.631C466.064 464.913 466.796 465.07 467.555 463.775C468.118 462.807 468.654 461.865 469.857 461.59C479.145 461.185 488.42 461.054 497.681 461.669C499.696 461.8 501.71 461.97 503.725 461.917C514.229 461.629 524.694 462.545 535.172 462.715C535.97 462.859 536.689 463.199 537.213 463.814C538.495 465.331 539.567 464.743 540.627 463.566C541.503 463.749 542.393 464.128 543.269 464.089C552.256 463.722 561.204 464.952 570.19 464.782C572.493 464.743 574.795 465.135 577.084 465.331C579.047 468.013 581.846 468.065 584.841 468.052C599.872 467.961 614.902 468.026 629.946 468C630.953 468 631.973 467.869 632.915 468.353C638.108 468.968 643.302 469.517 648.469 470.224C653.152 470.865 657.887 471.231 662.387 472.814C663.198 473.102 664.336 473.311 664.336 474.436C664.349 475.653 663.133 475.613 662.322 475.901C655.886 478.125 649.123 478.57 642.438 479.276C633.543 480.218 624.608 480.911 615.687 481.67C612.168 481.971 608.649 481.892 605.117 482.246C599.1 482.834 593.017 482.638 586.974 483.004C576.705 483.632 566.423 483.959 556.141 484.352C551.916 484.509 547.678 484.626 543.452 484.796C526.996 485.424 510.54 485.699 494.084 486.196C484.992 486.471 475.888 486.118 466.809 486.68C451.347 487.622 435.872 486.902 420.41 487.269C363.742 488.577 307.061 487.753 250.38 487.648C235.938 487.622 221.444 487.897 207.016 487.112C196.394 486.523 185.772 487.256 175.189 486.497C167.197 485.921 159.217 486.405 151.251 485.987C138.339 485.307 125.428 485.097 112.517 484.705C102.85 484.417 93.1829 483.828 83.5028 483.527C72.5276 483.174 61.5655 482.52 50.6034 481.709C39.4713 480.885 28.3522 479.865 17.2593 478.661C12.5763 478.151 7.85393 477.615 3.32782 476.123C2.30749 475.783 0.86855 475.391 0.986281 474.122C1.07785 473.089 2.45138 472.932 3.43247 472.67C11.8437 470.499 20.4643 469.779 29.0848 468.955C32.3028 468.654 35.5077 468.353 38.7388 468.379C38.7518 468.68 38.7257 468.994 38.7911 469.282C39.1443 470.813 37.2475 473.141 38.8172 473.651C41.1719 474.41 43.9582 473.913 46.5483 473.847C47.307 473.834 47.2546 473.01 47.3724 472.435C47.7779 470.682 48.1834 468.929 48.5889 467.176C51.9639 465.462 55.7182 465.881 59.2632 465.711C74.3982 464.991 89.5332 464.115 104.681 463.657C117.004 463.291 129.313 462.545 141.649 462.532C142.159 462.532 142.656 462.545 143.127 462.336C144.278 461.747 145.259 462.336 146.214 462.859C150.008 464.939 153.749 466.247 157.373 462.545C157.634 462.27 158.105 462.244 158.498 462.166C165.915 461.917 173.319 461.067 180.762 461.355C182.266 461.695 182.345 463.016 182.619 464.154C183.051 465.907 183.221 467.712 183.6 469.478C184.281 472.605 187.643 474.201 190.442 472.762C191.384 472.278 191.292 471.493 191.214 470.695C191.057 469.099 190.756 467.516 190.599 465.92C190.442 464.442 190.141 462.872 191.685 461.813C194.536 461.054 197.467 460.688 200.384 460.74C223.224 461.093 246.05 459.772 268.89 460.073C278.492 460.204 288.093 460.073 297.695 460.112C299.278 460.112 300.965 459.824 302.313 461.054C301.868 464.52 301.528 468.013 300.913 471.454C300.586 473.246 300.756 473.965 302.823 474.017C309.625 474.187 309.612 474.266 310.894 467.595C311.443 464.756 312.071 461.943 312.66 459.118C314.387 460.047 316.257 460.125 318.167 460.177C323.047 460.308 327.939 459.72 332.792 460.544C334.48 461.839 332.818 462.284 332.138 462.911C331.17 463.801 329.129 464.102 329.653 465.829C330.097 467.294 331.929 467.307 333.289 467.516C343.165 469.047 352.192 466.443 360.812 461.865C362.133 461.172 363.258 460.047 364.906 460.125C370.754 460.361 376.601 459.785 382.435 460.439C383.443 460.727 383.757 461.512 383.887 462.441C383.966 463.003 383.927 463.762 384.646 463.893C385.509 464.05 385.758 463.225 386.059 462.637C386.608 461.538 387.262 460.596 388.584 460.334C398.499 459.824 408.415 460.217 418.33 460.112C427.631 460.007 436.919 461.145 446.233 460.701C446.991 460.675 447.672 460.871 448.365 461.028Z" fill="#EBE1D8"/>
<path d="M547.154 161.559C545.846 158.367 544.956 155.057 544.381 151.656C549.993 156.352 553.812 162.396 557.096 168.806C563.244 180.84 566.253 193.738 567.469 207.134C569.405 228.692 566.737 249.674 559.437 270.002C550.738 294.255 536.715 314.531 514.451 328.397C513.247 329.142 512.018 329.836 510.801 330.542C509.755 332.439 507.858 333.198 506.027 333.956C503.345 335.068 500.742 336.35 497.995 337.279C490.211 340.065 482.297 342.354 474.187 344.003C468.994 344.931 463.826 346.07 458.502 345.939C453.963 346.894 449.372 346.567 444.793 346.54C443.786 346.54 442.792 346.37 442.072 345.533C440.476 335.905 438.907 326.278 438.03 316.558C439.508 315.015 441.549 315.067 443.394 314.936C446.52 314.714 448.155 313.17 449.346 310.319C454.604 297.682 461.485 285.974 469.922 275.182C476.594 267.412 483.658 260.047 492.37 254.501C503.214 247.607 514.83 243.172 527.859 242.558C532.124 242.361 536.31 242.375 540.535 242.741C542.733 242.924 544.08 242.087 545.205 240.19C550.712 230.876 553.459 220.804 554.519 210.051C555.905 195.936 552.91 182.528 549.116 169.172C548.868 168.295 548.449 167.484 548.109 166.634C547.612 164.986 546.749 163.39 547.154 161.559Z" fill="#FFCB65"/>
<path d="M301.894 151.277C308.265 154.992 315.08 157.791 321.817 160.774C327.128 163.743 332.7 166.281 337.436 170.271C337.004 168.492 335.631 167.68 334.388 166.699C330.804 163.887 326.709 162.042 322.536 160.316C323.269 159.753 323.753 159.099 323.988 158.144C326.879 146.41 333.839 137.057 341.609 128.201C348.921 119.869 356.927 112.098 362.931 102.68C364.828 99.7103 366.437 96.5578 368.177 93.4837C368.949 93.3921 369.236 93.9677 369.485 94.504C372.324 100.757 376.143 106.356 380.905 111.3C381.18 111.588 381.336 111.967 381.48 112.347C383.678 127.024 385.235 141.793 387.223 156.496C389.695 174.81 392.429 193.084 395.255 211.346C395.477 212.758 395.935 214.08 396.655 215.322C396.89 215.872 396.72 216.434 396.236 216.552C392.521 217.533 389.015 219.312 385.091 219.404C383.573 216.447 383.73 213.125 383.259 209.972C381.991 201.365 380.709 192.757 379.44 184.163C379.322 183.326 379.636 182.096 378.472 181.874C377.504 181.69 376.915 182.724 376.339 183.378C370.963 189.618 364.841 195.046 358.13 199.782C349.876 205.603 340.929 209.645 330.503 209.161C329.496 209.109 328.475 209.174 327.52 208.769C324.499 206.218 323.805 202.359 322.288 199.023C315.603 184.438 308.984 169.813 302.391 155.188C301.829 153.958 300.743 152.742 301.894 151.277Z" fill="#EE8F94"/>
<path d="M166.425 218.671C170.441 214.053 174.483 209.436 178.486 204.792C179.86 203.196 181.128 201.495 182.476 199.873C183.064 199.167 183.771 198.578 184.791 198.618C187.721 198.735 190.638 198.042 193.516 198.094C204.335 198.304 215.113 197.519 225.905 197.27C238.699 196.969 251.505 196.538 264.286 196.014C270.238 195.766 276.177 195.648 282.116 195.661C284.039 195.661 285.975 193.935 287.898 195.596C287.27 196.734 286.681 197.898 285.883 198.958C274.685 214.001 263.488 229.045 252.212 244.023C251.309 245.213 250.551 246.587 249.02 247.149C213.57 247.136 178.133 247.136 142.683 247.123C150.466 237.521 158.916 228.482 166.425 218.671Z" fill="#B1E1F0"/>
<path d="M369.93 63.109C367.288 63.2267 364.684 63.109 362.16 62.2195C354.939 59.6817 352.545 56.0451 353.592 48.2356C354.481 41.5642 355.894 34.9582 357.712 28.4699C358.981 27.0178 358.981 27.0178 361.375 27.8681C360.59 26.9655 359.086 27.6327 358.288 26.6123C358.981 23.3943 359.282 20.0455 361.558 17.39C361.728 17.2854 361.937 17.1284 362.107 17.1807C367.497 18.6197 372.965 19.3653 378.564 19.2999C380.892 19.2737 380.578 21.1182 380.133 22.6356C379.087 26.1283 378.93 29.5556 380.539 33.1529C382.409 30.916 384.476 29.2809 387.524 29.5164C391.749 29.8434 393.921 33.48 392.129 37.3389C391.92 37.7968 391.645 38.2285 391.37 38.6601C389.356 41.8127 389.343 43.2647 391.279 45.4101C393.254 47.5946 395.046 47.7909 398.342 46.1819C398.617 46.0511 398.905 45.9595 399.193 45.881C401.364 46.1819 402.201 48.301 403.85 49.3083C406.714 51.349 408.951 54.1091 411.725 56.2675C413.059 57.3009 414.236 57.6672 415.845 57.2355C417.873 56.6861 419.953 56.346 422.033 55.9797C423.197 55.7704 424.426 55.4172 425.381 56.5553C425.394 58.0073 424.361 58.9361 423.602 59.9695C417.323 68.5115 413.504 77.8646 413.896 88.6697C413.935 89.677 413.883 90.6973 413.53 91.6653C407.722 101.136 397.427 104.72 387.707 100.652C382.344 98.4153 379.375 94.19 377.766 88.8006C377.386 85.4125 377.399 82.0245 377.713 78.6364C377.975 77.3675 378.917 76.635 379.859 75.8632C383.691 72.7237 383.691 72.7237 381.023 68.747C379.401 65.9084 377.164 63.4099 376.209 60.1919C376.497 58.3213 378.223 57.5756 379.139 56.3591C377.622 57.7195 376.104 59.2631 375.149 61.2776C373.645 62.5203 372.219 64.0378 369.93 63.109Z" fill="#F7C8B6"/>
<path d="M643.89 325.663C652.38 323.557 659.705 326.16 666.063 331.602C673.441 337.92 677.561 345.952 678.097 355.841C678.725 367.353 677.967 378.642 673.715 389.486C673.14 390.965 672.289 392.403 671.334 393.685C669.058 396.746 666.337 397.479 662.779 396.092C659.339 394.745 656.383 392.6 653.779 390.049C643 379.505 633.53 368.046 628.415 353.565C627.054 349.706 626.479 345.703 627.041 341.622C627.839 335.827 630.979 331.563 635.923 328.567C636.394 327.717 637.114 327.18 637.977 326.775C642.909 325.702 645.185 329.221 647.278 332.531C651.215 338.731 653.479 345.69 655.768 352.61C659.431 363.677 662.021 375.018 664.637 386.373C664.82 387.145 664.781 387.995 665.448 388.636C666.076 388.348 665.827 387.812 665.736 387.419C662.387 371.984 658.79 356.613 652.929 341.884C650.902 336.808 648.782 331.746 644.74 327.821C644.191 327.259 643.668 326.592 643.89 325.663Z" fill="#68A885"/>
<path d="M632.902 468.366C631.829 469.164 630.573 468.903 629.383 468.903C613.62 468.916 597.87 468.837 582.107 468.981C579.203 469.007 577.267 468.615 577.071 465.331C575.763 457.26 574.455 449.189 573.147 441.118C572.506 437.233 571.839 433.348 571.185 429.463C572.231 428.416 573.592 428.495 574.887 428.495C595.123 428.455 615.347 428.455 635.584 428.495C636.879 428.495 638.252 428.429 639.246 429.554C637.284 441.393 635.309 453.218 633.347 465.057C633.163 466.169 633.046 467.267 632.902 468.366Z" fill="#4D7CB2"/>
<path d="M403.3 49.6617C402.057 48.4844 400.828 47.3071 399.585 46.1428C399.127 43.6836 399.206 41.2374 399.847 38.8173C414.89 31.5049 430.784 28.457 447.436 29.752C453.964 30.2622 460.164 32.002 465.004 36.8944C471.153 43.1211 471.663 50.6297 466.378 57.6151C463.029 59.1456 459.393 59.3941 455.847 59.9697C438.646 62.8083 425.368 76.1643 422.124 93.5885C420.764 100.914 421.221 108.2 421.535 115.513C420.031 115.513 419.573 114.27 418.958 113.289C415.466 107.664 413.543 101.463 412.457 94.9751C412.261 93.8501 412.457 92.7775 412.928 91.7571C412.051 78.2704 416.761 66.7196 425.185 56.4509C424.858 54.7241 426.323 54.0178 427.213 53.0105C428.547 51.5062 430.169 50.2504 431.268 48.5236C432.707 46.2606 432.105 44.8086 429.371 44.1022C425.368 43.0688 421.378 43.5397 417.389 44.2984C412.365 45.2664 407.826 47.4379 403.3 49.6617Z" fill="#D86E76"/>
<path d="M613.581 302.535C608.022 295.079 607.982 285.83 614.484 277.942C625.354 264.769 639.809 257.797 656.632 255.966C663.133 255.259 665.553 258.464 664.376 265.201C662.727 274.607 658.672 283.057 653.675 291.076C650.562 296.073 646.991 300.704 642.661 304.733C632.968 313.772 625.145 314.02 615.347 305.518C614.981 303.372 616.394 301.894 617.375 300.324C623.863 289.859 632.536 281.409 642.02 273.717C645.944 270.525 650.052 267.556 654.369 264.9C654.944 264.547 655.624 264.272 655.834 263.501C654.957 262.977 654.434 263.618 653.898 263.958C638.789 273.743 625.433 285.333 615.74 300.743C615.256 301.541 614.902 302.653 613.581 302.535Z" fill="#68A885"/>
<path d="M301.894 151.277C303.085 155.79 305.4 159.832 307.297 164.031C313.968 178.826 320.705 193.595 327.429 208.376C328.436 208.834 328.815 209.789 329.26 210.705C332.504 217.573 335.618 224.493 338.626 231.465C339.32 233.074 339.843 234.722 339.202 236.462C338.522 238.319 339.542 238.503 340.994 238.489C344.84 238.45 348.686 238.489 352.545 238.424C363.167 238.176 373.789 238.346 384.398 238.332C385.523 238.332 386.621 238.437 387.563 239.17C400.252 239.196 412.954 239.248 425.643 239.209C428.521 239.196 431.242 239.549 433.779 240.988C434.42 240.844 434.917 241.158 435.401 241.524C436.736 243.159 438.803 244.454 437.965 247.084C437.154 247.123 436.356 247.202 435.545 247.202C392.521 247.202 349.497 247.202 306.473 247.202C305.766 247.202 305.06 247.149 304.354 247.123C302.274 244.912 301.777 242.205 301.92 239.314C310.423 239.314 318.939 239.209 327.429 239.392C330.411 239.457 331.929 237.103 334.244 236.109C335.264 235.664 334.676 233.924 334.153 232.773C330.176 224.035 326.225 215.296 322.262 206.558C314.557 189.539 306.865 172.508 299.147 155.502C293.758 143.637 288.329 131.799 282.926 119.934C282.259 118.469 281.684 116.952 280.99 115.5C279.918 113.25 278.309 111.706 275.627 111.732C274.345 111.745 273.456 111.327 273.338 109.901C274.345 106.774 276.817 107.991 278.623 108.423C281.265 109.064 283.136 110.96 284.287 113.511C289.192 124.356 294.098 135.187 299.056 146.005C299.867 147.81 300.495 149.759 301.894 151.277Z" fill="#B1E1F0"/>
<path d="M105.649 247.123C97.4081 247.123 89.1669 247.136 80.9257 247.136C80.9388 226.965 80.9911 206.794 80.8865 186.622C80.8734 184.189 81.4097 183.012 83.9606 183.326C86.1451 182.057 88.3297 182.175 90.5273 183.326C92.3718 183.3 94.2293 183.274 96.0738 183.247C98.2714 182.122 100.456 182.162 102.641 183.274C103.648 183.352 104.655 183.417 105.675 183.496C106.774 184.647 106.643 186.112 106.657 187.512C106.683 206.048 106.683 224.571 106.657 243.107C106.63 244.507 106.761 245.985 105.649 247.123Z" fill="#68A885"/>
<path d="M581.27 348.764C584.41 354.363 583.389 359.713 580.067 364.776C574.206 373.697 565.56 379.283 556.311 384.044C550.987 386.778 545.48 389.015 539.449 389.682C534.426 390.245 532.373 388.531 532.647 383.482C533.066 375.568 536.545 368.687 540.444 362.042C544.813 354.559 550.032 347.731 557.619 343.166C564.461 339.045 570.661 339.333 576.496 343.859C575.305 345.821 572.898 345.913 571.276 347.286C566.096 351.668 560.863 356.024 556.442 361.152C552.007 366.293 546.788 370.675 542.628 376.052C542.196 376.601 541.621 377.046 541.307 378.223C543.034 377.569 543.845 376.353 544.787 375.332C552.858 366.555 560.72 357.568 569.863 349.85C572.78 347.391 575.711 344.552 580.119 346.554C580.904 347.064 581.022 347.94 581.27 348.764Z" fill="#68A885"/>
<path d="M592.245 292.188C591.251 292.672 591.853 293.378 592.01 293.993C593.724 300.468 592.219 306.263 587.955 311.247C579.897 320.653 569.929 327.337 558.234 331.432C557.005 331.863 555.696 332.138 554.401 332.269C548.489 332.857 545.768 330.594 546.474 324.669C548.201 309.913 554.624 297.446 566.41 288.211C572.807 283.201 582.801 283.659 588.661 288.525C584.698 291.089 580.368 293.051 576.718 296.138C568.843 302.771 562.904 311.038 556.874 319.253C558.273 319.135 558.758 317.984 559.451 317.108C564.055 311.208 568.595 305.243 574.01 300.037C577.673 296.518 581.702 293.457 586.359 291.338C588.086 290.553 589.825 290.199 591.631 291.063C592.062 291.285 592.507 291.547 592.245 292.188Z" fill="#68A885"/>
<path d="M600.762 396.445C602.776 396.432 604.804 396.406 606.818 396.393C607.655 395.948 608.493 395.935 609.317 396.432C611.501 396.524 613.686 396.929 615.831 396.158C616.721 395.948 617.584 395.883 618.382 396.445C626.348 396.485 634.328 396.589 642.295 396.524C644.374 396.511 645.146 396.838 644.623 399.153C643.603 403.771 642.883 408.454 642.046 413.111C640.895 414.197 639.43 414.092 638.03 414.092C615.753 414.131 593.488 414.079 571.211 414.131C570.295 414.131 569.393 414.027 568.503 413.804C567.601 408.663 566.777 403.509 565.756 398.381C565.338 396.262 566.633 396.589 567.81 396.576C575.371 396.524 582.932 396.485 590.493 396.445C591.278 395.896 592.141 395.948 593.004 396.171C594.731 396.772 596.458 396.812 598.185 396.158C599.087 395.948 599.964 395.883 600.762 396.445Z" fill="#4D7CB2"/>
<path d="M497.969 336.56C502.247 334.558 506.733 333.015 510.802 330.555C514.543 347.417 518.258 364.292 522.012 381.154C528.043 408.271 534.086 435.375 540.143 462.493C540.221 462.872 540.47 463.212 540.627 463.578C540.666 464.782 540.509 465.802 538.992 465.946C537.186 466.129 536.99 464.599 536.336 463.539C535.342 462.702 535.054 461.525 534.701 460.36C522.418 420.28 510.252 380.172 498.113 340.052C497.76 338.914 497.197 337.75 497.969 336.56Z" fill="#BC7488"/>
<path d="M105.649 247.123C105.649 225.918 105.662 204.701 105.662 183.496C106.277 183.444 106.892 183.391 107.494 183.339C109.705 182.083 111.928 182.122 114.139 183.352C119.568 183.535 119.568 183.535 119.568 188.977C119.568 208.363 119.581 227.75 119.581 247.136C114.937 247.123 110.293 247.123 105.649 247.123Z" fill="#447959"/>
<path d="M399.847 38.8173C400.579 41.2896 400.566 43.7358 399.585 46.1428C395.478 49.714 390.585 48.4189 388.95 43.3041C388.558 42.0614 388.375 40.8841 389.46 39.6676C392.77 35.9132 392.927 33.1531 390.193 31.1386C387.42 29.0979 383.744 30.2229 381.206 33.8856C381.036 34.1342 380.853 34.3697 380.67 34.6182C377.988 31.2956 377.831 28.2869 379.963 19.8756C373.619 20.3858 367.418 20.0588 361.558 17.4164C358.314 15.1271 355.815 12.4062 355.685 8.10252C355.514 2.59531 359.87 -1.06744 365.208 0.279932C369.681 1.40492 373.148 4.16506 376.209 7.44845C377.373 8.70425 378.315 9.03128 380.094 8.5996C388.715 6.53277 396.433 12.5109 396.59 21.4846C396.707 27.4758 397.034 33.3493 399.847 38.8173Z" fill="#4D7CB2"/>
<path d="M570.897 427.827C570.177 423.72 569.471 419.612 568.751 415.505C569.798 414.458 571.158 414.537 572.453 414.537C594.299 414.498 616.158 414.498 638.004 414.537C639.299 414.537 640.672 414.472 641.653 415.61C640.973 419.442 640.306 423.262 639.626 427.095C638.475 428.155 637.023 428.076 635.623 428.076C614.837 428.115 594.064 428.05 573.278 428.115C572.48 428.115 571.695 427.958 570.897 427.827Z" fill="#4D7CB2"/>
<path d="M369.929 63.1091C371.748 62.7036 373.461 62.0888 374.795 60.7153C375.332 60.3882 375.764 59.7342 376.548 60.1397C378.197 62.9391 379.845 65.7516 381.493 68.5509C382.252 71.3372 380.106 73.3256 379.518 75.7456C379.348 76.4651 378.785 77.1192 378.471 77.8517C378.497 81.6714 378.511 85.5042 378.537 89.324C380.146 94.9751 380.473 100.822 381.101 106.63C381.284 108.292 381.611 110.058 380.747 111.68C375.083 107.128 371.734 100.953 368.752 94.5172C368.582 94.164 368.373 93.837 368.189 93.4969C366.083 86.59 364.631 79.6308 366.24 72.3576C366.96 69.0611 368.373 66.0655 369.929 63.1091Z" fill="#D86E76"/>
<path d="M600.761 396.445C599.872 396.589 598.995 396.746 598.197 396.158C598.184 369.014 598.197 341.884 598.145 314.74C598.132 309.18 597.923 303.621 596.091 298.258C595.293 295.903 594.116 293.836 592.246 292.201C590.166 290.671 588.099 291.207 586.045 292.24C579.714 295.432 574.494 300.037 569.955 305.4C566.109 309.939 562.512 314.701 558.731 319.292C558.13 320.025 557.528 321.647 556.194 320.705C554.663 319.606 556.076 318.599 556.756 317.696C562.054 310.685 567.339 303.621 573.853 297.682C578.183 293.732 582.775 290.043 588.648 288.538C593.462 288.447 595.961 291.495 597.674 295.406C600.264 301.266 600.696 307.545 600.709 313.824C600.748 340.157 600.722 366.489 600.722 392.809C600.722 394.012 600.748 395.229 600.761 396.445Z" fill="#467A5A"/>
<path d="M618.382 396.445C617.505 396.589 616.629 396.746 615.831 396.157C615.844 380.094 615.543 364.004 618.408 348.084C619.454 342.25 621.338 336.769 625.158 332.086C630.259 325.846 637.245 323.426 643.89 325.65C652.249 333.629 654.983 344.46 658.371 354.873C661.798 365.403 664.284 376.209 666.534 387.066C666.612 387.458 666.821 387.825 666.887 388.217C667.07 389.172 667.044 390.166 665.945 390.467C664.611 390.833 664.493 389.604 664.31 388.793C663.146 383.9 662.112 378.969 660.922 374.089C657.952 361.832 654.604 349.693 649.41 338.155C647.958 334.937 646.349 331.824 643.785 329.26C642.046 327.52 640.162 326.866 637.82 327.442C637.101 327.991 636.159 327.612 635.4 327.978C628.533 330.254 624.948 335.591 622.659 341.975C620.265 348.686 619.664 355.763 619.127 362.8C618.264 374.011 618.277 385.235 618.382 396.445Z" fill="#457959"/>
<path d="M609.316 396.432C608.479 396.419 607.655 396.406 606.818 396.393C606.818 373.919 606.857 351.446 606.779 328.959C606.752 320.914 608.662 313.366 612.05 306.119C612.6 304.942 613.071 303.726 613.581 302.522C619.245 293.247 626.296 285.124 634.302 277.812C640.567 272.082 647.461 267.163 654.604 262.585C655.336 262.114 656.291 261.447 656.984 262.533C657.743 263.71 656.84 264.325 655.912 264.887C645.761 271.049 636.682 278.531 628.533 287.165C623.313 292.698 618.735 298.676 615.36 305.518C611.305 312.83 609.316 320.666 609.316 329.012C609.316 351.498 609.316 373.972 609.316 396.432Z" fill="#447959"/>
<path d="M593.017 396.171C592.232 396.759 591.369 396.589 590.505 396.458C589.747 382.239 588.713 368.072 585.6 354.128C585.063 351.721 584.213 349.497 582.029 348.045C581.309 347.835 580.524 347.731 580.171 346.92C575.697 345.625 572.754 348.28 569.745 350.883C560.575 358.85 552.57 367.941 544.368 376.837C543.884 377.36 543.413 377.883 542.876 378.354C542.17 378.969 541.516 380.198 540.417 379.008C539.606 378.132 540.286 377.334 540.94 376.64C550.621 366.372 559.79 355.593 570.831 346.671C572.532 345.298 574.533 344.657 576.482 343.846C582.879 344.029 586.45 346.867 588.02 353.251C590.453 363.18 591.369 373.331 592.258 383.469C592.624 387.694 592.768 391.932 593.017 396.171Z" fill="#457959"/>
<path d="M223.969 100.796C228.639 89.8735 233.322 78.9637 237.992 68.0409C238.267 67.3868 238.489 66.7197 238.777 66.0787C239.653 64.1427 240.451 61.6965 243.224 62.743C246.115 63.8287 245.304 66.0918 244.349 68.3025C240.844 76.439 237.39 84.5887 233.95 92.7514C232.812 95.433 231.765 98.1539 230.679 100.862C230.601 102.667 229.136 103.243 227.893 104.027C226.546 104.865 225.211 105.715 223.812 106.447C223.001 106.879 222.033 107.612 221.287 106.264C221.405 104.08 222.268 102.235 223.969 100.796Z" fill="#373E59"/>
<path d="M102.641 183.273C100.456 183.26 98.2584 183.247 96.0739 183.247C95.8384 172.952 96.257 162.657 96.5579 152.362C98.5332 151.198 100.521 151.133 102.497 152.362C102.536 162.67 102.588 172.978 102.641 183.273Z" fill="#EE9095"/>
<path d="M641.666 415.61C619.886 415.584 598.092 415.57 576.312 415.544C573.787 415.544 571.276 415.518 568.751 415.505C568.673 414.943 568.594 414.367 568.516 413.804C569.366 412.745 570.569 413.124 571.629 413.124C595.11 413.111 618.578 413.124 642.058 413.124C642.085 413.974 642.32 414.851 641.666 415.61Z" fill="#3A6896"/>
<path d="M221.615 106.264C222.269 107.389 222.857 106.382 223.25 106.094C225.67 104.276 228.783 103.413 230.706 100.888C233.113 100.116 234.565 101.084 236.069 103.072C238.398 106.16 241.014 109.038 243.042 112.36C239.562 112.726 236.082 113.106 232.616 113.472C230.85 109.914 227.959 112.085 225.5 112.099C223.472 111.811 221.392 112.203 219.365 111.68C217.559 109.574 218.292 107.808 221.615 106.264Z" fill="#F3C2B1"/>
<path d="M570.896 427.827C571.721 426.729 572.911 427.082 573.971 427.082C595.856 427.069 617.753 427.082 639.638 427.082C639.665 427.932 639.887 428.822 639.233 429.567C616.55 429.541 593.867 429.502 571.184 429.476C571.093 428.926 571.001 428.377 570.896 427.827Z" fill="#3A6896"/>
<path d="M90.5272 183.326C88.3426 183.326 86.145 183.326 83.9604 183.326C83.0709 175.281 82.1683 167.236 81.2788 159.191C81.0171 158.288 81.7235 158.131 82.2991 157.87C83.5157 157.595 84.7845 157.791 86.0011 157.49C86.4851 157.451 86.9299 157.543 87.2831 157.896C88.3557 166.373 89.4415 174.849 90.5272 183.326Z" fill="#FBB264"/>
<path d="M114.152 183.339C111.941 183.339 109.718 183.339 107.507 183.326C108.383 175.464 108.122 167.511 109.325 159.675C111.353 158.537 113.315 158.354 115.172 160.028C115.617 165.3 114.597 170.506 114.518 175.752C114.479 178.29 114.283 180.814 114.152 183.339Z" fill="#3B6896"/>
<path d="M221.615 106.264C220.908 107.088 220.202 107.926 219.482 108.75C218.776 109.561 218.161 110.372 219.456 111.196C220.11 112.635 219.718 113.76 218.449 114.623C215.506 114.846 212.562 115.081 209.606 115.303C212.693 110.764 216.12 106.513 220.058 102.667C221.157 101.594 222.308 100.679 223.969 100.783C223.184 102.628 222.399 104.446 221.615 106.264Z" fill="#F6C8B6"/>
<path d="M322.536 160.316C329.012 161.087 333.708 165.064 338.325 169.159C338.993 169.76 339.189 170.571 338.482 171.291C337.632 172.154 337.03 171.409 336.442 170.872C332.57 167.406 328.253 164.659 323.413 162.762C322.419 162.369 321.987 161.715 321.817 160.774C322.052 160.63 322.288 160.473 322.536 160.316Z" fill="#D96E76"/>
<path d="M102.496 152.362C100.521 152.362 98.5329 152.362 96.5576 152.362C96.623 149.053 97.6564 145.927 98.4806 142.761C99.0692 142.172 99.684 142.238 100.312 142.695C101.332 145.861 102.274 149.027 102.496 152.362Z" fill="#FFCC69"/>
<path d="M115.173 160.041C113.223 159.923 111.274 159.806 109.325 159.688C109.495 156.915 110.11 154.246 111.222 151.708C112.268 151.015 113.25 150.936 114.061 152.075C114.924 154.652 115.408 157.294 115.173 160.041Z" fill="#FFCC67"/>
<path d="M87.2832 157.909C86.9169 157.909 86.5375 157.909 86.1713 157.909C85.0594 158.655 83.6727 157.726 82.5739 158.498C82.0376 158.524 81.5536 158.655 81.292 159.191C81.1611 156.3 81.1088 153.409 81.8937 150.57C82.7832 149.772 83.6727 149.04 84.9024 149.982C85.8573 152.572 86.773 155.175 87.2832 157.909Z" fill="#FECB67"/>
<path d="M114.06 152.062C113.119 151.944 112.164 151.826 111.222 151.695C111.209 149.288 112.033 147.078 112.949 144.841C113.537 147.235 114.361 149.563 114.06 152.062Z" fill="#5983B6"/>
<path d="M84.8763 149.982C83.8821 150.178 82.8749 150.374 81.8807 150.57C81.763 148.098 81.9069 145.639 82.9403 143.127C83.5813 145.416 84.2353 147.692 84.8763 149.982Z" fill="#42486E"/>
<path d="M358.287 26.6255C360.472 26.6386 362.421 27.1357 363.742 29.5426C361.544 29.2941 359.936 26.6778 357.712 28.4699C356.495 27.7505 356.495 27.7505 358.287 26.6255Z" fill="#6989B5"/>
<path d="M100.312 142.708C99.6975 142.721 99.0827 142.748 98.481 142.761C98.6772 141.518 98.8865 140.275 99.1219 138.745C100.312 140.04 100.221 141.4 100.312 142.708Z" fill="#DC7C82"/>
<path d="M165.888 430.941C162.853 428.599 159.923 426.074 156.731 423.968C154.652 422.608 155.005 421.679 156.234 420.005C160.734 413.922 165.103 407.721 169.512 401.573C173.305 396.511 177.086 391.448 180.879 386.386C180.722 385.039 181.573 384.11 182.292 383.142C197.964 361.754 213.896 340.575 230.797 320.143C236.605 313.131 242.662 306.342 249.491 300.285C259.89 291.05 272.173 285.543 285.529 282.377C288.944 281.566 290.265 280.022 290.893 276.66C291.861 271.428 293.941 266.588 298.885 263.671C308.592 263.658 318.298 263.671 328.004 263.605C329.809 263.592 330.346 263.867 330.045 265.986C326.827 288.316 323.766 310.672 320.639 333.014C320.496 334.009 320.221 334.99 320.012 335.971C319.161 337.161 317.814 337.214 316.545 337.514C312.058 338.6 307.349 338.613 303.019 340.379C302.391 340.706 301.698 341.02 301.018 341.02C296.753 340.994 294.398 343.872 291.965 346.75C283.698 356.548 274.999 365.979 266.274 375.372C252.865 389.8 239.13 403.915 225.5 418.134C215.427 428.638 204.988 438.776 194.837 449.189C192.509 451.583 192.142 451.517 189.186 449.516C185.693 446.926 182.344 444.127 178.813 441.576C175.254 438.816 171.552 436.239 168.06 433.387C167.196 432.667 166.398 431.935 165.888 430.941Z" fill="#3C4873"/>
<path d="M393.58 263.71C398.329 263.684 403.077 263.697 407.813 263.592C409.382 263.553 410.259 264.05 410.573 265.646C414 283.633 417.44 301.606 420.881 319.593C419.926 320.849 418.474 320.954 417.087 321.189C404.856 323.256 392.638 325.467 380.407 327.547C374.678 328.331 369.079 329.953 363.258 330.228C361.793 329.705 360.328 329.731 358.797 329.98C353.238 330.895 347.704 331.955 342.145 332.936C340.523 333.224 338.822 334.022 337.174 332.923C339.476 320.98 341.739 309.037 344.068 297.093C345.742 288.525 347.469 279.957 349.169 271.402C355.252 271.127 361.099 269.374 367.064 268.38C375.92 266.889 384.633 264.626 393.58 263.71Z" fill="#3C4873"/>
<path d="M322.981 407.734C323.23 401.155 325.113 394.849 326.304 388.44C329.626 370.531 333.158 352.675 336.612 334.793C336.664 334.519 336.9 334.27 337.043 334.009C341.661 334.558 345.991 332.897 350.465 332.269C353.251 331.876 356.011 331.235 358.798 330.843C359.962 330.673 361.191 330.241 362.29 331.118C363.729 334.336 363.598 337.841 364.082 341.229C367.811 367.483 371.264 393.764 374.953 420.031C375.031 420.632 375.11 421.234 375.175 421.836C375.555 425.407 375.175 426.022 371.552 426.768C368.085 427.487 364.645 428.35 361.165 428.991C356.037 429.973 350.962 431.189 345.847 432.222C341.792 433.034 337.776 434.067 333.695 434.773C330.66 435.31 329.849 434.865 328.985 431.987C326.945 425.224 325.087 418.396 323.125 411.606C322.746 410.338 322.615 409.043 322.981 407.734Z" fill="#3C4873"/>
<path d="M437.952 247.084C437.52 244.964 436.121 243.408 434.865 241.773C435.519 240.975 436.448 240.922 437.35 240.922C446.141 240.831 454.919 240.281 463.683 239.667C485.123 238.136 505.451 232.956 523.268 220.411C534.152 212.745 542.838 203.131 546.409 189.827C547.835 184.516 548.096 179.1 547.835 173.606C547.717 171.16 546.958 168.57 548.58 166.268C551.314 171.853 552.426 177.91 553.669 183.901C556.756 198.775 556.534 213.543 551.72 228.09C550.058 233.1 547.625 237.744 544.944 242.27C544.106 243.683 543.125 243.774 541.686 243.643C529.482 242.479 517.604 243.617 506.079 248.261C492.684 253.65 482.036 262.533 472.67 273.22C471.937 274.057 471.218 274.894 470.485 275.732C457.783 276.163 445.631 273.992 434.394 267.804C432.85 266.954 431.294 265.829 431.215 263.697C435.859 263.671 440.49 263.671 445.134 263.618C450.419 263.553 454.107 260.165 454.134 255.429C454.147 250.694 450.432 247.28 445.212 247.201C442.779 247.162 440.372 247.123 437.952 247.084Z" fill="#EE8F94"/>
<path d="M301.894 239.313C302.705 241.916 303.516 244.52 304.327 247.123C285.896 247.123 267.451 247.136 249.02 247.136C261.512 230.34 274.005 213.53 286.51 196.747C286.864 196.276 287.426 195.975 287.884 195.596C292.567 210.168 297.224 224.741 301.894 239.313Z" fill="#89CAE2"/>
<path d="M431.215 263.697C433.766 267.242 437.585 268.864 441.457 270.329C449.568 273.403 458.071 274.45 466.639 275.169C467.934 275.274 469.281 275.012 470.485 275.732C461.616 287.217 454.473 299.683 448.979 313.118C448.456 314.413 447.723 315.067 446.376 315.25C443.59 315.643 440.803 316.127 438.017 316.571C436.735 311.391 436.343 306.08 435.558 300.821C433.962 289.99 432.418 279.146 430.979 268.288C430.783 266.81 429.632 265.149 431.215 263.697Z" fill="#3C4873"/>
<path d="M425.747 344.382C421.98 354.167 419.102 364.239 415.831 374.194C406.374 402.934 397.021 431.712 387.641 460.478C387.589 460.661 387.641 460.884 387.654 461.08C387.314 461.917 386.987 462.767 386.647 463.605C386.189 464.73 385.509 465.606 384.136 465.135C382.867 464.703 382.984 463.683 383.22 462.623C383.325 462.139 383.298 461.616 383.325 461.119C382.906 459.785 383.351 458.516 383.665 457.247C392.992 419.612 402.279 381.951 411.737 344.343C412.012 343.27 412.169 342.145 412.914 341.256C417.454 340.68 421.666 341.74 425.669 343.859C425.747 344.016 425.773 344.199 425.747 344.382Z" fill="#BC7488"/>
<path d="M425.669 343.846C421.548 343.008 417.427 342.171 413.307 341.321C409.945 341.57 407.093 339.843 404.045 338.901C396.994 336.729 390.349 333.577 383.9 330.058C382.513 329.299 380.577 328.946 380.303 326.853C388.191 325.427 396.079 323.988 403.98 322.576C409.618 321.568 415.243 320.587 420.881 319.593C422.477 327.677 424.073 335.761 425.669 343.846Z" fill="#FFCB65"/>
<path d="M314.138 377.137C310.868 365.901 307.597 354.664 304.314 343.427C304.118 342.76 303.83 342.106 303.582 341.452C304.419 340.405 305.661 340.274 306.839 340.065C309.913 339.529 313 339.019 316.074 338.443C317.265 338.221 318.481 337.972 319.501 338.966C318.625 345.742 317.801 352.532 316.859 359.308C316.022 365.26 315.054 371.199 314.138 377.137Z" fill="#3C4873"/>
<path d="M393.58 263.71C388.937 265.803 383.848 265.908 378.969 266.941C369.746 268.89 360.446 270.46 351.184 272.239C350.216 272.422 349.379 272.828 349.196 271.402C350.138 263.658 350.138 263.644 357.594 263.658C369.589 263.658 381.585 263.684 393.58 263.71Z" fill="#37406B"/>
<path d="M362.042 331.078C354.468 332.478 346.907 333.878 339.333 335.251C338.286 335.447 337.266 335.408 337.057 334.009C337.109 333.642 337.148 333.276 337.201 332.923C344.84 331.536 352.479 330.15 360.119 328.776C361.349 328.554 362.552 328.449 363.245 329.823C363.468 330.843 363.023 331.209 362.042 331.078Z" fill="#333964"/>
<path d="M319.501 338.966C314.203 339.791 308.892 340.615 303.594 341.452C302.862 341.478 302.391 341.19 302.378 340.392C303.058 338.221 305.06 338.705 306.577 338.391C311.038 337.501 315.538 336.756 320.025 335.945C320.142 337.017 320.051 338.038 319.501 338.966Z" fill="#333A64"/>
<path d="M380.735 111.68C380.172 106.63 379.492 101.581 379.073 96.5054C378.877 94.1116 378.105 91.7569 378.524 89.3238C382.684 98.4545 387.681 101.803 397.256 101.345C403.378 101.058 408.035 97.8005 411.724 93.0781C412.09 92.6072 412.522 92.2017 412.915 91.7569C413.856 100.377 416.185 108.488 421.522 115.512C423.903 126.331 426.323 137.149 428.664 147.98C432.353 165.025 435.977 182.07 439.64 199.115C439.587 199.834 439.208 200.24 438.462 200.292C432.196 201.352 425.891 202.215 419.664 203.51C414.772 204.53 410.22 206.545 406.662 210.273C405.694 211.293 404.778 212.405 404.556 213.883C402.096 215.283 399.559 216.33 396.628 215.702C395.36 215.793 394.954 215.165 394.771 213.923C393.005 202.045 391.082 190.193 389.368 178.316C387.524 165.535 385.771 152.729 384.11 139.922C382.893 130.53 381.86 121.098 380.735 111.68Z" fill="white"/>
<path d="M396.654 215.715C399.297 215.113 401.939 214.499 404.582 213.897C407.643 221.235 410.56 228.652 413.843 235.886C415.138 238.712 414.131 238.777 411.816 238.764C403.731 238.699 395.634 238.751 387.55 238.764C386.778 238.895 386.451 238.346 386.268 237.783C384.672 233.048 383.115 228.286 382.03 223.394C381.833 222.504 381.886 221.602 382.213 220.725C382.867 219.613 383.704 218.855 385.117 219.247C388.819 217.638 392.782 216.853 396.654 215.715Z" fill="#D86E76"/>
<path d="M548.58 166.268C548.149 171.069 548.894 175.856 548.659 180.697C548.123 192.025 543.675 201.587 536.323 209.868C521.999 225.997 503.149 233.741 482.638 238.032C472.003 240.255 461.145 240.883 450.262 241.276C445.134 241.459 439.993 241.577 434.852 241.773C434.486 241.511 434.12 241.25 433.753 240.988C433.727 238.699 435.428 238.764 436.932 238.751C441.89 238.699 446.861 238.921 451.805 238.66C467.307 237.835 482.769 236.567 497.564 231.308C511.338 226.402 524.04 219.731 533.942 208.625C541.517 200.135 545.912 190.298 546.134 178.761C546.239 173.803 545.951 168.871 545.153 163.992C544.852 162.147 545.48 161.546 547.141 161.546C548.057 163.011 548.293 164.646 548.58 166.268Z" fill="#D86E76"/>
<path d="M382.697 220.516C382.331 224.689 384.424 228.325 385.326 232.223C385.85 234.447 386.791 236.579 387.537 238.751C387.537 238.895 387.537 239.039 387.537 239.183C375.607 239.196 363.69 239.209 351.76 239.222C351.224 237.364 352.623 236.226 353.434 234.918C359.831 224.676 357.555 226.847 368.452 224.492C370.414 224.061 372.389 223.694 374.364 223.315C377.268 222.739 380.238 222.399 382.697 220.516Z" fill="#F7C8B6"/>
<path d="M438.476 200.305C438.868 199.913 439.26 199.52 439.653 199.128C450.563 195.674 459.863 189.095 469.687 183.548C477.288 179.244 485.11 175.634 494.162 174.771C489.806 169.015 485.529 163.455 481.369 157.804C476.45 151.12 472.264 143.977 468.863 136.403C468.458 135.501 467.765 134.363 469.073 133.787C470.538 133.146 470.891 134.507 471.349 135.527C475.993 145.691 482.154 154.9 489.022 163.678C492.488 168.112 495.981 172.508 499.709 177.23C495.889 177.335 492.318 177.544 488.838 178.355C479.629 180.487 471.741 185.471 463.722 190.167C456.672 194.301 449.725 198.683 441.811 201.116C440.451 201.509 439.247 201.993 438.476 200.305Z" fill="#D86E76"/>
<path d="M218.449 114.636C218.789 113.498 219.116 112.347 219.456 111.209C221.654 111.549 223.969 110.398 226.101 111.693C226.35 112.674 226.049 113.433 225.186 113.969C222.936 114.191 220.699 114.414 218.449 114.636Z" fill="#424760"/>
<path d="M225.186 113.969C225.486 113.21 225.8 112.452 226.101 111.693C226.559 111.497 227.03 111.3 227.475 111.091C230.104 109.875 232.014 110.228 232.59 113.459C230.13 113.629 227.658 113.799 225.186 113.969Z" fill="#F4C6B6"/>
<path d="M474.54 343.192C473.245 370.27 471.976 397.335 470.642 424.413C470.014 437.036 469.072 449.647 468.902 462.283C468.758 462.859 468.523 463.421 468.484 463.997C468.392 465.331 467.751 465.985 466.404 465.933C465.174 465.881 464.69 465.187 464.586 464.036C464.52 463.251 464.298 462.48 464.154 461.708C464.01 449.594 463.107 437.507 462.493 425.407C462.061 416.734 461.59 408.062 461.171 399.389C460.282 381.337 459.418 363.284 458.542 345.232C463.866 344.565 469.203 343.885 474.54 343.192Z" fill="#BC7488"/>
<path d="M365.6 452.42C366.672 455.337 367.248 458.202 364.475 460.596C357.306 465.41 349.418 468.092 340.811 468.746C337.357 469.007 333.969 468.798 330.647 467.804C329.574 467.477 328.384 467.032 328.2 465.815C328.017 464.573 329.142 463.893 330.071 463.304C331.248 462.558 332.478 461.891 333.681 461.198C340.431 458.529 347.561 456.933 354.167 453.846C357.843 452.316 361.571 451.191 365.6 452.42Z" fill="#373E59"/>
<path d="M143.912 462.545C136.743 457.967 130.647 452.342 126.788 444.611C125.86 442.766 124.329 440.425 126.147 438.79C127.848 437.259 129.941 439.13 131.602 440.098C136.495 442.949 140.851 446.573 145.338 450.013C146.855 451.164 148.464 452.198 150.034 453.284C153.383 455.743 156.875 458.058 158.301 462.27C158.196 462.558 157.987 462.741 157.699 462.833C153.984 466.6 152.925 466.796 147.954 464.547C146.567 463.932 145.246 463.212 143.912 462.545Z" fill="#373E59"/>
<path d="M189.448 448.784C189.33 453.401 190.455 457.875 191.096 462.401C191.515 465.397 191.868 468.405 192.365 471.388C192.64 473.049 192.548 473.965 190.39 474.017C183.705 474.187 183.705 474.279 182.371 467.764C181.952 465.711 181.521 463.644 181.089 461.59C180.33 461.119 180.134 460.321 179.99 459.536C178.983 454.147 177.518 448.823 177.243 443.303C177.492 442.23 177.976 441.367 179.127 441.066C182.567 443.643 186.008 446.22 189.448 448.784Z" fill="#4D7CB2"/>
<path d="M368.7 125.31C368.7 122.812 368.7 120.784 368.7 118.77C368.7 118.142 368.792 117.475 369.537 117.357C370.374 117.239 370.885 117.789 371.028 118.547C371.159 119.241 371.12 119.96 371.133 120.667C371.512 139.111 374.338 157.137 380.054 174.705C380.499 176.066 382.056 178.224 379.989 178.891C377.805 179.598 378.014 176.851 377.569 175.529C373.723 163.926 371.172 152.049 369.851 139.883C369.315 134.873 368.556 129.889 368.7 125.31Z" fill="#D96E76"/>
<path d="M403.3 49.6615C405.314 47.0322 408.401 46.2081 411.279 45.227C416.708 43.3564 422.255 42.0744 428.102 43.0294C430.051 43.3433 432.118 43.6442 432.942 45.5279C433.792 47.4639 432.131 48.9421 430.967 50.2894C429.122 52.4217 427.108 54.4231 425.172 56.4769C421.81 56.4507 418.592 57.3926 415.374 58.1644C413.869 58.5175 412.758 58.3867 411.58 57.2225C408.912 54.6063 406.073 52.1731 403.3 49.6615Z" fill="#A65D73"/>
<path d="M378.472 77.8517C378.563 74.4506 380.578 71.6774 381.493 68.5509C381.585 68.6033 381.69 68.6425 381.742 68.7079C384.764 72.5146 384.777 72.5146 381.245 75.5886C380.355 76.3735 379.4 77.1061 378.472 77.8517Z" fill="#A95F75"/>
<path d="M364.292 34.9977C363.873 36.1881 363.546 37.4177 363.01 38.5427C362.133 40.3479 360.76 42.127 363.886 43.1735C364.383 43.3435 364.553 43.9191 364.187 44.4293C363.886 44.8479 363.481 44.5993 363.101 44.4816C360.459 43.7098 359.766 42.2578 360.93 39.7593C361.754 38.0194 361.937 35.8872 364.292 34.9977Z" fill="#E3AB9A"/>
<path d="M386.792 36.0703C387.223 36.6589 388.518 35.22 388.597 36.6459C388.662 37.64 387.734 37.5616 387.053 37.5877C385.981 37.6139 384.908 37.6008 383.757 37.6008C383.927 36.3319 384.555 35.547 385.209 34.8407C385.837 34.1604 386.635 32.8392 387.59 33.611C388.715 34.5267 386.674 35.0369 386.792 36.0703Z" fill="#E3AA9A"/>
<path d="M367.104 51.4931C364.658 52.7358 362.5 51.7809 360.394 50.6559C360.119 50.512 359.831 49.9364 359.923 49.6748C360.119 49.06 360.747 49.0992 361.152 49.387C362.931 50.682 365.116 50.682 367.104 51.4931Z" fill="#E3AA9A"/>
<path d="M376.549 60.1397C375.96 60.3359 375.385 60.5191 374.796 60.7153C375.829 57.8767 378.629 56.5293 380.238 54.1485C380.525 57.1441 377.595 58.0336 376.549 60.1397Z" fill="#E3AB9B"/>
<path d="M367.706 30.1444C370.728 27.7767 372.991 28.1561 375.189 31.4787C372.847 30.0659 370.44 29.1633 367.706 30.1444Z" fill="#6585B2"/>
<path d="M371.172 35.1545C370.898 36.0832 370.296 36.5541 369.354 36.3056C368.595 36.1094 368.124 35.5076 368.242 34.7359C368.373 33.8463 368.975 33.2446 369.943 33.4147C370.858 33.5585 371.277 34.2126 371.172 35.1545Z" fill="#454961"/>
<path d="M360.878 32.8261C360.786 34.3828 360.171 34.736 359.256 34.6575C358.471 34.5921 357.934 34.1081 357.947 33.3363C357.947 32.4468 358.549 31.8058 359.439 31.8319C360.263 31.8712 360.917 32.3552 360.878 32.8261Z" fill="#41455F"/>
<path d="M82.561 158.497C83.6206 157.412 84.9549 158.079 86.1584 157.909C85.1119 158.995 83.7645 158.314 82.561 158.497Z" fill="#FDCD84"/>
<path d="M177.596 442.975C170.99 449.294 164.149 455.35 158.027 462.153C155.79 458.804 152.52 456.397 150.034 453.284C153.632 449.568 156.117 445.042 159.126 440.896C161.48 437.651 164.149 434.604 165.889 430.928C170.31 434.303 174.718 437.691 179.127 441.066C178.617 441.707 178.107 442.348 177.596 442.975Z" fill="#F7C8B6"/>
<path d="M365.6 452.42C361.793 452.891 357.987 453.375 354.167 453.846C351.328 446.39 348.477 438.92 345.625 431.464C350.687 430.326 355.698 428.992 360.865 428.325C362.264 435.48 363.664 442.622 365.064 449.778C365.234 450.667 365.417 451.544 365.6 452.42Z" fill="#F7C8B6"/>
</svg>
