<svg width="16" height="17" viewBox="0 0 16 17" fill="none" xmlns="http://www.w3.org/2000/svg">
<path opacity="0.2" fill-rule="evenodd" clip-rule="evenodd" d="M1.65 10.9629C0.45 12.1861 0.45 14.1228 1.65 15.3459C2.85 16.5691 4.85 16.5691 5.95 15.3459L8.35 12.8996L10.75 15.3459C11.95 16.5691 13.85 16.5691 15.05 15.3459C16.25 14.1228 16.25 12.1861 15.05 10.9629L12.65 8.51655L15.05 6.0702C16.25 4.84703 16.25 2.91033 15.05 1.68716C13.85 0.463982 11.95 0.463982 10.75 1.68716L8.35 4.13351L5.95 1.68716C4.75 0.463982 2.85 0.463982 1.65 1.68716C0.45 2.91033 0.45 4.84703 1.65 6.0702L4.05 8.51655L1.65 10.9629Z" fill="#171717"/>
</svg>
