<svg width="76" height="71" viewBox="0 0 76 71" fill="none" xmlns="http://www.w3.org/2000/svg">
<path d="M47.5582 70.6459H28.7743C27.4116 70.6459 26.3805 69.4229 26.6024 68.0822L28.9504 53.9943C29.128 52.9333 30.0466 52.1555 31.1223 52.1555H45.2102C46.2859 52.1555 47.2045 52.9333 47.3821 53.9943L49.7301 68.0822C49.9517 69.4209 48.9228 70.6459 47.5582 70.6459Z" fill="#8BB9FF"/>
<path d="M47.558 70.6459H38.166V52.1555H45.21C46.2857 52.1555 47.2043 52.9333 47.3819 53.9943L49.7299 68.0822C49.9515 69.4209 48.9226 70.6459 47.558 70.6459Z" fill="#6E75E2"/>
<path d="M54.4553 68.4442C54.4553 69.6592 53.4691 70.6454 52.2541 70.6454H24.0782C22.8631 70.6454 21.877 69.6592 21.877 68.4442C21.877 67.2291 22.8631 66.2429 24.0782 66.2429H52.2541C53.4691 66.2429 54.4553 67.2291 54.4553 68.4442Z" fill="#6E75E2"/>
<path d="M54.4552 68.4442C54.4552 69.6592 53.469 70.6454 52.254 70.6454H38.166V66.2429H52.254C53.469 66.2429 54.4552 67.2291 54.4552 68.4442Z" fill="#3340D8"/>
<path d="M73.5325 7.24965V49.9537C73.5325 52.3853 71.5616 54.3562 69.13 54.3562H7.2018C4.77016 54.3562 2.79932 52.3853 2.79932 49.9537V7.24965C2.79932 4.81801 4.77016 2.84717 7.2018 2.84717H69.13C71.5616 2.84717 73.5325 4.81801 73.5325 7.24965Z" fill="#F6F9F9"/>
<path d="M73.5326 7.24965V49.9537C73.5326 52.3853 71.5618 54.3562 69.1301 54.3562H38.166V2.84717H69.1301C71.5618 2.84717 73.5326 4.81801 73.5326 7.24965Z" fill="#E2DFF4"/>
<path d="M69.1301 0.645996H7.20186C3.56101 0.645996 0.598145 3.60886 0.598145 7.24972V49.9538C0.598145 53.5946 3.56101 56.5575 7.20186 56.5575H69.1301C72.7709 56.5575 75.7338 53.5946 75.7338 49.9538V7.24972C75.7338 3.60886 72.7709 0.645996 69.1301 0.645996ZM71.3313 49.9538C71.3313 51.1674 70.3437 52.155 69.1301 52.155H7.20186C5.98825 52.155 5.00062 51.1674 5.00062 49.9538V7.24972C5.00062 6.0361 5.98825 5.04848 7.20186 5.04848H69.1301C70.3437 5.04848 71.3313 6.0361 71.3313 7.24972V49.9538Z" fill="#FAA515"/>
<path d="M75.7338 7.24972V49.9538C75.7338 53.5946 72.771 56.5575 69.1301 56.5575H38.166V52.155H69.1301C70.3437 52.155 71.3314 51.1674 71.3314 49.9538V7.24972C71.3314 6.0361 70.3437 5.04848 69.1301 5.04848H38.166V0.645996H69.1301C72.771 0.645996 75.7338 3.60886 75.7338 7.24972Z" fill="#FC4755"/>
<path d="M40.3673 2.84724V7.54321C40.3673 8.7583 39.3812 9.74445 38.1661 9.74445C36.951 9.74445 35.9648 8.7583 35.9648 7.54321V2.84724C35.9648 1.63215 36.951 0.645996 38.1661 0.645996C39.3812 0.645996 40.3673 1.63215 40.3673 2.84724Z" fill="#FAA515"/>
<path d="M40.3673 2.84724V7.54321C40.3673 8.7583 39.3811 9.74445 38.166 9.74445V0.645996C39.3811 0.645996 40.3673 1.63215 40.3673 2.84724Z" fill="#FC4755"/>
<path d="M21.73 40.4152C20.5144 40.4152 19.5288 39.4297 19.5288 38.214V23.9793C19.5288 22.7636 20.5144 21.7781 21.73 21.7781C22.9457 21.7781 23.9313 22.7636 23.9313 23.9793V38.214C23.9313 39.4297 22.9457 40.4152 21.73 40.4152Z" fill="#FFB454"/>
<path d="M31.1221 40.4156C29.9065 40.4156 28.9209 39.43 28.9209 38.2143V31.0236C28.9209 29.808 29.9065 28.8224 31.1221 28.8224C32.3378 28.8224 33.3234 29.808 33.3234 31.0236V38.2143C33.3234 39.43 32.3378 40.4156 31.1221 40.4156Z" fill="#E27A4E"/>
<path d="M53.4278 41.4426C60.479 41.4426 66.195 35.7265 66.195 28.6754C66.195 21.6243 60.479 15.9082 53.4278 15.9082C46.3767 15.9082 40.6606 21.6243 40.6606 28.6754C40.6606 35.7265 46.3767 41.4426 53.4278 41.4426Z" fill="#FFB454"/>
<path d="M66.1951 28.6755C66.1951 35.715 60.4675 41.4427 53.4279 41.4427C50.0175 41.4427 46.8125 40.1146 44.3999 37.7035L53.4279 28.6755V26.4742H63.9939C65.209 26.4742 66.1951 27.4604 66.1951 28.6755Z" fill="#00CB75"/>
<path d="M66.1949 28.6754H53.4277V15.9082C60.4673 15.9082 66.1949 21.6358 66.1949 28.6754Z" fill="#6E75E2"/>
<path d="M12.338 40.4148C11.1223 40.4148 10.1367 39.4292 10.1367 38.2135V16.9349C10.1367 15.7192 11.1223 14.7336 12.338 14.7336C13.5536 14.7336 14.5392 15.7192 14.5392 16.9349V38.2135C14.5392 39.4292 13.5536 40.4148 12.338 40.4148Z" fill="#ACE233"/>
<path d="M10.1367 38.2137V40.415C10.1367 41.6307 11.1223 42.6162 12.338 42.6162H31.1219C32.3375 42.6162 33.3231 41.6307 33.3231 40.415V38.2137C30.3952 38.2137 13.0529 38.2137 10.1367 38.2137Z" fill="#E2DFF4"/>
</svg>
