<svg width="75" height="71" viewBox="0 0 75 71" fill="none" xmlns="http://www.w3.org/2000/svg">
<path d="M70.7066 40.5982C69.9141 40.4453 69.1503 40.9636 68.9979 41.7547C66.0979 56.8049 52.8509 67.7283 37.4998 67.7283C22.472 67.7283 9.46092 57.2602 6.19867 42.7003L6.57944 43.0811C6.86437 43.366 7.2377 43.5086 7.61103 43.5086C7.98437 43.5086 8.3577 43.366 8.64248 43.0812C9.21233 42.5115 9.21233 41.5879 8.64262 41.0181L5.64239 38.0177C5.36884 37.744 4.9977 37.5902 4.6108 37.5902C4.22389 37.5902 3.85275 37.744 3.5792 38.0177L0.579114 41.0181C0.00941168 41.5878 0.00941171 42.5114 0.57926 43.0812C1.14882 43.6511 2.07274 43.6509 2.64244 43.0811L3.18253 42.541C6.43837 58.8408 20.8322 70.6461 37.4998 70.6461C54.247 70.6461 68.6989 58.7277 71.8631 42.3069C72.0155 41.5157 71.4978 40.7506 70.7066 40.5982Z" fill="#FC4755"/>
<path d="M74.4203 28.2108C73.8508 27.641 72.9268 27.6411 72.3571 28.211L71.8171 28.7511C68.5612 12.4513 54.1674 0.645996 37.4998 0.645996C20.7526 0.645996 6.30071 12.5644 3.13649 28.9852C2.98403 29.7765 3.5018 30.5414 4.29296 30.6939C5.08515 30.846 5.84918 30.3283 6.00163 29.5374C8.90179 14.4872 22.1488 3.56381 37.4998 3.56381C52.5276 3.56381 65.5387 14.0319 68.8009 28.5917L68.4201 28.211C67.8506 27.6413 66.9269 27.6411 66.357 28.2108C65.7871 28.7805 65.7871 29.7042 66.3568 30.274L69.3569 33.2744C69.6304 33.5481 70.0016 33.7019 70.3885 33.7019C70.7754 33.7019 71.1465 33.5481 71.4201 33.2744L74.4202 30.274C74.9903 29.7043 74.9903 28.7805 74.4203 28.2108Z" fill="#FC4755"/>
<path d="M37.4996 60.3072C51.0977 60.3072 62.1607 49.2442 62.1607 35.646C62.1607 22.0479 51.0977 10.9849 37.4996 10.9849C23.9014 10.9849 12.8384 22.0479 12.8384 35.646C12.8384 49.2442 23.9014 60.3072 37.4996 60.3072ZM37.4996 13.9027C49.489 13.9027 59.2429 23.6566 59.2429 35.646C59.2429 47.6355 49.489 57.3894 37.4996 57.3894C25.5101 57.3894 15.7562 47.6355 15.7562 35.646C15.7562 23.6566 25.5101 13.9027 37.4996 13.9027Z" fill="#FAA515"/>
<path d="M39.0394 42.0771C39.2162 42.1476 39.3985 42.1808 39.578 42.1808C40.158 42.1808 40.7066 41.8324 40.934 41.2606L44.9715 31.1096C45.2693 30.3609 44.9037 29.5126 44.1551 29.2148C43.4067 28.9172 42.5581 29.2825 42.2603 30.0314L38.2228 40.1823C37.925 40.931 38.2906 41.7793 39.0394 42.0771Z" fill="#333333"/>
<path d="M47.2835 32.0295H50.6331L47.07 40.1345C46.7457 40.8722 47.0808 41.7329 47.8184 42.0572C48.0096 42.1413 48.2087 42.1811 48.4049 42.1811C48.966 42.181 49.501 41.8555 49.7411 41.309L54.2036 31.1579C54.4019 30.7067 54.3592 30.186 54.0898 29.7734C53.8204 29.3607 53.361 29.1119 52.8682 29.1119H47.2836C46.478 29.1119 45.8247 29.7652 45.8247 30.5708C45.8246 31.3762 46.4777 32.0295 47.2835 32.0295Z" fill="#333333"/>
<path d="M28.6089 38.4673C28.8713 38.9118 29.349 39.1845 29.8651 39.1845H33.4727C33.4686 39.7223 33.4644 40.2374 33.4603 40.7091C33.4535 41.5148 34.1011 42.1735 34.9067 42.1805H34.9195C35.7193 42.1805 36.3711 41.5355 36.3781 40.7342C36.3815 40.3524 36.3859 39.8105 36.3908 39.1768C37.1255 39.1011 37.6987 38.4803 37.6987 37.7256C37.6987 36.9775 37.1357 36.3609 36.4102 36.2765C36.4234 33.9018 36.4283 31.5111 36.3986 31.1531C36.3205 30.2149 35.7474 29.447 34.9386 29.1964C34.131 28.9466 33.2818 29.2481 32.6665 30.0029C32.0888 30.7115 29.6218 35.1468 28.5879 37.0208C28.3384 37.4729 28.3464 38.0228 28.6089 38.4673ZM33.501 34.2295C33.4988 34.8596 33.4958 35.553 33.4918 36.2667H32.3466C32.752 35.5444 33.1461 34.8484 33.501 34.2295Z" fill="#333333"/>
<path d="M27.7265 42.2563C28.5321 42.2462 29.1769 41.5848 29.1669 40.7791C29.157 39.9798 28.5057 39.3386 27.7086 39.3386C27.7023 39.3386 27.696 39.3386 27.6897 39.3388C26.891 39.3487 26.0518 39.3561 25.2936 39.3598C25.8185 38.6491 26.4924 37.7179 27.3437 36.5016C28.0152 35.5423 28.4542 34.6302 28.6488 33.7908C28.6967 33.6047 28.7364 33.3414 28.7368 33.0687C28.74 30.8319 26.9171 29.0122 24.6803 29.0122C22.7464 29.0122 21.0726 30.3882 20.7 32.2839C20.5448 33.0745 21.0596 33.8413 21.8503 33.9967C22.6415 34.1524 23.4079 33.6371 23.5631 32.8464C23.6674 32.3153 24.1373 31.93 24.6803 31.93C25.2833 31.93 25.7781 32.4012 25.8165 32.9946L25.791 33.1943C25.7039 33.5271 25.4866 34.0663 24.9533 34.8284C23.3489 37.1207 22.3919 38.3737 21.8778 39.0468C21.2185 39.9101 20.8554 40.3855 21.098 41.1751C21.2408 41.6392 21.6052 42.0094 22.074 42.1658C22.2687 42.2308 22.4247 42.2827 24.4171 42.2827C25.1994 42.2825 26.2647 42.2747 27.7265 42.2563Z" fill="#333333"/>
</svg>
