<svg width="70" height="52" viewBox="0 0 70 52" fill="none" xmlns="http://www.w3.org/2000/svg">
<path d="M46.6663 25.8775C43.6679 25.8775 40.7688 24.5387 38.4996 22.1092C36.2932 19.7394 34.9457 16.5792 34.708 13.2134C34.4542 9.62297 35.5494 6.32132 37.7909 3.91509C40.0323 1.50885 43.1663 0.210938 46.6663 0.210938C50.1414 0.210938 53.2841 1.53218 55.5183 3.93259C57.7743 6.35632 58.8724 9.65214 58.6187 13.2119C58.3752 16.5821 57.0291 19.7408 54.827 22.1077C52.5637 24.5387 49.666 25.8775 46.6663 25.8775ZM65.8914 51.544H27.4426C26.8244 51.5473 26.2138 51.4088 25.6575 51.139C25.1013 50.8692 24.6144 50.4755 24.2343 49.988C23.8311 49.4595 23.5526 48.8467 23.4198 48.1954C23.2869 47.544 23.3032 46.8711 23.4672 46.227C24.6951 41.2964 27.7372 37.2072 32.2638 34.4028C36.2815 31.9149 41.3959 30.5441 46.6663 30.5441C52.0402 30.5441 57.0204 31.8566 61.0614 34.3431C65.5982 37.1328 68.6447 41.2453 69.8668 46.2357C70.0288 46.8803 70.0432 47.5533 69.9089 48.2042C69.7746 48.8552 69.495 49.4675 69.0909 49.9953C68.7112 50.4805 68.2254 50.8723 67.6708 51.1408C67.1162 51.4092 66.5075 51.5472 65.8914 51.544ZM19.1039 26.4608C13.9721 26.4608 9.45999 21.6892 9.04145 15.8252C8.83437 12.8211 9.77062 10.043 11.6664 8.00569C13.5418 5.98882 16.1872 4.87758 19.1039 4.87758C22.0206 4.87758 24.6455 5.99466 26.5312 8.02319C28.4416 10.0765 29.3749 12.8488 29.1561 15.8281C28.7376 21.6906 24.227 26.4608 19.1039 26.4608ZM28.6793 31.0472C26.1141 29.7931 22.7847 29.166 19.1054 29.166C14.8091 29.166 10.6369 30.286 7.35563 32.3189C3.63544 34.6274 1.13295 37.9889 0.122333 42.0474C-0.0255624 42.6312 -0.0395508 43.2408 0.0814149 43.8307C0.202381 44.4207 0.455169 44.9756 0.820871 45.454C1.16788 45.8995 1.61243 46.2595 2.12034 46.5062C2.62825 46.753 3.18598 46.8799 3.75065 46.8774H19.9381C20.2113 46.8773 20.4758 46.7814 20.6856 46.6063C20.8953 46.4312 21.0369 46.1881 21.0858 45.9192C21.1018 45.8274 21.1222 45.7355 21.1456 45.6451C22.3822 40.678 25.2799 36.481 29.5616 33.4214C29.719 33.3079 29.8457 33.1569 29.9301 32.982C30.0144 32.8072 30.0538 32.6141 30.0447 32.4202C30.0356 32.2262 29.9782 32.0377 29.8778 31.8715C29.7774 31.7054 29.6371 31.5669 29.4697 31.4687C29.2407 31.3345 28.9782 31.1931 28.6793 31.0472Z" fill="#5D5D66"/>
</svg>
