<svg width="70" height="71" viewBox="0 0 70 71" fill="none" xmlns="http://www.w3.org/2000/svg">
<g clip-path="url(#clip0_1043:59)">
<path d="M51.0417 32.9609C40.5883 32.9609 32.0833 41.4659 32.0833 51.9193C32.0833 62.3726 40.5883 70.8776 51.0417 70.8776C61.495 70.8776 70 62.3726 70 51.9193C70 41.4659 61.495 32.9609 51.0417 32.9609ZM59.605 49.163C59.2492 49.9534 58.4675 50.4609 57.6042 50.4609H53.9583V62.1276C53.9583 63.7376 52.6546 65.0443 51.0417 65.0443C49.4287 65.0443 48.125 63.7376 48.125 62.1276V50.4609H44.4792C43.6158 50.4609 42.8342 49.9534 42.4783 49.163C42.1283 48.3726 42.2742 47.4509 42.8517 46.8093L49.4142 39.5176C49.8312 39.0568 50.4204 38.7943 51.0417 38.7943C51.6629 38.7943 52.2521 39.0568 52.6692 39.5176L59.2317 46.8093C59.8092 47.4509 59.955 48.3755 59.605 49.163Z" fill="#5D5D66"/>
<path d="M55.4167 0.877441H8.75C3.91708 0.877441 0 4.79452 0 9.62744C0 14.4604 3.91708 18.3774 8.75 18.3774H55.4167C60.2496 18.3774 64.1667 14.4604 64.1667 9.62744C64.1667 4.79452 60.2496 0.877441 55.4167 0.877441ZM8.75 12.5441C7.14 12.5441 5.83333 11.2374 5.83333 9.62744C5.83333 8.01744 7.14 6.71077 8.75 6.71077C10.36 6.71077 11.6667 8.01744 11.6667 9.62744C11.6667 11.2374 10.36 12.5441 8.75 12.5441ZM20.4167 12.5441C18.8067 12.5441 17.5 11.2374 17.5 9.62744C17.5 8.01744 18.8067 6.71077 20.4167 6.71077C22.0267 6.71077 23.3333 8.01744 23.3333 9.62744C23.3333 11.2374 22.0267 12.5441 20.4167 12.5441Z" fill="#5D5D66"/>
<path d="M55.4167 24.2109H8.75C3.90833 24.2109 0 28.1193 0 32.9609C0 37.8026 3.90833 41.7109 8.75 41.7109H28.4667C32.3458 33.1068 41.0083 27.1276 51.0417 27.1276C55.7083 27.1276 60.1125 28.4401 63.8458 30.7151C62.8833 26.9526 59.4708 24.2109 55.4167 24.2109ZM8.75 35.8776C7.14583 35.8776 5.83333 34.5651 5.83333 32.9609C5.83333 31.3568 7.14583 30.0443 8.75 30.0443C10.3542 30.0443 11.6667 31.3568 11.6667 32.9609C11.6667 34.5651 10.3542 35.8776 8.75 35.8776ZM20.4167 35.8776C18.8125 35.8776 17.5 34.5651 17.5 32.9609C17.5 31.3568 18.8125 30.0443 20.4167 30.0443C22.0208 30.0443 23.3333 31.3568 23.3333 32.9609C23.3333 34.5651 22.0208 35.8776 20.4167 35.8776Z" fill="#5D5D66"/>
<path d="M26.25 51.9189C26.25 50.4314 26.3958 48.9731 26.6583 47.5439H8.75C3.90833 47.5439 0 51.4523 0 56.2939C0 61.1356 3.90833 65.0439 8.75 65.0439H30.0125C27.6208 61.2523 26.25 56.7314 26.25 51.9189ZM8.75 59.2106C7.14583 59.2106 5.83333 57.8981 5.83333 56.2939C5.83333 54.6898 7.14583 53.3773 8.75 53.3773C10.3542 53.3773 11.6667 54.6898 11.6667 56.2939C11.6667 57.8981 10.3542 59.2106 8.75 59.2106ZM20.4167 59.2106C18.8125 59.2106 17.5 57.8981 17.5 56.2939C17.5 54.6898 18.8125 53.3773 20.4167 53.3773C22.0208 53.3773 23.3333 54.6898 23.3333 56.2939C23.3333 57.8981 22.0208 59.2106 20.4167 59.2106Z" fill="#5D5D66"/>
</g>
<defs>
<clipPath id="clip0_1043:59">
<rect width="70" height="70" fill="white" transform="translate(0 0.877441)"/>
</clipPath>
</defs>
</svg>
