<svg width="41" height="41" viewBox="0 0 41 41" fill="none" xmlns="http://www.w3.org/2000/svg">
<g clip-path="url(#clip0)">
<path d="M38.0154 14.2312C38.0088 14.2336 38.0246 14.2144 38.061 14.1782C38.0598 14.1801 38.0587 14.1829 38.0572 14.1847C38.0436 14.1995 38.0307 14.2138 38.0154 14.2312Z" fill="#37BD8A"/>
<path d="M3.38725 21.1269C5.58139 19.4458 9.0078 19.2023 10.9132 21.0446C10.8949 14.1707 16.998 11.9492 22.2364 13.1403C22.2377 13.0306 22.2574 12.9199 22.3229 12.8116C22.7065 12.1778 23.149 11.6542 23.6278 11.2106C23.5827 11.197 23.5377 11.1791 23.4937 11.1435C23.1242 10.8426 22.7334 10.5806 22.3181 10.3474C21.861 10.0909 21.3692 9.92659 20.953 9.60295C20.5109 9.25932 20.9924 8.56785 21.4759 8.70463C22.4504 8.98029 23.3367 9.90849 23.972 10.6614C25.2575 8.84267 27.8835 8.38983 30.2632 8.84793C30.1885 8.71494 30.1216 8.57311 30.0679 8.41319C29.8651 7.80757 29.5766 6.95807 30.0755 6.4421C30.2811 6.22957 30.6287 6.24009 30.8356 6.4421C31.2356 6.83224 31.118 7.38377 31.1468 7.89701C31.1657 8.23495 31.1662 8.68674 31.2289 9.08446C31.7745 9.25196 32.2951 9.46344 32.764 9.72121C33.164 9.94111 33.5442 10.2001 33.9102 10.4783C34.0606 10.1671 34.1984 9.85042 34.3325 9.52678C34.5132 9.09098 34.5583 8.64466 34.8022 8.23706C34.9909 7.92142 35.5364 7.86818 35.7108 8.23706C36.1817 9.23218 35.3049 10.2631 34.4712 10.9396C35.3916 11.7554 36.1531 12.7394 36.6617 13.7991C36.8469 14.0786 37.0081 14.3654 37.1461 14.6581C37.3122 14.6074 37.4782 14.5569 37.6411 14.4992C37.7486 14.4611 37.8496 14.4014 37.9333 14.3256C37.9464 14.3081 37.9794 14.2701 38.0148 14.2305C38.0211 14.2282 38.0367 14.212 38.0567 14.184C38.0754 14.1638 38.0929 14.1451 38.099 14.1394C38.0783 14.1579 38.0733 14.1646 38.0602 14.1775C38.072 14.1604 38.0842 14.1427 38.0935 14.1196C38.253 13.72 38.6644 13.6076 39.0013 13.8799C39.6033 14.3664 39.2729 15.2338 38.652 15.5051C38.2928 15.6618 37.9106 15.7184 37.5262 15.7168C37.769 16.6942 37.721 17.707 37.2924 18.6981C37.4289 18.7149 37.5647 18.7349 37.6962 18.7516C37.902 18.7776 38.0718 18.8162 38.2463 18.8056C38.2942 18.7985 38.3946 18.7852 38.4533 18.7758C38.4651 18.7722 38.4769 18.7694 38.4889 18.7667C38.4874 18.7665 38.4906 18.7657 38.4859 18.7657C38.4874 18.7657 38.4887 18.7665 38.4901 18.7663C38.6574 18.729 38.8472 18.7654 39.0213 18.9014C39.2879 19.1095 39.3239 19.5055 39.1589 19.786C39.056 19.9611 38.8674 20.0968 38.6732 20.1501C38.4748 20.2048 38.3109 20.1593 38.1301 20.0789C38.3409 20.1726 38.0687 20.0539 38.0011 20.0236C37.6585 19.8704 37.256 19.6448 36.8564 19.5127C36.6489 19.8254 36.3846 20.1318 36.0906 20.4341C38.3721 21.0526 40.327 22.7735 40.578 25.4329C41.4166 34.3147 30.4166 33.3324 24.6279 33.8744C17.1556 34.5743 3.802 38.5872 0.897243 28.5089C0.087513 25.6999 1.11945 22.8646 3.38725 21.1269ZM29.5347 22.2057C30.8192 20.6446 32.8814 20.024 34.8802 20.217C34.8941 20.1888 34.899 20.1608 34.9198 20.1324C37.195 17.0342 35.7523 13.9222 32.7419 12.0258C30.0993 10.3611 27.2591 10.504 25.0277 12.1536C24.7649 12.6767 24.5305 13.2383 24.2481 13.7791C27.5916 15.1951 30.0995 18.1333 29.5347 22.2057ZM4.21886 31.2891C8.30476 35.9122 18.3864 33.0595 23.584 32.4145C28.0089 31.8653 33.1025 32.7619 37.0592 30.2984C43.3506 26.3817 33.7387 17.3537 29.4156 24.3416C29.1757 24.7294 28.5657 24.551 28.5474 24.1467C28.464 24.0908 28.4064 24.0007 28.4184 23.8675C28.8548 19.0144 26.2646 15.4935 21.506 14.4104C16.4216 13.2533 12.3406 16.5261 12.5276 21.7072C12.5449 22.1815 12.2215 22.4326 11.8616 22.4696C12.0403 23.1754 11.1224 23.6899 10.6736 23.0043C8.61009 19.8559 3.76139 21.8783 2.6116 24.6659C1.67898 26.928 2.69788 29.5684 4.21886 31.2891Z" fill="#37BD8A"/>
<path d="M24.694 6.32482C25.2571 6.31661 25.5795 6.77534 25.8238 7.22671C26.0753 7.69155 26.078 8.16459 26.1944 8.66058C26.2716 8.98927 25.7727 9.23547 25.6256 8.90025C25.4806 8.56967 25.2437 8.24393 25.0307 7.95206C24.7637 7.58613 24.3653 7.40116 24.2138 6.95505C24.1078 6.64193 24.3855 6.32944 24.694 6.32482Z" fill="#37BD8A"/>
</g>
<defs>
<clipPath id="clip0">
<rect width="40" height="40" fill="white" transform="matrix(-1 0 0 1 40.6233 0.768555)"/>
</clipPath>
</defs>
</svg>
