<svg width="90" height="93" viewBox="0 0 90 93" fill="none" xmlns="http://www.w3.org/2000/svg">
<path d="M80.2546 74.235C78.7612 71.74 76.2824 70.139 73.0604 69.9821C70.9315 63.9574 65.7184 60.4739 60.7737 57.0034C55.0136 50.9365 49.3942 44.7418 43.634 38.6748C38.0961 28.0433 29.0647 20.0676 21.5688 10.9556C17.9436 5.26175 14.3183 -0.432117 6.18484 0.786641C0.687098 0.384352 -1.55244 2.15926 1.54887 7.55848C2.45594 8.2755 3.36301 8.99251 4.27007 9.70952C3.36301 8.99251 2.45594 8.2755 1.54887 7.55848C16.4098 28.4675 34.2143 46.9631 52.8765 64.4239C57.4219 70.5663 61.5318 77.3603 68.6114 81.2038L69.2369 82.1763L70.157 82.6248C74.8955 87.5655 80.5249 96.3174 86.8604 90.5704C94.8592 83.8277 83.2151 79.7619 80.2546 74.235ZM20.2886 12.3735C22.3652 19.4723 28.1908 24.1967 32.0845 29.9037C28.3315 24.069 22.3652 19.4723 20.2886 12.3735ZM33.1624 38.1649C30.0712 35.323 26.9799 32.4811 23.8886 29.6391C26.9799 32.4811 30.212 35.1952 33.1624 38.1649C34.705 42.4116 37.0924 45.8921 39.9021 48.9895C37.0924 45.8921 34.705 42.4116 33.1624 38.1649ZM55.3976 62.3935C50.6069 58.5269 45.4068 54.7749 41.1792 50.3974C45.4068 54.7749 50.4792 58.3861 55.3976 62.3935C56.6386 61.7811 58.2627 61.5911 59.3628 61.1064C58.1219 61.7188 56.4978 61.9088 55.3976 62.3935Z" fill="#EFBA34"/>
</svg>
