<svg width="95" height="89" viewBox="0 0 95 89" fill="none" xmlns="http://www.w3.org/2000/svg">
<path d="M67.075 67.658C68.149 67.7103 69.4915 67.7757 70.5655 67.828C72.255 66.2954 73.9444 64.7629 75.6339 63.2303C73.9444 64.7629 72.255 66.2954 70.5655 67.828C69.4915 67.7757 68.2898 67.5826 67.075 67.658C69.8847 70.7554 72.6943 73.8527 75.504 76.95C77.1643 78.7803 78.9523 80.7513 80.6126 82.5816C83.5077 89.451 88.4423 90.3642 92.9998 85.2033C97.5574 80.0425 92.7012 77.5184 88.3559 75.5574C88.2544 74.8796 87.8712 74.4572 87.2065 74.2903C87.995 66.3891 81.1809 65.3844 76.4786 62.4641C74.8837 59.2913 72.9941 56.6425 69.4151 55.5262C68.9043 54.963 68.2657 54.2591 67.7549 53.6959C57.3478 40.8088 45.3658 29.8635 30.0935 22.9296C27.7876 15.0123 21.1304 10.7856 15.0233 6.31658C14.7478 0.920398 10.9103 2.34835 7.80295 2.60074C2.91062 -1.94371 1.16886 0.662856 0.51115 5.87902C-1.06671 10.6467 3.16395 12.1984 5.5905 14.8734C26.1453 32.1572 46.5463 49.8372 67.075 67.658ZM12.9507 7.42677C14.1494 10.4457 15.2204 13.3238 16.419 16.3427C15.0796 13.4515 13.8809 10.4326 12.9507 7.42677ZM7.26991 10.7835C7.10298 11.4482 7.06375 12.2537 7.16531 12.9315C7.07682 11.9852 7.10298 11.4482 7.26991 10.7835Z" fill="#EFBA34"/>
</svg>
