<svg width="67" height="54" viewBox="0 0 67 54" fill="none" xmlns="http://www.w3.org/2000/svg">
<path d="M59.2502 13.4965C63.2023 12.4778 68.8931 11.6784 65.5364 5.99758C63.4306 2.26167 57.9751 -1.77193 54.0069 2.34104C46.7875 9.65992 35.4943 12.2051 30.446 21.9173C21.6609 22.7007 18.0466 30.5988 12.0319 35.285C7.1989 35.0496 6.82276 40.0104 4.41629 42.45C2.15059 44.7619 -2.03384 47.7878 1.68293 51.6021C4.76112 54.7126 8.48396 52.8753 11.3259 49.7841C23.326 43.7745 33.0404 34.9623 42.3717 25.7277C49.4674 26.477 51.4183 19.5744 55.8843 16.2931C56.8698 15.3991 57.9961 14.3774 59.2502 13.4965Z" fill="#EFBA34"/>
</svg>
