<svg width="63" height="61" viewBox="0 0 63 61" fill="none" xmlns="http://www.w3.org/2000/svg">
<g clip-path="url(#clip0)">
<path d="M6.92319 14.5091C7.75568 13.9194 8.66671 13.4383 9.62486 13.0503C12.1066 11.9484 14.9183 11.2965 17.5571 11.1879C18.9708 11.1258 20.4316 11.3586 21.7353 11.9328C21.8609 10.2877 23.6673 8.76677 25.0024 8.08389C26.9187 7.12166 29.2905 6.90438 31.411 6.93542C31.6467 6.93542 31.898 6.95094 32.1336 6.96646C33.1546 6.9199 34.1755 6.9975 35.2122 7.13717C37.8982 7.50965 40.537 8.36325 42.9089 9.6514C43.7885 10.1325 45.7362 10.9706 46.066 12.1346C46.9614 11.3276 48.1237 10.8464 49.2704 10.505C49.773 10.3498 50.2756 10.2412 50.794 10.1636C52.0192 9.4962 53.4328 9.06164 54.8151 9.2634C56.0403 9.43412 57.3754 10.3032 58.2393 11.1413C59.1032 11.9949 59.4016 13.1744 59.543 14.3384C59.7315 15.8594 59.8414 17.2717 59.4959 18.7771C59.4959 18.8702 59.4802 18.9789 59.4802 19.072C59.9671 21.1672 59.6687 23.4486 58.4435 25.2955C58.2707 25.5593 57.7838 25.3886 57.9094 25.0782C58.0979 24.5816 58.0822 24.0539 58.145 23.5262C58.2079 22.983 58.4121 22.4398 58.522 21.9121C58.5377 21.8501 58.5377 21.8035 58.5534 21.7414C58.522 21.8035 58.4906 21.8811 58.4749 21.9432C58.3021 22.5329 58.0979 23.0917 57.878 23.6348C57.6895 24.0694 57.4539 24.5816 57.0926 24.9075C56.9984 24.9851 56.857 25.0627 56.7314 25.1403C56.6371 25.311 56.5586 25.4662 56.4486 25.6214C56.6057 25.699 56.7628 25.7611 56.9042 25.8387C60.3127 25.8542 61.9934 29.2996 61.852 32.4191C61.8991 32.6209 61.9305 32.8226 61.9619 33.0244C61.9777 33.1641 62.0091 33.3038 62.0248 33.4434C62.1033 33.8004 62.1661 34.1574 62.2133 34.5298C62.6059 38.0994 60.6896 41.8242 57.6424 43.7487C56.3544 44.5557 54.3439 45.5335 52.7731 45.2696C52.3961 45.2075 52.082 45.0213 51.7207 44.9127C51.4066 44.8195 51.0296 45.3317 50.8568 45.5179C50.7626 45.6266 50.6683 45.7352 50.5741 45.8439C50.5584 45.8749 50.5427 45.9215 50.5112 45.9525C50.4798 46.0456 50.4484 46.1543 50.4013 46.2474C49.8987 47.1786 49.3332 48.0632 48.862 49.0099C48.4536 49.8325 47.8567 50.624 47.1342 51.1982C45.799 52.2846 44.0555 52.8744 42.3905 53.1693C38.8406 53.8056 35.2594 52.5019 32.6676 50.0808C31.2854 48.7926 30.3429 47.1475 29.5733 45.4559C29.5419 45.3938 29.5261 45.3317 29.4947 45.2696C28.9293 44.6643 28.4109 44.028 27.9397 43.3451C27.5156 42.7243 27.1543 42.0415 26.8402 41.3586C26.3847 41.9949 25.5993 42.476 24.7982 42.833C23.7772 43.8107 22.7248 44.6023 21.2483 44.8661C19.5048 45.1765 17.6671 44.7264 16.0492 44.0591C12.7349 42.7088 10.1589 40.086 9.13794 36.6716C8.60388 34.8713 8.68242 32.9934 9.29501 31.2241C9.32642 31.1154 9.37355 31.0223 9.40496 30.9137C7.84993 31.193 6.10641 31.0534 4.67703 30.4171C3.43615 29.8739 2.76073 28.8651 2.46229 27.6855C2.38375 27.6235 2.32092 27.5459 2.25809 27.4683C-2.15569 22.8899 2.66648 17.2872 6.92319 14.5091ZM12.9548 12.7088C12.9234 12.7243 12.892 12.7243 12.8606 12.7399C10.2689 13.4693 7.89705 14.5867 5.82367 16.2008C4.89693 17.1941 4.26864 18.3736 4.00161 19.7238C5.25821 17.6286 7.1431 15.8749 9.40496 14.9437C11.1799 14.2143 13.1904 14.1677 15.091 14.3384C15.9864 14.416 16.866 14.5712 17.7456 14.7575C18.9394 15.0058 19.9917 15.4714 21.2169 15.161C21.4368 15.0989 21.6567 15.0368 21.8609 14.9903C21.5311 14.7419 21.1698 14.5557 20.8085 14.3539C20.1488 13.9815 19.5048 13.6245 18.8137 13.3451C17.5728 12.8485 16.222 12.6157 14.8711 12.5847C14.2428 12.5691 13.5988 12.6157 12.9548 12.7088ZM23.7929 11.8242C24.8139 10.1791 26.8716 9.5738 28.678 9.1858C30.9869 8.68917 33.4216 8.65813 35.762 8.93749C36.4845 9.03061 37.1914 9.1858 37.8825 9.38756C36.1233 8.39429 34.207 7.69589 32.165 7.49413C30.3115 7.58725 28.5209 8.06837 26.8716 8.98405C25.9134 9.51172 25.1281 10.2101 24.3584 10.9551C23.8087 11.4828 23.2118 12.057 22.4892 12.3519C22.8348 12.6157 23.1175 12.9261 23.4317 13.2675C23.5102 13.3607 24.1228 12.7243 24.4212 12.4139C24.3584 12.4295 24.2956 12.445 24.217 12.4139C24.1542 12.3984 24.0914 12.3829 24.0286 12.3674C23.7929 12.3208 23.6673 12.0259 23.7929 11.8242ZM24.6569 12.2122C24.971 11.9328 25.3323 11.7156 25.6935 11.4983C27.1857 10.6602 28.8979 10.0084 30.6414 9.62036C30.123 9.68244 29.6204 9.76004 29.1178 9.85316C27.5784 10.148 25.6621 10.6292 24.6569 11.9173C24.6883 11.9949 24.6883 12.1035 24.6569 12.2122ZM26.1805 8.16149C25.238 8.47189 24.3584 8.96853 23.6673 9.66692C23.1175 10.2256 22.4264 11.0172 22.3007 11.8552C23.2275 11.4828 23.9657 10.5671 24.6569 9.89972C25.5208 9.07716 26.5574 8.45637 27.6413 7.97525C27.9711 7.83557 28.2853 7.69589 28.6151 7.58725C27.7826 7.72693 26.9501 7.91317 26.1805 8.16149ZM44.1183 10.8309C43.3958 10.3808 42.6104 9.99284 41.8408 9.62036C39.8302 8.65813 37.6155 8.02181 35.4007 7.69589C36.4531 8.06837 37.4584 8.54949 38.4008 9.1082C39.2019 9.5738 39.9873 10.0704 40.6627 10.6602C40.9926 10.862 41.3224 11.0948 41.6366 11.3276C42.6261 12.0725 43.9927 13.0192 44.4168 14.2763C44.6995 13.5779 45.2964 12.8951 45.7362 12.4295C45.7519 12.4139 45.7519 12.4139 45.7676 12.3984C45.6419 11.7 44.6681 11.1568 44.1183 10.8309ZM45.8776 13.0658C45.532 13.4383 45.1864 13.9039 44.9822 14.3539C45.0294 14.3229 45.0765 14.2919 45.1236 14.2608C45.2493 14.0591 45.3749 13.8418 45.4849 13.6555C45.6105 13.4538 45.7833 13.2675 45.9561 13.0968C45.9247 13.0968 45.8933 13.0813 45.8776 13.0658ZM46.6315 13.1589C46.4587 13.2986 46.3174 13.4383 46.1917 13.5935C46.4587 13.4383 46.7258 13.2986 47.0085 13.1589C47.1027 13.0503 47.1813 12.9571 47.2441 12.8951C47.4797 12.6623 47.731 12.4295 47.9824 12.2122C47.4954 12.5071 47.0399 12.8175 46.6315 13.1589ZM51.3594 10.6292C51.3123 10.6447 51.2652 10.6757 51.2338 10.6912C52.3647 10.6136 53.5114 10.8464 54.5952 11.1568C53.6056 10.6447 52.4904 10.5205 51.3594 10.6292ZM53.103 10.148C54.1554 10.3188 55.1292 10.7533 55.9146 11.5759C56.2602 11.7 56.6057 11.8397 56.9356 11.9794C57.1555 12.0725 57.3597 12.1811 57.5482 12.2898C57.5482 12.2898 57.5482 12.2743 57.5325 12.2743C56.4644 10.7378 54.8936 10.0084 53.103 10.148ZM57.4382 11.3431C57.234 11.1568 56.9984 10.9706 56.7628 10.8154C57.0298 11.0327 57.2968 11.281 57.5325 11.5448C57.8937 11.9483 58.1922 12.3984 58.4592 12.8485C58.255 12.3053 57.9408 11.7932 57.4382 11.3431ZM58.9304 17.2717C58.9618 16.9302 58.9618 16.5733 58.9618 16.2318C58.8362 15.1144 58.5377 14.0591 58.0037 13.0503C57.8937 12.9571 57.7681 12.8485 57.6267 12.7399C57.2183 12.445 56.7314 12.2587 56.2602 12.088C56.2444 12.2277 56.0717 12.3363 55.946 12.1967C55.8361 12.0725 55.7261 11.9639 55.6162 11.8552C55.569 11.8397 55.5219 11.8242 55.4748 11.8087C53.9355 11.2655 52.2548 10.9085 50.6212 11.1879C50.4955 11.2034 50.3699 11.2344 50.2442 11.2655C49.9301 11.4672 49.6316 11.7 49.3489 11.9173C49.0976 12.1035 48.862 12.3053 48.6421 12.5071C48.8463 12.445 49.0505 12.3829 49.2704 12.3208C49.7102 12.1967 50.1186 12.1191 50.4484 12.057C51.0767 11.9483 51.705 11.9328 52.3019 11.9794C54.4381 12.0725 56.5272 12.8795 57.8309 14.6178C58.3964 15.4093 58.7576 16.325 58.9304 17.2717ZM57.878 26.3819C58.0508 26.506 58.2236 26.6302 58.3964 26.7854C58.4749 26.8475 58.5377 26.9096 58.6006 26.9872C59.1346 27.3907 59.6215 27.8873 60.0299 28.415C60.4854 28.9737 60.8467 29.61 61.1452 30.2619C60.7368 28.446 59.6372 26.8785 57.878 26.3819ZM50.8725 44.4315C51.4537 43.9815 51.9877 44.1987 52.6003 44.4626C53.4171 44.7885 54.5952 44.3074 55.3491 44.028C56.3073 43.6711 57.2497 43.1589 58.0351 42.5226C58.2079 42.3829 58.3649 42.2432 58.522 42.1036C57.0926 43.0968 55.1135 43.5003 53.4328 43.7176C52.9459 43.7797 52.4433 43.8263 51.9406 43.8573C51.4851 43.8883 50.9511 43.7176 50.7469 44.2298C50.6997 44.3539 50.6683 44.4781 50.6369 44.6178C50.7311 44.5557 50.8097 44.4936 50.8725 44.4315ZM48.8148 46.7285C48.375 47.0544 47.9038 47.3493 47.4169 47.5976C46.3488 48.1253 45.1864 48.4046 44.0241 48.5754C41.825 48.9013 39.5318 48.715 37.3484 48.3891C36.8772 48.327 36.406 48.2339 35.9191 48.1253C36.139 48.2494 36.3903 48.3426 36.6259 48.4512C38.2281 49.0565 40.0187 49.3203 41.7308 49.429C42.9717 49.5065 44.2911 49.46 45.532 49.1496C45.6419 49.103 45.7519 49.041 45.8619 48.9944C46.9142 48.4202 47.9509 47.6286 48.8148 46.7285ZM34.4897 47.7373C33.7357 47.489 33.0132 47.1786 32.3535 46.7906C34.7724 48.5288 37.7097 49.6462 40.6784 49.8946C41.2125 49.9411 41.7622 49.9566 42.2963 49.9256C42.2806 49.9256 42.2649 49.9256 42.2491 49.9256C40.3328 49.8946 38.3223 49.5376 36.5159 48.9013C35.7306 48.6374 35.0552 48.2339 34.4897 47.7373ZM33.076 49.3514C35.7934 52.0518 39.6888 53.0761 43.3958 52.0673C45.3592 51.5397 46.9614 50.5464 47.9824 48.7771C48.0452 48.684 48.0923 48.5754 48.1551 48.4822C48.0609 48.5598 47.9509 48.6374 47.8567 48.6995C47.5897 48.8858 47.2912 49.0565 46.9928 49.1962C46.5373 49.491 46.0503 49.7549 45.5477 49.9721C44.0084 50.6395 42.3277 50.7792 40.6784 50.655C37.317 50.4222 34.0028 49.041 31.3796 46.9768C31.3011 46.9147 31.2383 46.8682 31.1597 46.8061C31.6938 47.7218 32.3064 48.5754 33.076 49.3514ZM15.2952 42.8951C17.0073 43.7952 19.065 44.385 21.0127 44.1211C21.5311 44.0435 21.9866 43.8883 22.4107 43.6711C19.8818 44.3384 17.1801 44.0746 14.934 42.6623C12.5621 41.1724 11.1799 38.7202 10.96 35.9732C10.85 34.623 11.1014 33.2572 11.5883 32.0001C11.8553 31.3327 12.2166 30.7119 12.6407 30.1222C12.8449 29.8428 13.0648 29.5635 13.2847 29.2996C13.4103 29.1444 13.7402 28.8185 13.9444 28.5081C13.4104 28.7099 12.8763 29.4083 12.4836 29.6876C11.8082 30.1687 11.0385 30.5102 10.2375 30.743C9.79765 31.6742 9.54633 32.683 9.46779 33.6918C9.16935 37.5873 11.9339 41.1413 15.2952 42.8951ZM5.30533 29.8428C6.68758 30.3705 8.32115 30.355 9.78194 29.998C9.97043 29.6255 10.1903 29.2531 10.4259 28.9271C10.583 28.7099 10.7715 28.5236 10.8815 28.2908C10.85 28.3063 10.8186 28.3219 10.7872 28.3374C10.6144 28.415 10.4574 28.5236 10.3003 28.6167C9.84476 28.8961 9.42067 29.2065 8.94945 29.4859C8.30544 29.8583 7.39441 29.8739 6.68758 29.8273C5.6666 29.7497 4.69274 29.3772 3.82883 28.834C4.1901 29.2375 4.67703 29.5945 5.30533 29.8428ZM3.10629 27.251C3.90737 27.9959 4.89693 28.5547 5.93362 28.8495C6.70329 29.0668 7.81851 29.1599 8.54105 28.7564C9.0594 28.4771 9.51491 28.1201 10.0175 27.8252C10.3631 27.6235 10.7558 27.3907 11.1642 27.4683C11.7611 27.5769 11.7297 28.2287 11.5412 28.6323C11.4312 28.8651 11.227 29.0823 11.0542 29.2841C10.96 29.4083 10.8657 29.5324 10.7715 29.6721C11.604 29.3462 12.248 28.803 12.9234 28.2287C13.3789 27.8407 13.913 27.5614 14.5256 27.7321C14.6827 27.7787 14.7926 27.9183 14.7926 28.0735C14.7769 28.4926 14.557 28.7409 14.2585 29.0203C13.7088 29.5169 13.269 30.1843 12.8606 30.7895C12.1223 31.8914 11.7297 33.1796 11.5883 34.4833C11.3056 37.0751 12.2637 39.5428 14.1957 41.312C16.2063 43.1589 18.9394 43.7176 21.5939 43.2055C22.1123 43.1123 22.9447 42.9106 23.7929 42.6157C24.2642 42.1967 24.704 41.7311 25.1752 41.281C25.4736 41.0016 26.1648 40.2567 26.6517 40.2256C26.6674 40.086 26.6674 39.9308 26.636 39.7756C26.5732 39.4807 27.0287 39.341 27.1072 39.6514C27.17 39.9308 27.1857 40.1946 27.1386 40.4429C27.4214 40.7223 27.5313 41.2189 27.6884 41.5604C27.9083 42.026 28.1753 42.476 28.4738 42.8951C28.4266 42.7864 28.3795 42.6623 28.3481 42.5536C28.0811 41.8242 28.0339 40.8309 27.4842 40.2567C27.1543 39.9152 27.657 39.4186 28.0025 39.7445C28.4895 40.2101 28.678 40.8775 28.835 41.4983C28.9921 42.1035 29.2277 42.6933 29.4633 43.2831C30.0445 44.2453 30.7985 45.0989 31.7252 45.7818C32.3064 46.2008 32.9347 46.5422 33.5787 46.8216C33.3902 46.5888 33.2174 46.3405 33.0446 46.0922C32.9032 45.8749 33.2488 45.6887 33.3902 45.8904C33.7514 46.3715 34.1284 46.8061 34.5525 47.1786C35.6049 47.52 36.7201 47.7218 37.804 47.8614C39.8616 48.1253 41.9821 48.2494 44.0398 47.9546C45.1707 47.7994 46.2702 47.4734 47.2912 46.9768C48.1551 46.5578 48.8934 45.937 49.6788 45.3783C49.773 44.8661 49.773 44.3229 49.9615 43.8263C50.1814 43.2675 50.684 42.9416 51.2966 42.9727C52.3647 43.0192 53.4328 42.864 54.4852 42.6623C56.5115 42.2588 58.3335 41.5293 59.6215 39.8687C60.7054 38.4564 61.1923 36.7026 61.2237 34.9489C60.3441 36.982 58.5849 38.6736 56.6528 39.7135C54.6109 40.8154 51.7835 41.4052 49.5845 40.474C49.3332 40.3653 49.5217 39.9618 49.773 40.0549C51.9092 40.7533 54.4067 40.1791 56.3544 39.2013C58.3649 38.1925 60.0299 36.4077 60.8624 34.3436C60.9724 34.0487 61.0666 33.7538 61.1452 33.4434C61.1295 33.3038 61.1137 33.1641 61.0823 33.0399C60.9253 32.4812 60.7054 31.9225 60.4697 31.3793C60.0613 30.4791 59.5116 29.6566 59.0404 28.7875C58.9147 28.5547 58.7576 28.3219 58.6006 28.1046C58.2393 27.7787 57.8466 27.4993 57.4382 27.251C57.0298 27.0027 56.5586 26.832 56.0874 26.7854C55.7418 26.7544 55.4277 26.8009 55.0821 26.7078C54.8622 26.6457 54.6894 26.3974 54.768 26.1646C54.9093 25.8076 55.1449 25.5904 55.4591 25.3886V25.3731C55.4591 25.3265 55.4905 25.28 55.5062 25.2334C55.1606 25.4041 54.8151 25.5593 54.4224 25.668C54.1868 25.73 53.9669 25.5128 54.0297 25.28C54.1082 24.9851 54.3124 24.892 54.6109 24.892C54.6423 24.892 54.6894 24.892 54.7208 24.9075C55.569 24.5816 56.2916 24.0384 56.857 23.3555C57.344 22.5485 57.7209 21.6638 58.0508 20.7637C58.2707 19.7704 58.2864 18.7616 58.0351 17.7683C57.8623 17.0699 57.5639 16.4181 57.1712 15.7973C56.7628 15.3627 56.3073 14.9747 55.7889 14.6178C53.9355 13.3296 51.5951 12.5847 49.3332 12.9727C49.2861 12.9727 49.2547 12.9882 49.2075 13.0037C48.5792 13.1899 47.7939 13.4848 47.2284 13.9039C47.1342 13.997 47.0556 14.0901 46.9614 14.1987C46.8671 14.3074 46.7572 14.4315 46.6472 14.5557C46.5844 14.6799 46.5373 14.804 46.5373 14.9437C46.5059 15.2541 46.1132 15.3007 45.9875 15.0989C45.7362 15.2541 45.4535 15.3317 45.1707 15.2851C44.7309 15.5645 44.2754 15.7973 43.7728 15.9525C43.5214 16.0301 43.3015 15.6731 43.5057 15.5024C43.6 15.4248 43.6942 15.3472 43.7885 15.2696C43.333 14.7885 43.0031 14.2143 42.579 13.7021C42.4848 13.7487 42.3591 13.7331 42.2963 13.6245C42.2177 13.4538 42.1392 13.2831 42.045 13.1279C41.2753 12.3829 40.4428 11.7156 39.5004 11.1879C37.7411 10.1946 35.6835 9.89972 33.6729 9.99284C31.6624 10.086 29.6518 10.6136 27.7826 11.3431C26.7459 11.7466 25.725 12.2587 24.8925 12.9882C24.4527 13.3917 23.8872 14.3539 23.1489 14.0125C22.8976 13.9039 22.7563 13.7021 22.5835 13.4848C22.3322 13.1589 21.9709 12.9416 21.6096 12.7399C20.7614 12.2898 19.7404 12.088 18.798 11.9949C17.8084 11.9018 16.7874 11.9639 15.7979 12.1035C16.8817 12.1967 17.9341 12.445 18.9394 12.833C19.6305 13.0968 20.2902 13.4383 20.9185 13.8107C21.5311 14.1677 22.1908 14.4781 22.6934 14.9903C22.8348 15.1299 22.7877 15.4559 22.5678 15.4869C21.7039 15.6111 20.9342 15.9835 20.0389 15.9525C19.1278 15.9214 18.2168 15.549 17.3372 15.3783C15.468 15.0058 13.5203 14.8195 11.6197 15.0989C7.99129 15.6266 5.21109 18.4357 3.84454 21.6793C3.87595 22.6881 4.06444 23.6814 4.34718 24.6436C4.6142 25.5748 4.88123 27.0027 6.12212 26.9716C6.40485 26.9561 6.48338 27.4217 6.18494 27.4683C5.10113 27.67 4.51996 27.0648 4.12727 26.1336C3.73459 25.1868 3.48327 24.147 3.3419 23.1227C2.98063 24.4108 2.79214 25.9473 3.10629 27.251ZM2.22667 26.2422C2.17955 25.0006 2.41516 23.6969 2.7136 22.6416C2.85497 22.176 3.01205 21.7259 3.20053 21.2758C3.20053 20.1584 3.38903 19.0254 3.84454 18.0011C2.00677 20.0032 0.498859 22.7813 1.75545 25.4352C1.89682 25.73 2.05389 25.9939 2.22667 26.2422Z" fill="#37BD8A"/>
</g>
<defs>
<clipPath id="clip0">
<rect width="62.2641" height="60" fill="white" transform="matrix(-1 0 0 1 62.2642 0.131348)"/>
</clipPath>
</defs>
</svg>
