<svg width="77" height="76" viewBox="0 0 77 76" fill="none" xmlns="http://www.w3.org/2000/svg">
<g clip-path="url(#clip0_1063:132)">
<path d="M68.4142 9.88032C67.3847 9.14312 66.2581 8.54173 65.0732 8.05673C62.004 6.67933 58.527 5.86454 55.2636 5.72874C53.5154 5.65114 51.7089 5.94214 50.0966 6.65993C49.9412 4.60355 47.7074 2.70235 46.0563 1.84876C43.6864 0.645965 40.7533 0.374367 38.1309 0.413167C37.8396 0.413167 37.5288 0.432566 37.2374 0.451966C35.9748 0.393767 34.7122 0.490766 33.4301 0.665365C30.1085 1.13096 26.8451 2.19796 23.912 3.80815C22.8242 4.40955 20.4155 5.45714 20.0076 6.91213C18.9004 5.90334 17.4629 5.30194 16.0449 4.87514C15.4233 4.68114 14.8017 4.54534 14.1607 4.44835C12.6456 3.61415 10.8973 3.07095 9.18794 3.32315C7.67281 3.53655 6.0217 4.62294 4.95333 5.67054C3.88497 6.73753 3.51589 8.21193 3.34107 9.66692C3.10797 11.5681 2.972 13.3335 3.39934 15.2153C3.39934 15.3317 3.41877 15.4675 3.41877 15.5839C2.8166 18.2029 3.18567 21.0547 4.70081 23.3632C4.91448 23.693 5.51665 23.4796 5.36125 23.0917C5.12815 22.4709 5.14758 21.8113 5.06988 21.1517C4.99218 20.4727 4.73966 19.7937 4.60368 19.1341C4.58426 19.0565 4.58426 18.9983 4.56483 18.9207C4.60368 18.9983 4.64253 19.0953 4.66196 19.1729C4.87563 19.9101 5.12815 20.6085 5.4001 21.2875C5.6332 21.8307 5.92457 22.4709 6.37134 22.8783C6.48789 22.9753 6.66271 23.0723 6.81811 23.1692C6.93466 23.3826 7.03179 23.5766 7.16776 23.7706C6.97351 23.8676 6.77926 23.9452 6.60444 24.0422C2.38925 24.0616 0.310798 28.3684 0.485621 32.2678C0.427347 32.52 0.388497 32.7722 0.349647 33.0244C0.330223 33.199 0.291373 33.3736 0.271948 33.5482C0.174824 33.9944 0.0971248 34.4406 0.0388503 34.9062C-0.44677 39.3682 1.92306 44.0241 5.69147 46.4297C7.28431 47.4385 9.77069 48.6607 11.7132 48.3309C12.1794 48.2533 12.5679 48.0205 13.0146 47.8847C13.4031 47.7683 13.8693 48.4085 14.083 48.6413C14.1995 48.7771 14.3161 48.9129 14.4326 49.0487C14.4521 49.0875 14.4715 49.1457 14.5103 49.1845C14.5492 49.3009 14.588 49.4367 14.6463 49.5531C15.2679 50.7171 15.9672 51.8229 16.55 53.0063C17.055 54.0345 17.7931 55.0239 18.6867 55.7417C20.3378 57.0997 22.4939 57.8369 24.553 58.2055C28.943 59.0009 33.3718 57.3713 36.5769 54.3449C38.2863 52.7347 39.4518 50.6783 40.4036 48.5637C40.4425 48.4861 40.4619 48.4085 40.5008 48.3309C41.2001 47.5743 41.8411 46.7789 42.4238 45.9253C42.9483 45.1493 43.3951 44.2957 43.7836 43.4421C44.3469 44.2375 45.3181 44.8389 46.3088 45.2851C47.5714 46.5073 48.8729 47.4967 50.6988 47.8265C52.8549 48.2145 55.1277 47.6519 57.1284 46.8177C61.2271 45.1299 64.4127 41.8514 65.6753 37.5834C66.3358 35.333 66.2387 32.9856 65.4811 30.774C65.4422 30.6382 65.384 30.5218 65.3451 30.386C67.2682 30.7352 69.4243 30.5606 71.192 29.7652C72.7265 29.0862 73.5618 27.8252 73.9309 26.3508C74.028 26.2732 74.1057 26.1762 74.1834 26.0792C79.6418 20.3563 73.6784 13.3529 68.4142 9.88032ZM60.9551 7.62993C60.9939 7.64933 61.0328 7.64933 61.0717 7.66873C64.2767 8.58052 67.2099 9.97732 69.774 11.9949C70.92 13.2365 71.697 14.7109 72.0273 16.3987C70.4733 13.7797 68.1423 11.5875 65.3451 10.4235C63.1501 9.51172 60.6637 9.45352 58.3133 9.66692C57.2061 9.76392 56.1183 9.95792 55.0305 10.1907C53.5542 10.5011 52.2528 11.0831 50.7376 10.6951C50.4657 10.6175 50.1937 10.5399 49.9412 10.4817C50.3491 10.1713 50.7959 9.93852 51.2427 9.68632C52.0585 9.22072 52.8549 8.77452 53.7096 8.42533C55.2442 7.80453 56.9147 7.51353 58.5853 7.47473C59.3623 7.45533 60.1587 7.51353 60.9551 7.62993ZM47.552 6.52413C46.2894 4.46775 43.7447 3.71115 41.5108 3.22615C38.6554 2.60536 35.6446 2.56656 32.7503 2.91575C31.8567 3.03215 30.9826 3.22615 30.1279 3.47835C32.3035 2.23676 34.6733 1.36376 37.1985 1.11156C39.4907 1.22796 41.7051 1.82936 43.7447 2.97395C44.9296 3.63355 45.9009 4.50655 46.8527 5.43774C47.5325 6.09734 48.2707 6.81513 49.1642 7.18373C48.7369 7.51353 48.3872 7.90153 47.9987 8.32833C47.9016 8.44473 47.1441 7.64933 46.775 7.26133C46.8527 7.28073 46.9304 7.30013 47.0275 7.26133C47.1052 7.24193 47.1829 7.22253 47.2606 7.20313C47.552 7.14493 47.7074 6.77633 47.552 6.52413ZM46.4836 7.00913C46.0951 6.65993 45.6483 6.38834 45.2016 6.11674C43.3562 5.06914 41.2389 4.25435 39.0827 3.76935C39.7238 3.84695 40.3454 3.94395 40.967 4.06035C42.8706 4.42895 45.2404 5.03034 46.4836 6.64053C46.4448 6.73753 46.4448 6.87333 46.4836 7.00913ZM44.5994 1.94576C45.7649 2.33376 46.8527 2.95455 47.7074 3.82755C48.3872 4.52595 49.2419 5.51534 49.3973 6.56293C48.2513 6.09734 47.3383 4.95274 46.4836 4.11855C45.4152 3.09035 44.1332 2.31436 42.7929 1.71296C42.385 1.53836 41.9965 1.36376 41.5886 1.22796C42.6181 1.40256 43.6476 1.63536 44.5994 1.94576ZM22.4162 5.28254C23.3098 4.71994 24.281 4.23495 25.2328 3.76935C27.7192 2.56656 30.4581 1.77116 33.197 1.36376C31.8956 1.82936 30.6524 2.43076 29.4869 3.12915C28.4962 3.71115 27.525 4.33195 26.6897 5.06914C26.2818 5.32134 25.8739 5.61234 25.4854 5.90334C24.2616 6.83453 22.5716 8.01793 22.0472 9.58932C21.6975 8.71632 20.9594 7.86273 20.4155 7.28073C20.3961 7.26133 20.3961 7.26133 20.3766 7.24193C20.532 6.36894 21.7364 5.68994 22.4162 5.28254ZM20.2407 8.07613C20.668 8.54173 21.0954 9.12372 21.3479 9.68632C21.2896 9.64752 21.2313 9.60872 21.1731 9.56992C21.0177 9.31772 20.8623 9.04612 20.7263 8.81332C20.5709 8.56112 20.3572 8.32833 20.1435 8.11493C20.1824 8.11493 20.2212 8.09553 20.2407 8.07613ZM19.3083 8.19253C19.5219 8.36713 19.6968 8.54173 19.8522 8.73572C19.5219 8.54173 19.1917 8.36713 18.8421 8.19253C18.7255 8.05673 18.6284 7.94033 18.5507 7.86273C18.2593 7.57173 17.9485 7.28073 17.6377 7.00913C18.2399 7.37773 18.8032 7.76573 19.3083 8.19253ZM13.4614 5.03034C13.5197 5.04974 13.578 5.08854 13.6168 5.10794C12.2182 5.01094 10.8002 5.30194 9.45989 5.68994C10.6837 5.04974 12.0628 4.89454 13.4614 5.03034ZM11.3052 4.42895C10.0038 4.64234 8.79945 5.18554 7.8282 6.21374C7.40086 6.36894 6.97351 6.54354 6.56559 6.71813C6.29364 6.83453 6.04112 6.97033 5.80802 7.10613C5.80802 7.10613 5.80802 7.08673 5.82745 7.08673C7.14834 5.16614 9.09082 4.25435 11.3052 4.42895ZM5.944 5.92274C6.19652 5.68994 6.48789 5.45714 6.77926 5.26314C6.44904 5.53474 6.11882 5.84514 5.82745 6.17494C5.38068 6.67933 5.01161 7.24193 4.68138 7.80453C4.93391 7.12553 5.3224 6.48533 5.944 5.92274ZM4.09864 13.3335C4.05979 12.9067 4.05979 12.4605 4.05979 12.0337C4.21519 10.6369 4.58426 9.31772 5.2447 8.05673C5.38068 7.94033 5.53608 7.80453 5.7109 7.66873C6.21594 7.30013 6.81811 7.06733 7.40086 6.85393C7.42028 7.02853 7.63396 7.16433 7.78935 6.98973C7.92533 6.83453 8.0613 6.69873 8.19728 6.56293C8.25555 6.54353 8.31383 6.52413 8.3721 6.50473C10.2757 5.82574 12.3542 5.37954 14.3744 5.72874C14.5298 5.74814 14.6852 5.78694 14.8406 5.82574C15.2291 6.07794 15.5981 6.36894 15.9478 6.64053C16.2586 6.87333 16.55 7.12553 16.8219 7.37773C16.5694 7.30013 16.3169 7.22253 16.0449 7.14493C15.501 6.98973 14.996 6.89273 14.588 6.81513C13.8111 6.67933 13.0341 6.65993 12.2959 6.71813C9.65414 6.83453 7.07064 7.84333 5.45838 10.0161C4.75908 11.0055 4.31231 12.1501 4.09864 13.3335ZM5.4001 24.7212C5.18643 24.8764 4.97276 25.0316 4.75908 25.2256C4.66196 25.3032 4.58426 25.3808 4.50656 25.4778C3.84612 25.9822 3.24395 26.603 2.7389 27.2626C2.17558 27.961 1.72881 28.7564 1.35974 29.5712C1.86478 27.3014 3.22452 25.342 5.4001 24.7212ZM14.0636 47.2833C13.3449 46.7207 12.6844 46.9923 11.9268 47.3221C10.9168 47.7295 9.45989 47.1281 8.5275 46.7789C7.34258 46.3327 6.17709 45.6925 5.20585 44.8971C4.99218 44.7225 4.79793 44.5479 4.60368 44.3733C6.37134 45.6149 8.81887 46.1193 10.8973 46.3909C11.4995 46.4685 12.1211 46.5267 12.7427 46.5655C13.306 46.6043 13.9664 46.3909 14.219 47.0311C14.2772 47.1863 14.3161 47.3415 14.3549 47.5161C14.2384 47.4385 14.1413 47.3609 14.0636 47.2833ZM16.6082 50.1545C17.1521 50.5619 17.7349 50.9305 18.337 51.2409C19.6579 51.9005 21.0954 52.2497 22.5328 52.4631C25.2523 52.8705 28.0883 52.6377 30.7883 52.2303C31.3711 52.1527 31.9538 52.0363 32.556 51.9005C32.2841 52.0557 31.9733 52.1721 31.6819 52.3079C29.7006 53.0645 27.4861 53.3943 25.3688 53.5301C23.8343 53.6271 22.2026 53.5689 20.668 53.1809C20.532 53.1227 20.3961 53.0451 20.2601 52.9869C18.9586 52.2691 17.6766 51.2797 16.6082 50.1545ZM34.3237 51.4155C35.2561 51.1051 36.1496 50.7171 36.9654 50.2321C33.974 52.4049 30.3416 53.8017 26.6703 54.1121C26.0098 54.1703 25.33 54.1897 24.6695 54.1509C24.689 54.1509 24.7084 54.1509 24.7278 54.1509C27.0976 54.1121 29.584 53.6659 31.8179 52.8705C32.7891 52.5407 33.6244 52.0363 34.3237 51.4155ZM36.0719 53.4331C32.7114 56.8087 27.894 58.0891 23.3098 56.8281C20.8817 56.1685 18.9004 54.9269 17.6377 52.7153C17.56 52.5989 17.5018 52.4631 17.4241 52.3467C17.5406 52.4437 17.6766 52.5407 17.7931 52.6183C18.1234 52.8511 18.4924 53.0645 18.8615 53.2391C19.4248 53.6077 20.027 53.9375 20.6486 54.2091C22.5522 55.0433 24.6307 55.2179 26.6703 55.0627C30.8272 54.7717 34.9258 53.0451 38.1698 50.4649C38.2669 50.3873 38.3446 50.3291 38.4417 50.2515C37.7813 51.3961 37.0237 52.4631 36.0719 53.4331ZM58.0608 45.3627C55.9435 46.4879 53.3988 47.2251 50.9902 46.8953C50.3491 46.7983 49.7858 46.6043 49.2614 46.3327C52.3888 47.1669 55.7298 46.8371 58.5076 45.0717C61.4407 43.2093 63.1501 40.1442 63.4221 36.7104C63.558 35.0226 63.2472 33.3154 62.6451 31.744C62.3148 30.9098 61.8681 30.1338 61.3436 29.3966C61.0911 29.0474 60.8191 28.6982 60.5472 28.3684C60.3918 28.1744 59.9839 27.767 59.7313 27.379C60.3918 27.6312 61.0522 28.5042 61.5378 28.8534C62.3731 29.4548 63.3249 29.8816 64.3156 30.1726C64.8595 31.3366 65.1703 32.5976 65.2674 33.8586C65.6365 38.728 62.2177 43.1705 58.0608 45.3627ZM70.415 29.0474C68.7056 29.707 66.6854 29.6876 64.8789 29.2414C64.6458 28.7758 64.3739 28.3102 64.0825 27.9028C63.8882 27.6312 63.6552 27.3984 63.5192 27.1074C63.558 27.1268 63.5969 27.1462 63.6357 27.1656C63.8494 27.2626 64.0436 27.3984 64.2379 27.5148C64.8012 27.864 65.3257 28.252 65.9084 28.6012C66.7048 29.0668 67.8315 29.0862 68.7056 29.028C69.9682 28.931 71.1726 28.4654 72.2409 27.7864C71.7942 28.2908 71.192 28.737 70.415 29.0474ZM73.1345 25.8076C72.1438 26.7388 70.92 27.4372 69.638 27.8058C68.6862 28.0774 67.307 28.1938 66.4135 27.6894C65.7725 27.3402 65.2091 26.894 64.5875 26.5254C64.1602 26.2732 63.6746 25.9822 63.1695 26.0792C62.4314 26.215 62.4702 27.0298 62.7033 27.5342C62.8393 27.8252 63.0918 28.0968 63.3055 28.349C63.4221 28.5042 63.5386 28.6594 63.6552 28.834C62.6256 28.4266 61.8292 27.7476 60.9939 27.0298C60.4306 26.5448 59.7702 26.1956 59.0126 26.409C58.8184 26.4672 58.6824 26.6418 58.6824 26.8358C58.7018 27.3596 58.9738 27.67 59.3428 28.0192C60.0227 28.64 60.5666 29.4742 61.0717 30.2308C61.9846 31.6082 62.4702 33.2184 62.6451 34.848C62.9947 38.0878 61.8098 41.1724 59.4205 43.3839C56.9342 45.6925 53.5542 46.3909 50.2714 45.7507C49.6304 45.6343 48.6009 45.3821 47.552 45.0135C46.9692 44.4897 46.4253 43.9077 45.8426 43.3451C45.4735 42.9959 44.6188 42.0648 44.0167 42.026C43.9972 41.8514 43.9972 41.6574 44.0361 41.4634C44.1138 41.0948 43.5505 40.9202 43.4533 41.3082C43.3756 41.6574 43.3562 41.9871 43.4145 42.2975C43.0648 42.6467 42.9289 43.2675 42.7346 43.6943C42.4627 44.2763 42.1324 44.8389 41.7634 45.3627C41.8216 45.2269 41.8799 45.0717 41.9188 44.9359C42.249 44.0241 42.3073 42.7825 42.9871 42.0648C43.3951 41.638 42.7735 41.0172 42.3461 41.4246C41.7439 42.0065 41.5108 42.8407 41.3166 43.6167C41.1224 44.3733 40.831 45.1105 40.5396 45.8477C39.8209 47.0505 38.8885 48.1175 37.7424 48.9711C37.0237 49.4949 36.2467 49.9217 35.4503 50.2709C35.6834 49.9799 35.8971 49.6695 36.1107 49.3591C36.2856 49.0875 35.8582 48.8547 35.6834 49.1069C35.2366 49.7083 34.7704 50.2515 34.246 50.7171C32.9445 51.1439 31.5653 51.3961 30.225 51.5707C27.6804 51.9005 25.058 52.0557 22.5134 51.6871C21.1148 51.4931 19.755 51.0857 18.4924 50.4649C17.4241 49.9411 16.5111 49.1651 15.5399 48.4667C15.4233 47.8265 15.4233 47.1475 15.1902 46.5267C14.9183 45.8283 14.2967 45.4209 13.5391 45.4597C12.2182 45.5179 10.8973 45.3239 9.59586 45.0717C7.09006 44.5673 4.83678 43.6555 3.24395 41.5798C1.90363 39.8144 1.30146 37.6222 1.26261 35.43C2.3504 37.9714 4.52598 40.086 6.91524 41.3858C9.44046 42.7631 12.9369 43.5003 15.6564 42.3363C15.9672 42.2006 15.7341 41.6962 15.4233 41.8125C12.7815 42.6855 9.69299 41.9678 7.28431 40.7456C4.79793 39.4846 2.7389 37.2536 1.70939 34.6734C1.57341 34.3048 1.45686 33.9362 1.35974 33.5482C1.37916 33.3736 1.39859 33.199 1.43744 33.0438C1.63169 32.3454 1.90363 31.647 2.19501 30.968C2.70005 29.8428 3.37992 28.8146 3.96266 27.7282C4.11806 27.4372 4.31231 27.1462 4.50656 26.8746C4.95333 26.4672 5.43895 26.118 5.944 25.8076C6.44904 25.4972 7.03179 25.2838 7.61453 25.2256C8.04188 25.1868 8.43037 25.245 8.85772 25.1286C9.12967 25.051 9.34334 24.7406 9.24622 24.4496C9.07139 24.0034 8.78002 23.7318 8.39153 23.4796V23.4602C8.39153 23.402 8.35268 23.3438 8.33325 23.2856C8.7606 23.499 9.18794 23.693 9.67356 23.8288C9.96494 23.9064 10.2369 23.6348 10.1592 23.3438C10.0621 22.9752 9.80954 22.8589 9.44046 22.8589C9.40162 22.8589 9.34334 22.8589 9.30449 22.8783C8.25555 22.4709 7.36201 21.7919 6.66272 20.9383C6.06055 19.9295 5.59435 18.8237 5.18643 17.6985C4.91448 16.4569 4.89506 15.1959 5.20585 13.9543C5.41953 13.0813 5.7886 12.2665 6.27422 11.4905C6.77926 10.9473 7.34258 10.4623 7.9836 10.0161C10.2757 8.40593 13.17 7.47473 15.9672 7.95973C16.0255 7.95973 16.0643 7.97913 16.1226 7.99853C16.8996 8.23133 17.8708 8.59993 18.5701 9.12372C18.6867 9.24012 18.7838 9.35652 18.9004 9.49232C19.0169 9.62812 19.1529 9.78332 19.2889 9.93852C19.3666 10.0937 19.4248 10.2489 19.4248 10.4235C19.4637 10.8115 19.9493 10.8697 20.1047 10.6175C20.4155 10.8115 20.7651 10.9085 21.1148 10.8503C21.6587 11.1995 22.222 11.4905 22.8436 11.6845C23.1544 11.7815 23.4263 11.3353 23.1738 11.1219C23.0573 11.0249 22.9407 10.9279 22.8242 10.8309C23.3875 10.2295 23.7954 9.51172 24.3199 8.87152C24.4364 8.92972 24.5918 8.91032 24.6695 8.77452C24.7667 8.56112 24.8638 8.34773 24.9803 8.15373C25.9321 7.22253 26.9617 6.38834 28.1271 5.72874C30.3027 4.48715 32.8474 4.11855 35.3338 4.23495C37.8201 4.35135 40.3065 5.01094 42.6181 5.92274C43.9001 6.42713 45.1627 7.06733 46.1922 7.97913C46.7361 8.48353 47.4354 9.68632 48.3484 9.25952C48.6592 9.12372 48.834 8.87152 49.0477 8.59992C49.3585 8.19253 49.8053 7.92093 50.252 7.66873C51.301 7.10613 52.5636 6.85393 53.7291 6.73753C54.9528 6.62113 56.2154 6.69873 57.4392 6.87333C56.0989 6.98973 54.7974 7.30013 53.5542 7.78513C52.6996 8.11493 51.8837 8.54172 51.1067 9.00732C50.3491 9.45352 49.5333 9.84152 48.9117 10.4817C48.7369 10.6563 48.7952 11.0637 49.0671 11.1025C50.1355 11.2577 51.0873 11.7233 52.1945 11.6845C53.3211 11.6457 54.4478 11.1801 55.5356 10.9667C57.8471 10.5011 60.2558 10.2683 62.6062 10.6175C67.0933 11.2771 70.5315 14.7885 72.2215 18.8431C72.1826 20.1041 71.9496 21.3457 71.5999 22.5485C71.2697 23.7124 70.9395 25.4972 69.4049 25.4584C69.0553 25.439 68.9581 26.021 69.3272 26.0792C70.6675 26.3314 71.3862 25.5748 71.8719 24.4108C72.3575 23.2274 72.6683 21.9277 72.8431 20.6473C73.2899 22.2575 73.523 24.178 73.1345 25.8076ZM74.2223 24.5466C74.2805 22.9946 73.9892 21.3651 73.6201 20.0459C73.4453 19.4639 73.251 18.9013 73.0179 18.3387C73.0179 16.9419 72.7848 15.5257 72.2215 14.2453C74.4942 16.7479 76.359 20.2205 74.805 23.5378C74.6302 23.9064 74.4359 24.2362 74.2223 24.5466Z" fill="#EFBA34"/>
<path d="M57.8083 61.4838C57.9248 60.0676 57.3032 58.7484 56.4485 57.662C55.6715 56.6726 54.4283 55.7996 53.2046 55.4892C52.6607 55.3534 52.1168 55.4504 51.6312 55.7026C51.3981 55.819 51.165 55.9936 50.9319 56.11C50.5045 56.3428 49.9412 56.2264 49.475 56.1876C48.4649 56.0906 47.6685 56.3622 47.0858 56.886C46.6778 57.0412 46.3088 57.274 46.0174 57.565C43.7253 59.893 45.2793 63.1522 47.921 64.2192C48.057 65.2086 47.5908 66.1786 47.8045 67.1874C47.9599 67.9634 48.5426 68.6812 49.0865 69.205C50.1937 70.2914 51.942 70.9703 53.496 70.7569C55.2442 70.5241 56.6428 69.1468 57.3809 67.5948C58.1579 65.9458 57.4198 64.5684 56.6428 63.1522C57.3615 62.997 57.7306 62.2986 57.8083 61.4838ZM51.6506 56.5368C52.719 55.8966 53.6125 56.2846 54.5837 56.9248C55.419 57.5068 56.0989 58.2634 56.5651 59.1752C56.6428 59.311 56.7399 59.6214 56.837 59.99C56.6622 59.6796 56.4097 59.3886 56.1572 59.1364C55.2053 58.2634 53.9622 57.7202 52.7772 57.2546C52.2916 57.0606 51.7866 56.886 51.2621 56.7502C51.3787 56.6726 51.5146 56.6144 51.6506 56.5368ZM54.7974 62.7642C54.914 63.8118 55.7881 64.549 55.8852 65.6354C56.0018 66.9934 55.4384 68.3514 54.1952 68.9722C51.4564 70.3495 47.4743 66.3338 50.5045 64.2192C50.8348 63.9864 50.6405 63.385 50.2132 63.5402C49.5916 63.773 49.0477 63.773 48.5815 63.6372C48.5621 63.6178 48.5426 63.5984 48.5038 63.579C48.2707 63.4432 48.057 63.3462 47.8239 63.2492C46.3088 62.0464 46.0368 58.923 47.4743 57.565C47.8822 57.4292 48.3484 57.371 48.834 57.371C49.9024 57.371 51.3398 57.6814 52.0391 58.5738C52.2333 58.826 52.6995 58.6902 52.6024 58.341C52.583 58.2634 52.5636 58.1858 52.5441 58.1082C52.5053 57.953 52.3693 57.8948 52.2528 57.8948C52.1751 57.8172 52.0974 57.759 52.0197 57.6814C52.9909 58.0306 53.9233 58.4574 54.7974 58.9812C55.4579 59.3886 56.3903 60.0288 56.3903 60.9018C56.4097 61.9494 54.6809 61.639 54.7974 62.7642ZM45.998 58.923C45.8037 59.8542 45.8426 60.8824 46.1145 61.8136C45.6095 60.9406 45.5706 59.8736 45.998 58.923ZM53.5348 69.9227C52.2722 70.1749 50.8542 69.5736 49.8829 68.7782C49.3585 68.3514 48.9505 67.8082 48.698 67.168C48.3872 66.392 48.698 65.519 48.7952 64.743C48.7952 64.6654 48.8146 64.5684 48.8146 64.452C48.9311 64.4714 49.0671 64.4714 49.1836 64.4714C47.7268 66.5472 49.6304 69.2826 52.1751 69.8452C52.6607 69.9422 53.1463 69.9616 53.6125 69.884C53.5931 69.9228 53.5737 69.9227 53.5348 69.9227ZM56.1377 62.415C55.7881 62.3374 55.5356 62.6866 55.691 62.997C56.3708 64.3162 57.2644 65.4996 56.7399 67.0516C56.5651 67.5754 56.2349 68.0992 55.8464 68.5454C56.6039 67.459 56.9536 65.6936 56.3708 64.4714C56.2154 64.1416 55.1082 62.706 55.7104 62.4732C56.2543 62.2598 56.6428 62.0852 56.9341 61.542C56.973 61.445 57.0118 61.348 57.0507 61.251C57.0701 61.9882 56.8759 62.5896 56.1377 62.415Z" fill="#EFBA34"/>
<path d="M76.0871 65.3448C75.5043 64.5882 74.669 64.0644 73.892 63.5212C72.9791 62.8616 72.1438 62.0856 71.0754 61.6976C70.1042 61.3484 68.9581 61.3096 67.9675 61.6394C67.7344 61.6394 67.5013 61.6588 67.2876 61.6976C65.1897 62.0856 64.2379 64.2778 63.9465 66.179C63.83 66.858 63.7911 67.6922 63.9271 68.4682C63.8883 69.0696 63.9077 69.6904 63.9854 70.2918C64.0631 70.7768 64.2379 71.223 64.4904 71.611C64.9178 72.4258 65.7919 73.1048 66.6272 73.454C68.0063 74.0166 70.2207 73.745 71.4639 72.678C71.833 72.7168 72.2409 72.678 72.6294 72.581C72.9402 72.6004 73.2704 72.6004 73.5812 72.5616C73.7755 72.6198 73.9697 72.678 74.1834 72.6586C74.9993 72.6586 75.5237 72.1736 75.9705 71.5334C75.9899 71.514 76.0093 71.4752 76.0288 71.4558C76.2424 71.223 76.3978 70.932 76.5338 70.6022C77.1943 68.9144 77.2137 66.7998 76.0871 65.3448ZM71.5222 62.687C72.3963 63.172 73.1539 63.8704 73.9697 64.4524C74.8633 65.0926 75.718 65.7522 76.0482 66.8386C76.1065 67.0326 76.1647 67.2654 76.2036 67.4982C76.1453 67.3236 76.0676 67.1684 76.0093 66.9938C75.9122 66.761 75.5432 66.9356 75.6209 67.1684C75.9511 68.1384 76.1453 69.1666 75.9705 70.1754C75.6986 70.835 75.2518 71.3976 74.5913 71.6498C74.6885 71.5722 74.7856 71.4752 74.8827 71.3976C76.4173 69.8262 75.6791 67.1878 74.3194 65.7716C73.6978 65.112 72.3963 64.4718 71.4251 64.6076C71.4057 64.2972 71.3862 64.0062 71.3668 63.8704C71.2503 63.1332 70.7452 62.59 70.1042 62.2214C70.5704 62.2602 71.0754 62.4348 71.5222 62.687ZM65.3451 71.5334C65.3063 71.4946 65.2868 71.4558 65.248 71.417C65.0149 71.1454 65.1314 70.8932 65.6171 70.6798C66.0833 70.7574 66.2775 70.1172 65.8113 69.962C65.0343 69.7098 64.7235 68.992 64.6264 68.2354C64.6847 67.5564 64.8595 66.8774 65.1897 66.2566C65.1897 67.0908 65.3451 67.925 65.6171 68.7398C65.889 69.574 66.4523 71.2618 67.4236 71.805C67.3459 71.8632 67.2682 71.9214 67.1711 71.9602C66.53 72.3288 65.8307 71.9796 65.3451 71.5334ZM69.5409 70.6216C69.5797 70.7768 69.6186 70.932 69.6574 71.0678C69.5409 71.029 69.4438 71.0096 69.3466 71.0096C69.4049 70.8738 69.4632 70.738 69.5409 70.6216ZM70.2984 70.5828C70.279 70.5052 70.2207 70.253 70.1819 69.9814C70.3373 69.8844 70.4927 69.8068 70.6287 69.6904C70.8812 69.4382 70.8618 69.1084 70.8229 68.798C70.8035 68.6816 70.6675 68.5458 70.551 68.5264C69.7351 68.3518 69.4632 68.8756 69.4438 69.5546C69.4049 69.574 69.3661 69.5934 69.3466 69.6322C69.133 69.8262 68.997 70.0396 68.861 70.2918C68.6668 70.6604 68.4725 71.3588 67.9092 71.1066C67.5013 70.932 67.2293 70.4082 67.0157 70.0396C65.9667 68.1772 65.5394 65.9462 66.4329 63.948C66.802 63.1138 67.443 62.59 68.2006 62.3184C68.997 62.3766 69.774 62.7258 70.2984 63.2302C70.6287 63.5406 70.6675 63.9092 70.7064 64.336C70.7258 64.5106 70.7258 64.6658 70.7452 64.8404C70.5315 65.015 70.3762 65.2672 70.2596 65.597C70.2208 65.7134 70.2596 65.8686 70.3567 65.9462C71.0949 66.5476 71.3474 65.9656 71.4057 65.2478C72.105 64.9956 73.3676 65.791 73.8143 66.1984C74.8244 67.1296 75.2324 68.6816 74.8244 69.9814C74.5913 70.7574 73.8532 71.3976 73.0374 71.6886C72.746 71.4946 72.474 71.2812 72.2021 71.0872C72.0661 70.9902 71.8719 71.0678 71.7747 71.2036C71.6776 71.3394 71.5805 71.4752 71.4834 71.5916C71.2308 71.5334 70.9977 71.4558 70.7646 71.3782C70.5121 71.2036 70.3761 70.9126 70.2984 70.5828ZM66.0833 63.0168C66.1415 62.9586 66.1998 62.9198 66.2581 62.8616C65.753 63.5406 65.4617 64.2778 65.3063 65.0538C65.2868 65.0732 65.2868 65.0732 65.2674 65.0926C65.0537 65.3254 64.8595 65.597 64.7041 65.8686C64.8983 64.821 65.3451 63.7734 66.0833 63.0168ZM64.7624 70.1754C64.7235 70.1948 64.7041 70.2142 64.6847 70.2336C64.6652 70.1754 64.6652 70.1172 64.6458 70.0396C64.6847 70.0978 64.7235 70.1366 64.7624 70.1754ZM68.2977 72.9302C67.8509 72.9496 67.4041 72.8914 66.9768 72.7362C67.1711 72.6974 67.3459 72.6392 67.5401 72.5422C68.0257 72.3094 68.3754 71.902 68.8999 71.6886C69.2689 71.5334 69.7934 71.805 70.1819 71.999C70.2984 72.1348 70.4344 72.2512 70.5898 72.3288C69.8905 72.7362 69.0941 72.8914 68.2977 72.9302Z" fill="#EFBA34"/>
<path d="M70.551 67.7502C71.5028 67.4592 72.0272 66.7026 72.1438 65.7521C72.2603 64.7433 71.3862 63.9285 70.551 63.5405C68.2394 62.4541 66.161 64.5105 65.384 66.528C64.471 68.8948 63.7328 72.8912 65.9279 74.773C66.6854 75.4326 67.9869 75.6654 68.8027 74.9864C69.5603 74.3462 69.8517 73.318 69.3272 72.4644C69.0747 72.6196 68.8222 72.7554 68.5891 72.9106C69.4826 74.094 70.6675 75.1222 72.2021 75.3162C73.6589 75.4908 75.0187 74.9282 75.8734 73.7254C76.8446 72.348 76.1453 70.408 75.5237 69.05C74.8244 67.5174 73.6201 66.2565 72.2409 65.3059C72.1438 65.5193 72.0661 65.7327 71.969 65.9461C74.1057 66.6832 74.941 69.2828 74.0086 71.2422C73.8532 71.5914 74.2999 71.8436 74.5136 71.5332C76.0676 69.3022 74.6302 66.0624 72.1438 65.2671C71.7359 65.1313 71.561 65.6939 71.8718 65.9073C73.8532 67.2846 75.9316 70.117 75.4072 72.6778C75.1352 73.9582 73.6201 74.5402 72.474 74.482C71.192 74.4238 70.0459 73.4538 69.3272 72.4644C69.0164 72.0182 68.2977 72.4062 68.5891 72.9106C69.1718 73.9 68.0063 74.5984 67.1322 74.385C66.1998 74.1522 65.7919 73.1434 65.5976 72.3092C65.2091 70.6214 65.5394 68.6426 66.0833 67.013C66.5494 65.6163 67.5984 64.1031 69.1912 64.0255C71.1337 63.9285 72.2215 66.2371 70.3761 67.3234C70.1625 67.4592 70.2984 67.8278 70.551 67.7502Z" fill="#EFBA34"/>
</g>
<defs>
<clipPath id="clip0_1063:132">
<rect width="77" height="75" fill="white" transform="translate(0 0.413086)"/>
</clipPath>
</defs>
</svg>
