<svg width="106" height="79" viewBox="0 0 106 79" fill="none" xmlns="http://www.w3.org/2000/svg">
<path d="M91.0691 4.06722C76.9802 14.2812 63.1468 24.7768 49.1857 35.1316C47.3584 33.9661 46.2714 34.1823 46.4222 36.6119C41.8938 38.4099 37.7356 40.8988 34.5859 44.7825C26.8064 49.7864 18.8991 54.6496 11.2473 59.7943C7.21674 62.424 2.25295 64.8736 1.05823 70.0636C-0.277275 75.3814 -0.974215 81.403 7.86626 76.7199C12.9939 76.4313 15.8489 73.0716 18.717 69.4433C19.3948 69.3417 20.0857 68.9717 20.6488 68.4608C26.7228 68.0837 29.2862 62.4221 33.726 59.6778C42.2779 49.867 56.1022 47.8488 65.0373 38.4604C70.9966 37.674 74.0447 33.1125 77.3351 29.1011C78.7299 28.0925 80.2525 27.2247 81.6473 26.216C86.5226 22.8201 91.3978 19.4241 96.2731 16.0281C100.009 13.9224 103.362 11.3943 105.565 7.59908C102.827 -2.49238 96.9299 -0.222734 91.0691 4.06722ZM19.1847 62.603C20.2064 63.7293 21.215 65.1242 22.2367 66.2505C21.3558 64.9964 20.2064 63.7293 19.1847 62.603Z" fill="#EFBA34"/>
</svg>
