<svg width="42" height="41" viewBox="0 0 42 41" fill="none" xmlns="http://www.w3.org/2000/svg">
<g clip-path="url(#clip0)">
<path d="M5.11891 5.81762C5.6739 5.42444 6.28126 5.1037 6.92003 4.84503C8.57454 4.11042 10.449 3.67587 12.2082 3.60344C13.1506 3.56205 14.1245 3.71725 14.9936 4.10008C15.0774 3.00334 16.2816 1.98937 17.1717 1.53412C18.4493 0.892627 20.0305 0.747774 21.4441 0.768467C21.6012 0.768467 21.7688 0.778814 21.9258 0.789161C22.6065 0.758121 23.2871 0.809854 23.9783 0.902973C25.7689 1.15129 27.5281 1.72036 29.1094 2.57912C29.6958 2.89987 30.9942 3.45859 31.2141 4.23458C31.811 3.69656 32.5859 3.37581 33.3504 3.14819C33.6854 3.04472 34.0205 2.9723 34.3661 2.92056C35.1829 2.47566 36.1253 2.18595 37.0468 2.32046C37.8636 2.43427 38.7537 3.01368 39.3296 3.5724C39.9056 4.14146 40.1045 4.92781 40.1988 5.7038C40.3244 6.71777 40.3977 7.65931 40.1674 8.66293C40.1674 8.72501 40.1569 8.79744 40.1569 8.85952C40.4815 10.2563 40.2826 11.7773 39.4658 13.0085C39.3506 13.1844 39.026 13.0706 39.1097 12.8637C39.2354 12.5326 39.2249 12.1808 39.2668 11.829C39.3087 11.4669 39.4448 11.1047 39.5181 10.7529C39.5286 10.7116 39.5286 10.6805 39.5391 10.6391C39.5181 10.6805 39.4972 10.7323 39.4867 10.7736C39.3715 11.1668 39.2354 11.5393 39.0888 11.9014C38.9631 12.1911 38.8061 12.5326 38.5652 12.7498C38.5024 12.8016 38.4081 12.8533 38.3244 12.905C38.2615 13.0189 38.2092 13.1223 38.1359 13.2258C38.2406 13.2775 38.3453 13.3189 38.4396 13.3706C40.7119 13.381 41.8324 15.6779 41.7381 17.7576C41.7695 17.8921 41.7905 18.0266 41.8114 18.1611C41.8219 18.2542 41.8428 18.3474 41.8533 18.4405C41.9057 18.6785 41.9475 18.9164 41.979 19.1647C42.2407 21.5445 40.9632 24.0277 38.9317 25.3106C38.073 25.8487 36.7327 26.5005 35.6855 26.3246C35.4342 26.2832 35.2248 26.1591 34.9839 26.0866C34.7745 26.0246 34.5232 26.366 34.408 26.4902C34.3452 26.5626 34.2823 26.635 34.2195 26.7074C34.209 26.7281 34.1986 26.7592 34.1776 26.7799C34.1567 26.8419 34.1357 26.9144 34.1043 26.9764C33.7692 27.5972 33.3922 28.187 33.0781 28.8181C32.8058 29.3665 32.4079 29.8942 31.9262 30.277C31.0361 31.0013 29.8738 31.3944 28.7638 31.591C26.3972 32.0152 24.0097 31.1461 22.2819 29.5321C21.3604 28.6733 20.7321 27.5765 20.219 26.4488C20.198 26.4074 20.1876 26.366 20.1666 26.3246C19.7896 25.9211 19.4441 25.4969 19.1299 25.0416C18.8472 24.6278 18.6063 24.1725 18.3969 23.7173C18.0932 24.1415 17.5697 24.4622 17.0356 24.7002C16.3549 25.352 15.6533 25.8797 14.669 26.0556C13.5067 26.2625 12.2815 25.9625 11.2029 25.5176C8.9934 24.6174 7.27606 22.8688 6.59541 20.5926C6.23937 19.3924 6.29173 18.1404 6.70012 16.9609C6.72107 16.8885 6.75248 16.8264 6.77343 16.754C5.73674 16.9402 4.57439 16.8471 3.62147 16.4229C2.79422 16.0608 2.34394 15.3882 2.14498 14.6019C2.09262 14.5605 2.05073 14.5088 2.00885 14.457C-0.933674 11.4048 2.28111 7.66966 5.11891 5.81762ZM9.14001 4.61741C9.11906 4.62775 9.09812 4.62775 9.07718 4.6381C7.34937 5.12439 5.76815 5.86935 4.3859 6.9454C3.76807 7.60758 3.34921 8.39392 3.1712 9.29408C4.00892 7.89728 5.26551 6.72812 6.77343 6.10732C7.95672 5.62103 9.29708 5.58999 10.5641 5.7038C11.161 5.75554 11.7474 5.859 12.3338 5.98316C13.1297 6.14871 13.8313 6.45911 14.6481 6.25217C14.7947 6.21079 14.9413 6.1694 15.0774 6.13836C14.8575 5.97281 14.6167 5.84865 14.3758 5.71415C13.936 5.46583 13.5067 5.22786 13.0459 5.04162C12.2187 4.71053 11.3181 4.55533 10.4175 4.53464C9.99868 4.52429 9.56934 4.55533 9.14001 4.61741ZM16.3654 4.02765C17.0461 2.93091 18.4179 2.52739 19.6221 2.26873C21.1614 1.93763 22.7845 1.91694 24.3448 2.10318C24.8265 2.16526 25.2977 2.26873 25.7584 2.40323C24.5856 1.74105 23.3081 1.27545 21.9468 1.14095C20.7111 1.20303 19.5174 1.52377 18.4179 2.13422C17.7791 2.48601 17.2555 2.9516 16.7424 3.44824C16.3759 3.80003 15.978 4.18285 15.4963 4.37944C15.7266 4.55533 15.9151 4.76226 16.1246 4.98989C16.1769 5.05197 16.5853 4.62775 16.7843 4.42082C16.7424 4.43117 16.7005 4.44152 16.6481 4.42082C16.6063 4.41048 16.5644 4.40013 16.5225 4.38978C16.3654 4.35874 16.2816 4.16216 16.3654 4.02765ZM16.9414 4.28632C17.1508 4.10008 17.3916 3.95522 17.6325 3.81037C18.6273 3.25165 19.7687 2.8171 20.931 2.55843C20.5855 2.59982 20.2504 2.65155 19.9153 2.71363C18.8891 2.91022 17.6115 3.23096 16.9414 4.08973C16.9623 4.14146 16.9623 4.21389 16.9414 4.28632ZM17.9571 1.58585C17.3288 1.79278 16.7424 2.12387 16.2816 2.58947C15.9151 2.96195 15.4544 3.48963 15.3706 4.04834C15.9884 3.80003 16.4806 3.18958 16.9414 2.74467C17.5173 2.1963 18.2084 1.78244 18.931 1.46169C19.1509 1.36857 19.3603 1.27545 19.5802 1.20303C19.0252 1.29614 18.4702 1.4203 17.9571 1.58585ZM29.9157 3.36547C29.434 3.06542 28.9104 2.80675 28.3973 2.55843C27.0569 1.91694 25.5804 1.49273 24.1039 1.27545C24.8055 1.52377 25.4757 1.84452 26.104 2.21699C26.6381 2.52739 27.1616 2.85848 27.6119 3.25165C27.8318 3.38616 28.0517 3.54136 28.2612 3.69656C28.9209 4.1932 29.8319 4.82434 30.1146 5.66242C30.3031 5.19682 30.701 4.74157 30.9942 4.43117C31.0047 4.42082 31.0047 4.42082 31.0152 4.41048C30.9314 3.94488 30.2822 3.58275 29.9157 3.36547ZM31.0885 4.85538C30.8581 5.1037 30.6277 5.4141 30.4916 5.71415C30.523 5.69346 30.5544 5.67276 30.5859 5.65207C30.6696 5.51756 30.7534 5.37271 30.8267 5.24855C30.9105 5.11405 31.0257 4.98989 31.1408 4.87607C31.1199 4.87607 31.099 4.86573 31.0885 4.85538ZM31.5911 4.91746C31.4759 5.01058 31.3817 5.1037 31.2979 5.20717C31.4759 5.1037 31.654 5.01058 31.8424 4.91746C31.9053 4.84503 31.9576 4.78295 31.9995 4.74157C32.1566 4.58637 32.3241 4.43117 32.4917 4.28632C32.1671 4.4829 31.8634 4.68983 31.5911 4.91746ZM34.7431 3.23096C34.7117 3.24131 34.6802 3.262 34.6593 3.27235C35.4133 3.22061 36.1777 3.37581 36.9002 3.58275C36.2405 3.24131 35.497 3.15854 34.7431 3.23096ZM35.9054 2.91022C36.607 3.02403 37.2563 3.31373 37.7798 3.8621C38.0102 3.94488 38.2406 4.038 38.4605 4.13112C38.6071 4.1932 38.7432 4.26562 38.8689 4.33805C38.8689 4.33805 38.8689 4.3277 38.8584 4.3277C38.1464 3.30339 37.0992 2.8171 35.9054 2.91022ZM38.7956 3.70691C38.6595 3.58275 38.5024 3.45859 38.3453 3.35512C38.5233 3.49997 38.7013 3.66552 38.8584 3.84141C39.0993 4.11042 39.2982 4.41048 39.4762 4.71053C39.3401 4.3484 39.1307 4.00696 38.7956 3.70691ZM39.7904 7.65931C39.8113 7.43169 39.8113 7.19372 39.8113 6.96609C39.7276 6.22113 39.5286 5.51756 39.1726 4.84503C39.0993 4.78295 39.0155 4.71053 38.9212 4.6381C38.649 4.44152 38.3244 4.31736 38.0102 4.20354C37.9997 4.29666 37.8846 4.36909 37.8008 4.27597C37.7275 4.1932 37.6542 4.12077 37.5809 4.04834C37.5495 4.038 37.5181 4.02765 37.4866 4.0173C36.4604 3.65517 35.34 3.4172 34.2509 3.60344C34.1671 3.61379 34.0834 3.63448 33.9996 3.65517C33.7902 3.78968 33.5912 3.94488 33.4027 4.08973C33.2352 4.21389 33.0781 4.3484 32.9315 4.4829C33.0676 4.44152 33.2038 4.40013 33.3504 4.35874C33.6436 4.27597 33.9158 4.22424 34.1357 4.18285C34.5546 4.11042 34.9735 4.10008 35.3714 4.13112C36.7955 4.1932 38.1882 4.73122 39.0574 5.89004C39.4344 6.41772 39.6752 7.02817 39.7904 7.65931ZM39.0888 13.7328C39.204 13.8155 39.3192 13.8983 39.4344 14.0018C39.4867 14.0432 39.5286 14.0846 39.5705 14.1363C39.9265 14.4053 40.2511 14.7364 40.5234 15.0882C40.8271 15.4607 41.0679 15.8849 41.2669 16.3194C40.9946 15.1089 40.2616 14.0639 39.0888 13.7328ZM34.4185 25.7659C34.8059 25.4658 35.1619 25.6107 35.5703 25.7866C36.1149 26.0039 36.9002 25.6831 37.4029 25.4969C38.0416 25.2589 38.6699 24.9175 39.1935 24.4933C39.3087 24.4001 39.4134 24.307 39.5181 24.2139C38.5652 24.8761 37.2458 25.1451 36.1253 25.2899C35.8007 25.3313 35.4656 25.3624 35.1305 25.3831C34.8269 25.4038 34.4708 25.2899 34.3347 25.6314C34.3033 25.7142 34.2823 25.7969 34.2614 25.89C34.3242 25.8487 34.3766 25.8073 34.4185 25.7659ZM33.0467 27.2972C32.7535 27.5145 32.4393 27.7111 32.1147 27.8766C31.4026 28.2284 30.6277 28.4146 29.8528 28.5284C28.3868 28.7457 26.858 28.6216 25.4024 28.4043C25.0883 28.3629 24.7741 28.3008 24.4495 28.2284C24.5961 28.3112 24.7636 28.3732 24.9207 28.4457C25.9888 28.8492 27.1826 29.0251 28.324 29.0975C29.1512 29.1492 30.0309 29.1182 30.8581 28.9113C30.9314 28.8802 31.0047 28.8388 31.078 28.8078C31.7796 28.425 32.4707 27.8973 33.0467 27.2972ZM23.4966 27.9697C22.9939 27.8042 22.5122 27.5972 22.0724 27.3386C23.6851 28.4974 25.6433 29.2423 27.6224 29.4079C27.9784 29.4389 28.3449 29.4493 28.701 29.4286C28.6905 29.4286 28.68 29.4286 28.6695 29.4286C27.392 29.4079 26.0516 29.1699 24.8474 28.7457C24.3238 28.5698 23.8736 28.3008 23.4966 27.9697ZM22.5541 29.0458C24.3657 30.8461 26.9627 31.5289 29.434 30.8564C30.7429 30.5046 31.811 29.8425 32.4917 28.6629C32.5336 28.6009 32.565 28.5284 32.6069 28.4664C32.544 28.5181 32.4707 28.5698 32.4079 28.6112C32.2299 28.7354 32.0309 28.8492 31.832 28.9423C31.5283 29.1389 31.2037 29.3148 30.8686 29.4596C29.8424 29.9045 28.7219 29.9977 27.6224 29.9149C25.3815 29.7597 23.172 28.8388 21.4232 27.4627C21.3708 27.4213 21.329 27.3903 21.2766 27.3489C21.6326 27.9594 22.041 28.5284 22.5541 29.0458ZM10.7003 24.7416C11.8417 25.3417 13.2135 25.7348 14.5119 25.559C14.8575 25.5072 15.1612 25.4038 15.4439 25.2589C13.758 25.7038 11.9569 25.5279 10.4594 24.5864C8.87822 23.5931 7.95672 21.9583 7.81012 20.127C7.73681 19.2268 7.90436 18.3163 8.22898 17.4782C8.40699 17.0333 8.64784 16.6195 8.93058 16.2263C9.06671 16.0401 9.21331 15.8538 9.35991 15.6779C9.44368 15.5745 9.66359 15.3572 9.79972 15.1503C9.44368 15.2848 9.08765 15.7504 8.82586 15.9366C8.37558 16.2573 7.86247 16.485 7.32842 16.6402C7.03521 17.261 6.86767 17.9335 6.81531 18.606C6.61635 21.203 8.45935 23.5724 10.7003 24.7416ZM4.04034 16.0401C4.96184 16.3919 6.05088 16.3815 7.02475 16.1435C7.1504 15.8952 7.297 15.6469 7.45408 15.4296C7.5588 15.2848 7.68446 15.1606 7.75776 15.0054C7.73681 15.0158 7.71587 15.0261 7.69493 15.0364C7.57974 15.0882 7.47502 15.1606 7.3703 15.2227C7.06663 15.4089 6.7839 15.6159 6.46975 15.8021C6.04041 16.0504 5.43306 16.0608 4.96184 16.0297C4.28118 15.978 3.63195 15.7297 3.05601 15.3675C3.29685 15.6366 3.62147 15.8745 4.04034 16.0401ZM2.57431 14.3122C3.10836 14.8088 3.76807 15.1813 4.4592 15.3779C4.97231 15.5227 5.71579 15.5848 6.19749 15.3158C6.54305 15.1296 6.84673 14.8916 7.18182 14.695C7.41219 14.5605 7.67398 14.4053 7.94624 14.457C8.34417 14.5295 8.32322 14.964 8.19756 15.233C8.12426 15.3882 7.98813 15.5331 7.87294 15.6676C7.81012 15.7504 7.74728 15.8331 7.68445 15.9263C8.23945 15.709 8.66879 15.3468 9.11906 14.964C9.42274 14.7054 9.77878 14.5191 10.1872 14.6329C10.2919 14.664 10.3652 14.7571 10.3652 14.8606C10.3547 15.1399 10.2081 15.3055 10.0092 15.4917C9.64265 15.8228 9.34944 16.2677 9.07718 16.6712C8.58501 17.4058 8.32322 18.2646 8.22898 19.1337C8.04049 20.8616 8.67926 22.5067 9.96727 23.6862C11.3076 24.9175 13.1297 25.2899 14.8994 24.9485C15.245 24.8864 15.7999 24.7519 16.3654 24.5553C16.6796 24.276 16.9728 23.9656 17.2869 23.6655C17.4859 23.4793 17.9466 22.9826 18.2712 22.962C18.2817 22.8688 18.2817 22.7654 18.2608 22.6619C18.2189 22.4653 18.5226 22.3722 18.5749 22.5791C18.6168 22.7654 18.6273 22.9413 18.5959 23.1068C18.7844 23.293 18.8577 23.6241 18.9624 23.8518C19.109 24.1622 19.287 24.4622 19.486 24.7416C19.4545 24.6691 19.4231 24.5864 19.4022 24.5139C19.2242 24.0277 19.1927 23.3655 18.8262 22.9826C18.6063 22.755 18.9414 22.4239 19.1718 22.6412C19.4964 22.9516 19.6221 23.3965 19.7268 23.8104C19.8315 24.2139 19.9886 24.6071 20.1457 25.0002C20.5331 25.6417 21.0358 26.2108 21.6536 26.666C22.041 26.9454 22.4599 27.173 22.8892 27.3593C22.7636 27.2041 22.6484 27.0385 22.5332 26.873C22.4389 26.7281 22.6693 26.604 22.7636 26.7385C23.0044 27.0592 23.2557 27.3489 23.5385 27.5972C24.2401 27.8249 24.9835 27.9594 25.7061 28.0525C27.0779 28.2284 28.4915 28.3112 29.8633 28.1146C30.6173 28.0111 31.3503 27.7938 32.0309 27.4627C32.6069 27.1834 33.099 26.7695 33.6226 26.397C33.6854 26.0556 33.6854 25.6935 33.8111 25.3624C33.9577 24.9899 34.2928 24.7726 34.7012 24.7933C35.4133 24.8243 36.1253 24.7209 36.8269 24.5864C38.1778 24.3174 39.3925 23.8311 40.2511 22.724C40.9737 21.7824 41.2983 20.6133 41.3192 19.4441C40.7328 20.7995 39.56 21.9273 38.272 22.6205C36.9107 23.3551 35.0258 23.7483 33.5598 23.1275C33.3922 23.0551 33.5179 22.7861 33.6854 22.8481C35.1096 23.3137 36.7746 22.9309 38.073 22.2791C39.4134 21.6065 40.5234 20.4167 41.0784 19.0406C41.1517 18.844 41.2145 18.6474 41.2669 18.4405C41.2564 18.3474 41.2459 18.2542 41.225 18.1715C41.1203 17.799 40.9737 17.4265 40.8166 17.0644C40.5443 16.4643 40.1778 15.9159 39.8637 15.3365C39.7799 15.1813 39.6752 15.0261 39.5705 14.8812C39.3296 14.664 39.0679 14.4777 38.7956 14.3122C38.5233 14.1466 38.2092 14.0328 37.895 14.0018C37.6647 13.9811 37.4552 14.0121 37.2248 13.9501C37.0782 13.9087 36.9631 13.7431 37.0154 13.5879C37.1097 13.3499 37.2667 13.2051 37.4762 13.0706V13.0602C37.4762 13.0292 37.4971 12.9982 37.5076 12.9671C37.2772 13.0809 37.0468 13.1844 36.785 13.2568C36.628 13.2982 36.4814 13.1534 36.5233 12.9982C36.5756 12.8016 36.7117 12.7395 36.9107 12.7395C36.9316 12.7395 36.9631 12.7395 36.984 12.7498C37.5495 12.5326 38.0312 12.1704 38.4081 11.7152C38.7328 11.1772 38.9841 10.5874 39.204 9.9873C39.3506 9.32512 39.3611 8.65259 39.1935 7.9904C39.0783 7.52481 38.8794 7.09025 38.6176 6.67638C38.3453 6.38668 38.0416 6.12801 37.6961 5.89004C36.4604 5.03127 34.9002 4.53464 33.3922 4.7933C33.3608 4.7933 33.3399 4.80365 33.3085 4.81399C32.8896 4.93815 32.366 5.13474 31.989 5.4141C31.9262 5.47618 31.8739 5.53826 31.811 5.61068C31.7482 5.68311 31.6749 5.76588 31.6016 5.84865C31.5597 5.93143 31.5283 6.0142 31.5283 6.10732C31.5074 6.31425 31.2456 6.34529 31.1618 6.21079C30.9942 6.31425 30.8058 6.36599 30.6173 6.33495C30.3241 6.52118 30.0204 6.67638 29.6853 6.77985C29.5177 6.83158 29.3711 6.59361 29.5073 6.4798C29.5701 6.42807 29.6329 6.37633 29.6958 6.3246C29.3921 6.00385 29.1722 5.62103 28.8895 5.27959C28.8266 5.31063 28.7429 5.30028 28.701 5.22786C28.6486 5.11405 28.5962 5.00023 28.5334 4.89677C28.0203 4.40013 27.4653 3.95522 26.837 3.60344C25.6642 2.94126 24.2924 2.74467 22.9521 2.80675C21.6117 2.86883 20.2713 3.22061 19.0252 3.70691C18.3341 3.97592 17.6534 4.31736 17.0984 4.80365C16.8052 5.07266 16.4282 5.71415 15.9361 5.48652C15.7685 5.4141 15.6743 5.27959 15.5591 5.13474C15.3916 4.91746 15.1507 4.77261 14.9099 4.6381C14.3444 4.33805 13.6637 4.20354 13.0354 4.14146C12.3757 4.07938 11.6951 4.12077 11.0354 4.21389C11.7579 4.27597 12.4595 4.44152 13.1297 4.70018C13.5904 4.87607 14.0302 5.1037 14.4491 5.35202C14.8575 5.58999 15.2973 5.79692 15.6324 6.13836C15.7266 6.23148 15.6952 6.44876 15.5486 6.46945C14.9727 6.55222 14.4596 6.80054 13.8627 6.77985C13.2553 6.75916 12.648 6.51084 12.0616 6.39703C10.8155 6.14871 9.51699 6.02455 8.24992 6.21079C5.83098 6.56257 3.97751 8.43531 3.06648 10.5978C3.08742 11.2703 3.21308 11.9325 3.40157 12.574C3.57959 13.1948 3.75761 14.1466 4.58486 14.1259C4.77335 14.1156 4.82571 14.426 4.62675 14.457C3.90421 14.5915 3.51676 14.188 3.25497 13.5672C2.99318 12.9361 2.82563 12.2429 2.73139 11.56C2.49054 12.4188 2.36488 13.4431 2.57431 14.3122ZM1.9879 13.6397C1.95649 12.8119 2.11356 11.9428 2.31252 11.2392C2.40677 10.9288 2.51148 10.6288 2.63714 10.3287C2.63714 9.58378 2.7628 8.82848 3.06648 8.1456C1.8413 9.48032 0.836025 11.3324 1.67376 13.1016C1.768 13.2982 1.87271 13.4741 1.9879 13.6397Z" fill="#37BD8A"/>
<path d="M10.8365 33.3398C10.7737 32.5845 11.1088 31.8809 11.5695 31.3015C11.9884 30.7738 12.6586 30.3082 13.3183 30.1427C13.6115 30.0702 13.9047 30.122 14.1665 30.2565C14.2922 30.3186 14.4178 30.4117 14.5435 30.4738C14.7738 30.5979 15.0775 30.5358 15.3288 30.5151C15.8734 30.4634 16.3027 30.6083 16.6168 30.8876C16.8367 30.9704 17.0357 31.0945 17.1928 31.2497C18.4284 32.4913 17.5907 34.2296 16.1666 34.7986C16.0933 35.3263 16.3446 35.8436 16.2294 36.3817C16.1456 36.7955 15.8315 37.1784 15.5383 37.4577C14.9414 38.0371 13.9989 38.3993 13.1612 38.2854C12.2188 38.1613 11.4648 37.4267 11.0669 36.5989C10.648 35.7195 11.046 34.9849 11.4648 34.2296C11.0774 34.1468 10.8784 33.7743 10.8365 33.3398ZM14.156 30.7014C13.5801 30.3599 13.0984 30.5669 12.5748 30.9083C12.1245 31.2187 11.758 31.6222 11.5067 32.1085C11.4648 32.1809 11.4125 32.3465 11.3601 32.5431C11.4544 32.3775 11.5905 32.2223 11.7266 32.0878C12.2397 31.6222 12.9099 31.3325 13.5487 31.0842C13.8105 30.9807 14.0827 30.8876 14.3655 30.8152C14.3026 30.7738 14.2293 30.7428 14.156 30.7014ZM12.4596 34.0226C12.3968 34.5814 11.9256 34.9745 11.8732 35.5539C11.8104 36.2782 12.1141 37.0025 12.7842 37.3336C14.2607 38.0682 16.4074 35.9264 14.7738 34.7986C14.5958 34.6745 14.7005 34.3537 14.9309 34.4365C15.266 34.5607 15.5592 34.5607 15.8105 34.4882C15.821 34.4779 15.8315 34.4675 15.8524 34.4572C15.9781 34.3848 16.0933 34.333 16.2189 34.2813C17.0357 33.6398 17.1823 31.974 16.4074 31.2497C16.1875 31.1773 15.9362 31.1463 15.6744 31.1463C15.0985 31.1463 14.3236 31.3118 13.9466 31.7878C13.8419 31.9223 13.5906 31.8499 13.6429 31.6636C13.6534 31.6222 13.6639 31.5808 13.6743 31.5395C13.6953 31.4567 13.7686 31.4256 13.8314 31.4256C13.8733 31.3843 13.9152 31.3532 13.9571 31.3118C13.4335 31.4981 12.9308 31.7257 12.4596 32.005C12.1036 32.2223 11.601 32.5638 11.601 33.0294C11.5905 33.5881 12.5225 33.4225 12.4596 34.0226ZM17.2033 31.974C17.308 32.4706 17.287 33.019 17.1404 33.5157C17.4127 33.0501 17.4336 32.481 17.2033 31.974ZM13.1403 37.8405C13.8209 37.975 14.5854 37.6543 15.1089 37.2301C15.3917 37.0025 15.6116 36.7128 15.7477 36.3713C15.9152 35.9575 15.7477 35.4919 15.6953 35.078C15.6953 35.0366 15.6849 34.9849 15.6849 34.9228C15.622 34.9331 15.5487 34.9331 15.4859 34.9331C16.2713 36.0402 15.2451 37.4991 13.8733 37.7991C13.6115 37.8509 13.3497 37.8612 13.0984 37.8198C13.1089 37.8405 13.1193 37.8405 13.1403 37.8405ZM11.7371 33.8364C11.9256 33.795 12.0617 33.9813 11.9779 34.1468C11.6114 34.8504 11.1297 35.4815 11.4125 36.3092C11.5067 36.5886 11.6847 36.868 11.8942 37.1059C11.4858 36.5265 11.2973 35.585 11.6114 34.9331C11.6952 34.7572 12.2921 33.9916 11.9675 33.8674C11.6743 33.7536 11.4648 33.6605 11.3078 33.3708C11.2868 33.3191 11.2659 33.2673 11.2449 33.2156C11.2344 33.6088 11.3392 33.9295 11.7371 33.8364Z" fill="#37BD8A"/>
<path d="M0.982757 35.3984C1.29691 34.9949 1.74719 34.7156 2.16605 34.4259C2.65822 34.0741 3.1085 33.6602 3.68444 33.4533C4.20802 33.267 4.82584 33.2463 5.35989 33.4222C5.48555 33.4222 5.61121 33.4326 5.7264 33.4533C6.85734 33.6602 7.37044 34.8294 7.52752 35.8433C7.59035 36.2055 7.61129 36.6504 7.53799 37.0642C7.55893 37.385 7.54846 37.7161 7.50658 38.0368C7.46469 38.2955 7.37044 38.5335 7.23431 38.7404C7.00394 39.175 6.53271 39.5371 6.08244 39.7233C5.33895 40.0234 4.14519 39.8785 3.475 39.3095C3.27604 39.3302 3.05614 39.3095 2.84671 39.2577C2.67916 39.2681 2.50114 39.2681 2.3336 39.2474C2.22888 39.2784 2.12417 39.3095 2.00898 39.2991C1.56917 39.2991 1.28643 39.0405 1.04559 38.699C1.03512 38.6887 1.02464 38.668 1.01417 38.6576C0.898986 38.5335 0.815212 38.3783 0.741911 38.2024C0.385876 37.3022 0.375403 36.1744 0.982757 35.3984ZM3.44359 33.981C2.97236 34.2396 2.56397 34.6121 2.12417 34.9225C1.64247 35.2639 1.18172 35.6157 1.0037 36.1951C0.972286 36.2986 0.940873 36.4228 0.91993 36.5469C0.951344 36.4538 0.993231 36.371 1.02465 36.2779C1.077 36.1537 1.27596 36.2469 1.23408 36.371C1.05606 36.8884 0.951343 37.4367 1.04559 37.9748C1.19219 38.3265 1.43304 38.6266 1.78907 38.7611C1.73671 38.7197 1.68436 38.668 1.632 38.6266C0.80474 37.7885 1.20266 36.3814 1.93567 35.6261C2.27077 35.2743 2.97236 34.9328 3.49594 35.0053C3.50642 34.8397 3.51689 34.6845 3.52736 34.6121C3.59019 34.2189 3.86245 33.9292 4.20802 33.7326C3.9567 33.7533 3.68443 33.8465 3.44359 33.981ZM6.77356 38.699C6.79451 38.6783 6.80498 38.6576 6.82592 38.6369C6.95158 38.4921 6.88875 38.3576 6.62696 38.2438C6.37564 38.2852 6.27093 37.9437 6.52224 37.8609C6.94111 37.7264 7.10865 37.3436 7.16101 36.9401C7.1296 36.578 7.03535 36.2158 6.85733 35.8847C6.85733 36.3296 6.77356 36.7745 6.62696 37.2091C6.48036 37.654 6.17668 38.5542 5.6531 38.8439C5.69498 38.8749 5.73687 38.9059 5.78923 38.9266C6.13479 39.1232 6.51177 38.937 6.77356 38.699ZM4.51169 38.2127C4.49075 38.2955 4.46981 38.3783 4.44886 38.4507C4.51169 38.43 4.56405 38.4197 4.61641 38.4197C4.58499 38.3472 4.55358 38.2748 4.51169 38.2127ZM4.1033 38.192C4.11377 38.1506 4.14519 38.0161 4.16613 37.8713C4.08236 37.8196 3.99858 37.7782 3.92528 37.7161C3.78915 37.5816 3.79962 37.4057 3.82057 37.2401C3.83104 37.1781 3.90434 37.1056 3.96717 37.0953C4.40698 37.0022 4.55358 37.2815 4.56405 37.6437C4.58499 37.654 4.60594 37.6644 4.61641 37.685C4.7316 37.7885 4.8049 37.9023 4.8782 38.0368C4.98292 38.2334 5.08763 38.6059 5.39131 38.4714C5.61121 38.3783 5.75782 38.0989 5.873 37.9023C6.43847 36.909 6.66885 35.7192 6.18715 34.6535C5.98819 34.2086 5.64263 33.9292 5.23423 33.7844C4.8049 33.8154 4.38603 34.0016 4.1033 34.2707C3.92528 34.4362 3.90434 34.6328 3.8834 34.8604C3.87292 34.9535 3.87292 35.0363 3.86245 35.1294C3.97764 35.2226 4.06141 35.3571 4.12424 35.533C4.14519 35.595 4.12424 35.6778 4.07188 35.7192C3.67396 36.0399 3.53783 35.7295 3.50642 35.3467C3.12944 35.2122 2.44878 35.6364 2.20794 35.8537C1.66341 36.3503 1.44351 37.1781 1.66341 37.8713C1.78907 38.2852 2.18699 38.6266 2.6268 38.7818C2.78388 38.6783 2.93048 38.5645 3.07708 38.461C3.15038 38.4093 3.2551 38.4507 3.30746 38.5231C3.35982 38.5955 3.41217 38.668 3.46453 38.7301C3.60066 38.699 3.72632 38.6576 3.85198 38.6162C3.98811 38.5231 4.06141 38.3679 4.1033 38.192ZM6.37564 34.1569C6.34422 34.1258 6.31281 34.1051 6.2814 34.0741C6.55366 34.4362 6.71073 34.8294 6.7945 35.2432C6.80498 35.2536 6.80498 35.2536 6.81545 35.2639C6.93064 35.3881 7.03535 35.5329 7.11912 35.6778C7.01441 35.1191 6.77356 34.5604 6.37564 34.1569ZM7.08771 37.9748C7.10865 37.9851 7.11913 37.9954 7.1296 38.0058C7.14007 37.9748 7.14007 37.9437 7.15054 37.9023C7.1296 37.9334 7.10865 37.9541 7.08771 37.9748ZM5.18188 39.444C5.42272 39.4543 5.66357 39.4233 5.89395 39.3405C5.78923 39.3198 5.69498 39.2888 5.59027 39.237C5.32848 39.1129 5.13999 38.8956 4.85725 38.7818C4.65829 38.699 4.37556 38.8439 4.16613 38.9473C4.1033 39.0198 4.03 39.0818 3.94623 39.1232C4.3232 39.3405 4.75254 39.4233 5.18188 39.444Z" fill="#37BD8A"/>
<path d="M3.96718 36.6815C3.45407 36.5263 3.17134 36.1228 3.10851 35.6158C3.04568 35.0778 3.5169 34.6432 3.96718 34.4363C5.2133 33.8569 6.33376 34.9536 6.75262 36.0296C7.24479 37.2919 7.64271 39.4233 6.45942 40.4269C6.05103 40.7787 5.34943 40.9029 4.90962 40.5408C4.50123 40.1993 4.34416 39.651 4.62689 39.1957C4.76302 39.2785 4.89915 39.3509 5.02481 39.4337C4.54311 40.0648 3.90435 40.6132 3.07709 40.7167C2.29172 40.8098 1.55871 40.5097 1.09796 39.8682C0.574379 39.1336 0.951359 38.099 1.28645 37.3747C1.66343 36.5573 2.31267 35.8848 3.05615 35.3778C3.10851 35.4916 3.15039 35.6054 3.20275 35.7192C2.05088 36.1124 1.6006 37.4989 2.10323 38.5439C2.18701 38.7301 1.94616 38.8646 1.83097 38.6991C0.993243 37.5092 1.76814 35.7813 3.10851 35.3571C3.32841 35.2847 3.42265 35.5847 3.25511 35.6985C2.18701 36.4332 1.06654 37.9438 1.34928 39.3095C1.49588 39.9924 2.31266 40.3028 2.93049 40.2717C3.62161 40.2407 4.23944 39.7234 4.62689 39.1957C4.79443 38.9577 5.18188 39.1647 5.02481 39.4337C4.71066 39.9614 5.33896 40.3338 5.81018 40.22C6.31282 40.0959 6.53272 39.5578 6.63743 39.1129C6.84687 38.2128 6.66885 37.1574 6.37564 36.2883C6.12433 35.5433 5.55886 34.7363 4.70019 34.6949C3.65303 34.6432 3.06662 35.8744 4.06142 36.4539C4.17661 36.5263 4.10331 36.7229 3.96718 36.6815Z" fill="#37BD8A"/>
</g>
<defs>
<clipPath id="clip0">
<rect width="41.5094" height="40" fill="white" transform="matrix(-1 0 0 1 42 0.768555)"/>
</clipPath>
</defs>
</svg>
