<svg width="130" height="117" viewBox="0 0 130 117" fill="none" xmlns="http://www.w3.org/2000/svg">
<path d="M128.013 108.773C120.687 96.1704 112.081 84.9858 99.4049 77.2363C94.1656 74.2898 94.0732 65.1346 85.8512 65.4071C82.3437 57.2967 75.4572 52.2514 68.2891 47.4616C57.6789 33.2189 42.498 24.4055 28.4697 14.0333C20.4277 13.3726 19.6212 2.29865 10.8884 2.00796C7.39788 1.83798 3.23261 -1.05624 1.13083 3.41676C-0.817097 7.49355 0.866281 11.6126 5.05771 13.9698C10.297 16.9163 15.8309 19.3389 21.0833 22.0169C29.4108 30.6312 38.5961 38.2106 48.6262 45.0238C66.4336 60.6936 81.2715 79.3138 100.205 93.9619C104.534 99.0172 108.16 104.711 113.91 108.221C115.095 111.508 118.344 111.128 120.721 112.051C122.355 114.418 124.091 117.464 127.558 115.345C130.322 113.864 129.123 110.846 128.013 108.773ZM30.4447 20.4543C30.5724 20.5951 30.9686 20.7489 31.224 21.0305C30.9686 20.7489 30.7001 20.7358 30.4447 20.4543ZM54.1993 46.6409C53.8162 46.2185 53.5607 45.937 53.0368 45.6423C53.5607 45.937 53.9439 46.3593 54.1993 46.6409ZM59.1138 42.4394C59.6508 42.4656 60.1878 42.4917 60.7118 42.7864C60.1878 42.4917 59.5231 42.3248 59.1138 42.4394ZM93.8157 78.7136C92.627 78.252 91.4384 77.7904 90.5444 76.8049C91.4384 77.7904 92.627 78.252 93.8157 78.7136C94.8897 78.7659 96.0914 78.959 97.3062 78.8835C96.0914 78.959 95.0174 78.9067 93.8157 78.7136ZM101.724 84.8851C99.5758 84.7805 97.5686 84.5482 95.4206 84.4436C97.4278 84.6759 99.5758 84.7805 101.724 84.8851C108.063 87.347 113.123 91.2267 116.646 96.2428C112.854 91.2136 108.063 87.347 101.724 84.8851Z" fill="#EFBA34"/>
</svg>
