<svg width="30" height="31" viewBox="0 0 30 31" fill="none" xmlns="http://www.w3.org/2000/svg">
<g clip-path="url(#clip0)">
<path d="M28.044 10.216C28.0391 10.2178 28.051 10.2034 28.0783 10.1763C28.0773 10.1777 28.0765 10.1797 28.0754 10.1812C28.0652 10.1922 28.0556 10.2029 28.044 10.216Z" fill="#37BD8A"/>
<path d="M2.07295 15.388C3.71856 14.1272 6.28837 13.9446 7.71744 15.3263C7.70371 10.1709 12.281 8.50477 16.2098 9.39804C16.2108 9.31582 16.2256 9.2328 16.2747 9.15153C16.5624 8.67617 16.8943 8.28351 17.2533 7.95082C17.2196 7.94056 17.1858 7.92715 17.1528 7.90047C16.8757 7.67479 16.5826 7.4783 16.2711 7.30343C15.9283 7.11105 15.5594 6.98779 15.2473 6.74506C14.9157 6.48734 15.2768 5.96874 15.6395 6.07132C16.3703 6.27807 17.0351 6.97422 17.5115 7.5389C18.4757 6.17485 20.4451 5.83522 22.2299 6.1788C22.1739 6.07905 22.1237 5.97268 22.0835 5.85274C21.9313 5.39853 21.715 4.7614 22.0892 4.37442C22.2433 4.21502 22.5041 4.22291 22.6592 4.37442C22.9592 4.66702 22.871 5.08067 22.8926 5.4656C22.9068 5.71906 22.9071 6.05791 22.9542 6.35619C23.3634 6.48181 23.7539 6.64042 24.1055 6.83376C24.4055 6.99868 24.6907 7.19296 24.9651 7.4016C25.078 7.16818 25.1814 6.93066 25.2819 6.68793C25.4175 6.36108 25.4512 6.02634 25.6341 5.72064C25.7757 5.48391 26.1848 5.44398 26.3156 5.72064C26.6688 6.46698 26.0112 7.24015 25.3859 7.74754C26.0762 8.35942 26.6474 9.09739 27.0288 9.89218C27.1677 10.1018 27.2886 10.3169 27.3921 10.5364C27.5166 10.4984 27.6412 10.4605 27.7633 10.4173C27.844 10.3887 27.9197 10.3439 27.9825 10.2871C27.9923 10.274 28.0171 10.2454 28.0436 10.2157C28.0483 10.214 28.06 10.2018 28.075 10.1808C28.0891 10.1657 28.1022 10.1516 28.1067 10.1474C28.0913 10.1613 28.0875 10.1663 28.0777 10.1759C28.0865 10.1632 28.0957 10.1499 28.1026 10.1325C28.2223 9.83284 28.5308 9.74856 28.7835 9.95279C29.235 10.3177 28.9872 10.9682 28.5215 11.1716C28.2521 11.2892 27.9655 11.3317 27.6771 11.3304C27.8593 12.0635 27.8233 12.8231 27.5018 13.5664C27.6042 13.5791 27.706 13.594 27.8047 13.6065C27.959 13.6261 28.0864 13.655 28.2172 13.6471C28.2532 13.6417 28.3285 13.6318 28.3725 13.6247C28.3813 13.622 28.3902 13.6199 28.3992 13.6179C28.3981 13.6177 28.4004 13.6171 28.397 13.6171C28.3981 13.6171 28.399 13.6177 28.4001 13.6176C28.5256 13.5896 28.6679 13.6169 28.7985 13.7189C28.9984 13.875 29.0254 14.172 28.9017 14.3824C28.8245 14.5137 28.6831 14.6155 28.5374 14.6554C28.3886 14.6964 28.2657 14.6623 28.1301 14.6021C28.2882 14.6723 28.084 14.5833 28.0333 14.5605C27.7764 14.4457 27.4745 14.2765 27.1748 14.1774C27.0192 14.4119 26.821 14.6417 26.6005 14.8685C28.3116 15.3323 29.7777 16.623 29.966 18.6175C30.5949 25.2788 22.345 24.5421 18.0035 24.9487C12.3992 25.4736 2.38402 28.4833 0.205448 20.9245C-0.40185 18.8178 0.372107 16.6913 2.07295 15.388ZM21.6835 16.1972C22.6469 15.0263 24.1935 14.5609 25.6927 14.7056C25.7031 14.6844 25.7067 14.6634 25.7224 14.6421C27.4287 12.3185 26.3467 9.98451 24.0889 8.56222C22.107 7.31369 19.9769 7.42085 18.3033 8.65802C18.1062 9.05036 17.9304 9.47159 17.7186 9.87719C20.2262 10.9392 22.1071 13.1428 21.6835 16.1972ZM2.69666 23.0097C5.76108 26.477 13.3223 24.3374 17.2205 23.8537C20.5392 23.4418 24.3594 24.1143 27.3269 22.2667C32.0455 19.3291 24.8365 12.5581 21.5942 17.799C21.4143 18.0899 20.9568 17.9561 20.9431 17.6529C20.8806 17.6109 20.8373 17.5434 20.8463 17.4435C21.1736 13.8036 19.231 11.163 15.662 10.3507C11.8487 9.48279 8.78794 11.9374 8.92825 15.8233C8.94119 16.179 8.69862 16.3673 8.42874 16.3951C8.56273 16.9244 7.87432 17.3103 7.53768 16.7961C5.99008 14.4348 2.35356 15.9516 1.49122 18.0423C0.791754 19.7388 1.55593 21.7192 2.69666 23.0097Z" fill="#37BD8A"/>
<path d="M18.053 4.28621C18.4754 4.28006 18.7171 4.62411 18.9004 4.96264C19.089 5.31127 19.091 5.66605 19.1783 6.03803C19.2362 6.28455 18.862 6.4692 18.7517 6.21779C18.643 5.96986 18.4653 5.72555 18.3055 5.50665C18.1053 5.2322 17.8065 5.09347 17.6929 4.75889C17.6133 4.52405 17.8217 4.28969 18.053 4.28621Z" fill="#37BD8A"/>
</g>
<defs>
<clipPath id="clip0">
<rect width="30" height="30" fill="white" transform="matrix(-1 0 0 1 30 0.119629)"/>
</clipPath>
</defs>
</svg>
