<svg width="63" height="61" viewBox="0 0 63 61" fill="none" xmlns="http://www.w3.org/2000/svg">
<g clip-path="url(#clip0)">
<path d="M56.0575 7.69322C55.225 7.10346 54.314 6.62234 53.3558 6.23435C50.8741 5.13243 48.0624 4.4806 45.4236 4.37196C44.0099 4.30988 42.5491 4.54268 41.2454 5.11691C41.1198 3.4718 39.3134 1.95085 37.9783 1.26797C36.062 0.305737 33.6902 0.0884582 31.5697 0.119498C31.3341 0.119498 31.0827 0.135018 30.8471 0.150538C29.8261 0.103978 28.8052 0.181578 27.7685 0.321257C25.0825 0.693735 22.4437 1.54733 20.0719 2.83548C19.1922 3.3166 17.2445 4.15468 16.9147 5.31867C16.0193 4.51164 14.857 4.03052 13.7104 3.68908C13.2077 3.53388 12.7051 3.42524 12.1867 3.34764C10.9616 2.68028 9.54789 2.24573 8.16564 2.44749C6.94046 2.61821 5.60533 3.48732 4.74142 4.3254C3.87752 5.17899 3.57908 6.35851 3.43771 7.5225C3.24922 9.04345 3.13927 10.4558 3.48483 11.9612C3.48483 12.0543 3.50054 12.163 3.50054 12.2561C3.01361 14.3513 3.31205 16.6327 4.53723 18.4796C4.71001 18.7434 5.19694 18.5727 5.07128 18.2623C4.88279 17.7656 4.8985 17.238 4.83567 16.7103C4.77284 16.1671 4.56864 15.6239 4.45869 15.0962C4.44298 15.0341 4.44298 14.9876 4.42728 14.9255C4.45869 14.9876 4.49011 15.0652 4.50581 15.1273C4.67859 15.717 4.88279 16.2757 5.10269 16.8189C5.29118 17.2535 5.52679 17.7656 5.88806 18.0916C5.98231 18.1692 6.12367 18.2468 6.24933 18.3244C6.34358 18.4951 6.42212 18.6503 6.53207 18.8055C6.37499 18.8831 6.21792 18.9452 6.07655 19.0228C2.66805 19.0383 0.987354 22.4837 1.12872 25.6032C1.0816 25.805 1.05018 26.0067 1.01877 26.2085C1.00306 26.3482 0.971646 26.4878 0.955939 26.6275C0.877402 26.9845 0.814572 27.3414 0.76745 27.7139C0.374765 31.2835 2.29107 35.0083 5.3383 36.9327C6.62631 37.7398 8.63686 38.7175 10.2076 38.4537C10.5846 38.3916 10.8987 38.2054 11.26 38.0967C11.5741 38.0036 11.9511 38.5158 12.1239 38.702C12.2181 38.8107 12.3124 38.9193 12.4066 39.0279C12.4223 39.059 12.4381 39.1055 12.4695 39.1366C12.5009 39.2297 12.5323 39.3383 12.5794 39.4315C13.0821 40.3626 13.6475 41.2473 14.1187 42.194C14.5271 43.0166 15.124 43.8081 15.8466 44.3823C17.1817 45.4687 18.9252 46.0585 20.5902 46.3533C24.1401 46.9897 27.7214 45.686 30.3131 43.2649C31.6953 41.9767 32.6378 40.3316 33.4074 38.6399C33.4389 38.5779 33.4546 38.5158 33.486 38.4537C34.0514 37.8484 34.5698 37.2121 35.041 36.5292C35.4651 35.9084 35.8264 35.2256 36.1405 34.5427C36.596 35.179 37.3814 35.6601 38.1825 36.0171C39.2035 36.9948 40.2559 37.7863 41.7324 38.0502C43.4759 38.3606 45.3137 37.9105 46.9315 37.2431C50.2458 35.8929 52.8218 33.27 53.8428 29.8557C54.3768 28.0554 54.2983 26.1774 53.6857 24.4082C53.6543 24.2995 53.6072 24.2064 53.5757 24.0978C55.1308 24.3771 56.8743 24.2375 58.3037 23.6011C59.5446 23.0579 60.22 22.0491 60.5184 20.8696C60.597 20.8075 60.6598 20.7299 60.7226 20.6524C65.1364 16.074 60.3142 10.4713 56.0575 7.69322ZM50.0259 5.89291C50.0573 5.90843 50.0887 5.90843 50.1201 5.92395C52.7118 6.65338 55.0837 7.77082 57.157 9.38489C58.0838 10.3782 58.7121 11.5577 58.9791 12.9079C57.7225 10.8127 55.8376 9.05897 53.5757 8.12778C51.8008 7.39834 49.7903 7.35178 47.8897 7.5225C46.9943 7.6001 46.1147 7.7553 45.2351 7.94154C44.0414 8.18986 42.989 8.65545 41.7638 8.34506C41.5439 8.28298 41.324 8.2209 41.1198 8.17434C41.4496 7.92602 41.8109 7.73978 42.1722 7.53802C42.8319 7.16554 43.4759 6.80858 44.167 6.52922C45.4079 6.03259 46.7587 5.79979 48.1096 5.76875C48.7379 5.75323 49.3819 5.79979 50.0259 5.89291ZM39.1878 5.00827C38.1668 3.36316 36.1091 2.75788 34.3028 2.36989C31.9938 1.87325 29.5591 1.84221 27.2187 2.12157C26.4962 2.21469 25.7893 2.36989 25.0982 2.57165C26.8575 1.57837 28.7738 0.879974 30.8157 0.678215C32.6692 0.771335 34.4598 1.25245 36.1091 2.16813C37.0673 2.6958 37.8526 3.3942 38.6223 4.13916C39.1721 4.66683 39.7689 5.24107 40.4915 5.53595C40.1459 5.79979 39.8632 6.11019 39.549 6.45162C39.4705 6.54474 38.8579 5.90843 38.5595 5.59803C38.6223 5.61355 38.6851 5.62907 38.7637 5.59803C38.8265 5.58251 38.8893 5.56699 38.9522 5.55147C39.1878 5.50491 39.3134 5.21003 39.1878 5.00827ZM38.3239 5.39627C38.0097 5.11691 37.6484 4.89963 37.2872 4.68235C35.795 3.84428 34.0829 3.19244 32.3393 2.80444C32.8577 2.86652 33.3603 2.94412 33.8629 3.03724C35.4023 3.33212 37.3186 3.81324 38.3239 5.10139C38.2924 5.17899 38.2924 5.28763 38.3239 5.39627ZM36.8002 1.34557C37.7427 1.65597 38.6223 2.15261 39.3134 2.851C39.8632 3.40972 40.5543 4.20124 40.68 5.03931C39.7532 4.66683 39.015 3.75116 38.3239 3.0838C37.4599 2.26125 36.4233 1.64045 35.3394 1.15933C35.0096 1.01965 34.6954 0.879974 34.3656 0.771335C35.1981 0.911014 36.0306 1.09725 36.8002 1.34557ZM18.8624 4.015C19.5849 3.56492 20.3703 3.17692 21.14 2.80444C23.1505 1.84221 25.3652 1.20589 27.58 0.879974C26.5276 1.25245 25.5223 1.73357 24.5799 2.29229C23.7788 2.75788 22.9934 3.25452 22.318 3.84428C21.9882 4.04604 21.6583 4.27884 21.3441 4.51163C20.3546 5.25659 18.988 6.20331 18.5639 7.46042C18.2812 6.76202 17.6843 6.07915 17.2445 5.61355C17.2288 5.59803 17.2288 5.59803 17.2131 5.58251C17.3388 4.88411 18.3126 4.34092 18.8624 4.015ZM17.1032 6.24987C17.4487 6.62234 17.7943 7.08794 17.9985 7.53802C17.9514 7.50698 17.9042 7.47594 17.8571 7.4449C17.7314 7.24314 17.6058 7.02586 17.4958 6.83962C17.3702 6.63786 17.1974 6.45163 17.0246 6.28091C17.056 6.28091 17.0874 6.26539 17.1032 6.24987ZM16.3492 6.34299C16.522 6.48266 16.6633 6.62234 16.789 6.77754C16.522 6.62234 16.255 6.48266 15.9722 6.34299C15.878 6.23435 15.7994 6.14123 15.7366 6.07915C15.501 5.84635 15.2497 5.61355 14.9984 5.39627C15.4853 5.69115 15.9408 6.00155 16.3492 6.34299ZM11.6213 3.81324C11.6684 3.82876 11.7155 3.8598 11.7469 3.87532C10.616 3.79772 9.46935 4.03052 8.38554 4.34092C9.37511 3.82876 10.4903 3.7046 11.6213 3.81324ZM9.87774 3.33212C8.82535 3.50284 7.85149 3.9374 7.06612 4.75995C6.72056 4.88411 6.37499 5.02379 6.04514 5.16347C5.82523 5.25659 5.62104 5.36523 5.43255 5.47387C5.43255 5.47387 5.43255 5.45835 5.44826 5.45835C6.51636 3.92188 8.0871 3.19244 9.87774 3.33212ZM5.5425 4.52715C5.7467 4.34092 5.98231 4.15468 6.21792 3.99948C5.95089 4.21676 5.68387 4.46508 5.44826 4.72891C5.08699 5.13243 4.78855 5.58251 4.52152 6.03259C4.72572 5.48939 5.03986 4.97723 5.5425 4.52715ZM4.0503 10.4558C4.01888 10.1143 4.01888 9.75737 4.01888 9.41593C4.14454 8.2985 4.44298 7.24314 4.97703 6.23435C5.08699 6.14123 5.21265 6.03259 5.35401 5.92395C5.7624 5.62907 6.24933 5.44283 6.72056 5.27211C6.73626 5.41179 6.90905 5.52043 7.0347 5.38075C7.14466 5.25659 7.25461 5.14795 7.36456 5.03931C7.41168 5.02379 7.4588 5.00827 7.50593 4.99275C9.04525 4.44956 10.7259 4.0926 12.3595 4.37196C12.4852 4.38748 12.6108 4.41852 12.7365 4.44956C13.0506 4.65131 13.3491 4.88411 13.6318 5.10139C13.8831 5.28763 14.1187 5.48939 14.3386 5.69115C14.1345 5.62907 13.9303 5.56699 13.7104 5.50491C13.2705 5.38075 12.8622 5.30315 12.5323 5.24107C11.904 5.13243 11.2757 5.11691 10.6788 5.16347C8.54262 5.25659 6.45353 6.06363 5.14982 7.80186C4.58435 8.59337 4.22308 9.50905 4.0503 10.4558ZM5.10269 19.566C4.92991 19.6901 4.75713 19.8143 4.58435 19.9695C4.50581 20.0316 4.44298 20.0936 4.38015 20.1712C3.8461 20.5748 3.35917 21.0714 2.95078 21.5991C2.49526 22.1578 2.13399 22.7941 1.83555 23.4459C2.24395 21.6301 3.34346 20.0626 5.10269 19.566ZM12.1082 37.6156C11.527 37.1655 10.993 37.3828 10.3804 37.6467C9.5636 37.9726 8.38554 37.4915 7.63159 37.2121C6.67343 36.8551 5.73099 36.343 4.94562 35.7067C4.77284 35.567 4.61576 35.4273 4.45869 35.2876C5.88806 36.2809 7.8672 36.6844 9.54789 36.9017C10.0348 36.9638 10.5375 37.0103 11.0401 37.0414C11.4956 37.0724 12.0297 36.9017 12.2339 37.4139C12.281 37.538 12.3124 37.6622 12.3438 37.8019C12.2496 37.7398 12.171 37.6777 12.1082 37.6156ZM14.1659 39.9126C14.6057 40.2385 15.0769 40.5334 15.5638 40.7817C16.6319 41.3094 17.7943 41.5887 18.9566 41.7594C21.1557 42.0854 23.4489 41.8991 25.6323 41.5732C26.1035 41.5111 26.5747 41.418 27.0616 41.3094C26.8417 41.4335 26.5904 41.5266 26.3548 41.6353C24.7527 42.2406 22.962 42.5044 21.2499 42.613C20.009 42.6906 18.6896 42.6441 17.4487 42.3337C17.3388 42.2871 17.2288 42.225 17.1189 42.1785C16.0665 41.6042 15.0298 40.8127 14.1659 39.9126ZM28.491 40.9214C29.245 40.673 29.9675 40.3626 30.6272 39.9746C28.2083 41.7129 25.271 42.8303 22.3023 43.0786C21.7682 43.1252 21.2185 43.1407 20.6844 43.1097C20.7001 43.1097 20.7159 43.1097 20.7316 43.1097C22.6479 43.0786 24.6584 42.7217 26.4648 42.0854C27.2501 41.8215 27.9256 41.418 28.491 40.9214ZM29.9047 42.5354C27.1873 45.2359 23.2919 46.2602 19.5849 45.2514C17.6215 44.7237 16.0193 43.7305 14.9984 41.9612C14.9355 41.8681 14.8884 41.7594 14.8256 41.6663C14.9198 41.7439 15.0298 41.8215 15.124 41.8836C15.391 42.0698 15.6895 42.2406 15.9879 42.3802C16.4434 42.6751 16.9304 42.939 17.433 43.1562C18.9723 43.8236 20.653 43.9633 22.3023 43.8391C25.6637 43.6063 28.9779 42.225 31.6011 40.1609C31.6796 40.0988 31.7425 40.0522 31.821 39.9902C31.2869 40.9058 30.6743 41.7594 29.9047 42.5354ZM47.6855 36.0791C45.9734 36.9793 43.9157 37.5691 41.968 37.3052C41.4496 37.2276 40.9941 37.0724 40.57 36.8551C43.0989 37.5225 45.8006 37.2587 48.0467 35.8464C50.4186 34.3564 51.8008 31.9043 52.0207 29.1573C52.1307 27.807 51.8793 26.4413 51.3924 25.1842C51.1254 24.5168 50.7641 23.896 50.34 23.3063C50.1358 23.0269 49.9159 22.7475 49.696 22.4837C49.5704 22.3285 49.2405 22.0026 49.0363 21.6922C49.5704 21.8939 50.1044 22.5923 50.4971 22.8717C51.1725 23.3528 51.9422 23.6943 52.7433 23.9271C53.1831 24.8582 53.4344 25.867 53.5129 26.8758C53.8114 30.7713 51.0469 34.3254 47.6855 36.0791ZM57.6754 23.0269C56.2931 23.5546 54.6596 23.5391 53.1988 23.1821C53.0103 22.8096 52.7904 22.4371 52.5548 22.1112C52.3977 21.8939 52.2092 21.7077 52.0993 21.4749C52.1307 21.4904 52.1621 21.5059 52.1935 21.5215C52.3663 21.5991 52.5234 21.7077 52.6804 21.8008C53.1359 22.0802 53.56 22.3906 54.0313 22.6699C54.6753 23.0424 55.5863 23.0579 56.2931 23.0114C57.3141 22.9338 58.288 22.5613 59.1519 22.0181C58.7906 22.4216 58.3037 22.7786 57.6754 23.0269ZM59.8744 20.4351C59.0733 21.18 58.0838 21.7387 57.0471 22.0336C56.2774 22.2509 55.1622 22.344 54.4397 21.9405C53.9213 21.6611 53.4658 21.3042 52.9632 21.0093C52.6176 20.8076 52.2249 20.5748 51.8165 20.6524C51.2196 20.761 51.251 21.4128 51.4395 21.8163C51.5495 22.0491 51.7537 22.2664 51.9265 22.4682C52.0207 22.5923 52.115 22.7165 52.2092 22.8562C51.3767 22.5303 50.7327 21.9871 50.0573 21.4128C49.6018 21.0248 49.0677 20.7455 48.4551 20.9162C48.2981 20.9627 48.1881 21.1024 48.1881 21.2576C48.2038 21.6767 48.4237 21.925 48.7222 22.2043C49.2719 22.701 49.7117 23.3683 50.1201 23.9736C50.8584 25.0755 51.2511 26.3637 51.3924 27.6674C51.6752 30.2592 50.717 32.7268 48.785 34.4961C46.7744 36.343 44.0414 36.9017 41.3868 36.3895C40.8685 36.2964 40.036 36.0947 39.1878 35.7998C38.7165 35.3808 38.2767 34.9152 37.8055 34.4651C37.5071 34.1857 36.8159 33.4408 36.329 33.4097C36.3133 33.27 36.3133 33.1148 36.3447 32.9596C36.4076 32.6648 35.952 32.5251 35.8735 32.8355C35.8107 33.1148 35.795 33.3787 35.8421 33.627C35.5594 33.9064 35.4494 34.403 35.2923 34.7444C35.0724 35.21 34.8054 35.6601 34.507 36.0791C34.5541 35.9705 34.6012 35.8464 34.6326 35.7377C34.8996 35.0083 34.9468 34.015 35.4965 33.4408C35.8264 33.0993 35.3237 32.6027 34.9782 32.9286C34.4912 33.3942 34.3028 34.0616 34.1457 34.6824C33.9886 35.2876 33.753 35.8774 33.5174 36.4671C32.9362 37.4294 32.1823 38.283 31.2555 38.9659C30.6743 39.3849 30.0461 39.7263 29.402 40.0057C29.5905 39.7729 29.7633 39.5246 29.9361 39.2763C30.0775 39.059 29.7319 38.8727 29.5905 39.0745C29.2293 39.5556 28.8523 39.9902 28.4282 40.3626C27.3758 40.7041 26.2606 40.9058 25.1768 41.0455C23.1191 41.3094 20.9986 41.4335 18.9409 41.1386C17.81 40.9834 16.7105 40.6575 15.6895 40.1609C14.8256 39.7419 14.0873 39.1211 13.302 38.5623C13.2077 38.0502 13.2077 37.507 13.0192 37.0103C12.7993 36.4516 12.2967 36.1257 11.6841 36.1567C10.616 36.2033 9.54789 36.0481 8.49549 35.8464C6.46924 35.4428 4.64718 34.7134 3.35917 33.0528C2.27536 31.6405 1.78843 29.8867 1.75702 28.133C2.63663 30.1661 4.39586 31.8577 6.32787 32.8976C8.36983 33.9995 11.1972 34.5892 13.3962 33.658C13.6475 33.5494 13.459 33.1459 13.2077 33.239C11.0715 33.9374 8.57403 33.3632 6.62631 32.3854C4.61576 31.3766 2.95078 29.5918 2.11829 27.5277C2.00834 27.2328 1.91409 26.9379 1.83555 26.6275C1.85126 26.4878 1.86697 26.3482 1.89838 26.224C2.05546 25.6653 2.27536 25.1066 2.51097 24.5634C2.91936 23.6632 3.46912 22.8407 3.94035 21.9715C4.066 21.7387 4.22308 21.5059 4.38015 21.2887C4.74142 20.9627 5.13411 20.6834 5.5425 20.4351C5.95089 20.1868 6.42212 20.016 6.89334 19.9695C7.2389 19.9384 7.55305 19.985 7.89861 19.8919C8.11852 19.8298 8.2913 19.5815 8.21276 19.3487C8.07139 18.9917 7.83578 18.7744 7.52163 18.5727V18.5572C7.52163 18.5106 7.49022 18.464 7.47451 18.4175C7.82008 18.5882 8.16564 18.7434 8.55832 18.852C8.79393 18.9141 9.01384 18.6968 8.95101 18.464C8.87247 18.1692 8.66827 18.076 8.36983 18.076C8.33842 18.076 8.2913 18.076 8.25988 18.0916C7.41168 17.7656 6.68914 17.2224 6.12367 16.5396C5.63675 15.7325 5.25977 14.8479 4.92991 13.9477C4.71001 12.9545 4.6943 11.9457 4.94562 10.9524C5.1184 10.254 5.41684 9.60217 5.80953 8.98137C6.21792 8.54681 6.67343 8.15882 7.19178 7.80186C9.04525 6.5137 11.3857 5.76875 13.6475 6.15675C13.6946 6.15675 13.7261 6.17227 13.7732 6.18779C14.4015 6.37403 15.1868 6.6689 15.7523 7.08794C15.8466 7.18106 15.9251 7.27418 16.0193 7.38282C16.1136 7.49146 16.2235 7.61562 16.3335 7.73978C16.3963 7.86394 16.4434 7.9881 16.4434 8.12778C16.4749 8.43817 16.8675 8.48473 16.9932 8.28298C17.2445 8.43817 17.5273 8.51577 17.81 8.46921C18.2498 8.74857 18.7053 8.98137 19.2079 9.13657C19.4593 9.21417 19.6792 8.85721 19.475 8.68649C19.3807 8.60889 19.2865 8.53129 19.1922 8.45369C19.6478 7.97258 19.9776 7.39834 20.4017 6.88618C20.496 6.93274 20.6216 6.91722 20.6844 6.80858C20.763 6.63786 20.8415 6.46715 20.9358 6.31195C21.7054 5.56699 22.5379 4.89963 23.4804 4.37196C25.2396 3.37868 27.2973 3.0838 29.3078 3.17692C31.3184 3.27004 33.3289 3.79772 35.1981 4.52715C36.2348 4.93067 37.2558 5.44283 38.0882 6.17227C38.5281 6.57578 39.0935 7.53802 39.8318 7.19658C40.0831 7.08794 40.2244 6.88618 40.3972 6.6689C40.6486 6.34299 41.0098 6.12571 41.3711 5.92395C42.2193 5.47387 43.2403 5.27211 44.1827 5.17899C45.1723 5.08587 46.1933 5.14795 47.1828 5.28763C46.099 5.38075 45.0466 5.62907 44.0414 6.01707C43.3502 6.28091 42.6905 6.62234 42.0622 6.99482C41.4496 7.35178 40.7899 7.66218 40.2873 8.17434C40.1459 8.31402 40.193 8.63993 40.4129 8.67097C41.2768 8.79513 42.0465 9.16761 42.9418 9.13657C43.8529 9.10553 44.7639 8.73305 45.6435 8.56233C47.5127 8.18986 49.4604 8.00362 51.361 8.28298C54.9894 8.81065 57.7696 11.6198 59.1362 14.8634C59.1048 15.8722 58.9163 16.8655 58.6335 17.8277C58.3665 18.7589 58.0995 20.1868 56.8586 20.1557C56.5759 20.1402 56.4973 20.6058 56.7958 20.6524C57.8796 20.8541 58.4608 20.2488 58.8534 19.3176C59.2461 18.3709 59.4974 17.3311 59.6388 16.3068C60.0001 17.5949 60.1886 19.1314 59.8744 20.4351ZM60.754 19.4263C60.8012 18.1847 60.5655 16.881 60.2671 15.8257C60.1257 15.3601 59.9687 14.91 59.7802 14.4599C59.7802 13.3425 59.5917 12.2095 59.1362 11.1852C60.9739 13.1873 62.4818 15.9653 61.2253 18.6192C61.0839 18.9141 60.9268 19.178 60.754 19.4263Z" fill="#37BD8A"/>
<path d="M47.4811 48.9762C47.5753 47.8432 47.0727 46.7879 46.3816 45.9188C45.7533 45.1273 44.748 44.4289 43.7584 44.1805C43.3186 44.0719 42.8788 44.1495 42.4861 44.3513C42.2976 44.4444 42.1092 44.5841 41.9207 44.6772C41.5751 44.8634 41.1196 44.7703 40.7426 44.7393C39.9258 44.6617 39.2818 44.8789 38.8106 45.298C38.4807 45.4221 38.1823 45.6084 37.9467 45.8412C36.0932 47.7036 37.3498 50.3109 39.486 51.1645C39.596 51.956 39.219 52.732 39.3918 53.5391C39.5174 54.1599 39.9887 54.7341 40.4285 55.1531C41.3238 56.0222 42.7374 56.5654 43.994 56.3947C45.4077 56.2085 46.5386 55.1066 47.1355 53.865C47.7638 52.5458 47.1669 51.4439 46.5386 50.3109C47.1198 50.1868 47.4182 49.628 47.4811 48.9762ZM42.5018 45.0186C43.3657 44.5065 44.0883 44.8169 44.8737 45.329C45.5491 45.7946 46.0988 46.3999 46.4758 47.1293C46.5386 47.238 46.6172 47.4863 46.6957 47.7812C46.5543 47.5328 46.3501 47.3 46.146 47.0983C45.3763 46.3999 44.371 45.9653 43.4129 45.5929C43.0202 45.4377 42.6118 45.298 42.1877 45.1893C42.2819 45.1273 42.3919 45.0807 42.5018 45.0186ZM45.0464 50.0005C45.1407 50.8386 45.8475 51.4283 45.926 52.2975C46.0203 53.3839 45.5648 54.4702 44.5595 54.9669C42.3448 56.0688 39.1248 52.8562 41.5751 51.1645C41.8421 50.9783 41.6851 50.4971 41.3395 50.6213C40.8369 50.8075 40.3971 50.8075 40.0201 50.6989C40.0044 50.6834 39.9887 50.6679 39.9572 50.6524C39.7688 50.5437 39.596 50.4661 39.4075 50.3885C38.1823 49.4263 37.9624 46.9276 39.1248 45.8412C39.4546 45.7325 39.8316 45.686 40.2243 45.686C41.0882 45.686 42.2505 45.9343 42.816 46.6482C42.9731 46.85 43.35 46.7413 43.2715 46.462C43.2558 46.3999 43.2401 46.3378 43.2244 46.2757C43.193 46.1516 43.083 46.105 42.9888 46.105C42.9259 46.0429 42.8631 45.9964 42.8003 45.9343C43.5856 46.2137 44.3396 46.5551 45.0464 46.9741C45.5805 47.3 46.3344 47.8122 46.3344 48.5106C46.3501 49.3487 44.9522 49.1004 45.0464 50.0005ZM37.931 46.9276C37.7739 47.6725 37.8053 48.4951 38.0252 49.24C37.6168 48.5416 37.5854 47.688 37.931 46.9276ZM44.0255 55.7274C43.0045 55.9291 41.8578 55.448 41.0725 54.8117C40.6484 54.4702 40.3185 54.0357 40.1143 53.5235C39.863 52.9027 40.1143 52.2043 40.1929 51.5835C40.1929 51.5215 40.2086 51.4439 40.2086 51.3507C40.3028 51.3663 40.4128 51.3663 40.507 51.3663C39.3289 53.0269 40.8683 55.2152 42.9259 55.6653C43.3186 55.7429 43.7113 55.7584 44.0883 55.6963C44.0726 55.7274 44.0569 55.7274 44.0255 55.7274ZM46.1302 49.7212C45.8475 49.6591 45.6433 49.9384 45.769 50.1868C46.3187 51.2421 47.0413 52.1888 46.6172 53.4304C46.4758 53.8495 46.2088 54.2685 45.8946 54.6255C46.5072 53.7563 46.79 52.344 46.3187 51.3663C46.1931 51.1024 45.2977 49.954 45.7847 49.7677C46.2245 49.597 46.5386 49.4573 46.7742 49.0228C46.8057 48.9452 46.8371 48.8676 46.8685 48.79C46.8842 49.3797 46.7271 49.8608 46.1302 49.7212Z" fill="#37BD8A"/>
<path d="M62.2618 52.0647C61.7905 51.4594 61.1151 51.0404 60.4868 50.6058C59.7486 50.0782 59.0732 49.4574 58.2092 49.147C57.4239 48.8676 56.4971 48.8366 55.6961 49.1004C55.5076 49.1004 55.3191 49.1159 55.1463 49.147C53.4499 49.4574 52.6802 51.2111 52.4446 52.7321C52.3504 53.2753 52.319 53.9426 52.4289 54.5634C52.3975 55.0445 52.4132 55.5412 52.476 56.0223C52.5389 56.4103 52.6802 56.7672 52.8844 57.0776C53.23 57.7295 53.9368 58.2727 54.6122 58.552C55.7275 59.0021 57.5181 58.7848 58.5234 57.9312C58.8218 57.9623 59.1517 57.9312 59.4658 57.8536C59.7172 57.8692 59.9842 57.8692 60.2355 57.8381C60.3926 57.8847 60.5497 57.9312 60.7224 57.9157C61.3821 57.9157 61.8062 57.5277 62.1675 57.0156C62.1832 57 62.1989 56.969 62.2146 56.9535C62.3874 56.7672 62.5131 56.5344 62.623 56.2706C63.1571 54.9204 63.1728 53.2287 62.2618 52.0647ZM58.5705 49.9385C59.2774 50.3265 59.8899 50.8852 60.5497 51.3508C61.2722 51.8629 61.9633 52.3906 62.2303 53.2597C62.2775 53.4149 62.3246 53.6012 62.356 53.7874C62.3089 53.6477 62.2461 53.5236 62.1989 53.3839C62.1204 53.1977 61.822 53.3373 61.8848 53.5236C62.1518 54.2996 62.3089 55.1221 62.1675 55.9292C61.9476 56.4568 61.5863 56.9069 61.0523 57.1087C61.1308 57.0466 61.2094 56.969 61.2879 56.9069C62.5288 55.6498 61.9319 53.5391 60.8324 52.4061C60.3298 51.8785 59.2774 51.3663 58.492 51.4749C58.4763 51.2266 58.4606 50.9938 58.4449 50.8852C58.3506 50.2954 57.9422 49.8609 57.4239 49.566C57.8009 49.597 58.2092 49.7367 58.5705 49.9385ZM53.5756 57.0156C53.5441 56.9845 53.5284 56.9535 53.497 56.9224C53.3085 56.7052 53.4028 56.5034 53.7955 56.3327C54.1724 56.3948 54.3295 55.8826 53.9525 55.7584C53.3242 55.5567 53.0729 54.9825 52.9944 54.3772C53.0415 53.834 53.1829 53.2908 53.4499 52.7941C53.4499 53.4615 53.5756 54.1289 53.7955 54.7807C54.0154 55.4481 54.4709 56.7983 55.2563 57.2328C55.1934 57.2794 55.1306 57.326 55.0521 57.357C54.5337 57.6519 53.9682 57.3725 53.5756 57.0156ZM56.9684 56.2861C56.9998 56.4103 57.0312 56.5344 57.0626 56.6431C56.9684 56.612 56.8898 56.5965 56.8113 56.5965C56.8584 56.4879 56.9055 56.3792 56.9684 56.2861ZM57.5809 56.2551C57.5652 56.193 57.5181 55.9912 57.4867 55.774C57.6124 55.6964 57.738 55.6343 57.848 55.5412C58.0522 55.3394 58.0365 55.0756 58.0051 54.8273C57.9893 54.7341 57.8794 54.6255 57.7851 54.61C57.1254 54.4703 56.9055 54.8893 56.8898 55.4325C56.8584 55.448 56.827 55.4636 56.8113 55.4946C56.6385 55.6498 56.5286 55.8205 56.4186 56.0223C56.2615 56.3172 56.1045 56.8759 55.6489 56.6741C55.3191 56.5344 55.0992 56.1154 54.9264 55.8205C54.0782 54.3306 53.7326 52.5458 54.4552 50.9473C54.7536 50.2799 55.272 49.8609 55.8845 49.6436C56.5286 49.6902 57.1568 49.9695 57.5809 50.373C57.848 50.6214 57.8794 50.9162 57.9108 51.2577C57.9265 51.3974 57.9265 51.5215 57.9422 51.6612C57.7694 51.8009 57.6438 52.0026 57.5495 52.2665C57.5181 52.3596 57.5495 52.4837 57.6281 52.5458C58.225 53.0269 58.4292 52.5613 58.4763 51.9871C59.0417 51.7853 60.0627 52.4217 60.424 52.7476C61.2408 53.4925 61.5706 54.7341 61.2408 55.774C61.0523 56.3948 60.4554 56.9069 59.7957 57.1397C59.5601 56.9845 59.3402 56.8138 59.1203 56.6586C59.0103 56.581 58.8533 56.6431 58.7747 56.7517C58.6962 56.8604 58.6176 56.969 58.5391 57.0621C58.3349 57.0156 58.1464 56.9535 57.9579 56.8914C57.7537 56.7517 57.6438 56.5189 57.5809 56.2551ZM54.1724 50.2023C54.2196 50.1558 54.2667 50.1247 54.3138 50.0782C53.9054 50.6214 53.6698 51.2111 53.5441 51.8319C53.5284 51.8474 53.5284 51.8474 53.5127 51.8629C53.3399 52.0492 53.1829 52.2665 53.0572 52.4837C53.2143 51.6457 53.5756 50.8076 54.1724 50.2023ZM53.1043 55.9292C53.0729 55.9447 53.0572 55.9602 53.0415 55.9757C53.0258 55.9292 53.0258 55.8826 53.0101 55.8205C53.0415 55.8671 53.0729 55.8981 53.1043 55.9292ZM55.9631 58.133C55.6018 58.1485 55.2405 58.102 54.895 57.9778C55.0521 57.9468 55.1934 57.9002 55.3505 57.8226C55.7432 57.6364 56.0259 57.3104 56.45 57.1397C56.7485 57.0156 57.1726 57.2328 57.4867 57.388C57.5809 57.4967 57.6909 57.5898 57.8166 57.6519C57.2511 57.9778 56.6071 58.102 55.9631 58.133Z" fill="#37BD8A"/>
<path d="M57.7852 53.9893C58.5548 53.7565 58.9789 53.1512 59.0732 52.3907C59.1674 51.5837 58.4606 50.9318 57.7852 50.6214C55.916 49.7523 54.2353 51.3974 53.607 53.0115C52.8688 54.9049 52.2719 58.102 54.0468 59.6075C54.6594 60.1351 55.7118 60.3214 56.3715 59.7782C56.9841 59.266 57.2197 58.4435 56.7956 57.7606C56.5914 57.8848 56.3872 57.9934 56.1987 58.1176C56.9213 59.0643 57.8794 59.8868 59.1203 60.042C60.2983 60.1817 61.3979 59.7316 62.089 58.7694C62.8743 57.6675 62.3089 56.1155 61.8062 55.0291C61.2408 53.803 60.2669 52.7942 59.1517 52.0337C59.0732 52.2045 59.0103 52.3752 58.9318 52.5459C60.6596 53.1357 61.335 55.2153 60.5811 56.7828C60.4554 57.0622 60.8167 57.264 60.9895 57.0156C62.2461 55.2309 61.0837 52.639 59.0732 52.0027C58.7433 51.8941 58.6019 52.3441 58.8533 52.5149C60.4554 53.6168 62.1361 55.8827 61.712 57.9313C61.4921 58.9556 60.2669 59.4212 59.3402 59.3747C58.3035 59.3281 57.3768 58.5521 56.7956 57.7606C56.5443 57.4036 55.9631 57.714 56.1987 58.1176C56.6699 58.9091 55.7275 59.4678 55.0207 59.2971C54.2667 59.1108 53.9369 58.3038 53.7798 57.6364C53.4656 56.2862 53.7327 54.7032 54.1725 53.3995C54.5494 52.2821 55.3976 51.0715 56.6856 51.0094C58.2564 50.9318 59.136 52.7787 57.6438 53.6478C57.471 53.7565 57.581 54.0513 57.7852 53.9893Z" fill="#37BD8A"/>
</g>
<defs>
<clipPath id="clip0">
<rect width="62.2641" height="60" fill="white" transform="translate(0.73584 0.119629)"/>
</clipPath>
</defs>
</svg>
