<svg width="136" height="74" viewBox="0 0 136 74" fill="none" xmlns="http://www.w3.org/2000/svg">
<path d="M133.967 5.43988C130.073 -0.267065 124.307 -0.682436 119.314 5.13004C118.456 6.16482 117.484 6.79031 116.498 7.6843C93.8434 16.9429 72.2857 28.5426 50.4727 39.8608C45.7412 40.3032 41.7368 42.3959 38.2301 45.3202C36.9761 46.2011 35.7221 47.0821 34.3404 47.8222C30.5421 48.4446 26.0038 47.6854 24.809 52.8754C23.735 52.8231 22.5202 52.8985 21.5739 52.987C15.0676 51.1899 11.3286 56.1214 6.86262 59.4027C-1.10394 59.9568 0.104781 65.533 2.18438 69.8059C5.11875 75.8698 9.58475 72.5885 13.3337 70.2143C17.6821 69.3495 21.3033 66.8344 24.4007 64.0247C34.3021 59.6624 44.3443 55.1724 54.118 50.6693C58.4894 52.0933 60.6405 49.372 62.8046 46.3823C67.7553 44.2012 72.5652 42.1477 77.5159 39.9666C81.1241 37.72 84.7454 35.205 88.3536 32.9585C99.3129 31.7427 108.36 25.5894 117.495 20.3823C121.024 19.7468 124.439 18.702 127.128 16.0069C130.379 12.801 138.614 12.2601 133.967 5.43988ZM96.2538 22.7122C96.5254 19.8995 97.524 18.737 99.0334 18.1376C97.524 18.737 96.5254 19.8995 96.2538 22.7122C94.4236 24.3725 92.5933 26.0328 90.6223 27.8207C92.4525 26.1605 94.2828 24.5002 96.2538 22.7122Z" fill="#EFBA34"/>
</svg>
