<svg width="106" height="104" viewBox="0 0 106 104" fill="none" xmlns="http://www.w3.org/2000/svg">
<g clip-path="url(#clip0)">
<path d="M5.25035 17.7534C2.14686 40.3545 15.6492 62.7609 32.6954 76.4756C41.1005 83.245 51.9127 87.9544 62.6542 84.6275C67.2992 83.1802 71.5628 80.2556 73.9975 75.9679C75.4842 73.3595 76.4636 69.8224 74.5915 67.1423C71.7164 63.0264 67.0005 66.0727 66.6425 70.2565C65.9856 77.9799 77.1558 80.5702 82.7212 81.0477C89.2974 81.6363 95.8265 80.5379 102.175 78.9376C103.992 78.5026 104.432 81.4004 102.615 81.8354C94.9965 83.6817 87.0201 84.8942 79.2128 83.4339C73.5608 82.3872 66.8548 79.9125 64.5461 74.0163C62.847 69.7217 64.8687 63.7497 69.5374 62.4576C74.4539 61.075 78.3752 65.8789 78.4381 70.4223C78.7054 83.1934 63.012 89.3907 52.5695 88.4899C38.0483 87.256 25.8438 75.4524 17.4506 64.2871C7.47619 50.9797 1.19116 34.4116 3.91701 17.5854C4.05468 16.7704 5.32902 16.8943 5.25035 17.7534Z" fill="#37BD8A"/>
<path d="M90.6427 72.5905C90.1038 75.5842 99.6378 77.0467 101.215 77.4423C102.572 77.7654 104.141 78.1092 104.342 79.7728C104.515 81.5995 102.226 83.0592 101.176 84.0659C98.5246 86.5865 95.8815 89.1589 93.1047 91.5398C91.7634 92.6966 90.1902 90.6064 91.4213 89.4133C93.5059 87.2965 95.7675 85.3115 97.9189 83.2904C98.3752 82.8504 101.207 80.8317 100.944 80.1306C100.869 79.9831 98.4657 79.6602 98.3044 79.6318C95.2523 78.8251 89.7302 76.9116 88.684 73.4706C88.562 73.0127 88.6093 72.6349 88.979 72.314C89.1166 72.1872 89.2543 72.0604 89.392 71.9336C89.8915 71.4341 90.7528 71.9385 90.6427 72.5905Z" fill="#37BD8A"/>
<path d="M2.35948 16.9777C2.16284 15.684 3.69678 14.7626 4.71546 15.6136C4.89245 15.7456 5.08517 15.981 5.02224 16.2552C4.77837 17.4041 4.07826 18.3046 2.92584 18.6386C2.62692 18.737 2.21 18.7474 2.00155 18.4085C0.774423 16.5304 2.72922 14.592 4.39689 13.8621C5.23466 13.523 6.25728 13.3675 6.98884 14.0504C7.8384 14.8213 7.65352 16.0141 7.11467 16.9431C6.10777 18.5785 3.59446 20.284 1.86389 18.5353C0.149047 16.8901 2.02519 14.4344 3.76758 13.8518C5.61224 13.2538 7.64961 14.2676 7.85411 16.3012C8.02715 18.1279 6.58367 19.9885 4.66822 19.4326C2.59152 18.8483 1.87571 16.2041 3.59452 14.7782C4.29069 14.1959 5.35658 13.9809 6.18647 14.2783C7.23662 14.648 7.76759 15.732 7.18547 16.7205C6.80395 17.3079 6.20217 17.8229 5.76165 18.3664C5.35653 18.7985 4.90028 19.2385 4.29457 19.3835C3.33095 19.5829 2.46172 19.0268 2.06448 18.1343C1.65938 17.19 1.80885 16.1084 2.48143 15.3709C3.3782 14.3875 4.75874 14.1777 6.00162 14.0946C6.46966 14.0764 7.08717 14.3531 7.06356 14.8861C7.19727 17.1423 5.52959 19.2487 3.23262 19.2802C2.76457 19.2984 2.14707 19.0217 2.11168 18.4447C2.0527 16.3361 4.29855 14.9358 6.14712 16.0843C7.2366 16.7128 6.06844 18.3197 5.02223 17.6317C4.68398 17.4714 4.0586 17.8311 4.06253 18.2011C3.70855 17.9373 3.3467 17.6217 2.94159 17.3656C4.1412 17.3421 5.26609 16.4829 5.17171 15.1737C5.52569 15.4375 5.87967 15.7014 6.29265 16.0092C5.62008 16.0585 3.57877 16.0511 3.74395 17.1378C3.80688 17.5518 3.85014 17.4922 4.1412 17.3421C4.61318 17.0057 5.13237 16.2914 5.48636 15.867C5.56502 15.6963 5.62402 15.7402 5.50995 16.0223C5.40769 16.0378 5.29756 16.0016 5.1953 16.0172C4.95538 16.1595 4.74299 16.1389 4.56992 16.3769C4.26707 16.7936 4.44799 17.2955 4.90423 17.5438C5.71446 18.0559 6.19431 17.083 6.03306 16.3663C5.88361 15.3831 4.82166 15.2799 4.03502 15.6112C3.59844 15.8364 3.18545 16.2168 3.04386 16.6619C2.89045 17.3734 3.38996 17.5622 3.93668 17.3732C4.44012 17.2437 4.9829 16.6848 5.34476 16.3121C5.65548 15.9472 6.1668 15.1813 5.35657 15.3574C4.60533 15.5774 2.78033 16.649 3.3467 17.6217C3.05958 17.4536 2.77246 17.2855 2.49321 17.1691C3.14218 16.9646 3.4883 16.4884 3.65744 15.8804C3.75576 16.1831 3.79509 16.4418 3.89342 16.7445C3.81869 16.597 3.71643 16.6126 3.63776 16.7833C3.70462 17.5673 2.48534 17.8056 2.35948 16.9777Z" fill="#37BD8A"/>
</g>
<defs>
<clipPath id="clip0">
<rect width="90.4958" height="92.5761" fill="white" transform="matrix(0.150283 0.988643 0.988643 -0.150283 0.74295 14.2559)"/>
</clipPath>
</defs>
</svg>
