<svg width="98" height="97" viewBox="0 0 98 97" fill="none" xmlns="http://www.w3.org/2000/svg">
<g clip-path="url(#clip0_1068:232)">
<path d="M0.840451 58.4832C1.31222 59.5156 1.64958 60.2041 3.16538 59.3248C5.57594 58.0411 6.76042 55.7189 8.76284 54.0205C8.97076 53.7479 9.17813 53.5438 9.38605 53.2711C11.9985 52.4692 13.2488 50.4904 14.159 48.166C15.0565 47.4188 15.4115 45.913 17.2608 46.2021C15.6687 48.041 16.1311 50.2392 17.564 51.1422C18.7243 51.8373 20.8551 51.2372 22.3078 49.6715C22.8613 49.0588 23.6212 48.3791 24.3118 47.7674C24.7941 47.497 25.2769 47.1579 25.7591 46.8875C28.1011 45.6033 29.2181 43.1434 30.8792 41.2365C30.9489 41.0999 30.8814 40.9622 30.8831 40.7565C33.151 40.1575 34.1961 38.1085 35.5803 36.5423C37.0889 36.5544 36.9628 35.1818 37.5185 34.2947C39.2323 34.3771 40.1304 33.5613 40.3493 31.9172C40.7624 31.7148 41.107 31.5118 41.5201 31.3094C41.655 31.5848 41.373 32.5426 42.2014 31.8635C42.8921 31.2518 43.3787 30.4328 44.0019 29.6834C44.5555 29.0706 45.109 28.4578 45.5946 27.776C47.8773 25.3254 50.9764 23.7044 52.7824 20.8386C54.9708 21.6105 55.3982 19.6251 56.3665 18.6042C57.5405 17.5849 59.0541 16.9799 59.8885 15.5464C61.75 14.3269 62.7989 11.7979 65.6088 12.0262C65.1426 10.308 66.7198 10.3206 67.5471 9.77865C68.4391 9.71723 68.9169 9.99537 68.7035 10.9538C68.0819 11.4974 67.8685 12.4558 66.9743 12.7915C65.9336 14.2919 64.8928 15.7923 63.8527 17.2241C62.683 17.6948 62.0598 18.4442 62.1865 19.7482C61.769 20.4992 60.0596 19.8683 60.3212 21.4477C59.771 21.649 58.9476 21.711 58.8077 22.0527C57.898 24.3086 55.6943 25.4567 54.4445 27.3669C52.4493 28.1738 52.0191 30.5021 50.2965 31.5169C49.3288 32.4693 47.8163 32.9372 47.3247 34.3734C46.6323 35.1908 45.94 36.0082 45.1796 36.7565C38.8898 42.8781 32.7366 49.0694 26.3782 55.1905C24.4433 57.0266 22.3048 58.5868 20.6414 60.768C17.4529 64.9943 13.1074 68.1141 9.71478 72.133C7.98336 74.2451 4.82233 75.0426 4.38557 78.1938C3.49245 78.3923 3.01023 78.6628 3.82597 79.5609C3.82432 79.7666 3.82322 79.9037 3.95981 79.9734C3.53736 81.3416 5.11019 81.9028 5.23744 83.1383C5.30106 83.756 5.85735 82.8004 6.2688 82.8037C6.68025 82.807 7.02312 82.8097 7.43457 82.813C8.53231 82.7533 10.0322 83.8625 10.5281 81.8777C11.0866 80.6478 12.4614 80.2474 13.36 79.363C14.2576 78.6159 15.6324 78.2154 15.3021 76.6355C16.4745 75.8219 17.9865 75.4226 18.3431 73.711C19.8627 72.3516 21.4509 70.9927 22.9711 69.5648C26.4252 66.4379 29.4716 62.8276 32.7216 59.4933C35.4877 56.6352 38.4573 54.053 40.8832 50.8493C41.0895 50.7823 41.2267 50.7834 41.4318 50.8537C43.0666 52.2384 42.8752 50.4538 43.3607 49.7719C45.7016 48.6248 46.614 46.0261 48.6833 44.534C49.2341 44.2641 49.7844 44.0628 50.3352 43.7929C51.0248 43.3184 52.3941 43.6037 52.1999 42.1619C53.2324 41.6902 53.2423 40.4558 53.9335 39.7756C54.5534 39.4377 55.5124 39.5825 55.5892 38.5545C55.7302 38.0755 55.5294 37.4567 56.2843 37.3942C57.0304 38.4289 57.8648 36.9954 58.6158 37.4129C58.8128 38.5117 59.1485 39.406 57.839 40.2184C53.9104 42.6557 52.2267 47.3742 48.2284 49.9481C46.5738 51.0321 45.3224 53.148 44.0749 54.7839C40.403 59.4178 35.9149 63.2222 32.5162 67.9955C31.6231 68.194 31.2742 68.9456 30.8572 69.628C30.6515 69.6264 30.5818 69.763 30.5802 69.9687C29.958 70.5809 29.1999 71.0549 28.9184 71.9442C28.2288 72.4187 27.2666 72.6853 27.2583 73.7139C26.7739 74.2587 26.358 74.8039 27.1069 75.4957C27.577 76.7339 26.6701 78.6469 28.8612 79.0759C29.7483 79.6317 30.2222 80.3898 30.0763 81.4859C29.9276 82.9249 28.5539 83.1882 27.6569 83.8668C26.8148 86.2603 27.8263 88.3944 29.951 88.5486C33.5147 88.8515 35.0459 86.052 37.1197 84.0113C37.9475 83.4007 38.7062 82.8582 39.5341 82.2476C40.6313 82.2564 40.5687 81.5015 40.5742 80.8158C41.0543 80.8196 41.396 80.9595 41.8119 80.4142C43.128 78.7789 44.5802 77.2818 46.0323 75.7847C46.175 75.1001 46.4543 74.4851 46.8015 73.9393C46.4543 74.4851 46.2436 75.1006 46.0323 75.7847C47.5498 74.6996 49.0678 73.546 50.5847 72.5295C51.2052 72.123 51.6193 71.7834 51.214 71.0258C51.6303 70.4119 52.0462 69.8666 52.4626 69.2527C53.9624 70.362 54.7881 70.0258 54.8721 68.1062C55.836 67.6339 56.7999 67.1616 56.7423 65.7896C58.0507 65.1143 58.6783 63.8163 59.6461 62.864C61.7713 62.9496 62.4692 61.4464 63.1676 59.8747C68.5566 54.9117 73.8111 49.6047 80.1514 45.7466C81.3204 45.3445 82.4895 44.9424 83.658 44.6089C84.1364 44.8184 84.2011 45.299 84.2664 45.711L84.3339 45.8487C83.8538 45.8449 83.3074 45.5662 83.0957 46.3188C82.264 47.4094 80.7515 47.8773 80.1233 49.2439C77.3084 49.6328 77.6874 53.682 74.6685 53.8635C73.0786 55.428 71.4882 57.0612 69.9669 58.6263C67.4878 59.9094 65.8227 62.2963 63.6832 63.9936C59.748 67.2538 55.8803 70.6517 52.1487 74.1879C48.8324 77.2474 45.6515 80.5136 42.4712 83.7113C42.1947 83.9834 41.9188 84.1869 41.5748 84.3213C39.7853 85.1299 38.4033 86.4218 37.9759 88.4072C35.5621 90.1023 38.1679 90.1232 38.7801 90.7453C39.8624 92.6057 41.4397 92.6183 42.7563 90.9144C43.2413 90.3011 43.4586 88.8627 44.6117 90.4492C45.0868 91.0703 45.642 90.2518 45.575 90.0455C45.5241 87.8506 47.3098 87.522 48.6868 86.8472C49.0982 86.8505 49.4411 86.8533 49.8525 86.8566C50.0505 87.8183 50.3868 88.6439 51.5526 88.6533C51.8065 91.1928 54.3328 92.5846 56.8092 91.6444C59.0556 93.7198 59.3996 93.5854 61.6873 90.5177C62.0318 90.3147 62.3764 90.1117 62.7209 89.9087C63.5427 90.0525 63.8894 89.5752 64.0326 88.822C66.5101 87.7446 68.3073 85.976 69.3558 83.5155C71.6286 82.2994 73.698 80.8072 74.6098 78.2771L74.4737 78.1389L74.6098 78.2771C76.2627 77.3989 77.5755 76.175 78.6843 74.7437C79.0266 74.815 79.437 74.9555 79.7793 75.0268C79.8451 75.3702 79.8429 75.6445 79.9087 75.9879C79.2784 77.6288 77.0801 78.0912 76.859 80.0096C76.1699 80.4156 75.4787 81.0958 75.6784 81.8518C76.1419 83.9129 74.693 84.9985 73.8586 86.432C73.0982 87.1803 72.2687 87.9965 71.5083 88.7448C70.7474 89.5617 69.8493 90.3774 70.3189 91.6842C70.9311 92.3063 69.7522 93.9427 71.5351 93.957C71.7397 94.0958 71.8769 94.0969 72.0837 93.9614C72.6284 94.4459 73.1732 94.9303 73.7865 95.4153C73.9215 95.6907 74.1902 96.3786 74.2599 96.242C75.2343 94.4668 77.8429 94.1448 78.0678 91.7463C78.2741 91.6794 78.4798 91.6811 78.6861 91.6141C79.7081 92.4453 80.7296 93.345 81.8213 94.0396C82.8449 94.665 84.6207 95.5708 84.7727 93.7203C84.9955 91.5962 86.3857 89.2757 84.7575 87.0681C84.8936 87.2063 85.0313 87.1388 85.1695 87.0028C86.8076 87.976 86.8076 87.976 86.9618 85.8513C87.5839 85.2391 87.5225 84.3471 87.6657 83.5939L87.5977 83.5247C88.4886 83.6005 89.4476 83.7453 89.39 82.3733C90.2129 82.3799 90.355 81.7638 90.5657 81.1483C90.9788 80.9459 91.3233 80.7429 91.7364 80.5405C91.9691 77.182 92.8167 74.1027 95.3046 71.7224C97.1002 70.1595 96.1595 67.7517 97.0658 65.9073C97.345 65.2924 96.255 64.3921 95.4315 64.4541C93.9904 64.5797 92.3468 64.2922 91.3741 65.8617C90.1957 67.4295 87.8608 67.8223 87.158 69.9426C86.2633 70.3469 85.3005 70.682 84.4748 71.0183C83.5944 69.6397 86.0696 68.8366 84.7772 67.5232C84.5715 67.5216 84.3657 67.5199 84.2286 67.5188C84.1551 68.1354 83.8769 68.6133 83.5302 69.0905C83.8764 68.6818 84.0865 68.1349 84.2286 67.5188C84.4343 67.5205 84.64 67.5221 84.7772 67.5232C84.9884 66.8391 85.9501 66.6411 85.7515 65.748C86.6479 65.138 85.5585 64.1691 86.044 63.4872C86.6025 62.2573 85.7143 61.8387 84.8256 61.4887C84.8953 61.3521 84.8964 61.2149 84.8289 61.0772C84.4174 61.0739 84.0746 61.0712 83.6631 61.0679C83.5929 61.273 83.5907 61.5473 83.5205 61.7525C83.5183 62.0268 83.5161 62.3011 83.5824 62.5759C83.5846 62.3016 83.5868 62.0273 83.5205 61.7525C83.4524 61.6834 83.3153 61.6823 83.2462 61.7503C83.3153 61.6823 83.3839 61.6828 83.5205 61.7525C83.5907 61.5473 83.5929 61.273 83.6631 61.0679C84.0746 61.0712 84.4174 61.0739 84.8289 61.0772C85.3227 59.3667 87.1824 58.3529 87.1298 56.3637C86.5917 55.0564 89.6957 52.8182 86.1348 52.1724C84.3661 50.3752 87.0449 49.848 87.192 48.6148C87.4767 47.3141 89.3321 46.8489 89.071 45.2009C91.1913 45.9037 91.6149 44.3984 92.1064 42.9622C94.1664 42.6358 94.7952 41.2007 95.0157 39.3508C97.0424 34.6351 96.7033 34.1524 91.6946 34.4551C91.4203 34.4529 91.1477 34.2449 91.0078 34.5867C90.8015 34.6536 90.5958 34.652 90.3895 34.7189C89.0114 35.5308 88.3295 35.0453 88.2045 33.5355C90.2025 32.3857 88.0937 30.2429 89.203 28.743C89.411 28.4704 88.1805 27.9804 87.4898 28.5921C85.8412 28.9218 83.7901 28.151 82.7444 30.2685C81.7832 30.398 80.7557 30.2526 80.4024 31.5527C79.4374 32.1622 78.4724 32.7717 77.5074 33.3811C76.6823 33.6488 75.7223 33.6411 75.1665 34.5282C74.1302 35.48 73.0939 36.4318 72.0576 37.3836C71.3032 37.3775 71.2966 38.2004 70.883 38.4714C68.9524 39.7589 67.0225 40.9779 65.0233 42.2648C65.2142 44.118 62.4104 43.1354 62.4646 44.9189L62.2589 44.9172L62.0532 44.9156C62.0565 44.5041 62.0592 44.1613 62.0625 43.7498C61.9984 43.2007 62.0702 42.7898 62.621 42.5199C63.8521 42.9412 63.6634 40.8138 64.8944 41.2351C65.3119 40.4841 65.7975 39.8022 66.215 39.0512C66.0872 37.8843 66.983 37.3429 67.6748 36.594C68.6431 35.5731 70.5665 35.1771 70.4448 33.2559C70.9923 33.3975 71.808 34.2955 72.0906 33.2691C72.6557 31.2163 74.6498 30.5465 75.8272 29.1158C76.514 28.9841 76.7916 28.5749 76.9337 27.9588C78.5894 26.7377 80.3811 25.6548 80.5375 23.2558C80.746 22.9145 80.955 22.5047 81.1635 22.1635C84.042 22.3924 83.5873 19.2341 85.2419 18.1501C85.3099 18.2192 85.3088 18.3564 85.3768 18.4255C85.4448 18.4946 85.582 18.4957 85.582 18.4957C86.5585 16.4462 88.6273 15.0226 89.1261 12.6949C89.6347 9.1329 88.9533 8.57881 85.3776 9.78454C84.282 9.57002 83.8612 10.7325 83.0361 11.0002C80.8467 10.3654 80.4829 12.9685 78.8344 13.2982C78.0806 13.2235 77.6653 13.7002 77.1129 14.1759C75.3173 15.7388 73.5217 17.3017 71.1841 18.0373C70.8489 17.0745 71.9505 16.5347 71.8891 15.6427C73.5475 14.0787 74.5916 12.1669 75.8407 10.3252C75.9121 9.98292 75.9834 9.64059 76.0547 9.29827C76.9506 8.75683 76.8903 7.72766 77.2403 6.83894C78.1351 6.43465 77.0406 6.08296 77.2496 5.67317C78.6338 4.10696 77.1362 2.72337 76.4576 1.8264C75.915 1.06767 74.1996 1.19107 73.0272 2.00461L73.0952 2.07373C70.5558 2.32768 68.4903 3.33979 67.1686 5.66087C66.7566 5.72615 66.4138 5.7234 66.0018 5.78867C64.9644 6.87761 63.3827 7.41355 62.4836 8.36644C61.0303 10.0007 58.9692 10.4642 57.5845 12.099C56.5465 13.2565 54.361 12.1417 52.9807 13.2279C50.4296 14.9219 47.4699 16.2697 45.8016 19.0681C45.5942 19.2722 45.4554 19.4768 45.2475 19.7494C42.4985 20.4817 41.1774 22.7342 39.7883 24.9176C38.6845 25.7317 37.5116 26.6138 36.4078 27.4279C35.9952 27.5618 35.5821 27.7642 35.1696 27.898C35.1679 28.1038 35.1663 28.3095 35.1646 28.5152C33.7136 29.8752 33.2121 32.5457 30.4049 31.9746C30.4812 31.0151 31.7869 30.6827 31.5894 29.6524C31.7968 29.4483 32.0036 29.3128 32.211 29.1087C33.2401 29.0484 33.7262 28.2979 34.0762 27.4092C34.2139 27.3417 34.3516 27.2743 34.5579 27.2074C34.7664 26.8661 34.9754 26.4563 35.2525 26.1157C36.6256 25.9209 37.5226 25.2423 37.6027 23.8028C37.6044 23.5971 37.6746 23.3919 37.6757 23.2548C38.0899 22.9152 38.4355 22.5751 38.8502 22.1669C40.0215 21.4906 41.8067 21.2306 40.7945 19.1651C41.6224 18.5545 42.0399 17.8035 41.843 16.7046C40.5698 12.9912 40.5698 12.9912 38.2278 14.2754C38.0204 14.4794 37.8811 14.7526 37.6737 14.9567C36.5688 15.908 35.3953 16.8586 34.4259 18.0167C32.4185 20.3323 29.935 22.164 27.655 24.2716C26.4733 26.251 23.93 26.9849 23.3616 29.4492C22.1217 30.1251 21.3569 31.4219 20.3886 32.4428C19.422 33.258 18.2507 33.9344 17.9649 35.3723C14.9333 37.131 13.7406 40.4818 11.3898 42.8632C10.286 43.6773 9.31767 44.6982 8.69059 45.9276C7.09688 47.9722 5.16194 49.8083 4.31869 52.339C1.91253 53.074 0.0324103 56.625 0.840451 58.4832ZM42.3376 49.0779C42.7529 48.6012 43.1002 48.0553 43.5155 47.5786C43.1682 48.1244 42.7529 48.6012 42.3376 49.0779ZM32.1643 77.6623C32.505 77.9393 32.7085 78.2153 32.7074 78.3524C32.7091 78.1467 32.505 77.9393 32.1643 77.6623ZM28.7763 72.5602C28.4982 73.0381 28.152 73.4468 27.6023 73.5795C28.084 73.3776 28.4296 73.0375 28.7763 72.5602C29.8071 72.2942 30.7014 71.9585 30.7091 70.9984C30.7019 71.8899 29.7391 72.2251 28.7763 72.5602ZM30.3057 78.5389C30.5114 78.5405 30.7177 78.4736 30.9925 78.4072C30.7177 78.4736 30.5119 78.472 30.3057 78.5389ZM34.5584 78.4358C33.9308 79.7338 32.9674 80.1376 31.6684 79.6471C32.071 80.7476 31.4522 80.9483 30.8339 81.0805C31.4527 80.8798 32.0716 80.679 31.6684 79.6471C33.036 80.1381 33.9993 79.7344 34.5584 78.4358C35.8608 78.5149 35.9381 77.4182 36.3567 76.5301C36.0067 77.4188 35.8613 78.4463 34.5584 78.4358ZM36.8569 82.569C36.2375 82.8384 35.6856 83.2454 35.2018 83.7216C35.6856 83.2454 36.2375 82.8384 36.8569 82.569C37.2003 82.5032 37.4088 82.162 37.6853 81.8899C37.4088 82.162 37.2003 82.5032 36.8569 82.569ZM39.9041 70.3178C39.4932 70.246 39.0818 70.2427 38.7394 70.1713C38.2589 70.2361 38.1201 70.4407 38.0493 70.7144C38.0515 70.4401 38.2589 70.2361 38.7394 70.1713C39.1503 70.2432 39.4932 70.246 39.9041 70.3178C39.9129 69.2206 40.5356 68.5398 41.2943 67.9973C40.5361 68.4713 39.9129 69.2206 39.9041 70.3178ZM47.063 58.4425C47.4119 57.691 47.8272 57.2142 48.3073 57.2181C47.8272 57.2142 47.4114 57.7595 47.063 58.4425ZM44.0334 68.4993C45.8855 68.4456 47.7453 67.4318 49.2007 65.5233C47.7458 67.3633 45.9541 68.4462 44.0334 68.4993ZM49.9925 60.8663C49.8564 60.728 49.8581 60.5223 49.8597 60.3166C49.8581 60.5223 49.9255 60.66 49.9925 60.8663C50.4083 60.321 50.7561 59.7066 51.2395 59.299C50.8247 59.7071 50.4089 60.2524 49.9925 60.8663ZM59.9403 77.4736C59.6644 77.6772 59.3879 77.9493 59.1125 78.0842C59.3879 77.9493 59.6644 77.6772 59.9403 77.4736C60.6288 77.1363 61.3179 76.7303 61.9389 76.2552C61.3179 76.7303 60.6974 77.1368 59.9403 77.4736ZM60.4416 83.3754C61.1318 82.8324 61.6206 81.739 62.4457 81.4713C61.6206 81.739 61.2003 82.8329 60.4416 83.3754ZM63.3933 74.4839C63.7334 74.8295 64.0741 75.1065 64.3467 75.3145C64.0735 75.1751 63.7334 74.8295 63.3933 74.4839ZM66.5319 67.9255C67.0142 67.655 67.7005 67.5919 68.2502 67.4592C68.6649 67.0511 69.0797 66.6429 69.4938 66.3033C69.0791 66.7115 68.6644 67.1196 68.2502 67.4592C67.6319 67.5914 67.0136 67.7236 66.5319 67.9255ZM73.5486 65.2386C72.38 65.5721 72.1595 67.422 70.585 67.0665C70.1708 67.406 69.8246 67.8147 69.4104 68.1543C69.8246 67.8147 70.1708 67.406 70.585 67.0665C72.1595 67.422 72.38 65.5721 73.5486 65.2386C74.2288 65.9298 74.5739 65.6583 74.92 65.2496C74.5744 65.5897 74.2293 65.8613 73.5486 65.2386ZM77.5218 74.3229C77.9333 74.3262 78.2778 74.1232 78.6245 73.646C78.2778 74.1232 77.9333 74.3262 77.5218 74.3229ZM86.2119 85.2967C85.9365 85.4316 85.7291 85.6357 85.5218 85.8398C85.7297 85.5671 86.0051 85.4322 86.2119 85.2967ZM94.5533 37.1526C94.7508 38.1829 93.7139 39.2032 93.8439 40.0958C93.7139 39.2032 94.7508 38.1829 94.5533 37.1526ZM86.1267 44.6287C86.2605 45.0412 86.3269 45.3161 86.2572 45.4527C86.2583 45.3155 86.2605 45.0412 86.1267 44.6287C86.4712 44.4257 86.8157 44.2227 87.0922 43.9506C86.8157 44.2227 86.4712 44.4257 86.1267 44.6287ZM88.4863 41.1501C88.4172 41.2181 88.4166 41.2867 88.3475 41.3547C88.4166 41.2867 88.4857 41.2186 88.4863 41.1501L88.5549 41.1506L88.4863 41.1501ZM88.5006 39.3671C88.7063 39.3688 88.844 39.3013 88.9812 39.3024C88.844 39.3013 88.6377 39.3682 88.5006 39.3671ZM89.0354 41.0859C89.4436 41.5006 89.7837 41.8463 90.1919 42.261C89.7837 41.8463 89.4436 41.5006 89.0354 41.0859ZM86.7578 34.3469C86.6876 34.5521 86.6859 34.7578 86.6843 34.9635C87.1621 35.2417 87.2954 35.7228 87.2916 36.2028C87.2954 35.7228 87.1621 35.2417 86.6843 34.9635C86.7545 34.7583 86.7562 34.5526 86.7578 34.3469ZM87.3579 36.4776C88.3152 36.8282 89.0015 36.7652 89.4854 36.289C89.0021 36.6966 88.3152 36.8282 87.3579 36.4776C86.7391 36.6784 86.1894 36.8112 85.5706 37.0119C86.1894 36.8112 86.7397 36.6098 87.3579 36.4776ZM85.3966 41.6053C85.4668 41.4002 85.4679 41.263 85.5381 41.0578C85.4679 41.263 85.4663 41.4687 85.3966 41.6053C84.984 41.7392 84.5737 41.5987 84.1628 41.5269C84.5737 41.5987 84.984 41.7392 85.3966 41.6053ZM82.6692 31.0909C83.5607 31.098 84.185 30.2115 84.9432 29.7375C84.2536 30.2121 83.6287 31.1671 82.6692 31.0909C82.6687 31.1594 82.6676 31.2966 82.5984 31.3646C82.6676 31.2966 82.6681 31.228 82.6692 31.0909ZM78.5217 35.1723C78.796 35.1745 79.1389 35.1773 79.4132 35.1795C79.0703 35.1767 78.796 35.1745 78.5217 35.1723ZM77.2238 34.5447C77.3615 34.4772 77.4992 34.4098 77.7049 34.4114C77.5677 34.4103 77.43 34.4778 77.2238 34.5447ZM68.9594 47.4398C69.5096 47.2385 69.7187 46.8287 69.9282 46.3503C69.7872 46.8293 69.5096 47.2385 68.9594 47.4398C68.4799 47.3674 68.2034 47.6395 67.8584 47.911C68.2034 47.6395 68.5485 47.368 68.9594 47.4398ZM63.6698 48.5632C63.6676 48.8375 63.666 49.0433 63.6638 49.3176C63.9342 49.7998 64.068 50.2123 64.1339 50.5557C64.1372 50.1443 64.0033 49.7317 63.6638 49.3176C63.6654 49.1118 63.6676 48.8375 63.6698 48.5632ZM63.6012 48.5627C63.5332 48.4936 63.4646 48.493 63.3966 48.4239C63.5332 48.4936 63.6018 48.4941 63.6012 48.5627ZM55.9185 57.3477C56.2597 57.5562 56.6015 57.6961 56.8072 57.6978C56.5329 57.6956 56.2597 57.5562 55.9185 57.3477ZM55.9746 50.3531C55.9763 50.1474 55.9774 50.0103 55.979 49.8045C55.9779 49.9417 55.9763 50.1474 55.9746 50.3531C57.0641 51.322 58.1602 51.4679 58.9184 50.994C58.1602 51.4679 57.0641 51.322 55.9746 50.3531ZM59.5229 52.5761C59.3155 52.7802 59.1081 52.9843 58.9008 53.1883C59.1076 53.0528 59.3149 52.8488 59.5229 52.5761C60.0001 52.9228 60.1345 53.2668 60.1323 53.5411C60.1345 53.2668 60.0001 52.9228 59.5229 52.5761ZM60.8648 47.7178C61.0717 47.5823 61.278 47.5154 61.4837 47.517C61.278 47.5154 61.0717 47.5823 60.8648 47.7178ZM60.8915 35.8538C60.8185 36.4019 60.5414 36.7426 59.9917 36.8753C60.4729 36.742 60.8185 36.4019 60.8915 35.8538C61.3046 35.6514 61.7182 35.3804 62.1966 35.59C61.6496 35.3799 61.3046 35.6514 60.8915 35.8538ZM61.3973 32.6347C60.3693 32.5579 59.8135 33.4449 59.0559 33.8503C59.0548 33.9875 58.9846 34.1926 58.9835 34.3298C58.9846 34.1926 59.0548 33.9875 59.0559 33.8503C59.8821 33.4455 60.4373 32.627 61.3973 32.6347C61.811 32.3637 62.1555 32.1607 62.5692 31.8897C62.2241 32.1613 61.811 32.3637 61.3973 32.6347ZM62.9008 41.8363C63.0402 41.5631 63.0429 41.2203 62.5657 40.8735C63.0429 41.2203 63.0402 41.5631 62.9008 41.8363ZM63.3572 19.1403C63.1499 19.3444 63.0111 19.5491 62.8042 19.6845C63.0116 19.4805 63.1499 19.3444 63.3572 19.1403C63.7001 19.1431 63.9744 19.1453 64.2493 19.0789C63.9744 19.1453 63.6315 19.1425 63.3572 19.1403ZM63.7195 33.8192C63.7864 34.0254 63.7842 34.2997 63.8512 34.506C63.7848 34.2312 63.7864 34.0254 63.7195 33.8192ZM64.3603 30.8754C64.1546 30.8738 63.9489 30.8721 63.8117 30.871C63.9489 30.8721 64.1546 30.8738 64.3603 30.8754C64.3653 30.2582 64.4388 29.6416 64.7175 29.0952C64.4383 29.7102 64.2967 30.2577 64.3603 30.8754ZM64.9973 28.4117C64.9326 27.9311 65.0742 27.3836 65.078 26.9036C65.0742 27.3836 64.864 27.9305 64.9973 28.4117ZM73.9276 17.9907C73.859 17.9902 73.7905 17.9896 73.7219 17.9891C73.7905 17.9896 73.859 17.9902 73.9276 17.9907ZM74.7164 22.249C74.3763 21.9033 74.1042 21.6268 73.8332 21.2132C74.1042 21.6268 74.3757 21.9719 74.7164 22.249ZM74.3229 28.5551C74.736 28.3526 75.1491 28.1502 75.5617 28.0164C75.1486 28.2188 74.7355 28.4212 74.3229 28.5551C73.9756 29.1009 73.4923 29.5085 72.9399 29.9841C73.4232 29.5765 73.9071 29.1004 74.3229 28.5551ZM71.7228 19.276C71.516 19.4115 71.2411 19.4779 70.9674 19.4071C71.2411 19.4779 71.516 19.4115 71.7228 19.276ZM70.4204 19.197C70.0753 19.4686 69.7308 19.6715 69.3857 19.9431C69.3144 20.2854 69.2431 20.6277 69.1718 20.9701C69.2431 20.6277 69.3144 20.2854 69.3857 19.9431C69.7308 19.6715 70.0759 19.4 70.4204 19.197ZM69.8249 7.94529C69.8276 7.60242 69.8995 7.19152 69.9023 6.84865C69.8995 7.19152 69.8968 7.53439 69.8249 7.94529C69.753 8.35619 69.341 8.42146 68.9981 8.41871C69.4096 8.42201 69.753 8.35619 69.8249 7.94529ZM56.2354 17.8488C56.3764 17.3699 56.5854 16.9601 56.7933 16.6874C56.5168 16.9595 56.3764 17.3699 56.2354 17.8488C55.8206 18.2569 55.407 18.5279 54.9248 18.7984C55.407 18.5279 55.8206 18.2569 56.2354 17.8488ZM44.407 21.9372C44.2698 21.9361 44.0647 21.8659 43.8595 21.7957C44.0647 21.8659 44.2704 21.8675 44.407 21.9372ZM41.0217 16.4923C40.6778 16.6267 40.3327 16.8983 40.0578 16.9646C40.3327 16.8983 40.6778 16.6267 41.0217 16.4923ZM18.2872 46.4847C18.3552 46.5538 18.3547 46.6224 18.4227 46.6915C18.4232 46.6229 18.3552 46.5538 18.2872 46.4847ZM24.1116 47.08C23.3568 47.1425 22.874 47.4816 22.3901 47.9577C22.874 47.4816 23.3568 47.1425 24.1116 47.08C25.4217 46.199 26.3922 44.9038 27.4307 43.6777C26.3922 44.9038 25.4217 46.199 24.1116 47.08ZM29.6759 28.8141C29.4702 28.8124 29.2645 28.8108 29.0587 28.8091C29.2645 28.8108 29.4702 28.8124 29.6759 28.8141ZM23.1578 37.7456C23.7783 37.3391 24.3302 36.9321 24.9507 36.5256C25.6535 34.4053 27.5824 33.3235 28.966 31.8259C29.3774 31.8292 29.7203 31.8319 30.1317 31.8352C30.3978 32.866 30.1158 33.8239 29.492 34.6418C28.3196 35.4554 26.9437 35.993 26.1109 37.2207C25.0038 38.4462 23.9648 39.7409 22.8582 40.8979C22.3744 41.374 21.8186 42.2611 21.0731 41.1579C21.7676 40.0662 22.4627 38.9059 23.1578 37.7456ZM19.5382 35.865C19.744 35.8666 19.9497 35.8683 20.0868 35.8694C20.2909 36.0767 20.495 36.2841 20.6996 36.4229C20.8368 36.424 20.9739 36.4251 21.043 36.3571C20.9059 36.356 20.8368 36.424 20.6996 36.4229C20.4955 36.2155 20.2915 36.0082 20.0868 35.8694C19.9497 35.8683 19.744 35.8666 19.5382 35.865ZM20.107 41.9045C19.3609 40.8698 18.5463 39.8346 17.8002 38.7999C18.5463 39.8346 19.3609 40.8698 20.107 41.9045ZM18.521 42.989C19.0037 42.65 19.5551 42.3115 20.1064 41.973C21.7368 43.9063 18.7168 44.225 18.8424 45.6662C16.5158 45.0303 17.827 44.0121 18.521 42.989Z" fill="#C8CCD0"/>
</g>
<defs>
<clipPath id="clip0_1068:232">
<rect width="96.4875" height="94.8417" fill="white" transform="translate(96.8221 96.4235) rotate(-179.54)"/>
</clipPath>
</defs>
</svg>
