<svg width="118" height="128" viewBox="0 0 118 128" fill="none" xmlns="http://www.w3.org/2000/svg">
<g clip-path="url(#clip0)">
<path d="M15.8827 97.368C20.1365 100.708 24.4511 103.952 29.4644 106.08C29.5309 106.189 29.646 106.329 29.743 106.39C31.5906 108.29 33.894 109.463 36.2885 110.491C37.5251 110.996 38.7612 112.04 40.1031 110.653C42.4812 109.982 42.0771 108.041 42.0911 106.294C41.9825 105.821 41.9042 105.3 41.7956 104.826C42.2887 103.177 41.3137 101.824 40.8909 100.343C40.5521 99.591 40.2133 98.8386 39.826 98.0558C39.6876 97.0913 39.3611 96.2116 38.5491 95.5678C38.1204 93.8813 37.2062 92.4308 36.0735 91.1134C36.1232 90.0643 35.4082 89.4812 34.584 88.9648C34.5478 88.8071 34.4023 88.7159 34.2568 88.6248C34.154 88.3578 34.0997 88.1212 34.0273 87.8058C33.8585 86.8898 33.2527 86.2402 32.6166 85.6391C32.7568 84.9842 32.1259 85.1291 31.835 84.9468C31.8899 84.6436 31.7871 84.3767 31.4051 84.3398C31.1872 83.9333 31.0178 83.557 30.7999 83.1505C30.2911 82.5616 29.7823 81.9727 29.2432 81.4324L29.3647 81.2384C30.4863 81.6036 31.3467 82.2777 32.2253 83.0308C32.4011 83.0734 32.6558 83.098 32.8317 83.1406C33.6559 83.657 34.4317 84.1431 35.2559 84.6595C37.5101 86.342 39.7644 88.0245 42.0671 89.7373C42.7266 91.1633 44.2425 91.4379 45.2846 92.3609C46.224 93.017 47.1452 93.5942 48.0845 94.2502C48.3257 95.4816 49.5203 95.6225 50.3019 96.3147C53.5504 98.3501 56.5378 100.694 60.0597 102.293C62.4238 103.37 64.404 106.028 67.5778 104.303C67.9541 104.134 68.3303 103.964 68.6761 103.844C70.0296 102.869 71.2862 101.833 70.5181 99.9337C70.2383 100.704 69.9099 101.443 69.6301 102.213C69.0541 102.055 68.4962 101.975 67.9203 101.817C67.5855 102.89 66.756 101.628 66.2945 102.149C64.6816 101.813 63.0869 101.557 61.474 101.222C61.2269 99.7839 60.1784 99.1944 58.8687 98.914C58.5293 98.7013 58.2384 98.5191 57.899 98.3064C56.7838 97.6077 55.6202 96.8786 54.4746 96.2284C53.9355 95.688 53.4874 95.0022 52.6264 94.8678C52.5902 94.7101 52.4751 94.5705 52.3174 94.6067C51.8804 94.8731 51.4738 95.0909 51.0368 95.3573C51.4738 95.0909 51.8804 94.8731 52.3174 94.6067C51.1123 92.9739 49.233 92.2016 47.5542 91.2172C47.4695 91.0291 47.3544 90.8895 47.1786 90.8468C46.713 89.5424 45.4033 89.2619 44.4336 88.6544C42.6157 87.2453 41.1198 85.4302 38.9192 84.5241C38.5501 83.8202 37.859 83.5222 37.1679 83.2243C35.6842 81.2819 33.6052 80.1818 31.5262 79.0818C30.7323 78.5168 30.4426 77.255 29.1019 77.5628C28.2596 76.9675 27.3868 76.4207 26.3622 76.1164C24.6162 75.5625 23.6873 76.3984 23.8432 77.9815C23.9992 79.5646 24.2883 81.3662 26.2586 81.9931C26.2329 83.3273 27.403 83.7228 28.1542 84.4636C28.7845 84.8585 29.4633 85.2838 30.124 85.6302C29.4937 85.2353 28.8149 84.81 28.1542 84.4636C28.1039 86.0525 29.8079 86.2424 30.5042 87.2864C32.6474 90.6547 34.7906 94.0231 36.9338 97.3915C37.1517 97.7981 37.3211 98.1743 37.539 98.5809C37.72 99.3695 37.9315 100.11 38.1125 100.898C38.1184 101.105 38.2153 101.165 38.3912 101.208C38.5974 101.202 38.8217 101.275 38.9794 101.239C38.7732 101.245 38.567 101.251 38.3912 101.208C38.6272 101.693 38.8328 102.227 39.0203 102.682C39.2925 103.326 39.5343 104.017 39.8065 104.66C39.4536 105.655 39.2281 106.661 39.8578 107.596C39.5844 108.032 39.3899 108.45 39.1165 108.887C37.201 107.957 35.334 107.057 33.449 106.079C32.0312 104.785 30.2612 103.946 28.6005 103.041C27.6308 102.433 26.6914 101.777 25.7217 101.17C23.922 99.8393 22.4745 98.0546 20.1583 97.5487C18.8323 95.57 16.4857 95.1126 14.6859 93.7824C14.1344 93.3693 13.4136 92.5801 12.806 93.5498C12.32 94.3256 12.0098 95.144 12.8153 96.1213C13.5361 96.9105 14.5187 96.851 15.2641 97.3855C15.513 97.2039 15.7373 97.2769 15.8827 97.368ZM30.3052 80.8149C30.3356 80.7665 30.366 80.718 30.3963 80.6695C30.366 80.718 30.3356 80.7665 30.3052 80.8149C30.2082 80.7542 30.1294 80.7723 30.0628 80.663C30.1294 80.7723 30.2567 80.7846 30.3052 80.8149ZM33.7883 90.0192C35.0477 91.8886 36.1494 93.7942 37.1114 95.8148C36.1494 93.7942 35.0477 91.8886 33.7883 90.0192ZM36.2237 108.762C36.448 108.835 36.6238 108.878 36.8178 108.999C36.6723 108.908 36.448 108.835 36.2237 108.762ZM33.4296 107.079L33.5815 106.837L33.4296 107.079C32.6895 107.291 32.0288 106.944 31.3862 106.677C32.0288 106.944 32.6895 107.291 33.4296 107.079ZM34.5804 108.475C34.9625 108.512 35.393 108.579 35.8235 108.647C35.393 108.579 34.9625 108.512 34.5804 108.475C33.7433 108.626 33.3431 108.51 33.283 108.068C33.3431 108.51 33.7129 108.675 34.5804 108.475Z" fill="#37BD8A"/>
<path d="M70.5607 99.7579C71.1934 97.9937 71.6503 96.1869 70.4575 94.4268C70.1614 93.4985 70.6661 92.2619 69.4598 91.7086C69.2665 91.0473 69.2916 90.2529 68.6432 89.7791C68.5346 89.3059 68.3775 88.8024 68.2688 88.3292C67.9849 87.2736 67.2641 86.4843 66.5129 85.7436C66.295 85.337 66.1256 84.9608 65.9077 84.5542C65.927 83.5535 65.2909 82.9524 64.4848 82.5148C64.2669 82.1082 64.0186 81.7501 63.8008 81.3436C62.5355 79.268 61.2703 77.1924 59.0581 75.8738C58.575 73.9507 56.7869 73.0329 55.7454 71.5702C54.8668 70.8171 54.0368 70.0945 53.1582 69.3415C54.6928 69.1552 55.583 70.3206 56.6678 71.0678C57.6743 71.2933 58.3706 72.3373 59.5413 72.193C59.8626 72.3268 60.105 72.4787 60.4263 72.6125C61.6559 73.9906 63.5054 74.2716 65.0207 75.086C66.5173 76.3613 68.2692 77.1213 70.2034 77.5905C71.6153 78.6777 73.3374 78.9464 74.9438 79.6154C75.7377 80.1803 76.5561 80.4905 77.527 80.0185C77.6724 80.1097 77.8483 80.1523 77.9756 80.1646C78.1211 80.2557 78.315 80.3772 78.4605 80.4684C79.3034 80.5239 80.116 80.6279 81.0074 80.7138C81.9467 81.3699 82.6688 81.0795 83.2945 80.1887C83.8833 79.6799 84.551 79.153 85.1399 78.6442C86.7984 76.1049 87.2746 73.2974 86.7928 70.2948C86.7099 68.4874 86.5481 66.6981 85.3004 65.2411C85.336 65.9386 85.3231 66.6057 85.3284 67.3517C85.2928 66.6542 85.3056 65.9871 85.3004 65.2411C85.2461 65.0045 85.2221 64.7194 85.1678 64.4828C85.5336 62.8215 83.8121 62.0129 83.5042 60.6723C83.5837 60.1144 83.6147 59.5261 82.9236 59.2282C82.8085 59.0886 82.6935 58.9489 82.5784 58.8093C82.5434 57.5721 81.8044 56.704 81.1747 55.7693C81.0416 55.5508 80.9084 55.3323 80.7752 55.1138C79.2074 52.4435 77.6396 49.7733 75.2948 47.6965C75.2586 47.5387 75.1435 47.3991 74.9192 47.3261C73.8239 45.0869 72.1702 43.3081 70.2676 41.7109C69.5959 40.4123 68.6934 39.3742 67.4024 38.6328C66.5005 37.055 65.2282 35.8527 63.7252 34.911C63.9378 34.5716 64.0716 34.2503 64.2843 33.9109C64.4601 33.9536 64.654 34.0751 64.8299 34.1177C67.6607 35.4188 70.2666 37.1865 73.4561 37.6995C73.7587 38.2942 74.3043 38.501 74.9411 38.5624C77.6924 40.4213 80.7721 41.5407 83.8214 42.7085C84.6457 43.225 85.488 43.8203 86.5191 43.7911C86.6646 43.8822 86.8585 44.0037 87.0343 44.0464C89.0093 45.959 91.6836 46.2167 94.0477 47.2928C93.9327 47.1532 93.7872 47.0621 93.6721 46.9225C93.7872 47.0621 93.9023 47.2017 94.0477 47.2928C94.4356 47.5359 94.872 47.8093 95.2902 48.0038C95.4118 47.8099 95.5333 47.6159 95.7033 47.4524C95.8487 47.5435 95.9942 47.6346 96.1396 47.7258C96.7156 47.8841 97.2916 48.0424 97.898 48.1523C98.141 47.7644 98.4021 47.4554 98.6329 47.1948C98.384 47.3765 98.141 47.7644 97.898 48.1523C97.322 47.9939 96.746 47.8356 96.1396 47.7258C95.9942 47.6346 95.8487 47.5435 95.7033 47.4524C95.5817 47.6463 95.4602 47.8402 95.2902 48.0038C97.163 49.1097 98.957 50.2337 101.219 50.5031C101.88 50.8495 102.619 51.1778 103.28 51.5243C104.419 51.9683 105.559 52.4123 106.668 52.9048C107.875 53.458 109.088 53.6777 110.023 52.5082C110.91 51.3084 110.45 50.2101 109.487 49.269C109.53 48.5534 108.936 48.3162 108.56 47.9458C107.84 46.6168 107.18 45.1908 105.963 44.2252C104.782 42.3377 103.274 40.65 101.674 39.1077C101.02 38.4277 100.366 37.7477 99.7116 37.0677C99.4569 37.0432 99.281 37.0006 99.0264 36.976C98.8745 37.2184 98.7226 37.4609 98.5707 37.7033C98.7226 37.4609 98.8745 37.2184 99.0264 36.976C99.281 37.0006 99.4569 37.0432 99.7116 37.0677C99.3488 36.0303 98.4154 35.5804 97.6519 34.967C96.9743 33.4622 95.4771 32.7267 94.3988 31.6459C93.2784 30.2012 92.0972 28.8535 90.4061 27.9965C89.6742 26.2551 87.5215 25.9191 86.65 24.2927C86.0501 23.8493 85.4502 23.4059 84.8987 22.9929C84.2392 21.5669 82.7841 21.1954 81.6508 20.4178C81.3903 20.187 81.1298 19.9563 80.8692 19.7255C80.6081 20.0345 80.3651 20.4224 80.1039 20.7314C80.3651 20.4224 80.6081 20.0345 80.8692 19.7255C80.2641 18.5361 79.1244 18.0921 78.0758 17.5027C77.7545 17.3689 77.4636 17.1866 77.1546 16.9255C76.6394 16.6702 76.1242 16.4149 75.6878 16.1415C76.203 16.3968 76.7182 16.6521 77.1546 16.9255C76.2585 15.5538 74.8583 14.8791 73.4704 14.077C73.3249 13.9858 73.131 13.8643 73.0159 13.7247C72.9312 13.5366 72.8342 13.4758 72.6403 13.3543C71.805 11.8857 70.2651 11.326 68.9864 10.4573C68.3076 10.032 68.0418 9.05528 67.12 9.01787C67.0231 8.95711 66.8472 8.91446 66.7199 8.90219C65.8542 7.48205 64.3751 6.82539 62.9871 6.02328C62.3568 5.62837 61.7084 5.15459 61.0781 4.75967C61.0419 4.60194 60.9753 4.4927 60.8176 4.52891C60.1821 3.38801 59.0243 2.86515 57.9757 2.27568C57.5878 2.03266 57.2607 1.69266 56.8424 1.49812C56.2483 1.26093 55.5824 0.168514 54.9568 1.05935C54.3007 1.99867 55.1734 2.54548 55.9311 2.95267C56.5485 4.0147 57.3178 4.83432 58.6947 4.68423C58.7128 4.7631 58.7794 4.87234 58.8764 4.93309C59.0096 5.15157 59.1124 5.41854 59.1971 5.60665C59.4447 6.50452 60.2935 6.76626 60.9238 7.16118C61.015 7.01572 61.0757 6.91875 61.1669 6.7733C61.1003 6.66405 60.9548 6.57292 60.8094 6.48179C60.7977 6.06937 60.7375 5.62656 60.7259 5.21414C60.7375 5.62656 60.7977 6.06937 60.8094 6.48179C60.9548 6.57292 61.0518 6.63368 61.1669 6.7733C61.0757 6.91875 61.015 7.01572 60.9238 7.16118C62.8089 8.13972 64.0683 10.0091 66.1964 10.5998C67.1468 12.208 68.6621 13.0224 70.2259 13.8671C70.2621 14.0249 70.3287 14.1341 70.5349 14.1283C70.8854 15.2931 72.0496 15.4824 72.8616 16.1262C73.007 16.2173 73.1706 16.3873 73.3161 16.4785C75.6731 18.4279 77.8479 20.6683 80.4965 22.2602C81.6899 23.4806 82.7921 24.8464 84.4167 25.5942C84.5732 26.6375 85.4828 26.8023 86.1919 27.1791C86.2831 27.0336 86.4046 26.8397 86.5442 26.7246C86.4531 26.8701 86.3315 27.064 86.1919 27.1791C87.4028 29.0181 89.4153 30.0089 90.8873 31.5389C91.1648 32.9281 92.7052 32.948 93.4623 33.8949C94.8128 35.6189 96.2545 37.1973 98.2184 38.1578C98.2546 38.3155 98.3212 38.4247 98.497 38.4674C99.6156 41.5314 102.258 43.4569 104.153 45.9274L104.123 45.9759C104.292 46.3521 104.541 46.7102 104.71 47.0864C105.328 47.6087 105.916 48.1794 106.485 48.6713C106.618 48.8898 106.733 49.0294 106.879 49.1205C107.121 49.2724 107.333 49.4728 107.467 49.6913C107.333 49.4728 107.121 49.2724 106.879 49.1205C106.654 49.5873 106.266 49.884 105.726 49.8834C104.932 49.3185 104.187 48.784 103.423 48.1706C103.247 48.1279 103.071 48.0853 102.896 48.0426C100.961 47.5735 99.4285 46.1404 97.4698 45.926C96.4394 45.4154 95.6765 44.2622 94.2996 44.4123C93.178 44.0472 92.2936 43.0879 91.0867 43.0745C90.7654 42.9407 90.4745 42.7584 90.1532 42.6246C89.0504 41.7986 87.9475 40.9725 86.4859 40.9345C86.1465 40.7219 85.8252 40.5881 85.4858 40.3754C84.2801 39.2824 82.7035 39.1048 81.3032 38.43C80.6548 37.9562 80.0672 37.3855 79.1512 37.5543C74.9996 35.0206 70.5016 33.1476 65.9913 31.402C65.8762 31.2623 65.7488 31.2501 65.5911 31.2863C64.7371 30.2786 63.4391 30.4105 62.3782 29.9484C62.0873 29.7662 61.7479 29.5535 61.4266 29.4197C60.8816 28.6731 60.1719 28.8361 59.4498 29.1264C58.8435 29.0166 58.4135 28.4096 57.6611 28.7484C56.8182 28.6929 55.9571 28.5585 55.7374 29.7712C55.5908 30.7596 55.5656 31.5541 56.4442 32.3071C58.1225 33.8313 59.8737 35.1311 61.7647 36.3158C61.6723 37.5408 62.6607 37.6875 63.4307 37.9673C63.5457 38.107 63.6912 38.1981 63.8547 38.3681C67.7376 42.6239 71.5719 46.8493 75.4062 51.0747C75.7088 51.6694 76.0903 52.246 76.3928 52.8407C76.5669 54.5026 77.9186 55.147 79.0092 56.1004C79.0635 56.337 79.1179 56.5736 79.1722 56.8102C79.6979 58.5574 80.4602 60.2504 81.5805 61.6951C81.6477 61.2645 81.6846 60.8825 81.7517 60.452C81.1337 59.9297 80.91 59.3169 80.9532 58.6013C80.91 59.3169 81.1337 59.9297 81.7517 60.452C81.6846 60.8825 81.6477 61.2645 81.5805 61.6951L81.6109 61.6466C81.695 62.3745 81.7487 63.1508 82.5671 63.461C82.7365 63.8373 82.8756 64.2619 83.0934 64.6685C83.5531 65.7668 84.0128 66.865 84.4422 68.0118C84.4269 70.838 85.0483 73.7255 83.8566 76.4898C83.7654 76.6352 83.6439 76.8292 83.6013 77.005C83.6194 77.0839 83.6375 77.1627 83.6556 77.2416C83.6375 77.1627 83.6194 77.0839 83.6013 77.005C83.2794 77.411 82.9879 77.7685 82.666 78.1745C81.9685 78.2101 81.1985 77.9302 80.5612 78.4087C80.355 78.4145 80.1488 78.4203 79.9729 78.3777C79.7848 78.4624 79.6452 78.5775 79.5845 78.6744C79.6756 78.529 79.8152 78.4139 79.9729 78.3777C77.0387 77.3494 74.0864 76.2424 71.1521 75.2141C69.8126 74.4424 68.5643 73.5252 67.018 73.2991C66.6786 73.0864 66.3573 72.9527 66.018 72.74C65.3514 72.1874 64.7153 71.5862 63.7205 71.7731C63.6539 71.6639 63.5569 71.6031 63.4903 71.4939C63.0849 70.6322 62.4973 70.0615 61.4417 70.3453C61.0544 69.5625 60.5152 69.0222 59.5507 69.1606C59.0542 68.4444 58.1809 68.4374 57.5202 68.0909C57.1808 67.8783 56.8899 67.696 56.5809 67.4349C54.1082 65.8856 51.7996 63.9665 48.8712 63.1445C48.8835 63.0171 48.8169 62.9079 48.6895 62.8956C48.0902 61.9124 47.2052 61.493 46.1076 61.4129C44.8166 60.6716 43.6716 59.4816 41.9735 59.4979C41.2766 58.9937 40.7245 59.1205 40.5113 59.9996C40.2373 60.9758 40.3634 62.0676 41.2969 62.5174C43.8064 63.6847 45.4292 66.0518 47.7991 67.3341C48.1146 67.2617 48.3996 67.2377 48.7151 67.1653C49.0364 67.2991 49.388 67.3844 49.6608 67.4878C49.3396 67.354 48.9879 67.2687 48.7151 67.1653C48.3996 67.2377 48.1146 67.2617 47.7991 67.3341C50.259 69.5505 52.6884 71.8154 55.1483 74.0318C55.396 74.9297 56.2144 75.2399 56.8143 75.6833C57.0982 76.7389 58.1286 77.2495 58.6917 78.075C59.0486 78.9062 60.3163 78.8228 60.4728 79.8661C61.1562 81.5771 62.3677 82.8764 63.7493 84.012C63.9975 84.3701 64.1973 84.6979 64.4455 85.056C64.4818 85.2137 64.6272 85.3048 64.7242 85.3656C64.5898 86.2266 65.3171 86.6823 65.6378 87.3559C65.5583 87.9137 65.9158 88.2053 66.3341 88.3998C66.6302 89.328 66.532 90.3468 67.3621 91.0695C67.556 91.191 67.7804 91.264 67.9743 91.3855C67.7804 91.264 67.556 91.191 67.3621 91.0695C67.4514 92.5433 68.372 93.6603 69.0864 94.7831C69.0414 97.118 69.5057 99.502 68.1387 101.684C68.7147 101.842 69.2726 101.922 69.8485 102.08C69.9526 101.267 70.2324 100.497 70.5607 99.7579ZM75.3174 16.5171C75.172 16.426 75.075 16.3652 74.8992 16.3226C75.075 16.3652 75.172 16.426 75.3174 16.5171C75.4681 17.3542 75.898 17.9612 76.4495 18.3742C75.898 17.9612 75.4681 17.3542 75.3174 16.5171ZM102.829 42.8692C103.44 43.725 103.973 44.599 104.475 45.5214C104.748 45.6248 104.954 45.619 105.142 45.5343C104.985 45.5705 104.73 45.5459 104.475 45.5214C103.894 44.6171 103.392 43.6947 102.829 42.8692ZM108.13 47.8786C107.857 47.7752 107.602 47.7507 107.317 47.7746C107.633 47.7022 107.857 47.7752 108.13 47.8786ZM83.7076 41.4894C83.3559 41.4041 83.0042 41.3188 82.6526 41.2335C83.0042 41.3188 83.3559 41.4041 83.7076 41.4894ZM84.0108 41.5443C84.0651 41.7809 84.1679 42.0478 84.2222 42.2844C85.0348 42.3884 85.8473 42.4925 86.6599 42.5965C86.7265 42.7057 86.7931 42.8149 86.7808 42.9423C86.7627 42.8634 86.7265 42.7057 86.6599 42.5965C85.8473 42.4925 85.0348 42.3884 84.2222 42.2844C84.1983 41.9994 84.0955 41.7324 84.0108 41.5443ZM58.563 30.3263C58.6542 30.1808 58.7453 30.0354 58.7879 29.8595C58.7149 30.0838 58.6542 30.1808 58.563 30.3263ZM62.0896 33.211C62.235 33.3021 62.4108 33.3448 62.5563 33.4359C62.8659 33.1573 63.0424 32.6602 63.3882 32.5393C63.0424 32.6602 62.8659 33.1573 62.5563 33.4359C62.3805 33.3933 62.235 33.3021 62.0896 33.211ZM59.7721 33.7846C59.8387 33.8938 59.9842 33.985 60.0812 34.0457C59.9357 33.9546 59.8691 33.8453 59.7721 33.7846ZM60.0812 34.0457C60.1296 34.0761 60.1781 34.1065 60.2266 34.1368C60.1781 34.1065 60.1296 34.0761 60.0812 34.0457ZM69.3744 43.2443C69.205 42.8681 68.8779 42.5281 68.757 42.1823C68.8779 42.5281 69.205 42.8681 69.3744 43.2443C70.635 44.0342 71.3979 45.1873 72.1304 46.389C71.3979 45.1873 70.6654 43.9857 69.3744 43.2443ZM74.183 49.3631C74.3466 49.5331 74.6013 49.5576 75.026 49.4186C75.2199 49.5401 75.3654 49.6312 75.529 49.8012C75.4139 49.6616 75.2503 49.4916 75.026 49.4186C74.6013 49.5576 74.3466 49.5331 74.183 49.3631ZM83.357 62.2004C83.6473 62.9225 84.4108 63.5359 84.6222 64.276C84.3623 63.5055 83.6473 62.9225 83.357 62.2004ZM71.0306 75.4081C71.0306 75.4081 70.9821 75.3777 71.0125 75.3292L71.0306 75.4081ZM62.5065 72.633C62.3126 72.5115 62.1186 72.39 61.8943 72.3169C62.0702 72.3596 62.2641 72.4811 62.5065 72.633ZM54.7355 68.9793C54.7355 68.9793 54.7051 69.0278 54.7355 68.9793C54.5789 67.936 54.2699 67.6749 53.8452 67.8139C54.2395 67.7234 54.5486 67.9845 54.7355 68.9793ZM46.8634 63.4394C47.0147 63.7368 47.2267 63.9371 47.5784 64.0224C47.7478 64.3987 48.0749 64.7387 48.1958 65.0845C48.0264 64.7083 47.7782 64.3502 47.5784 64.0224C47.2571 63.8887 47.0451 63.6883 46.8634 63.4394ZM50.5762 67.8588C50.6551 67.8407 50.6855 67.7922 50.7643 67.7741C50.6855 67.7922 50.6066 67.8103 50.5762 67.8588ZM52.9216 69.3958L53.0005 69.3777L52.9216 69.3958Z" fill="#37BD8A"/>
</g>
<defs>
<clipPath id="clip0">
<rect width="103.56" height="74.0943" fill="white" transform="translate(118 39.884) rotate(122.069)"/>
</clipPath>
</defs>
</svg>
