<svg width="764" height="777" viewBox="0 0 764 777" fill="none" xmlns="http://www.w3.org/2000/svg">
<g filter="url(#filter0_f)">
<path d="M488.761 329.034C483.842 329.034 478.923 330.26 474.005 332.711C471.545 320.455 460.478 311.875 446.952 311.875C435.885 311.875 426.048 318.003 422.359 327.809C411.292 300.844 384.239 282.459 353.497 282.459C341.201 282.459 330.134 284.91 320.296 289.813C304.311 266.525 277.258 250.592 245.287 250.592C226.842 250.592 209.627 256.72 194.871 265.3C183.804 256.72 169.048 250.592 153.062 250.592C116.172 250.592 86.6601 280.008 86.6601 316.778C86.6601 320.455 86.6601 324.132 87.8898 327.809C78.0525 329.034 69.4448 332.711 63.2965 338.84C55.9185 331.486 47.3108 327.809 36.2439 327.809C17.7989 327.809 1.81323 342.517 1.81323 362.127C1.81323 381.738 17.7989 396.446 36.2439 396.446H37.4735C36.2439 398.897 36.2439 402.574 36.2439 405.025C36.2439 423.41 50.9998 438.118 69.4448 438.118C75.5931 438.118 81.7415 436.893 86.6601 433.216C86.6601 468.76 116.172 498.176 151.832 498.176C175.196 498.176 194.871 485.919 205.938 468.76C213.316 501.853 242.828 526.366 278.488 526.366C310.459 526.366 337.512 506.755 348.579 478.565C358.416 485.919 369.483 489.596 381.78 489.596C411.292 489.596 435.885 466.309 437.115 436.893C438.344 436.893 438.344 436.893 439.574 436.893C465.397 436.893 486.301 416.056 486.301 390.317C486.301 387.866 486.301 385.415 485.072 382.963C485.072 382.963 485.072 382.963 486.301 382.963C501.057 382.963 513.354 370.707 513.354 355.999C515.813 341.291 503.517 329.034 488.761 329.034Z" fill="#E1FAF4"/>
</g>
<defs>
<filter id="filter0_f" x="-248.187" y="0.591797" width="1011.86" height="775.774" filterUnits="userSpaceOnUse" color-interpolation-filters="sRGB">
<feFlood flood-opacity="0" result="BackgroundImageFix"/>
<feBlend mode="normal" in="SourceGraphic" in2="BackgroundImageFix" result="shape"/>
<feGaussianBlur stdDeviation="125" result="effect1_foregroundBlur"/>
</filter>
</defs>
</svg>
