<svg width="111" height="81" viewBox="0 0 111 81" fill="none" xmlns="http://www.w3.org/2000/svg">
<path d="M4.53151 5.91748L2.36839 5.91748C2.36839 5.13734 1.73009 4.49904 0.949951 4.49904L0.949951 2.33592C1.73009 2.33592 2.36839 1.69762 2.36839 0.91748L4.53151 0.91748C4.53151 1.69762 5.16981 2.33592 5.94995 2.33592L5.94995 4.49904C5.16981 4.49904 4.53151 5.13734 4.53151 5.91748Z" fill="#535A60"/>
<path d="M19.5315 5.91748L17.3684 5.91748C17.3684 5.13734 16.7301 4.49904 15.95 4.49904V2.33592C16.7301 2.33592 17.3684 1.69762 17.3684 0.91748L19.5315 0.91748C19.5315 1.69762 20.1698 2.33592 20.95 2.33592V4.49904C20.1698 4.49904 19.5315 5.13734 19.5315 5.91748Z" fill="#535A60"/>
<path d="M34.5315 5.91748L32.3684 5.91748C32.3684 5.13734 31.7301 4.49904 30.95 4.49904V2.33592C31.7301 2.33592 32.3684 1.69762 32.3684 0.91748L34.5315 0.91748C34.5315 1.69762 35.1698 2.33592 35.95 2.33592V4.49904C35.1343 4.49904 34.5315 5.13734 34.5315 5.91748Z" fill="#535A60"/>
<path d="M49.5315 5.91748L47.3684 5.91748C47.3684 5.13734 46.7301 4.49904 45.95 4.49904V2.33592C46.7301 2.33592 47.3684 1.69762 47.3684 0.91748L49.5315 0.91748C49.5315 1.69762 50.1698 2.33592 50.95 2.33592V4.49904C50.1698 4.49904 49.5315 5.13734 49.5315 5.91748Z" fill="#535A60"/>
<path d="M64.5315 5.91748L62.3684 5.91748C62.3684 5.13734 61.7301 4.49904 60.95 4.49904V2.33592C61.7301 2.33592 62.3684 1.69762 62.3684 0.91748L64.5315 0.91748C64.5315 1.69762 65.1698 2.33592 65.95 2.33592V4.49904C65.1698 4.49904 64.5315 5.13734 64.5315 5.91748Z" fill="#535A60"/>
<path d="M79.5315 5.91748L77.3684 5.91748C77.3684 5.13734 76.7301 4.49904 75.95 4.49904V2.33592C76.7301 2.33592 77.3684 1.69762 77.3684 0.91748L79.5315 0.91748C79.5315 1.69762 80.1698 2.33592 80.95 2.33592V4.49904C80.1698 4.49904 79.5315 5.13734 79.5315 5.91748Z" fill="#535A60"/>
<path d="M94.5315 5.91748L92.3684 5.91748C92.3684 5.13734 91.7301 4.49904 90.95 4.49904V2.33592C91.7301 2.33592 92.3684 1.69762 92.3684 0.91748L94.5315 0.91748C94.5315 1.69762 95.1698 2.33592 95.95 2.33592V4.49904C95.1698 4.49904 94.5315 5.13734 94.5315 5.91748Z" fill="#535A60"/>
<path d="M109.532 5.91748L107.368 5.91748C107.368 5.13734 106.73 4.49904 105.95 4.49904V2.33592C106.73 2.33592 107.368 1.69762 107.368 0.91748L109.532 0.91748C109.532 1.69762 110.17 2.33592 110.95 2.33592V4.49904C110.17 4.49904 109.532 5.13734 109.532 5.91748Z" fill="#535A60"/>
<path d="M4.53151 20.9175H2.36839C2.36839 20.1373 1.73009 19.499 0.949951 19.499L0.949951 17.3359C1.73009 17.3359 2.36839 16.6976 2.36839 15.9175H4.53151C4.53151 16.6976 5.16981 17.3359 5.94995 17.3359L5.94995 19.499C5.16981 19.499 4.53151 20.1373 4.53151 20.9175Z" fill="#535A60"/>
<path d="M19.5315 20.9175H17.3684C17.3684 20.1373 16.7301 19.499 15.95 19.499V17.3359C16.7301 17.3359 17.3684 16.6976 17.3684 15.9175H19.5315C19.5315 16.6976 20.1698 17.3359 20.95 17.3359V19.499C20.1698 19.499 19.5315 20.1373 19.5315 20.9175Z" fill="#535A60"/>
<path d="M34.5315 20.9175H32.3684C32.3684 20.1373 31.7301 19.499 30.95 19.499V17.3359C31.7301 17.3359 32.3684 16.6976 32.3684 15.9175H34.5315C34.5315 16.6976 35.1698 17.3359 35.95 17.3359V19.499C35.1343 19.499 34.5315 20.1373 34.5315 20.9175Z" fill="#535A60"/>
<path d="M49.5315 20.9175H47.3684C47.3684 20.1373 46.7301 19.499 45.95 19.499V17.3359C46.7301 17.3359 47.3684 16.6976 47.3684 15.9175H49.5315C49.5315 16.6976 50.1698 17.3359 50.95 17.3359V19.499C50.1698 19.499 49.5315 20.1373 49.5315 20.9175Z" fill="#535A60"/>
<path d="M64.5315 20.9175H62.3684C62.3684 20.1373 61.7301 19.499 60.95 19.499V17.3359C61.7301 17.3359 62.3684 16.6976 62.3684 15.9175H64.5315C64.5315 16.6976 65.1698 17.3359 65.95 17.3359V19.499C65.1698 19.499 64.5315 20.1373 64.5315 20.9175Z" fill="#535A60"/>
<path d="M79.5315 20.9175H77.3684C77.3684 20.1373 76.7301 19.499 75.95 19.499V17.3359C76.7301 17.3359 77.3684 16.6976 77.3684 15.9175H79.5315C79.5315 16.6976 80.1698 17.3359 80.95 17.3359V19.499C80.1698 19.499 79.5315 20.1373 79.5315 20.9175Z" fill="#535A60"/>
<path d="M94.5315 20.9175H92.3684C92.3684 20.1373 91.7301 19.499 90.95 19.499V17.3359C91.7301 17.3359 92.3684 16.6976 92.3684 15.9175H94.5315C94.5315 16.6976 95.1698 17.3359 95.95 17.3359V19.499C95.1698 19.499 94.5315 20.1373 94.5315 20.9175Z" fill="#535A60"/>
<path d="M109.532 20.9175H107.368C107.368 20.1373 106.73 19.499 105.95 19.499V17.3359C106.73 17.3359 107.368 16.6976 107.368 15.9175H109.532C109.532 16.6976 110.17 17.3359 110.95 17.3359V19.499C110.17 19.499 109.532 20.1373 109.532 20.9175Z" fill="#535A60"/>
<path d="M4.53151 35.9175H2.36839C2.36839 35.1373 1.73009 34.499 0.949951 34.499L0.949951 32.3359C1.73009 32.3359 2.36839 31.6976 2.36839 30.9175H4.53151C4.53151 31.6976 5.16981 32.3359 5.94995 32.3359L5.94995 34.499C5.16981 34.499 4.53151 35.1373 4.53151 35.9175Z" fill="#535A60"/>
<path d="M19.5315 35.9175H17.3684C17.3684 35.1373 16.7301 34.499 15.95 34.499V32.3359C16.7301 32.3359 17.3684 31.6976 17.3684 30.9175H19.5315C19.5315 31.6976 20.1698 32.3359 20.95 32.3359V34.499C20.1698 34.499 19.5315 35.1373 19.5315 35.9175Z" fill="#535A60"/>
<path d="M34.5315 35.9175H32.3684C32.3684 35.1373 31.7301 34.499 30.95 34.499V32.3359C31.7301 32.3359 32.3684 31.6976 32.3684 30.9175H34.5315C34.5315 31.6976 35.1698 32.3359 35.95 32.3359V34.499C35.1343 34.499 34.5315 35.1373 34.5315 35.9175Z" fill="#535A60"/>
<path d="M49.5315 35.9175H47.3684C47.3684 35.1373 46.7301 34.499 45.95 34.499V32.3359C46.7301 32.3359 47.3684 31.6976 47.3684 30.9175H49.5315C49.5315 31.6976 50.1698 32.3359 50.95 32.3359V34.499C50.1698 34.499 49.5315 35.1373 49.5315 35.9175Z" fill="#535A60"/>
<path d="M64.5315 35.9175H62.3684C62.3684 35.1373 61.7301 34.499 60.95 34.499V32.3359C61.7301 32.3359 62.3684 31.6976 62.3684 30.9175H64.5315C64.5315 31.6976 65.1698 32.3359 65.95 32.3359V34.499C65.1698 34.499 64.5315 35.1373 64.5315 35.9175Z" fill="#535A60"/>
<path d="M79.5315 35.9175H77.3684C77.3684 35.1373 76.7301 34.499 75.95 34.499V32.3359C76.7301 32.3359 77.3684 31.6976 77.3684 30.9175H79.5315C79.5315 31.6976 80.1698 32.3359 80.95 32.3359V34.499C80.1698 34.499 79.5315 35.1373 79.5315 35.9175Z" fill="#535A60"/>
<path d="M94.5315 35.9175H92.3684C92.3684 35.1373 91.7301 34.499 90.95 34.499V32.3359C91.7301 32.3359 92.3684 31.6976 92.3684 30.9175H94.5315C94.5315 31.6976 95.1698 32.3359 95.95 32.3359V34.499C95.1698 34.499 94.5315 35.1373 94.5315 35.9175Z" fill="#535A60"/>
<path d="M109.532 35.9175H107.368C107.368 35.1373 106.73 34.499 105.95 34.499V32.3359C106.73 32.3359 107.368 31.6976 107.368 30.9175H109.532C109.532 31.6976 110.17 32.3359 110.95 32.3359V34.499C110.17 34.499 109.532 35.1373 109.532 35.9175Z" fill="#535A60"/>
<path d="M4.53151 50.9175H2.36839C2.36839 50.1373 1.73009 49.499 0.949951 49.499L0.949951 47.3359C1.73009 47.3359 2.36839 46.6976 2.36839 45.9175H4.53151C4.53151 46.6976 5.16981 47.3359 5.94995 47.3359L5.94995 49.499C5.16981 49.499 4.53151 50.1373 4.53151 50.9175Z" fill="#535A60"/>
<path d="M19.5315 50.9175H17.3684C17.3684 50.1373 16.7301 49.499 15.95 49.499V47.3359C16.7301 47.3359 17.3684 46.6976 17.3684 45.9175H19.5315C19.5315 46.6976 20.1698 47.3359 20.95 47.3359V49.499C20.1698 49.499 19.5315 50.1373 19.5315 50.9175Z" fill="#535A60"/>
<path d="M34.5315 50.9175H32.3684C32.3684 50.1373 31.7301 49.499 30.95 49.499V47.3359C31.7301 47.3359 32.3684 46.6976 32.3684 45.9175H34.5315C34.5315 46.6976 35.1698 47.3359 35.95 47.3359V49.499C35.1343 49.499 34.5315 50.1373 34.5315 50.9175Z" fill="#535A60"/>
<path d="M49.5315 50.9175H47.3684C47.3684 50.1373 46.7301 49.499 45.95 49.499V47.3359C46.7301 47.3359 47.3684 46.6976 47.3684 45.9175H49.5315C49.5315 46.6976 50.1698 47.3359 50.95 47.3359V49.499C50.1698 49.499 49.5315 50.1373 49.5315 50.9175Z" fill="#535A60"/>
<path d="M64.5315 50.9175H62.3684C62.3684 50.1373 61.7301 49.499 60.95 49.499V47.3359C61.7301 47.3359 62.3684 46.6976 62.3684 45.9175H64.5315C64.5315 46.6976 65.1698 47.3359 65.95 47.3359V49.499C65.1698 49.499 64.5315 50.1373 64.5315 50.9175Z" fill="#535A60"/>
<path d="M79.5315 50.9175H77.3684C77.3684 50.1373 76.7301 49.499 75.95 49.499V47.3359C76.7301 47.3359 77.3684 46.6976 77.3684 45.9175H79.5315C79.5315 46.6976 80.1698 47.3359 80.95 47.3359V49.499C80.1698 49.499 79.5315 50.1373 79.5315 50.9175Z" fill="#535A60"/>
<path d="M94.5315 50.9175H92.3684C92.3684 50.1373 91.7301 49.499 90.95 49.499V47.3359C91.7301 47.3359 92.3684 46.6976 92.3684 45.9175H94.5315C94.5315 46.6976 95.1698 47.3359 95.95 47.3359V49.499C95.1698 49.499 94.5315 50.1373 94.5315 50.9175Z" fill="#535A60"/>
<path d="M109.532 50.9175H107.368C107.368 50.1373 106.73 49.499 105.95 49.499V47.3359C106.73 47.3359 107.368 46.6976 107.368 45.9175H109.532C109.532 46.6976 110.17 47.3359 110.95 47.3359V49.499C110.17 49.499 109.532 50.1373 109.532 50.9175Z" fill="#535A60"/>
<path d="M4.53151 65.9175H2.36839C2.36839 65.1373 1.73009 64.499 0.949951 64.499L0.949951 62.3359C1.73009 62.3359 2.36839 61.6976 2.36839 60.9175H4.53151C4.53151 61.6976 5.16981 62.3359 5.94995 62.3359L5.94995 64.499C5.16981 64.499 4.53151 65.1373 4.53151 65.9175Z" fill="#535A60"/>
<path d="M19.5315 65.9175H17.3684C17.3684 65.1373 16.7301 64.499 15.95 64.499V62.3359C16.7301 62.3359 17.3684 61.6976 17.3684 60.9175H19.5315C19.5315 61.6976 20.1698 62.3359 20.95 62.3359V64.499C20.1698 64.499 19.5315 65.1373 19.5315 65.9175Z" fill="#535A60"/>
<path d="M34.5315 65.9175H32.3684C32.3684 65.1373 31.7301 64.499 30.95 64.499V62.3359C31.7301 62.3359 32.3684 61.6976 32.3684 60.9175H34.5315C34.5315 61.6976 35.1698 62.3359 35.95 62.3359V64.499C35.1343 64.499 34.5315 65.1373 34.5315 65.9175Z" fill="#535A60"/>
<path d="M49.5315 65.9175H47.3684C47.3684 65.1373 46.7301 64.499 45.95 64.499V62.3359C46.7301 62.3359 47.3684 61.6976 47.3684 60.9175H49.5315C49.5315 61.6976 50.1698 62.3359 50.95 62.3359V64.499C50.1698 64.499 49.5315 65.1373 49.5315 65.9175Z" fill="#535A60"/>
<path d="M64.5315 65.9175H62.3684C62.3684 65.1373 61.7301 64.499 60.95 64.499V62.3359C61.7301 62.3359 62.3684 61.6976 62.3684 60.9175H64.5315C64.5315 61.6976 65.1698 62.3359 65.95 62.3359V64.499C65.1698 64.499 64.5315 65.1373 64.5315 65.9175Z" fill="#535A60"/>
<path d="M79.5315 65.9175H77.3684C77.3684 65.1373 76.7301 64.499 75.95 64.499V62.3359C76.7301 62.3359 77.3684 61.6976 77.3684 60.9175H79.5315C79.5315 61.6976 80.1698 62.3359 80.95 62.3359V64.499C80.1698 64.499 79.5315 65.1373 79.5315 65.9175Z" fill="#535A60"/>
<path d="M94.5315 65.9175H92.3684C92.3684 65.1373 91.7301 64.499 90.95 64.499V62.3359C91.7301 62.3359 92.3684 61.6976 92.3684 60.9175H94.5315C94.5315 61.6976 95.1698 62.3359 95.95 62.3359V64.499C95.1698 64.499 94.5315 65.1373 94.5315 65.9175Z" fill="#535A60"/>
<path d="M109.532 65.9175H107.368C107.368 65.1373 106.73 64.499 105.95 64.499V62.3359C106.73 62.3359 107.368 61.6976 107.368 60.9175H109.532C109.532 61.6976 110.17 62.3359 110.95 62.3359V64.499C110.17 64.499 109.532 65.1373 109.532 65.9175Z" fill="#535A60"/>
<path d="M4.53151 80.9175H2.36839C2.36839 80.1373 1.73009 79.499 0.949951 79.499L0.949951 77.3359C1.73009 77.3359 2.36839 76.6976 2.36839 75.9175H4.53151C4.53151 76.6976 5.16981 77.3359 5.94995 77.3359L5.94995 79.499C5.16981 79.499 4.53151 80.1373 4.53151 80.9175Z" fill="#535A60"/>
<path d="M19.5315 80.9175H17.3684C17.3684 80.1373 16.7301 79.499 15.95 79.499V77.3359C16.7301 77.3359 17.3684 76.6976 17.3684 75.9175H19.5315C19.5315 76.6976 20.1698 77.3359 20.95 77.3359V79.499C20.1698 79.499 19.5315 80.1373 19.5315 80.9175Z" fill="#535A60"/>
<path d="M34.5315 80.9175H32.3684C32.3684 80.1373 31.7301 79.499 30.95 79.499V77.3359C31.7301 77.3359 32.3684 76.6976 32.3684 75.9175H34.5315C34.5315 76.6976 35.1698 77.3359 35.95 77.3359V79.499C35.1343 79.499 34.5315 80.1373 34.5315 80.9175Z" fill="#535A60"/>
<path d="M49.5315 80.9175H47.3684C47.3684 80.1373 46.7301 79.499 45.95 79.499V77.3359C46.7301 77.3359 47.3684 76.6976 47.3684 75.9175H49.5315C49.5315 76.6976 50.1698 77.3359 50.95 77.3359V79.499C50.1698 79.499 49.5315 80.1373 49.5315 80.9175Z" fill="#535A60"/>
<path d="M64.5315 80.9175H62.3684C62.3684 80.1373 61.7301 79.499 60.95 79.499V77.3359C61.7301 77.3359 62.3684 76.6976 62.3684 75.9175H64.5315C64.5315 76.6976 65.1698 77.3359 65.95 77.3359V79.499C65.1698 79.499 64.5315 80.1373 64.5315 80.9175Z" fill="#535A60"/>
<path d="M79.5315 80.9175H77.3684C77.3684 80.1373 76.7301 79.499 75.95 79.499V77.3359C76.7301 77.3359 77.3684 76.6976 77.3684 75.9175H79.5315C79.5315 76.6976 80.1698 77.3359 80.95 77.3359V79.499C80.1698 79.499 79.5315 80.1373 79.5315 80.9175Z" fill="#535A60"/>
<path d="M94.5315 80.9175H92.3684C92.3684 80.1373 91.7301 79.499 90.95 79.499V77.3359C91.7301 77.3359 92.3684 76.6976 92.3684 75.9175H94.5315C94.5315 76.6976 95.1698 77.3359 95.95 77.3359V79.499C95.1698 79.499 94.5315 80.1373 94.5315 80.9175Z" fill="#535A60"/>
<path d="M109.532 80.9175H107.368C107.368 80.1373 106.73 79.499 105.95 79.499V77.3359C106.73 77.3359 107.368 76.6976 107.368 75.9175H109.532C109.532 76.6976 110.17 77.3359 110.95 77.3359V79.499C110.17 79.499 109.532 80.1373 109.532 80.9175Z" fill="#535A60"/>
</svg>
