<svg width="934" height="463" viewBox="0 0 934 463" fill="none" xmlns="http://www.w3.org/2000/svg">
<path d="M0.524024 249.429L0.318359 253.954L139.049 260.259L139.255 255.734L0.524024 249.429Z" fill="#E6E6E6"/>
<path d="M80.2301 122.485L76.6074 125.205L177.324 259.354L180.947 256.635L80.2301 122.485Z" fill="#E6E6E6"/>
<path d="M732.156 109.473L735.093 112.922L863 4.02646L860.064 0.577354L732.156 109.473Z" fill="#E6E6E6"/>
<path d="M152.626 272.801L149.527 276.105L324.246 439.995L327.345 436.691L152.626 272.801Z" fill="#E6E6E6"/>
<path d="M709.612 132.387L707.069 136.137L922.718 282.352L925.261 278.602L709.612 132.387Z" fill="#E6E6E6"/>
<path d="M525.374 297.287L324.56 436.482L327.14 440.205L527.955 301.01L525.374 297.287Z" fill="#E6E6E6"/>
<path d="M371.998 92.5445L368.39 95.2827L516.682 290.72L520.291 287.982L371.998 92.5445Z" fill="#E6E6E6"/>
<path d="M139.195 260.136L138.767 264.646L526.424 301.445L526.852 296.935L139.195 260.136Z" fill="#E6E6E6"/>
<path d="M706.816 121.551L519.302 297.519L522.402 300.822L709.915 124.855L706.816 121.551Z" fill="#E6E6E6"/>
<path d="M522.075 297.245L519.603 301.041L767.692 462.595L770.164 458.799L522.075 297.245Z" fill="#E6E6E6"/>
<path d="M932.911 278.261L526.584 291.513L526.732 296.041L933.058 282.788L932.911 278.261Z" fill="#E6E6E6"/>
</svg>
