<svg width="52" height="50" viewBox="0 0 52 50" fill="none" xmlns="http://www.w3.org/2000/svg">
<g clip-path="url(#clip0)">
<path d="M44.7371 0H6.57926C4.39831 0 2.63184 1.76647 2.63184 3.94735L2.7075 28.9474H48.6845V3.94735C48.6846 1.76647 46.9181 0 44.7371 0Z" fill="#C2C2C2"/>
<path d="M47.3685 7.89474H3.94735C1.76647 7.89474 0 9.66122 0 11.8422C0 12.0264 0.0131876 12.2073 0.0361737 12.3816L2.63154 28.9474H48.6842L51.2796 12.3816C51.3026 12.204 51.3157 12.023 51.3157 11.8422C51.3158 9.66122 49.5493 7.89474 47.3685 7.89474Z" fill="#3367D6"/>
<path opacity="0.5" d="M47.3685 7.89474H3.94735C1.76647 7.89474 0 9.66122 0 11.8422C0 12.0264 0.0131876 12.2073 0.0361737 12.3816L2.63154 28.9474H48.6842L51.2796 12.3816C51.3026 12.204 51.3157 12.023 51.3157 11.8422C51.3158 9.66122 49.5493 7.89474 47.3685 7.89474Z" fill="#2A56C6"/>
<path d="M49.9898 45.7796L48.6838 28.9473H2.63116L1.3253 45.7796C1.31874 45.8717 1.31543 45.9605 1.31543 46.0526C1.31543 48.2335 3.0819 49.9999 5.26278 49.9999H46.0523C48.2332 49.9999 49.9996 48.2335 49.9996 46.0526C49.9996 45.9605 49.9964 45.8717 49.9898 45.7796Z" fill="#4285F4"/>
<path d="M2.63184 28.9473L23.6845 49.9999H50.0003V28.9473H2.63184Z" fill="url(#paint0_linear)"/>
<path d="M3.94735 8.2237H47.3685C49.5033 8.2237 51.2401 9.92106 51.3093 12.0395C51.3126 11.9737 51.3158 11.9079 51.3158 11.8421C51.3158 9.66114 49.5493 7.89474 47.3685 7.89474H3.94735C1.76647 7.89474 0 9.66121 0 11.8422C0 11.908 0.00331531 11.9737 0.00655694 12.0395C0.0756627 9.92106 1.81252 8.2237 3.94735 8.2237Z" fill="white" fill-opacity="0.2"/>
<path d="M46.0523 49.6709H5.26278C3.12795 49.6709 1.39109 47.9735 1.32199 45.8552C1.31867 45.921 1.31543 45.9867 1.31543 46.0525C1.31543 48.2335 3.0819 49.9998 5.26278 49.9998H46.0523C48.2332 49.9998 49.9996 48.2334 49.9996 46.0525C49.9996 45.9867 49.9963 45.921 49.9931 45.8552C49.924 47.9735 48.1872 49.6709 46.0523 49.6709Z" fill="#1A237E" fill-opacity="0.2"/>
<path d="M44.7371 0H6.57926C4.39831 0 2.63184 1.76647 2.63184 3.94735V4.25988C2.64171 2.08879 4.40486 0.328952 6.57926 0.328952H44.7372C46.9182 0.328952 48.6846 2.09542 48.6846 4.27631V3.94735C48.6846 1.76647 46.9181 0 44.7371 0Z" fill="white" fill-opacity="0.2"/>
<path d="M21.7959 28.6646C23.2925 28.0462 25.2202 26.4014 25.2202 23.9244C25.2202 20.1086 22.7695 17.7632 18.6412 17.7632C14.9636 17.7632 11.9998 20.1711 11.9472 23.6843H14.6182C14.6577 21.6317 16.0459 19.9442 18.638 19.9442C21.1347 19.9442 22.5426 21.2435 22.5426 23.8653C22.5426 26.487 20.5361 27.6975 18.0887 27.6975C17.1281 27.6975 16.2236 27.6975 16.2236 27.6975V29.7896C16.2236 29.7896 17.2565 29.7896 18.0887 29.7896C21.6873 29.7896 22.8716 31.6581 22.8716 33.8258C22.8716 36.6614 21.1479 37.9706 18.6512 37.9706C16.4769 37.9706 14.4966 36.8094 14.4374 34.2139H11.7466C11.8617 38.3948 15.3815 40.135 18.6512 40.135C22.4275 40.135 25.5426 37.9344 25.5426 33.7666C25.5492 30.4047 23.1544 29.0626 21.7959 28.6646ZM37.0656 17.7632L29.2761 20.5593V23.0725L34.8682 21.204V40.1316H37.4998V17.7632H37.0656Z" fill="#E1E1E1"/>
<g opacity="0.5">
<path opacity="0.5" d="M21.7959 28.6646C23.2925 28.0462 25.2202 26.4014 25.2202 23.9244C25.2202 20.1086 22.7695 17.7632 18.6412 17.7632C14.9636 17.7632 11.9998 20.1711 11.9472 23.6843H14.6182C14.6577 21.6317 16.0459 19.9442 18.638 19.9442C21.1347 19.9442 22.5426 21.2435 22.5426 23.8653C22.5426 26.487 20.5361 27.6975 18.0887 27.6975C17.1281 27.6975 16.2236 27.6975 16.2236 27.6975V29.7896C16.2236 29.7896 17.2565 29.7896 18.0887 29.7896C21.6873 29.7896 22.8716 31.6581 22.8716 33.8258C22.8716 36.6614 21.1479 37.9706 18.6512 37.9706C16.4769 37.9706 14.4966 36.8094 14.4374 34.2139H11.7466C11.8617 38.3948 15.3815 40.135 18.6512 40.135C22.4275 40.135 25.5426 37.9344 25.5426 33.7666C25.5492 30.4047 23.1544 29.0626 21.7959 28.6646ZM37.0656 17.7632L29.2761 20.5593V23.0725L34.8682 21.204V40.1316H37.4998V17.7632H37.0656Z" fill="#C2C2C2"/>
</g>
<path d="M21.7959 28.6646C23.2925 28.0462 25.2202 26.4014 25.2202 23.9244C25.2202 20.1086 22.7695 17.7632 18.6412 17.7632C14.9636 17.7632 11.9998 20.1711 11.9472 23.6843H14.6182C14.6577 21.6317 16.0459 19.9442 18.638 19.9442C21.1347 19.9442 22.5426 21.2435 22.5426 23.8653C22.5426 26.487 20.5361 27.6975 18.0887 27.6975C17.1281 27.6975 16.2236 27.6975 16.2236 27.6975V29.7896C16.2236 29.7896 17.2565 29.7896 18.0887 29.7896C21.6873 29.7896 22.8716 31.6581 22.8716 33.8258C22.8716 36.6614 21.1479 37.9706 18.6512 37.9706C16.4769 37.9706 14.4966 36.8094 14.4374 34.2139H11.7466C11.8617 38.3948 15.3815 40.135 18.6512 40.135C22.4275 40.135 25.5426 37.9344 25.5426 33.7666C25.5492 30.4047 23.1544 29.0626 21.7959 28.6646ZM37.0656 17.7632L29.2761 20.5593V23.0725L34.8682 21.204V40.1316H37.4998V17.7632H37.0656Z" fill="#EEEEEE"/>
<path d="M14.3125 7.89475L11.7632 5.34218L14.5527 2.55267L19.8981 7.89475H14.3125Z" fill="url(#paint1_linear)"/>
<path d="M13.1583 5.92112C14.2483 5.92112 15.132 5.03746 15.132 3.94741C15.132 2.85736 14.2483 1.97369 13.1583 1.97369C12.0682 1.97369 11.1846 2.85736 11.1846 3.94741C11.1846 5.03746 12.0682 5.92112 13.1583 5.92112Z" fill="#EEEEEE"/>
<path d="M13.1583 2.30365C14.1945 2.30365 15.0398 3.09969 15.1221 4.11285C15.1287 4.05693 15.132 4.00433 15.132 3.94841C15.132 2.85959 14.2471 1.9747 13.1583 1.9747C12.0695 1.9747 11.1846 2.85959 11.1846 3.94841C11.1846 4.00433 11.1879 4.05693 11.1944 4.11285C11.2767 3.09969 12.1221 2.30365 13.1583 2.30365Z" fill="white" fill-opacity="0.4"/>
<path d="M15.1221 4.11197C15.0399 5.12513 14.1912 5.92117 13.1583 5.92117C12.1254 5.92117 11.2767 5.12513 11.1944 4.11197C11.1879 4.16789 11.1846 4.22049 11.1846 4.27641C11.1846 5.36523 12.0695 6.25012 13.1583 6.25012C14.2471 6.25012 15.132 5.36523 15.132 4.27641C15.132 4.22049 15.1287 4.16789 15.1221 4.11197Z" fill="#212121" fill-opacity="0.1"/>
<path d="M49.0133 28.9473H2.30273V29.2762H49.0133V28.9473Z" fill="white" fill-opacity="0.05"/>
<path d="M49.0133 28.6185H2.30273V28.9474H49.0133V28.6185Z" fill="#1A237E" fill-opacity="0.05"/>
<path d="M39.3126 7.89475L36.7632 5.34218L39.5527 2.55267L43.5823 7.89475H39.3126Z" fill="url(#paint2_linear)"/>
<path d="M38.1593 5.92112C39.2493 5.92112 40.133 5.03746 40.133 3.94741C40.133 2.85736 39.2493 1.97369 38.1593 1.97369C37.0692 1.97369 36.1855 2.85736 36.1855 3.94741C36.1855 5.03746 37.0692 5.92112 38.1593 5.92112Z" fill="#EEEEEE"/>
<path d="M38.1593 2.30365C39.1955 2.30365 40.0408 3.09969 40.1231 4.11285C40.1264 4.05693 40.133 4.00433 40.133 3.94841C40.133 2.85959 39.2481 1.9747 38.1593 1.9747C37.0704 1.9747 36.1855 2.85959 36.1855 3.94841C36.1855 4.00433 36.1889 4.05693 36.1954 4.11285C36.2776 3.09969 37.123 2.30365 38.1593 2.30365Z" fill="white" fill-opacity="0.4"/>
<path d="M40.1222 4.11197C40.0399 5.12513 39.1912 5.92117 38.1583 5.92117C37.1254 5.92117 36.2767 5.12513 36.1944 4.11197C36.1911 4.16789 36.1846 4.22049 36.1846 4.27641C36.1846 5.36523 37.0695 6.25012 38.1583 6.25012C39.2471 6.25012 40.132 5.36523 40.132 4.27641C40.132 4.22049 40.1288 4.16789 40.1222 4.11197Z" fill="#212121" fill-opacity="0.1"/>
<path d="M51.3158 11.8421C51.3158 10.125 50.2171 8.66776 48.6843 8.12501V3.94735C48.6843 1.76647 46.9178 0 44.7368 0H6.57897C4.39801 0 2.63154 1.76647 2.63154 3.94735L2.64142 8.11838C1.10525 8.65789 0 10.1184 0 11.8421C0 12.0263 0.0131876 12.2073 0.0361737 12.3816L2.63154 28.9474L1.32568 45.7796C1.31912 45.8717 1.31581 45.9606 1.31581 46.0526C1.31581 48.2336 3.08228 50 5.26316 50H46.0526C48.2336 50 50 48.2335 50 46.0526C50 45.9606 49.9967 45.8717 49.9901 45.7796L48.6842 28.9474L51.2796 12.3816C51.3027 12.2073 51.3158 12.0263 51.3158 11.8421Z" fill="url(#paint3_radial)" fill-opacity="0.05"/>
</g>
<defs>
<linearGradient id="paint0_linear" x1="14.5773" y1="17.2141" x2="36.1451" y2="38.7818" gradientUnits="userSpaceOnUse">
<stop stop-color="#1A237E" stop-opacity="0.2"/>
<stop offset="1" stop-color="#1A237E" stop-opacity="0.02"/>
</linearGradient>
<linearGradient id="paint1_linear" x1="13.1248" y1="3.92099" x2="15.6838" y2="6.47995" gradientUnits="userSpaceOnUse">
<stop stop-color="#212121" stop-opacity="0.2"/>
<stop offset="1" stop-color="#212121" stop-opacity="0.02"/>
</linearGradient>
<linearGradient id="paint2_linear" x1="38.1245" y1="3.92477" x2="40.3684" y2="6.16864" gradientUnits="userSpaceOnUse">
<stop stop-color="#212121" stop-opacity="0.2"/>
<stop offset="1" stop-color="#212121" stop-opacity="0.02"/>
</linearGradient>
<radialGradient id="paint3_radial" cx="0" cy="0" r="1" gradientUnits="userSpaceOnUse" gradientTransform="translate(3.52328 1.1048) scale(65.8696)">
<stop offset="0.33" stop-color="white"/>
<stop offset="1" stop-color="white" stop-opacity="0"/>
</radialGradient>
<clipPath id="clip0">
<rect width="51.3158" height="50" fill="white"/>
</clipPath>
</defs>
</svg>
