<svg width="33" height="36" viewBox="0 0 33 36" fill="none" xmlns="http://www.w3.org/2000/svg">
<path d="M10.0312 0.208008H25.8654C28.0745 0.208008 29.8654 1.99887 29.8654 4.20801V31.208C29.8654 33.4171 28.0745 35.208 25.8654 35.208H10.0312V0.208008Z" fill="#35ABC9"/>
<path d="M7.92383 0.208008H6.50849C4.29935 0.208008 2.50849 1.99887 2.50849 4.20801V31.208C2.50849 33.4171 4.29935 35.208 6.50849 35.208H7.92383V0.208008Z" fill="#35ABC9"/>
<path d="M2.50879 5.80249H1.76521C0.817289 5.80249 0.0488501 6.57093 0.0488501 7.51885V7.51885C0.0488501 8.46676 0.817289 9.2352 1.76521 9.2352H2.50879V5.80249Z" fill="#C7D0DC"/>
<path d="M2.50879 12.7036H1.76521C0.817289 12.7036 0.0488501 13.4721 0.0488501 14.42V14.42C0.0488501 15.3679 0.817289 16.1363 1.76521 16.1363H2.50879V12.7036Z" fill="#C7D0DC"/>
<path d="M2.50879 19.6052H1.76521C0.817289 19.6052 0.0488501 20.3737 0.0488501 21.3216V21.3216C0.0488501 22.2695 0.817289 23.0379 1.76521 23.0379H2.50879V19.6052Z" fill="#C7D0DC"/>
<path d="M2.50879 26.0129H1.76521C0.817289 26.0129 0.0488501 26.7814 0.0488501 27.7293V27.7293C0.0488501 28.6772 0.817289 29.4457 1.76521 29.4457H2.50879V26.0129Z" fill="#C7D0DC"/>
<path d="M29.8652 5.13892H30.3909C31.4955 5.13892 32.3909 6.03435 32.3909 7.13892V8.88362C32.3909 9.98819 31.4955 10.8836 30.3909 10.8836H29.8652V5.13892Z" fill="#F67773"/>
<path d="M29.8652 12.7036H30.3909C31.4955 12.7036 32.3909 13.599 32.3909 14.7036V16.4483C32.3909 17.5529 31.4955 18.4483 30.3909 18.4483H29.8652V12.7036Z" fill="#8AA800"/>
<path d="M29.8652 20.2683H30.3909C31.4955 20.2683 32.3909 21.1637 32.3909 22.2683V24.013C32.3909 25.1176 31.4955 26.013 30.3909 26.013H29.8652V20.2683Z" fill="#F4A354"/>
<circle cx="19.9483" cy="11.7493" r="3.40631" fill="white"/>
<path d="M17.5006 17.5864C18.6963 15.8992 21.2003 15.8992 22.396 17.5864L24.2579 20.2137C25.6658 22.2004 24.2452 24.9483 21.8102 24.9483H18.0864C15.6514 24.9483 14.2308 22.2004 15.6388 20.2137L17.5006 17.5864Z" fill="white"/>
</svg>
