<svg width="37" height="50" viewBox="0 0 37 50" fill="none" xmlns="http://www.w3.org/2000/svg">
<mask id="mask0" mask-type="alpha" maskUnits="userSpaceOnUse" x="0" y="0" width="36" height="50">
<path d="M22.699 0.71521H3.93345C2.11209 0.71521 0.621887 2.20542 0.621887 4.02678V45.9733C0.621887 47.7947 2.11209 49.2849 3.93345 49.2849H32.6337C34.4551 49.2849 35.9453 47.7947 35.9453 45.9733V13.9615L22.699 0.71521Z" fill="white"/>
</mask>
<g mask="url(#mask0)">
<path d="M22.699 0.71521H3.93345C2.11209 0.71521 0.621887 2.20542 0.621887 4.02678V45.9733C0.621887 47.7947 2.11209 49.2849 3.93345 49.2849H32.6337C34.4551 49.2849 35.9453 47.7947 35.9453 45.9733V13.9615L28.2183 8.4422L22.699 0.71521Z" fill="#0F9D58"/>
</g>
<mask id="mask1" mask-type="alpha" maskUnits="userSpaceOnUse" x="0" y="0" width="36" height="50">
<path d="M22.699 0.71521H3.93345C2.11209 0.71521 0.621887 2.20542 0.621887 4.02678V45.9733C0.621887 47.7947 2.11209 49.2849 3.93345 49.2849H32.6337C34.4551 49.2849 35.9453 47.7947 35.9453 45.9733V13.9615L22.699 0.71521Z" fill="white"/>
</mask>
<g mask="url(#mask1)">
<path d="M9.45276 24.4481V40.454H27.1144V24.4481H9.45276ZM17.1797 38.2463H11.6605V35.4867H17.1797V38.2463ZM17.1797 33.8309H11.6605V31.0713H17.1797V33.8309ZM17.1797 29.4155H11.6605V26.6558H17.1797V29.4155ZM24.9067 38.2463H19.3875V35.4867H24.9067V38.2463ZM24.9067 33.8309H19.3875V31.0713H24.9067V33.8309ZM24.9067 29.4155H19.3875V26.6558H24.9067V29.4155Z" fill="#F1F1F1"/>
</g>
<mask id="mask2" mask-type="alpha" maskUnits="userSpaceOnUse" x="0" y="0" width="36" height="50">
<path d="M22.699 0.71521H3.93345C2.11209 0.71521 0.621887 2.20542 0.621887 4.02678V45.9733C0.621887 47.7947 2.11209 49.2849 3.93345 49.2849H32.6337C34.4551 49.2849 35.9453 47.7947 35.9453 45.9733V13.9615L22.699 0.71521Z" fill="white"/>
</mask>
<g mask="url(#mask2)">
<path d="M23.6676 12.9928L35.9452 25.2677V13.9615L23.6676 12.9928Z" fill="url(#paint0_linear)"/>
</g>
<mask id="mask3" mask-type="alpha" maskUnits="userSpaceOnUse" x="0" y="0" width="36" height="50">
<path d="M22.699 0.71521H3.93345C2.11209 0.71521 0.621887 2.20542 0.621887 4.02678V45.9733C0.621887 47.7947 2.11209 49.2849 3.93345 49.2849H32.6337C34.4551 49.2849 35.9453 47.7947 35.9453 45.9733V13.9615L22.699 0.71521Z" fill="white"/>
</mask>
<g mask="url(#mask3)">
<path d="M22.699 0.71521V10.6499C22.699 12.4796 24.181 13.9615 26.0106 13.9615H35.9453L22.699 0.71521Z" fill="#87CEAC"/>
</g>
<mask id="mask4" mask-type="alpha" maskUnits="userSpaceOnUse" x="0" y="0" width="36" height="50">
<path d="M22.699 0.71521H3.93345C2.11209 0.71521 0.621887 2.20542 0.621887 4.02678V45.9733C0.621887 47.7947 2.11209 49.2849 3.93345 49.2849H32.6337C34.4551 49.2849 35.9453 47.7947 35.9453 45.9733V13.9615L22.699 0.71521Z" fill="white"/>
</mask>
<g mask="url(#mask4)">
<path d="M3.93345 0.71521C2.11209 0.71521 0.621887 2.20542 0.621887 4.02678V4.30274C0.621887 2.48138 2.11209 0.991174 3.93345 0.991174H22.699V0.71521H3.93345Z" fill="white" fill-opacity="0.2"/>
</g>
<mask id="mask5" mask-type="alpha" maskUnits="userSpaceOnUse" x="0" y="0" width="36" height="50">
<path d="M22.699 0.71521H3.93345C2.11209 0.71521 0.621887 2.20542 0.621887 4.02678V45.9733C0.621887 47.7947 2.11209 49.2849 3.93345 49.2849H32.6337C34.4551 49.2849 35.9453 47.7947 35.9453 45.9733V13.9615L22.699 0.71521Z" fill="white"/>
</mask>
<g mask="url(#mask5)">
<path d="M32.6337 49.0089H3.93345C2.11209 49.0089 0.621887 47.5187 0.621887 45.6973V45.9733C0.621887 47.7946 2.11209 49.2849 3.93345 49.2849H32.6337C34.4551 49.2849 35.9453 47.7946 35.9453 45.9733V45.6973C35.9453 47.5187 34.4551 49.0089 32.6337 49.0089Z" fill="#263238" fill-opacity="0.2"/>
</g>
<mask id="mask6" mask-type="alpha" maskUnits="userSpaceOnUse" x="0" y="0" width="36" height="50">
<path d="M22.699 0.71521H3.93345C2.11209 0.71521 0.621887 2.20542 0.621887 4.02678V45.9733C0.621887 47.7947 2.11209 49.2849 3.93345 49.2849H32.6337C34.4551 49.2849 35.9453 47.7947 35.9453 45.9733V13.9615L22.699 0.71521Z" fill="white"/>
</mask>
<g mask="url(#mask6)">
<path d="M26.0106 13.9615C24.181 13.9615 22.699 12.4795 22.699 10.6499V10.9259C22.699 12.7555 24.181 14.2374 26.0106 14.2374H35.9453V13.9615H26.0106Z" fill="#263238" fill-opacity="0.1"/>
</g>
<path d="M22.699 0.71521H3.93345C2.11209 0.71521 0.621887 2.20542 0.621887 4.02678V45.9733C0.621887 47.7947 2.11209 49.2849 3.93345 49.2849H32.6337C34.4551 49.2849 35.9453 47.7947 35.9453 45.9733V13.9615L22.699 0.71521Z" fill="url(#paint1_radial)"/>
<defs>
<linearGradient id="paint0_linear" x1="29.8071" y1="14.0468" x2="29.8071" y2="25.2694" gradientUnits="userSpaceOnUse">
<stop stop-color="#263238" stop-opacity="0.2"/>
<stop offset="1" stop-color="#263238" stop-opacity="0.02"/>
</linearGradient>
<radialGradient id="paint1_radial" cx="0" cy="0" r="1" gradientUnits="userSpaceOnUse" gradientTransform="translate(1.74095 1.68063) scale(56.9584)">
<stop stop-color="white" stop-opacity="0.1"/>
<stop offset="1" stop-color="white" stop-opacity="0"/>
</radialGradient>
</defs>
</svg>
