<svg width="69" height="72" viewBox="0 0 69 72" fill="none" xmlns="http://www.w3.org/2000/svg">
<path d="M32.1914 61.6596H8.25195C4.93824 61.6596 2.25195 58.9733 2.25195 55.6596V7.78076C2.25195 4.46705 4.93824 1.78076 8.25195 1.78076H56.1308C59.4446 1.78076 62.1308 4.46705 62.1308 7.78076V31.7202" stroke="#FB7448" stroke-width="3"/>
<line x1="4.24805" y1="24.2319" x2="60.135" y2="24.2319" stroke="#FB7448" stroke-width="3"/>
<circle cx="13.2303" cy="12.7586" r="2.99394" fill="#FB7448"/>
<ellipse cx="21.2137" cy="12.7586" rx="2.99394" ry="2.99394" fill="#FB7448"/>
<line x1="21.7158" y1="21.7407" x2="21.7158" y2="61.66" stroke="#FB7448" stroke-width="3"/>
<line x1="41.6748" y1="14.2524" x2="54.6425" y2="14.2524" stroke="#FB7448" stroke-width="3" stroke-linecap="round"/>
<path fill-rule="evenodd" clip-rule="evenodd" d="M45.6949 44.0051L67.4956 57.0296C68.5722 57.7151 68.1685 59.3603 66.9573 59.4974L56.057 61.2796L50.6741 71.1508C50.1358 72.1105 48.5209 71.9734 48.3864 70.7395L43.6763 45.3761C43.5417 44.2793 44.7529 43.4567 45.6949 44.0051Z" fill="#FB7448"/>
<path fill-rule="evenodd" clip-rule="evenodd" d="M37.4847 32.3517L41.5219 38.1099C42.1947 39.2067 40.5799 40.4406 39.7724 39.3438L35.8698 33.5856C35.0624 32.4888 36.8118 31.2549 37.4847 32.3517Z" fill="#FB7448"/>
<path fill-rule="evenodd" clip-rule="evenodd" d="M47.5774 30.9808L46.3663 37.8358C46.0971 39.2068 44.2131 38.7955 44.3477 37.5616L45.5588 30.5695C45.828 29.1985 47.8466 29.6098 47.5774 30.9808Z" fill="#FB7448"/>
<path fill-rule="evenodd" clip-rule="evenodd" d="M55.6517 37.1503L50.1342 41.2633C48.9231 41.9488 47.8465 40.3036 48.9231 39.481L54.5751 35.5051C55.6517 34.6825 56.8629 36.4648 55.6517 37.1503Z" fill="#FB7448"/>
<path fill-rule="evenodd" clip-rule="evenodd" d="M31.4288 40.715L38.1575 41.9489C39.5032 42.086 39.0995 44.1425 37.8883 43.8683L31.0251 42.7715C29.6794 42.4973 30.0831 40.4408 31.4288 40.715Z" fill="#FB7448"/>
<path fill-rule="evenodd" clip-rule="evenodd" d="M32.776 50.9963L38.428 46.8833C39.5046 46.1978 40.7157 47.843 39.6392 48.6656L33.9871 52.6415C32.9105 53.4641 31.6994 51.6818 32.776 50.9963Z" fill="#FB7448"/>
</svg>
