<svg width="35" height="40" viewBox="0 0 35 40" fill="none" xmlns="http://www.w3.org/2000/svg">
<g clip-path="url(#clip0)">
<path d="M17.1963 0C7.69909 0 0 7.51393 0 16.7828C0 26.0517 7.69909 33.5656 17.1963 33.5656L17.2329 39.8839C26.0687 34.8643 34.4719 28.1642 34.4719 16.7828C34.4719 7.51393 26.6936 0 17.1963 0Z" fill="url(#paint0_linear)"/>
<g filter="url(#filter0_i)">
<path d="M17.1963 0C7.69909 0 0 7.51393 0 16.7828C0 26.0517 7.69909 33.5656 17.1963 33.5656L17.2329 39.8839C26.0687 34.8643 34.4719 28.1642 34.4719 16.7828C34.4719 7.51393 26.6936 0 17.1963 0Z" fill="#058D80"/>
</g>
<g filter="url(#filter1_i)">
<path d="M17.1963 0C7.69909 0 0 7.51393 0 16.7828C0 26.0517 7.69909 33.5656 17.1963 33.5656L17.2329 39.8839C26.0687 34.8643 34.4719 28.1642 34.4719 16.7828C34.4719 7.51393 26.6936 0 17.1963 0Z" fill="#058D80"/>
</g>
<mask id="mask0" mask-type="alpha" maskUnits="userSpaceOnUse" x="0" y="0" width="35" height="40">
<path d="M17.1963 0C7.69909 0 0 7.51393 0 16.7828C0 26.0517 7.69909 33.5656 17.1963 33.5656L17.2329 39.8839C26.0687 34.8643 34.4719 28.1642 34.4719 16.7828C34.4719 7.51393 26.6936 0 17.1963 0Z" fill="white"/>
</mask>
<g mask="url(#mask0)">
<path d="M7.85425 22.7016L22.5394 37.8834L42.006 23.6523L27.9381 11.0032L24.9302 16.1577L7.85425 22.7016Z" fill="url(#paint1_linear)" fill-opacity="0.21"/>
</g>
<g filter="url(#filter2_d)">
<path d="M7.4856 17.2533V21.8645C7.4856 23.0819 8.48163 24.0779 9.69901 24.0779H21.149C22.3664 24.0779 23.3624 23.0819 23.3624 21.8645V18.9523L27.8956 23.4856V17.2533H7.4856Z" fill="black"/>
</g>
<path d="M7.4856 17.2533V21.8645C7.4856 23.0819 8.48163 24.0779 9.69901 24.0779H21.149C22.3664 24.0779 23.3624 23.0819 23.3624 21.8645V18.9523L27.8956 23.4856V17.2533H7.4856Z" fill="#F6F6F6"/>
<path d="M27.8956 17.2533V11.0032L23.3624 15.5268V12.642C23.3624 11.4246 22.3664 10.4286 21.149 10.4286H9.69901C8.48163 10.4286 7.4856 11.4246 7.4856 12.642V17.2533H27.8956Z" fill="#E2E2E2"/>
</g>
<defs>
<filter id="filter0_i" x="0" y="0" width="34.4719" height="41.8839" filterUnits="userSpaceOnUse" color-interpolation-filters="sRGB">
<feFlood flood-opacity="0" result="BackgroundImageFix"/>
<feBlend mode="normal" in="SourceGraphic" in2="BackgroundImageFix" result="shape"/>
<feColorMatrix in="SourceAlpha" type="matrix" values="0 0 0 0 0 0 0 0 0 0 0 0 0 0 0 0 0 0 127 0" result="hardAlpha"/>
<feOffset dy="2"/>
<feGaussianBlur stdDeviation="2"/>
<feComposite in2="hardAlpha" operator="arithmetic" k2="-1" k3="1"/>
<feColorMatrix type="matrix" values="0 0 0 0 1 0 0 0 0 1 0 0 0 0 1 0 0 0 0.2 0"/>
<feBlend mode="normal" in2="shape" result="effect1_innerShadow"/>
</filter>
<filter id="filter1_i" x="0" y="-2" width="34.4719" height="41.8839" filterUnits="userSpaceOnUse" color-interpolation-filters="sRGB">
<feFlood flood-opacity="0" result="BackgroundImageFix"/>
<feBlend mode="normal" in="SourceGraphic" in2="BackgroundImageFix" result="shape"/>
<feColorMatrix in="SourceAlpha" type="matrix" values="0 0 0 0 0 0 0 0 0 0 0 0 0 0 0 0 0 0 127 0" result="hardAlpha"/>
<feOffset dy="-2"/>
<feGaussianBlur stdDeviation="2"/>
<feComposite in2="hardAlpha" operator="arithmetic" k2="-1" k3="1"/>
<feColorMatrix type="matrix" values="0 0 0 0 0 0 0 0 0 0 0 0 0 0 0 0 0 0 0.1 0"/>
<feBlend mode="normal" in2="shape" result="effect1_innerShadow"/>
</filter>
<filter id="filter2_d" x="4.4856" y="16.2533" width="28.41" height="14.8247" filterUnits="userSpaceOnUse" color-interpolation-filters="sRGB">
<feFlood flood-opacity="0" result="BackgroundImageFix"/>
<feColorMatrix in="SourceAlpha" type="matrix" values="0 0 0 0 0 0 0 0 0 0 0 0 0 0 0 0 0 0 127 0" result="hardAlpha"/>
<feOffset dx="1" dy="3"/>
<feGaussianBlur stdDeviation="2"/>
<feColorMatrix type="matrix" values="0 0 0 0 0 0 0 0 0 0 0 0 0 0 0 0 0 0 0.1 0"/>
<feBlend mode="normal" in2="BackgroundImageFix" result="effect1_dropShadow"/>
<feBlend mode="normal" in="SourceGraphic" in2="effect1_dropShadow" result="shape"/>
</filter>
<linearGradient id="paint0_linear" x1="8.98686" y1="27.1379" x2="28.2696" y2="10.5112" gradientUnits="userSpaceOnUse">
<stop stop-color="#058D80"/>
<stop offset="1" stop-color="#058D7F"/>
</linearGradient>
<linearGradient id="paint1_linear" x1="18.1163" y1="18.3421" x2="31.3649" y2="36.9412" gradientUnits="userSpaceOnUse">
<stop/>
<stop offset="1" stop-color="#D8D8D8" stop-opacity="0"/>
</linearGradient>
<clipPath id="clip0">
<rect width="34.4781" height="40" fill="white"/>
</clipPath>
</defs>
</svg>
