<svg width="44" height="50" viewBox="0 0 44 50" fill="none" xmlns="http://www.w3.org/2000/svg">
<g clip-path="url(#clip0)">
<path d="M38.3195 9.81852C38.2851 9.56852 38.0661 9.43016 37.8851 9.41492C37.7044 9.39985 33.8811 9.11646 33.8811 9.11646C33.8811 9.11646 31.2258 6.48033 30.9344 6.18854C30.6428 5.89693 30.0733 5.98563 29.8522 6.0507C29.8197 6.06029 29.2721 6.2293 28.3662 6.50961C27.4793 3.9572 25.9139 1.61165 23.1599 1.61165C23.0839 1.61165 23.0056 1.61473 22.9274 1.61918C22.1442 0.583393 21.174 0.133392 20.3359 0.133392C13.9207 0.133392 10.8558 8.1531 9.89485 12.2285C7.40204 13.0009 5.63115 13.55 5.40495 13.6211C4.01351 14.0576 3.9695 14.1014 3.7868 15.4125C3.6493 16.4052 0.00854492 44.5609 0.00854492 44.5609L28.3781 49.8763L43.7496 46.551C43.7496 46.551 38.3536 10.0685 38.3197 9.81852H38.3195ZM26.7983 6.99454L24.3978 7.73752C24.3986 7.56834 24.3995 7.4019 24.3995 7.21988C24.3995 5.63358 24.1793 4.35635 23.826 3.34385C25.245 3.52193 26.1901 5.13649 26.7983 6.99454ZM22.0657 3.6584C22.4603 4.64693 22.7168 6.0656 22.7168 7.97999C22.7168 8.07793 22.7159 8.16749 22.7151 8.25807C21.1539 8.74163 19.4575 9.26663 17.7573 9.79335C18.712 6.10909 20.5014 4.32964 22.0657 3.6584V3.6584ZM20.1597 1.85412C20.4366 1.85412 20.7156 1.94812 20.9825 2.13186C18.9265 3.09932 16.7228 5.53597 15.7921 10.4019L11.8733 11.6156C12.9633 7.90413 15.5517 1.85412 20.1596 1.85412H20.1597Z" fill="#95BF46"/>
<path d="M37.8853 9.4149C37.7046 9.39983 33.8813 9.11644 33.8813 9.11644C33.8813 9.11644 31.226 6.4803 30.9346 6.18852C30.8255 6.07996 30.6784 6.02431 30.5247 6.00034L28.3796 49.8759L43.7498 46.5509C43.7498 46.5509 38.3536 10.0685 38.3197 9.81849C38.2853 9.56849 38.0662 9.43014 37.8853 9.4149" fill="#5E8E3E"/>
<path d="M23.1602 17.9084L21.2648 23.5464C21.2648 23.5464 19.6042 22.6601 17.5686 22.6601C14.5843 22.6601 14.4342 24.5329 14.4342 25.0048C14.4342 27.5798 21.1465 28.5664 21.1465 34.5979C21.1465 39.3433 18.1367 42.3989 14.0785 42.3989C9.20866 42.3989 6.71826 39.3681 6.71826 39.3681L8.02219 35.0599C8.02219 35.0599 10.5821 37.2577 12.7422 37.2577C14.1537 37.2577 14.7278 36.1464 14.7278 35.3344C14.7278 31.9755 9.22099 31.8257 9.22099 26.3063C9.22099 21.661 12.5552 17.1656 19.2857 17.1656C21.879 17.1656 23.1602 17.9084 23.1602 17.9084" fill="white"/>
</g>
<defs>
<clipPath id="clip0">
<rect width="43.84" height="50" fill="white"/>
</clipPath>
</defs>
</svg>
