<svg width="19" height="19" viewBox="0 0 19 19" fill="none" xmlns="http://www.w3.org/2000/svg">
<g clip-path="url(#clip0)">
<path d="M9.48246 0.946777C6.61905 0.946777 4.28949 3.27637 4.28949 6.13974C4.28949 7.91334 5.18348 9.48187 6.54431 10.4191C5.2738 10.8575 4.10928 11.5818 3.13095 12.5601C1.43435 14.2567 0.5 16.5124 0.5 18.9117H1.90351C1.90351 14.7326 5.3034 11.3327 9.48246 11.3327C12.3459 11.3327 14.6754 9.00315 14.6754 6.13974C14.6754 3.27634 12.3459 0.946777 9.48246 0.946777ZM9.48246 9.92924C7.39295 9.92924 5.693 8.22929 5.693 6.13978C5.693 4.05027 7.39295 2.35029 9.48246 2.35029C11.572 2.35029 13.2719 4.05023 13.2719 6.13978C13.2719 8.22933 11.572 9.92924 9.48246 9.92924Z" fill="white"/>
<path d="M15.5526 14.5597V11.6123H14.1491V14.5597H11.2017V15.9632H14.1491V18.9106H15.5526V15.9632H18.4999V14.5597H15.5526Z" fill="white"/>
</g>
<defs>
<clipPath id="clip0">
<rect width="18" height="18" fill="white" transform="translate(0.5 0.928223)"/>
</clipPath>
</defs>
</svg>
