<svg width="30" height="31" viewBox="0 0 30 31" fill="none" xmlns="http://www.w3.org/2000/svg">
<g clip-path="url(#clip0)">
<path d="M6.39792 12.4538C6.59175 13.1362 6.86737 13.7948 7.21735 14.412C6.70413 14.9419 6.70091 15.7952 7.2364 16.327L8.7255 17.8058C9.25442 18.3309 10.1139 18.336 10.6492 17.8201C11.2689 18.1658 11.9295 18.4368 12.6133 18.6259C12.6216 19.3662 13.23 19.9663 13.9792 19.9662H13.9842L16.0887 19.9589C16.8318 19.9563 17.4463 19.3601 17.4502 18.6089C18.1326 18.4151 18.7912 18.1395 19.4084 17.7894C19.9443 18.306 20.7982 18.2994 21.3257 17.7681L22.8106 16.2727C23.3416 15.738 23.3341 14.8839 22.8166 14.3574C23.1624 13.7377 23.4333 13.0772 23.6223 12.3935C24.3648 12.3854 24.9652 11.7738 24.9626 11.0226L24.9553 8.9181C24.9527 8.16716 24.3479 7.55907 23.6053 7.55661C23.4116 6.87417 23.136 6.21563 22.7859 5.59829C23.3008 5.06169 23.292 4.20487 22.7626 3.67917L21.2649 2.19188C20.7308 1.66144 19.8744 1.67134 19.3538 2.19024C18.7342 1.84454 18.0737 1.5736 17.39 1.38458C17.3821 0.644131 16.7733 0.0441895 16.024 0.0441895C16.0224 0.0441895 16.0207 0.0441895 16.0191 0.0441895L13.9145 0.0515137C13.154 0.054209 12.5538 0.67085 12.5531 1.40151C11.8707 1.59528 11.212 1.87091 10.5948 2.22095C10.0582 1.70603 9.20134 1.71487 8.67552 2.24427L7.19468 3.7356C6.66745 4.26646 6.66552 5.11964 7.18671 5.6529C6.84089 6.27276 6.56995 6.93323 6.38099 7.61685C5.63878 7.62464 5.03802 8.23618 5.0406 8.98771L5.04798 11.0922C5.05062 11.8437 5.65554 12.4505 6.39792 12.4538ZM6.39675 8.49569H6.39798L6.41567 8.49564C6.79144 8.49136 7.12296 8.2356 7.22192 7.87366C7.39448 7.24214 7.64474 6.63224 7.9656 6.06089C8.14735 5.73733 8.09521 5.32677 7.83962 5.06321C7.83435 5.05776 7.82901 5.05231 7.82368 5.04698C7.82269 5.04599 7.82175 5.04505 7.82075 5.04405C7.63009 4.85474 7.62903 4.5456 7.81835 4.35493L9.29913 2.86366C9.48868 2.67288 9.79823 2.67083 9.99118 2.85997C9.99224 2.86103 9.99323 2.86208 9.99435 2.86313C10.2636 3.12845 10.6852 3.18077 11.0196 2.99052C11.5853 2.66872 12.1897 2.41642 12.816 2.24058C13.177 2.13921 13.4303 1.80599 13.432 1.42835V1.41147C13.4295 1.14587 13.651 0.931357 13.9176 0.930479L16.0222 0.923096H16.0239C16.2905 0.923096 16.5118 1.13573 16.5111 1.40163C16.5111 1.8255 16.7833 2.12995 17.1323 2.22522C17.7643 2.3979 18.3745 2.64815 18.9461 2.96925C19.2694 3.15077 19.6797 3.0988 19.9447 2.84222C19.9505 2.83964 20.302 2.47466 20.6455 2.8155L22.1433 4.30278C22.3345 4.49269 22.3361 4.80312 22.1474 4.99419C21.8632 5.28206 21.8311 5.6986 22.0099 6.01179C22.3349 6.58091 22.5894 7.18935 22.7664 7.82005C22.8653 8.17249 23.1764 8.44167 23.6002 8.43546C23.8612 8.43546 24.0755 8.65355 24.0764 8.92114L24.0837 11.0257C24.0854 11.5061 23.593 11.5122 23.5872 11.5147C23.2116 11.5191 22.8803 11.7748 22.7814 12.1364C22.6088 12.7682 22.3585 13.3784 22.0376 13.9497C21.8559 14.2729 21.9079 14.6831 22.1625 14.9459C22.3965 15.1891 22.3607 15.4784 22.1871 15.6534L20.702 17.1488C20.5125 17.3397 20.204 17.3409 20.0129 17.1512C19.7443 16.8789 19.3226 16.8263 18.9953 17.0132C18.4262 17.3381 17.8179 17.5927 17.1873 17.7698C16.8263 17.8711 16.573 18.2043 16.5713 18.582L16.5713 18.5988C16.5738 18.8634 16.3534 19.0789 16.0857 19.0798L13.9811 19.0872C13.9805 19.0872 13.98 19.0872 13.9794 19.0872C13.723 19.0872 13.5046 18.9162 13.4912 18.5541C13.4772 18.1916 13.2278 17.8825 12.8705 17.7849C12.2388 17.6123 11.6289 17.3621 11.0577 17.0413C10.9288 16.9689 10.7861 16.9336 10.6442 16.9336C10.4294 16.9336 10.2225 17.0096 10.0436 17.1829C9.85062 17.3734 9.53714 17.3728 9.34478 17.1819L7.85573 15.7033C7.66905 15.5178 7.66091 15.2111 7.85585 15.0161L7.87401 14.9975C8.12825 14.7315 8.17741 14.3208 7.99349 13.9986C7.66847 13.4295 7.41388 12.821 7.23687 12.1901C7.13696 11.8342 6.82653 11.5871 6.46407 11.5754C6.44521 11.5748 6.4261 11.5746 6.40794 11.5747C6.14017 11.5762 5.92794 11.3548 5.927 11.0891L5.91962 8.98454C5.91862 8.71987 6.1288 8.49569 6.39675 8.49569Z" fill="#171717"/>
<path d="M15.0013 16.1704H15.0232C18.0732 16.1597 20.6159 13.9285 21.0883 10.9916C21.1269 10.752 20.9639 10.5265 20.7243 10.488C20.4843 10.4492 20.2591 10.6124 20.2206 10.852C19.8159 13.3666 17.6375 15.2823 15.0201 15.2915C15.0137 15.2915 15.0077 15.2915 15.0013 15.2915C14.2416 15.2915 13.5187 15.1299 12.8648 14.8398L13.0095 14.6952C13.6119 14.0927 14.4173 13.736 15.277 13.6909C15.2938 13.6868 16.6675 13.6804 17.7586 12.5895C18.7174 11.6306 19.0892 10.2219 18.7289 8.91314C18.581 8.37595 17.9093 8.19671 17.515 8.59104L15.7594 10.3466C15.6367 10.4694 15.438 10.4694 15.3153 10.3466L14.6603 9.69161C14.5375 9.56886 14.5375 9.37022 14.6603 9.24741L16.4159 7.49183C16.8098 7.0979 16.6314 6.42612 16.0937 6.278C14.785 5.91776 13.3763 6.28948 12.4174 7.24837C11.7599 7.90591 11.3692 8.77884 11.3173 9.70673C11.3136 9.72237 11.3055 11.0036 10.3117 11.9975L10.1671 12.1421C9.87943 11.4937 9.71806 10.7772 9.71543 10.0237C9.70523 7.10886 12.0683 4.72919 14.9832 4.71899H15.0018C17.5178 4.71899 19.6967 6.50364 20.1864 8.96886C20.2337 9.20687 20.465 9.36144 20.703 9.31427C20.9411 9.26698 21.0957 9.03566 21.0485 8.79759C20.4772 5.92175 17.9362 3.84009 15.0018 3.84009C14.9946 3.84009 14.9873 3.84009 14.9801 3.84009C11.5806 3.85198 8.82463 6.62733 8.83646 10.0268C8.84836 13.4108 11.6034 16.1704 15.0013 16.1704ZM10.9332 12.6189C12.1762 11.3758 12.1907 9.77259 12.1948 9.75542C12.2346 9.04398 12.5343 8.37431 13.0388 7.86981C13.7111 7.19757 14.6714 6.90144 15.5985 7.06614L14.0387 8.62591C13.5736 9.09103 13.5736 9.84788 14.0387 10.3131L14.6937 10.9681C15.1589 11.4332 15.9157 11.4332 16.3809 10.9681L17.9407 9.40831C18.1055 10.3353 17.8093 11.2957 17.1371 11.968C16.2954 12.8096 15.2496 12.8087 15.2313 12.8132C14.154 12.8698 13.1443 13.3175 12.388 14.0737L12.0639 14.3978C11.4896 14.0124 10.9947 13.5174 10.6092 12.943L10.9332 12.6189Z" fill="#EC595A"/>
<path d="M28.5993 22.4006C28.0589 21.6063 27.1431 21.4119 26.1484 21.8798L19.141 24.9652C19.1445 24.3755 19.1471 24.4008 19.143 24.3589C19.0215 23.1371 18.0875 22.1637 16.8719 21.9917C16.8681 21.9912 16.8643 21.9906 16.8606 21.9902L12.2176 21.4556C11.235 21.3156 10.7549 20.9892 9.84027 20.4543C8.52097 19.6825 7.01892 19.2693 5.49138 19.2553V19.0209C5.49138 18.3384 4.93609 17.7832 4.25365 17.7832H2.32697C1.64453 17.7832 1.08923 18.3384 1.08923 19.0209V28.2628C1.08923 28.9453 1.64453 29.5005 2.32697 29.5005H4.25365C4.93609 29.5005 5.49138 28.9453 5.49138 28.2628V28.1716L9.66759 29.7261C10.2346 29.9371 10.8288 30.0441 11.4338 30.0441H17.6961C19.8338 30.0441 20.2975 29.1495 28.2283 24.8336C28.7733 24.5259 29.2433 23.347 28.5993 22.4006ZM27.7511 24.0937C19.7774 28.4604 19.4523 29.1652 17.6961 29.1652H11.4338C10.9339 29.1652 10.4428 29.0768 9.97421 28.9024L5.49138 27.2338V23.5912C5.49138 23.3485 5.29468 23.1517 5.05193 23.1517C4.80918 23.1517 4.61248 23.3485 4.61248 23.5912V28.2628C4.61248 28.4607 4.45152 28.6216 4.25365 28.6216H2.32697C2.1291 28.6216 1.96814 28.4607 1.96814 28.2628V19.021C1.96814 18.8231 2.1291 18.6622 2.32697 18.6622H4.25365C4.45152 18.6622 4.61248 18.8231 4.61248 19.021V21.5539C4.61248 21.7966 4.80918 21.9933 5.05193 21.9933C5.29468 21.9933 5.49138 21.7966 5.49138 21.5539V20.1343C6.86312 20.1483 8.21166 20.5199 9.39642 21.213C10.3581 21.7755 10.9442 22.1633 12.0999 22.3267C12.1037 22.3273 12.1075 22.3278 12.1112 22.3282L16.754 22.8628C17.5576 22.9788 18.1761 23.6185 18.2661 24.424L18.2604 25.2016H13.0546C12.8119 25.2016 12.6152 25.3983 12.6152 25.641C12.6152 25.8837 12.8119 26.0805 13.0546 26.0805H18.6967C18.894 26.0805 18.4981 26.1923 26.5077 22.682C26.5114 22.6804 26.5149 22.6788 26.5185 22.6771C26.9347 22.4803 27.5075 22.3583 27.8727 22.8951C28.1288 23.2714 28.0749 23.7792 27.7511 24.0937Z" fill="#171717"/>
</g>
<defs>
<clipPath id="clip0">
<rect width="30" height="30" fill="white" transform="translate(0 0.0441895)"/>
</clipPath>
</defs>
</svg>
