<svg width="30" height="31" viewBox="0 0 30 31" fill="none" xmlns="http://www.w3.org/2000/svg">
<g clip-path="url(#clip0)">
<path d="M17.7346 10.0864C17.0041 9.35598 16.033 8.95374 15.0001 8.95374C13.9671 8.95374 12.9959 9.35598 12.2655 10.0864C11.5351 10.8168 11.1328 11.788 11.1328 12.8209C11.1328 13.8539 11.5351 14.825 12.2655 15.5554C13.0194 16.3093 14.0097 16.6863 15 16.6863C15.9903 16.6863 16.9806 16.3093 17.7345 15.5554C18.4649 14.825 18.8672 13.8539 18.8672 12.8209C18.8672 11.788 18.4649 10.8168 17.7346 10.0864ZM12.3047 12.8209C12.3047 12.101 12.5851 11.4241 13.0941 10.9151C13.6032 10.406 14.2801 10.1256 15 10.1256C15.5204 10.1256 16.0178 10.2728 16.446 10.5462L12.7253 14.267C12.4519 13.8387 12.3047 13.3412 12.3047 12.8209ZM16.9059 14.7268C15.9973 15.6354 14.5964 15.7578 13.5544 15.0952L17.2748 11.3749C17.5482 11.8031 17.6954 12.3006 17.6954 12.8209C17.6953 13.5409 17.415 14.2177 16.9059 14.7268Z" fill="#EC595A"/>
<path d="M24.7893 21.1363C24.6803 21.0273 24.5291 20.9646 24.375 20.9646C24.2209 20.9646 24.0697 21.0272 23.9607 21.1363C23.8518 21.2453 23.7891 21.3964 23.7891 21.5505C23.7891 21.7046 23.8518 21.8558 23.9607 21.9647C24.0697 22.0737 24.2209 22.1365 24.375 22.1365C24.5291 22.1365 24.6803 22.0738 24.7893 21.9647C24.8982 21.8558 24.9609 21.7046 24.9609 21.5505C24.9609 21.3964 24.8982 21.2453 24.7893 21.1363Z" fill="#171717"/>
<path d="M24.375 19.5975C24.6986 19.5975 24.9609 19.3351 24.9609 19.0116V18.7938C24.9609 17.228 24.0341 15.8106 22.5997 15.1827L21.472 14.689C21.531 14.0776 21.5642 13.4326 21.5642 12.7541C21.5642 8.40087 19.876 5.21026 18.4598 3.30028C16.9226 1.227 15.3906 0.188896 15.3261 0.145771C15.1288 0.013584 14.8713 0.013584 14.674 0.145771C14.6095 0.188896 13.0775 1.227 11.5403 3.30028C10.1241 5.21026 8.43592 8.40087 8.43592 12.7541C8.43592 13.4326 8.46914 14.0776 8.52809 14.689L7.40039 15.1827C5.96596 15.8106 5.03906 17.228 5.03906 18.7938V24.7146C5.03906 24.9165 5.14301 25.1042 5.31422 25.2114C5.40891 25.2706 5.51678 25.3005 5.62506 25.3005C5.71248 25.3005 5.80014 25.281 5.88123 25.2415L11.3316 22.5915C11.7528 23.1716 12.0544 23.471 12.0761 23.4923C12.1857 23.5997 12.333 23.6599 12.4864 23.6599H14.4141V24.7146C14.4141 25.0382 14.6764 25.3005 15 25.3005C15.3236 25.3005 15.5859 25.0382 15.5859 24.7146V23.6599H17.5136C17.667 23.6599 17.8143 23.5997 17.9238 23.4923C17.9455 23.4711 18.2472 23.1716 18.6683 22.5915L24.1187 25.2415C24.1998 25.281 24.2875 25.3005 24.3749 25.3005C24.4831 25.3005 24.591 25.2705 24.6857 25.2114C24.857 25.1042 24.9609 24.9166 24.9609 24.7146V23.8162C24.9609 23.4926 24.6986 23.2302 24.375 23.2302C24.064 23.2302 23.8096 23.4726 23.7902 23.7787L19.3152 21.6029C19.4638 21.3516 19.6165 21.0756 19.7689 20.7738C20.334 19.655 20.9738 18.0191 21.3163 15.9001L22.1298 16.2562C23.1378 16.6974 23.7891 17.6935 23.7891 18.7938V19.0116C23.7891 19.3351 24.0514 19.5975 24.375 19.5975ZM12.4538 4.03587C13.4678 2.65938 14.4936 1.76472 15.0006 1.36347C15.5019 1.75927 16.5089 2.63665 17.5185 3.99831C17.9011 4.51429 18.305 5.1321 18.6854 5.84753H11.3074C11.6411 5.22503 12.0229 4.62069 12.4538 4.03587ZM6.21094 23.7782V18.7938C6.21094 17.6935 6.86227 16.6975 7.87025 16.2562L8.68371 15.9002C9.02619 18.0191 9.66604 19.6551 10.2311 20.7738C10.3835 21.0757 10.5362 21.3516 10.6848 21.603L6.21094 23.7782ZM18.7488 20.1938C18.1445 21.403 17.5337 22.1705 17.2567 22.488H15.5859V20.1052C15.5859 19.7817 15.3236 19.5193 15 19.5193C14.6764 19.5193 14.4141 19.7817 14.4141 20.1052V22.488H12.7429C12.0927 21.7435 9.60773 18.519 9.60773 12.754C9.60773 10.7208 9.98965 8.80247 10.7459 7.01929H19.2436C19.9036 8.5811 20.3924 10.4988 20.3924 12.754C20.3923 16.1853 19.4986 18.6938 18.7488 20.1938Z" fill="#171717"/>
<path d="M21.01 26.5274C20.7237 26.5274 20.4472 26.5694 20.1854 26.6462C19.6086 25.7818 18.6326 25.2472 17.5682 25.2472C16.5109 25.2472 15.5745 25.772 15.0037 26.5741C14.433 25.772 13.4965 25.2472 12.4393 25.2472C11.3748 25.2472 10.3989 25.7818 9.82206 26.6462C9.56026 26.5694 9.28376 26.5274 8.99747 26.5274C7.38004 26.5274 6.06409 27.8432 6.06409 29.4607C6.06409 29.7843 6.32641 30.0467 6.65002 30.0467C6.97364 30.0467 7.23596 29.7843 7.23596 29.4607C7.23596 28.4895 8.02616 27.6992 8.99747 27.6992C9.96877 27.6992 10.759 28.4894 10.759 29.4607C10.759 29.7843 11.0213 30.0467 11.3449 30.0467C11.6685 30.0467 11.9308 29.7843 11.9308 29.4607C11.9308 28.5526 11.516 27.7397 10.866 27.2012C11.234 26.7157 11.8118 26.4191 12.4393 26.4191C13.528 26.4191 14.4138 27.3048 14.4138 28.3935C14.4138 28.7171 14.6761 28.9794 14.9997 28.9794C15.001 28.9794 15.0024 28.9793 15.0037 28.9793C15.0051 28.9793 15.0064 28.9794 15.0078 28.9794C15.3314 28.9794 15.5937 28.7171 15.5937 28.3935C15.5937 27.3048 16.4795 26.4191 17.5682 26.4191C18.1957 26.4191 18.7735 26.7157 19.1415 27.2012C18.4915 27.7397 18.0767 28.5526 18.0767 29.4607C18.0767 29.7843 18.339 30.0467 18.6626 30.0467C18.9862 30.0467 19.2486 29.7843 19.2486 29.4607C19.2486 28.4895 20.0388 27.6992 21.0101 27.6992C21.9814 27.6992 22.7716 28.4894 22.7716 29.4607C22.7716 29.7843 23.0339 30.0467 23.3575 30.0467C23.6811 30.0467 23.9434 29.7843 23.9434 29.4607C23.9433 27.8433 22.6274 26.5274 21.01 26.5274Z" fill="#EC595A"/>
<path d="M15.4143 17.8157C15.3053 17.7067 15.1541 17.644 15 17.644C14.8459 17.644 14.6947 17.7067 14.5857 17.8157C14.4768 17.9247 14.4141 18.0759 14.4141 18.23C14.4141 18.3841 14.4768 18.5353 14.5857 18.6442C14.6947 18.7537 14.8459 18.8159 15 18.8159C15.1541 18.8159 15.3053 18.7537 15.4143 18.6442C15.5232 18.5353 15.5859 18.3841 15.5859 18.23C15.5859 18.0759 15.5232 17.9247 15.4143 17.8157Z" fill="#171717"/>
</g>
<defs>
<clipPath id="clip0">
<rect width="30" height="30" fill="white" transform="translate(0 0.0466309)"/>
</clipPath>
</defs>
</svg>
