<svg width="30" height="31" viewBox="0 0 30 31" fill="none" xmlns="http://www.w3.org/2000/svg">
<g clip-path="url(#clip0)">
<path d="M26.5742 4.01061C26.5727 2.75067 25.5511 1.72974 24.2909 1.72974H14.7297C14.1241 1.72974 13.5433 1.97023 13.1151 2.39842L0.669039 14.8419C-0.222942 15.7337 -0.223013 17.1797 0.668825 18.0716L10.23 27.6329C10.6759 28.0787 11.2603 28.3018 11.8448 28.3018C12.2127 28.3018 12.5766 28.203 12.9099 28.0263C14.1298 27.0217 12.3249 28.7673 25.9055 15.1894C26.3339 14.7611 26.5745 14.1802 26.5745 13.5745C26.5745 3.87609 26.5746 5.5328 26.5742 4.01061ZM25.4327 13.5744C25.4327 13.8794 25.3139 14.1662 25.0982 14.3819L12.6521 26.8256C12.4364 27.0413 12.1497 27.16 11.8447 27.16C11.5397 27.16 11.253 27.0412 11.0373 26.8256L1.47624 17.2643C1.26058 17.0486 1.14183 16.7618 1.14183 16.4569C1.14183 16.1519 1.26065 15.8651 1.47631 15.6495L13.9224 3.2059C14.138 2.99031 14.4247 2.87156 14.7297 2.87156H24.2909C24.9205 2.87156 25.4328 3.38382 25.4328 4.01339V13.5744H25.4327Z" fill="#171717"/>
<path d="M28.8582 4.01337V14.7161C28.8582 15.0211 28.7394 15.308 28.5237 15.5236L15.0338 29.0111L15.8412 29.8185L29.331 16.3311C29.7594 15.9028 30 15.3219 30 14.7161V4.01337H28.8582Z" fill="#EC595A"/>
<path d="M20.2945 5.72614C19.0355 5.72614 18.0108 6.75028 18.0108 8.00979C18.0108 9.2693 19.0355 10.2934 20.2945 10.2934C21.5534 10.2934 22.5781 9.2693 22.5781 8.00979C22.5781 6.75028 21.5533 5.72614 20.2945 5.72614ZM20.2945 9.15162C19.6645 9.15162 19.1526 8.63922 19.1526 8.00979C19.1526 7.38036 19.6645 6.86796 20.2945 6.86796C20.9245 6.86796 21.4363 7.38036 21.4363 8.00979C21.4363 8.63922 20.9245 9.15162 20.2945 9.15162Z" fill="#EC595A"/>
</g>
<defs>
<clipPath id="clip0">
<rect width="30" height="30" fill="white" transform="translate(0 0.77417)"/>
</clipPath>
</defs>
</svg>
