<svg width="91" height="91" viewBox="0 0 91 91" fill="none" xmlns="http://www.w3.org/2000/svg">
<g filter="url(#filter0_d)">
<rect x="20.1748" y="10.8301" width="50" height="50" rx="10" fill="white"/>
<g clip-path="url(#clip0)">
<path d="M38.427 25.4136C39.4191 25.4136 40.3236 25.501 41.1406 25.6763C41.9576 25.8513 42.6579 26.1385 43.2414 26.5369C43.8249 26.9357 44.2772 27.4659 44.5982 28.1274C44.9192 28.7889 45.0797 29.6057 45.0797 30.5783C45.0797 31.6289 44.8414 32.5042 44.3649 33.2043C43.888 33.9046 43.1831 34.4783 42.2495 34.9258C43.5332 35.2955 44.4912 35.9426 45.1236 36.8662C45.7553 37.7903 46.0721 38.9042 46.0721 40.2072C46.0721 41.2576 45.8679 42.1672 45.4591 42.9357C45.0509 43.7044 44.501 44.3316 43.8108 44.8172C43.1202 45.3038 42.3323 45.6634 41.4473 45.8973C40.5569 46.1312 39.6398 46.2487 38.7191 46.2471H28.623V25.4136H38.427ZM37.8435 33.8464C38.6605 33.8464 39.3315 33.652 39.8568 33.2628C40.382 32.8739 40.6446 32.2415 40.6446 31.3662C40.6446 30.8801 40.5571 30.4811 40.382 30.1699C40.207 29.8588 39.9736 29.6152 39.6818 29.4405C39.3899 29.2652 39.0544 29.1441 38.6751 29.0756C38.285 29.0067 37.8895 28.9725 37.4933 28.9736H33.2041V33.8466H37.8435V33.8464ZM38.106 42.6873C38.5532 42.6873 38.9813 42.6434 39.3898 42.5559C39.7982 42.4683 40.1579 42.3224 40.4695 42.118C40.7804 41.9141 41.0285 41.6367 41.2135 41.2864C41.3982 40.9364 41.4906 40.4891 41.4906 39.9442C41.4906 38.8747 41.1888 38.1112 40.5861 37.6539C39.9829 37.1967 39.1854 36.968 38.1934 36.968H33.2041V42.6869L38.106 42.6873ZM51.8371 42.2497C52.4595 42.8532 53.3544 43.1542 54.5216 43.1542C55.3577 43.1542 56.0776 42.9455 56.6805 42.5269C57.2836 42.1092 57.6532 41.6663 57.7894 41.1993H61.4366C60.8533 43.0082 59.9581 44.3021 58.7523 45.0799C57.5459 45.8582 56.0869 46.2471 54.3753 46.2471C53.1888 46.2471 52.1187 46.0574 51.1656 45.678C50.2123 45.2989 49.4049 44.7589 48.744 44.0586C48.0825 43.3585 47.5719 42.5226 47.212 41.5496C46.8519 40.5772 46.6724 39.5071 46.6724 38.3399C46.6724 37.212 46.8567 36.1616 47.2267 35.1889C47.5959 34.2165 48.1209 33.3751 48.8025 32.6647C49.4829 31.955 50.2953 31.3957 51.2389 30.9871C52.1821 30.5785 53.2277 30.3744 54.3755 30.3744C55.6594 30.3744 56.7777 30.6224 57.7312 31.1184C58.6841 31.6143 59.4672 32.2813 60.0802 33.117C60.6928 33.9536 61.135 34.907 61.408 35.9764C61.6803 37.0465 61.7772 38.1648 61.6998 39.332H50.8162C50.8743 40.6739 51.2142 41.647 51.8371 42.2497ZM56.5202 34.3132C56.0243 33.7688 55.2702 33.4961 54.2591 33.4961C53.5975 33.4961 53.0482 33.6083 52.6106 33.8317C52.1728 34.0558 51.8225 34.3324 51.5598 34.6633C51.2975 34.9942 51.1123 35.3445 51.0057 35.7137C50.8985 36.0834 50.8352 36.4142 50.8158 36.7058H57.556C57.3616 35.6553 57.0164 34.8579 56.5202 34.3132ZM50.1083 26.4714H58.5297V28.8064H50.1083V26.4714Z" fill="#1769FF"/>
</g>
</g>
<defs>
<filter id="filter0_d" x="0.174805" y="0.830078" width="90" height="90" filterUnits="userSpaceOnUse" color-interpolation-filters="sRGB">
<feFlood flood-opacity="0" result="BackgroundImageFix"/>
<feColorMatrix in="SourceAlpha" type="matrix" values="0 0 0 0 0 0 0 0 0 0 0 0 0 0 0 0 0 0 127 0" result="hardAlpha"/>
<feOffset dy="10"/>
<feGaussianBlur stdDeviation="10"/>
<feColorMatrix type="matrix" values="0 0 0 0 0.0901961 0 0 0 0 0.0901961 0 0 0 0 0.0901961 0 0 0 0.1 0"/>
<feBlend mode="normal" in2="BackgroundImageFix" result="effect1_dropShadow"/>
<feBlend mode="normal" in="SourceGraphic" in2="effect1_dropShadow" result="shape"/>
</filter>
<clipPath id="clip0">
<rect width="33.1108" height="20.8333" fill="white" transform="translate(28.6194 25.4136)"/>
</clipPath>
</defs>
</svg>
