<svg width="58" height="51" viewBox="0 0 58 51" fill="none" xmlns="http://www.w3.org/2000/svg">
<g clip-path="url(#clip0)">
<path d="M54.6981 21.5218H53.8739V10.2581C53.8739 7.37899 51.5332 5.03833 48.6541 5.03833H29.0168L34.786 6.68668H48.6541C50.6211 6.68668 52.2255 8.29108 52.2255 10.2581V15.2471C51.2915 14.368 50.0387 13.8295 48.6541 13.8295H6.12664C4.15961 13.8295 2.55521 12.2251 2.55521 10.2581C2.55521 8.29108 4.15961 6.68668 6.12664 6.68668H7.61016L8.02774 5.03833H6.12664C3.25851 5.03833 0.917849 7.368 0.90686 10.2361C0.90686 10.2361 0.90686 10.2471 0.90686 10.2581V38.8295C0.90686 39.2801 1.28049 39.6537 1.73104 39.6537C2.18159 39.6537 2.55521 39.2801 2.55521 38.8295V14.0603C3.48928 14.9394 4.74203 15.4779 6.12664 15.4779H48.6541C50.6211 15.4779 52.2255 17.0823 52.2255 19.0493V24.8185H43.1596C43.1376 24.8185 43.1157 24.8185 43.0937 24.8185C43.0717 24.8185 43.0387 24.8186 43.0168 24.8295H43.0058C42.9838 24.8295 42.9618 24.8405 42.9398 24.8405H42.9288C42.9069 24.8405 42.8959 24.8515 42.8739 24.8625C42.8629 24.8625 42.8629 24.8625 42.8519 24.8735C42.8409 24.8735 42.8189 24.8845 42.808 24.8955C42.797 24.8955 42.786 24.9065 42.775 24.9065C42.764 24.9174 42.753 24.9174 42.742 24.9284C42.731 24.9394 42.72 24.9394 42.7091 24.9504C42.6981 24.9504 42.6981 24.9614 42.6871 24.9724C42.6761 24.9834 42.6541 24.9944 42.6431 25.0054C42.6321 25.0054 42.6321 25.0164 42.6211 25.0164C42.6102 25.0273 42.5882 25.0383 42.5772 25.0493C42.5662 25.0603 42.5662 25.0713 42.5552 25.0713C42.5442 25.0823 42.5332 25.0933 42.5222 25.1043C42.5003 25.1262 42.4893 25.1482 42.4783 25.1702L38.0827 31.7636C38.0497 31.8076 38.0277 31.8625 38.0058 31.9065C37.9948 31.9284 37.9948 31.9394 37.9838 31.9614C37.9838 31.9614 37.9838 31.9724 37.9838 31.9834C37.9728 32.0054 37.9728 32.0273 37.9728 32.0383V32.0493C37.9728 32.0713 37.9728 32.0823 37.9618 32.1043C37.9618 32.1152 37.9618 32.1153 37.9618 32.1262C37.9618 32.1372 37.9618 32.1592 37.9618 32.1702C37.9618 32.1812 37.9618 32.1922 37.9618 32.2032C37.9618 32.2142 37.9618 32.2251 37.9618 32.2361C37.9618 32.2471 37.9618 32.2691 37.9618 32.2801C37.9618 32.2911 37.9618 32.2911 37.9618 32.3021C37.9618 32.324 37.9618 32.335 37.9728 32.357V32.368C37.9728 32.39 37.9838 32.412 37.9838 32.4339C37.9838 32.4339 37.9838 32.4449 37.9838 32.4559C37.9948 32.4779 37.9948 32.4889 38.0058 32.5109C38.0277 32.5658 38.0497 32.6098 38.0827 32.6537L42.4783 39.2471C42.5003 39.2691 42.5113 39.3021 42.5332 39.324C42.5442 39.335 42.5442 39.335 42.5552 39.346C42.5662 39.357 42.5882 39.379 42.5992 39.39C42.6102 39.401 42.6211 39.401 42.6321 39.412C42.6431 39.4229 42.6651 39.4339 42.6871 39.4559C42.6981 39.4559 42.6981 39.4669 42.7091 39.4779C42.731 39.4999 42.753 39.5109 42.786 39.5218C42.797 39.5218 42.797 39.5328 42.808 39.5328C42.8299 39.5438 42.8519 39.5548 42.8739 39.5658C42.8849 39.5658 42.8959 39.5768 42.8959 39.5768C42.9179 39.5878 42.9398 39.5878 42.9618 39.5988C42.9728 39.5988 42.9838 39.5988 42.9838 39.6098C43.0058 39.6207 43.0277 39.6207 43.0497 39.6207C43.0607 39.6207 43.0717 39.6207 43.0717 39.6207C43.1047 39.6207 43.1266 39.6207 43.1596 39.6207H43.1706H52.2255V45.39C52.2255 47.357 50.6211 48.9614 48.6541 48.9614H6.12664C4.15961 48.9944 2.55521 47.39 2.55521 45.4229V45.412V42.1262C2.55521 41.6757 2.18159 41.3021 1.73104 41.3021C1.28049 41.3021 0.90686 41.6757 0.90686 42.1262V45.4229C0.90686 45.4339 0.90686 45.4449 0.90686 45.4449C0.917849 48.3131 3.25851 50.6427 6.12664 50.6427H48.6541C51.5332 50.6427 53.8739 48.3021 53.8739 45.4229V39.6537H54.6981C56.0607 39.6537 57.1706 38.5438 57.1706 37.1812V23.9944C57.1706 22.6317 56.0607 21.5218 54.6981 21.5218ZM55.5222 37.1812C55.5222 37.6317 55.1486 38.0054 54.6981 38.0054H43.5992L39.753 32.2361L43.5992 26.4669H54.6981C54.7091 26.4669 54.72 26.4669 54.731 26.4669C55.0058 26.4669 55.2695 26.412 55.5222 26.324V37.1812ZM54.6981 24.8185C54.6981 24.8185 54.6871 24.8185 54.6761 24.8185H53.8739V23.1702H54.6981C55.1486 23.1702 55.5222 23.5438 55.5222 23.9944C55.5222 24.4449 55.1486 24.8185 54.6981 24.8185Z" fill="#171717"/>
<path d="M47.5552 9.43378H41.4014L34.6651 7.51071L31.786 6.68653L26.0167 5.03818L18.0277 2.75247L10.753 0.675542H10.742H10.731C10.72 0.675542 10.7091 0.675542 10.6981 0.664553C10.6871 0.664553 10.6651 0.653564 10.6541 0.653564C10.6431 0.653564 10.6321 0.653564 10.6211 0.653564C10.6102 0.653564 10.5882 0.653564 10.5772 0.653564C10.5662 0.653564 10.5552 0.653564 10.5442 0.653564H10.5003C10.4893 0.653564 10.4783 0.653564 10.4673 0.653564C10.4453 0.653564 10.4343 0.653564 10.4233 0.653564C10.4123 0.653564 10.4014 0.653564 10.3904 0.653564C10.3794 0.653564 10.3574 0.664553 10.3464 0.664553C10.3354 0.664553 10.3244 0.664553 10.3134 0.675542C10.3025 0.675542 10.2805 0.686531 10.2695 0.686531C10.2585 0.686531 10.2475 0.69752 10.2475 0.69752C10.2365 0.70851 10.2145 0.70851 10.2036 0.719499C10.1926 0.719499 10.1926 0.730488 10.1816 0.730488C10.1376 0.741477 10.1266 0.741477 10.1047 0.752466C10.0937 0.752466 10.0937 0.763455 10.0827 0.763455C10.0717 0.774444 10.0497 0.785433 10.0387 0.796422C10.0277 0.796422 10.0277 0.807411 10.0167 0.8184C10.0058 0.829389 9.99477 0.840378 9.97279 0.851367L9.9618 0.862356C9.95081 0.873345 9.93982 0.884334 9.92883 0.895323C9.91784 0.906312 9.91784 0.906312 9.90686 0.917301C9.89587 0.92829 9.88488 0.939279 9.87389 0.950268C9.8629 0.961257 9.8629 0.972246 9.85191 0.983235C9.84092 0.994224 9.82993 1.00521 9.82993 1.0162C9.81894 1.03818 9.80795 1.04917 9.80795 1.06016C9.79697 1.07115 9.79697 1.08214 9.78598 1.09312C9.78598 1.10411 9.77499 1.1151 9.77499 1.12609C9.764 1.13708 9.764 1.14807 9.75301 1.15906C9.75301 1.17005 9.74202 1.19203 9.74202 1.20302C9.74202 1.214 9.73103 1.22499 9.73103 1.22499V1.23598V1.24697L9.42334 2.47774L8.78598 5.03818L8.36839 6.68653L7.89587 8.59862L7.68708 9.43378H6.12664C5.6651 9.43378 5.30246 9.80741 5.30246 10.258C5.30246 10.7085 5.67609 11.0821 6.12664 11.0821H41.2915H47.5552C48.0058 11.0821 48.3794 10.7085 48.3794 10.258C48.3794 9.80741 48.0058 9.43378 47.5552 9.43378ZM9.37938 9.43378L11.1156 2.48873L25.6541 6.64258L35.4123 9.43378H9.37938Z" fill="#EC595A"/>
<path d="M46.4563 29.2141C44.786 29.2141 43.4343 30.5658 43.4343 32.2361C43.4343 33.9064 44.786 35.2581 46.4563 35.2581C48.1266 35.2581 49.4783 33.9064 49.4783 32.2361C49.4783 30.5658 48.1266 29.2141 46.4563 29.2141ZM46.4563 33.6097C45.6981 33.6097 45.0827 32.9943 45.0827 32.2361C45.0827 31.4778 45.6981 30.8625 46.4563 30.8625C47.2145 30.8625 47.8299 31.4778 47.8299 32.2361C47.8299 32.9943 47.2145 33.6097 46.4563 33.6097Z" fill="#EC595A"/>
</g>
<defs>
<clipPath id="clip0">
<rect width="56.2637" height="50" fill="white" transform="translate(0.90686 0.642578)"/>
</clipPath>
</defs>
</svg>
