<svg width="51" height="51" viewBox="0 0 51 51" fill="none" xmlns="http://www.w3.org/2000/svg">
<g clip-path="url(#clip0)">
<path d="M8.85968 25.6425C8.85968 34.5936 16.142 41.8761 25.0931 41.8761C34.0442 41.8761 41.3266 34.5936 41.3266 25.6425C41.3266 16.6914 34.0442 9.40894 25.0931 9.40894C16.142 9.40894 8.85968 16.6914 8.85968 25.6425ZM39.0177 25.6425C39.0177 33.3207 32.7712 39.5673 25.0931 39.5673C17.4151 39.5673 11.1685 33.3207 11.1685 25.6425C11.1685 17.9643 17.4151 11.7177 25.0931 11.7177C32.7712 11.7177 39.0177 17.9643 39.0177 25.6425Z" fill="black"/>
<path d="M24.0545 16.5465V18.3548C23.4048 18.5049 22.7917 18.787 22.2274 19.2037C20.6834 20.3432 19.9896 21.9222 20.3711 23.4277C20.7382 24.8755 22.0553 25.9277 23.8086 26.1735C27.784 26.7306 28.4311 27.3242 28.2608 28.7166C28.1702 29.4585 27.7438 29.9897 26.9934 30.2946C25.725 30.8106 23.5259 30.5917 21.4712 28.9406L20.025 30.7404C21.2673 31.7387 22.6709 32.3996 24.0542 32.6879V34.7382H26.363V32.8092C26.8868 32.7486 27.391 32.6251 27.8629 32.4332C29.3809 31.8161 30.3612 30.5635 30.5527 28.9963C30.77 27.2176 30.0723 25.8412 28.5351 25.016C27.3438 24.3765 25.7711 24.1168 24.1291 23.8867C23.3112 23.7722 22.7431 23.3883 22.6091 22.8601C22.4662 22.2963 22.836 21.6238 23.5984 21.061C24.4057 20.4654 25.3571 20.3776 26.5069 20.7926C27.4824 21.1449 28.2012 21.7345 28.2083 21.7403L28.9476 20.8537L29.6901 19.9697C29.5907 19.8862 28.6799 19.139 27.367 18.6489C27.0278 18.5223 26.693 18.4256 26.3631 18.356V16.5464L24.0545 16.5465Z" fill="black"/>
<path d="M25.0931 2.95139C30.0586 2.95139 34.782 4.53786 38.6844 7.46851H35.6484V9.77733H43.0774V2.34833H40.7686V6.16542C36.3397 2.58783 30.8647 0.642578 25.0931 0.642578C11.3081 0.642578 0.0931396 11.8576 0.0931396 25.6426H2.40195C2.40195 13.1306 12.5812 2.95139 25.0931 2.95139Z" fill="#EC595A"/>
<path d="M47.7844 25.6426C47.7844 38.1545 37.6051 48.3338 25.0932 48.3338C20.2685 48.3338 15.6592 46.8304 11.8166 44.0486H14.8308V41.7398H7.40179V49.1688H9.71061V45.3511C14.089 48.7794 19.4575 50.6426 25.0932 50.6426C38.8783 50.6426 50.0932 39.4277 50.0932 25.6426H47.7844Z" fill="#EC595A"/>
</g>
<defs>
<clipPath id="clip0">
<rect width="50" height="50" fill="white" transform="translate(0.0931396 0.642578)"/>
</clipPath>
</defs>
</svg>
