<svg width="50" height="51" viewBox="0 0 50 51" fill="none" xmlns="http://www.w3.org/2000/svg">
<g clip-path="url(#clip0)">
<path d="M23.0267 34.5552C23.4078 34.1733 23.4078 33.5553 23.0267 33.1735C22.6452 32.7928 22.0272 32.7928 21.6454 33.1735C21.2647 33.5553 21.2647 34.1733 21.6454 34.5552C22.0272 34.9359 22.6452 34.9359 23.0267 34.5552Z" fill="black"/>
<path d="M18.4032 11.3817C18.4032 17.3033 23.2208 22.1212 29.1424 22.1212C35.0639 22.1212 39.8815 17.3033 39.8815 11.3817C39.8815 5.46016 35.0639 0.642578 29.1424 0.642578C23.2208 0.642578 18.4032 5.46016 18.4032 11.3817ZM37.9292 11.3817C37.9292 16.2268 33.9874 20.1685 29.1424 20.1685C24.2973 20.1685 20.3556 16.2268 20.3556 11.3817C20.3556 6.53705 24.2973 2.59532 29.1424 2.59532C33.9874 2.59532 37.9292 6.53705 37.9292 11.3817Z" fill="#EC595A"/>
<path d="M11.2942 50.3536C11.6726 50.7351 12.2887 50.7393 12.672 50.3617L17.4053 45.6986C18.2095 44.8944 18.454 43.7039 18.1004 42.6689L19.1185 41.687C19.6667 41.1575 20.3884 40.8657 21.1514 40.8657H34.1301C36.4327 40.8657 38.6089 39.9815 40.2588 38.3759C40.3267 38.3099 39.7434 38.9969 49.1131 27.7985C50.5028 26.1543 50.2949 23.6855 48.6492 22.2942C47.0139 20.916 44.5641 21.114 43.1706 22.7299L37.4096 28.6511C36.6821 27.7558 35.5728 27.1977 34.3742 27.1977H23.4875C21.9383 26.5495 20.2946 26.2215 18.5986 26.2215C13.8973 26.2215 9.79233 28.3928 7.58934 32.4639C6.66122 32.288 5.68237 32.5688 4.97818 33.2729L0.333783 37.9311C-0.0453981 38.3114 -0.046161 38.9267 0.332257 39.3082L11.2942 50.3536ZM18.5982 28.1738C20.0935 28.1738 21.5393 28.4748 22.8962 29.0684C23.0198 29.1226 23.1529 29.1504 23.2876 29.1504H34.3742C35.4328 29.1504 36.327 30.0137 36.327 31.1028C36.327 32.1797 35.4511 33.0555 34.3742 33.0555H26.4088C25.8698 33.0555 25.4326 33.4927 25.4326 34.0317C25.4326 34.5711 25.8698 35.0079 26.4088 35.0079H34.3742C36.5276 35.0079 38.2794 33.2562 38.2794 31.1028C38.2794 30.9311 38.2671 30.761 38.245 30.5924C43.8179 24.8638 44.6037 24.0589 44.6373 24.0189C45.3331 23.1976 46.5683 23.0934 47.39 23.7862C48.2124 24.4816 48.3166 25.716 47.6189 26.5419L38.8622 37.0102C37.5835 38.2378 35.9047 38.9134 34.1301 38.9134H21.1514C19.8795 38.9134 18.6756 39.3997 17.7624 40.2821L16.9327 41.0828L9.28421 33.4347C11.0718 30.0812 14.426 28.1738 18.5982 28.1738ZM6.35986 34.6527C6.68182 34.3308 7.17621 34.2728 7.56874 34.5154C7.73773 34.6184 7.2525 34.1767 16.0248 42.9367C16.415 43.327 16.394 43.9488 16.0301 44.3127L11.9949 48.288L2.40211 38.6219L6.35986 34.6527Z" fill="black"/>
<path d="M27.9709 5.52417V6.6682C26.8345 7.07103 26.0182 8.15631 26.0182 9.42928C26.0182 11.044 27.3319 12.3582 28.9471 12.3582C29.4853 12.3582 29.9233 12.7961 29.9233 13.3344C29.9233 13.8726 29.4853 14.3106 28.9471 14.3106C28.5301 14.3106 28.0796 14.0485 27.6795 13.572C27.3323 13.1593 26.7166 13.1063 26.3039 13.453C25.8911 13.8002 25.8377 14.4159 26.1849 14.8286C26.7067 15.4493 27.3205 15.8818 27.9709 16.1V17.2395C27.9709 17.7789 28.4081 18.2157 28.9471 18.2157C29.4861 18.2157 29.9233 17.7789 29.9233 17.2395V16.0955C31.0597 15.6923 31.876 14.607 31.876 13.3344C31.876 11.7192 30.5622 10.4055 28.9471 10.4055C28.4088 10.4055 27.9709 9.96753 27.9709 9.42928C27.9709 8.89102 28.4088 8.45271 28.9471 8.45271C29.2931 8.45271 29.6581 8.62934 30.003 8.96312C30.3906 9.33811 31.0086 9.32781 31.3835 8.94061C31.7585 8.55304 31.7482 7.93506 31.361 7.56008C30.8655 7.08057 30.3696 6.80934 29.9233 6.66133V5.52417C29.9233 4.98477 29.4861 4.54761 28.9471 4.54761C28.4081 4.54761 27.9709 4.98477 27.9709 5.52417Z" fill="#EC595A"/>
</g>
<defs>
<clipPath id="clip0">
<rect width="49.9024" height="50" fill="white" transform="translate(0 0.642578)"/>
</clipPath>
</defs>
</svg>
