<svg width="123" height="25" viewBox="0 0 123 25" fill="none" xmlns="http://www.w3.org/2000/svg">
<path d="M60.7362 24.7439L50.4998 16.6929L40.2633 24.7439L30.0269 16.6929L19.7905 24.7439L9.60276 16.6929L0.341215 24.5976L0 24.2072L9.55401 16.0098L19.7905 24.0608L30.0269 16.0098L40.2633 24.0608L50.4998 16.0098L60.7362 24.0608L70.9727 16.0098L81.1604 24.0608L91.3968 16.0098L101.633 24.0608L111.87 16.0098L122.252 24.2072L121.96 24.6464L111.87 16.6929L101.633 24.7439L91.3968 16.6929L81.1604 24.7439L70.9727 16.6929L60.7362 24.7439Z" fill="#55ADEE"/>
<path d="M60.7362 9.17851L50.4998 1.12746L40.2633 9.17851L30.0269 1.12746L19.7905 9.17851L9.60276 1.12746L0.341215 9.08092L0 8.64177L9.55401 0.444336L19.7905 8.49539L30.0269 0.444336L40.2633 8.49539L50.4998 0.444336L60.7362 8.49539L70.9727 0.444336L81.1604 8.49539L91.3968 0.444336L101.633 8.49539L111.87 0.444336L122.252 8.64177L121.96 9.08092L111.87 1.12746L101.633 9.17851L91.3968 1.12746L81.1604 9.17851L70.9727 1.12746L60.7362 9.17851Z" fill="#55ADEE"/>
</svg>
