<svg width="131" height="16" viewBox="0 0 131 16" fill="none" xmlns="http://www.w3.org/2000/svg">
<g clip-path="url(#clip0)">
<path d="M4.95889 2.18672C4.95889 3.34399 3.95262 4.2787 2.70677 4.2787C1.50883 4.23419 0.502563 3.29948 0.502563 2.18672C0.502563 1.02944 1.50883 0.0947266 2.75468 0.0947266C3.95262 0.0947266 4.95889 1.02944 4.95889 2.18672Z" fill="#37BD8A"/>
<path d="M19.7175 2.18672C19.7175 3.34399 18.7112 4.2787 17.4654 4.2787C16.2195 4.2787 15.2133 3.34399 15.2133 2.18672C15.2133 1.02944 16.2195 0.0947266 17.4654 0.0947266C18.7112 0.0947266 19.7175 1.02944 19.7175 2.18672Z" fill="#37BD8A"/>
<path d="M34.476 2.18672C34.476 3.34399 33.4698 4.2787 32.2239 4.2787C30.9781 4.2787 29.9718 3.34399 29.9718 2.18672C29.9718 1.02944 30.9781 0.0947266 32.2239 0.0947266C33.4698 0.0947266 34.476 1.02944 34.476 2.18672Z" fill="#37BD8A"/>
<path d="M49.2346 2.18672C49.2346 3.34399 48.2283 4.2787 46.9825 4.2787C45.7366 4.2787 44.7303 3.34399 44.7303 2.18672C44.7303 1.02944 45.7366 0.0947266 46.9825 0.0947266C48.2283 0.0947266 49.2346 1.02944 49.2346 2.18672Z" fill="#37BD8A"/>
<path d="M63.9931 2.18672C63.9931 3.34399 62.9869 4.2787 61.741 4.2787C60.4952 4.2787 59.4889 3.34399 59.4889 2.18672C59.4889 1.02945 60.4952 0.0947266 61.741 0.0947266C62.9869 0.0947266 63.9931 1.02945 63.9931 2.18672Z" fill="#37BD8A"/>
<path d="M78.7517 2.18672C78.7517 3.34399 77.7454 4.2787 76.4996 4.2787C75.2537 4.2787 74.2474 3.34399 74.2474 2.18672C74.2474 1.02944 75.2537 0.0947266 76.4996 0.0947266C77.7454 0.0947266 78.7517 1.02944 78.7517 2.18672Z" fill="#37BD8A"/>
<path d="M93.5103 2.18672C93.5103 3.34399 92.5041 4.2787 91.2582 4.2787C90.0124 4.2787 89.0061 3.34399 89.0061 2.18672C89.0061 1.02945 90.0124 0.0947266 91.2582 0.0947266C92.5041 0.0947266 93.5103 1.02945 93.5103 2.18672Z" fill="#37BD8A"/>
<path d="M108.269 2.18672C108.269 3.34399 107.263 4.2787 106.017 4.2787C104.771 4.2787 103.765 3.34399 103.765 2.18672C103.765 1.02944 104.771 0.0947266 106.017 0.0947266C107.263 0.0947266 108.269 1.02944 108.269 2.18672Z" fill="#37BD8A"/>
<path d="M123.027 2.18672C123.027 3.34399 122.021 4.2787 120.775 4.2787C119.529 4.2787 118.523 3.34399 118.523 2.18672C118.523 1.02944 119.529 0.0947266 120.775 0.0947266C122.021 0.0947266 123.027 1.02944 123.027 2.18672Z" fill="#37BD8A"/>
<path d="M12.4339 13.0026C12.4339 14.1599 11.4277 15.0946 10.1818 15.0946C8.93595 15.0946 7.92969 14.1599 7.92969 13.0026C7.92969 11.8454 8.93595 10.9106 10.1818 10.9106C11.4277 10.9552 12.4339 11.8899 12.4339 13.0026Z" fill="#37BD8A"/>
<path d="M24.9883 15.0946C26.2321 15.0946 27.2404 14.158 27.2404 13.0026C27.2404 11.8473 26.2321 10.9106 24.9883 10.9106C23.7445 10.9106 22.7362 11.8473 22.7362 13.0026C22.7362 14.158 23.7445 15.0946 24.9883 15.0946Z" fill="#37BD8A"/>
<path d="M39.747 15.0946C40.9908 15.0946 41.9991 14.158 41.9991 13.0026C41.9991 11.8473 40.9908 10.9106 39.747 10.9106C38.5032 10.9106 37.4949 11.8473 37.4949 13.0026C37.4949 14.158 38.5032 15.0946 39.747 15.0946Z" fill="#37BD8A"/>
<path d="M56.7098 13.0026C56.7098 14.1599 55.7035 15.0946 54.4577 15.0946C53.2118 15.0946 52.2056 14.1599 52.2056 13.0026C52.2056 11.8454 53.2118 10.9106 54.4577 10.9106C55.7035 10.9552 56.7098 11.8899 56.7098 13.0026Z" fill="#37BD8A"/>
<path d="M71.4682 13.0026C71.4682 14.1599 70.462 15.0946 69.2161 15.0946C67.9703 15.0946 66.964 14.1599 66.964 13.0026C66.964 11.8454 67.9703 10.9106 69.2161 10.9106C70.462 10.9552 71.4682 11.8899 71.4682 13.0026Z" fill="#37BD8A"/>
<path d="M86.2269 13.0026C86.2269 14.1599 85.2206 15.0946 83.9748 15.0946C82.7289 15.0946 81.7227 14.1599 81.7227 13.0026C81.7227 11.8454 82.7289 10.9106 83.9748 10.9106C85.2206 10.9552 86.2269 11.8899 86.2269 13.0026Z" fill="#37BD8A"/>
<path d="M98.7812 15.0946C100.025 15.0946 101.033 14.158 101.033 13.0026C101.033 11.8473 100.025 10.9106 98.7812 10.9106C97.5374 10.9106 96.5291 11.8473 96.5291 13.0026C96.5291 14.158 97.5374 15.0946 98.7812 15.0946Z" fill="#37BD8A"/>
<path d="M113.54 15.0946C114.784 15.0946 115.792 14.158 115.792 13.0026C115.792 11.8473 114.784 10.9106 113.54 10.9106C112.296 10.9106 111.288 11.8473 111.288 13.0026C111.288 14.158 112.296 15.0946 113.54 15.0946Z" fill="#37BD8A"/>
<path d="M130.503 13.0026C130.503 14.1599 129.496 15.0946 128.25 15.0946C127.005 15.0946 125.998 14.1599 125.998 13.0026C125.998 11.8454 127.005 10.9106 128.25 10.9106C129.544 10.9552 130.503 11.8899 130.503 13.0026Z" fill="#37BD8A"/>
</g>
<defs>
<clipPath id="clip0">
<rect width="130" height="15" fill="white" transform="translate(0.502563 0.0947266)"/>
</clipPath>
</defs>
</svg>
