<svg width="131" height="16" viewBox="0 0 131 16" fill="none" xmlns="http://www.w3.org/2000/svg">
<g clip-path="url(#clip0)">
<path d="M4.63894 2.92207C4.63894 4.07934 3.63267 5.01406 2.38682 5.01406C1.18888 4.96955 0.182617 4.03483 0.182617 2.92207C0.182617 1.7648 1.18888 0.830078 2.43474 0.830078C3.63267 0.830078 4.63894 1.7648 4.63894 2.92207Z" fill="#1769FF"/>
<path d="M19.3975 2.92207C19.3975 4.07934 18.3913 5.01406 17.1454 5.01406C15.8996 5.01406 14.8933 4.07934 14.8933 2.92207C14.8933 1.7648 15.8996 0.830078 17.1454 0.830078C18.3913 0.830078 19.3975 1.7648 19.3975 2.92207Z" fill="#1769FF"/>
<path d="M34.1561 2.92207C34.1561 4.07934 33.1498 5.01406 31.904 5.01406C30.6581 5.01406 29.6519 4.07934 29.6519 2.92207C29.6519 1.7648 30.6581 0.830078 31.904 0.830078C33.1498 0.830078 34.1561 1.7648 34.1561 2.92207Z" fill="#1769FF"/>
<path d="M48.9146 2.92207C48.9146 4.07934 47.9084 5.01406 46.6625 5.01406C45.4167 5.01406 44.4104 4.07934 44.4104 2.92207C44.4104 1.7648 45.4167 0.830078 46.6625 0.830078C47.9084 0.830078 48.9146 1.7648 48.9146 2.92207Z" fill="#1769FF"/>
<path d="M63.6732 2.92207C63.6732 4.07934 62.6669 5.01406 61.4211 5.01406C60.1752 5.01406 59.1689 4.07934 59.1689 2.92207C59.1689 1.7648 60.1752 0.830078 61.4211 0.830078C62.6669 0.830078 63.6732 1.7648 63.6732 2.92207Z" fill="#1769FF"/>
<path d="M78.4317 2.92207C78.4317 4.07934 77.4255 5.01406 76.1796 5.01406C74.9338 5.01406 73.9275 4.07934 73.9275 2.92207C73.9275 1.7648 74.9338 0.830078 76.1796 0.830078C77.4255 0.830078 78.4317 1.7648 78.4317 2.92207Z" fill="#1769FF"/>
<path d="M93.1903 2.92207C93.1903 4.07934 92.184 5.01406 90.9381 5.01406C89.6923 5.01406 88.686 4.07934 88.686 2.92207C88.686 1.7648 89.6923 0.830078 90.9381 0.830078C92.184 0.830078 93.1903 1.7648 93.1903 2.92207Z" fill="#1769FF"/>
<path d="M107.949 2.92207C107.949 4.07934 106.943 5.01406 105.697 5.01406C104.451 5.01406 103.445 4.07934 103.445 2.92207C103.445 1.7648 104.451 0.830078 105.697 0.830078C106.943 0.830078 107.949 1.7648 107.949 2.92207Z" fill="#1769FF"/>
<path d="M122.707 2.92207C122.707 4.07934 121.701 5.01406 120.455 5.01406C119.209 5.01406 118.203 4.07934 118.203 2.92207C118.203 1.7648 119.209 0.830078 120.455 0.830078C121.701 0.830078 122.707 1.7648 122.707 2.92207Z" fill="#1769FF"/>
<path d="M12.1141 13.738C12.1141 14.8953 11.1078 15.83 9.86198 15.83C8.61613 15.83 7.60986 14.8953 7.60986 13.738C7.60986 12.5807 8.61613 11.646 9.86198 11.646C11.1078 11.6905 12.1141 12.6252 12.1141 13.738Z" fill="#1769FF"/>
<path d="M24.6684 15.83C25.9122 15.83 26.9205 14.8934 26.9205 13.738C26.9205 12.5826 25.9122 11.646 24.6684 11.646C23.4246 11.646 22.4163 12.5826 22.4163 13.738C22.4163 14.8934 23.4246 15.83 24.6684 15.83Z" fill="#1769FF"/>
<path d="M39.4269 15.83C40.6707 15.83 41.679 14.8934 41.679 13.738C41.679 12.5826 40.6707 11.646 39.4269 11.646C38.1831 11.646 37.1748 12.5826 37.1748 13.738C37.1748 14.8934 38.1831 15.83 39.4269 15.83Z" fill="#1769FF"/>
<path d="M56.3897 13.738C56.3897 14.8953 55.3835 15.83 54.1376 15.83C52.8918 15.83 51.8855 14.8953 51.8855 13.738C51.8855 12.5807 52.8918 11.646 54.1376 11.646C55.3835 11.6905 56.3897 12.6252 56.3897 13.738Z" fill="#1769FF"/>
<path d="M71.1483 13.738C71.1483 14.8953 70.142 15.83 68.8962 15.83C67.6503 15.83 66.644 14.8953 66.644 13.738C66.644 12.5807 67.6503 11.646 68.8962 11.646C70.142 11.6905 71.1483 12.6252 71.1483 13.738Z" fill="#1769FF"/>
<path d="M85.9068 13.738C85.9068 14.8953 84.9006 15.83 83.6547 15.83C82.4089 15.83 81.4026 14.8953 81.4026 13.738C81.4026 12.5807 82.4089 11.646 83.6547 11.646C84.9006 11.6905 85.9068 12.6252 85.9068 13.738Z" fill="#1769FF"/>
<path d="M98.4614 15.83C99.7052 15.83 100.713 14.8934 100.713 13.738C100.713 12.5826 99.7052 11.646 98.4614 11.646C97.2175 11.646 96.2092 12.5826 96.2092 13.738C96.2092 14.8934 97.2175 15.83 98.4614 15.83Z" fill="#1769FF"/>
<path d="M113.22 15.83C114.464 15.83 115.472 14.8934 115.472 13.738C115.472 12.5826 114.464 11.646 113.22 11.646C111.976 11.646 110.968 12.5826 110.968 13.738C110.968 14.8934 111.976 15.83 113.22 15.83Z" fill="#1769FF"/>
<path d="M130.183 13.738C130.183 14.8953 129.176 15.83 127.931 15.83C126.685 15.83 125.678 14.8953 125.678 13.738C125.678 12.5807 126.685 11.646 127.931 11.646C129.224 11.6905 130.183 12.6252 130.183 13.738Z" fill="#1769FF"/>
</g>
<defs>
<clipPath id="clip0">
<rect width="130" height="15" fill="white" transform="translate(0.182617 0.830078)"/>
</clipPath>
</defs>
</svg>
