<svg width="123" height="25" viewBox="0 0 123 25" fill="none" xmlns="http://www.w3.org/2000/svg">
<path d="M61.1126 24.628L50.8761 16.5769L40.6397 24.628L30.4032 16.5769L20.1668 24.628L9.9791 16.5769L0.717558 24.4816L0.376343 24.0912L9.93036 15.8938L20.1668 23.9449L30.4032 15.8938L40.6397 23.9449L50.8761 15.8938L61.1126 23.9449L71.349 15.8938L81.5367 23.9449L91.7732 15.8938L102.01 23.9449L112.246 15.8938L122.629 24.0912L122.336 24.5304L112.246 16.5769L102.01 24.628L91.7732 16.5769L81.5367 24.628L71.349 16.5769L61.1126 24.628Z" fill="#0077B7"/>
<path d="M61.1126 9.06254L50.8761 1.01149L40.6397 9.06254L30.4032 1.01149L20.1668 9.06254L9.9791 1.01149L0.717558 8.96495L0.376343 8.5258L9.93036 0.328369L20.1668 8.37942L30.4032 0.328369L40.6397 8.37942L50.8761 0.328369L61.1126 8.37942L71.349 0.328369L81.5367 8.37942L91.7732 0.328369L102.01 8.37942L112.246 0.328369L122.629 8.5258L122.336 8.96495L112.246 1.01149L102.01 9.06254L91.7732 1.01149L81.5367 9.06254L71.349 1.01149L61.1126 9.06254Z" fill="#0077B7"/>
</svg>
