<svg width="732" height="732" viewBox="0 0 732 732" fill="none" xmlns="http://www.w3.org/2000/svg">
<path d="M365.8 731.6C567.826 731.6 731.6 567.826 731.6 365.8C731.6 163.774 567.826 0 365.8 0C163.774 0 0 163.774 0 365.8C0 567.826 163.774 731.6 365.8 731.6Z" fill="#627EEA"/>
<path d="M377.2 91.4V294.2L548.6 370.8L377.2 91.4Z" fill="white" fill-opacity="0.602"/>
<path d="M377.2 91.4L205.8 370.8L377.2 294.2V91.4Z" fill="white"/>
<path d="M377.2 502.2V640L548.7 402.7L377.2 502.2Z" fill="white" fill-opacity="0.602"/>
<path d="M377.2 640V502.2L205.8 402.7L377.2 640Z" fill="white"/>
<path d="M377.2 470.3L548.6 370.8L377.2 294.2V470.3Z" fill="white" fill-opacity="0.2"/>
<path d="M205.8 370.8L377.2 470.3V294.2L205.8 370.8Z" fill="white" fill-opacity="0.602"/>
</svg>