<svg width="800" height="831" viewBox="0 0 800 831" fill="none" xmlns="http://www.w3.org/2000/svg">
<path fill-rule="evenodd" clip-rule="evenodd" d="M389.989 192.372C385.005 227.452 381.022 256.985 373.844 302.979C393.235 302.558 437.246 310.279 446.933 247.421C454.953 195.128 419.207 190.284 389.989 192.372V192.372Z" fill="black"/>
<path fill-rule="evenodd" clip-rule="evenodd" d="M557.926 445.262C565.472 462.055 557.874 483.289 542.133 491.835C533.095 496.748 522.777 501.311 512.476 503.873C495.47 507.935 478.083 510.194 460.603 510.612C432.649 510.612 404.624 494.607 392.551 475.129C389.427 481.85 378.161 495.362 358.42 501.715C345.943 505.751 330.904 510.611 299.51 510.576C271.38 510.559 255.341 497.801 246.865 487.097C233.353 470.075 231.37 448.455 234.002 433.89L234.143 433.188C244.759 379.929 259.272 283.098 265.958 234.577L266.028 234.103C267.853 220.643 269.713 207.184 270.819 193.637C271.363 186.81 271.731 179.949 271.801 173.105C271.871 166.63 271.275 160.172 271.327 153.697C271.398 147.59 272.38 141.413 275.241 136.008C279.891 127.286 288.402 120.407 297.404 117.407C307.284 114.108 317.602 112.792 327.868 111.598C338.364 110.34 348.883 109.287 359.42 108.44C372.267 107.495 385.144 107.015 398.026 107.001C420.067 106.983 442.248 107.352 463.973 111.826C486.101 116.389 508.458 125.11 525.918 140.395C537.886 150.871 547.38 164.085 554.522 178.545C560.769 191.285 563.314 204.692 564.823 214.94C567.508 233.333 566.8 252.062 562.735 270.2C559.524 283.424 554.107 296.013 546.713 307.437C538.395 320.353 527.726 332.075 514.126 343.236C522.409 367.277 543.993 414.236 557.926 445.262ZM310.39 156.136C310.916 165.05 310.987 174.035 310.601 182.985C310.214 192.127 309.425 201.235 308.407 210.325C307.407 219.38 306.196 228.4 304.968 237.42L304.564 240.368C300.703 268.568 296.632 296.733 292.368 324.845C287.875 354.397 282.839 383.79 277.803 413.218C275.469 426.941 270.222 444.525 277.399 457.616C283.787 469.303 300.177 470.724 311.601 469.548C353.208 465.302 359.823 456.054 359.823 456.054C351.523 446.859 358.736 404.953 367.088 348.623H396.657L427.613 442.243C427.613 442.243 436.738 471.251 462.095 469.847C494.577 468.057 518.478 460.634 521.917 456.51C511.915 450.93 483.311 379.403 467.728 326.881C475.274 322.283 482.591 317.282 489.488 311.684C498.911 303.998 507.65 295.136 514.336 284.73C519.145 277.254 522.812 269.024 524.918 260.285C526.023 255.67 526.638 250.844 527.024 246.123C527.726 237.806 527.462 229.382 526.252 221.135C525.093 213.203 523.356 204.376 519.811 197.216C513.231 183.827 503.913 172.14 491.208 164.664C469.764 152.065 445.056 149.66 420.962 148.344C394.831 146.891 368.623 147.749 342.644 150.906C339.731 151.257 310.267 153.855 310.39 156.136V156.136Z" fill="black"/>
<path d="M102 660.42V726.84H114.958H127.917V699.84V672.732L137.851 673.056L147.786 673.38L163.012 700.056L178.13 726.732L193.032 726.84C201.131 726.84 207.826 726.624 207.826 726.3C207.826 725.976 200.915 713.664 192.6 698.976C184.177 684.288 177.158 671.976 176.942 671.652C176.726 671.22 179.318 669.6 182.773 667.872C190.656 663.984 198.647 656.532 202.103 649.836C206.854 640.332 207.07 623.592 202.534 614.736C197.783 605.556 186.769 597.78 174.566 595.188C171.111 594.432 155.885 594 135.475 594H102V660.42ZM170.787 618.84C176.726 621.54 179.75 626.4 179.75 633.42C179.75 639.9 177.05 644.868 171.975 647.676C168.951 649.296 165.172 649.728 148.218 649.944L127.917 650.376V633.528V616.68H147.138C163.66 616.68 166.899 617.004 170.787 618.84Z" fill="black"/>
<path d="M514.505 661.5V726.84H526.923H539.341V661.5V596.16H526.923H514.505V661.5Z" fill="black"/>
<path d="M651.862 657.396C652.186 707.724 652.186 707.94 654.67 713.016C657.477 718.74 664.172 725.22 669.572 727.488C671.947 728.46 677.347 729 685.122 729H697V718.2V707.4H690.089C684.798 707.4 682.638 706.86 680.37 705.132L677.563 702.972V677.592V652.32H687.281H697V642.06V631.8H687.281H677.563V619.38V606.96H664.496H651.538L651.862 657.396Z" fill="black"/>
<path d="M241.085 631.692C232.338 634.608 226.399 638.28 220.028 644.976C213.549 651.996 210.525 657.396 208.366 666.576C202.534 691.2 213.225 714.852 234.822 725.112C241.517 728.352 242.381 728.46 255.879 728.46C267.974 728.46 270.781 728.136 276.181 725.868C283.74 722.844 293.782 713.988 297.778 706.644L300.585 701.352L291.946 696.276C287.195 693.468 282.876 691.2 282.444 691.2C282.012 691.2 280.176 693.36 278.232 695.952C273.913 702.216 268.082 705.996 260.955 707.4C254.583 708.588 250.048 707.94 244.541 705.132C238.062 701.892 231.583 693.36 231.583 687.96C231.583 685.8 232.015 685.8 267.218 685.8H302.853V676.728C302.853 655.992 293.242 640.656 275.317 632.772C267.65 629.316 249.832 628.776 241.085 631.692ZM270.241 652.752C273.049 654.696 275.749 657.828 277.476 661.392L280.284 666.9L256.311 667.224C243.137 667.332 232.122 667.224 231.799 666.9C230.287 665.388 238.062 655.776 243.461 652.536C248.968 649.188 249.94 648.972 257.607 649.296C264.518 649.62 266.462 650.052 270.241 652.752Z" fill="black"/>
<path d="M436.863 631.26C422.933 635.148 410.082 645.408 404.791 656.964C401.012 665.388 399.392 678.348 401.012 688.176C405.223 713.772 424.121 729 451.765 729C467.963 729 478.761 725.112 489.236 715.716C495.283 710.208 499.386 703.296 502.086 694.008C504.354 686.124 503.814 668.412 501.114 660.96C496.687 648.756 484.916 637.416 471.634 632.664C463.427 629.64 445.286 628.992 436.863 631.26ZM463.211 655.452C478.329 662.148 483.297 682.344 473.146 695.736C465.911 705.24 450.685 708.804 440.426 703.404C434.811 700.38 428.764 693.684 427.036 688.5C424.876 682.02 426.172 670.464 429.52 665.388C437.187 653.832 450.469 649.944 463.211 655.452Z" fill="black"/>
<path d="M302.097 633.312C302.421 634.068 311.06 655.452 321.319 680.832L340 726.948L351.77 726.624L363.541 726.3L381.79 681.48C391.833 656.856 400.364 635.58 400.688 634.176L401.336 631.692L388.162 632.016L374.879 632.34L363.433 662.796C357.17 679.536 351.662 692.928 351.338 692.496C350.907 692.064 345.615 678.24 339.46 661.716L328.23 631.8H314.839C304.041 631.8 301.665 632.124 302.097 633.312Z" fill="black"/>
<path d="M552.299 661.284C552.299 677.916 552.839 693.576 553.487 697.14C555.863 710.316 562.882 719.388 574.868 725.112C581.779 728.352 582.535 728.46 596.573 728.46C610.288 728.46 611.583 728.244 617.631 725.436C629.617 719.82 637.284 709.992 639.66 697.14C640.307 693.576 640.847 677.916 640.847 661.284V631.8H628.537H616.119L615.795 661.176C615.471 689.364 615.363 690.876 612.987 695.196C609.532 701.676 603.7 704.484 594.954 703.944C587.179 703.512 582.751 700.812 579.728 694.764C577.892 691.092 577.676 687.42 577.352 661.176L577.028 631.8H564.61H552.299V661.284Z" fill="black"/>
</svg>