<svg width="60" height="61" viewBox="0 0 60 61" fill="none" xmlns="http://www.w3.org/2000/svg">
<path d="M43.0379 46.9098C42.93 46.9098 42.8233 46.8883 42.7239 46.8465C42.6245 46.8047 42.5344 46.7435 42.4589 46.6665C42.0953 46.2966 41.6936 45.9662 41.2606 45.6806C41.0914 45.558 40.9761 45.375 40.9387 45.1695C40.9012 44.964 40.9445 44.752 41.0595 44.5777C41.1745 44.4033 41.3523 44.2801 41.5559 44.2336C41.7595 44.1871 41.9732 44.221 42.1524 44.3282C42.6796 44.6772 43.1688 45.0805 43.6119 45.5314C43.7237 45.6454 43.7993 45.7899 43.8293 45.9467C43.8592 46.1036 43.8422 46.2657 43.7804 46.413C43.7186 46.5602 43.6147 46.6858 43.4817 46.7742C43.3488 46.8626 43.1927 46.9098 43.033 46.9098H43.0379Z" fill="black"/>
<path d="M45.3243 59.226H14.5784C14.3633 59.226 14.1571 59.1406 14.0051 58.9886C13.853 58.8365 13.7676 58.6303 13.7676 58.4152V51.726C13.7702 49.3721 14.7064 47.1154 16.3708 45.4509C18.0353 43.7865 20.2921 42.8502 22.646 42.8477H37.2243C37.4394 42.8477 37.6456 42.9331 37.7977 43.0851C37.9497 43.2372 38.0351 43.4434 38.0351 43.6585C38.0351 43.8735 37.9497 44.0797 37.7977 44.2318C37.6456 44.3839 37.4394 44.4693 37.2243 44.4693H22.646C20.722 44.4714 18.8775 45.2367 17.517 46.5971C16.1566 47.9575 15.3913 49.8021 15.3892 51.726V57.6044H44.5135V51.726C44.5151 51.1597 44.4492 50.5952 44.3173 50.0444C44.2892 49.9401 44.2823 49.8312 44.2968 49.7242C44.3114 49.6172 44.3472 49.5141 44.4022 49.4211C44.4571 49.3281 44.5301 49.247 44.6168 49.1826C44.7036 49.1182 44.8023 49.0718 44.9072 49.0461C45.0121 49.0204 45.1211 49.0159 45.2278 49.0329C45.3345 49.0499 45.4367 49.088 45.5284 49.145C45.6202 49.2021 45.6996 49.2769 45.762 49.3651C45.8244 49.4532 45.8686 49.553 45.8919 49.6585C46.0545 50.3345 46.1361 51.0275 46.1352 51.7228V58.4152C46.1352 58.6303 46.0497 58.8365 45.8977 58.9886C45.7456 59.1406 45.5394 59.226 45.3243 59.226Z" fill="black"/>
<path d="M29.9497 39.7618C28.2691 39.7618 26.6262 39.2634 25.2288 38.3297C23.8315 37.396 22.7424 36.0689 22.0992 34.5162C21.4561 32.9635 21.2878 31.255 21.6157 29.6067C21.9435 27.9584 22.7528 26.4443 23.9412 25.256C25.1296 24.0676 26.6436 23.2583 28.292 22.9304C29.9403 22.6026 31.6488 22.7708 33.2015 23.414C34.7541 24.0571 36.0812 25.1462 37.0149 26.5436C37.9486 27.941 38.447 29.5838 38.447 31.2645C38.4446 33.5174 37.5486 35.6773 35.9556 37.2703C34.3625 38.8634 32.2026 39.7594 29.9497 39.7618ZM29.9497 24.3888C28.5898 24.3888 27.2605 24.792 26.1298 25.5475C24.9991 26.303 24.1178 27.3769 23.5974 28.6332C23.077 29.8896 22.9408 31.2721 23.2061 32.6058C23.4714 33.9396 24.1263 35.1647 25.0879 36.1263C26.0494 37.0879 27.2746 37.7427 28.6083 38.008C29.9421 38.2733 31.3245 38.1372 32.5809 37.6168C33.8373 37.0963 34.9111 36.2151 35.6666 35.0844C36.4221 33.9537 36.8254 32.6243 36.8254 31.2645C36.8234 29.4415 36.0984 27.6938 34.8094 26.4047C33.5204 25.1157 31.7726 24.3907 29.9497 24.3888Z" fill="black"/>
<path d="M37.8487 59.226H22.0541C21.8391 59.226 21.6328 59.1406 21.4808 58.9885C21.3287 58.8365 21.2433 58.6302 21.2433 58.4152V53.7871C21.2433 53.572 21.3287 53.3658 21.4808 53.2137C21.6328 53.0617 21.8391 52.9763 22.0541 52.9763C22.2691 52.9763 22.4754 53.0617 22.6274 53.2137C22.7795 53.3658 22.8649 53.572 22.8649 53.7871V57.6044H37.0379V53.7871C37.0379 53.572 37.1233 53.3658 37.2754 53.2137C37.4274 53.0617 37.6336 52.9763 37.8487 52.9763C38.0637 52.9763 38.27 53.0617 38.422 53.2137C38.5741 53.3658 38.6595 53.572 38.6595 53.7871V58.4152C38.6595 58.6302 38.5741 58.8365 38.422 58.9885C38.27 59.1406 38.0637 59.226 37.8487 59.226Z" fill="black"/>
<path d="M54.7143 25.253C54.583 25.253 54.4536 25.221 54.3373 25.1598L50.1479 22.9576L45.9592 25.1598C45.8253 25.2304 45.6743 25.2621 45.5232 25.2514C45.3722 25.2406 45.2272 25.1877 45.1047 25.0988C44.9822 25.0098 44.887 24.8883 44.8299 24.7481C44.7729 24.6078 44.7563 24.4544 44.7819 24.3052L45.5822 19.6406L42.1938 16.3341C42.0854 16.2286 42.0087 16.0948 41.9724 15.948C41.936 15.8012 41.9415 15.6471 41.9881 15.5032C42.0348 15.3592 42.1207 15.2313 42.2363 15.1337C42.3519 15.0361 42.4925 14.9728 42.6422 14.9509L47.3262 14.2698L49.4206 10.026C49.4951 9.89941 49.6014 9.79447 49.729 9.72155C49.8566 9.64864 50.0009 9.61029 50.1479 9.61029C50.2948 9.61029 50.4392 9.64864 50.5667 9.72155C50.6943 9.79447 50.8006 9.89941 50.8752 10.026L52.9695 14.2698L57.6535 14.9509C57.8033 14.9726 57.944 15.0359 58.0597 15.1334C58.1754 15.2309 58.2614 15.3589 58.3082 15.5028C58.3549 15.6468 58.3604 15.8009 58.3241 15.9478C58.2878 16.0947 58.2111 16.2285 58.1027 16.3341L54.7135 19.6374L55.5138 24.302C55.5338 24.4184 55.5281 24.5377 55.4971 24.6517C55.4661 24.7657 55.4106 24.8715 55.3344 24.9618C55.2583 25.052 55.1634 25.1246 55.0562 25.1743C54.9491 25.2241 54.8324 25.2498 54.7143 25.2498V25.253ZM50.1479 21.2306C50.2793 21.2304 50.4087 21.2624 50.5249 21.3239L53.6376 22.9601L53.0425 19.4963C53.0203 19.3665 53.03 19.2333 53.0708 19.1081C53.1116 18.983 53.1823 18.8696 53.2768 18.7779L55.7943 16.3236L52.3144 15.8184C52.1843 15.7996 52.0607 15.7493 51.9543 15.672C51.848 15.5948 51.762 15.4928 51.7038 15.3749L50.1479 12.2217L48.5919 15.3717C48.5337 15.4896 48.4477 15.5915 48.3414 15.6688C48.235 15.7461 48.1115 15.7963 47.9814 15.8152L44.5014 16.3203L47.0198 18.7747C47.1141 18.8665 47.1846 18.9798 47.2253 19.105C47.266 19.2302 47.2756 19.3633 47.2533 19.493L46.6581 22.9585L49.7708 21.3222C49.887 21.2608 50.0165 21.2288 50.1479 21.229V21.2306Z" fill="#EC595A"/>
<path d="M34.5665 18.1447C34.4352 18.1446 34.3059 18.1129 34.1895 18.0522L30 15.8477L25.8106 18.0506C25.6767 18.121 25.5257 18.1526 25.3748 18.1417C25.2239 18.1308 25.0791 18.0779 24.9567 17.989C24.8343 17.9001 24.7392 17.7787 24.6822 17.6386C24.6252 17.4984 24.6085 17.3451 24.6341 17.196L25.4343 12.5306L22.0451 9.22738C21.9367 9.1218 21.86 8.98799 21.8237 8.84108C21.7874 8.69417 21.793 8.54004 21.8397 8.39611C21.8864 8.25218 21.9725 8.1242 22.0882 8.02666C22.2039 7.92911 22.3446 7.86589 22.4943 7.84414L27.1784 7.16387L29.2703 2.92171C29.3448 2.7951 29.4512 2.69016 29.5787 2.61725C29.7063 2.54433 29.8507 2.50598 29.9976 2.50598C30.1445 2.50598 30.2889 2.54433 30.4165 2.61725C30.544 2.69016 30.6503 2.7951 30.7249 2.92171L32.8216 7.16549L37.5057 7.84576C37.6555 7.86751 37.7961 7.93073 37.9118 8.02828C38.0275 8.12582 38.1136 8.2538 38.1603 8.39773C38.2071 8.54166 38.2126 8.69579 38.1763 8.8427C38.14 8.98961 38.0633 9.12342 37.9549 9.229L34.5657 12.5322L35.366 17.1977C35.3858 17.314 35.38 17.4333 35.3489 17.5471C35.3179 17.661 35.2624 17.7667 35.1862 17.8569C35.1101 17.9471 35.0152 18.0196 34.9082 18.0693C34.8011 18.119 34.6845 18.1447 34.5665 18.1447ZM30 14.1231C30.1313 14.1229 30.2607 14.1546 30.377 14.2155L33.4865 15.8517L32.8914 12.3863C32.8692 12.2567 32.8789 12.1237 32.9196 11.9987C32.9602 11.8737 33.0307 11.7604 33.1249 11.6687L35.6433 9.21441L32.1665 8.71252C32.0363 8.69354 31.9127 8.64318 31.8064 8.56577C31.7 8.48836 31.6141 8.38623 31.556 8.26819L30 5.11252L28.4441 8.26495C28.386 8.38298 28.3001 8.48511 28.1937 8.56252C28.0873 8.63993 27.9637 8.6903 27.8335 8.70927L24.3535 9.21441L26.8719 11.6687C26.9661 11.7604 27.0366 11.8737 27.0772 11.9987C27.1179 12.1237 27.1276 12.2567 27.1054 12.3863L26.5135 15.8517L29.6262 14.2155C29.7416 14.1551 29.8698 14.1234 30 14.1231Z" fill="#EC595A"/>
<path d="M14.4186 25.2531C14.287 25.2531 14.1573 25.2211 14.0408 25.1598L9.85215 22.9577L5.66269 25.1582C5.52879 25.2286 5.37786 25.2601 5.22697 25.2492C5.07608 25.2383 4.93125 25.1854 4.80885 25.0965C4.68645 25.0076 4.59137 24.8862 4.53435 24.7461C4.47733 24.606 4.46066 24.4527 4.4862 24.3036L5.28648 19.639L1.89729 16.3341C1.79029 16.2284 1.71484 16.0949 1.67936 15.9487C1.64388 15.8025 1.64978 15.6493 1.6964 15.5063C1.74301 15.3633 1.8285 15.236 1.94331 15.1388C2.05812 15.0416 2.19771 14.9782 2.34648 14.9558L7.03053 14.2747L9.12485 10.0309C9.19941 9.9043 9.30573 9.79935 9.43329 9.72644C9.56084 9.65353 9.70522 9.61517 9.85215 9.61517C9.99908 9.61517 10.1435 9.65353 10.271 9.72644C10.3986 9.79935 10.5049 9.9043 10.5794 10.0309L12.6738 14.2747L17.3578 14.9558C17.5075 14.9776 17.6481 15.0409 17.7637 15.1385C17.8793 15.2361 17.9653 15.3641 18.0119 15.508C18.0585 15.6519 18.064 15.806 18.0277 15.9529C17.9913 16.0997 17.9146 16.2335 17.8062 16.339L14.4178 19.6422L15.2181 24.3068C15.2381 24.4232 15.2323 24.5426 15.2014 24.6566C15.1704 24.7705 15.1149 24.8764 15.0387 24.9666C14.9626 25.0569 14.8676 25.1295 14.7605 25.1792C14.6534 25.229 14.5367 25.2547 14.4186 25.2547V25.2531ZM9.85215 21.2306C9.98356 21.2304 10.113 21.2624 10.2292 21.3239L13.3419 22.9601L12.7467 19.4963C12.7244 19.3666 12.7341 19.2334 12.7747 19.1083C12.8154 18.9831 12.886 18.8697 12.9803 18.7779L15.4986 16.3236L12.0186 15.8185C11.8885 15.7996 11.765 15.7493 11.6586 15.6721C11.5523 15.5948 11.4663 15.4928 11.4081 15.375L9.85215 12.2217L8.29621 15.375C8.23802 15.4928 8.15204 15.5948 8.04568 15.6721C7.93932 15.7493 7.81576 15.7996 7.68566 15.8185L4.20566 16.3236L6.71918 18.7779C6.81434 18.8692 6.8858 18.9824 6.92734 19.1076C6.96888 19.2328 6.97925 19.3662 6.95756 19.4963L6.36242 22.9585L9.47512 21.3222C9.59128 21.2608 9.72074 21.2288 9.85215 21.229V21.2306Z" fill="#EC595A"/>
</svg>
