<svg width="60" height="61" viewBox="0 0 60 61" fill="none" xmlns="http://www.w3.org/2000/svg">
<g clip-path="url(#clip0_983:432)">
<path d="M27.1982 16.9038C27.3574 17.0386 27.5589 17.112 27.7662 17.112C27.791 17.112 27.8161 17.1109 27.8411 17.1088C28.074 17.0889 28.2895 16.977 28.4398 16.7977L34.0472 10.107C34.359 9.73494 34.3102 9.18065 33.9381 8.86893C33.5663 8.55697 33.0118 8.60584 32.7 8.97803L27.6599 14.9915L25.3543 13.0389C24.984 12.7251 24.4293 12.7711 24.1157 13.1416C23.802 13.512 23.848 14.0667 24.2184 14.3802L27.1982 16.9038Z" fill="#EC595A"/>
<path d="M29.4219 24.9307C32.4217 24.9307 35.4214 23.7893 37.7051 21.5065C39.9165 19.2962 41.1343 16.3566 41.1343 13.2292C41.1343 10.1019 39.9166 7.16156 37.7051 4.94929C35.3072 2.55234 31.9944 1.31179 28.6174 1.54828C25.2255 1.78488 22.1095 3.47203 20.0685 6.17718C19.7763 6.56472 19.8534 7.11574 20.2408 7.40812C20.6286 7.70062 21.1795 7.6234 21.4719 7.23586C23.2063 4.93687 25.8554 3.50297 28.7398 3.30187C31.6089 3.1023 34.4246 4.15535 36.4622 6.1923C38.3416 8.07222 39.3765 10.5714 39.3765 13.2292C39.3765 15.8869 38.3416 18.3851 36.4626 20.2634C32.5803 24.144 26.2638 24.1438 22.3815 20.2634C19.8367 17.7196 18.8637 13.9855 19.8422 10.518C19.9741 10.0509 19.7023 9.56531 19.2351 9.43347C18.7687 9.30175 18.2824 9.57351 18.1505 10.0406C16.9993 14.1199 18.1443 18.5134 21.1388 21.5065C23.4224 23.7894 26.4222 24.9307 29.4219 24.9307Z" fill="#EC595A"/>
<path d="M56.4258 45.106C56.134 44.9396 55.8328 44.7685 55.5234 44.5834L53.2254 43.2052C54.2941 42.0697 55.0945 40.6904 55.4098 39.3087C55.5059 38.8916 55.5551 38.4814 55.5551 38.0912V32.274C55.5551 29.6279 53.5641 27.2396 50.4809 26.1908C47.7855 25.2744 45.1102 25.6998 43.6699 27.2373C42.1934 27.4974 40.1227 28.6681 40.193 33.2021C40.1941 33.2419 40.1941 33.2748 40.1941 33.3005V38.0912C40.1941 38.4814 40.2434 38.8916 40.3395 39.3052C40.6535 40.688 41.4527 42.0697 42.5238 43.2064L40.2645 44.5611C40.248 44.5693 40.2316 44.5798 40.2152 44.5892C39.9105 44.772 39.6117 44.9419 39.3234 45.106C38.4598 45.597 37.6184 46.074 36.9691 46.7419L35.3496 45.7705C36.4195 44.6337 37.2199 43.2544 37.5352 41.874C37.6289 41.4626 37.677 41.0525 37.677 40.6552V38.0701C37.677 38.0695 37.6771 38.0689 37.6771 38.0683V34.8376C37.6771 32.1925 35.687 29.8057 32.607 28.7568C29.9121 27.839 27.2355 28.2636 25.7953 29.8005C24.3178 30.06 22.2465 31.2305 22.3182 35.7641C22.3189 35.805 22.3195 35.8385 22.3195 35.8637V36.9791V38.5665V40.6552C22.3195 41.0337 22.3664 41.4416 22.4613 41.874C22.7766 43.2544 23.577 44.6337 24.648 45.7705L23.0309 46.7419C22.3805 46.074 21.5391 45.5959 20.6742 45.1048C20.3824 44.9384 20.0812 44.7685 19.773 44.5834L19.7496 44.5693C19.7473 44.568 19.745 44.5665 19.7427 44.5652L17.4745 43.2063C18.5446 42.0701 19.3447 40.6908 19.66 39.3089C19.7543 38.9006 19.8021 38.491 19.8021 38.0916V35.5017V34.5154V32.2742C19.8021 29.6287 17.8118 27.2414 14.7314 26.1922C12.036 25.274 9.35836 25.6991 7.91707 27.2371C6.44062 27.4967 4.37145 28.6674 4.44328 33.2005C4.44398 33.2415 4.44457 33.275 4.44457 33.3002V34.4125V35.9997V38.0916C4.44457 38.491 4.49238 38.9005 4.58613 39.3065C4.90172 40.6897 5.70199 42.0694 6.7718 43.2057L4.4727 44.5832C4.16496 44.7678 3.86414 44.9388 3.57305 45.1041C1.73566 46.1483 0 47.1345 0 50.0089V55.1722C0 55.3473 0 55.8801 0.384727 56.258C0.706641 56.5742 1.09992 56.6087 1.39852 56.6087C1.44281 56.6087 1.485 56.608 1.52449 56.6073C1.56633 56.6066 1.61016 56.6056 1.65609 56.6056H10.3252C10.3257 56.6056 10.3263 56.6057 10.3269 56.6057C10.3275 56.6057 10.3281 56.6056 10.3287 56.6056H12.1225H12.1229H13.9114C13.9119 56.6056 13.9124 56.6057 13.9129 56.6057C13.9133 56.6057 13.9138 56.6056 13.9143 56.6056H17.8744V57.7353C17.8744 57.9111 17.8744 58.4455 18.2611 58.824C18.5834 59.1404 18.9759 59.1755 19.2748 59.1755C19.3193 59.1755 19.3615 59.1744 19.4013 59.1744C19.4423 59.1732 19.4857 59.172 19.5314 59.172H20.5439C21.0291 59.172 21.4228 58.7783 21.4228 58.2931C21.4228 57.808 21.0291 57.4142 20.5439 57.4142H19.6322V56.6056V54.8478V52.572C19.6322 50.7943 20.408 50.2834 22.3193 49.1994C22.3486 49.183 22.3779 49.1654 22.4084 49.149C22.5302 49.0798 22.6533 49.0084 22.7798 48.9357L24.2459 49.8849L25.7564 50.8634C25.7693 50.8705 25.7822 50.8787 25.7951 50.8857C25.9005 50.9466 25.9931 51.0111 26.0834 51.072C26.2673 51.1974 26.6189 51.4376 27.0443 51.4376C27.2201 51.4376 27.4088 51.3966 27.6033 51.29L27.724 51.7634L26.0107 55.4748C26.0095 55.4771 26.0084 55.4806 26.0072 55.483C25.8607 55.7853 25.8841 56.1193 26.0658 56.3947L26.6646 57.4142H24.6033C24.1181 57.4142 23.7244 57.808 23.7244 58.2931C23.7244 58.7783 24.1181 59.172 24.6033 59.172H28.1998H28.2021H40.4658C40.5115 59.172 40.5548 59.1732 40.5959 59.1744C40.6357 59.1744 40.6779 59.1755 40.7224 59.1755C41.0224 59.1755 41.4162 59.1404 41.7396 58.824C42.1252 58.4455 42.1252 57.9111 42.1252 57.7353V56.6056H49.6627H49.665H58.3439C58.3884 56.6056 58.433 56.6068 58.474 56.6068C58.5138 56.608 58.556 56.6091 58.6005 56.6091C58.8994 56.6091 59.292 56.574 59.6142 56.2576C59.9998 55.8791 59.9998 55.347 59.9998 55.1724V50.0091C60 47.1357 58.2645 46.149 56.4258 45.106ZM17.6595 45.3653L15.425 46.8104C15.3328 46.865 15.2508 46.918 15.178 46.9667L14.6977 46.4579C14.6896 46.4486 14.6808 46.44 14.6723 46.431L13.8716 45.5828C13.958 45.5539 14.0454 45.523 14.1343 45.4897C14.8143 45.2364 15.4745 44.8714 16.0903 44.4251L17.6595 45.3653ZM8.44348 28.9393C8.68816 28.9177 8.91269 28.7948 9.06258 28.6003C9.95473 27.4427 12.0527 27.1367 14.1648 27.856C15.9544 28.4656 18.0443 29.9885 18.0443 32.2742V34.5155V34.6229H17.6742C16.808 34.6229 16.2485 34.1401 15.4075 33.3523C14.4607 32.4657 13.2825 31.3621 11.2364 31.3621H9.66187C7.74984 31.3621 7.43051 32.9159 7.23984 33.8443C7.02047 34.9118 6.91652 35.121 6.21703 35.121H6.20238V34.4128V33.3004C6.20238 33.2682 6.2018 33.2253 6.20086 33.1728C6.15867 30.4982 6.91301 29.0739 8.44348 28.9393ZM6.29953 38.9132C6.23508 38.6344 6.2025 38.358 6.2025 38.0916V36.8786H6.21715C8.4109 36.8786 8.76914 35.1348 8.96168 34.198C9.18328 33.1198 9.27516 33.1198 9.66199 33.1198H11.2366C12.588 33.1198 13.3379 33.822 14.2061 34.6352C15.0796 35.4533 16.0696 36.3806 17.6745 36.3806H18.0445V38.0916C18.0445 38.358 18.012 38.6344 17.9469 38.9156C17.481 40.9582 15.5782 43.0763 13.5198 43.843C12.9918 44.0405 12.5481 44.1325 12.1236 44.1325C11.6992 44.1325 11.2555 44.0405 10.7263 43.8425C8.66883 43.0763 6.76594 40.9583 6.29953 38.9132ZM13.0651 47.2893L12.7796 48.406H11.4611L11.1775 47.2938L12.1234 46.2918L13.0651 47.2893ZM8.15637 44.4254C8.77195 44.8715 9.43184 45.2363 10.1113 45.4894C10.2006 45.5228 10.2885 45.5539 10.3752 45.5831L9.06914 46.9665C8.99602 46.9177 8.91352 46.8646 8.82082 46.81L6.58734 45.3656L8.15637 44.4254ZM8.17945 53.8139L8.78848 54.8478H1.75781V50.0089C1.75781 48.2285 2.53254 47.7173 4.44164 46.6325C4.59246 46.5467 4.74598 46.4595 4.90254 46.3692L7.88227 48.2963C7.89375 48.3037 7.90523 48.3107 7.91695 48.3176C8.0223 48.3791 8.11512 48.4427 8.20488 48.5042C8.40492 48.6413 8.75215 48.8792 9.17133 48.8792C9.34652 48.8792 9.53438 48.837 9.72926 48.7291L9.84926 49.1998L8.13668 52.9105C7.98961 53.2038 8.0059 53.5366 8.17945 53.8139ZM13.4115 54.8478H12.1239C12.1237 54.8478 12.1236 54.8478 12.1234 54.8478H10.8286L9.90352 53.2773L11.3405 50.1639H12.8999L14.3368 53.2773L13.4115 54.8478ZM17.8746 52.572V54.8478H15.4516L16.0608 53.814C16.2341 53.5372 16.2505 53.2047 16.1037 52.911L14.391 49.2003L14.5121 48.7263C14.709 48.8364 14.8989 48.8796 15.0759 48.8796C15.4968 48.8796 15.8455 48.64 16.0462 48.5021C16.1353 48.441 16.2273 48.3778 16.3315 48.3167C16.3426 48.3103 16.3535 48.3035 16.3643 48.2966L19.3441 46.3694C19.5008 46.4598 19.6542 46.5471 19.8046 46.6332C20.4948 47.0258 21.0362 47.3422 21.4475 47.6726C19.6102 48.7154 17.8746 49.7021 17.8746 52.572ZM53.4094 45.3662L51.1793 46.8099C51.0855 46.865 51.0023 46.9189 50.9285 46.9681L50.448 46.4583C50.4387 46.4478 50.427 46.4361 50.4164 46.4255L49.6219 45.583C49.7086 45.5548 49.7953 45.5232 49.8844 45.4904C50.5641 45.2361 51.2238 44.8716 51.8402 44.4251L53.4094 45.3662ZM44.1961 28.9388C44.441 28.9177 44.666 28.7947 44.816 28.6001C45.7066 27.4435 47.8031 27.1365 49.9148 27.8548C51.7055 28.4654 53.7973 29.9876 53.7973 32.274V34.6224H53.4246C52.5586 34.6224 51.9996 34.1408 51.1594 33.3533C50.2125 32.4662 49.0348 31.3623 46.9863 31.3623H45.4113C43.4988 31.3623 43.1801 32.9162 42.9902 33.8455C42.7711 34.9119 42.668 35.1205 41.9707 35.1205H41.952V33.3005C41.952 33.2689 41.952 33.2255 41.9508 33.174C41.9098 30.4986 42.6645 29.0736 44.1961 28.9388ZM42.0527 38.9138C41.9859 38.6255 41.952 38.349 41.952 38.0912V36.8783H41.9707C44.1621 36.8783 44.5195 35.1345 44.7117 34.1982C44.9332 33.1201 45.0246 33.1201 45.4113 33.1201H46.9863C48.3398 33.1201 49.0898 33.822 49.957 34.6353C50.8301 35.4533 51.8191 36.3802 53.4246 36.3802H53.7973V38.0912C53.7973 38.349 53.7633 38.6255 53.6965 38.9162C53.2313 40.9587 51.3281 43.0763 49.268 43.8439C48.7441 44.0408 48.3012 44.1322 47.8734 44.1322C47.448 44.1322 47.0062 44.0408 46.4789 43.8427C44.4188 43.0751 42.5156 40.9576 42.0527 38.9138ZM48.8156 47.2904L48.532 48.406H47.2113L46.9277 47.2939L47.8734 46.2919L48.8156 47.2904ZM43.9078 44.4263C44.523 44.8716 45.1828 45.2361 45.8625 45.4892C45.9516 45.522 46.0395 45.5537 46.1262 45.583L44.8195 46.9658C44.7457 46.9177 44.6637 46.865 44.5711 46.8099L42.3398 45.365L43.9078 44.4263ZM35.5359 47.9314L33.3059 49.3763C33.2121 49.4302 33.1289 49.4841 33.0551 49.5322L31.7473 48.1494C31.834 48.1201 31.9207 48.0896 32.0098 48.0568C32.6906 47.8025 33.3504 47.4369 33.9668 46.9892L35.5359 47.9314ZM26.3215 31.5028C26.5663 31.4812 26.7909 31.3583 26.9408 31.1636C27.8319 30.0072 29.9285 29.7018 32.0404 30.4209C33.8297 31.0303 35.9193 32.5525 35.9193 34.8377V37.077C35.9193 37.0776 35.9191 37.0782 35.9191 37.0787V37.1895H35.5492C34.6834 37.1895 34.1246 36.7071 33.2845 35.9198C32.3379 35.0328 31.1598 33.9288 29.1115 33.9288H27.537C25.6243 33.9288 25.3055 35.4833 25.115 36.412C24.8962 37.4785 24.7927 37.6876 24.0955 37.6876H24.0775V36.9791V35.8637C24.0775 35.8314 24.0769 35.7885 24.0759 35.7363C24.0335 33.0617 24.789 31.6374 26.3215 31.5028ZM24.177 41.4896C24.1113 41.1884 24.0773 40.9084 24.0773 40.6552V39.4454H24.0954C26.2873 39.4454 26.6448 37.7019 26.837 36.7651C27.0581 35.6865 27.1501 35.6865 27.537 35.6865H29.1115C30.465 35.6865 31.2146 36.3889 32.0827 37.2023C32.9555 38.0201 33.9448 38.9472 35.5493 38.9472H35.9193V40.6551C35.9193 40.9211 35.8864 41.1989 35.822 41.4813C35.3556 43.5215 33.4525 45.6403 31.397 46.409C30.8626 46.6071 30.4185 46.6996 29.9989 46.6996C29.5818 46.6996 29.1364 46.6071 28.6021 46.409C26.5441 45.6404 24.641 43.5216 24.177 41.4896ZM30.941 49.8544L30.6574 50.9701H29.3355L29.0531 49.858L29.9988 48.8572L30.941 49.8544ZM26.9426 49.531C26.8699 49.483 26.7879 49.4302 26.6941 49.3763L24.4641 47.9314L26.0309 46.9892C26.6484 47.4369 27.3094 47.8025 27.9902 48.058C28.0781 48.0896 28.1648 48.1201 28.2504 48.1482L26.9426 49.531ZM31.2867 57.4142H28.7039L27.7793 55.8404L29.2148 52.7279H30.7781L32.2125 55.8427L31.2867 57.4142ZM40.3676 57.4142H33.327L33.9363 56.3806C34.1063 56.1064 34.125 55.7759 33.982 55.483C33.9809 55.4806 33.9797 55.4771 33.9785 55.4748L32.2687 51.7634L32.3895 51.2923C32.5852 51.4013 32.775 51.4447 32.9508 51.4447C33.3691 51.4447 33.716 51.208 33.9164 51.072C34.0066 51.0099 34.0992 50.9466 34.2047 50.8857C34.2176 50.8787 34.2305 50.8705 34.2434 50.8634L37.2199 48.9357C37.3441 49.0084 37.4684 49.0787 37.5891 49.1478C37.6207 49.1654 37.6523 49.1841 37.684 49.2017C39.593 50.2857 40.3676 50.7966 40.3676 52.572V57.4142ZM43.9406 53.8283L44.5406 54.8478H42.1254V52.572C42.1254 49.7021 40.3898 48.7166 38.5523 47.6724C38.5523 47.6724 38.5512 47.6724 38.5512 47.6712C38.9613 47.3419 39.5027 47.0244 40.1918 46.6341C40.343 46.5474 40.4977 46.4607 40.6547 46.3693L43.6324 48.2958C43.643 48.3041 43.6547 48.3111 43.6664 48.3181C43.7719 48.3791 43.8645 48.4423 43.9547 48.5033C44.1398 48.6298 44.4937 48.8724 44.9227 48.8724C45.0973 48.8724 45.2848 48.8314 45.4781 48.7259L45.5988 49.1994L43.8867 52.9107C43.8855 52.9119 43.8855 52.9119 43.8855 52.913C43.7355 53.2154 43.7566 53.5505 43.9406 53.8283ZM49.1613 54.8478H46.5797L45.6551 53.2751L47.0906 50.1638H48.6527L50.0883 53.274L49.1613 54.8478ZM58.2422 54.8478H51.2016L51.8098 53.8142C51.9738 53.5541 51.9996 53.2482 51.8801 52.9646C51.873 52.947 51.8648 52.9283 51.8566 52.9107L50.1434 49.1994L50.2641 48.7271C50.4598 48.8361 50.6496 48.8794 50.8266 48.8794C51.2461 48.8794 51.5953 48.6404 51.7957 48.5033C51.8848 48.4423 51.9773 48.3791 52.0828 48.3181C52.0945 48.3111 52.1062 48.3041 52.118 48.2958L55.0945 46.3693C55.2516 46.4607 55.4062 46.5474 55.5574 46.6341C57.4676 47.7181 58.2422 48.2291 58.2422 50.0091V54.8478Z" fill="#171717"/>
</g>
<defs>
<clipPath id="clip0_983:432">
<rect width="60" height="60" fill="white" transform="translate(0 0.347656)"/>
</clipPath>
</defs>
</svg>
