<svg width="60" height="61" viewBox="0 0 60 61" fill="none" xmlns="http://www.w3.org/2000/svg">
<g clip-path="url(#clip0_983:426)">
<path d="M30 56.1406C43.9851 56.1406 55.2929 44.8004 55.2929 30.8477C55.2929 24.0917 52.662 17.74 47.8848 12.9629C43.1075 8.18573 36.7559 5.55475 30 5.55475C23.244 5.55475 16.8923 8.18561 12.1152 12.9629C7.33801 17.7401 4.70703 24.0917 4.70703 30.8477C4.70703 44.7769 15.9914 56.1406 30 56.1406ZM30 54.3828C23.6221 54.3828 17.8298 51.8315 13.5868 47.6974C14.9396 43.848 18.2129 41.0097 22.2472 40.2333L24.0093 39.8941C27.2022 43.6763 33.0543 43.7116 36.3129 39.9561L37.7527 40.2332C41.787 41.0096 45.0603 43.8479 46.4131 47.6972C42.1701 51.8315 36.3778 54.3828 30 54.3828ZM32.1253 18.8825C30.8137 19.304 29.1839 19.3031 27.8748 18.8825C25.1555 18.0089 23.0546 19.7646 23.0641 22.0094L23.0671 24.6918L21.6985 24.2153C21.5009 24.1465 21.3684 23.9599 21.3684 23.7509V20.4803C21.3684 17.2658 23.9836 14.6505 27.1982 14.6505H33.9547C34.7619 14.6505 35.4185 15.3072 35.4185 16.1144C35.4185 17.0353 36.1678 17.7846 37.0886 17.7846H37.1676C37.9749 17.7846 38.6315 18.4413 38.6315 19.2483V23.751C38.6315 23.96 38.4989 24.1467 38.3015 24.2153L36.9332 24.6918L36.9358 22.0121C36.9453 19.7721 34.86 18.0039 32.1253 18.8825ZM22.6004 26.3907C23.6878 26.7691 24.827 25.9596 24.825 24.8074L24.8218 22.0047C24.817 20.861 25.8246 20.0701 27.337 20.5562C28.9925 21.088 30.9905 21.0935 32.6628 20.5562C34.1512 20.078 35.1828 20.8471 35.178 22.0075L35.1753 24.8075C35.1739 25.9591 36.3123 26.7696 37.4 26.3908L38.7553 25.9188V27.5628C38.7553 28.0842 38.3311 28.5084 37.8097 28.5084H37.6776C37.2055 28.5084 36.8177 28.8815 36.7994 29.3532C36.732 31.0904 36.0087 32.613 34.708 33.7566C31.9243 36.2033 28.1322 36.2015 25.349 33.7966C24.0591 32.6819 23.3034 31.1013 23.2208 29.3459C23.1988 28.8771 22.8121 28.5084 22.3428 28.5084H22.1901C21.6687 28.5084 21.2445 28.0842 21.2445 27.5628V25.9187L22.6004 26.3907ZM34.4432 39.3546C31.965 41.5998 28.1511 41.5326 25.7675 39.203C26.4528 38.6546 26.8771 37.8167 26.8771 36.8873V36.7611C28.9077 37.5548 31.0988 37.5542 33.123 36.7672V36.8873C33.1229 37.9021 33.6404 38.8155 34.4432 39.3546ZM30 7.31256C42.9772 7.31256 53.5351 17.8705 53.5351 30.8477C53.5351 36.7496 51.3509 42.1505 47.7491 46.2861C46.0304 42.2709 42.4427 39.3458 38.0848 38.5071C37.8281 38.4576 37.8373 38.4594 35.8657 38.0799C35.295 37.9701 34.8807 37.4685 34.8807 36.8872V35.8416C35.2196 35.6123 35.549 35.3574 35.8686 35.0765C37.3481 33.7757 38.2461 32.0943 38.493 30.1784C39.654 29.875 40.5132 28.8172 40.5132 27.5624V25.0709C40.5132 24.7832 40.451 24.4996 40.3345 24.2395C40.3699 24.0812 40.3895 23.9177 40.3895 23.7507V19.248C40.3895 17.474 38.9483 16.0304 37.1752 16.0264C37.1287 14.2903 35.702 12.8923 33.9548 12.8923H27.1984C23.0145 12.8923 19.6107 16.2962 19.6107 20.48V23.7506C19.6107 23.9176 19.6303 24.081 19.6657 24.2394C19.5491 24.4994 19.487 24.7831 19.487 25.0708V27.5623C19.487 28.8269 20.3598 29.8915 21.5347 30.1853C21.8008 32.1231 22.7308 33.8566 24.2 35.1262C24.4981 35.3839 24.805 35.6181 25.1196 35.8314V36.8869C25.1196 37.4552 24.7316 37.9412 24.1762 38.0689C24.0373 38.1008 23.4896 38.2021 21.9153 38.5067C17.5575 39.3454 13.9698 42.2704 12.2511 46.2857C8.64898 42.1505 6.46484 36.7496 6.46484 30.8477C6.46484 17.8705 17.0227 7.31256 30 7.31256Z" fill="#EC595A"/>
<path d="M48.4236 52.2537C43.3065 56.6621 36.7636 59.0899 30 59.0899C14.3913 59.0899 1.75781 46.4586 1.75781 30.8477C1.75781 24.0841 4.18559 17.5412 8.59406 12.4241C8.91082 12.0562 8.86957 11.5013 8.50184 11.1845C8.1341 10.8679 7.57922 10.909 7.26223 11.2767C2.57918 16.7128 0 23.6632 0 30.8477C0 47.4283 13.4182 60.8477 30 60.8477C37.1845 60.8477 44.1349 58.2685 49.571 53.5855C49.9388 53.2686 49.98 52.7137 49.6632 52.3459C49.3465 51.9781 48.7915 51.937 48.4236 52.2537Z" fill="#171717"/>
<path d="M51.2132 9.63438C45.547 3.96824 38.0132 0.847656 29.9999 0.847656C22.7253 0.847656 15.7087 3.48426 10.2425 8.27195C9.87732 8.59176 9.84052 9.14699 10.1604 9.51215C10.4803 9.87742 11.0356 9.91422 11.4006 9.59418C16.5461 5.0875 23.1515 2.60547 29.9999 2.60547C37.5438 2.60547 44.6361 5.54312 49.9702 10.8774C55.3044 16.2116 58.2421 23.3038 58.2421 30.8477C58.2421 37.6961 55.7601 44.3015 51.2534 49.447C50.9336 49.8121 50.9703 50.3673 51.3354 50.6871C51.7012 51.0078 52.2567 50.9695 52.5756 50.6051C57.3633 45.1389 59.9999 38.1223 59.9999 30.8477C59.9999 22.8344 56.8794 15.3006 51.2132 9.63438Z" fill="#171717"/>
</g>
<defs>
<clipPath id="clip0_983:426">
<rect width="60" height="60" fill="white" transform="translate(0 0.847656)"/>
</clipPath>
</defs>
</svg>
