<svg width="41" height="41" viewBox="0 0 41 41" fill="none" xmlns="http://www.w3.org/2000/svg">
<path d="M3.74756 4.36768C3.74756 3.95346 4.08334 3.61768 4.49756 3.61768C4.91177 3.61768 5.24756 3.95346 5.24756 4.36768C5.24756 4.78189 4.91177 5.11768 4.49756 5.11768C4.08334 5.11768 3.74756 4.78189 3.74756 4.36768Z" fill="#EC595A"/>
<path d="M7.24756 4.36768C7.24756 3.95346 7.58335 3.61768 7.99757 3.61768C8.41178 3.61768 8.74758 3.95346 8.74758 4.36768C8.74758 4.78189 8.41178 5.11768 7.99757 5.11768C7.58335 5.11768 7.24756 4.78189 7.24756 4.36768Z" fill="#EC595A"/>
<path d="M10.7476 4.36768C10.7476 3.95346 11.0833 3.61768 11.4976 3.61768C11.9118 3.61768 12.2476 3.95346 12.2476 4.36768C12.2476 4.78189 11.9118 5.11768 11.4976 5.11768C11.0833 5.11768 10.7476 4.78189 10.7476 4.36768Z" fill="#EC595A"/>
<path d="M32.9143 7.70068C32.9143 7.28647 33.2501 6.95068 33.6643 6.95068C34.0785 6.95068 34.4143 7.28647 34.4143 7.70068C34.4143 8.1149 34.0785 8.45068 33.6643 8.45068C33.2501 8.45068 32.9143 8.1149 32.9143 7.70068Z" fill="#EC595A"/>
<path d="M3.74756 7.70068C3.74756 7.28647 4.08335 6.95068 4.49756 6.95068H29.9976C30.4118 6.95068 30.7476 7.28647 30.7476 7.70068C30.7476 8.1149 30.4118 8.45068 29.9976 8.45068H4.49756C4.08335 8.45068 3.74756 8.1149 3.74756 7.70068Z" fill="#171717"/>
<path d="M3.74756 11.8672C3.74756 11.453 4.08335 11.1172 4.49756 11.1172H9.66421C10.0784 11.1172 10.4142 11.453 10.4142 11.8672C10.4142 12.2814 10.0784 12.6172 9.66421 12.6172H4.49756C4.08335 12.6172 3.74756 12.2814 3.74756 11.8672Z" fill="#171717"/>
<rect x="1.16406" y="1.03418" width="38.5" height="38.5" rx="3.25" stroke="#171717" stroke-width="1.5"/>
<path d="M21.5226 14.6008C21.5226 14.5773 21.5417 14.5575 21.5651 14.559C21.6055 14.5617 21.6077 14.5743 21.6079 14.6325C21.6079 14.6396 21.6084 14.6468 21.6095 14.6538L21.8637 16.3421C21.9489 16.8517 22.29 17.2765 22.7164 17.3614C23.0575 17.4463 23.4838 17.6162 23.8249 17.7861C23.9955 17.8711 24.166 17.956 24.4218 17.956C24.5807 17.956 24.7724 17.9232 24.9357 17.8577C25.1211 17.7834 25.2695 17.6412 25.4295 17.5217L26.4853 16.7329C26.5296 16.6998 26.5835 16.6819 26.6389 16.6819C26.6935 16.6819 26.7459 16.7035 26.7846 16.742L28.1414 18.0936C28.1621 18.1143 28.1738 18.1423 28.1738 18.1716C28.1738 18.197 28.165 18.2216 28.149 18.2412L27.0652 19.5699C26.7241 19.9946 26.7241 20.5043 26.8947 20.929C27.0652 21.2687 27.2358 21.6085 27.321 22.0332C27.4032 22.2787 27.5447 22.4847 27.7169 22.6324C28.0655 22.9313 28.5723 22.9167 29.0265 22.9846L29.9162 23.1175C30.0051 23.1308 30.135 23.1325 30.135 23.2224C30.135 23.2224 30.135 23.2224 30.135 23.2224V25.261C30.135 25.3631 29.999 25.3535 29.8981 25.3686L28.3443 25.6008C27.8327 25.6857 27.4063 26.0255 27.321 26.4502C27.2358 26.79 27.0652 27.2147 26.8947 27.5544C26.6389 27.9792 26.7241 28.4888 27.0652 28.9135L28.1231 30.2105C28.1559 30.2507 28.1738 30.3021 28.1738 30.3539C28.1738 30.4116 28.1517 30.4658 28.112 30.5076L26.7828 31.9096C26.7607 31.9329 26.6711 31.9714 26.6389 31.9714C26.5837 31.9714 26.5302 31.9525 26.4873 31.9178L25.1893 30.8672C24.9334 30.6973 24.6776 30.6124 24.4218 30.6124C24.2513 30.6124 23.9955 30.6973 23.8249 30.7822C23.4838 30.9521 23.1427 31.122 22.7164 31.207C22.4918 31.2815 22.3002 31.4052 22.1557 31.5563C21.8114 31.9167 21.8264 32.4737 21.7522 32.9666L21.628 33.7916C21.6146 33.8805 21.6125 34.01 21.5226 34.01C21.5226 34.01 21.5226 34.01 21.5226 34.01H19.4761C19.374 34.01 19.3832 33.8744 19.368 33.7735L19.135 32.2263C19.0497 31.7166 18.7086 31.2919 18.2823 31.207C17.9412 31.122 17.5148 30.9521 17.1738 30.7822C17.0032 30.6973 16.8327 30.6124 16.5769 30.6124C16.321 30.6124 15.98 30.6973 15.8094 30.8672L14.5114 31.9178C14.4685 31.9525 14.415 31.9714 14.3598 31.9714C14.3052 31.9714 14.2528 31.9498 14.2141 31.9113L12.8573 30.5597C12.8366 30.539 12.8249 30.511 12.8249 30.4817C12.8249 30.4563 12.8337 30.4317 12.8497 30.4121L13.9334 29.0834C14.2745 28.6587 14.2745 28.149 14.104 27.7243C13.9334 27.3846 13.7629 27.0448 13.6776 26.6201C13.6019 26.3937 13.4757 26.2009 13.3214 26.0564C12.9604 25.7183 12.4088 25.734 11.9195 25.6609L11.0825 25.5358C10.9936 25.5225 10.8637 25.5208 10.8637 25.4309C10.8637 25.4309 10.8637 25.4309 10.8637 25.4309V23.3923C10.8637 23.2902 10.9996 23.2998 11.1006 23.2847L12.6544 23.0525C12.7946 23.0292 12.9284 22.9868 13.0505 22.9288C13.6475 22.645 13.6271 21.844 13.9058 21.2446C13.9422 21.1664 13.9804 21.0902 14.0187 21.0139C14.2239 20.6733 14.2097 20.2781 14.064 19.9158C13.9915 19.7354 13.8717 19.5792 13.7488 19.4285L12.8745 18.3565C12.8424 18.3172 12.8249 18.2664 12.8249 18.2157C12.8249 18.1572 12.8482 18.1027 12.8897 18.0613L14.2141 16.742C14.2528 16.7035 14.3052 16.6819 14.3598 16.6819C14.415 16.6819 14.4685 16.7008 14.5114 16.7355L15.8094 17.7861C16.0652 17.956 16.321 18.0409 16.5769 18.0409C16.7474 18.0409 17.0032 17.956 17.1738 17.8711C17.5148 17.7012 17.8559 17.5313 18.2823 17.4463C18.5068 17.3718 18.6985 17.2481 18.8429 17.097C19.1872 16.7366 19.1723 16.1796 19.2465 15.6867L19.3707 14.8617C19.3841 14.7728 19.3862 14.6433 19.4761 14.6433H21.4801C21.5036 14.6433 21.5226 14.6242 21.5226 14.6008ZM21.5226 13.2842H19.4761C18.7939 13.2842 18.197 13.7938 18.1117 14.4734L17.9597 15.483C17.8954 15.9098 17.6094 16.2704 17.2084 16.4302C16.816 16.5866 16.3706 16.5278 16.0322 16.2749L15.2125 15.6626C14.9567 15.4927 14.6156 15.4077 14.3598 15.4077C14.2393 15.4077 14.1187 15.4183 14.002 15.447C13.5422 15.5601 13.2535 16.0001 12.918 16.3343L11.9722 17.2765C11.4606 17.7012 11.3753 18.5506 11.8017 19.0602L12.4699 19.8795C12.7416 20.2126 12.8108 20.6669 12.6506 21.0657C12.4945 21.4545 12.1439 21.7315 11.7295 21.7934L10.6931 21.9483C9.92569 22.0332 9.41406 22.6278 9.41406 23.3073V25.346C9.41406 26.0255 9.92569 26.6201 10.6079 26.705L11.6442 26.8599C12.0587 26.9218 12.4092 27.1988 12.5654 27.5876C12.7255 27.9864 12.6563 28.4407 12.3847 28.7738L11.7164 29.5931C11.29 30.1877 11.3753 30.9521 11.8017 31.3768L13.4218 32.8209C13.6776 33.0757 14.0187 33.2456 14.3598 33.2456C14.7009 33.2456 14.9567 33.1606 15.2125 32.9907L16.0364 32.324C16.3702 32.0538 16.8239 31.9849 17.2228 32.1439C17.6149 32.3001 17.8946 32.6527 17.9574 33.0701L18.1117 34.095C18.197 34.7745 18.7939 35.2842 19.4761 35.2842H21.5226C22.2048 35.2842 22.8017 34.7745 22.8869 34.095L23.0413 33.0701C23.1041 32.6527 23.3838 32.3001 23.7759 32.1439C24.1748 31.9849 24.6285 32.0538 24.9623 32.324L25.7862 32.9907C26.042 33.1606 26.3831 33.2456 26.6389 33.2456C26.98 33.2456 27.321 33.0757 27.5769 32.8209L29.0265 31.3768C29.5381 30.8672 29.5381 30.1027 29.1117 29.5081L28.4435 28.6888C28.1718 28.3558 28.1026 27.9015 28.2628 27.5027C28.4189 27.1138 28.7695 26.8369 29.1839 26.7749L30.2203 26.6201C30.9024 26.5351 31.4141 25.9406 31.4141 25.261V23.2224C31.4141 22.5429 30.9024 21.9483 30.2203 21.8633L29.1839 21.7085C28.7695 21.6465 28.4189 21.3696 28.2628 20.9808C28.1026 20.582 28.1718 20.1276 28.4435 19.7946L29.1117 18.9753C29.5381 18.3807 29.4528 17.6162 29.0265 17.1915L27.5769 15.8324C27.321 15.5776 26.98 15.4077 26.6389 15.4077C26.2978 15.4077 26.042 15.4927 25.7862 15.6626L24.9623 16.3293C24.6285 16.5995 24.1748 16.6684 23.7759 16.5094C23.3838 16.3532 23.1041 16.0006 23.0413 15.5832L22.8869 14.5583C22.8017 13.7938 22.2048 13.2842 21.5226 13.2842Z" fill="#EC595A"/>
<path d="M20.4994 21.0141C22.3754 21.0141 23.825 22.5431 23.825 24.3269C23.825 26.1956 22.2901 27.6396 20.4994 27.6396C18.6235 27.6396 17.1738 26.1106 17.1738 24.3269C17.1738 22.4581 18.6235 21.0141 20.4994 21.0141ZM20.4994 19.74C17.9413 19.74 15.8948 21.7786 15.8948 24.3269C15.8948 26.8751 17.9413 28.9137 20.4994 28.9137C23.0576 28.9137 25.1041 26.8751 25.1041 24.3269C25.1041 21.7786 23.0576 19.74 20.4994 19.74Z" fill="#EC595A"/>
</svg>
