<svg width="41" height="41" viewBox="0 0 41 41" fill="none" xmlns="http://www.w3.org/2000/svg">
<path d="M26.8142 20.2156C27.2457 20.2156 27.5955 19.8658 27.5955 19.4343C27.5955 19.0029 27.2457 18.6531 26.8142 18.6531C26.3827 18.6531 26.033 19.0029 26.033 19.4343C26.033 19.8658 26.3827 20.2156 26.8142 20.2156Z" fill="#171717"/>
<path d="M26.9483 22.782C26.5218 22.7186 26.1242 23.0136 26.061 23.4404C25.8475 24.8822 24.6287 26.0779 22.8009 26.6392C20.8473 27.2391 18.1355 27.038 16.4812 25.2365C16.1893 24.9187 15.6951 24.8978 15.3773 25.1895C15.0595 25.4814 15.0385 25.9756 15.3303 26.2933C16.288 27.3362 17.5887 28.047 19.0918 28.3488C19.6226 28.4554 20.1732 28.5083 20.7274 28.5083C21.5835 28.5083 22.448 28.3821 23.2596 28.1329C25.6776 27.3904 27.3027 25.7219 27.6066 23.6693C27.6698 23.2425 27.3751 22.8452 26.9483 22.782Z" fill="#171717"/>
<path d="M37.8068 15.8727C36.3868 14.2265 34.4269 13.1592 32.0679 12.7305C34.3265 11.2063 36.2746 9.6894 37.6637 8.36581C39.7815 6.34776 40.4917 4.92964 39.8987 3.90315C39.2389 2.75987 37.3341 2.76776 33.904 3.92823C31.0058 4.9087 27.3953 6.61159 23.7378 8.72331C23.106 9.088 22.4801 9.46144 21.8678 9.83776C21.4137 8.55519 21.7132 7.09011 22.7152 5.81972C23.4658 4.86815 23.6333 3.65956 23.1526 2.66542C22.6487 1.62347 21.5428 0.999639 20.1924 0.996826H20.1557C15.3896 0.996826 10.7278 2.87737 7.02913 6.29206C3.32585 9.71097 1.05866 14.2369 0.645222 19.036C0.147801 24.8157 1.9953 30.3106 5.84725 34.5083C9.63116 38.6319 14.9956 40.9968 20.5651 40.9968C23.5635 40.9968 26.3783 40.4482 28.9312 39.3661C31.2656 38.3767 33.3386 36.9639 35.0926 35.1667C36.719 33.5004 38.0012 31.5822 38.9038 29.4653C39.7627 27.4509 40.2319 25.3162 40.261 23.2921C40.3033 20.3485 39.4546 17.7829 37.8068 15.8727ZM21.9591 11.6209C22.786 11.0994 23.6472 10.5798 24.519 10.0765C27.9007 8.12401 31.2682 6.51581 34.0012 5.54808C37.0098 4.48284 38.2416 4.55237 38.5288 4.68987C38.504 4.87167 38.2782 5.6805 36.3039 7.49862C34.6553 9.01683 32.2479 10.8022 29.5251 12.5259C28.6644 13.071 27.7687 13.6127 26.8628 14.1358C25.614 14.8566 24.3661 15.5306 23.1413 16.1477C22.8969 15.4345 22.5837 14.7424 22.2026 14.0821C21.8331 13.4421 21.4046 12.8414 20.9256 12.2855C21.2646 12.0633 21.6095 11.8411 21.9591 11.6209ZM21.7258 16.8407C19.5198 17.8869 17.4956 18.6845 15.8791 19.1471C15.795 18.743 15.647 18.3524 15.4371 17.9885C15.2381 17.6435 14.9885 17.3352 14.7 17.0692C15.9101 15.9014 17.6134 14.5482 19.619 13.1639C20.0847 13.6843 20.4975 14.2535 20.8494 14.8632C21.2134 15.4936 21.5064 16.1567 21.7258 16.8407ZM38.6987 23.2696C38.5872 31.0437 31.6226 39.4343 20.5651 39.4343C15.4321 39.4343 10.4873 37.2539 6.99858 33.452C3.446 29.5806 1.74264 24.5085 2.20202 19.1701C2.991 10.0109 11.045 2.55933 20.1557 2.55933H20.1908C20.9382 2.56089 21.5051 2.84745 21.7459 3.34565C21.9674 3.80362 21.8712 4.36675 21.4883 4.85206C20.0803 6.63722 19.7272 8.83276 20.5227 10.6839C20.1039 10.9538 19.6923 11.2248 19.2945 11.4936C19.2926 11.4949 19.2908 11.4961 19.289 11.4974C16.8047 13.1737 14.7069 14.8411 13.3111 16.2443C12.2525 15.8825 11.0894 15.988 10.1008 16.5586C8.47764 17.4962 6.34639 21.8653 5.93569 22.7317C5.82569 22.9635 5.83671 23.2347 5.96499 23.457C6.09335 23.6792 6.32264 23.8243 6.57842 23.8451C7.01022 23.8801 8.23639 23.9685 9.60116 23.9685C11.2573 23.9685 13.1173 23.8382 14.0071 23.3242C14.971 22.7678 15.6391 21.8382 15.8705 20.7694C17.7864 20.2665 20.2896 19.2827 23.0007 17.9618C24.5197 17.2225 26.0819 16.3906 27.644 15.489C28.4365 15.0314 29.2199 14.5596 29.9813 14.0837C29.9859 14.0839 29.9904 14.0846 29.995 14.0848C36.5066 14.2715 38.7606 18.9518 38.6987 23.2696ZM14.394 20.0882C14.344 20.8739 13.9074 21.5777 13.2258 21.9711C12.487 22.3979 9.94889 22.4554 7.86491 22.3601C8.82389 20.5082 10.1426 18.339 10.8822 17.9118C11.5805 17.5087 12.4247 17.491 13.1409 17.8647C13.5346 18.0697 13.8605 18.3825 14.0837 18.7692C14.3158 19.1716 14.423 19.6277 14.394 20.0882Z" fill="#171717"/>
<path d="M14.3142 5.82812C12.5911 5.82812 11.1892 7.23 11.1892 8.95312C11.1892 10.6762 12.5911 12.0781 14.3142 12.0781C16.0373 12.0781 17.4392 10.6762 17.4392 8.95312C17.4392 7.23 16.0373 5.82812 14.3142 5.82812ZM14.3142 10.5156C13.4526 10.5156 12.7517 9.81469 12.7517 8.95312C12.7517 8.09156 13.4526 7.39062 14.3142 7.39062C15.1758 7.39062 15.8767 8.09156 15.8767 8.95312C15.8767 9.81469 15.1758 10.5156 14.3142 10.5156Z" fill="#EC595A"/>
<path d="M10.408 26.821C8.68483 26.821 7.28296 28.2229 7.28296 29.946C7.28296 31.6692 8.68483 33.071 10.408 33.071C12.1311 33.071 13.533 31.6692 13.533 29.946C13.533 28.2229 12.1311 26.821 10.408 26.821ZM10.408 31.5085C9.5464 31.5085 8.84546 30.8076 8.84546 29.946C8.84546 29.0845 9.5464 28.3835 10.408 28.3835C11.2695 28.3835 11.9705 29.0845 11.9705 29.946C11.9705 30.8076 11.2695 31.5085 10.408 31.5085Z" fill="#EC595A"/>
<path d="M18.2205 31.5085C16.4973 31.5085 15.0955 32.9104 15.0955 34.6335C15.0955 36.3567 16.4973 37.7585 18.2205 37.7585C19.9436 37.7585 21.3455 36.3567 21.3455 34.6335C21.3455 32.9104 19.9436 31.5085 18.2205 31.5085ZM18.2205 36.196C17.3589 36.196 16.658 35.4951 16.658 34.6335C16.658 33.772 17.3589 33.071 18.2205 33.071C19.082 33.071 19.783 33.772 19.783 34.6335C19.783 35.4951 19.082 36.196 18.2205 36.196Z" fill="#EC595A"/>
<path d="M27.5955 29.946C25.8723 29.946 24.4705 31.3479 24.4705 33.071C24.4705 34.7942 25.8723 36.196 27.5955 36.196C29.3186 36.196 30.7205 34.7942 30.7205 33.071C30.7205 31.3479 29.3186 29.946 27.5955 29.946ZM27.5955 34.6335C26.7339 34.6335 26.033 33.9326 26.033 33.071C26.033 32.2095 26.7339 31.5085 27.5955 31.5085C28.457 31.5085 29.158 32.2095 29.158 33.071C29.158 33.9326 28.457 34.6335 27.5955 34.6335Z" fill="#EC595A"/>
<path d="M33.8455 22.1335C32.1223 22.1335 30.7205 23.5354 30.7205 25.2585C30.7205 26.9817 32.1223 28.3835 33.8455 28.3835C35.5686 28.3835 36.9705 26.9817 36.9705 25.2585C36.9705 23.5354 35.5686 22.1335 33.8455 22.1335ZM33.8455 26.821C32.9839 26.821 32.283 26.1201 32.283 25.2585C32.283 24.397 32.9839 23.696 33.8455 23.696C34.707 23.696 35.408 24.397 35.408 25.2585C35.408 26.1201 34.707 26.821 33.8455 26.821Z" fill="#EC595A"/>
</svg>
