<svg width="67" height="61" viewBox="0 0 67 61" fill="none" xmlns="http://www.w3.org/2000/svg">
<g clip-path="url(#clip0_983:454)">
<path d="M6.23874 16.9669C6.42147 16.9669 6.61725 16.9147 6.78693 16.7972C8.52284 15.6225 10.5459 14.983 12.6342 14.9438C13.6653 14.9308 14.7095 15.0613 15.7014 15.3354C16.1322 15.4528 16.5759 15.3615 16.9283 15.1004C17.2807 14.8263 17.4896 14.4217 17.4896 13.9649C17.4896 10.0102 20.7003 6.79937 24.6551 6.79937C26.3519 6.79937 27.9964 7.39976 29.2886 8.50918C29.6018 8.78327 30.0195 8.88769 30.4241 8.82243C30.8287 8.75717 31.1811 8.52223 31.403 8.16983C33.4521 4.81546 37.0153 2.80546 40.944 2.80546C43.1628 2.80546 45.3295 3.47111 47.1959 4.71105C47.6397 5.01124 48.2531 4.89377 48.5533 4.43695C48.8535 3.99319 48.736 3.37974 48.2792 3.07955C46.0995 1.61772 43.5544 0.847656 40.944 0.847656C36.5324 0.847656 32.5124 3.00124 30.0717 6.62969C28.5054 5.48111 26.6129 4.84157 24.6551 4.84157C19.852 4.84157 15.9103 8.56139 15.5579 13.2862C14.592 13.0774 13.6001 12.973 12.6081 12.986C10.1413 13.0252 7.75277 13.7822 5.69056 15.1657C5.24679 15.4659 5.12932 16.0793 5.42952 16.5231C5.61225 16.8102 5.91244 16.9669 6.23874 16.9669Z" fill="black"/>
<path d="M22.5017 38.6201H12.8171C9.35831 38.6201 6.12141 37.2627 3.69374 34.7958C1.26607 32.3421 -0.0521793 29.0791 2.86215e-05 25.6072C0.0391846 23.1274 0.7962 20.7258 2.19276 18.6505C2.49296 18.2068 3.1064 18.0893 3.55017 18.3895C3.99394 18.6897 4.11141 19.3031 3.81121 19.7469C2.62348 21.4959 1.98393 23.532 1.95783 25.6333C1.91867 28.57 3.02809 31.3371 5.07725 33.4123C7.13947 35.5006 9.88039 36.6492 12.8171 36.6492H22.8541C22.5539 37.2757 22.4233 37.9544 22.5017 38.6201Z" fill="black"/>
<path d="M41.2312 41.9092L42.1318 40.9564L41.2704 41.8701C41.2443 41.8831 41.2443 41.8962 41.2312 41.9092Z" fill="black"/>
<path d="M66.8261 25.7117C66.8522 29.1574 65.5339 32.3943 63.1062 34.835C60.6786 37.2758 57.4547 38.6201 54.009 38.6201H44.2983C44.3766 37.9545 44.2592 37.2758 43.959 36.6623H53.996C56.9066 36.6623 59.6475 35.5268 61.6966 33.4515C63.7458 31.3893 64.8683 28.6353 64.8552 25.7248C64.8161 19.7861 59.8694 14.9569 53.8524 14.9569H53.513C52.743 14.9569 52.1165 14.3304 52.1034 13.5734C52.0773 11.472 51.4117 9.43587 50.1848 7.67385C49.8715 7.23008 49.989 6.61664 50.4328 6.31645C50.8765 6.0032 51.49 6.12067 51.7902 6.56443C53.1345 8.49613 53.9046 10.715 54.0351 13.0121C61.0571 13.0904 66.7739 18.755 66.8261 25.7117Z" fill="black"/>
<path d="M45.8384 48.9573C43.8937 49.0487 42.3797 50.6802 42.3797 52.6641V53.5647H24.4462V52.5988C24.4854 50.6932 22.7234 48.8268 20.635 48.9704C18.6903 49.0618 17.1763 50.6933 17.1763 52.6772V54.5566C17.1763 58.0285 19.9955 60.8608 23.4804 60.8608H27.0175C27.5526 60.8608 27.9964 60.417 27.9964 59.8819C27.9964 59.3467 27.5526 58.903 27.0175 58.903H23.4673C21.0788 58.903 19.121 56.9582 19.121 54.5566V52.6772C19.121 51.7505 19.8389 50.9673 20.7134 50.9282C21.4834 50.9021 22.4623 51.5155 22.4754 52.6119V54.0346C22.4754 54.8699 23.1541 55.5486 23.9894 55.5486H42.8104C43.6457 55.5486 44.3244 54.8699 44.3244 54.0346V52.6902C44.3244 51.7635 45.0423 50.9804 45.9168 50.9412C46.6868 50.9151 47.6657 51.5286 47.6788 52.6249V54.5697C47.6788 56.9582 45.734 58.916 43.3325 58.916H31.5726C31.0375 58.916 30.5937 59.3598 30.5937 59.8949C30.5937 60.43 31.0375 60.8738 31.5726 60.8738H43.3325C46.8043 60.8738 49.6366 58.0546 49.6366 54.5697V52.6249C49.7018 50.6933 47.9398 48.8268 45.8384 48.9573Z" fill="black"/>
<path d="M43.6459 38.6201C43.5545 39.1683 43.3065 39.6904 42.9019 40.1211L42.1188 40.9564L41.2182 41.9092C40.8397 42.2746 40.2523 42.2747 39.8738 41.9222C39.4823 41.5568 39.4562 40.9303 39.8347 40.5387L41.4792 38.7898C41.8316 38.4113 41.6881 37.9936 41.6359 37.8761C41.5837 37.7587 41.3748 37.3671 40.8527 37.3671H36.4542C35.6972 37.3671 35.0838 36.7537 35.0838 35.9966V32.081C35.0838 31.8983 34.9402 31.7547 34.7575 31.7547H32.0426C31.8599 31.7547 31.7163 31.8983 31.7163 32.081V35.9966C31.7163 36.7537 31.1029 37.3671 30.3459 37.3671H25.9474C25.4253 37.3671 25.2164 37.7587 25.1642 37.8761C25.112 37.9936 24.9685 38.4113 25.3209 38.7898L30.6983 44.4935C31.4031 45.2375 32.3559 45.6551 33.387 45.6551C34.4181 45.6551 35.3709 45.2375 36.0757 44.4935L36.663 43.88C37.0285 43.4885 37.655 43.4624 38.0466 43.8409C38.399 44.1802 38.4512 44.7154 38.1771 45.1069C38.151 45.1461 38.1249 45.1852 38.0857 45.2244L37.4984 45.8509C36.4151 46.9995 34.9532 47.626 33.387 47.626C31.8208 47.626 30.3459 46.9995 29.2756 45.8509L23.9243 40.1341C23.5197 39.7034 23.2717 39.1813 23.1803 38.6331H23.1542C23.0629 37.9414 23.2325 37.2496 23.598 36.6753H23.611C23.9896 36.088 24.5769 35.6703 25.2556 35.5007C25.3339 35.4746 25.4253 35.4615 25.5166 35.4485C25.5427 35.4485 25.5819 35.4354 25.608 35.4354C25.6341 35.4354 25.6602 35.4354 25.6733 35.4223C25.7124 35.4223 25.7385 35.4093 25.7777 35.4093C25.7907 35.4093 25.8038 35.4093 25.8168 35.4093C25.869 35.4093 25.9082 35.4093 25.9604 35.4093H29.7716V32.081C29.7716 30.828 30.8027 29.7969 32.0557 29.7969H34.7705C36.0366 29.7969 37.0546 30.828 37.0546 32.081V35.4093H40.8658C41.8447 35.4093 42.6931 35.8922 43.2152 36.6753H43.2282C43.5937 37.2366 43.7503 37.9414 43.6459 38.6201Z" fill="#EC595A"/>
<path d="M34.7706 21.8221H32.0558C30.8028 21.8221 29.7717 22.8533 29.7717 24.1062V25.4114C29.7717 26.6644 30.8028 27.6955 32.0558 27.6955H34.7706C36.0236 27.6955 37.0547 26.6644 37.0547 25.4114V24.1062C37.0547 22.8533 36.0236 21.8221 34.7706 21.8221ZM35.0969 25.4114C35.0969 25.5942 34.9534 25.7377 34.7706 25.7377H32.0558C31.8731 25.7377 31.7295 25.5942 31.7295 25.4114V24.1062C31.7295 23.9235 31.8731 23.7799 32.0558 23.7799H34.7706C34.9534 23.7799 35.0969 23.9235 35.0969 24.1062V25.4114Z" fill="#EC595A"/>
<path d="M37.0547 16.2751C37.0547 15.0221 36.0236 13.991 34.7706 13.991H32.0558C30.8028 13.991 29.7717 15.0221 29.7717 16.2751V17.5803C29.7717 18.8333 30.8028 19.8644 32.0558 19.8644H34.7706C36.0236 19.8644 37.0547 18.8333 37.0547 17.5803V16.2751ZM35.0969 17.5803C35.0969 17.763 34.9534 17.9066 34.7706 17.9066H32.0558C31.8731 17.9066 31.7295 17.763 31.7295 17.5803V16.2751C31.7295 16.0923 31.8731 15.9488 32.0558 15.9488H34.7706C34.9534 15.9488 35.0969 16.0923 35.0969 16.2751V17.5803Z" fill="#EC595A"/>
</g>
<defs>
<clipPath id="clip0_983:454">
<rect width="66.8262" height="60" fill="white" transform="translate(0 0.847656)"/>
</clipPath>
</defs>
</svg>
