<svg width="35" height="41" viewBox="0 0 35 41" fill="none" xmlns="http://www.w3.org/2000/svg">
<path d="M33.8511 6.98817C28.3476 5.48021 22.8118 3.13216 17.842 0.197949C17.578 0.0420899 17.2505 0.0420899 16.9865 0.197949C11.8734 3.21646 6.63673 5.43747 0.976971 6.98817C0.611347 7.08825 0.35791 7.42059 0.35791 7.79973V16.3971C0.35791 25.2504 4.4422 31.1107 7.8686 34.4678C11.5573 38.0823 15.8542 40.0811 17.4143 40.0811C18.9742 40.0811 23.2711 38.0823 26.9598 34.4678C30.3861 31.1108 34.4702 25.2505 34.4702 16.3971V7.79965C34.4702 7.42059 34.2168 7.08825 33.8511 6.98817ZM32.7874 16.397C32.7874 24.6659 28.9779 30.1343 25.782 33.2657C22.1546 36.82 18.2762 38.3981 17.4143 38.3981C16.5523 38.3981 12.6737 36.82 9.04625 33.2657C5.8504 30.1342 2.0408 24.6659 2.0408 16.397V8.4384C7.45313 6.90169 12.4936 4.75708 17.4144 1.89748C22.2124 4.68122 27.5043 6.93247 32.7874 8.43809V16.397Z" fill="#171717"/>
<path d="M9.95618 8.3443C9.78586 7.91188 9.29735 7.69946 8.86485 7.86985C7.36173 8.46212 5.81891 9.00727 4.27931 9.49024C3.92845 9.60039 3.6897 9.92539 3.6897 10.293V13.5423C3.6897 14.007 4.06649 14.3837 4.5311 14.3837C4.99571 14.3837 5.37251 14.007 5.37251 13.5423V10.908C6.75368 10.4611 8.13336 9.9668 9.48172 9.43547C9.91414 9.26524 10.1266 8.77672 9.95618 8.3443Z" fill="#171717"/>
<path d="M11.5545 8.50397C11.6674 8.50397 11.782 8.48123 11.8919 8.43327L11.9074 8.42655C12.3331 8.23999 12.5248 7.74444 12.3383 7.31889C12.1515 6.89319 11.6532 6.70062 11.2279 6.88702L11.2144 6.89288C10.7884 7.0789 10.5961 7.57405 10.7821 7.99983C10.9201 8.31592 11.2299 8.50397 11.5545 8.50397Z" fill="#EC595A"/>
<path d="M27.4393 27.2125C27.0504 26.9584 26.529 27.0677 26.2746 27.4567C25.5812 28.5179 24.7678 29.5342 23.8565 30.4769C23.1071 31.2521 22.2951 31.9746 21.443 32.6242C21.0736 32.9059 21.0025 33.4339 21.2841 33.8035C21.4498 34.0206 21.7004 34.1348 21.9538 34.1348C22.1318 34.1348 22.3111 34.0786 22.4634 33.9624C23.3825 33.2615 24.2583 32.4824 25.0663 31.6466C26.0515 30.6275 26.932 29.5275 27.6834 28.3771C27.9377 27.9881 27.8282 27.4667 27.4393 27.2125Z" fill="#171717"/>
<path d="M19.4889 33.9435L19.4407 33.972C19.0386 34.2048 18.9011 34.7195 19.134 35.1216C19.29 35.3912 19.5724 35.5416 19.8629 35.5416C20.0059 35.5416 20.151 35.5052 20.2836 35.4282L20.3393 35.3955C20.7403 35.1606 20.875 34.6452 20.6402 34.2442C20.4052 33.8434 19.8897 33.7089 19.4889 33.9435Z" fill="#EC595A"/>
<path d="M11.6789 18.3639C11.1622 17.8471 10.4751 17.5628 9.74434 17.5628C9.01356 17.5628 8.32637 17.8472 7.8095 18.3639C6.74286 19.4307 6.74286 21.1667 7.8095 22.2335L12.7779 27.2017C13.2946 27.7183 13.9818 28.0027 14.7126 28.0027C15.4435 28.0027 16.1306 27.7183 16.6474 27.2016L27.0193 16.8296C28.0859 15.7625 28.0859 14.0268 27.0192 12.9603C26.5024 12.4436 25.8153 12.1592 25.0844 12.1592C24.3535 12.1592 23.6664 12.4436 23.1496 12.9603L14.7125 21.3974L11.6789 18.3639ZM24.3396 14.1503C24.5385 13.9514 24.8031 13.842 25.0845 13.842C25.366 13.842 25.6304 13.9514 25.8294 14.1503C26.2399 14.5608 26.2399 15.2291 25.8292 15.6398L15.4575 26.0117C15.2586 26.2105 14.994 26.3199 14.7126 26.3199C14.4312 26.3199 14.1666 26.2105 13.9677 26.0117L8.99942 21.0435C8.58872 20.6328 8.58872 19.9646 8.99926 19.554C9.19817 19.3552 9.46278 19.2456 9.74426 19.2456C10.0257 19.2456 10.2902 19.355 10.489 19.5539L14.1175 23.1824C14.2754 23.3402 14.4893 23.4288 14.7125 23.4288C14.9357 23.4288 15.1496 23.3403 15.3074 23.1824L24.3396 14.1503Z" fill="#EC595A"/>
</svg>
