<svg width="308" height="306" viewBox="0 0 308 306" fill="none" xmlns="http://www.w3.org/2000/svg">
<path d="M66.8394 297.786L62.8394 305.196C62.8394 305.196 48.9994 286.516 50.5594 259.526C51.8594 237.156 69.3794 223.476 76.8694 212.906C85.1494 201.206 83.6594 184.846 79.9294 172.586C76.1894 160.326 68.9894 135.766 70.8494 121.346H72.9694C72.9694 121.346 71.1194 131.756 79.6594 160.856C88.1994 189.956 85.7994 206.506 79.1294 215.046C72.4594 223.586 59.4194 237.066 56.7094 246.376C54.0494 255.506 48.4395 264.726 53.5095 279.126C58.5795 293.526 67.2394 299.496 67.2394 299.496" fill="#455A64"/>
<path d="M26.6901 275.576L21.0701 281.336C21.0701 281.336 12.0601 260.846 19.9201 236.616C26.4401 216.536 46.6201 208.436 56.3601 200.666C67.1301 192.066 69.5401 176.776 68.8101 164.656C68.0801 152.536 66.8701 128.336 72.0701 115.656L74.1201 116.186C74.1201 116.186 69.8801 125.216 71.3101 153.886C72.7401 182.556 66.5201 197.046 58.0501 203.176C49.5801 209.296 33.7901 218.336 28.9701 226.146C24.2501 233.806 16.6401 240.816 18.1701 255.216C19.6901 269.616 26.6701 277.226 26.6701 277.226" fill="#E0E0E0"/>
<path d="M114.499 0.666016L175.109 91.916C175.109 91.916 119.219 82.486 71.3994 122.556C71.3994 122.556 56.9194 64.646 4.39937 49.156L114.499 0.666016Z" fill="#EC595A"/>
<path d="M34.4594 35.906C34.4594 35.916 34.5794 35.966 34.8294 36.056C35.0994 36.146 35.4695 36.276 35.9395 36.436C36.4395 36.606 37.0395 36.806 37.7495 37.036C38.4594 37.296 39.2594 37.636 40.1694 38.006C43.7594 39.526 48.9095 42.076 54.2895 46.606C59.6995 51.066 65.2794 57.466 69.9894 65.516C72.3694 69.526 74.5094 73.946 76.4194 78.666C78.2994 83.386 79.9695 88.426 81.1095 93.696L81.2094 94.156L81.5495 93.836C82.2695 93.156 83.0495 92.426 83.8295 91.686C92.0995 84.136 101.749 79.156 110.799 75.806C119.899 72.456 128.509 70.706 135.759 69.676C143.029 68.666 148.969 68.386 153.069 68.316C155.119 68.286 156.709 68.306 157.789 68.326C158.309 68.336 158.719 68.346 159.019 68.356C159.299 68.366 159.439 68.366 159.439 68.356C159.439 68.346 159.299 68.326 159.019 68.306C158.719 68.286 158.309 68.256 157.789 68.226C156.709 68.176 155.109 68.116 153.059 68.126C148.949 68.136 142.989 68.356 135.699 69.326C128.419 70.306 119.779 72.036 110.629 75.366C101.519 78.706 91.8094 83.706 83.4695 91.306C82.6795 92.046 81.8995 92.786 81.1694 93.466L81.6095 93.606C80.4494 88.276 78.7695 83.236 76.8795 78.486C74.9595 73.746 72.7895 69.316 70.3895 65.286C65.6294 57.206 59.9795 50.786 54.5095 46.336C49.0695 41.816 43.8595 39.296 40.2295 37.826C39.3095 37.476 38.4995 37.146 37.7895 36.896C37.0695 36.676 36.4594 36.496 35.9594 36.336C35.4794 36.196 35.1094 36.086 34.8294 36.006C34.5994 35.936 34.4694 35.906 34.4594 35.906Z" fill="white"/>
<g opacity="0.4">
<g opacity="0.4">
<path opacity="0.4" d="M114.5 0.666016L148.58 51.966C148.58 51.966 119.56 47.126 89.7601 68.346C89.7601 68.346 83.8901 40.276 54.2501 27.206L114.5 0.666016Z" fill="white"/>
</g>
</g>
<path d="M165.27 85.176C165.39 85.096 154.35 67.926 140.61 46.816C126.86 25.716 115.63 8.66601 115.51 8.74601C115.39 8.82601 126.43 25.996 140.17 47.106C153.91 68.206 165.15 85.256 165.27 85.176Z" fill="#263238"/>
<path d="M71.4 122.556C71.54 122.606 80.77 96.186 92.02 63.556C103.27 30.906 112.28 4.41604 112.14 4.36604C112 4.31604 102.77 30.736 91.52 63.376C80.27 96.006 71.26 122.506 71.4 122.556Z" fill="#263238"/>
<path d="M17.5295 46.966C17.5895 47.096 38.8195 37.666 64.9395 25.906C91.0695 14.146 112.2 4.50601 112.14 4.36601C112.08 4.23601 90.8595 13.666 64.7195 25.426C38.5995 37.186 17.4695 46.836 17.5295 46.966Z" fill="#263238"/>
<path d="M77.7895 104.006C77.8895 104.116 84.3295 98.456 92.1795 91.366C100.03 84.276 106.32 78.446 106.22 78.336C106.12 78.226 99.6795 83.886 91.8295 90.976C83.9795 98.066 77.6995 103.906 77.7895 104.006Z" fill="#263238"/>
<path d="M-1.83052 253.416C-1.83052 253.416 -1.9305 253.276 -2.1505 253.016C-2.3805 252.766 -2.69051 252.376 -3.07051 251.836C-3.81051 250.766 -4.7905 249.046 -5.3405 246.606C-5.9005 244.196 -6.01051 241.046 -4.9705 237.656C-3.9705 234.266 -1.87051 230.696 1.20949 227.486C4.28949 224.276 8.3595 221.386 13.2495 219.496C15.6895 218.566 18.3195 217.846 21.0895 217.496C23.8495 217.146 26.7395 217.166 29.6695 217.476C35.5395 218.026 41.6195 219.626 48.1295 219.716C54.6295 219.866 61.3695 217.736 66.9895 213.756C72.6395 209.806 76.8695 204.156 78.9295 197.986C81.0395 191.816 81.1295 185.386 80.4395 179.506C79.7095 173.606 78.3295 168.116 76.9795 163.026C75.6295 157.936 74.2895 153.216 73.3095 148.846C72.3195 144.486 71.6495 140.486 71.3995 136.946C71.1495 133.406 71.2595 130.336 71.6195 127.866C71.9595 125.396 72.4395 123.506 72.8195 122.246C73.0195 121.636 73.1695 121.156 73.2795 120.816C73.3795 120.496 73.4195 120.326 73.4195 120.326C73.4195 120.326 73.3495 120.486 73.2295 120.806C73.1095 121.146 72.9395 121.616 72.7195 122.216C72.3095 123.466 71.7895 125.356 71.4195 127.836C71.0295 130.316 70.8995 133.406 71.1095 136.966C71.3295 140.526 71.9795 144.546 72.9495 148.926C73.9095 153.306 75.2295 158.036 76.5695 163.136C77.8995 168.226 79.2595 173.696 79.9695 179.556C80.6495 185.396 80.5395 191.736 78.4495 197.816C76.4295 203.876 72.2595 209.436 66.6895 213.326C61.1495 217.236 54.5395 219.346 48.1395 219.196C41.7195 219.116 35.6495 217.526 29.7295 216.986C26.7695 216.686 23.8495 216.676 21.0395 217.036C18.2395 217.396 15.5695 218.126 13.0995 219.086C8.1595 221.026 4.04951 223.966 0.949509 227.226C-2.15049 230.486 -4.2505 234.116 -5.24049 237.566C-6.26049 241.016 -6.1205 244.216 -5.5305 246.646C-4.94051 249.106 -3.9305 250.826 -3.1505 251.896C-2.3705 252.956 -1.83052 253.416 -1.83052 253.416Z" fill="#263238"/>
<path d="M112.14 4.36603C112.14 4.36603 112.08 4.67603 111.98 5.27603C111.88 5.89603 111.74 6.79603 111.55 7.96603C111.18 10.326 110.64 13.816 110 18.316C108.74 27.306 106.82 40.346 105.99 56.586C105.6 64.706 105.6 73.626 106.34 83.166C107.07 92.706 108.54 102.836 110.7 113.356C110.98 114.666 111.26 115.996 111.54 117.326C111.69 117.996 111.81 118.656 111.98 119.326C112.15 120.006 112.37 120.656 112.58 121.316C113.46 123.926 114.45 126.536 115.46 129.156C116.49 131.776 117.53 134.416 118.58 137.086C119.12 138.416 119.66 139.756 120.2 141.096L121.02 143.116L121.44 144.136L121.92 145.126C124.41 150.416 127.28 155.676 130.73 160.646C134.19 165.596 138.2 170.356 143.07 174.246L144.89 175.696L146.8 177.016L147.75 177.676L148.74 178.276L150.73 179.456C153.46 180.876 156.23 182.196 159.12 183.116C164.88 185.056 170.81 186.046 176.66 186.426C179.59 186.646 182.5 186.596 185.37 186.476C188.24 186.276 191.08 186.006 193.86 185.506C199.43 184.576 204.76 183.096 209.82 181.256C212.35 180.336 214.82 179.366 217.22 178.306C219.64 177.316 221.95 176.086 224.15 174.796C228.54 172.186 232.58 169.346 236.68 166.916C240.75 164.446 244.91 162.406 249.09 160.996C253.27 159.586 257.48 158.816 261.52 158.666C269.62 158.276 276.95 159.726 282.97 161.956C289.01 164.186 293.8 167.116 297.45 169.786C301.1 172.476 303.65 174.926 305.31 176.646C306.15 177.496 306.74 178.186 307.15 178.646C307.55 179.106 307.76 179.346 307.76 179.346C307.76 179.346 307.58 179.086 307.2 178.606C306.81 178.136 306.23 177.426 305.4 176.566C303.76 174.826 301.23 172.346 297.58 169.616C293.94 166.906 289.15 163.946 283.08 161.676C277.04 159.406 269.67 157.916 261.51 158.286C257.44 158.426 253.19 159.186 248.97 160.596C244.75 162.006 240.56 164.056 236.47 166.526C232.35 168.966 228.3 171.806 223.93 174.386C221.74 175.666 219.47 176.866 217.05 177.856C214.66 178.906 212.19 179.876 209.67 180.786C204.63 182.606 199.32 184.076 193.79 184.996C191.03 185.496 188.21 185.756 185.35 185.956C182.49 186.076 179.6 186.126 176.7 185.906C170.9 185.526 164.99 184.526 159.3 182.616C156.43 181.716 153.69 180.396 150.99 178.996L149.02 177.826L148.04 177.236L147.1 176.586L145.21 175.276L143.4 173.836C138.58 169.976 134.6 165.266 131.16 160.346C127.73 155.406 124.88 150.176 122.39 144.906L121.92 143.926L121.51 142.926L120.69 140.916C120.15 139.576 119.61 138.236 119.07 136.906C118.02 134.236 116.97 131.596 115.94 128.986C114.93 126.366 113.94 123.766 113.06 121.166C112.85 120.516 112.63 119.866 112.47 119.216C112.3 118.566 112.18 117.886 112.03 117.226C111.75 115.896 111.47 114.576 111.19 113.266C109.02 102.756 107.53 92.646 106.79 83.136C106.03 73.626 106.01 64.716 106.38 56.606C107.16 40.386 109.03 27.346 110.22 18.346C110.85 13.856 111.34 10.366 111.68 7.98603C111.84 6.80603 111.97 5.91603 112.06 5.28603C112.11 4.68603 112.14 4.36603 112.14 4.36603Z" fill="#263238"/>
</svg>
