<svg width="151" height="195" viewBox="0 0 151 195" fill="none" xmlns="http://www.w3.org/2000/svg">
<g clip-path="url(#clip0_2347_31667)">
<path d="M54.9565 0.587891C65.0059 2.72097 73.5348 9.85576 78.8376 18.6087C84.1404 27.325 86.5508 37.549 87.4037 47.7363C89.1095 67.4122 81.9896 89.0004 73.2382 106.727C54.0665 95.841 45.315 71.9358 41.6439 59.5418C35.8961 39.9028 37.4165 0.99244 54.9565 0.587891Z" fill="#EC595A"/>
<path d="M98.6779 134.677C93.8572 124.343 96.008 111.508 102.942 102.387C109.84 93.2662 120.965 87.7864 132.386 86.4257C137.652 85.8004 143.585 86.1682 147.404 89.8092C151.001 93.2294 151.78 98.8196 150.408 103.564C148.999 108.308 145.773 112.28 142.139 115.664C129.753 127.248 115.625 136.259 98.6779 134.677Z" fill="#EC595A"/>
<path d="M88.3299 183.003C88.0704 183.003 87.7737 178.038 87.9962 169.947C88.1074 165.902 88.812 161.01 90.2582 155.862C91.7045 150.75 93.1878 145.049 95.6723 139.312C100.456 127.801 107.872 118.79 114.325 113.788C117.551 111.251 120.443 109.633 122.483 108.603C124.56 107.647 125.746 107.242 125.82 107.389C126.006 107.757 121.37 109.78 115.326 115.002C109.319 120.188 102.384 129.014 97.7118 140.194C95.3385 145.748 93.7811 151.375 92.2236 156.45C90.7032 161.525 89.8503 166.122 89.5537 170.094C88.9603 178.001 88.7008 183.003 88.3299 183.003Z" fill="white"/>
<path d="M56.4401 30.3408C56.5884 30.304 57.293 32.5474 58.4055 36.6665C59.5179 40.7487 61.0383 46.7067 62.8924 54.0989C66.5636 68.8466 71.3473 89.2579 76.1309 111.913C80.8775 134.604 84.6228 155.236 86.9961 170.241C88.1827 177.744 89.0727 183.812 89.5919 188.042C90.1481 192.271 90.3706 194.588 90.2223 194.625C90.0739 194.662 89.5548 192.345 88.739 188.189C87.8861 183.628 86.7736 177.67 85.4386 170.536C82.6574 155.604 78.6896 135.046 73.943 112.391C69.0481 89.9567 64.6724 69.6557 61.335 54.4667C59.8146 47.3319 58.5167 41.4475 57.5526 36.8871C56.6997 32.6945 56.2918 30.3776 56.4401 30.3408Z" fill="white"/>
<path d="M75.5375 146.96C64.079 125.777 41.7183 110.808 17.6517 108.16C11.496 107.462 4.07951 108.197 1.11291 113.567C-1.85369 118.936 1.5579 125.593 5.5999 130.227C22.287 149.608 51.5081 157.258 75.6859 148.579" fill="#EC595A"/>
<path d="M27.1444 123.35C27.1815 123.203 28.4052 123.387 30.6302 123.829C32.8551 124.27 35.97 125.079 39.8266 126.182C47.4285 128.573 58.1825 132.361 67.9722 140.084C72.8301 143.946 76.7979 148.432 79.7274 152.919C82.6569 157.443 84.3627 161.967 85.5864 165.791C86.6618 169.653 87.2922 172.853 87.4776 175.096C87.7001 177.339 87.7743 178.553 87.626 178.553C87.181 178.627 86.6618 173.698 84.1031 166.269C82.7311 162.592 80.9511 158.289 78.0216 154.023C75.1292 149.756 71.3097 145.49 66.6002 141.813C57.1812 134.384 46.724 130.448 39.3445 127.69C31.8539 125.079 27.0702 123.718 27.1444 123.35Z" fill="white"/>
</g>
<defs>
<clipPath id="clip0_2347_31667">
<rect width="151" height="194" fill="white" transform="translate(0.000976562 0.587891)"/>
</clipPath>
</defs>
</svg>
