<svg width="161" height="284" viewBox="0 0 161 284" fill="none" xmlns="http://www.w3.org/2000/svg">
<path d="M153.619 23.6761C153.809 24.2261 151.969 61.8261 149.339 65.5061C146.709 69.1861 120.159 81.1661 120.159 81.1661L113.059 67.3461L136.199 54.9861L143.299 21.3361L153.619 23.6761Z" fill="#FFBE9D"/>
<path d="M107.359 66.2761L126.379 60.2361L130.669 76.9561L118.289 83.1961L107.359 66.2761Z" fill="#EC595A"/>
<path d="M114.07 176.116C114.47 176.716 128.56 201.326 129.95 205.486C131.34 209.656 132.13 274.756 132.13 274.756L116.26 273.796C116.26 273.796 109.51 243.006 109.31 233.276C109.11 223.556 109.31 213.826 109.31 213.826L87.0799 183.856L114.07 176.116Z" fill="#FFBE9D"/>
<path d="M80.8096 187.016C80.8096 187.016 72.8696 216.186 69.0996 219.766C65.3296 223.336 14.5196 245.966 14.5196 245.166C14.5196 244.376 9.71957 230.806 9.71957 230.806C9.71957 230.806 39.1296 209.636 41.9096 208.046C44.6896 206.456 53.0196 202.686 53.0196 202.686L56.1996 182.246L80.8096 187.016Z" fill="#FFBE9D"/>
<path d="M99.46 155.646C99.46 156.246 80.6 209.046 80.6 209.046L47.65 195.396C47.65 195.396 53.56 173.906 55.79 167.456C58.46 159.706 59.5 149.476 62.46 146.496C65.42 143.516 67.11 140.576 67.11 140.576L99.46 155.646Z" fill="#455A64"/>
<path d="M110.94 155.466C110.75 155.966 129.11 195.056 129.11 195.056L95.8004 205.716L86.1903 187.356L91.5204 160.836L110.94 155.466Z" fill="#455A64"/>
<path d="M47.6599 195.396C47.6499 195.416 47.8799 195.526 48.3099 195.716C48.7899 195.926 49.4199 196.196 50.2099 196.536C51.9199 197.246 54.3099 198.246 57.2499 199.476C63.2699 201.936 71.5299 205.306 80.7199 209.056L80.9699 209.156L81.0599 208.896C81.2199 208.436 81.3899 207.936 81.5599 207.436C84.8499 197.696 87.8299 188.886 90.0099 182.446C91.0499 179.276 91.8999 176.696 92.5099 174.856C92.7799 173.996 92.9999 173.306 93.1699 172.786C93.3099 172.306 93.3799 172.056 93.3599 172.056C93.3399 172.056 93.2399 172.296 93.0699 172.756C92.8799 173.266 92.6299 173.946 92.3199 174.796C91.6699 176.626 90.7699 179.196 89.6599 182.336C87.4499 188.766 84.4199 197.556 81.0699 207.276C80.8999 207.776 80.7299 208.266 80.5699 208.736L80.9099 208.576C71.6999 204.886 63.4199 201.566 57.3799 199.146C54.4199 197.986 51.9999 197.036 50.2799 196.366C49.4799 196.066 48.8299 195.816 48.3399 195.636C47.8999 195.456 47.6599 195.386 47.6599 195.396Z" fill="#263238"/>
<path d="M60.5799 162.786C60.5499 162.836 61.4199 163.406 63.0199 163.886C64.5999 164.366 66.9699 164.656 69.4799 164.116C71.9899 163.576 74.0199 162.336 75.2699 161.236C76.5299 160.146 77.0899 159.256 77.0399 159.226C76.9699 159.166 76.3199 159.956 75.0399 160.946C73.7699 161.936 71.7899 163.076 69.3699 163.596C66.9599 164.116 64.6799 163.896 63.1199 163.516C61.5299 163.156 60.6099 162.706 60.5799 162.786Z" fill="#263238"/>
<path d="M108.86 163.216C108.75 163.286 109.76 164.716 111.69 165.576C113.61 166.456 115.36 166.266 115.33 166.136C115.34 165.976 113.69 165.926 111.9 165.106C110.1 164.306 108.98 163.106 108.86 163.216Z" fill="#263238"/>
<path d="M118.85 8.99607C116.59 2.23607 108.59 1.29607 102.3 0.976068C96.0096 0.666068 89.6296 3.00607 85.0396 7.30607C76.5996 15.2061 74.7296 28.4761 65.9396 35.9861C63.2896 38.2461 60.0796 39.9061 57.9096 42.6361C55.2096 46.0361 54.5296 50.5961 54.2596 54.9261C53.9796 59.2561 53.9896 63.7261 52.3496 67.7461C50.7096 71.7661 46.8796 75.2861 42.5396 74.9761C41.4496 74.8961 40.3696 74.5861 39.2896 74.7161C38.2096 74.8461 37.0796 75.6261 37.0596 76.7161C37.0496 77.5061 37.6096 78.1761 38.1796 78.7161C39.8796 80.3261 41.9896 81.5161 44.2496 82.1461C45.1096 82.3861 46.0696 82.6061 46.5596 83.3461C47.1796 84.2761 46.6696 85.6261 45.7696 86.2861C44.8696 86.9561 43.6996 87.1161 42.5896 87.2561C50.9396 92.5561 62.1296 94.5061 70.6996 89.5761C76.6396 86.1461 80.4396 80.0461 85.1696 75.0861C94.5796 65.2061 114.6 68.4961 123.01 57.7561C132.16 46.0861 134.28 12.2261 118.85 8.99607Z" fill="#263238"/>
<path d="M125.279 22.6561C124.939 15.2361 117.079 7.70613 109.689 8.36613L85.6692 12.5161L85.6792 16.5061L86.3192 65.8861C86.3192 65.8861 88.0992 81.8361 101.549 81.1561C113.629 80.5461 113.179 67.7861 113.179 67.7761L112.969 58.4661C112.969 58.4661 122.719 58.2361 124.889 45.9261C125.979 39.7961 125.659 30.8961 125.279 22.6561Z" fill="#FFBE9D"/>
<path d="M119.879 33.1861C119.899 34.0261 119.199 34.7261 118.329 34.7561C117.459 34.7861 116.739 34.1361 116.719 33.2961C116.699 32.4561 117.399 31.7561 118.269 31.7261C119.139 31.6961 119.859 32.3461 119.879 33.1861Z" fill="#263238"/>
<path d="M122.989 29.1861C122.789 29.3861 121.609 28.4861 119.899 28.4561C118.199 28.4061 116.929 29.2661 116.749 29.0461C116.659 28.9561 116.869 28.5861 117.419 28.1961C117.959 27.8061 118.879 27.4461 119.949 27.4661C121.009 27.4861 121.899 27.8961 122.399 28.3061C122.919 28.7161 123.089 29.0961 122.989 29.1861Z" fill="#263238"/>
<path d="M105.029 32.5461C105.049 33.3861 104.349 34.0861 103.479 34.1161C102.609 34.1461 101.889 33.4962 101.869 32.6562C101.849 31.8162 102.549 31.1161 103.419 31.0861C104.289 31.0661 105.019 31.7161 105.029 32.5461Z" fill="#263238"/>
<path d="M107.309 29.1861C107.109 29.3861 105.919 28.4861 104.219 28.4561C102.519 28.4061 101.249 29.2661 101.069 29.0461C100.979 28.9561 101.189 28.5861 101.739 28.1961C102.279 27.8061 103.199 27.4461 104.259 27.4661C105.319 27.4861 106.209 27.8961 106.709 28.3061C107.229 28.7161 107.399 29.0961 107.309 29.1861Z" fill="#263238"/>
<path d="M112.219 41.6561C112.209 41.5761 113.279 41.4261 114.999 41.2661C115.439 41.2361 115.849 41.1661 115.929 40.9161C116.039 40.6461 115.869 40.2561 115.669 39.8161C115.279 38.9161 114.879 37.9761 114.449 36.9961C113.989 35.9661 111.759 30.1761 111.739 29.6261C111.929 29.5661 113.459 32.7761 115.139 36.7861C115.549 37.7761 115.929 38.7161 116.299 39.6261C116.449 40.0461 116.729 40.5261 116.489 41.0761C116.369 41.3461 116.039 41.5461 115.759 41.6061C115.479 41.6761 115.229 41.6761 115.019 41.6861C113.299 41.7361 112.229 41.7361 112.219 41.6561Z" fill="#263238"/>
<path d="M113.06 58.5361C113.06 58.5361 104.74 58.9261 96.5996 53.8461C96.5996 53.8461 100.68 62.5361 113.06 61.5961V58.5361Z" fill="#EB996E"/>
<path d="M107.109 41.7161C107.389 41.7061 107.359 43.5561 108.919 44.8961C110.479 46.2361 112.449 46.0661 112.459 46.3261C112.479 46.4461 112.009 46.6761 111.179 46.6861C110.359 46.6961 109.179 46.4161 108.219 45.5961C107.269 44.7761 106.869 43.6961 106.819 42.9361C106.769 42.1561 106.979 41.7061 107.109 41.7161Z" fill="#263238"/>
<path d="M107.629 23.4361C107.419 23.9561 105.969 23.5461 104.189 23.6361C102.409 23.6761 100.929 24.2061 100.749 23.6961C100.669 23.4561 100.969 22.9761 101.599 22.5161C102.219 22.0561 103.179 21.6561 104.239 21.6161C105.309 21.5761 106.239 21.9061 106.839 22.3161C107.439 22.7261 107.719 23.1861 107.629 23.4361Z" fill="#263238"/>
<path d="M122.979 23.556C122.689 24.036 121.429 23.6261 119.949 23.6861C118.469 23.6861 117.229 24.1461 116.919 23.6861C116.779 23.4561 116.949 22.986 117.479 22.526C117.999 22.066 118.879 21.656 119.899 21.636C120.919 21.616 121.819 21.976 122.369 22.416C122.909 22.856 123.109 23.316 122.979 23.556Z" fill="#263238"/>
<path d="M80.5293 20.4361L81.0493 20.4661C80.9493 17.3561 81.2993 14.3061 82.5493 11.4961C84.7893 6.46606 89.6293 3.14605 94.7193 1.89605C99.7993 0.646051 105.129 1.22605 110.249 2.30605C112.659 2.81605 115.469 3.85606 116.079 6.40606C116.389 7.71606 115.999 9.09606 115.479 10.3261C113.079 16.0761 107.719 20.2861 101.869 21.0261C100.539 21.1961 99.1093 21.2261 97.9993 22.0161C96.6293 22.9861 95.7493 24.6161 95.2193 26.3261C95.0493 26.9961 94.9093 27.7561 94.8093 28.6261C94.5493 30.8561 94.7193 33.146 94.0693 35.286C93.2693 37.946 90.7593 40.0261 90.6393 42.8061C90.4493 47.2461 96.3693 50.1061 96.2693 54.5461C96.2293 56.4861 95.0193 58.1661 94.0293 59.8261C93.0393 61.4861 92.2193 63.536 92.9893 65.316C93.3893 66.236 94.1593 66.946 94.6593 67.816C96.2893 70.646 94.3593 74.5961 91.2993 75.7261C88.2393 76.856 84.6793 75.6261 82.3093 73.3761C79.9393 71.1361 78.5593 68.046 77.5093 64.956C72.5493 50.516 73.6793 34.0861 80.5293 20.4361Z" fill="#263238"/>
<path d="M37.1794 65.5061C37.1694 65.5061 37.1894 65.5861 37.2494 65.7461C37.2894 65.9061 37.3794 66.1361 37.5494 66.4261C37.8594 66.9961 38.5094 67.7761 39.6394 68.3361C40.7494 68.8761 42.3394 69.2361 44.0794 68.7861C45.8194 68.3361 47.5194 66.9961 48.6994 65.1061C49.9094 63.2261 50.5794 60.8061 50.8594 58.2361C51.1694 55.6561 51.1394 52.8861 51.6494 50.0561C51.9094 48.6461 52.3094 47.2261 52.9694 45.8861C53.6294 44.5561 54.5894 43.3461 55.8294 42.4261C58.2994 40.5261 61.5094 39.6161 64.3994 37.8061C65.8394 36.8961 67.0894 35.7061 68.0694 34.3761C69.0494 33.0361 69.7894 31.5761 70.3994 30.1061C71.6094 27.1561 72.3494 24.1861 73.2994 21.4661C73.7694 20.1061 74.2894 18.7861 74.9094 17.5861C75.5194 16.3761 76.3394 15.3261 77.1294 14.3261C78.7794 12.3661 80.5594 10.7461 82.2494 9.37613C85.6494 6.62613 88.7594 4.87612 90.9794 3.86612C92.0894 3.35612 92.9894 3.03612 93.5994 2.83612C93.8794 2.74612 94.1094 2.67612 94.2994 2.61612C94.4594 2.56612 94.5394 2.53612 94.5294 2.52612C94.5294 2.52612 93.1694 2.72613 90.8994 3.68613C88.6394 4.64613 85.4794 6.36612 82.0194 9.09612C80.2994 10.4661 78.4894 12.0861 76.7994 14.0561C75.9794 15.0661 75.1394 16.1261 74.4994 17.3761C73.8494 18.6061 73.3194 19.9361 72.8394 21.3061C71.8694 24.0561 71.1194 27.0161 69.9194 29.9161C69.3194 31.3561 68.5994 32.7861 67.6394 34.0761C66.6894 35.3661 65.4994 36.4961 64.1094 37.3761C61.3194 39.1261 58.0794 40.0461 55.5094 42.0261C54.2194 42.9861 53.1894 44.2761 52.5094 45.6661C51.8194 47.0561 51.4194 48.5261 51.1594 49.9661C50.6494 52.8561 50.6994 55.6361 50.4094 58.1861C50.1594 60.7361 49.5194 63.0761 48.3694 64.9061C47.2494 66.7461 45.6294 68.0461 43.9894 68.4961C42.3394 68.9461 40.7994 68.6361 39.7094 68.1361C38.6094 67.6261 37.9594 66.8961 37.6294 66.3561C37.2894 65.8361 37.2194 65.4961 37.1794 65.5061Z" fill="#263238"/>
<path d="M72.2993 125.906C74.6693 118.516 78.6093 97.8261 79.3093 89.1861C80.0093 80.5361 85.6093 59.9161 93.2493 60.3061C93.3293 60.3061 93.3993 60.3161 93.4793 60.3161C113.039 61.0661 120.079 74.4861 121.739 90.5861L121.659 101.266C121.739 116.076 118.149 138.826 117.619 146.696C117.049 155.206 115.079 160.596 115.079 160.596C115.079 160.596 98.2393 163.276 89.7293 159.646C81.2193 156.016 74.5293 156.856 69.6493 153.096C64.7693 149.336 60.8693 144.726 60.8693 144.726C60.8693 144.726 69.9293 133.306 72.2993 125.906Z" fill="#EC595A"/>
<g opacity="0.3">
<g opacity="0.3">
<g opacity="0.3">
<path opacity="0.3" d="M89.779 81.3362C100.839 91.4062 105.239 107.976 117.949 115.856L120.959 117.616C118.139 121.876 111.999 123.546 107.409 121.286C104.359 119.786 102.219 116.936 100.219 114.186C96.689 109.346 93.169 104.426 90.929 98.8762C88.689 93.3262 87.829 87.0062 89.779 81.3362Z" fill="black"/>
</g>
</g>
</g>
<path d="M91.6796 61.0661C92.1196 61.0561 103.62 61.0661 108.13 67.2061C112.11 72.6161 119.56 91.4661 119.56 91.4661L95.3096 101.816C95.3096 101.816 89.6996 90.5662 87.3596 83.1962C84.7296 74.8462 86.6596 61.2061 91.6796 61.0661Z" fill="#EC595A"/>
<path d="M142.209 92.1261L121.119 101.116L115.779 93.0861L97.9693 100.686C97.9693 100.686 105.559 119.096 113.859 120.476C122.159 121.856 149.819 99.3861 149.819 99.3861L142.209 92.1261Z" fill="#FFBE9D"/>
<path d="M146.889 78.1561C146.889 78.1561 150.239 77.1761 150.379 80.8061C150.379 80.8061 153.869 80.2461 153.869 83.5961C153.869 83.5961 157.079 84.0161 156.519 86.9461C156.519 86.9461 159.029 88.6161 157.909 91.5461C156.789 94.4761 149.819 99.3861 149.819 99.3861L142.209 92.1261C142.209 92.1261 142.429 85.5461 142.849 84.7061C143.259 83.8761 146.889 78.1561 146.889 78.1561Z" fill="#FFBE9D"/>
<path d="M86.5096 81.1661C86.4996 81.1761 86.5396 81.3061 86.6396 81.5661C86.7596 81.8661 86.8996 82.2461 87.0896 82.7061C87.5196 83.7461 88.0996 85.1861 88.8396 86.9761C90.3896 90.6761 92.5597 95.8361 95.1096 101.906L95.1996 102.126L95.4196 102.036C99.7296 100.206 104.53 98.1661 109.58 96.0161C113.11 94.5061 116.53 93.0461 119.67 91.6961L119.89 91.5961L119.8 91.3761C116.88 84.1461 114.15 78.0061 112 73.7361C110.92 71.6061 110.01 69.9361 109.3 68.8461C108.97 68.2861 108.66 67.8861 108.46 67.6061C108.26 67.3361 108.15 67.1961 108.14 67.2061C108.1 67.2361 108.52 67.8061 109.16 68.9361C109.82 70.0561 110.68 71.7461 111.72 73.8861C113.79 78.1761 116.46 84.3361 119.34 91.5661L119.47 91.2461C116.32 92.5861 112.91 94.0361 109.37 95.5461C104.32 97.7061 99.5296 99.7661 95.2296 101.606L95.5396 101.736C92.9197 95.6961 90.6896 90.5561 89.0996 86.8761C88.3096 85.1061 87.6796 83.6861 87.2296 82.6561C87.0196 82.2061 86.8497 81.8361 86.7197 81.5461C86.5896 81.2861 86.5196 81.1661 86.5096 81.1661Z" fill="#263238"/>
<path d="M85.6694 75.9662C85.7494 75.9662 85.7994 74.6762 85.9894 72.6062C86.1994 70.5762 86.5794 67.6062 88.4494 65.0762C89.3694 63.8262 90.5794 62.9162 91.8294 62.4362C93.0794 61.9562 94.3194 61.8362 95.3394 61.8662C97.3994 61.9462 98.6194 62.4762 98.6394 62.3762C98.6494 62.3462 98.3694 62.1862 97.8094 61.9962C97.2494 61.8062 96.4194 61.5762 95.3594 61.5062C94.2994 61.4262 92.9994 61.5062 91.6594 61.9962C90.3194 62.4762 88.9994 63.4562 88.0294 64.7762C87.0494 66.0962 86.4694 67.5662 86.1294 68.9262C85.7894 70.2862 85.6694 71.5462 85.6194 72.5962C85.5694 73.6462 85.5694 74.4962 85.5894 75.0762C85.6094 75.6462 85.6394 75.9662 85.6694 75.9662Z" fill="#263238"/>
<path d="M114.499 69.6562C114.419 69.7062 115.349 71.0362 116.579 73.3262C117.809 75.6162 119.269 78.9162 120.269 82.7562C121.259 86.5962 121.599 90.1862 121.639 92.7862C121.689 95.3862 121.519 96.9962 121.619 97.0062C121.659 97.0062 121.719 96.6062 121.809 95.8862C121.909 95.1562 121.979 94.0962 122.009 92.7862C122.059 90.1662 121.779 86.5162 120.769 82.6262C119.749 78.7362 118.219 75.4162 116.899 73.1562C116.239 72.0262 115.659 71.1362 115.219 70.5462C114.789 69.9462 114.529 69.6362 114.499 69.6562Z" fill="#263238"/>
<path d="M18.7694 244.366L17.8694 244.886C17.8694 244.886 20.3794 263.736 17.5594 265.556L0.469362 234.956L10.8894 229.686C11.3094 235.406 13.7394 240.296 18.7694 244.366Z" fill="#EC595A"/>
<g opacity="0.6">
<g opacity="0.6">
<g opacity="0.6">
<g opacity="0.6">
<g opacity="0.6">
<g opacity="0.6">
<g opacity="0.6">
<g opacity="0.6">
<g opacity="0.6">
<g opacity="0.6">
<g opacity="0.6">
<g opacity="0.6">
<g opacity="0.6">
<g opacity="0.6">
<g opacity="0.6">
<g opacity="0.6">
<g opacity="0.6">
<path opacity="0.6" d="M9.3594 234.596C8.8694 234.096 7.9694 234.056 7.4494 234.526C6.9294 234.996 6.87939 235.906 7.36939 236.416C7.84939 236.926 8.9294 237.006 9.3894 236.476C9.8594 235.946 9.84939 234.876 9.25939 234.496" fill="#D70D0D"/>
</g>
</g>
</g>
</g>
</g>
</g>
</g>
</g>
</g>
</g>
</g>
</g>
</g>
</g>
</g>
</g>
</g>
<g opacity="0.6">
<g opacity="0.6">
<g opacity="0.6">
<g opacity="0.6">
<g opacity="0.6">
<g opacity="0.6">
<g opacity="0.6">
<g opacity="0.6">
<g opacity="0.6">
<g opacity="0.6">
<g opacity="0.6">
<g opacity="0.6">
<g opacity="0.6">
<g opacity="0.6">
<g opacity="0.6">
<g opacity="0.6">
<path opacity="0.6" d="M0.469288 234.946L2.96929 233.676L18.4293 263.466C18.4293 263.466 18.5993 265.156 17.5493 265.546L0.469288 234.946Z" fill="white"/>
</g>
</g>
</g>
</g>
</g>
</g>
</g>
</g>
</g>
</g>
</g>
</g>
</g>
</g>
</g>
</g>
<path d="M17.8392 245.036C17.6892 245.116 17.1992 244.406 16.3092 243.936C15.4292 243.446 14.5692 243.426 14.5492 243.256C14.4992 243.106 15.5192 242.826 16.5892 243.406C17.6692 243.986 17.9892 244.996 17.8392 245.036Z" fill="#263238"/>
<path d="M18.2989 248.986C18.1689 249.096 17.5589 248.596 16.6389 248.446C15.7289 248.266 14.9689 248.516 14.8989 248.366C14.7989 248.236 15.6189 247.646 16.7489 247.856C17.8889 248.066 18.4389 248.906 18.2989 248.986Z" fill="#263238"/>
<path d="M15.4794 252.956C15.3694 252.836 15.9994 252.216 17.0394 252.136C18.0694 252.056 18.7894 252.576 18.6994 252.716C18.6194 252.866 17.9294 252.656 17.0894 252.736C16.2294 252.786 15.5794 253.096 15.4794 252.956Z" fill="#263238"/>
<path d="M17.5892 244.286C17.6092 244.306 17.8692 244.066 18.2292 243.556C18.5792 243.036 19.0192 242.226 19.2592 241.106C19.3192 240.816 19.3392 240.506 19.2992 240.176C19.2592 239.856 19.1192 239.466 18.7692 239.236C18.4292 238.996 17.9592 239.006 17.5892 239.176C17.2092 239.356 16.9392 239.676 16.7492 240.026C15.9792 241.446 16.3892 243.426 17.6592 244.696C18.9592 245.966 20.6992 246.366 22.1892 246.386C22.3892 246.386 22.5992 246.366 22.8092 246.276C23.0192 246.186 23.2192 245.986 23.2792 245.746C23.3992 245.266 23.1192 244.846 22.8192 244.636C22.1892 244.246 21.5992 244.136 21.0392 244.016C19.9092 243.826 18.9892 243.956 18.3792 244.116C17.7692 244.276 17.4692 244.446 17.4792 244.476C17.4892 244.586 18.8292 243.956 20.9692 244.386C21.4792 244.506 22.0992 244.666 22.5692 244.986C22.7892 245.146 22.9092 245.406 22.8492 245.626C22.7992 245.826 22.5292 245.916 22.1892 245.916C20.7992 245.876 19.1792 245.466 18.0292 244.336C16.9092 243.216 16.5492 241.466 17.1792 240.266C17.3292 239.976 17.5392 239.726 17.7892 239.606C18.0392 239.486 18.3392 239.476 18.5392 239.616C18.9592 239.886 18.9792 240.576 18.8992 241.056C18.4992 243.176 17.4892 244.236 17.5892 244.286Z" fill="#263238"/>
<path d="M132.19 271.536L132.22 272.576C132.22 272.576 150.02 279.266 150.29 282.616L115.25 283.216L115.53 271.546C120.77 273.876 126.23 274.046 132.19 271.536Z" fill="#EC595A"/>
<g opacity="0.6">
<g opacity="0.6">
<g opacity="0.6">
<g opacity="0.6">
<g opacity="0.6">
<g opacity="0.6">
<g opacity="0.6">
<g opacity="0.6">
<g opacity="0.6">
<g opacity="0.6">
<g opacity="0.6">
<g opacity="0.6">
<g opacity="0.6">
<g opacity="0.6">
<g opacity="0.6">
<g opacity="0.6">
<g opacity="0.6">
<path opacity="0.6" d="M119.129 275.216C118.449 275.416 117.999 276.186 118.169 276.866C118.339 277.546 119.119 278.016 119.799 277.836C120.479 277.646 121.049 276.746 120.809 276.086C120.569 275.426 119.619 274.926 119.009 275.266" fill="white"/>
</g>
</g>
</g>
</g>
</g>
</g>
</g>
</g>
</g>
</g>
</g>
</g>
</g>
</g>
</g>
</g>
</g>
<g opacity="0.6">
<g opacity="0.6">
<g opacity="0.6">
<g opacity="0.6">
<g opacity="0.6">
<g opacity="0.6">
<g opacity="0.6">
<g opacity="0.6">
<g opacity="0.6">
<g opacity="0.6">
<g opacity="0.6">
<g opacity="0.6">
<g opacity="0.6">
<g opacity="0.6">
<g opacity="0.6">
<g opacity="0.6">
<path opacity="0.6" d="M115.24 283.216L115.31 280.406L148.87 280.856C148.87 280.856 150.44 281.506 150.28 282.606L115.24 283.216Z" fill="#252C53"/>
</g>
</g>
</g>
</g>
</g>
</g>
</g>
</g>
</g>
</g>
</g>
</g>
</g>
</g>
</g>
</g>
<path d="M132.34 272.676C132.34 272.846 131.48 272.936 130.65 273.506C129.8 274.046 129.38 274.796 129.22 274.736C129.06 274.706 129.3 273.676 130.32 273.016C131.34 272.326 132.38 272.516 132.34 272.676Z" fill="#263238"/>
<path d="M136.049 274.126C136.089 274.296 135.359 274.596 134.789 275.326C134.199 276.046 134.069 276.826 133.899 276.826C133.739 276.856 133.599 275.856 134.329 274.956C135.029 274.056 136.039 273.966 136.049 274.126Z" fill="#263238"/>
<path d="M138.209 278.496C138.059 278.536 137.799 277.686 138.229 276.736C138.649 275.786 139.449 275.406 139.519 275.546C139.619 275.686 139.109 276.196 138.769 276.976C138.419 277.756 138.379 278.476 138.209 278.496Z" fill="#263238"/>
<path d="M131.56 272.536C131.59 272.526 131.5 272.186 131.21 271.626C130.92 271.076 130.41 270.296 129.54 269.566C129.31 269.376 129.05 269.206 128.74 269.096C128.44 268.986 128.03 268.916 127.66 269.116C127.29 269.306 127.07 269.726 127.05 270.126C127.02 270.546 127.19 270.946 127.4 271.266C128.29 272.616 130.23 273.196 131.94 272.676C133.67 272.136 134.85 270.786 135.57 269.476C135.66 269.296 135.74 269.106 135.76 268.876C135.78 268.646 135.7 268.376 135.52 268.206C135.16 267.876 134.65 267.916 134.33 268.086C133.69 268.456 133.31 268.926 132.94 269.366C132.25 270.266 131.92 271.146 131.77 271.756C131.62 272.366 131.63 272.716 131.66 272.726C131.77 272.766 131.84 271.296 133.23 269.606C133.58 269.216 134.02 268.746 134.51 268.486C134.75 268.366 135.04 268.386 135.2 268.536C135.35 268.676 135.31 268.956 135.14 269.246C134.45 270.446 133.32 271.686 131.78 272.166C130.27 272.626 128.55 272.116 127.79 270.986C127.6 270.716 127.48 270.416 127.5 270.136C127.51 269.856 127.64 269.596 127.86 269.476C128.3 269.236 128.91 269.546 129.3 269.836C131.01 271.206 131.47 272.596 131.56 272.536Z" fill="#263238"/>
<path d="M143.499 6.3061C144.239 6.3161 145.069 6.71611 145.749 7.99611C145.749 7.99611 148.649 5.97611 150.099 8.99611C150.099 8.99611 153.169 7.97611 153.939 10.8561C153.939 10.8561 156.929 11.2761 157.199 14.3961C157.469 17.5161 153.319 24.9761 153.319 24.9761L143.309 21.7461C143.309 21.7461 140.649 15.7261 140.659 14.7861C140.669 14.1061 141.089 10.3161 141.309 8.3361C141.439 7.2161 142.359 6.2861 143.499 6.3061Z" fill="#FFBE9D"/>
<path d="M141.629 14.3061C141.899 13.2861 142.279 12.2961 142.769 11.3561C142.929 11.0361 143.119 10.7161 143.429 10.5361C143.729 10.3561 144.099 10.3461 144.449 10.3461C146.299 10.3261 148.149 10.3661 149.999 10.4661C150.269 10.4861 150.589 10.5261 150.719 10.7661C150.879 11.0661 150.609 11.4161 150.349 11.6361C149.149 12.6561 147.629 13.3061 146.069 13.4861C147.689 14.2361 149.429 15.0861 150.259 16.6661C150.719 17.5461 150.859 18.5761 150.729 19.5561C150.599 20.5361 150.219 21.4761 149.709 22.3261" fill="#FFBE9D"/>
<path d="M149.689 22.3261C149.709 22.3361 149.909 22.1061 150.179 21.6061C150.439 21.1161 150.789 20.3461 150.909 19.3161C151.019 18.3061 150.859 16.9361 149.949 15.8061C149.059 14.6661 147.629 13.9261 146.169 13.2561L146.089 13.7361C147.089 13.6261 148.119 13.3261 149.069 12.8061C149.519 12.5661 149.949 12.2861 150.329 11.9761C150.519 11.8261 150.739 11.6461 150.889 11.3861C151.069 11.1561 151.079 10.6361 150.749 10.4161C150.459 10.2061 150.169 10.2161 149.939 10.1961C149.709 10.1961 149.479 10.1861 149.259 10.1861C148.809 10.1761 148.369 10.1761 147.939 10.1661C147.089 10.1561 146.269 10.1461 145.489 10.1361C145.109 10.1361 144.739 10.1361 144.379 10.1261C144.029 10.1361 143.629 10.1661 143.299 10.3761C142.979 10.5861 142.809 10.8961 142.669 11.1561C142.539 11.4261 142.419 11.6761 142.319 11.9161C142.119 12.3961 141.969 12.8161 141.859 13.1661C141.649 13.8661 141.589 14.2661 141.619 14.2761C141.659 14.2861 141.779 13.9061 142.049 13.2361C142.179 12.8961 142.359 12.4961 142.579 12.0361C142.819 11.6061 143.039 10.9861 143.489 10.6861C143.949 10.4161 144.739 10.5561 145.479 10.5561C146.249 10.5761 147.059 10.6061 147.909 10.6361C148.339 10.6461 148.779 10.6561 149.219 10.6761C149.639 10.7061 150.219 10.6561 150.419 10.8061C150.609 10.8961 150.379 11.2861 149.989 11.5561C149.629 11.8461 149.229 12.1061 148.799 12.3361C147.909 12.8161 146.939 13.1061 145.999 13.2161L145.089 13.3261L145.919 13.7061C147.379 14.3661 148.729 15.0561 149.569 16.0761C150.419 17.0761 150.609 18.3161 150.549 19.2761C150.479 20.2561 150.199 21.0161 149.989 21.5261C149.799 22.0461 149.659 22.3161 149.689 22.3261Z" fill="#EB996E"/>
<path d="M153.3 11.5661C153.23 11.5461 152.97 12.1961 152.71 13.2861C152.58 13.8361 152.46 14.4861 152.37 15.2261C152.33 15.5861 152.28 15.9961 152.32 16.4261C152.36 16.8461 152.48 17.3461 152.86 17.7061C153.24 18.0761 153.78 18.1761 154.23 18.0961C154.68 18.0261 155.09 17.7961 155.37 17.4961C155.94 16.9061 156.14 16.2061 156.27 15.6661C156.49 14.5561 156.63 13.9161 156.58 13.8861C156.5 13.8461 156.22 14.5161 155.91 15.5661C155.74 16.0761 155.51 16.6961 155.03 17.1561C154.6 17.6061 153.71 17.8061 153.22 17.3261C152.73 16.8361 152.79 15.9661 152.85 15.2661C152.91 14.5461 152.99 13.8861 153.07 13.3461C153.23 12.2661 153.37 11.5861 153.3 11.5661Z" fill="#EB996E"/>
<path d="M149.38 12.1461C149.32 12.1561 149.21 12.7461 149.06 13.7761C149.02 14.2861 148.99 14.9761 149.39 15.6461C149.59 15.9761 149.92 16.2561 150.34 16.3961C150.75 16.5461 151.3 16.4661 151.65 16.1461C152.01 15.8461 152.19 15.4661 152.36 15.1361C152.52 14.8061 152.67 14.4761 152.79 14.1561C153.04 13.5261 153.23 12.9361 153.36 12.4361C153.62 11.4361 153.66 10.7961 153.59 10.7861C153.51 10.7661 153.34 11.3761 153 12.3261C152.83 12.8061 152.61 13.3661 152.34 13.9661C152.05 14.5461 151.78 15.3161 151.31 15.7461C150.84 16.1761 150.09 15.8661 149.79 15.3861C149.46 14.8961 149.42 14.2861 149.43 13.7961C149.48 12.8061 149.47 12.1461 149.38 12.1461Z" fill="#EB996E"/>
<path d="M145.189 10.4061C145.329 10.4361 145.559 9.9761 145.689 9.3661C145.829 8.7661 145.829 8.24611 145.689 8.21611C145.549 8.18611 145.319 8.6461 145.189 9.2561C145.049 9.8561 145.049 10.3761 145.189 10.4061Z" fill="#EB996E"/>
<path d="M157.899 70.3561C157.919 70.3561 157.959 70.1661 158.029 69.8061C158.099 69.3861 158.199 68.8661 158.309 68.2261C158.539 66.8461 158.859 64.8561 159.199 62.3761C159.849 57.4361 160.549 50.4761 159.559 42.8561C159.099 39.0461 158.089 35.5161 157.019 32.3861C155.939 29.2561 154.769 26.5061 153.779 24.2161C152.789 21.9861 151.979 20.1561 151.379 18.8061C151.109 18.2161 150.889 17.7261 150.719 17.3461C150.559 17.0161 150.469 16.8461 150.459 16.8461C150.439 16.8561 150.499 17.0361 150.629 17.3861C150.779 17.7861 150.969 18.2861 151.199 18.8861C151.759 20.2461 152.519 22.0961 153.439 24.3561C154.379 26.6661 155.509 29.4161 156.559 32.5361C157.599 35.6561 158.579 39.1561 159.039 42.9261C160.019 50.4661 159.389 57.3861 158.829 62.3261C158.529 64.7461 158.289 66.7361 158.109 68.1961C158.039 68.8461 157.969 69.3761 157.919 69.7961C157.899 70.1561 157.879 70.3461 157.899 70.3561Z" fill="#263238"/>
</svg>
