<svg width="72" height="73" viewBox="0 0 72 73" fill="none" xmlns="http://www.w3.org/2000/svg">
<rect y="0.433105" width="72" height="72" rx="36" fill="#F4F5F7"/>
<g clip-path="url(#clip0_2019:648)">
<path d="M42 34.4331H48L45 30.4331L42 34.4331ZM42 38.4331H48L45 42.4331L42 38.4331Z" fill="#D6B1FF"/>
<path d="M25 24.4331H31V48.4331H25C24.7348 48.4331 24.4804 48.3277 24.2929 48.1402C24.1054 47.9527 24 47.6983 24 47.4331V25.4331C24 25.1679 24.1054 24.9135 24.2929 24.726C24.4804 24.5385 24.7348 24.4331 25 24.4331Z" fill="#EC595A"/>
<path d="M33 24.4331H39C39.2652 24.4331 39.5196 24.5385 39.7071 24.726C39.8946 24.9135 40 25.1679 40 25.4331V47.4331C40 47.6983 39.8946 47.9527 39.7071 48.1402C39.5196 48.3277 39.2652 48.4331 39 48.4331H33V24.4331Z" fill="#722575"/>
</g>
<defs>
<clipPath id="clip0_2019:648">
<rect width="24" height="24" fill="white" transform="translate(24 24.4331)"/>
</clipPath>
</defs>
</svg>
