<svg width="72" height="73" viewBox="0 0 72 73" fill="none" xmlns="http://www.w3.org/2000/svg">
<rect y="0.433105" width="72" height="72" rx="36" fill="#F4F5F7"/>
<path d="M29 25.4331H26C25.7348 25.4331 25.4804 25.5385 25.2929 25.726C25.1054 25.9135 25 26.1679 25 26.4331V46.4331C25 46.6983 25.1054 46.9527 25.2929 47.1402C25.4804 47.3277 25.7348 47.4331 26 47.4331H29V25.4331Z" fill="#D6B1FF"/>
<path d="M31 47.4331H41V25.4331H31V47.4331ZM36 43.4331C35.7348 43.4331 35.4804 43.3277 35.2929 43.1402C35.1054 42.9527 35 42.6983 35 42.4331C35 42.1679 35.1054 41.9135 35.2929 41.726C35.4804 41.5385 35.7348 41.4331 36 41.4331C36.2652 41.4331 36.5196 41.5385 36.7071 41.726C36.8946 41.9135 37 42.1679 37 42.4331C37 42.6983 36.8946 42.9527 36.7071 43.1402C36.5196 43.3277 36.2652 43.4331 36 43.4331ZM36 29.4331C36.2652 29.4331 36.5196 29.5385 36.7071 29.726C36.8946 29.9135 37 30.1679 37 30.4331C37 30.6983 36.8946 30.9527 36.7071 31.1402C36.5196 31.3277 36.2652 31.4331 36 31.4331C35.7348 31.4331 35.4804 31.3277 35.2929 31.1402C35.1054 30.9527 35 30.6983 35 30.4331C35 30.1679 35.1054 29.9135 35.2929 29.726C35.4804 29.5385 35.7348 29.4331 36 29.4331ZM36 35.4331C36.2652 35.4331 36.5196 35.5385 36.7071 35.726C36.8946 35.9135 37 36.1679 37 36.4331C37 36.6983 36.8946 36.9527 36.7071 37.1402C36.5196 37.3277 36.2652 37.4331 36 37.4331C35.7348 37.4331 35.4804 37.3277 35.2929 37.1402C35.1054 36.9527 35 36.6983 35 36.4331C35 36.1679 35.1054 35.9135 35.2929 35.726C35.4804 35.5385 35.7348 35.4331 36 35.4331Z" fill="#EC595A"/>
<path d="M46 25.4331H43V47.4331H46C46.2652 47.4331 46.5196 47.3277 46.7071 47.1402C46.8946 46.9527 47 46.6983 47 46.4331V26.4331C47 26.1679 46.8946 25.9135 46.7071 25.726C46.5196 25.5385 46.2652 25.4331 46 25.4331Z" fill="#722575"/>
</svg>
