<svg width="88" height="87" viewBox="0 0 88 87" fill="none" xmlns="http://www.w3.org/2000/svg">
<path d="M44.1582 86C67.6303 86 86.6582 66.9721 86.6582 43.5C86.6582 20.0279 67.6303 1 44.1582 1C20.6861 1 1.6582 20.0279 1.6582 43.5C1.6582 66.9721 20.6861 86 44.1582 86Z" fill="white" stroke="#EC595A" stroke-width="2"/>
<path opacity="0.5" fill-rule="evenodd" clip-rule="evenodd" d="M55.6582 24H33.6582L22.6582 43L33.6582 62H55.6582L66.6582 43L55.6582 24Z" stroke="#EC595A"/>
<path d="M25.6582 29H63.6582V57H25.6582V29Z" fill="white"/>
<path d="M35.6592 46.5H44.6592M60.9102 55H27.4092C27.2131 54.9995 27.0249 54.9224 26.885 54.785C26.745 54.6477 26.6643 54.461 26.6602 54.265V31.735C26.6602 31.306 27.0342 31 27.4092 31H60.9092C61.3462 31 61.6582 31.367 61.6582 31.735V54.265C61.6582 54.633 61.2842 55 60.9092 55H60.9102ZM35.6592 43.5H52.6592H35.6592ZM35.6592 40.5H52.6592H35.6592Z" stroke="#EC595A"/>
<path opacity="0.5" d="M29.1582 34.5C29.7105 34.5 30.1582 34.0523 30.1582 33.5C30.1582 32.9477 29.7105 32.5 29.1582 32.5C28.6059 32.5 28.1582 32.9477 28.1582 33.5C28.1582 34.0523 28.6059 34.5 29.1582 34.5Z" fill="#EC595A" stroke="#EC595A"/>
<path opacity="0.5" d="M31.1582 34.5C31.7105 34.5 32.1582 34.0523 32.1582 33.5C32.1582 32.9477 31.7105 32.5 31.1582 32.5C30.6059 32.5 30.1582 32.9477 30.1582 33.5C30.1582 34.0523 30.6059 34.5 31.1582 34.5Z" stroke="#EC595A"/>
<path opacity="0.5" d="M34.1582 34.5C34.7105 34.5 35.1582 34.0523 35.1582 33.5C35.1582 32.9477 34.7105 32.5 34.1582 32.5C33.6059 32.5 33.1582 32.9477 33.1582 33.5C33.1582 34.0523 33.6059 34.5 34.1582 34.5Z" stroke="#EC595A"/>
<path d="M33.1582 27C34.5389 27 35.6582 25.8807 35.6582 24.5C35.6582 23.1193 34.5389 22 33.1582 22C31.7775 22 30.6582 23.1193 30.6582 24.5C30.6582 25.8807 31.7775 27 33.1582 27Z" fill="white"/>
<path d="M55.1582 27C56.5389 27 57.6582 25.8807 57.6582 24.5C57.6582 23.1193 56.5389 22 55.1582 22C53.7775 22 52.6582 23.1193 52.6582 24.5C52.6582 25.8807 53.7775 27 55.1582 27Z" fill="white"/>
<path d="M33.1582 65C34.5389 65 35.6582 63.8807 35.6582 62.5C35.6582 61.1193 34.5389 60 33.1582 60C31.7775 60 30.6582 61.1193 30.6582 62.5C30.6582 63.8807 31.7775 65 33.1582 65Z" fill="white"/>
<path d="M22.1582 45C23.5389 45 24.6582 43.8807 24.6582 42.5C24.6582 41.1193 23.5389 40 22.1582 40C20.7775 40 19.6582 41.1193 19.6582 42.5C19.6582 43.8807 20.7775 45 22.1582 45Z" fill="white"/>
<path d="M66.1582 45C67.5389 45 68.6582 43.8807 68.6582 42.5C68.6582 41.1193 67.5389 40 66.1582 40C64.7775 40 63.6582 41.1193 63.6582 42.5C63.6582 43.8807 64.7775 45 66.1582 45Z" fill="white"/>
<path d="M55.1582 65C56.5389 65 57.6582 63.8807 57.6582 62.5C57.6582 61.1193 56.5389 60 55.1582 60C53.7775 60 52.6582 61.1193 52.6582 62.5C52.6582 63.8807 53.7775 65 55.1582 65Z" fill="white"/>
<path d="M33.1582 27C34.5389 27 35.6582 25.8807 35.6582 24.5C35.6582 23.1193 34.5389 22 33.1582 22C31.7775 22 30.6582 23.1193 30.6582 24.5C30.6582 25.8807 31.7775 27 33.1582 27Z" stroke="#EC595A"/>
<path d="M55.1582 27C56.5389 27 57.6582 25.8807 57.6582 24.5C57.6582 23.1193 56.5389 22 55.1582 22C53.7775 22 52.6582 23.1193 52.6582 24.5C52.6582 25.8807 53.7775 27 55.1582 27Z" stroke="#EC595A"/>
<path d="M33.1582 65C34.5389 65 35.6582 63.8807 35.6582 62.5C35.6582 61.1193 34.5389 60 33.1582 60C31.7775 60 30.6582 61.1193 30.6582 62.5C30.6582 63.8807 31.7775 65 33.1582 65Z" stroke="#EC595A"/>
<path d="M22.1582 45C23.5389 45 24.6582 43.8807 24.6582 42.5C24.6582 41.1193 23.5389 40 22.1582 40C20.7775 40 19.6582 41.1193 19.6582 42.5C19.6582 43.8807 20.7775 45 22.1582 45Z" stroke="#EC595A"/>
<path d="M66.1582 45C67.5389 45 68.6582 43.8807 68.6582 42.5C68.6582 41.1193 67.5389 40 66.1582 40C64.7775 40 63.6582 41.1193 63.6582 42.5C63.6582 43.8807 64.7775 45 66.1582 45Z" stroke="#EC595A"/>
<path d="M55.1582 65C56.5389 65 57.6582 63.8807 57.6582 62.5C57.6582 61.1193 56.5389 60 55.1582 60C53.7775 60 52.6582 61.1193 52.6582 62.5C52.6582 63.8807 53.7775 65 55.1582 65Z" stroke="#EC595A"/>
</svg>
