<svg width="87" height="87" viewBox="0 0 87 87" fill="none" xmlns="http://www.w3.org/2000/svg">
<path d="M43.6582 86C66.8542 86 85.6582 66.9721 85.6582 43.5C85.6582 20.0279 66.8542 1 43.6582 1C20.4622 1 1.6582 20.0279 1.6582 43.5C1.6582 66.9721 20.4622 86 43.6582 86Z" fill="white" stroke="#EC595A" stroke-width="2"/>
<path d="M21.6582 27H64.6582V59H21.6582V27Z" fill="white"/>
<path d="M33.6575 46.5H43.6575M41.1275 57H24.5205C24.4062 57.0027 24.2926 56.9822 24.1864 56.9397C24.0803 56.8972 23.9839 56.8336 23.9031 56.7527C23.8223 56.6718 23.7588 56.5753 23.7164 56.4692C23.674 56.363 23.6536 56.2493 23.6565 56.135V29.865C23.6565 29.371 24.0265 29 24.5205 29H62.7925C63.2865 29 63.6565 29.37 63.6565 29.865V34.563L41.1275 57ZM33.6575 42.5H52.6575H33.6575ZM33.6575 39.5H52.6575H33.6575Z" stroke="#EC595A"/>
<path opacity="0.5" d="M26.1582 32.5C26.7105 32.5 27.1582 32.0523 27.1582 31.5C27.1582 30.9477 26.7105 30.5 26.1582 30.5C25.6059 30.5 25.1582 30.9477 25.1582 31.5C25.1582 32.0523 25.6059 32.5 26.1582 32.5Z" fill="#EC595A" stroke="#EC595A"/>
<path opacity="0.5" d="M29.1582 32.5C29.7105 32.5 30.1582 32.0523 30.1582 31.5C30.1582 30.9477 29.7105 30.5 29.1582 30.5C28.6059 30.5 28.1582 30.9477 28.1582 31.5C28.1582 32.0523 28.6059 32.5 29.1582 32.5Z" stroke="#EC595A"/>
<path opacity="0.5" d="M31.1582 32.5C31.7105 32.5 32.1582 32.0523 32.1582 31.5C32.1582 30.9477 31.7105 30.5 31.1582 30.5C30.6059 30.5 30.1582 30.9477 30.1582 31.5C30.1582 32.0523 30.6059 32.5 31.1582 32.5Z" stroke="#EC595A"/>
<path d="M53.6582 61C61.3902 61 67.6582 54.732 67.6582 47C67.6582 39.268 61.3902 33 53.6582 33C45.9262 33 39.6582 39.268 39.6582 47C39.6582 54.732 45.9262 61 53.6582 61Z" fill="white"/>
<path opacity="0.5" d="M53.6582 61C61.3902 61 67.6582 54.732 67.6582 47C67.6582 39.268 61.3902 33 53.6582 33C45.9262 33 39.6582 39.268 39.6582 47C39.6582 54.732 45.9262 61 53.6582 61Z" stroke="#EC595A"/>
<path opacity="0.5" d="M63.6582 57L67.6582 61" stroke="#EC595A"/>
<path d="M58.6582 44L51.9482 50L48.6582 46.97" stroke="#EC595A"/>
<path opacity="0.5" d="M58.6582 27.09V24H18.6582V52H21.7442" stroke="#EC595A"/>
</svg>
