<svg width="88" height="86" viewBox="0 0 88 86" fill="none" xmlns="http://www.w3.org/2000/svg">
<path d="M44.1582 85C67.6303 85 86.6582 66.196 86.6582 43C86.6582 19.804 67.6303 1 44.1582 1C20.6861 1 1.6582 19.804 1.6582 43C1.6582 66.196 20.6861 85 44.1582 85Z" fill="white" stroke="#EC595A" stroke-width="2"/>
<path opacity="0.5" d="M61.6582 51V54.228C61.6582 54.649 61.3432 55 60.9652 55H45.6582M21.9252 55H20.3512C20.1692 54.9998 19.9946 54.928 19.865 54.8003C19.7353 54.6725 19.6611 54.499 19.6582 54.317V28.683C19.6582 28.31 19.9732 28 20.3512 28H60.9652C61.3432 28 61.6582 28.31 61.6582 28.683V31.848L21.9252 55Z" stroke="#EC595A"/>
<path d="M45.6582 59L39.7202 56.551L38.9782 52.972C40.0292 51.277 40.3382 49.267 40.3382 49.267H40.4002C42.5032 49.142 42.6272 44.119 41.5762 44.119H41.2662V38.342C41.2662 34.826 38.4212 32 34.9572 32H28.6472C28.4002 32 28.1532 32.063 27.9052 32.126C27.8442 32.126 27.7822 32.188 27.6582 32.188C27.0392 32.44 26.4832 32.816 26.1122 33.318L26.0502 33.381C25.8022 33.695 25.6172 34.072 25.4932 34.449C25.1222 35.705 25.4312 36.96 26.2972 37.902C26.1732 38.405 26.0502 38.97 26.0502 39.472V44.118H25.7402C24.6892 44.118 24.8132 49.142 26.9162 49.268H26.9782C26.9782 49.268 27.2872 51.277 28.3382 52.972L27.5962 56.552L21.6582 59" stroke="#EC595A" stroke-linecap="round" stroke-linejoin="round"/>
<path d="M61.1962 34.1901H46.6062C46.5477 34.1887 46.4895 34.1992 46.4352 34.221C46.3809 34.2428 46.3316 34.2754 46.2903 34.3168C46.2489 34.3582 46.2164 34.4076 46.1948 34.462C46.1731 34.5164 46.1627 34.5746 46.1642 34.6331V47.6801L50.5852 44.8931H61.1952C61.4482 44.8931 61.6382 44.7031 61.6382 44.4501V34.6331C61.6382 34.4431 61.3852 34.1901 61.1962 34.1901Z" fill="white"/>
<path d="M49.3852 41.0931H53.9332M61.1962 34.1901H46.6062C46.5477 34.1887 46.4895 34.1992 46.4352 34.221C46.3809 34.2428 46.3316 34.2754 46.2903 34.3168C46.2489 34.3582 46.2164 34.4076 46.1948 34.462C46.1731 34.5164 46.1627 34.5746 46.1642 34.6331V47.6801L50.5852 44.8931H61.1952C61.4482 44.8931 61.6382 44.7031 61.6382 44.4501V34.6331C61.6382 34.4431 61.3852 34.1901 61.1962 34.1901V34.1901ZM49.3852 39.3201H58.3542H49.3852ZM49.3852 37.8631H58.3542H49.3852Z" stroke="#EC595A"/>
<path opacity="0.5" d="M62.6473 39.3199H68.8993C69.1523 39.3199 69.3413 39.5099 69.3413 39.7629V52.8099L64.9213 50.0229H54.3093C54.2508 50.0243 54.1927 50.0138 54.1383 49.992C54.084 49.9702 54.0347 49.9376 53.9934 49.8962C53.952 49.8548 53.9196 49.8054 53.8979 49.751C53.8762 49.6966 53.8658 49.6384 53.8673 49.5799V45.9699" stroke="#EC595A"/>
</svg>
