<svg width="88" height="86" viewBox="0 0 88 86" fill="none" xmlns="http://www.w3.org/2000/svg">
<path d="M44.1582 85C67.6303 85 86.6582 66.196 86.6582 43C86.6582 19.804 67.6303 1 44.1582 1C20.6861 1 1.6582 19.804 1.6582 43C1.6582 66.196 20.6861 85 44.1582 85Z" fill="white" stroke="#EC595A" stroke-width="2"/>
<path opacity="0.5" d="M58.1582 35C63.9572 35 68.6582 30.299 68.6582 24.5C68.6582 18.701 63.9572 14 58.1582 14C52.3592 14 47.6582 18.701 47.6582 24.5C47.6582 30.299 52.3592 35 58.1582 35Z" stroke="#EC595A"/>
<path d="M58.6582 37.423V55.074L51.5732 62H19.6582V24H46.6822M62.6582 22L57.3252 27L54.6582 24.5L62.6582 22Z" stroke="#EC595A"/>
<path opacity="0.5" d="M67.1582 32V40M62.6582 37V60.143L55.5732 67H23.6582V64.367L62.6582 37Z" stroke="#EC595A"/>
<path opacity="0.5" d="M67.6582 40V64.097L60.5732 71H28.6582V68.35" stroke="#EC595A"/>
<path d="M51.6582 57L45.2382 54.477L44.4752 50.723C45.6192 48.938 45.9372 46.846 45.9372 46.846H46.0002C48.2892 46.723 48.4162 41.492 47.2722 41.492H46.9542V35.585C46.9542 31.954 43.9022 29 40.0882 29H33.1592C32.9052 29 32.6512 29.062 32.3962 29.123C32.3332 29.123 32.2062 29.185 32.1422 29.185C31.4422 29.431 30.8712 29.8 30.4262 30.354L30.3622 30.415C30.1082 30.723 29.9172 31.154 29.7262 31.523C29.3452 32.815 29.6632 34.169 30.5532 35.093C30.3761 35.6282 30.2903 36.1893 30.2992 36.753V41.493H29.9812C28.8362 41.493 28.9642 46.723 31.2522 46.846H31.3792C31.3792 46.846 31.6972 48.938 32.8412 50.723L32.0792 54.477L25.6582 57" stroke="#EC595A" stroke-linecap="round" stroke-linejoin="round"/>
</svg>
