<svg width="72" height="73" viewBox="0 0 72 73" fill="none" xmlns="http://www.w3.org/2000/svg">
<rect y="0.433105" width="72" height="72" rx="36" fill="#F4F5F7"/>
<path d="M47 30.4331V26.4331C47 26.1679 46.8946 25.9135 46.7071 25.726C46.5196 25.5385 46.2652 25.4331 46 25.4331H26C25.7348 25.4331 25.4804 25.5385 25.2929 25.726C25.1054 25.9135 25 26.1679 25 26.4331V30.4331H47Z" fill="#722575"/>
<path d="M25 32.4331V46.4331C25 46.6983 25.1054 46.9527 25.2929 47.1402C25.4804 47.3277 25.7348 47.4331 26 47.4331H31V32.4331H25Z" fill="#D6B1FF"/>
<path d="M33 47.4331H46C46.2652 47.4331 46.5196 47.3277 46.7071 47.1402C46.8946 46.9527 47 46.6983 47 46.4331V32.4331H33V47.4331Z" fill="#EC595A"/>
</svg>
