<svg width="72" height="73" viewBox="0 0 72 73" fill="none" xmlns="http://www.w3.org/2000/svg">
<rect y="0.433105" width="72" height="72" rx="36" fill="#F4F5F7"/>
<path d="M33 34.4331H26C25.7348 34.4331 25.4804 34.3277 25.2929 34.1402C25.1054 33.9527 25 33.6983 25 33.4331V26.4331C25 26.1679 25.1054 25.9135 25.2929 25.726C25.4804 25.5385 25.7348 25.4331 26 25.4331H33C33.2652 25.4331 33.5196 25.5385 33.7071 25.726C33.8946 25.9135 34 26.1679 34 26.4331V33.4331C34 33.6983 33.8946 33.9527 33.7071 34.1402C33.5196 34.3277 33.2652 34.4331 33 34.4331Z" fill="#EC595A"/>
<path d="M33 47.4331H26C25.7348 47.4331 25.4804 47.3277 25.2929 47.1402C25.1054 46.9527 25 46.6983 25 46.4331V39.4331C25 39.1679 25.1054 38.9135 25.2929 38.726C25.4804 38.5385 25.7348 38.4331 26 38.4331H33C33.2652 38.4331 33.5196 38.5385 33.7071 38.726C33.8946 38.9135 34 39.1679 34 39.4331V46.4331C34 46.6983 33.8946 46.9527 33.7071 47.1402C33.5196 47.3277 33.2652 47.4331 33 47.4331Z" fill="#EC595A"/>
<path d="M37 26.4331H47V28.4331H37V26.4331Z" fill="#722575"/>
<path d="M47 39.4331H37V41.4331H47V39.4331Z" fill="#722575"/>
<path d="M47 44.4331H37V46.4331H47V44.4331Z" fill="#D6B1FF"/>
<path d="M47 31.4331H37V33.4331H47V31.4331Z" fill="#D6B1FF"/>
</svg>
