<svg width="88" height="86" viewBox="0 0 88 86" fill="none" xmlns="http://www.w3.org/2000/svg">
<path d="M44.1582 85C67.6303 85 86.6582 66.196 86.6582 43C86.6582 19.804 67.6303 1 44.1582 1C20.6861 1 1.6582 19.804 1.6582 43C1.6582 66.196 20.6861 85 44.1582 85Z" fill="white" stroke="#EC595A" stroke-width="2"/>
<path d="M19.6582 24H59.6582V53H19.6582V24Z" fill="white"/>
<path d="M30.6582 42.5H39.6582M45.2412 52H21.4732C21.2581 51.9961 21.0529 51.9089 20.9008 51.7567C20.7488 51.6044 20.6618 51.3991 20.6582 51.184V26.816C20.6618 26.6009 20.7488 26.3956 20.9008 26.2433C21.0529 26.0911 21.2581 26.0039 21.4732 26H56.8432C57.0583 26.0039 57.2635 26.0911 57.4156 26.2433C57.5676 26.3956 57.6546 26.6009 57.6582 26.816V30.647L45.2412 52ZM30.6582 38.5H45.6582H30.6582ZM30.6582 35.5H45.6582H30.6582Z" stroke="#EC595A"/>
<path opacity="0.5" d="M23.1582 29.5C23.7105 29.5 24.1582 29.0523 24.1582 28.5C24.1582 27.9477 23.7105 27.5 23.1582 27.5C22.6059 27.5 22.1582 27.9477 22.1582 28.5C22.1582 29.0523 22.6059 29.5 23.1582 29.5Z" fill="#EC595A" stroke="#EC595A"/>
<path opacity="0.5" d="M26.1582 29.5C26.7105 29.5 27.1582 29.0523 27.1582 28.5C27.1582 27.9477 26.7105 27.5 26.1582 27.5C25.6059 27.5 25.1582 27.9477 25.1582 28.5C25.1582 29.0523 25.6059 29.5 26.1582 29.5Z" stroke="#EC595A"/>
<path opacity="0.5" d="M28.1582 29.5C28.7105 29.5 29.1582 29.0523 29.1582 28.5C29.1582 27.9477 28.7105 27.5 28.1582 27.5C27.6059 27.5 27.1582 27.9477 27.1582 28.5C27.1582 29.0523 27.6059 29.5 28.1582 29.5Z" stroke="#EC595A"/>
<path d="M55.6582 53L52.3022 56L50.6582 54.53M55.6582 37L52.3022 40L50.6582 38.5L55.6582 37ZM55.6582 45L52.3022 48L50.6582 46.47L55.6582 45Z" stroke="#EC595A"/>
<path fill-rule="evenodd" clip-rule="evenodd" d="M46.6582 32H68.6582V62H46.6582V32Z" stroke="#EC595A"/>
<path opacity="0.5" d="M57.6582 54.5H64.6582M57.6582 37.5H64.6582H57.6582ZM57.6582 40.5H61.6582H57.6582ZM57.6582 38.5H64.6582H57.6582ZM57.6582 45.5H64.6582H57.6582ZM57.6582 48.5H61.6582H57.6582ZM57.6582 46.5H64.6582H57.6582ZM57.6582 53.5H64.6582H57.6582ZM57.6582 56.5H61.6582H57.6582Z" stroke="#EC595A"/>
</svg>
