<svg width="371" height="400" viewBox="0 0 371 400" fill="none" xmlns="http://www.w3.org/2000/svg">
<path d="M66.2449 242.708H221.006V397.469H66.2449V242.708Z" fill="#FFC7B6"/>
<path d="M65.1308 398.585H222.135V241.581H65.1308V398.585ZM219.892 396.342H67.3737V243.824H219.892V396.342Z" fill="#25383F"/>
<path d="M72.1645 201.934L71.0431 184.888C71.0431 184.888 85.5772 185.336 73.1514 161.427L53.3689 169.187L57.2267 183.811L56.0604 202.068L72.1645 201.934Z" fill="white"/>
<path d="M54.8559 203.18L73.3375 203.046L72.216 185.91C73.7412 185.686 76.2981 184.923 77.913 182.366C80.6045 178.105 79.3036 170.882 74.1001 160.879L73.6515 159.982L51.9849 168.46L56.0671 183.847L54.8559 203.18ZM70.96 200.803L57.2782 200.893L58.3548 183.622L54.7213 169.806L72.6197 162.808C78.0924 173.664 77.5542 178.778 76.0738 181.155C74.4141 183.802 71.2292 183.757 71.0946 183.757L69.8834 183.712L69.9731 184.923L70.96 200.803Z" fill="#25383F"/>
<path d="M63.5558 171.557C63.5558 171.557 61.3578 167.924 59.1597 170.57C58.2177 171.692 58.3075 174.608 62.1204 175.595C62.1204 175.595 63.1521 182.144 56.558 183.22C56.558 183.22 47.676 175.415 49.9189 165.726C49.9189 165.726 38.6595 169.359 36.1475 159.087C35.3849 155.991 36.9998 149.936 43.8182 148.949C47.1826 148.455 53.5076 149.711 54.1805 157.831C54.1805 157.831 67.952 148.814 75.3984 163.258C75.3087 163.258 70.6435 170.84 63.5558 171.557Z" fill="#25383F"/>
<path d="M183.785 376.378C183.785 376.378 169.879 393.873 158.665 391.63L157.319 388.041L178.402 374.135L183.785 376.378Z" fill="#F6623A"/>
<path d="M94.2852 262.44C94.2852 262.44 57.2771 286.663 38.8852 277.692L43.371 265.131L85.9864 256.16L94.2852 262.44Z" fill="#F6623A"/>
<path d="M34.4061 382.21C34.4061 382.21 20.9486 375.033 21.3972 353.949L28.1259 349.912L39.7891 375.93L34.4061 382.21Z" fill="#F6623A"/>
<path d="M255.872 123.512C255.872 123.512 289.023 123.512 309.029 134.323L276.417 173.708C262.063 156.124 255.872 123.512 255.872 123.512Z" fill="#25383F"/>
<path d="M178.487 371.406C178.487 371.406 180.416 384.191 189.477 386.838C194.77 388.363 208.542 390.785 211.771 397.917L170.726 397.873L162.293 380.871L178.487 371.406Z" fill="white"/>
<path d="M213.486 399.032L212.769 397.462C209.808 390.913 199.042 388.176 192.627 386.561C191.506 386.292 190.564 386.023 189.756 385.799C181.502 383.377 179.573 371.399 179.573 371.265L179.304 369.65L160.733 380.461L169.929 398.987L213.486 399.032ZM177.689 373.149C178.542 376.827 181.413 385.664 189.128 387.907C189.936 388.131 190.923 388.401 192.044 388.67C197.472 390.06 206.219 392.258 209.718 396.744L171.364 396.699L163.694 381.268L177.689 373.149Z" fill="#25383F"/>
<path d="M32.1568 358.89L13.4957 366.381L12.4191 397.693H31.6185C31.6185 397.693 28.7924 392.354 24.1271 391.637C24.1271 391.637 27.3121 377.192 36.6426 371.944L32.1568 358.89Z" fill="white"/>
<path d="M11.2547 398.808H33.5044L32.6072 397.148C32.4727 396.924 29.9157 392.169 25.5196 390.778C26.4616 387.414 29.8709 377.007 37.1828 372.88L37.9902 372.431L32.7867 357.404L12.3313 365.613L11.2547 398.808ZM29.512 396.565H13.5425L14.5293 367.138L31.4409 360.364L35.2539 371.444C26.2374 377.231 23.1421 390.823 23.0076 391.406L22.7384 392.573L23.9047 392.752C26.4617 393.111 28.3906 395.085 29.512 396.565Z" fill="#25383F"/>
<path d="M89.5839 256.16L91.2886 326.677C91.468 334.662 87.8345 342.243 81.4646 347.042L34.6326 382.436C34.6326 382.436 34.4083 372.343 31.7168 366.062C28.9356 359.558 22.0723 353.726 22.0723 353.726L61.9961 320.531L49.9741 263.561L89.5839 256.16Z" fill="#25383F"/>
<path d="M92.05 259.971L50.5562 263.335C50.5562 263.335 47.4161 269.615 102.143 319.408L158.665 391.63C158.665 391.63 163.15 383.107 169.879 379.967C175.531 377.32 183.785 376.378 183.785 376.378L137.357 310.571C135.697 308.238 133.903 305.995 131.974 303.842L92.05 259.971Z" fill="#25383F"/>
<path d="M107.257 193.535L121.701 193.131L155.748 181.513L158.619 179.136C160.145 177.88 161.894 176.938 163.778 176.354L173.961 173.214L159.606 188.466L126.321 205.826C123.585 207.262 120.58 208.159 117.484 208.428L106.18 209.46L107.257 193.535Z" fill="white"/>
<path d="M104.923 210.627L117.529 209.46C120.803 209.146 123.898 208.249 126.814 206.724L160.234 189.274L177.639 170.792L163.419 175.189C161.4 175.817 159.516 176.803 157.901 178.194L155.165 180.437L121.476 191.966L106.224 192.369L104.923 210.627ZM158.888 187.525L125.782 204.795C123.136 206.186 120.31 206.993 117.349 207.262L107.391 208.159L108.333 194.612L121.88 194.253L156.241 182.5L159.292 179.988C160.682 178.822 162.297 177.97 164.047 177.431L170.147 175.547L158.888 187.525Z" fill="#25383F"/>
<path d="M89.5679 215.347C89.5679 215.347 89.8371 230.015 89.5679 233.738C88.6708 246.747 96.0724 263.569 96.0724 263.569C96.0724 263.569 81.0449 262.896 68.036 266.036C53.4122 269.58 39.7753 276.354 39.7753 276.354L39.551 209.919C39.551 205.298 41.7042 200.902 45.4274 198.121L55.6551 190.45C55.6551 190.45 68.8883 205.478 72.7012 191.347L109.934 193.142L108.812 214.449L89.5679 215.347Z" fill="#FCE7E9"/>
<path d="M38.6634 278.141L40.2783 277.334C40.4128 277.244 53.96 270.56 68.3147 267.106C81.0096 264.056 95.9025 264.684 96.0371 264.684L97.8314 264.773L97.1137 263.114C97.024 262.934 89.8466 246.381 90.6989 233.821C90.9232 230.636 90.7887 219.915 90.6989 216.416L109.898 215.519L111.154 192.058L71.9033 190.174L71.679 191.026C70.8716 194.032 69.5707 195.736 67.8661 196.14C64.0531 197.037 58.401 191.789 56.5618 189.681L55.889 188.918L44.8089 197.217C40.8166 200.177 38.4839 204.932 38.4839 209.912L38.6634 278.141ZM92.583 262.396C87.2897 262.396 76.9723 262.71 67.7764 264.953C56.1132 267.779 44.9435 272.713 40.9063 274.597L40.7268 209.957C40.7268 205.695 42.7455 201.613 46.1547 199.056L55.6198 191.968C57.6384 194.032 63.5149 199.505 68.4044 198.383C70.7819 197.845 72.5314 195.871 73.608 192.507L108.822 194.211L107.835 213.366L88.456 214.263V215.339C88.456 215.474 88.7252 230.008 88.456 233.642C87.6934 244.542 92.5381 257.82 94.3773 262.396C93.8839 262.396 93.3007 262.396 92.583 262.396Z" fill="#25383F"/>
<path d="M2.33426 306.447C2.87256 284.511 11.4854 267.913 27.9035 257.103C40.1498 249.028 52.3512 247.413 52.4858 247.413H52.5307C83.1689 242.21 111.968 229.201 138.21 208.701C160.325 191.43 180.87 168.597 199.217 140.92C232.726 90.4542 251.701 34.9197 260.045 6.30008C260.852 3.56373 263.185 2.66656 264.935 2.66656C266.684 2.71142 269.017 3.6983 269.689 6.47951L301.987 135.312L304.141 134.774L271.843 5.94121C271.035 2.66656 268.299 0.513364 264.935 0.468506C261.57 0.423648 258.789 2.44227 257.847 5.71692C239.006 70.4474 181.274 223.324 52.1269 245.215C51.3195 245.305 39.1629 247.01 26.6026 255.263C14.8497 262.979 0.719391 278.141 0.00164795 306.402L2.33426 306.447Z" fill="#25383F"/>
<path d="M65.1406 233.953L104.347 225.026L124.354 218.252L116.638 227.314C114.799 229.467 112.376 230.992 109.64 231.8L105.064 233.101L60.4753 250.864C56.0792 252.614 51.1449 250.057 50.0234 245.481L45.403 226.417L63.7949 222.379L65.1406 233.953Z" fill="white"/>
<path d="M57.6016 252.48C58.7231 252.48 59.8445 252.256 60.9211 251.852L105.465 234.133L109.996 232.877C112.957 232.069 115.559 230.365 117.532 228.077L127.895 215.92L104.075 223.995L66.1247 232.608L64.7789 220.945L44.0544 225.475L48.944 245.661C49.572 248.173 51.2317 250.282 53.5195 251.493C54.7755 252.166 56.1661 252.48 57.6016 252.48ZM120.852 220.631L115.783 226.552C114.078 228.526 111.88 229.961 109.368 230.679L104.658 232.025L60.0688 249.788C58.2745 250.506 56.2559 250.416 54.5513 249.519C52.8467 248.622 51.5906 247.052 51.1421 245.168L46.7908 227.18L62.8501 223.636L64.1958 235.299L104.748 226.058L120.852 220.631Z" fill="#25383F"/>
<path d="M264.967 14.8266C261.25 14.8266 258.238 11.8141 258.238 8.09788C258.238 4.3817 261.25 1.36914 264.967 1.36914C268.683 1.36914 271.695 4.3817 271.695 8.09788C271.695 11.8141 268.683 14.8266 264.967 14.8266Z" fill="white"/>
<path d="M264.974 15.9431C269.28 15.9431 272.824 12.3993 272.824 8.09287C272.824 3.78648 269.28 0.242676 264.974 0.242676C260.668 0.242676 257.124 3.78648 257.124 8.09287C257.124 12.3993 260.668 15.9431 264.974 15.9431ZM264.974 2.48559C268.069 2.48559 270.581 4.99765 270.581 8.09287C270.581 11.1881 268.069 13.7002 264.974 13.7002C261.879 13.7002 259.367 11.1881 259.367 8.09287C259.367 4.99765 261.879 2.48559 264.974 2.48559Z" fill="#25383F"/>
<path d="M89.3872 203.604L91.625 203.755L90.7998 215.973L88.562 215.822L89.3872 203.604Z" fill="#25383F"/>
<path d="M90.6135 310.349L92.1387 308.69C66.6592 284.825 55.0858 271.681 54.9961 271.547L53.2914 273.027C53.426 273.162 64.9995 286.395 90.6135 310.349Z" fill="white"/>
<path d="M42.4794 227.853L49.9707 226.462L49.567 224.264L44.2737 225.251L40.9094 207.936L38.6664 208.384L42.4794 227.853Z" fill="#25383F"/>
<path d="M64.2276 212.071L65.125 224.195L62.8881 224.36L61.9907 212.236L64.2276 212.071Z" fill="#25383F"/>
<path d="M337.783 322.417L363.577 344.218L370.844 397.689H363.577L317.193 377.727L337.783 322.417Z" fill="#25383F"/>
<path d="M267.084 322.417L241.29 344.218L234.023 397.689H241.29L287.674 377.727L267.084 322.417Z" fill="#25383F"/>
<path d="M276.144 173.492L328.315 173.402C328.315 173.402 371.334 271.956 322.707 379.257L281.752 379.347C233.08 272.046 276.144 173.492 276.144 173.492Z" fill="white"/>
<path d="M281.038 380.419L323.429 380.329L323.743 379.656C334.868 355.074 342.135 328.921 345.23 301.917C347.742 280.295 347.608 258.09 344.871 235.93C340.206 198.16 329.44 173.174 329.351 172.949L329.037 172.276L275.386 172.366L275.072 173.039C274.982 173.308 264.171 198.249 259.551 236.02C256.815 258.18 256.725 280.385 259.192 302.006C262.287 329.011 269.554 355.208 280.679 379.746L281.038 380.419ZM321.994 378.086L282.474 378.176C257.757 323.269 257.577 270.785 261.794 236.379C265.966 202.331 275.162 178.781 276.866 174.609L327.556 174.519C329.261 178.736 338.457 202.242 342.629 236.289C346.89 270.695 346.711 323.18 321.994 378.086Z" fill="#25383F"/>
<path d="M297.639 323.852H307.193V397.644H297.639V323.852Z" fill="#25383F"/>
<path d="M302.339 244.233C292.008 244.233 283.633 235.858 283.633 225.527C283.633 215.196 292.008 206.821 302.339 206.821C312.67 206.821 321.045 215.196 321.045 225.527C321.045 235.858 312.67 244.233 302.339 244.233Z" fill="white"/>
<path d="M302.346 245.35C313.292 245.35 322.174 236.468 322.174 225.523C322.174 214.577 313.292 205.695 302.346 205.695C291.401 205.695 282.519 214.577 282.519 225.523C282.519 236.468 291.446 245.35 302.346 245.35ZM302.346 207.938C312.036 207.938 319.931 215.833 319.931 225.523C319.931 235.212 312.036 243.107 302.346 243.107C292.657 243.107 284.762 235.212 284.762 225.523C284.762 215.833 292.657 207.938 302.346 207.938Z" fill="#25383F"/>
<path d="M302.442 269.169C298.601 269.169 295.488 266.056 295.488 262.216C295.488 258.376 298.601 255.263 302.442 255.263C306.282 255.263 309.395 258.376 309.395 262.216C309.395 266.056 306.282 269.169 302.442 269.169Z" fill="#25383F"/>
<path d="M302.442 294.291C298.601 294.291 295.488 291.178 295.488 287.338C295.488 283.498 298.601 280.385 302.442 280.385C306.282 280.385 309.395 283.498 309.395 287.338C309.395 291.178 306.282 294.291 302.442 294.291Z" fill="#25383F"/>
<path d="M321.497 181.247C320.506 181.247 319.702 180.444 319.702 179.453C319.702 178.462 320.506 177.658 321.497 177.658C322.488 177.658 323.291 178.462 323.291 179.453C323.291 180.444 322.488 181.247 321.497 181.247Z" fill="#25383F"/>
<path d="M318.809 374.587C317.818 374.587 317.015 373.783 317.015 372.792C317.015 371.801 317.818 370.998 318.809 370.998C319.8 370.998 320.604 371.801 320.604 372.792C320.604 373.783 319.8 374.587 318.809 374.587Z" fill="#25383F"/>
<path d="M311.635 374.587C310.644 374.587 309.841 373.783 309.841 372.792C309.841 371.801 310.644 370.998 311.635 370.998C312.626 370.998 313.43 371.801 313.43 372.792C313.43 373.783 312.626 374.587 311.635 374.587Z" fill="#25383F"/>
<path d="M293.247 374.587C292.256 374.587 291.452 373.783 291.452 372.792C291.452 371.801 292.256 370.998 293.247 370.998C294.238 370.998 295.041 371.801 295.041 372.792C295.041 373.783 294.238 374.587 293.247 374.587Z" fill="#25383F"/>
<path d="M286.063 374.587C285.072 374.587 284.269 373.783 284.269 372.792C284.269 371.801 285.072 370.998 286.063 370.998C287.054 370.998 287.857 371.801 287.857 372.792C287.857 373.783 287.054 374.587 286.063 374.587Z" fill="#25383F"/>
<path d="M313.921 181.247C312.93 181.247 312.126 180.444 312.126 179.453C312.126 178.462 312.93 177.658 313.921 177.658C314.911 177.658 315.715 178.462 315.715 179.453C315.715 180.444 314.911 181.247 313.921 181.247Z" fill="#25383F"/>
<path d="M306.344 181.247C305.353 181.247 304.55 180.444 304.55 179.453C304.55 178.462 305.353 177.658 306.344 177.658C307.335 177.658 308.139 178.462 308.139 179.453C308.139 180.444 307.335 181.247 306.344 181.247Z" fill="#25383F"/>
<path d="M298.758 181.247C297.767 181.247 296.964 180.444 296.964 179.453C296.964 178.462 297.767 177.658 298.758 177.658C299.749 177.658 300.553 178.462 300.553 179.453C300.553 180.444 299.749 181.247 298.758 181.247Z" fill="#25383F"/>
<path d="M291.172 181.247C290.181 181.247 289.378 180.444 289.378 179.453C289.378 178.462 290.181 177.658 291.172 177.658C292.163 177.658 292.967 178.462 292.967 179.453C292.967 180.444 292.163 181.247 291.172 181.247Z" fill="#25383F"/>
<path d="M283.641 181.247C282.65 181.247 281.847 180.444 281.847 179.453C281.847 178.462 282.65 177.658 283.641 177.658C284.632 177.658 285.436 178.462 285.436 179.453C285.436 180.444 284.632 181.247 283.641 181.247Z" fill="#25383F"/>
<path d="M272.339 183.49H332.135V185.733H272.339V183.49Z" fill="#25383F"/>
<path d="M276.191 364.939H328.227V367.182H276.191V364.939Z" fill="#25383F"/>
</svg>
