<svg width="156" height="44" viewBox="0 0 156 44" fill="none" xmlns="http://www.w3.org/2000/svg">
<path d="M153.367 42.1735H2.14999C2.14999 42.1735 16.9981 12.0287 58.7162 22.2116C58.7611 22.2116 118.109 -35.2967 153.367 42.1735Z" fill="#DEE6E9"/>
<path d="M0.36792 43.2883H155.129L154.411 41.7182C143.69 18.1228 129.605 4.53074 112.603 1.30095C97.9346 -1.48027 83.894 4.17187 74.6532 9.37543C66.0853 14.2201 60.1191 19.4685 58.4594 20.9937C36.8377 15.8799 22.4382 21.6666 14.1842 27.4533C5.12286 33.8232 1.35477 41.3594 1.17532 41.6734L0.36792 43.2883ZM151.63 41.0454H4.13602C5.70605 38.5333 9.38445 33.554 15.5749 29.2028C26.9689 21.2629 41.8169 19.1994 58.5042 23.2815L59.0874 23.4161L59.536 22.9675C59.8051 22.7432 85.3294 -1.65969 112.155 3.45415C128.034 6.50451 141.313 19.1545 151.63 41.0454Z" fill="#25383F"/>
</svg>
