<svg width="373" height="481" viewBox="0 0 373 481" fill="none" xmlns="http://www.w3.org/2000/svg">
<path d="M44.9402 210.842H370.486V478.458H44.9402V210.842Z" fill="white"/>
<path d="M43.3659 480.031H372.061V209.268H43.3659V480.031ZM368.912 476.883H46.5144V212.416H368.912V476.883Z" fill="#25383F"/>
<path d="M70.8179 475.235H312.49C310.16 410.504 256.952 358.744 191.654 358.744C126.356 358.744 73.1477 410.504 70.8179 475.235Z" fill="#FCE7E9"/>
<path d="M83.2938 61.6069L96.2023 95.169H196.007L183.162 61.6069H187.192L347.635 479.717H343.605L329.689 443.51H229.821L243.737 479.717H239.707L79.2639 61.6069H83.2938ZM228.373 439.732H328.241L307.335 385.264H207.467L228.373 439.732ZM206.019 381.486H305.887L285.359 327.963H185.491L206.019 381.486ZM184.043 324.185H283.911L263.509 270.977H163.641L184.043 324.185ZM162.193 267.198H261.998L241.596 213.99H141.728L162.193 267.198ZM140.343 210.212H240.148L219.62 156.689H119.752L140.343 210.212ZM118.304 152.911H218.172L197.455 98.9471H97.5876L118.304 152.911Z" fill="#25383F"/>
<path d="M220.75 57.0098L208.912 30.2482L197.389 7.70557L174.216 17.2138C174.216 17.2138 172.768 56.569 192.981 46.3052L198.207 61.6694L220.75 57.0098Z" fill="white"/>
<path d="M197.201 63.4956L222.955 58.1433L210.298 29.5557L198.146 5.69067L172.706 16.1434L172.643 17.1509C172.58 18.1584 171.825 41.8345 181.585 48.0054C184.544 49.8944 188.071 50.0204 192.101 48.3832L197.201 63.4956ZM218.484 55.8764L199.279 59.8434L193.927 44.0384L192.29 44.8569C188.574 46.746 185.678 46.8719 183.285 45.3607C176.799 41.2048 175.666 25.2738 175.792 18.2214L196.634 9.65767L207.465 30.878L218.484 55.8764Z" fill="#25383F"/>
<path d="M164.518 19.4818C163.006 14.7592 169.744 12.1775 169.744 12.1775C167.288 12.3034 166.218 11.233 165.966 10.2255C164.706 4.30646 177.426 4.68428 177.426 4.68428C174.404 3.11007 177.678 1.47289 177.678 1.47289C181.771 -0.227256 190.146 0.528356 196.002 1.34694C197.765 0.906166 220.37 -4.3202 211.744 33.5238C211.744 33.5238 200.598 40.1984 196.254 28.3604C196.254 28.3604 197.954 21.3079 192.224 21.8746C191.153 22.0006 190.209 22.7562 189.894 23.7637C189.453 25.149 189.264 26.3454 189.264 27.038C189.264 27.6047 188.823 28.1085 188.32 28.2974C187.564 28.5493 186.808 28.1085 186.556 27.4158L185.045 22.6932C175.222 25.2119 165.525 22.8191 164.518 19.4818Z" fill="#25383F"/>
<path d="M196.885 306.112C202.615 308.505 228.18 318.202 240.459 303.719L226.606 291.125L199.53 293.644L196.129 304.412C195.94 305.104 196.255 305.86 196.885 306.112Z" fill="#25383F"/>
<path d="M332.07 395.34C332.07 395.34 310.031 418.008 292.4 401.007L293.03 389.043L329.552 387.28L332.07 395.34Z" fill="#25383F"/>
<path d="M320.423 381.8L335.535 411.395L319.163 440.36H295.865C295.865 440.36 299.014 433.434 305.94 429.026L307.829 398.172L302.792 385.578L320.423 381.8Z" fill="white"/>
<path d="M293.408 441.936H320.106L337.359 411.46L321.302 380.039L300.649 384.446L306.253 398.425L304.427 428.146C297.689 432.743 294.604 439.418 294.415 439.733L293.408 441.936ZM318.217 438.788H298.508C299.956 436.521 302.664 432.932 306.757 430.35L307.449 429.909L309.401 397.922L304.931 386.713L319.539 383.565L333.707 411.334L318.217 438.788Z" fill="#25383F"/>
<path d="M283.277 102.225C283.277 102.225 307.205 155.748 272.258 153.544C233.217 151.088 175.601 153.229 175.601 153.229C175.601 153.229 183.157 145.673 193.862 143.784C204.567 141.895 266.276 123.004 266.276 123.004L259.979 104.114L283.277 102.225Z" fill="white"/>
<path d="M274.276 155.177C281.14 155.177 286.177 152.911 289.326 148.44C299.149 134.272 285.296 102.914 284.729 101.591L284.288 100.584L257.905 102.725L264.327 121.993C254.693 124.953 203.185 140.569 193.614 142.269C182.532 144.221 174.849 151.84 174.535 152.155L171.701 154.989L175.731 154.863C176.298 154.863 233.725 152.722 272.198 155.177C272.891 155.177 273.584 155.177 274.276 155.177ZM282.273 103.858C284.54 109.337 294.615 135.217 286.744 146.614C283.974 150.581 279.188 152.344 272.387 151.903C240.148 149.888 194.747 151.022 180.202 151.462C183.287 149.258 188.262 146.362 194.181 145.291C204.885 143.402 264.264 125.268 266.783 124.449L268.357 123.945L262.186 105.433L282.273 103.858Z" fill="#25383F"/>
<path d="M224.718 291.758L236.682 325.761H185.048C185.048 325.761 184.733 317.26 200.16 314.426C205.89 313.356 208.976 304.351 206.457 294.465L224.718 291.758Z" fill="white"/>
<path d="M183.536 327.333H238.885L225.724 289.993L204.441 293.142L204.882 294.842C206.33 300.635 205.826 306.428 203.56 310.017C202.867 311.151 201.608 312.536 199.844 312.851C183.284 315.873 183.41 325.381 183.473 325.822L183.536 327.333ZM234.477 324.185H186.936C187.692 321.918 190.525 317.825 200.474 315.999C202.804 315.558 204.819 314.11 206.267 311.78C208.786 307.876 209.542 301.894 208.345 295.786L223.646 293.519L234.477 324.185Z" fill="#25383F"/>
<path d="M150.035 224.885L196.38 303.092C196.38 303.092 212.752 287.98 236.68 299.944L195.75 230.049L253.681 204.232V204.421L258.656 227.089L293.288 398.174C293.288 398.174 307.141 384.321 330.439 393.137L305.882 210.403C303.867 195.101 299.774 180.115 293.54 166.01C291.399 161.224 288.943 156.313 286.236 151.779C281.828 144.412 276.539 138.052 270.62 134.337L213.948 134.967L215.019 145.23L216.467 158.895L155.451 200.076C147.391 205.554 144.935 216.511 150.035 224.885Z" fill="white"/>
<path d="M292.402 401.383L294.48 399.305C295.047 398.801 307.955 386.271 329.931 394.645L332.387 395.59L307.514 210.148C305.373 194.343 301.217 179.231 295.047 165.315C292.654 159.963 290.198 155.114 287.679 150.958C282.579 142.52 277.101 136.475 271.559 133.012L271.182 132.76L212.306 133.39L214.888 158.074L154.627 198.751C145.749 204.733 143.167 216.571 148.708 225.701L196.06 305.545L197.509 304.223C198.138 303.656 213.44 289.992 236.045 301.326L240.768 303.719L198.075 230.739L252.543 206.433L257.14 227.402L292.402 401.383ZM315.259 388.6C304.933 388.6 297.754 392.756 294.417 395.275L260.288 226.772L255.251 203.914L254.873 201.962L193.542 229.291L232.897 296.541C214.699 289.614 201.224 297.548 196.879 300.76L151.353 224.127C146.693 216.445 148.897 206.433 156.327 201.396L218.162 159.648L215.706 136.475L270.174 135.846C275.212 139.057 280.186 144.661 284.909 152.532C287.364 156.625 289.82 161.348 292.15 166.574C298.195 180.238 302.288 195.036 304.366 210.526L328.546 390.741C323.697 389.23 319.226 388.6 315.259 388.6Z" fill="#25383F"/>
<path d="M151.671 88.9956L123.335 112.924L70.1273 141.574C70.1273 141.574 55.0149 153.538 54.3852 161.094L86.8139 147.556L135.929 128.036L168.043 105.367L151.671 88.9956Z" fill="white"/>
<path d="M52.6238 163.551L87.4453 149.006L136.687 129.423L136.812 129.297L170.438 105.558L151.736 86.856L122.393 111.603L69.1845 140.253L69.0585 140.316C67.4843 141.575 53.3795 152.91 52.7498 160.97L52.6238 163.551ZM135.175 126.652L86.2489 146.109L56.8427 158.388C59.5503 152.847 67.4843 145.668 71.0106 142.898L124.219 114.247L151.547 91.1378L165.589 105.18L135.175 126.652Z" fill="#25383F"/>
<path d="M161.434 112.613L140.655 94.3521C140.655 94.3521 167.92 61.6716 196.067 50.2743L220.94 48.3853C220.94 48.3853 269.11 59.7195 287.371 107.575L267.851 110.094L286.112 149.764C286.112 149.764 274.714 141.201 248.331 143.467C226.292 145.356 213.068 154.802 213.068 154.802C213.068 154.802 186.622 108.205 185.362 100.019L161.434 112.613Z" fill="#25383F"/>
<path d="M259.208 83.6516L270.229 109.688L267.329 110.916L256.309 84.8789L259.208 83.6516Z" fill="white"/>
<path d="M253.999 205.995C262.374 202.406 267.852 196.864 270.371 189.434C275.723 173.503 265.271 154.802 264.83 154.046L262.122 155.62C262.248 155.809 272.323 173.881 267.411 188.49C265.208 195.038 260.296 199.95 252.803 203.161L253.999 205.995Z" fill="#25383F"/>
<path d="M63.5181 246.42H139.08V272.237H63.5181V246.42Z" fill="#F6623A"/>
<path d="M61.94 273.811H140.65V244.846H61.94V273.811ZM137.502 270.663H65.0884V247.994H137.502V270.663Z" fill="#25383F"/>
<path d="M1.80717 338.981H77.3691V364.798H1.80717V338.981Z" fill="white"/>
<path d="M0.23299 366.375H78.9434V337.409H0.23299V366.375ZM75.7949 363.226H3.3814V340.558H75.7949V363.226Z" fill="#25383F"/>
</svg>
