<svg width="602" height="2802" viewBox="0 0 602 2802" fill="none" xmlns="http://www.w3.org/2000/svg">
<path d="M3.12578 1.03174V427.043C3.12578 437.518 10.0502 458.37 37.748 457.971C65.4458 457.572 402.061 457.805 566.907 457.971C578.759 456.308 602.09 462.361 600.593 499.874C600.593 537.786 600.593 829.608 600.593 970.781C600.593 989.238 599.845 1014.68 553.806 1014.68C507.768 1014.68 188.09 1014.68 34.0051 1014.68C21.0607 1013.18 -3.51794 1020.47 1.72218 1061.57C1.72218 1103.47 1.72218 1389.31 1.72218 1526.99C1.72218 1546.44 4.74295 1573.38 50.8485 1572.38C94.641 1572.38 412.822 1572.38 566.439 1572.38C587.239 1572.88 598.935 1580.86 600.126 1621.77C600.126 1660.48 600.126 1953.17 600.126 2094.67C600.593 2108.81 590.514 2129.59 549.596 2130.59C508.049 2130.59 190.117 2130.59 36.3446 2130.59C22.6205 2130.92 0.998661 2141.56 1 2175.48C1 2210.6 2.19024 2503.39 2.19024 2645.39C2.19024 2663.35 9.42162 2686.8 60.2059 2686.8C111.858 2686.8 425.143 2686.8 575.329 2686.8C600.126 2686.8 600.126 2700.07 600.126 2743.17C600.126 2786.27 600.126 2799.7 600.126 2801.03" stroke="#C6C6C6" stroke-linecap="round" stroke-linejoin="round" stroke-dasharray="3 3"/>
</svg>
