<svg width="125" height="36" viewBox="0 0 125 36" fill="none" xmlns="http://www.w3.org/2000/svg">
<path d="M122.475 34.0608H2.51998C2.51998 34.0608 14.295 10.1329 47.4164 18.2558C47.4164 18.2558 94.5167 -27.3962 122.475 34.0608Z" fill="white"/>
<path d="M0.000580626 35.6337H124.93L123.922 33.4298C115.296 14.4763 103.961 3.58281 90.2341 1.00111C69.6435 -2.90292 50.69 13.154 46.9749 16.5543C29.7846 12.5873 18.2614 17.2469 11.6497 21.8436C4.34539 27.007 1.25994 33.1149 1.134 33.3668L0.000580626 35.6337ZM120.018 32.4853H5.35289C6.80116 30.4073 9.50878 27.133 13.6017 24.2994C22.6062 18.0655 33.8775 16.5543 47.0379 19.7657L47.8565 19.9546L48.4862 19.3249C48.6751 19.136 68.699 0.0565879 89.6045 4.02359C101.757 6.35342 111.958 15.9246 120.018 32.4853Z" fill="#25383F"/>
</svg>
