<svg width="96" height="101" viewBox="0 0 96 101" fill="none" xmlns="http://www.w3.org/2000/svg">
<path fill-rule="evenodd" clip-rule="evenodd" d="M0.896576 10.9409C0.896576 5.25069 5.50941 0.637848 11.1996 0.637848H79.6035C85.2938 0.637848 89.9066 5.25068 89.9066 10.9409V45.1429H83.846V36.5249L34.8724 36.9364L34.8724 83.5872H45.4016V89.6479H11.1996C5.50941 89.6479 0.896576 85.035 0.896576 79.3448V10.9409ZM28.8117 83.5872L28.8117 36.9873L6.95719 37.1709V79.3448C6.95719 81.6879 8.8566 83.5872 11.1996 83.5872H28.8117ZM83.846 10.9409V30.4641L6.95719 31.1101V10.9409C6.95719 8.59787 8.8566 6.69847 11.1996 6.69847H79.6035C81.9466 6.69847 83.846 8.59787 83.846 10.9409ZM19.1341 23.0231C21.4247 23.0231 23.2816 21.1662 23.2816 18.8757C23.2816 16.5851 21.4247 14.7282 19.1341 14.7282C16.8435 14.7282 14.9866 16.5851 14.9866 18.8757C14.9866 21.1662 16.8435 23.0231 19.1341 23.0231ZM34.3416 18.8757C34.3416 21.1662 32.4847 23.0231 30.1941 23.0231C27.9035 23.0231 26.0467 21.1662 26.0467 18.8757C26.0467 16.5851 27.9035 14.7282 30.1941 14.7282C32.4847 14.7282 34.3416 16.5851 34.3416 18.8757ZM56.4615 19.9928C56.4615 18.3192 57.8182 16.9625 59.4918 16.9625H75.551C77.2246 16.9625 78.5813 18.3192 78.5813 19.9928C78.5813 21.6664 77.2246 23.0231 75.551 23.0231H59.4918C57.8182 23.0231 56.4615 21.6664 56.4615 19.9928ZM94.3069 80.2034L64.1066 62.1608C62.8017 61.4012 61.1239 62.5407 61.3103 64.0601L67.8351 99.1956C68.0215 100.905 70.2585 101.095 71.0042 99.7654L78.4611 86.091L93.5612 83.622C95.239 83.4321 95.7982 81.153 94.3069 80.2034ZM51.8864 44.8271C52.4169 44.8733 52.9086 45.1553 53.2399 45.6845L58.8334 53.6624L58.8431 53.6783C59.5149 54.7732 59.0109 55.9142 58.2423 56.4781C57.8525 56.7639 57.3547 56.9398 56.8338 56.896C56.2968 56.8508 55.792 56.5758 55.415 56.0638L55.408 56.0543L50.0013 48.0768C49.624 47.5587 49.5278 46.9881 49.6543 46.4639C49.7772 45.9541 50.0994 45.5299 50.4879 45.2449C50.8752 44.9608 51.3736 44.7825 51.8864 44.8271ZM66.9764 42.6006C67.298 43.0346 67.4347 43.5993 67.3126 44.2295L65.6336 53.7316C65.5117 54.3524 65.1919 54.8237 64.7435 55.1087C64.3052 55.3872 63.7925 55.457 63.3262 55.3751C62.4032 55.213 61.5053 54.4053 61.6401 53.1693L61.6422 53.1504L63.3257 43.4323C63.4499 42.7996 63.7907 42.3268 64.2568 42.0491C64.7106 41.7787 65.2404 41.7181 65.7192 41.8156C66.1981 41.9132 66.6619 42.1762 66.9764 42.6006ZM79.1841 51.8446C79.0995 52.3751 78.7819 52.8515 78.2349 53.1732L70.5895 58.8725L70.5563 58.8913C69.406 59.5424 68.2754 59.0718 67.7264 58.2492C67.1803 57.4311 67.1747 56.2059 68.212 55.4133L68.2215 55.406L76.0519 49.8978C76.563 49.5116 77.1324 49.409 77.6562 49.5413C78.164 49.6695 78.5796 50.0048 78.8479 50.4067C79.1162 50.8088 79.2673 51.3228 79.1841 51.8446ZM42.8397 57.3553C43.269 57.0251 43.8317 56.8827 44.46 57.0091L53.7536 58.7133C54.3781 58.7838 54.8554 59.0879 55.1415 59.5367C55.42 59.9735 55.4843 60.4937 55.4057 60.9577C55.3273 61.4214 55.097 61.8859 54.7104 62.209C54.3121 62.5418 53.7775 62.697 53.1803 62.5681L43.6777 61.0495L43.665 61.0469C43.0343 60.9184 42.5694 60.5667 42.2992 60.096C42.0367 59.6388 41.9785 59.1071 42.0728 58.627C42.167 58.147 42.4219 57.6768 42.8397 57.3553ZM56.0862 69.0997C56.591 68.7141 56.8556 68.2029 56.8991 67.6671C56.9413 67.1465 56.7722 66.6458 56.4928 66.2505C55.9427 65.472 54.8083 64.9418 53.715 65.638L53.6991 65.6481L45.8681 71.3466C45.3452 71.6865 45.0744 72.1851 45.0301 72.7131C44.9871 73.2254 45.1585 73.7266 45.4362 74.1196C45.7142 74.5129 46.132 74.8447 46.6403 74.972C47.1656 75.1035 47.7346 75.0019 48.2463 74.6152L56.0767 69.107L56.0862 69.0997Z" fill="#EC595A"/>
</svg>
