<svg width="99" height="48" viewBox="0 0 99 48" fill="none" xmlns="http://www.w3.org/2000/svg">
<rect x="0.328125" y="0.434326" width="98.6719" height="47.5042" rx="5" fill="#3E4EB8"/>
<path d="M20.9018 32.1864H31.8464V29.6463H23.932V25.0806H31.2175V22.5404H23.932V17.9993H31.7811V15.4591H20.9018V32.1864ZM37.6985 15.4591H34.7418V32.1864H37.6985V15.4591ZM46.2929 32.4314C49.2169 32.4314 51.2261 31.0021 51.7488 28.8213L48.9882 28.511C48.588 29.5728 47.6079 30.1282 46.3337 30.1282C44.4225 30.1282 43.1565 28.8704 43.132 26.7223H51.8714V25.8157C51.8714 21.4133 49.2251 19.4776 46.1377 19.4776C42.5439 19.4776 40.1998 22.1157 40.1998 25.9872C40.1998 29.924 42.5113 32.4314 46.2929 32.4314ZM43.1402 24.7294C43.23 23.1285 44.4143 21.7809 46.1785 21.7809C47.8774 21.7809 49.0209 23.0223 49.0372 24.7294H43.1402ZM57.3294 24.8355C57.3294 23.0223 58.4238 21.9769 59.9838 21.9769C61.5112 21.9769 62.426 22.9815 62.426 24.6559V32.1864H65.3826V24.1985C65.3908 21.1928 63.6756 19.4776 61.0865 19.4776C59.2079 19.4776 57.9174 20.376 57.3457 21.7727H57.1987V19.6409H54.3727V32.1864H57.3294V24.8355ZM71.9984 32.4396C73.9668 32.4396 75.1429 31.5167 75.682 30.463H75.78V32.1864H78.6223V23.7901C78.6223 20.474 75.9189 19.4776 73.5257 19.4776C70.8876 19.4776 68.862 20.6537 68.2086 22.9407L70.9693 23.3327C71.2633 22.4751 72.0964 21.74 73.5421 21.74C74.9142 21.74 75.6657 22.4424 75.6657 23.6757V23.7248C75.6657 24.5742 74.7754 24.615 72.562 24.8519C70.128 25.1132 67.8002 25.8402 67.8002 28.6662C67.8002 31.1328 69.6053 32.4396 71.9984 32.4396ZM72.7662 30.267C71.5328 30.267 70.6507 29.7034 70.6507 28.6172C70.6507 27.4819 71.639 27.0081 72.9622 26.8203C73.7381 26.7141 75.29 26.5181 75.6738 26.2077V27.686C75.6738 29.0827 74.5467 30.267 72.7662 30.267Z" fill="white"/>
</svg>
