<svg width="46" height="40" viewBox="0 0 46 40" fill="none" xmlns="http://www.w3.org/2000/svg">
<mask id="path-1-inside-1" fill="white">
<path fill-rule="evenodd" clip-rule="evenodd" d="M3.30762 0.261841C1.65076 0.261841 0.307617 1.60499 0.307617 3.26184V29.6682C0.307617 31.325 1.65076 32.6682 3.30762 32.6682H17.8424C18.1997 32.6682 18.5298 32.8588 18.7085 33.1682L22.07 38.9905C22.4549 39.6571 23.4171 39.6571 23.802 38.9905L27.1635 33.1682C27.3422 32.8588 27.6723 32.6682 28.0296 32.6682H42.5648C44.2216 32.6682 45.5648 31.325 45.5648 29.6682V3.26184C45.5648 1.60499 44.2216 0.261841 42.5648 0.261841H3.30762Z"/>
</mask>
<path fill-rule="evenodd" clip-rule="evenodd" d="M3.30762 0.261841C1.65076 0.261841 0.307617 1.60499 0.307617 3.26184V29.6682C0.307617 31.325 1.65076 32.6682 3.30762 32.6682H17.8424C18.1997 32.6682 18.5298 32.8588 18.7085 33.1682L22.07 38.9905C22.4549 39.6571 23.4171 39.6571 23.802 38.9905L27.1635 33.1682C27.3422 32.8588 27.6723 32.6682 28.0296 32.6682H42.5648C44.2216 32.6682 45.5648 31.325 45.5648 29.6682V3.26184C45.5648 1.60499 44.2216 0.261841 42.5648 0.261841H3.30762Z" fill="#1C1C1C"/>
<path d="M27.1635 33.1682L28.8956 34.1682L27.1635 33.1682ZM22.07 38.9905L23.802 37.9905L22.07 38.9905ZM23.802 38.9905L22.07 37.9905L23.802 38.9905ZM2.30762 3.26184C2.30762 2.70956 2.75533 2.26184 3.30762 2.26184V-1.73816C0.546193 -1.73816 -1.69238 0.500418 -1.69238 3.26184H2.30762ZM2.30762 29.6682V3.26184H-1.69238V29.6682H2.30762ZM3.30762 30.6682C2.75533 30.6682 2.30762 30.2204 2.30762 29.6682H-1.69238C-1.69238 32.4296 0.546192 34.6682 3.30762 34.6682V30.6682ZM17.8424 30.6682H3.30762V34.6682H17.8424V30.6682ZM23.802 37.9905L20.4405 32.1682L16.9764 34.1682L20.3379 39.9905L23.802 37.9905ZM25.4315 32.1682L22.07 37.9905L25.5341 39.9905L28.8956 34.1682L25.4315 32.1682ZM42.5648 30.6682H28.0296V34.6682H42.5648V30.6682ZM43.5648 29.6682C43.5648 30.2204 43.1171 30.6682 42.5648 30.6682V34.6682C45.3262 34.6682 47.5648 32.4296 47.5648 29.6682H43.5648ZM43.5648 3.26184V29.6682H47.5648V3.26184H43.5648ZM42.5648 2.26184C43.1171 2.26184 43.5648 2.70956 43.5648 3.26184H47.5648C47.5648 0.500418 45.3262 -1.73816 42.5648 -1.73816V2.26184ZM3.30762 2.26184H42.5648V-1.73816H3.30762V2.26184ZM28.8956 34.1682C28.7169 34.4776 28.3868 34.6682 28.0296 34.6682V30.6682C26.9578 30.6682 25.9674 31.24 25.4315 32.1682L28.8956 34.1682ZM20.3379 39.9905C21.4926 41.9905 24.3794 41.9905 25.5341 39.9905L22.07 37.9905C22.4549 37.3238 23.4171 37.3238 23.802 37.9905L20.3379 39.9905ZM17.8424 34.6682C17.4852 34.6682 17.155 34.4776 16.9764 34.1682L20.4405 32.1682C19.9046 31.24 18.9142 30.6682 17.8424 30.6682V34.6682Z" fill="white" mask="url(#path-1-inside-1)"/>
<line x1="14.7637" y1="12.465" x2="31.1096" y2="12.465" stroke="white" stroke-width="4" stroke-linecap="round"/>
<line x1="14.7637" y1="19.465" x2="31.1096" y2="19.465" stroke="white" stroke-width="4" stroke-linecap="round"/>
</svg>
