<svg width="99" height="48" viewBox="0 0 99 48" fill="none" xmlns="http://www.w3.org/2000/svg">
<rect width="98.6719" height="47.5042" rx="5" transform="matrix(-1 0 0 1 98.6719 0.459091)" fill="#FF9900"/>
<path d="M23.693 32.2112L25.0733 28.0865H31.3623L32.7508 32.2112H35.9852L30.0882 15.4839H26.3474L20.4586 32.2112H23.693ZM25.89 25.6526L28.1525 18.9143H28.2832L30.5456 25.6526H25.89ZM41.0144 24.8603C41.0144 23.0471 42.1089 22.0016 43.6689 22.0016C45.1962 22.0016 46.111 23.0063 46.111 24.6806V32.2112H49.0677V24.2232C49.0759 21.2176 47.3607 19.5024 44.7715 19.5024C42.893 19.5024 41.6025 20.4008 41.0308 21.7975H40.8837V19.6657H38.0578V32.2112H41.0144V24.8603ZM55.0301 24.8603C55.0301 23.0471 56.1245 22.0016 57.6845 22.0016C59.2119 22.0016 60.1266 23.0063 60.1266 24.6806V32.2112H63.0833V24.2232C63.0915 21.2176 61.3763 19.5024 58.7872 19.5024C56.9086 19.5024 55.6181 20.4008 55.0464 21.7975H54.8994V19.6657H52.0734V32.2112H55.0301V24.8603ZM69.6991 32.4644C71.6675 32.4644 72.8436 31.5414 73.3827 30.4878H73.4807V32.2112H76.323V23.8149C76.323 20.4988 73.6195 19.5024 71.2264 19.5024C68.5883 19.5024 66.5627 20.6785 65.9093 22.9654L68.67 23.3575C68.964 22.4999 69.7971 21.7648 71.2428 21.7648C72.6149 21.7648 73.3663 22.4672 73.3663 23.7005V23.7495C73.3663 24.599 72.4761 24.6398 70.2627 24.8766C67.8287 25.138 65.5009 25.8649 65.5009 28.6909C65.5009 31.1575 67.306 32.4644 69.6991 32.4644ZM70.4668 30.2918C69.2335 30.2918 68.3514 29.7282 68.3514 28.6419C68.3514 27.5066 69.3397 27.0329 70.6629 26.845C71.4388 26.7389 72.9906 26.5428 73.3745 26.2325V27.7108C73.3745 29.1075 72.2474 30.2918 70.4668 30.2918Z" fill="white"/>
</svg>
