<svg width="80" height="81" viewBox="0 0 80 81" fill="none" xmlns="http://www.w3.org/2000/svg">
<g clip-path="url(#clip0)">
<path opacity="0.4" d="M80.0006 30.7938H30.1221V80.5348H80.0006V30.7938Z" fill="#D44627"/>
<path opacity="0.6" d="M80.0006 30.7938V80.7835H30.1221L80.0006 30.7938Z" fill="#D44627"/>
<path opacity="0.2" d="M25.0224 50.6902C38.842 50.6902 50.0449 39.5182 50.0449 25.7369C50.0449 11.9554 38.842 0.783447 25.0224 0.783447C11.2029 0.783447 0 11.9554 0 25.7369C0 39.5182 11.2029 50.6902 25.0224 50.6902Z" fill="#D44627"/>
<path opacity="0.6" d="M25.0227 40.7696C33.348 40.7696 40.0971 34.0392 40.0971 25.7368C40.0971 17.4344 33.348 10.704 25.0227 10.704C16.6973 10.704 9.94824 17.4344 9.94824 25.7368C9.94824 34.0392 16.6973 40.7696 25.0227 40.7696Z" fill="#D44627"/>
</g>
<defs>
<clipPath id="clip0">
<rect width="80" height="80" fill="white" transform="translate(0 0.783447)"/>
</clipPath>
</defs>
</svg>
