<svg width="182" height="89" viewBox="0 0 182 89" fill="none" xmlns="http://www.w3.org/2000/svg">
<rect x="0.165039" y="0.783447" width="43.7852" height="87.8118" rx="5" fill="#F0F5FF"/>
<path d="M0.165039 80.2358H43.9502V84.4156C43.9502 86.724 42.0789 88.5953 39.7705 88.5953H4.34478C2.03637 88.5953 0.165039 86.724 0.165039 84.4156V80.2358Z" fill="#C2D7FF"/>
<rect x="14.2412" y="4.33618" width="15.633" height="2.332" rx="1.166" fill="#C2D7FF"/>
<rect x="55.6943" y="0.783447" width="126.14" height="87.8118" rx="5" fill="#F0F5FF"/>
<path d="M55.6943 80.2358H181.834V83.5952C181.834 86.3566 179.596 88.5952 176.834 88.5952H60.6943C57.9329 88.5952 55.6943 86.3566 55.6943 83.5952V80.2358Z" fill="#C2D7FF"/>
<rect x="115.573" y="3.66821" width="15.633" height="2" rx="1" fill="#C2D7FF"/>
<circle cx="108.573" cy="4.66821" r="2" fill="#C2D7FF"/>
</svg>
