<svg width="54" height="54" viewBox="0 0 54 54" fill="none" xmlns="http://www.w3.org/2000/svg">
<path d="M27.3067 0.476807C12.5967 0.476807 0.636719 12.4468 0.636719 27.1468C0.636719 41.8568 12.6067 53.8268 27.3067 53.8268C42.0067 53.8268 53.9767 41.8568 53.9767 27.1468C53.9767 12.4368 42.0167 0.476807 27.3067 0.476807ZM27.3067 51.8068C13.7167 51.8068 2.65674 40.7468 2.65674 27.1468C2.65674 13.5568 13.7167 2.4968 27.3067 2.4968C40.8967 2.4968 51.9567 13.5568 51.9567 27.1468C51.9567 40.7468 40.8967 51.8068 27.3067 51.8068Z" fill="#C6C6C6"/>
<path d="M27.3074 14.9468C20.5774 14.9468 15.1074 20.4168 15.1074 27.1468C15.1074 33.8768 20.5774 39.3468 27.3074 39.3468C34.0374 39.3468 39.5074 33.8768 39.5074 27.1468C39.5074 20.4168 34.0374 14.9468 27.3074 14.9468ZM27.3074 37.3268C21.6974 37.3268 17.1274 32.7568 17.1274 27.1468C17.1274 21.5368 21.6974 16.9668 27.3074 16.9668C32.9174 16.9668 37.4874 21.5368 37.4874 27.1468C37.4874 32.7568 32.9174 37.3268 27.3074 37.3268Z" fill="#C6C6C6"/>
</svg>
