<svg width="235" height="484" viewBox="0 0 235 484" fill="none" xmlns="http://www.w3.org/2000/svg">
<rect x="3.1709" y="2.88965" width="229.295" height="478.463" rx="27.5" stroke="#C6C6C6" stroke-width="5"/>
<path fill-rule="evenodd" clip-rule="evenodd" d="M185.091 14.5039H184.501C184.176 14.5039 183.912 14.7677 183.912 15.0931V20.1996C183.912 20.525 184.176 20.7888 184.501 20.7888H185.091C185.416 20.7888 185.68 20.525 185.68 20.1996V15.0931C185.68 14.7677 185.416 14.5039 185.091 14.5039ZM181.752 15.8787H182.341C182.667 15.8787 182.931 16.1425 182.931 16.4679V20.1996C182.931 20.525 182.667 20.7888 182.341 20.7888H181.752C181.427 20.7888 181.163 20.525 181.163 20.1996V16.4679C181.163 16.1425 181.427 15.8787 181.752 15.8787ZM179.591 17.2536H179.002C178.676 17.2536 178.412 17.5174 178.412 17.8428V20.1997C178.412 20.5251 178.676 20.7889 179.002 20.7889H179.591C179.916 20.7889 180.18 20.5251 180.18 20.1997V17.8428C180.18 17.5174 179.916 17.2536 179.591 17.2536ZM176.842 18.432H176.252C175.927 18.432 175.663 18.6958 175.663 19.0212V20.1996C175.663 20.5251 175.927 20.7889 176.252 20.7889H176.842C177.167 20.7889 177.431 20.5251 177.431 20.1996V19.0212C177.431 18.6958 177.167 18.432 176.842 18.432Z" fill="#333E63"/>
<path fill-rule="evenodd" clip-rule="evenodd" d="M193.141 15.7518C194.451 15.7519 195.712 16.2551 196.662 17.1575C196.734 17.2272 196.848 17.2263 196.918 17.1556L197.602 16.466C197.638 16.4301 197.658 16.3815 197.658 16.3309C197.657 16.2803 197.637 16.2319 197.601 16.1965C195.107 13.8089 191.173 13.8089 188.68 16.1965C188.644 16.2319 188.623 16.2803 188.623 16.3309C188.623 16.3815 188.643 16.4301 188.678 16.466L189.362 17.1556C189.433 17.2264 189.547 17.2273 189.619 17.1575C190.569 16.2551 191.83 15.7518 193.141 15.7518ZM194.453 19.6408C194.489 19.605 194.51 19.5557 194.508 19.5046C194.507 19.4534 194.485 19.405 194.447 19.3707C193.693 18.733 192.588 18.733 191.833 19.3707C191.795 19.405 191.773 19.4534 191.772 19.5045C191.771 19.5556 191.791 19.605 191.827 19.6408L193.009 20.8322C193.044 20.8672 193.091 20.8869 193.14 20.8869C193.189 20.8869 193.237 20.8672 193.271 20.8322L194.453 19.6408ZM195.09 18.7455C194.556 18.2625 193.861 17.995 193.141 17.9951C192.421 17.9954 191.728 18.2628 191.194 18.7455C191.122 18.8141 191.008 18.8126 190.938 18.7422L190.255 18.0526C190.219 18.0165 190.199 17.9674 190.199 17.9164C190.2 17.8654 190.221 17.8167 190.257 17.7813C191.883 16.2703 194.401 16.2703 196.026 17.7813C196.063 17.8167 196.084 17.8654 196.085 17.9164C196.085 17.9674 196.065 18.0164 196.029 18.0526L195.346 18.7422C195.276 18.8126 195.162 18.8141 195.09 18.7455Z" fill="#333E63"/>
<path opacity="0.4" d="M214.158 16.7627V19.1195C214.632 18.9199 214.941 18.4556 214.941 17.9411C214.941 17.4267 214.632 16.9623 214.158 16.7627Z" fill="#333E63"/>
<rect opacity="0.35" x="200.908" y="14.9058" width="11.9627" height="5.48133" rx="2.16667" stroke="#C6C6C6"/>
<rect x="201.587" y="15.5845" width="10.6058" height="4.12448" rx="1.33333" fill="#333E63"/>
<path d="M30.4142 18.2617C29.9774 18.7236 29.4671 18.9546 28.8835 18.9546C28.196 18.9546 27.6481 18.7147 27.2399 18.2349C26.8317 17.7515 26.6276 17.1177 26.6276 16.3335C26.6276 15.8179 26.7314 15.3506 26.9391 14.9316C27.1468 14.5127 27.4422 14.1868 27.8254 13.9541C28.2085 13.7214 28.6525 13.605 29.1574 13.605C29.9451 13.605 30.57 13.8986 31.0319 14.4858C31.4938 15.0731 31.7248 15.859 31.7248 16.8438V17.209C31.7248 18.6198 31.4061 19.6958 30.7687 20.437C30.1313 21.1782 29.1807 21.5542 27.9167 21.5649H27.7609V20.4854H27.9489C28.7187 20.4746 29.3096 20.2902 29.7214 19.9321C30.1331 19.5705 30.3641 19.0137 30.4142 18.2617ZM29.1574 17.9341C29.4188 17.9341 29.6641 17.8589 29.8932 17.7085C30.1224 17.5581 30.2996 17.3504 30.425 17.0854V16.5752C30.425 15.9987 30.3068 15.535 30.0705 15.1841C29.8341 14.8332 29.528 14.6577 29.152 14.6577C28.776 14.6577 28.4753 14.8135 28.2497 15.125C28.0277 15.4329 27.9167 15.8232 27.9167 16.2959C27.9167 16.7865 28.0295 17.1821 28.255 17.4829C28.4806 17.7837 28.7814 17.9341 29.1574 17.9341ZM33.5956 20.1577C33.8391 20.1577 34.0271 20.2275 34.1596 20.3672C34.2921 20.5033 34.3583 20.6751 34.3583 20.8828C34.3583 21.0869 34.2921 21.257 34.1596 21.3931C34.0271 21.5256 33.8391 21.5918 33.5956 21.5918C33.3629 21.5918 33.1785 21.5256 33.0424 21.3931C32.9063 21.2606 32.8383 21.0905 32.8383 20.8828C32.8383 20.6751 32.9045 20.5033 33.037 20.3672C33.1695 20.2275 33.3557 20.1577 33.5956 20.1577ZM33.5956 15.5977C33.8391 15.5977 34.0271 15.6675 34.1596 15.8071C34.2921 15.9432 34.3583 16.1151 34.3583 16.3228C34.3583 16.5269 34.2921 16.6969 34.1596 16.833C34.0271 16.9655 33.8391 17.0317 33.5956 17.0317C33.3629 17.0317 33.1785 16.9655 33.0424 16.833C32.9063 16.7005 32.8383 16.5304 32.8383 16.3228C32.8383 16.1151 32.9045 15.9432 33.037 15.8071C33.1695 15.6675 33.3557 15.5977 33.5956 15.5977ZM39.8224 18.7451H40.7946V19.7925H39.8224V21.5327H38.5172V19.7925H35.1388L35.1012 18.9976L38.4743 13.7124H39.8224V18.7451ZM36.4708 18.7451H38.5172V15.4795L38.4206 15.6514L36.4708 18.7451ZM44.9535 21.5327H43.6537V15.2539L41.7362 15.9092V14.8081L44.787 13.6855H44.9535V21.5327Z" fill="#333E63"/>
<line x1="38.5361" y1="451.159" x2="64.6804" y2="451.159" stroke="#C6C6C6" stroke-linecap="round"/>
<line x1="42.2471" y1="448.086" x2="60.9695" y2="448.086" stroke="#C6C6C6" stroke-linecap="round"/>
<line x1="170.958" y1="451.159" x2="197.102" y2="451.159" stroke="#C6C6C6" stroke-linecap="round"/>
<line x1="174.669" y1="448.086" x2="193.391" y2="448.086" stroke="#C6C6C6" stroke-linecap="round"/>
<line x1="104.747" y1="451.159" x2="130.891" y2="451.159" stroke="#C6C6C6" stroke-linecap="round"/>
<line x1="108.458" y1="448.086" x2="127.18" y2="448.086" stroke="#C6C6C6" stroke-linecap="round"/>
<path d="M196.74 250.786H38.8975V283.022H196.74V250.786Z" fill="#F0F0F0"/>
<path d="M60.7456 273.995H53.7695C53.4442 273.995 53.1323 273.866 52.9022 273.636C52.6722 273.406 52.543 273.094 52.543 272.769C52.5405 272.158 52.6586 271.553 52.8905 270.988C53.1225 270.423 53.4637 269.909 53.8946 269.477C54.3256 269.044 54.8377 268.701 55.4016 268.466C55.9656 268.232 56.5703 268.112 57.181 268.112H57.3343C58.5694 268.112 59.7539 268.602 60.6273 269.476C61.5007 270.349 61.9914 271.534 61.9914 272.769C61.9863 273.096 61.8529 273.408 61.6198 273.637C61.3867 273.867 61.0727 273.995 60.7456 273.995Z" fill="#E0E0E0"/>
<path d="M59.9788 265.678C59.9788 266.227 59.8158 266.765 59.5104 267.222C59.2051 267.679 58.7711 268.035 58.2633 268.245C57.7555 268.455 57.1968 268.51 56.6577 268.403C56.1186 268.296 55.6235 268.031 55.2348 267.643C54.8462 267.254 54.5815 266.759 54.4743 266.22C54.3671 265.681 54.4221 265.122 54.6324 264.614C54.8427 264.106 55.1989 263.672 55.6559 263.367C56.1129 263.062 56.6502 262.899 57.1998 262.899C57.9368 262.899 58.6437 263.191 59.1648 263.713C59.686 264.234 59.9788 264.941 59.9788 265.678Z" fill="#E0E0E0"/>
<path d="M196.74 302.129H38.8975V334.365H196.74V302.129Z" fill="#F0F0F0"/>
<path d="M61.3596 318.765H53.042V324.649H61.3596V318.765Z" fill="#E0E0E0"/>
<path d="M62.2995 320.011H59.5014V318.19C59.5014 317.565 59.253 316.965 58.8109 316.523C58.3688 316.081 57.7692 315.833 57.144 315.833C56.5188 315.833 55.9192 316.081 55.4772 316.523C55.0351 316.965 54.7868 317.565 54.7868 318.19V320.011H52.0078V318.19C52.0878 316.88 52.6648 315.649 53.6211 314.749C54.5773 313.85 55.8407 313.349 57.1536 313.349C58.4665 313.349 59.73 313.85 60.6862 314.749C61.6424 315.649 62.2194 316.88 62.2995 318.19V320.011Z" fill="#E0E0E0"/>
<path d="M71.171 209.161V226.134H69.1813L59.012 213.484V226.134H56.5557V209.161H58.5453L68.7146 221.811V209.161H71.171Z" fill="#263238"/>
<path d="M75.5175 209.308C75.5175 208.891 75.6831 208.492 75.978 208.197C76.2728 207.902 76.6726 207.736 77.0896 207.736C77.5065 207.736 77.9063 207.902 78.2012 208.197C78.496 208.492 78.6616 208.891 78.6616 209.308C78.665 209.515 78.6266 209.719 78.5485 209.91C78.4704 210.101 78.3542 210.274 78.2072 210.419C78.0602 210.564 77.8854 210.677 77.6932 210.752C77.5011 210.827 77.2957 210.863 77.0896 210.856C76.8825 210.866 76.6755 210.833 76.4817 210.76C76.2879 210.686 76.1116 210.573 75.9639 210.427C75.8161 210.282 75.7001 210.107 75.6233 209.915C75.5465 209.722 75.5104 209.516 75.5175 209.308ZM75.9351 213.288H78.244V226.134H75.9351V213.288Z" fill="#263238"/>
<path d="M81.4887 219.699C81.4701 218.812 81.6354 217.932 81.9743 217.113C82.3132 216.293 82.8183 215.553 83.4577 214.939C84.0972 214.325 84.857 213.851 85.6892 213.545C86.5214 213.24 87.4079 213.11 88.2928 213.165C89.3306 213.099 90.3668 213.318 91.289 213.798C92.2113 214.279 92.9845 215.003 93.5248 215.891L91.7562 217.046C91.3851 216.462 90.8682 215.985 90.2565 215.662C89.6449 215.339 88.9595 215.181 88.2682 215.204C87.0695 215.204 85.9199 215.68 85.0723 216.527C84.2247 217.375 83.7485 218.524 83.7485 219.723C83.7485 220.922 84.2247 222.071 85.0723 222.919C85.9199 223.767 87.0695 224.243 88.2682 224.243C88.9587 224.261 89.6423 224.1 90.2531 223.778C90.8639 223.455 91.3816 222.981 91.7562 222.401L93.5248 223.506C92.9888 224.402 92.2179 225.134 91.2957 225.623C90.3735 226.112 89.3351 226.34 88.2928 226.282C87.4055 226.329 86.5179 226.193 85.6856 225.882C84.8533 225.571 84.0942 225.091 83.4556 224.473C82.817 223.856 82.3127 223.113 81.9743 222.291C81.6358 221.47 81.4706 220.587 81.4887 219.699Z" fill="#263238"/>
<path d="M101.362 220.141L98.6841 222.597V226.11H96.3506V208.105H98.6841V219.65L105.709 213.263H108.51L103.106 218.569L109.05 226.11H106.176L101.362 220.141Z" fill="#263238"/>
<path d="M123.223 218.741V226.11H121.528V218.888C121.608 218.355 121.566 217.811 121.405 217.297C121.245 216.783 120.97 216.312 120.601 215.92C120.232 215.527 119.779 215.223 119.276 215.031C118.773 214.839 118.232 214.764 117.696 214.81C117.087 214.768 116.477 214.859 115.907 215.077C115.337 215.295 114.822 215.634 114.396 216.071C113.971 216.508 113.646 217.033 113.443 217.608C113.241 218.184 113.167 218.797 113.225 219.404V226.11H111.506V213.361H113.152V215.695C113.674 214.882 114.406 214.225 115.271 213.792C116.135 213.36 117.1 213.169 118.064 213.238C118.782 213.197 119.501 213.314 120.169 213.581C120.837 213.848 121.438 214.258 121.93 214.783C122.422 215.308 122.793 215.934 123.016 216.618C123.24 217.302 123.31 218.027 123.223 218.741Z" fill="#263238"/>
<path d="M137.516 218.225V226.134H135.87V224.145C135.398 224.856 134.743 225.428 133.973 225.8C133.204 226.171 132.349 226.329 131.498 226.257C128.6 226.257 126.831 224.759 126.831 222.548C126.831 220.337 128.084 218.937 131.744 218.937H135.797V218.151C135.797 215.965 134.568 214.786 132.186 214.786C130.638 214.772 129.134 215.302 127.936 216.284L127.175 215.007C128.647 213.842 130.482 213.234 132.358 213.288C133.039 213.187 133.735 213.243 134.391 213.452C135.048 213.661 135.648 214.017 136.146 214.493C136.643 214.97 137.026 215.554 137.263 216.2C137.501 216.847 137.587 217.54 137.516 218.225ZM135.797 222.302V220.215H131.793C129.336 220.215 128.526 221.197 128.526 222.499C128.526 223.801 129.73 224.955 131.744 224.955C132.614 225.004 133.477 224.773 134.207 224.296C134.936 223.818 135.493 223.12 135.797 222.302Z" fill="#263238"/>
<path d="M163.283 218.74V226.11H161.564V218.888C161.564 216.186 160.188 214.81 157.904 214.81C157.307 214.781 156.711 214.882 156.157 215.107C155.604 215.332 155.106 215.676 154.699 216.113C154.292 216.551 153.985 217.072 153.8 217.64C153.616 218.209 153.558 218.81 153.63 219.404V226.11H151.91V218.888C151.91 216.186 150.535 214.81 148.226 214.81C147.629 214.781 147.033 214.882 146.479 215.107C145.926 215.332 145.428 215.676 145.021 216.113C144.614 216.551 144.307 217.072 144.122 217.64C143.938 218.209 143.88 218.81 143.952 219.404V226.11H142.232V213.361H143.878V215.67C144.361 214.877 145.05 214.229 145.872 213.797C146.694 213.364 147.618 213.163 148.545 213.214C149.487 213.135 150.429 213.351 151.243 213.83C152.057 214.31 152.702 215.03 153.089 215.891C153.612 215.029 154.359 214.325 155.25 213.853C156.141 213.382 157.143 213.161 158.15 213.214C158.868 213.176 159.586 213.296 160.253 213.566C160.92 213.836 161.52 214.249 162.009 214.776C162.499 215.303 162.867 215.932 163.087 216.617C163.307 217.302 163.374 218.027 163.283 218.74Z" fill="#263238"/>
<path d="M179.08 220.288H168.42C168.49 221.526 169.044 222.687 169.964 223.519C170.883 224.351 172.093 224.788 173.332 224.734C174.066 224.756 174.795 224.617 175.469 224.329C176.143 224.04 176.747 223.609 177.238 223.064L178.196 224.169C177.281 225.128 176.103 225.794 174.811 226.086C173.518 226.378 172.168 226.282 170.93 225.81C169.692 225.338 168.621 224.51 167.851 223.432C167.081 222.354 166.647 221.072 166.602 219.748C166.549 218.901 166.67 218.051 166.957 217.252C167.245 216.454 167.693 215.722 168.274 215.103C168.855 214.484 169.557 213.991 170.336 213.654C171.115 213.317 171.955 213.143 172.804 213.143C173.653 213.143 174.493 213.317 175.272 213.654C176.052 213.991 176.753 214.484 177.335 215.103C177.916 215.722 178.364 216.454 178.651 217.252C178.939 218.051 179.06 218.901 179.007 219.748C179.105 219.994 179.08 219.994 179.08 220.288ZM168.42 219.011H177.459C177.459 217.812 176.983 216.663 176.135 215.815C175.288 214.967 174.138 214.491 172.939 214.491C171.741 214.491 170.591 214.967 169.744 215.815C168.896 216.663 168.42 217.812 168.42 219.011Z" fill="#263238"/>
<path d="M90.5409 389.639V391.382H92.8214V391.788H90.5409V393.663H90.0752V389.233H93.108V389.639H90.5409Z" fill="#616161"/>
<path d="M93.5134 391.991C93.5067 391.767 93.5461 391.544 93.6291 391.336C93.7121 391.128 93.8369 390.94 93.9959 390.782C94.1549 390.624 94.3446 390.5 94.5532 390.419C94.7619 390.337 94.9851 390.299 95.2089 390.308C95.6325 390.343 96.0272 390.537 96.3149 390.85C96.6026 391.163 96.7623 391.572 96.7623 391.997C96.7623 392.422 96.6026 392.832 96.3149 393.145C96.0272 393.458 95.6325 393.651 95.2089 393.687C94.9845 393.693 94.761 393.654 94.5524 393.571C94.3437 393.488 94.1541 393.364 93.9953 393.205C93.8365 393.046 93.7119 392.857 93.629 392.648C93.5462 392.439 93.5068 392.216 93.5134 391.991ZM96.4388 391.991C96.4388 391.664 96.3085 391.349 96.0768 391.117C95.845 390.886 95.5307 390.756 95.203 390.756C94.8752 390.756 94.5609 390.886 94.3291 391.117C94.0974 391.349 93.9672 391.664 93.9672 391.991C93.9672 392.319 94.0974 392.633 94.3291 392.865C94.5609 393.097 94.8752 393.227 95.203 393.227C95.5307 393.227 95.845 393.097 96.0768 392.865C96.3085 392.633 96.4388 392.319 96.4388 391.991Z" fill="#616161"/>
<path d="M99.4831 390.308V390.75H99.3757C98.6831 390.75 98.2653 391.191 98.2653 391.944V393.639H97.8115V390.308H98.2414V391.024C98.3517 390.793 98.5294 390.601 98.751 390.473C98.9727 390.345 99.228 390.288 99.4831 390.308Z" fill="#616161"/>
<path d="M103.341 390.332V393.257C103.376 393.483 103.356 393.714 103.285 393.931C103.214 394.148 103.093 394.345 102.931 394.507C102.77 394.668 102.572 394.789 102.355 394.861C102.138 394.932 101.907 394.951 101.681 394.917C101.119 394.942 100.566 394.759 100.129 394.403L100.356 394.069C100.728 394.368 101.192 394.529 101.67 394.523C102.517 394.523 102.864 394.129 102.864 393.329V392.899C102.719 393.108 102.524 393.277 102.297 393.39C102.069 393.503 101.816 393.556 101.562 393.544C101.135 393.544 100.725 393.374 100.422 393.071C100.12 392.769 99.9502 392.359 99.9502 391.932C99.9502 391.504 100.12 391.094 100.422 390.792C100.725 390.49 101.135 390.32 101.562 390.32C101.82 390.307 102.077 390.362 102.308 390.479C102.538 390.596 102.734 390.772 102.875 390.988V390.344L103.341 390.332ZM102.911 391.92C102.926 391.667 102.864 391.415 102.734 391.198C102.604 390.981 102.411 390.807 102.182 390.701C101.952 390.594 101.696 390.558 101.446 390.599C101.196 390.639 100.963 390.754 100.779 390.927C100.595 391.101 100.467 391.326 100.412 391.574C100.357 391.821 100.378 392.079 100.471 392.314C100.564 392.55 100.726 392.752 100.936 392.894C101.145 393.037 101.392 393.113 101.646 393.114C101.808 393.123 101.971 393.1 102.125 393.044C102.278 392.989 102.418 392.902 102.537 392.79C102.655 392.678 102.75 392.544 102.814 392.394C102.878 392.244 102.912 392.083 102.911 391.92Z" fill="#616161"/>
<path d="M104.26 391.991C104.26 391.656 104.359 391.328 104.546 391.049C104.732 390.771 104.997 390.553 105.307 390.425C105.616 390.297 105.957 390.263 106.286 390.328C106.615 390.394 106.917 390.555 107.154 390.792C107.391 391.03 107.553 391.332 107.618 391.661C107.684 391.989 107.65 392.33 107.522 392.64C107.394 392.95 107.176 393.215 106.897 393.401C106.619 393.587 106.291 393.687 105.955 393.687C105.731 393.695 105.506 393.657 105.297 393.575C105.087 393.493 104.897 393.368 104.738 393.209C104.579 393.05 104.454 392.859 104.372 392.65C104.29 392.441 104.252 392.216 104.26 391.991ZM107.197 391.991C107.176 391.761 107.089 391.542 106.946 391.36C106.803 391.178 106.61 391.042 106.391 390.968C106.171 390.894 105.935 390.885 105.711 390.942C105.487 391 105.285 391.121 105.128 391.292C104.972 391.462 104.868 391.674 104.83 391.903C104.792 392.131 104.821 392.365 104.914 392.577C105.007 392.789 105.159 392.97 105.352 393.097C105.546 393.224 105.772 393.292 106.003 393.293C106.174 393.302 106.346 393.274 106.505 393.212C106.665 393.149 106.809 393.052 106.928 392.929C107.047 392.805 107.138 392.658 107.194 392.496C107.251 392.334 107.273 392.162 107.257 391.991H107.197Z" fill="#616161"/>
<path d="M110.313 393.412C110.111 393.568 109.862 393.648 109.608 393.639C109.477 393.654 109.345 393.64 109.221 393.597C109.096 393.554 108.983 393.483 108.89 393.39C108.797 393.297 108.726 393.184 108.683 393.06C108.64 392.935 108.626 392.803 108.641 392.672V390.666H108.044V390.284H108.641V389.556H109.083V390.284H110.098V390.666H109.083V392.648C109.071 392.729 109.079 392.811 109.104 392.888C109.129 392.965 109.171 393.036 109.227 393.095C109.284 393.153 109.353 393.198 109.429 393.226C109.505 393.255 109.587 393.265 109.668 393.257C109.845 393.258 110.018 393.199 110.157 393.09L110.313 393.412Z" fill="#616161"/>
<path d="M116.151 391.991C116.165 392.214 116.132 392.436 116.054 392.645C115.977 392.853 115.857 393.043 115.702 393.203C115.547 393.362 115.36 393.488 115.154 393.571C114.947 393.655 114.726 393.694 114.504 393.687C114.254 393.696 114.006 393.641 113.784 393.526C113.562 393.41 113.374 393.24 113.238 393.03V394.881H112.784V390.332H113.226V391.024C113.363 390.808 113.554 390.632 113.78 390.513C114.006 390.393 114.26 390.335 114.515 390.344C114.733 390.339 114.949 390.378 115.15 390.459C115.352 390.54 115.534 390.662 115.687 390.816C115.841 390.97 115.961 391.154 116.04 391.356C116.12 391.558 116.158 391.774 116.151 391.991ZM115.709 391.991C115.689 391.761 115.601 391.542 115.458 391.36C115.315 391.178 115.122 391.042 114.903 390.968C114.684 390.894 114.448 390.885 114.224 390.942C113.999 391 113.797 391.121 113.641 391.292C113.484 391.462 113.381 391.674 113.343 391.903C113.305 392.131 113.334 392.365 113.426 392.577C113.519 392.789 113.671 392.97 113.865 393.097C114.058 393.224 114.284 393.292 114.515 393.293C114.682 393.294 114.846 393.26 114.999 393.193C115.151 393.126 115.288 393.029 115.4 392.906C115.513 392.784 115.598 392.639 115.651 392.481C115.705 392.324 115.724 392.157 115.709 391.991Z" fill="#616161"/>
<path d="M119.566 391.597V393.663H119.196V393.137C119.072 393.336 118.893 393.494 118.681 393.591C118.469 393.689 118.233 393.722 118.002 393.687C117.249 393.687 116.808 393.305 116.808 392.72C116.808 392.135 117.142 391.788 118.097 391.788H119.148V391.585C119.148 391.012 118.826 390.702 118.205 390.702C117.8 390.698 117.406 390.838 117.094 391.096L116.891 390.761C117.279 390.457 117.76 390.297 118.252 390.308C118.427 390.289 118.604 390.31 118.77 390.368C118.936 390.426 119.087 390.52 119.213 390.643C119.338 390.766 119.435 390.916 119.496 391.081C119.557 391.246 119.581 391.422 119.566 391.597ZM119.112 392.66V392.123H118.073C117.429 392.123 117.214 392.373 117.214 392.708C117.214 393.042 117.524 393.34 118.061 393.34C118.286 393.353 118.509 393.294 118.698 393.171C118.886 393.049 119.032 392.87 119.112 392.66Z" fill="#616161"/>
<path d="M120.319 393.281L120.522 392.923C120.868 393.177 121.287 393.311 121.716 393.305C122.349 393.305 122.612 393.09 122.612 392.756C122.612 391.884 120.451 392.576 120.451 391.263C120.451 390.714 120.916 390.308 121.764 390.308C122.183 390.3 122.596 390.407 122.958 390.618L122.755 390.976C122.466 390.782 122.124 390.682 121.776 390.69C121.179 390.69 120.916 390.929 120.916 391.239C120.916 392.147 123.065 391.466 123.065 392.744C123.065 393.317 122.564 393.687 121.692 393.687C121.202 393.71 120.718 393.567 120.319 393.281Z" fill="#616161"/>
<path d="M123.411 393.281L123.614 392.923C123.96 393.177 124.379 393.311 124.808 393.305C125.441 393.305 125.704 393.09 125.704 392.756C125.704 391.884 123.542 392.576 123.542 391.263C123.542 390.714 124.008 390.308 124.856 390.308C125.275 390.3 125.688 390.407 126.05 390.618L125.847 390.976C125.558 390.782 125.216 390.682 124.868 390.69C124.271 390.69 124.008 390.929 124.008 391.239C124.008 392.147 126.157 391.466 126.157 392.744C126.157 393.317 125.656 393.687 124.784 393.687C124.294 393.71 123.81 393.567 123.411 393.281Z" fill="#616161"/>
<path d="M131.781 390.332L130.515 393.663H130.098L129.047 390.941L127.996 393.663H127.554L126.36 390.332H126.79L127.829 393.162L128.904 390.332H129.286L130.348 393.162L131.399 390.332H131.781Z" fill="#616161"/>
<path d="M132.02 391.991C132.02 391.656 132.119 391.328 132.305 391.049C132.492 390.771 132.757 390.553 133.066 390.425C133.376 390.297 133.717 390.263 134.046 390.328C134.375 390.394 134.677 390.555 134.914 390.792C135.151 391.03 135.313 391.332 135.378 391.661C135.443 391.989 135.41 392.33 135.282 392.64C135.153 392.95 134.936 393.215 134.657 393.401C134.378 393.587 134.05 393.687 133.715 393.687C133.49 393.695 133.266 393.657 133.057 393.575C132.847 393.493 132.657 393.368 132.498 393.209C132.339 393.05 132.214 392.859 132.132 392.65C132.049 392.441 132.011 392.216 132.02 391.991ZM134.945 391.991C134.958 391.827 134.937 391.661 134.883 391.505C134.829 391.349 134.743 391.206 134.631 391.085C134.519 390.963 134.383 390.867 134.231 390.801C134.08 390.735 133.916 390.701 133.751 390.702C133.429 390.733 133.13 390.883 132.912 391.122C132.695 391.362 132.574 391.674 132.574 391.997C132.574 392.321 132.695 392.633 132.912 392.872C133.13 393.112 133.429 393.262 133.751 393.293C133.917 393.294 134.082 393.259 134.234 393.193C134.386 393.126 134.523 393.029 134.636 392.906C134.748 392.784 134.834 392.639 134.887 392.481C134.94 392.324 134.96 392.157 134.945 391.991Z" fill="#616161"/>
<path d="M138.001 390.308V390.75H137.893C137.738 390.742 137.582 390.768 137.438 390.826C137.293 390.884 137.163 390.973 137.056 391.087C136.949 391.2 136.868 391.336 136.819 391.484C136.77 391.632 136.754 391.789 136.771 391.944V393.639H136.317V390.308H136.747V391.024C136.858 390.791 137.038 390.598 137.262 390.47C137.486 390.342 137.744 390.285 138.001 390.308Z" fill="#616161"/>
<path d="M141.811 388.97V393.663H141.381V393.006C141.244 393.222 141.053 393.398 140.827 393.518C140.6 393.637 140.347 393.695 140.091 393.687C139.668 393.651 139.273 393.458 138.985 393.145C138.698 392.832 138.538 392.422 138.538 391.997C138.538 391.572 138.698 391.163 138.985 390.85C139.273 390.537 139.668 390.343 140.091 390.308C140.341 390.298 140.589 390.354 140.811 390.469C141.033 390.584 141.221 390.755 141.357 390.964V388.97H141.811ZM141.369 391.991C141.348 391.761 141.261 391.541 141.118 391.36C140.974 391.178 140.782 391.042 140.562 390.968C140.343 390.894 140.107 390.885 139.883 390.942C139.659 391 139.456 391.121 139.3 391.292C139.144 391.462 139.04 391.674 139.002 391.903C138.964 392.131 138.993 392.365 139.086 392.577C139.179 392.789 139.331 392.97 139.524 393.097C139.718 393.224 139.944 393.292 140.175 393.293C140.341 393.293 140.506 393.259 140.658 393.193C140.81 393.126 140.947 393.028 141.06 392.906C141.172 392.783 141.258 392.639 141.311 392.481C141.364 392.324 141.384 392.157 141.369 391.991Z" fill="#616161"/>
<path d="M145.072 390.367C145.072 389.914 144.701 389.591 144.057 389.591C143.832 389.579 143.607 389.62 143.4 389.709C143.193 389.798 143.009 389.933 142.863 390.105L142.528 389.854C142.724 389.632 142.967 389.457 143.241 389.344C143.514 389.23 143.809 389.18 144.104 389.197C144.988 389.197 145.561 389.615 145.561 390.296C145.561 391.382 144.367 391.43 144.367 392.337H143.901C143.925 391.287 145.072 391.191 145.072 390.367ZM143.878 393.364C143.875 393.297 143.893 393.231 143.929 393.174C143.965 393.117 144.017 393.073 144.078 393.046C144.14 393.019 144.208 393.012 144.274 393.024C144.34 393.037 144.401 393.069 144.448 393.116C144.496 393.164 144.528 393.224 144.54 393.29C144.553 393.356 144.545 393.424 144.518 393.486C144.491 393.548 144.447 393.6 144.39 393.635C144.333 393.671 144.267 393.689 144.2 393.687C144.158 393.693 144.114 393.692 144.072 393.681C144.031 393.671 143.992 393.653 143.957 393.627C143.923 393.602 143.894 393.569 143.872 393.533C143.85 393.496 143.836 393.455 143.83 393.412L143.878 393.364Z" fill="#616161"/>
<path d="M108.104 403.37L108.319 402.928C108.697 403.226 109.164 403.386 109.645 403.382C110.337 403.382 110.636 403.119 110.636 402.773C110.636 401.794 108.248 402.415 108.248 400.922C108.248 400.302 108.725 399.728 109.776 399.728C110.231 399.723 110.679 399.847 111.066 400.087L110.839 400.576C110.509 400.37 110.129 400.259 109.74 400.254C109.06 400.254 108.761 400.54 108.761 400.887C108.761 401.866 111.149 401.257 111.149 402.725C111.149 403.334 110.648 403.86 109.597 403.86C109.059 403.87 108.533 403.697 108.104 403.37Z" fill="#616161"/>
<path d="M111.853 399.86C111.853 399.762 111.892 399.668 111.961 399.598C112.031 399.529 112.125 399.49 112.223 399.49C112.321 399.49 112.415 399.529 112.485 399.598C112.554 399.668 112.593 399.762 112.593 399.86C112.593 399.958 112.554 400.052 112.485 400.122C112.415 400.191 112.321 400.23 112.223 400.23C112.174 400.232 112.125 400.223 112.079 400.205C112.034 400.187 111.992 400.16 111.957 400.125C111.923 400.091 111.896 400.049 111.878 400.003C111.86 399.958 111.851 399.909 111.853 399.86ZM111.948 400.791H112.498V403.824H111.948V400.791Z" fill="#616161"/>
<path d="M116.451 400.791V403.418C116.481 403.631 116.462 403.848 116.393 404.052C116.324 404.256 116.209 404.441 116.055 404.593C115.902 404.744 115.715 404.857 115.51 404.922C115.305 404.988 115.087 405.004 114.875 404.97C114.355 404.991 113.844 404.83 113.43 404.516L113.693 404.098C114.033 404.364 114.455 404.503 114.887 404.492C115.603 404.492 115.925 404.158 115.925 403.478V403.239C115.789 403.391 115.621 403.512 115.434 403.592C115.246 403.673 115.043 403.711 114.839 403.704C114.449 403.704 114.076 403.55 113.8 403.274C113.525 402.999 113.37 402.625 113.37 402.236C113.37 401.846 113.525 401.473 113.8 401.197C114.076 400.922 114.449 400.767 114.839 400.767C115.05 400.759 115.26 400.8 115.453 400.887C115.646 400.974 115.816 401.105 115.949 401.269V400.791H116.451ZM115.913 402.236C115.917 402.101 115.892 401.966 115.841 401.841C115.789 401.716 115.712 401.603 115.614 401.509C115.516 401.416 115.4 401.344 115.272 401.299C115.145 401.253 115.01 401.235 114.875 401.245C114.681 401.254 114.494 401.32 114.338 401.435C114.181 401.549 114.061 401.707 113.994 401.888C113.926 402.07 113.913 402.268 113.957 402.457C114 402.646 114.098 402.818 114.238 402.952C114.379 403.086 114.555 403.175 114.746 403.21C114.937 403.244 115.133 403.222 115.312 403.146C115.49 403.07 115.642 402.943 115.749 402.781C115.856 402.619 115.913 402.43 115.913 402.236Z" fill="#616161"/>
<path d="M120.39 402.081V403.824H119.841V402.152C119.841 401.555 119.542 401.257 119.029 401.257C118.895 401.247 118.761 401.267 118.636 401.315C118.511 401.363 118.398 401.439 118.306 401.536C118.213 401.633 118.143 401.749 118.101 401.876C118.059 402.004 118.046 402.139 118.062 402.272V403.824H117.513V400.791H118.002V401.257C118.132 401.093 118.3 400.963 118.492 400.878C118.683 400.792 118.892 400.755 119.101 400.767C119.276 400.752 119.452 400.776 119.617 400.837C119.782 400.898 119.931 400.995 120.055 401.12C120.178 401.246 120.272 401.397 120.33 401.563C120.388 401.729 120.408 401.906 120.39 402.081Z" fill="#616161"/>
<path d="M125.775 400.791V403.824H125.25V403.37C125.133 403.531 124.978 403.659 124.799 403.745C124.619 403.83 124.421 403.87 124.223 403.86C124.047 403.876 123.869 403.854 123.703 403.794C123.536 403.734 123.385 403.637 123.261 403.511C123.136 403.386 123.041 403.234 122.983 403.067C122.924 402.9 122.903 402.722 122.922 402.546V400.791H123.471V402.475C123.471 403.072 123.757 403.37 124.283 403.37C124.414 403.378 124.545 403.357 124.667 403.309C124.79 403.26 124.899 403.185 124.99 403.09C125.08 402.994 125.147 402.88 125.188 402.755C125.229 402.63 125.242 402.498 125.226 402.367V400.791H125.775Z" fill="#616161"/>
<path d="M129.942 402.307C129.954 402.513 129.922 402.72 129.849 402.913C129.776 403.106 129.664 403.281 129.518 403.427C129.373 403.574 129.198 403.688 129.006 403.762C128.814 403.837 128.608 403.87 128.402 403.86C128.201 403.866 128.001 403.825 127.818 403.74C127.636 403.655 127.476 403.528 127.351 403.37V404.934H126.802V400.791H127.327V401.281C127.45 401.113 127.612 400.978 127.8 400.888C127.987 400.799 128.194 400.757 128.402 400.767C128.607 400.757 128.812 400.79 129.003 400.864C129.195 400.937 129.369 401.05 129.514 401.196C129.659 401.341 129.772 401.515 129.846 401.706C129.919 401.898 129.952 402.103 129.942 402.307ZM129.381 402.307C129.371 402.106 129.303 401.912 129.184 401.749C129.065 401.587 128.901 401.463 128.712 401.393C128.523 401.322 128.318 401.31 128.122 401.355C127.925 401.401 127.747 401.504 127.609 401.65C127.47 401.797 127.378 401.981 127.343 402.179C127.309 402.378 127.334 402.582 127.414 402.767C127.495 402.951 127.628 403.108 127.797 403.218C127.967 403.327 128.164 403.384 128.366 403.382C128.507 403.387 128.647 403.363 128.778 403.311C128.909 403.258 129.027 403.178 129.125 403.077C129.223 402.976 129.299 402.855 129.347 402.722C129.395 402.589 129.415 402.448 129.405 402.307H129.381Z" fill="#616161"/>
<path d="M147.206 376.221H88.4307C86.8609 376.221 85.3064 375.912 83.8562 375.311C82.406 374.71 81.0885 373.828 79.9791 372.718C78.8697 371.607 77.99 370.288 77.3906 368.837C76.7911 367.387 76.4835 365.832 76.4854 364.262C76.4854 361.094 77.7439 358.055 79.9841 355.815C82.2243 353.575 85.2626 352.316 88.4307 352.316H147.206C150.373 352.32 153.409 353.58 155.649 355.819C157.888 358.059 159.148 361.095 159.151 364.262C159.151 367.431 157.893 370.471 155.654 372.713C153.414 374.956 150.375 376.218 147.206 376.221Z" fill="#B0BEC5"/>
<path d="M102.717 366.169L103.12 365.271C103.698 365.713 104.406 365.952 105.134 365.949C106.086 365.949 106.489 365.619 106.489 365.162C106.489 363.825 102.827 364.704 102.827 362.415C102.827 361.426 103.614 360.584 105.298 360.584C106.02 360.573 106.73 360.763 107.349 361.133L106.983 362.012C106.471 361.714 105.891 361.55 105.298 361.536C104.346 361.536 103.962 361.902 103.962 362.36C103.962 363.679 107.624 362.818 107.624 365.088C107.624 366.059 106.818 366.919 105.134 366.919C104.268 366.941 103.418 366.677 102.717 366.169Z" fill="white"/>
<path d="M108.503 360.694C108.53 360.527 108.616 360.374 108.745 360.264C108.874 360.154 109.039 360.094 109.208 360.094C109.378 360.094 109.542 360.154 109.671 360.264C109.8 360.374 109.886 360.527 109.913 360.694C109.913 360.786 109.895 360.877 109.858 360.962C109.822 361.047 109.769 361.123 109.702 361.187C109.635 361.25 109.556 361.299 109.469 361.331C109.383 361.363 109.291 361.377 109.199 361.372C109.108 361.377 109.017 361.363 108.931 361.331C108.846 361.299 108.768 361.249 108.702 361.186C108.637 361.122 108.585 361.045 108.551 360.961C108.517 360.876 108.501 360.785 108.503 360.694ZM108.65 362.122H109.748V366.81H108.65V362.122Z" fill="white"/>
<path d="M115.844 362.177V366.169C115.888 366.508 115.852 366.854 115.739 367.177C115.627 367.501 115.441 367.794 115.196 368.033C114.951 368.273 114.654 368.452 114.328 368.558C114.002 368.663 113.656 368.691 113.317 368.64C112.501 368.668 111.698 368.431 111.029 367.963L111.523 367.139C112.024 367.516 112.636 367.716 113.262 367.707C114.288 367.707 114.746 367.23 114.746 366.278V366.04C114.543 366.25 114.297 366.414 114.025 366.522C113.754 366.629 113.463 366.677 113.171 366.663C112.864 366.681 112.556 366.635 112.268 366.528C111.979 366.421 111.716 366.256 111.494 366.043C111.273 365.83 111.097 365.573 110.979 365.289C110.861 365.005 110.803 364.7 110.809 364.392C110.803 364.086 110.861 363.781 110.979 363.498C111.097 363.215 111.273 362.959 111.495 362.748C111.717 362.536 111.981 362.373 112.269 362.268C112.558 362.163 112.865 362.12 113.171 362.14C113.474 362.123 113.778 362.172 114.06 362.286C114.342 362.4 114.595 362.576 114.801 362.8V362.177H115.844ZM114.764 364.392C114.782 364.107 114.714 363.822 114.569 363.576C114.424 363.329 114.207 363.132 113.949 363.01C113.69 362.887 113.4 362.846 113.117 362.89C112.835 362.934 112.572 363.063 112.363 363.258C112.154 363.454 112.008 363.708 111.945 363.987C111.882 364.266 111.905 364.558 112.01 364.824C112.115 365.09 112.297 365.319 112.534 365.481C112.77 365.642 113.049 365.729 113.336 365.729C113.523 365.742 113.712 365.715 113.889 365.651C114.065 365.586 114.226 365.484 114.361 365.353C114.496 365.222 114.602 365.063 114.671 364.888C114.74 364.713 114.772 364.526 114.764 364.338V364.392Z" fill="white"/>
<path d="M121.905 364.136V366.809H120.806V364.264C120.806 363.44 120.385 363.037 119.689 363.037C119.506 363.028 119.323 363.058 119.154 363.127C118.984 363.196 118.832 363.302 118.708 363.437C118.584 363.571 118.491 363.732 118.436 363.906C118.38 364.081 118.365 364.266 118.389 364.447V366.809H117.254V362.177H118.298V362.799C118.499 362.575 118.748 362.399 119.028 362.285C119.307 362.171 119.608 362.121 119.909 362.14C120.177 362.115 120.448 362.149 120.702 362.24C120.955 362.331 121.186 362.478 121.377 362.668C121.567 362.859 121.713 363.089 121.805 363.343C121.896 363.597 121.93 363.868 121.905 364.136Z" fill="white"/>
<path d="M125.583 360.694C125.61 360.527 125.696 360.374 125.825 360.264C125.955 360.154 126.119 360.094 126.288 360.094C126.458 360.094 126.622 360.154 126.751 360.264C126.88 360.374 126.966 360.527 126.993 360.694C126.993 360.786 126.975 360.877 126.938 360.962C126.902 361.047 126.849 361.123 126.782 361.187C126.715 361.25 126.636 361.299 126.55 361.331C126.463 361.363 126.371 361.377 126.279 361.372C126.188 361.377 126.097 361.363 126.011 361.331C125.926 361.299 125.848 361.249 125.782 361.186C125.717 361.122 125.665 361.045 125.631 360.961C125.597 360.876 125.581 360.785 125.583 360.694ZM125.73 362.122H126.828V366.81H125.73V362.122Z" fill="white"/>
<path d="M132.89 364.136V366.809H131.791V364.264C131.791 363.44 131.37 363.037 130.674 363.037C130.49 363.025 130.305 363.054 130.133 363.121C129.961 363.189 129.807 363.294 129.68 363.429C129.554 363.564 129.46 363.726 129.404 363.902C129.347 364.078 129.331 364.264 129.356 364.447V366.809H128.239V362.177H129.283V362.799C129.483 362.574 129.733 362.397 130.012 362.283C130.291 362.169 130.593 362.12 130.894 362.14C131.163 362.115 131.433 362.149 131.687 362.24C131.941 362.331 132.171 362.478 132.362 362.668C132.553 362.859 132.699 363.089 132.79 363.343C132.881 363.597 132.916 363.868 132.89 364.136Z" fill="white"/>
<path d="M151.069 142.227C157.953 123.863 148.647 103.396 130.284 96.5122C111.92 89.6281 91.4533 98.934 84.5692 117.297C77.6851 135.661 86.991 156.128 105.354 163.012C123.718 169.896 144.185 160.59 151.069 142.227Z" fill="#B0BEC5"/>
<path d="M129.931 143.167L105.574 143.727L105.506 140.736C105.468 139.137 105.746 137.546 106.323 136.054C106.9 134.562 107.765 133.199 108.87 132.041C109.974 130.884 111.295 129.956 112.758 129.309C114.221 128.663 115.798 128.311 117.397 128.273C120.628 128.2 123.756 129.412 126.094 131.644C128.431 133.876 129.787 136.945 129.862 140.176L129.931 143.167Z" fill="white"/>
<path d="M124.41 121.804C124.445 123.22 124.058 124.616 123.299 125.813C122.54 127.01 121.443 127.955 120.147 128.528C118.851 129.102 117.414 129.278 116.018 129.035C114.622 128.791 113.329 128.139 112.304 127.161C111.278 126.182 110.566 124.922 110.257 123.539C109.948 122.156 110.056 120.712 110.568 119.39C111.08 118.069 111.972 116.928 113.132 116.114C114.292 115.299 115.667 114.847 117.084 114.815C118.982 114.771 120.82 115.483 122.193 116.793C123.567 118.104 124.364 119.906 124.41 121.804Z" fill="white"/>
<path d="M211.107 40.7652C211.107 40.8488 208.218 40.9324 204.66 40.9562C201.101 40.9801 198.212 40.9563 198.212 40.8727C198.212 40.7891 201.101 40.7174 204.66 40.6816C208.218 40.6458 211.107 40.6936 211.107 40.7652Z" fill="#0F0F0F"/>
<path d="M211.131 44.0723C211.131 44.144 208.253 44.2276 204.683 44.2634C201.113 44.2992 198.235 44.2634 198.235 44.1798C198.235 44.0962 201.125 44.0126 204.683 43.9888C208.241 43.9649 211.131 43.9888 211.131 44.0723Z" fill="#0F0F0F"/>
<path d="M211.168 47.3677C211.168 47.4394 208.278 47.5229 204.72 47.5588C201.162 47.5946 198.261 47.5588 198.261 47.4752C198.261 47.3916 201.15 47.32 204.72 47.2842C208.29 47.2483 211.168 47.2961 211.168 47.3677Z" fill="#0F0F0F"/>
<path d="M30.8447 49.389C30.932 49.3793 31.0201 49.3793 31.1074 49.389H31.8596H34.6058L34.5342 49.4606C34.5342 48.8517 34.5342 48.183 34.5342 47.4666C34.5091 47.069 34.5091 46.6702 34.5342 46.2726C34.5781 46.0523 34.6908 45.8515 34.856 45.6992C35.0212 45.5469 35.2304 45.4508 35.4536 45.4249C35.8953 45.4249 36.2894 45.4249 36.767 45.4249C37.0201 45.4647 37.2506 45.5937 37.417 45.7886C37.5834 45.9834 37.6747 46.2313 37.6744 46.4875C37.6744 47.4189 37.6744 48.386 37.6744 49.4009L37.5431 49.2696H41.0176L40.8863 49.4128C40.8863 48.0039 40.8863 46.5592 40.8863 45.0786V43.9801C40.8706 43.8152 40.8185 43.6558 40.7339 43.5133C40.6492 43.3709 40.5341 43.249 40.3967 43.1563L38.8804 41.6638L37.4117 40.2071L36.6953 39.5146C36.5135 39.27 36.2646 39.0834 35.9789 38.9773C35.8424 38.9426 35.6999 38.9385 35.5616 38.9653C35.4233 38.9921 35.2926 39.0492 35.179 39.1325C34.976 39.2997 34.7491 39.5623 34.5342 39.7653L33.3402 40.9593C32.5521 41.7712 31.7402 42.5235 31.1432 43.2279C30.9699 43.6342 30.9081 44.0793 30.9641 44.5174V45.7114C30.9641 46.4637 30.9641 47.1204 30.9641 47.6815C30.9641 48.2427 30.9641 48.6009 30.9641 48.9472C30.9641 49.2934 30.9641 49.389 30.9641 49.4009C30.946 49.2622 30.946 49.1217 30.9641 48.983C30.9641 48.6367 30.9641 48.2308 30.9641 47.789C30.9641 47.3472 30.9641 46.595 30.9641 45.795C30.9641 45.401 30.9641 44.9831 30.9641 44.601C30.9641 44.3742 30.9641 44.1473 30.9641 43.9085C30.964 43.6533 31.0298 43.4024 31.1552 43.1802C31.7999 42.4041 32.5641 41.6996 33.3521 40.8638L34.5461 39.5982C34.773 39.3713 34.9521 39.1564 35.2148 38.9295C35.3589 38.8237 35.5248 38.7517 35.7005 38.7186C35.8762 38.6855 36.057 38.6923 36.2297 38.7385C36.5539 38.8522 36.8394 39.0549 37.0536 39.3235L37.7699 40.028L39.2386 41.4727C39.74 41.9623 40.2535 42.4518 40.7669 42.9652C40.9059 43.0934 41.0337 43.2332 41.149 43.3831C41.2654 43.5561 41.3277 43.7597 41.3281 43.9682C41.3281 44.3383 41.3281 44.7085 41.3281 45.0786C41.3281 46.5592 41.3281 48.0039 41.3281 49.4009V49.5442H41.1967H37.7222H37.5908V49.4128C37.5908 48.4099 37.5908 47.4308 37.5908 46.4995C37.5937 46.2974 37.5244 46.1009 37.3952 45.9455C37.266 45.7901 37.0856 45.6859 36.8864 45.6517C36.4924 45.6517 36.0148 45.6517 35.6327 45.6517C35.4507 45.6689 35.2791 45.7445 35.1435 45.8671C35.008 45.9898 34.9157 46.1529 34.8805 46.3323C34.8805 46.6786 34.8805 47.0845 34.8805 47.4427V49.5084H30.8447V49.389Z" fill="#0F0F0F"/>
</svg>
