<svg width="60" height="81" viewBox="0 0 60 81" fill="none" xmlns="http://www.w3.org/2000/svg">
<path fill-rule="evenodd" clip-rule="evenodd" d="M10.4876 0.783447H37.2526L59.9184 24.42V70.3769C59.9184 76.1249 55.2599 80.7834 49.5119 80.7834H10.4876C4.73959 80.7834 0.0810547 76.1249 0.0810547 70.3769V11.19C0.0810547 5.44198 4.73959 0.783447 10.4876 0.783447Z" fill="#37BD8A"/>
<path fill-rule="evenodd" clip-rule="evenodd" d="M37.2217 0.783447V24.2314H59.9184L37.2217 0.783447Z" fill="white" fill-opacity="0.263"/>
<path d="M49.6269 41.3572V44.131L39.4189 47.998V45.3335L46.5673 42.7509L39.4189 40.1411V37.4902L49.6269 41.3572Z" fill="white"/>
<path d="M20.581 37.4902V40.1411L13.4464 42.7509L20.5947 45.3335V47.998L10.373 44.131V41.3572L20.581 37.4902Z" fill="white"/>
<path d="M32.6684 30.0022H35.8653L28.2779 51.5643H25.0811L32.6684 30.0022Z" fill="white"/>
</svg>
