<svg width="245" height="90" viewBox="0 0 245 90" fill="none" xmlns="http://www.w3.org/2000/svg">
<path d="M0.892578 2.6623C0.892578 3.6623 1.70258 4.4723 2.70258 4.4723C3.70258 4.4723 4.51258 3.6623 4.51258 2.6623C4.51258 1.6623 3.70258 0.852295 2.70258 0.852295C1.70258 0.852295 0.892578 1.6623 0.892578 2.6623Z" fill="#ACCBC7"/>
<path d="M20.8525 2.6623C20.8525 3.6623 21.6625 4.4723 22.6625 4.4723C23.6625 4.4723 24.4725 3.6623 24.4725 2.6623C24.4725 1.6623 23.6625 0.852295 22.6625 0.852295C21.6625 0.852295 20.8525 1.6623 20.8525 2.6623Z" fill="#ACCBC7"/>
<path d="M40.8125 2.6623C40.8125 3.6623 41.6225 4.4723 42.6225 4.4723C43.6225 4.4723 44.4325 3.6623 44.4325 2.6623C44.4325 1.6623 43.6225 0.852295 42.6225 0.852295C41.6225 0.852295 40.8125 1.6623 40.8125 2.6623Z" fill="#ACCBC7"/>
<path d="M60.7725 2.6623C60.7725 3.6623 61.5825 4.4723 62.5825 4.4723C63.5825 4.4723 64.3925 3.6623 64.3925 2.6623C64.3925 1.6623 63.5825 0.852295 62.5825 0.852295C61.5825 0.852295 60.7725 1.6623 60.7725 2.6623Z" fill="#ACCBC7"/>
<path d="M80.7324 2.6623C80.7324 3.6623 81.5424 4.4723 82.5424 4.4723C83.5424 4.4723 84.3524 3.6623 84.3524 2.6623C84.3524 1.6623 83.5424 0.852295 82.5424 0.852295C81.5424 0.852295 80.7324 1.6623 80.7324 2.6623Z" fill="#ACCBC7"/>
<path d="M100.692 2.6623C100.692 3.6623 101.502 4.4723 102.502 4.4723C103.502 4.4723 104.312 3.6623 104.312 2.6623C104.312 1.6623 103.502 0.852295 102.502 0.852295C101.502 0.852295 100.692 1.6623 100.692 2.6623Z" fill="#ACCBC7"/>
<path d="M120.652 2.6623C120.652 3.6623 121.462 4.4723 122.462 4.4723C123.462 4.4723 124.272 3.6623 124.272 2.6623C124.272 1.6623 123.462 0.852295 122.462 0.852295C121.462 0.852295 120.652 1.6623 120.652 2.6623Z" fill="#ACCBC7"/>
<path d="M140.612 2.6623C140.612 3.6623 141.422 4.4723 142.422 4.4723C143.422 4.4723 144.232 3.6623 144.232 2.6623C144.232 1.6623 143.422 0.852295 142.422 0.852295C141.422 0.852295 140.612 1.6623 140.612 2.6623Z" fill="#ACCBC7"/>
<path d="M160.572 2.6623C160.572 3.6623 161.382 4.4723 162.382 4.4723C163.382 4.4723 164.192 3.6623 164.192 2.6623C164.192 1.6623 163.382 0.852295 162.382 0.852295C161.382 0.852295 160.572 1.6623 160.572 2.6623Z" fill="#ACCBC7"/>
<path d="M180.532 2.6623C180.532 3.6623 181.342 4.4723 182.342 4.4723C183.342 4.4723 184.152 3.6623 184.152 2.6623C184.152 1.6623 183.342 0.852295 182.342 0.852295C181.342 0.852295 180.532 1.6623 180.532 2.6623Z" fill="#ACCBC7"/>
<path d="M200.492 2.6623C200.492 3.6623 201.302 4.4723 202.302 4.4723C203.302 4.4723 204.112 3.6623 204.112 2.6623C204.112 1.6623 203.302 0.852295 202.302 0.852295C201.302 0.852295 200.492 1.6623 200.492 2.6623Z" fill="#ACCBC7"/>
<path d="M220.442 2.6623C220.442 3.6623 221.252 4.4723 222.252 4.4723C223.252 4.4723 224.062 3.6623 224.062 2.6623C224.062 1.6623 223.252 0.852295 222.252 0.852295C221.262 0.852295 220.442 1.6623 220.442 2.6623Z" fill="#ACCBC7"/>
<path d="M240.402 2.6623C240.402 3.6623 241.212 4.4723 242.212 4.4723C243.212 4.4723 244.022 3.6623 244.022 2.6623C244.022 1.6623 243.212 0.852295 242.212 0.852295C241.212 0.852295 240.402 1.6623 240.402 2.6623Z" fill="#ACCBC7"/>
<path d="M0.892578 19.6623C0.892578 20.6623 1.70258 21.4723 2.70258 21.4723C3.70258 21.4723 4.51258 20.6623 4.51258 19.6623C4.51258 18.6623 3.70258 17.8523 2.70258 17.8523C1.70258 17.8523 0.892578 18.6623 0.892578 19.6623Z" fill="#ACCBC7"/>
<path d="M20.8525 19.6623C20.8525 20.6623 21.6625 21.4723 22.6625 21.4723C23.6625 21.4723 24.4725 20.6623 24.4725 19.6623C24.4725 18.6623 23.6625 17.8523 22.6625 17.8523C21.6625 17.8523 20.8525 18.6623 20.8525 19.6623Z" fill="#ACCBC7"/>
<path d="M40.8125 19.6623C40.8125 20.6623 41.6225 21.4723 42.6225 21.4723C43.6225 21.4723 44.4325 20.6623 44.4325 19.6623C44.4325 18.6623 43.6225 17.8523 42.6225 17.8523C41.6225 17.8523 40.8125 18.6623 40.8125 19.6623Z" fill="#ACCBC7"/>
<path d="M60.7725 19.6623C60.7725 20.6623 61.5825 21.4723 62.5825 21.4723C63.5825 21.4723 64.3925 20.6623 64.3925 19.6623C64.3925 18.6623 63.5825 17.8523 62.5825 17.8523C61.5825 17.8523 60.7725 18.6623 60.7725 19.6623Z" fill="#ACCBC7"/>
<path d="M80.7324 19.6623C80.7324 20.6623 81.5424 21.4723 82.5424 21.4723C83.5424 21.4723 84.3524 20.6623 84.3524 19.6623C84.3524 18.6623 83.5424 17.8523 82.5424 17.8523C81.5424 17.8523 80.7324 18.6623 80.7324 19.6623Z" fill="#ACCBC7"/>
<path d="M100.692 19.6623C100.692 20.6623 101.502 21.4723 102.502 21.4723C103.502 21.4723 104.312 20.6623 104.312 19.6623C104.312 18.6623 103.502 17.8523 102.502 17.8523C101.502 17.8523 100.692 18.6623 100.692 19.6623Z" fill="#ACCBC7"/>
<path d="M120.652 19.6623C120.652 20.6623 121.462 21.4723 122.462 21.4723C123.462 21.4723 124.272 20.6623 124.272 19.6623C124.272 18.6623 123.462 17.8523 122.462 17.8523C121.462 17.8523 120.652 18.6623 120.652 19.6623Z" fill="#ACCBC7"/>
<path d="M140.612 19.6623C140.612 20.6623 141.422 21.4723 142.422 21.4723C143.422 21.4723 144.232 20.6623 144.232 19.6623C144.232 18.6623 143.422 17.8523 142.422 17.8523C141.422 17.8523 140.612 18.6623 140.612 19.6623Z" fill="#ACCBC7"/>
<path d="M160.572 19.6623C160.572 20.6623 161.382 21.4723 162.382 21.4723C163.382 21.4723 164.192 20.6623 164.192 19.6623C164.192 18.6623 163.382 17.8523 162.382 17.8523C161.382 17.8523 160.572 18.6623 160.572 19.6623Z" fill="#ACCBC7"/>
<path d="M180.532 19.6623C180.532 20.6623 181.342 21.4723 182.342 21.4723C183.342 21.4723 184.152 20.6623 184.152 19.6623C184.152 18.6623 183.342 17.8523 182.342 17.8523C181.342 17.8523 180.532 18.6623 180.532 19.6623Z" fill="#ACCBC7"/>
<path d="M200.492 19.6623C200.492 20.6623 201.302 21.4723 202.302 21.4723C203.302 21.4723 204.112 20.6623 204.112 19.6623C204.112 18.6623 203.302 17.8523 202.302 17.8523C201.302 17.8523 200.492 18.6623 200.492 19.6623Z" fill="#ACCBC7"/>
<path d="M220.442 19.6623C220.442 20.6623 221.252 21.4723 222.252 21.4723C223.252 21.4723 224.062 20.6623 224.062 19.6623C224.062 18.6623 223.252 17.8523 222.252 17.8523C221.262 17.8523 220.442 18.6623 220.442 19.6623Z" fill="#ACCBC7"/>
<path d="M240.402 19.6623C240.402 20.6623 241.212 21.4723 242.212 21.4723C243.212 21.4723 244.022 20.6623 244.022 19.6623C244.022 18.6623 243.212 17.8523 242.212 17.8523C241.212 17.8523 240.402 18.6623 240.402 19.6623Z" fill="#ACCBC7"/>
<path d="M0.892578 36.6723C0.892578 37.6723 1.70258 38.4823 2.70258 38.4823C3.70258 38.4823 4.51258 37.6723 4.51258 36.6723C4.51258 35.6723 3.70258 34.8623 2.70258 34.8623C1.70258 34.8623 0.892578 35.6723 0.892578 36.6723Z" fill="#ACCBC7"/>
<path d="M20.8525 36.6723C20.8525 37.6723 21.6625 38.4823 22.6625 38.4823C23.6625 38.4823 24.4725 37.6723 24.4725 36.6723C24.4725 35.6723 23.6625 34.8623 22.6625 34.8623C21.6625 34.8623 20.8525 35.6723 20.8525 36.6723Z" fill="#ACCBC7"/>
<path d="M40.8125 36.6723C40.8125 37.6723 41.6225 38.4823 42.6225 38.4823C43.6225 38.4823 44.4325 37.6723 44.4325 36.6723C44.4325 35.6723 43.6225 34.8623 42.6225 34.8623C41.6225 34.8623 40.8125 35.6723 40.8125 36.6723Z" fill="#ACCBC7"/>
<path d="M60.7725 36.6723C60.7725 37.6723 61.5825 38.4823 62.5825 38.4823C63.5825 38.4823 64.3925 37.6723 64.3925 36.6723C64.3925 35.6723 63.5825 34.8623 62.5825 34.8623C61.5825 34.8623 60.7725 35.6723 60.7725 36.6723Z" fill="#ACCBC7"/>
<path d="M80.7324 36.6723C80.7324 37.6723 81.5424 38.4823 82.5424 38.4823C83.5424 38.4823 84.3524 37.6723 84.3524 36.6723C84.3524 35.6723 83.5424 34.8623 82.5424 34.8623C81.5424 34.8623 80.7324 35.6723 80.7324 36.6723Z" fill="#ACCBC7"/>
<path d="M100.692 36.6723C100.692 37.6723 101.502 38.4823 102.502 38.4823C103.502 38.4823 104.312 37.6723 104.312 36.6723C104.312 35.6723 103.502 34.8623 102.502 34.8623C101.502 34.8623 100.692 35.6723 100.692 36.6723Z" fill="#ACCBC7"/>
<path d="M120.652 36.6723C120.652 37.6723 121.462 38.4823 122.462 38.4823C123.462 38.4823 124.272 37.6723 124.272 36.6723C124.272 35.6723 123.462 34.8623 122.462 34.8623C121.462 34.8623 120.652 35.6723 120.652 36.6723Z" fill="#ACCBC7"/>
<path d="M140.612 36.6723C140.612 37.6723 141.422 38.4823 142.422 38.4823C143.422 38.4823 144.232 37.6723 144.232 36.6723C144.232 35.6723 143.422 34.8623 142.422 34.8623C141.422 34.8623 140.612 35.6723 140.612 36.6723Z" fill="#ACCBC7"/>
<path d="M160.572 36.6723C160.572 37.6723 161.382 38.4823 162.382 38.4823C163.382 38.4823 164.192 37.6723 164.192 36.6723C164.192 35.6723 163.382 34.8623 162.382 34.8623C161.382 34.8623 160.572 35.6723 160.572 36.6723Z" fill="#ACCBC7"/>
<path d="M180.532 36.6723C180.532 37.6723 181.342 38.4823 182.342 38.4823C183.342 38.4823 184.152 37.6723 184.152 36.6723C184.152 35.6723 183.342 34.8623 182.342 34.8623C181.342 34.8623 180.532 35.6723 180.532 36.6723Z" fill="#ACCBC7"/>
<path d="M200.492 36.6723C200.492 37.6723 201.302 38.4823 202.302 38.4823C203.302 38.4823 204.112 37.6723 204.112 36.6723C204.112 35.6723 203.302 34.8623 202.302 34.8623C201.302 34.8623 200.492 35.6723 200.492 36.6723Z" fill="#ACCBC7"/>
<path d="M220.442 36.6723C220.442 37.6723 221.252 38.4823 222.252 38.4823C223.252 38.4823 224.062 37.6723 224.062 36.6723C224.062 35.6723 223.252 34.8623 222.252 34.8623C221.262 34.8623 220.442 35.6723 220.442 36.6723Z" fill="#ACCBC7"/>
<path d="M240.402 36.6723C240.402 37.6723 241.212 38.4823 242.212 38.4823C243.212 38.4823 244.022 37.6723 244.022 36.6723C244.022 35.6723 243.212 34.8623 242.212 34.8623C241.212 34.8623 240.402 35.6723 240.402 36.6723Z" fill="#ACCBC7"/>
<path d="M0.892578 53.6723C0.892578 54.6723 1.70258 55.4823 2.70258 55.4823C3.70258 55.4823 4.51258 54.6723 4.51258 53.6723C4.51258 52.6723 3.70258 51.8623 2.70258 51.8623C1.70258 51.8623 0.892578 52.6823 0.892578 53.6723Z" fill="#ACCBC7"/>
<path d="M20.8525 53.6723C20.8525 54.6723 21.6625 55.4823 22.6625 55.4823C23.6625 55.4823 24.4725 54.6723 24.4725 53.6723C24.4725 52.6723 23.6625 51.8623 22.6625 51.8623C21.6625 51.8623 20.8525 52.6823 20.8525 53.6723Z" fill="#ACCBC7"/>
<path d="M40.8125 53.6723C40.8125 54.6723 41.6225 55.4823 42.6225 55.4823C43.6225 55.4823 44.4325 54.6723 44.4325 53.6723C44.4325 52.6723 43.6225 51.8623 42.6225 51.8623C41.6225 51.8623 40.8125 52.6823 40.8125 53.6723Z" fill="#ACCBC7"/>
<path d="M60.7725 53.6723C60.7725 54.6723 61.5825 55.4823 62.5825 55.4823C63.5825 55.4823 64.3925 54.6723 64.3925 53.6723C64.3925 52.6723 63.5825 51.8623 62.5825 51.8623C61.5825 51.8623 60.7725 52.6823 60.7725 53.6723Z" fill="#ACCBC7"/>
<path d="M80.7324 53.6723C80.7324 54.6723 81.5424 55.4823 82.5424 55.4823C83.5424 55.4823 84.3524 54.6723 84.3524 53.6723C84.3524 52.6723 83.5424 51.8623 82.5424 51.8623C81.5424 51.8623 80.7324 52.6823 80.7324 53.6723Z" fill="#ACCBC7"/>
<path d="M100.692 53.6723C100.692 54.6723 101.502 55.4823 102.502 55.4823C103.502 55.4823 104.312 54.6723 104.312 53.6723C104.312 52.6723 103.502 51.8623 102.502 51.8623C101.502 51.8623 100.692 52.6823 100.692 53.6723Z" fill="#ACCBC7"/>
<path d="M120.652 53.6723C120.652 54.6723 121.462 55.4823 122.462 55.4823C123.462 55.4823 124.272 54.6723 124.272 53.6723C124.272 52.6723 123.462 51.8623 122.462 51.8623C121.462 51.8623 120.652 52.6823 120.652 53.6723Z" fill="#ACCBC7"/>
<path d="M140.612 53.6723C140.612 54.6723 141.422 55.4823 142.422 55.4823C143.422 55.4823 144.232 54.6723 144.232 53.6723C144.232 52.6723 143.422 51.8623 142.422 51.8623C141.422 51.8623 140.612 52.6823 140.612 53.6723Z" fill="#ACCBC7"/>
<path d="M160.572 53.6723C160.572 54.6723 161.382 55.4823 162.382 55.4823C163.382 55.4823 164.192 54.6723 164.192 53.6723C164.192 52.6723 163.382 51.8623 162.382 51.8623C161.382 51.8623 160.572 52.6823 160.572 53.6723Z" fill="#ACCBC7"/>
<path d="M180.532 53.6723C180.532 54.6723 181.342 55.4823 182.342 55.4823C183.342 55.4823 184.152 54.6723 184.152 53.6723C184.152 52.6723 183.342 51.8623 182.342 51.8623C181.342 51.8623 180.532 52.6823 180.532 53.6723Z" fill="#ACCBC7"/>
<path d="M200.492 53.6723C200.492 54.6723 201.302 55.4823 202.302 55.4823C203.302 55.4823 204.112 54.6723 204.112 53.6723C204.112 52.6723 203.302 51.8623 202.302 51.8623C201.302 51.8623 200.492 52.6823 200.492 53.6723Z" fill="#ACCBC7"/>
<path d="M220.442 53.6723C220.442 54.6723 221.252 55.4823 222.252 55.4823C223.252 55.4823 224.062 54.6723 224.062 53.6723C224.062 52.6723 223.252 51.8623 222.252 51.8623C221.262 51.8623 220.442 52.6823 220.442 53.6723Z" fill="#ACCBC7"/>
<path d="M240.402 53.6723C240.402 54.6723 241.212 55.4823 242.212 55.4823C243.212 55.4823 244.022 54.6723 244.022 53.6723C244.022 52.6723 243.212 51.8623 242.212 51.8623C241.212 51.8623 240.402 52.6823 240.402 53.6723Z" fill="#ACCBC7"/>
<path d="M0.892578 70.6823C0.892578 71.6823 1.70258 72.4923 2.70258 72.4923C3.70258 72.4923 4.51258 71.6823 4.51258 70.6823C4.51258 69.6823 3.70258 68.8723 2.70258 68.8723C1.70258 68.8723 0.892578 69.6823 0.892578 70.6823Z" fill="#ACCBC7"/>
<path d="M20.8525 70.6823C20.8525 71.6823 21.6625 72.4923 22.6625 72.4923C23.6625 72.4923 24.4725 71.6823 24.4725 70.6823C24.4725 69.6823 23.6625 68.8723 22.6625 68.8723C21.6625 68.8723 20.8525 69.6823 20.8525 70.6823Z" fill="#ACCBC7"/>
<path d="M40.8125 70.6823C40.8125 71.6823 41.6225 72.4923 42.6225 72.4923C43.6225 72.4923 44.4325 71.6823 44.4325 70.6823C44.4325 69.6823 43.6225 68.8723 42.6225 68.8723C41.6225 68.8723 40.8125 69.6823 40.8125 70.6823Z" fill="#ACCBC7"/>
<path d="M62.5825 72.4923C63.5821 72.4923 64.3925 71.6819 64.3925 70.6823C64.3925 69.6827 63.5821 68.8723 62.5825 68.8723C61.5828 68.8723 60.7725 69.6827 60.7725 70.6823C60.7725 71.6819 61.5828 72.4923 62.5825 72.4923Z" fill="#ACCBC7"/>
<path d="M82.5424 72.4923C83.5421 72.4923 84.3524 71.6819 84.3524 70.6823C84.3524 69.6827 83.5421 68.8723 82.5424 68.8723C81.5428 68.8723 80.7324 69.6827 80.7324 70.6823C80.7324 71.6819 81.5428 72.4923 82.5424 72.4923Z" fill="#ACCBC7"/>
<path d="M102.502 72.4923C103.502 72.4923 104.312 71.6819 104.312 70.6823C104.312 69.6827 103.502 68.8723 102.502 68.8723C101.503 68.8723 100.692 69.6827 100.692 70.6823C100.692 71.6819 101.503 72.4923 102.502 72.4923Z" fill="#ACCBC7"/>
<path d="M120.652 70.6823C120.652 71.6823 121.462 72.4923 122.462 72.4923C123.462 72.4923 124.272 71.6823 124.272 70.6823C124.272 69.6823 123.462 68.8723 122.462 68.8723C121.462 68.8723 120.652 69.6823 120.652 70.6823Z" fill="#ACCBC7"/>
<path d="M140.612 70.6823C140.612 71.6823 141.422 72.4923 142.422 72.4923C143.422 72.4923 144.232 71.6823 144.232 70.6823C144.232 69.6823 143.422 68.8723 142.422 68.8723C141.422 68.8723 140.612 69.6823 140.612 70.6823Z" fill="#ACCBC7"/>
<path d="M160.572 70.6823C160.572 71.6823 161.382 72.4923 162.382 72.4923C163.382 72.4923 164.192 71.6823 164.192 70.6823C164.192 69.6823 163.382 68.8723 162.382 68.8723C161.382 68.8723 160.572 69.6823 160.572 70.6823Z" fill="#ACCBC7"/>
<path d="M180.532 70.6823C180.532 71.6823 181.342 72.4923 182.342 72.4923C183.342 72.4923 184.152 71.6823 184.152 70.6823C184.152 69.6823 183.342 68.8723 182.342 68.8723C181.342 68.8723 180.532 69.6823 180.532 70.6823Z" fill="#ACCBC7"/>
<path d="M200.492 70.6823C200.492 71.6823 201.302 72.4923 202.302 72.4923C203.302 72.4923 204.112 71.6823 204.112 70.6823C204.112 69.6823 203.302 68.8723 202.302 68.8723C201.302 68.8723 200.492 69.6823 200.492 70.6823Z" fill="#ACCBC7"/>
<path d="M220.442 70.6823C220.442 71.6823 221.252 72.4923 222.252 72.4923C223.252 72.4923 224.062 71.6823 224.062 70.6823C224.062 69.6823 223.252 68.8723 222.252 68.8723C221.262 68.8723 220.442 69.6823 220.442 70.6823Z" fill="#ACCBC7"/>
<path d="M240.402 70.6823C240.402 71.6823 241.212 72.4923 242.212 72.4923C243.212 72.4923 244.022 71.6823 244.022 70.6823C244.022 69.6823 243.212 68.8723 242.212 68.8723C241.212 68.8723 240.402 69.6823 240.402 70.6823Z" fill="#ACCBC7"/>
<path d="M0.892578 87.6923C0.892578 88.6923 1.70258 89.5023 2.70258 89.5023C3.70258 89.5023 4.51258 88.6923 4.51258 87.6923C4.51258 86.6923 3.70258 85.8823 2.70258 85.8823C1.70258 85.8823 0.892578 86.6923 0.892578 87.6923Z" fill="#ACCBC7"/>
<path d="M20.8525 87.6923C20.8525 88.6923 21.6625 89.5023 22.6625 89.5023C23.6625 89.5023 24.4725 88.6923 24.4725 87.6923C24.4725 86.6923 23.6625 85.8823 22.6625 85.8823C21.6625 85.8823 20.8525 86.6923 20.8525 87.6923Z" fill="#ACCBC7"/>
<path d="M40.8125 87.6923C40.8125 88.6923 41.6225 89.5023 42.6225 89.5023C43.6225 89.5023 44.4325 88.6923 44.4325 87.6923C44.4325 86.6923 43.6225 85.8823 42.6225 85.8823C41.6225 85.8823 40.8125 86.6923 40.8125 87.6923Z" fill="#ACCBC7"/>
<path d="M60.7725 87.6923C60.7725 88.6923 61.5825 89.5023 62.5825 89.5023C63.5825 89.5023 64.3925 88.6923 64.3925 87.6923C64.3925 86.6923 63.5825 85.8823 62.5825 85.8823C61.5825 85.8823 60.7725 86.6923 60.7725 87.6923Z" fill="#ACCBC7"/>
<path d="M80.7324 87.6923C80.7324 88.6923 81.5424 89.5023 82.5424 89.5023C83.5424 89.5023 84.3524 88.6923 84.3524 87.6923C84.3524 86.6923 83.5424 85.8823 82.5424 85.8823C81.5424 85.8823 80.7324 86.6923 80.7324 87.6923Z" fill="#ACCBC7"/>
<path d="M100.692 87.6923C100.692 88.6923 101.502 89.5023 102.502 89.5023C103.502 89.5023 104.312 88.6923 104.312 87.6923C104.312 86.6923 103.502 85.8823 102.502 85.8823C101.502 85.8823 100.692 86.6923 100.692 87.6923Z" fill="#ACCBC7"/>
<path d="M120.652 87.6923C120.652 88.6923 121.462 89.5023 122.462 89.5023C123.462 89.5023 124.272 88.6923 124.272 87.6923C124.272 86.6923 123.462 85.8823 122.462 85.8823C121.462 85.8823 120.652 86.6923 120.652 87.6923Z" fill="#ACCBC7"/>
<path d="M140.612 87.6923C140.612 88.6923 141.422 89.5023 142.422 89.5023C143.422 89.5023 144.232 88.6923 144.232 87.6923C144.232 86.6923 143.422 85.8823 142.422 85.8823C141.422 85.8823 140.612 86.6923 140.612 87.6923Z" fill="#ACCBC7"/>
<path d="M160.572 87.6923C160.572 88.6923 161.382 89.5023 162.382 89.5023C163.382 89.5023 164.192 88.6923 164.192 87.6923C164.192 86.6923 163.382 85.8823 162.382 85.8823C161.382 85.8823 160.572 86.6923 160.572 87.6923Z" fill="#ACCBC7"/>
<path d="M180.532 87.6923C180.532 88.6923 181.342 89.5023 182.342 89.5023C183.342 89.5023 184.152 88.6923 184.152 87.6923C184.152 86.6923 183.342 85.8823 182.342 85.8823C181.342 85.8823 180.532 86.6923 180.532 87.6923Z" fill="#ACCBC7"/>
<path d="M200.492 87.6923C200.492 88.6923 201.302 89.5023 202.302 89.5023C203.302 89.5023 204.112 88.6923 204.112 87.6923C204.112 86.6923 203.302 85.8823 202.302 85.8823C201.302 85.8823 200.492 86.6923 200.492 87.6923Z" fill="#ACCBC7"/>
<path d="M220.442 87.6923C220.442 88.6923 221.252 89.5023 222.252 89.5023C223.252 89.5023 224.062 88.6923 224.062 87.6923C224.062 86.6923 223.252 85.8823 222.252 85.8823C221.262 85.8823 220.442 86.6923 220.442 87.6923Z" fill="#ACCBC7"/>
<path d="M240.402 87.6923C240.402 88.6923 241.212 89.5023 242.212 89.5023C243.212 89.5023 244.022 88.6923 244.022 87.6923C244.022 86.6923 243.212 85.8823 242.212 85.8823C241.212 85.8823 240.402 86.6923 240.402 87.6923Z" fill="#ACCBC7"/>
</svg>
