<svg width="134" height="88" viewBox="0 0 134 88" fill="none" xmlns="http://www.w3.org/2000/svg">
<path d="M100.439 46.6333H126.417C127.353 46.6328 128.28 46.8188 129.144 47.1805C130.009 47.5422 130.795 48.0726 131.456 48.7414C132.118 49.4101 132.642 50.204 133 51.0777C133.358 51.9515 133.541 52.8878 133.54 53.8332V79.0743C133.541 80.0197 133.358 80.956 133 81.8298C132.642 82.7035 132.118 83.4974 131.456 84.1661C130.795 84.8349 130.009 85.3653 129.144 85.727C128.28 86.0887 127.353 86.2747 126.417 86.2742H100.438C99.5017 86.2747 98.5749 86.0887 97.7101 85.727C96.8454 85.3653 96.0597 84.8349 95.3981 84.1661C94.7365 83.4974 94.2119 82.7035 93.8544 81.8298C93.4969 80.956 93.3134 80.0197 93.3145 79.0743V53.8332C93.3134 52.8878 93.4969 51.9515 93.8544 51.0777C94.2119 50.204 94.7365 49.4101 95.3981 48.7414C96.0597 48.0726 96.8454 47.5422 97.7101 47.1805C98.5749 46.8188 99.5017 46.6328 100.438 46.6333H100.439Z" fill="#470137"/>
<path d="M114.48 57.0515L109.448 65.4372L114.815 74.3308C114.849 74.3982 114.865 74.4667 114.849 74.534C114.832 74.6025 114.765 74.5517 114.664 74.5682H110.822C110.553 74.5682 110.37 74.5517 110.253 74.3816C109.9 73.6706 109.531 72.9761 109.179 72.2639C108.811 71.5458 108.431 70.8343 108.038 70.1297C107.636 69.401 107.234 68.6734 106.831 67.927H106.797C106.446 68.6557 106.06 69.3844 105.674 70.112C105.288 70.8407 104.902 71.5695 104.534 72.2817C104.148 72.9927 103.762 73.7214 103.376 74.4159C103.31 74.5848 103.175 74.6025 102.99 74.6025H99.3012C99.2334 74.6025 99.1843 74.6356 99.1843 74.5517C99.1767 74.52 99.1757 74.4871 99.1813 74.4549C99.187 74.4228 99.1991 74.3922 99.217 74.3651L104.432 65.7254L99.3515 57.035C99.3012 56.9665 99.2837 56.8992 99.3176 56.8649C99.3515 56.8141 99.4181 56.7976 99.4848 56.7976H103.292C103.376 56.7976 103.46 56.8141 103.527 56.8318C103.594 56.8649 103.644 56.9157 103.695 56.9842C104.013 57.7129 104.383 58.4405 104.768 59.1692C105.171 59.8979 105.557 60.6101 105.975 61.3211C106.378 62.0322 106.747 62.7432 107.099 63.4719H107.133C107.485 62.7278 107.854 61.9979 108.223 61.2869C108.592 60.5759 108.978 59.8637 109.363 59.1527C109.749 58.4405 110.118 57.7117 110.487 57.0173C110.504 56.9499 110.537 56.8826 110.588 56.8484C110.655 56.8141 110.722 56.7976 110.806 56.8141H114.344C114.364 56.8096 114.384 56.809 114.404 56.8125C114.424 56.816 114.443 56.8235 114.461 56.8344C114.478 56.8454 114.493 56.8597 114.504 56.8765C114.516 56.8933 114.524 56.9122 114.529 56.9322C114.545 56.9499 114.512 57.0173 114.478 57.0515H114.48ZM122.228 74.9249C120.985 74.9454 119.753 74.6847 118.622 74.1619C117.57 73.665 116.689 72.8628 116.09 71.8576C115.47 70.8242 115.167 69.5368 115.167 67.9955C115.15 66.7416 115.469 65.5063 116.09 64.4203C116.726 63.317 117.648 62.4093 118.756 61.7948C119.931 61.1334 121.34 60.8121 123 60.8121C123.083 60.8121 123.2 60.8121 123.351 60.8298C123.503 60.8464 123.67 60.8464 123.871 60.8629V55.5102C123.871 55.3921 123.922 55.3236 124.04 55.3236H127.443C127.528 55.307 127.595 55.3744 127.612 55.4417V71.6037C127.612 71.9084 127.628 72.2474 127.645 72.6194C127.68 72.9761 127.695 73.3151 127.712 73.6021C127.712 73.7202 127.662 73.823 127.544 73.8738C126.673 74.2458 125.75 74.5175 124.81 74.6863C123.955 74.8399 123.1 74.9237 122.228 74.9237V74.9249ZM123.871 71.5352V64.0825C123.72 64.0471 123.57 64.014 123.419 63.9975C123.234 63.9798 123.049 63.9632 122.866 63.9632C122.211 63.9632 121.556 64.0991 120.97 64.4038C120.397 64.6919 119.906 65.1233 119.544 65.6569C119.175 66.2002 118.991 66.9278 118.991 67.8089C118.976 68.4033 119.073 68.9952 119.276 69.5533C119.444 70.0116 119.696 70.4179 120.031 70.7569C120.349 71.0616 120.735 71.299 121.171 71.4336C121.624 71.5872 122.094 71.6545 122.563 71.6545C122.815 71.6545 123.049 71.638 123.268 71.6202C123.485 71.638 123.67 71.6037 123.871 71.5364V71.5352Z" fill="#FF61F6"/>
<path d="M10.4816 43.6624H36.5214C37.4594 43.6614 38.3884 43.8474 39.2552 44.2095C40.122 44.5717 40.9095 45.1029 41.5728 45.7729C42.2361 46.4429 42.762 47.2384 43.1205 48.1139C43.4791 48.9894 43.6631 49.9278 43.6622 50.8753V76.1612C43.663 77.1085 43.4788 78.0466 43.1203 78.9219C42.7618 79.7972 42.2359 80.5926 41.5728 81.2624C40.9097 81.9322 40.1223 82.4634 39.2557 82.8256C38.3892 83.1877 37.4604 83.3737 36.5226 83.3729H10.4816C9.5437 83.3739 8.61483 83.188 7.74813 82.8259C6.88143 82.4638 6.09392 81.9327 5.43067 81.2628C4.76741 80.593 4.24144 79.7976 3.88284 78.9222C3.52424 78.0468 3.34005 77.1086 3.34082 76.1612V50.8741C3.34005 49.9267 3.52424 48.9885 3.88284 48.1131C4.24144 47.2377 4.76741 46.4423 5.43067 45.7725C6.09392 45.1026 6.88143 44.5715 7.74813 44.2094C8.61483 43.8473 9.5437 43.6614 10.4816 43.6624Z" fill="#001E36"/>
<path d="M12.4131 71.5111V54.0487C12.4131 53.9306 12.4634 53.8621 12.5815 53.8621C12.8668 53.8621 13.1357 53.8621 13.5216 53.8444C13.925 53.8278 14.3447 53.8278 14.7984 53.8101C15.2521 53.7936 15.7397 53.7936 16.26 53.7771C16.7697 53.7628 17.2796 53.7569 17.7894 53.7593C19.1668 53.7593 20.3092 53.9294 21.2505 54.2861C22.09 54.5743 22.8641 55.0491 23.5013 55.6774C24.0392 56.2207 24.4602 56.8821 24.7291 57.6121C24.9832 58.3194 25.1138 59.0659 25.1149 59.8183C25.1149 61.2782 24.7782 62.4829 24.107 63.4325C23.4317 64.3816 22.4888 65.1032 21.4013 65.5029C20.2589 65.9281 18.9996 66.0805 17.621 66.0805C17.2176 66.0805 16.9499 66.0805 16.7815 66.0627C16.6131 66.0462 16.3781 66.0462 16.0589 66.0462V71.4934C16.0753 71.6115 15.9922 71.7143 15.8741 71.732H12.6154C12.4809 71.732 12.4131 71.6635 12.4131 71.5111ZM16.0753 57.1373V62.8384C16.3115 62.8561 16.5289 62.8738 16.7301 62.8738H17.621C18.2758 62.8738 18.9318 62.7711 19.5539 62.5667C20.0917 62.4144 20.5618 62.0919 20.9313 61.6691C21.2844 61.2439 21.4516 60.6663 21.4516 59.9211C21.4691 59.3943 21.3347 58.8676 21.0657 58.4093C20.7855 57.9687 20.3734 57.6298 19.8894 57.442C19.2589 57.1927 18.5842 57.0773 17.9075 57.103C17.4702 57.103 17.0844 57.103 16.7651 57.1195C16.5351 57.1046 16.3042 57.1105 16.0753 57.1373ZM35.5975 61.8037C35.0904 61.5337 34.5473 61.3392 33.9851 61.2262C33.3672 61.0852 32.736 61.0115 32.1026 61.0065C31.763 60.9946 31.4236 61.0344 31.0958 61.1246C30.8862 61.1687 30.7003 61.29 30.5743 61.4648C30.4894 61.6025 30.4429 61.7608 30.4398 61.923C30.4398 62.0754 30.5077 62.2278 30.6082 62.3636C30.7602 62.5502 30.9613 62.7037 31.18 62.8218C31.5659 63.0262 31.9693 63.2116 32.3727 63.3817C33.28 63.6876 34.1535 64.1116 34.9603 64.6218C35.5145 64.9761 35.9682 65.4521 36.2874 66.0297C36.5563 66.573 36.6896 67.1659 36.6733 67.7777C36.6868 68.5794 36.4584 69.3662 36.0185 70.0336C35.5499 70.7117 34.8956 71.2371 34.1359 71.5454C33.3128 71.9009 32.3048 72.0887 31.0958 72.0887C30.3229 72.0887 29.5664 72.0202 28.811 71.8666C28.2183 71.7632 27.6419 71.5805 27.0969 71.3233C26.9799 71.256 26.8958 71.1379 26.9121 71.0021V68.0493C26.9121 67.9974 26.9285 67.93 26.9799 67.8958C27.0302 67.8627 27.0805 67.8793 27.1308 67.9135C27.7856 68.3033 28.4755 68.5749 29.2144 68.745C29.8616 68.9149 30.5277 69.0002 31.1964 68.9989C31.8348 68.9989 32.2885 68.9139 32.5913 68.7627C32.8602 68.6422 33.045 68.3541 33.045 68.0493C33.045 67.8108 32.9105 67.5911 32.6416 67.3702C32.3727 67.1493 31.8184 66.8954 30.9952 66.573C30.1508 66.2722 29.3489 65.8612 28.6099 65.3505C28.0831 64.9718 27.6465 64.4791 27.3319 63.9084C27.0639 63.3723 26.9313 62.7774 26.946 62.177C26.946 61.447 27.1472 60.7514 27.5166 60.1242C27.9376 59.4451 28.5585 58.9018 29.2811 58.5628C30.0703 58.1554 31.0619 57.9687 32.2546 57.9687C32.9444 57.9687 33.6495 58.0195 34.3382 58.1223C34.841 58.1896 35.3298 58.3243 35.7834 58.512C35.8501 58.5286 35.9179 58.5959 35.9506 58.6644C35.97 58.7305 35.9814 58.7987 35.9846 58.8676V61.6337C35.9848 61.6667 35.9773 61.6994 35.9627 61.7289C35.9481 61.7585 35.9267 61.7841 35.9004 61.8037C35.7484 61.838 35.6653 61.838 35.5987 61.8037H35.5975Z" fill="#31A8FF"/>
<path d="M58.4342 9.81387L70.0182 8.57373L81.6023 9.81387L90.5706 22.0169L70.0182 46.2741L49.4658 22.0169L58.4342 9.81387Z" fill="#FDB300"/>
<path d="M57.7911 22.0171L70.0182 46.2743L49.4658 22.0171H57.7911ZM82.2465 22.0171L70.0182 46.2743L90.5706 22.0171H82.2465Z" fill="#EA6C00"/>
<path d="M57.792 22.0171H82.2474L70.0191 46.2743L57.792 22.0171Z" fill="#FDAD00"/>
<path d="M70.0191 8.57275L58.4351 9.81408L57.792 22.0171L70.0191 8.57275ZM70.0191 8.57275L81.6032 9.81408L82.2463 22.0171L70.0191 8.57275Z" fill="#FDD231"/>
<path d="M90.5706 22.017L81.6023 9.81396L82.2454 22.017H90.5706ZM49.4658 22.017L58.4342 9.81396L57.7911 22.017H49.4658Z" fill="#FDAD00"/>
<path d="M70.0191 8.57275L57.792 22.0171H82.2474L70.0191 8.57275Z" fill="#FEEEB7"/>
</svg>
