<svg width="120" height="120" viewBox="0 0 120 120" fill="none" xmlns="http://www.w3.org/2000/svg">
<path d="M97.0905 13.3579C96.6005 12.9579 96.1006 12.5779 95.6006 12.1979L12.3105 95.4879C12.6905 95.9879 13.0806 96.4879 13.4706 96.9779L97.0905 13.3579Z" fill="#C6C6C6"/>
<path d="M76.7409 2.65789C76.0509 2.45789 75.351 2.26789 74.6609 2.08789L2.21094 74.5379C2.39094 75.2379 2.58094 75.9279 2.78094 76.6179L76.7409 2.65789Z" fill="#C6C6C6"/>
<path d="M91.0392 9.05788C90.4892 8.71788 89.9292 8.38787 89.3792 8.06787L8.19922 89.2479C8.51922 89.8079 8.84921 90.3579 9.18921 90.9079L91.0392 9.05788Z" fill="#C6C6C6"/>
<path d="M84.2791 5.46785C83.6691 5.18785 83.049 4.91785 82.429 4.66785L4.78906 82.3078C5.04906 82.9278 5.30905 83.5479 5.58905 84.1579L84.2791 5.46785Z" fill="#C6C6C6"/>
<path d="M68.2509 0.807945C67.4609 0.697945 66.6709 0.597944 65.8809 0.517944L0.630859 65.7679C0.710859 66.5579 0.810868 67.3479 0.920868 68.1379L68.2509 0.807945Z" fill="#C6C6C6"/>
<path d="M101.84 17.6279C101.62 17.4079 101.39 17.1879 101.17 16.9779L17.0898 101.058C17.3098 101.278 17.5198 101.508 17.7398 101.728C17.9598 101.948 18.1899 102.168 18.4099 102.378L102.49 18.2979C102.28 18.0679 102.06 17.8479 101.84 17.6279Z" fill="#C6C6C6"/>
<path d="M58.4901 0.217896C57.5601 0.237896 56.6401 0.277893 55.7101 0.347893L0.460052 55.5979C0.400052 56.5279 0.350078 57.4479 0.330078 58.3779L58.4901 0.217896Z" fill="#C6C6C6"/>
<path d="M1.7793 46.588L46.7093 1.65796C45.5093 1.92796 44.3193 2.23796 43.1393 2.57796L2.69931 43.018C2.34931 44.198 2.0493 45.388 1.7793 46.588Z" fill="#C6C6C6"/>
<path d="M119.12 63.7579C119.18 62.8279 119.23 61.9079 119.25 60.9779L61.0996 119.128C62.0296 119.108 62.9496 119.068 63.8796 118.998L119.12 63.7579Z" fill="#C6C6C6"/>
<path d="M118.94 53.5779C118.86 52.7879 118.76 51.9979 118.65 51.2079L51.3301 118.528C52.1201 118.638 52.9101 118.738 53.7001 118.818L118.94 53.5779Z" fill="#C6C6C6"/>
<path d="M29.5908 8.42786C25.3608 10.9279 21.3808 13.9879 17.7408 17.6179C14.1108 21.2479 11.0408 25.2379 8.55078 29.4679L29.5908 8.42786Z" fill="#C6C6C6"/>
<path d="M116.891 76.3279C117.231 75.1479 117.541 73.9579 117.811 72.7579L72.8809 117.688C74.0809 117.418 75.2709 117.108 76.4509 116.768L116.891 76.3279Z" fill="#C6C6C6"/>
<path d="M90 110.918C94.23 108.418 98.21 105.358 101.85 101.728C105.48 98.0979 108.55 94.1079 111.04 89.8779L90 110.918Z" fill="#C6C6C6"/>
<path d="M111.391 30.0879C111.071 29.5279 110.741 28.9779 110.401 28.4279L28.5508 110.278C29.1008 110.618 29.6608 110.948 30.2108 111.268L111.391 30.0879Z" fill="#C6C6C6"/>
<path d="M107.27 23.8679C106.89 23.3679 106.5 22.8679 106.11 22.3779L22.4902 105.998C22.9802 106.398 23.4803 106.778 23.9803 107.158L107.27 23.8679Z" fill="#C6C6C6"/>
<path d="M117.37 44.7979C117.19 44.0979 117 43.4079 116.8 42.7179L42.8398 116.678C43.5298 116.878 44.2199 117.068 44.9199 117.248L117.37 44.7979Z" fill="#C6C6C6"/>
<path d="M114.801 37.0379C114.541 36.4179 114.281 35.7979 114.001 35.1879L35.3105 113.878C35.9205 114.158 36.5406 114.418 37.1606 114.678L114.801 37.0379Z" fill="#C6C6C6"/>
</svg>
