<svg width="244" height="90" viewBox="0 0 244 90" fill="none" xmlns="http://www.w3.org/2000/svg">
<path d="M243.91 87.2095C243.91 86.2095 243.1 85.3995 242.1 85.3995C241.1 85.3995 240.29 86.2095 240.29 87.2095C240.29 88.2095 241.1 89.0195 242.1 89.0195C243.1 89.0195 243.91 88.2095 243.91 87.2095Z" fill="#929493"/>
<path d="M223.951 87.2095C223.951 86.2095 223.141 85.3995 222.141 85.3995C221.141 85.3995 220.331 86.2095 220.331 87.2095C220.331 88.2095 221.141 89.0195 222.141 89.0195C223.141 89.0195 223.951 88.2095 223.951 87.2095Z" fill="#929493"/>
<path d="M203.99 87.2095C203.99 86.2095 203.18 85.3995 202.18 85.3995C201.18 85.3995 200.37 86.2095 200.37 87.2095C200.37 88.2095 201.18 89.0195 202.18 89.0195C203.18 89.0195 203.99 88.2095 203.99 87.2095Z" fill="#929493"/>
<path d="M184.029 87.2095C184.029 86.2095 183.219 85.3995 182.219 85.3995C181.219 85.3995 180.409 86.2095 180.409 87.2095C180.409 88.2095 181.219 89.0195 182.219 89.0195C183.219 89.0195 184.029 88.2095 184.029 87.2095Z" fill="#929493"/>
<path d="M164.07 87.2095C164.07 86.2095 163.26 85.3995 162.26 85.3995C161.26 85.3995 160.45 86.2095 160.45 87.2095C160.45 88.2095 161.26 89.0195 162.26 89.0195C163.26 89.0195 164.07 88.2095 164.07 87.2095Z" fill="#929493"/>
<path d="M144.109 87.2095C144.109 86.2095 143.299 85.3995 142.299 85.3995C141.299 85.3995 140.489 86.2095 140.489 87.2095C140.489 88.2095 141.299 89.0195 142.299 89.0195C143.299 89.0195 144.109 88.2095 144.109 87.2095Z" fill="#929493"/>
<path d="M124.15 87.2095C124.15 86.2095 123.34 85.3995 122.34 85.3995C121.34 85.3995 120.53 86.2095 120.53 87.2095C120.53 88.2095 121.34 89.0195 122.34 89.0195C123.34 89.0195 124.15 88.2095 124.15 87.2095Z" fill="#929493"/>
<path d="M104.189 87.2095C104.189 86.2095 103.379 85.3995 102.379 85.3995C101.379 85.3995 100.569 86.2095 100.569 87.2095C100.569 88.2095 101.379 89.0195 102.379 89.0195C103.379 89.0195 104.189 88.2095 104.189 87.2095Z" fill="#929493"/>
<path d="M84.2305 87.2095C84.2305 86.2095 83.4205 85.3995 82.4205 85.3995C81.4205 85.3995 80.6105 86.2095 80.6105 87.2095C80.6105 88.2095 81.4205 89.0195 82.4205 89.0195C83.4205 89.0195 84.2305 88.2095 84.2305 87.2095Z" fill="#929493"/>
<path d="M64.2695 87.2095C64.2695 86.2095 63.4595 85.3995 62.4595 85.3995C61.4595 85.3995 60.6495 86.2095 60.6495 87.2095C60.6495 88.2095 61.4595 89.0195 62.4595 89.0195C63.4595 89.0195 64.2695 88.2095 64.2695 87.2095Z" fill="#929493"/>
<path d="M44.3105 87.2095C44.3105 86.2095 43.5005 85.3995 42.5005 85.3995C41.5005 85.3995 40.6906 86.2095 40.6906 87.2095C40.6906 88.2095 41.5005 89.0195 42.5005 89.0195C43.5005 89.0195 44.3105 88.2095 44.3105 87.2095Z" fill="#929493"/>
<path d="M24.3604 87.2095C24.3604 86.2095 23.5504 85.3995 22.5504 85.3995C21.5504 85.3995 20.7404 86.2095 20.7404 87.2095C20.7404 88.2095 21.5504 89.0195 22.5504 89.0195C23.5404 89.0195 24.3604 88.2095 24.3604 87.2095Z" fill="#929493"/>
<path d="M4.40039 87.2096C4.40039 86.2096 3.59039 85.3996 2.59039 85.3996C1.59039 85.3996 0.780365 86.2096 0.780365 87.2096C0.780365 88.2096 1.59039 89.0196 2.59039 89.0196C3.59039 89.0196 4.40039 88.2096 4.40039 87.2096Z" fill="#929493"/>
<path d="M243.91 70.2095C243.91 69.2095 243.1 68.3995 242.1 68.3995C241.1 68.3995 240.29 69.2095 240.29 70.2095C240.29 71.2095 241.1 72.0195 242.1 72.0195C243.1 72.0195 243.91 71.2095 243.91 70.2095Z" fill="#929493"/>
<path d="M223.951 70.2095C223.951 69.2095 223.141 68.3995 222.141 68.3995C221.141 68.3995 220.331 69.2095 220.331 70.2095C220.331 71.2095 221.141 72.0195 222.141 72.0195C223.141 72.0195 223.951 71.2095 223.951 70.2095Z" fill="#929493"/>
<path d="M203.99 70.2095C203.99 69.2095 203.18 68.3995 202.18 68.3995C201.18 68.3995 200.37 69.2095 200.37 70.2095C200.37 71.2095 201.18 72.0195 202.18 72.0195C203.18 72.0195 203.99 71.2095 203.99 70.2095Z" fill="#929493"/>
<path d="M184.029 70.2095C184.029 69.2095 183.219 68.3995 182.219 68.3995C181.219 68.3995 180.409 69.2095 180.409 70.2095C180.409 71.2095 181.219 72.0195 182.219 72.0195C183.219 72.0195 184.029 71.2095 184.029 70.2095Z" fill="#929493"/>
<path d="M164.07 70.2095C164.07 69.2095 163.26 68.3995 162.26 68.3995C161.26 68.3995 160.45 69.2095 160.45 70.2095C160.45 71.2095 161.26 72.0195 162.26 72.0195C163.26 72.0195 164.07 71.2095 164.07 70.2095Z" fill="#929493"/>
<path d="M144.109 70.2095C144.109 69.2095 143.299 68.3995 142.299 68.3995C141.299 68.3995 140.489 69.2095 140.489 70.2095C140.489 71.2095 141.299 72.0195 142.299 72.0195C143.299 72.0195 144.109 71.2095 144.109 70.2095Z" fill="#929493"/>
<path d="M124.15 70.2095C124.15 69.2095 123.34 68.3995 122.34 68.3995C121.34 68.3995 120.53 69.2095 120.53 70.2095C120.53 71.2095 121.34 72.0195 122.34 72.0195C123.34 72.0195 124.15 71.2095 124.15 70.2095Z" fill="#929493"/>
<path d="M104.189 70.2095C104.189 69.2095 103.379 68.3995 102.379 68.3995C101.379 68.3995 100.569 69.2095 100.569 70.2095C100.569 71.2095 101.379 72.0195 102.379 72.0195C103.379 72.0195 104.189 71.2095 104.189 70.2095Z" fill="#929493"/>
<path d="M84.2305 70.2095C84.2305 69.2095 83.4205 68.3995 82.4205 68.3995C81.4205 68.3995 80.6105 69.2095 80.6105 70.2095C80.6105 71.2095 81.4205 72.0195 82.4205 72.0195C83.4205 72.0195 84.2305 71.2095 84.2305 70.2095Z" fill="#929493"/>
<path d="M64.2695 70.2095C64.2695 69.2095 63.4595 68.3995 62.4595 68.3995C61.4595 68.3995 60.6495 69.2095 60.6495 70.2095C60.6495 71.2095 61.4595 72.0195 62.4595 72.0195C63.4595 72.0195 64.2695 71.2095 64.2695 70.2095Z" fill="#929493"/>
<path d="M44.3105 70.2095C44.3105 69.2095 43.5005 68.3995 42.5005 68.3995C41.5005 68.3995 40.6906 69.2095 40.6906 70.2095C40.6906 71.2095 41.5005 72.0195 42.5005 72.0195C43.5005 72.0195 44.3105 71.2095 44.3105 70.2095Z" fill="#929493"/>
<path d="M24.3604 70.2095C24.3604 69.2095 23.5504 68.3995 22.5504 68.3995C21.5504 68.3995 20.7404 69.2095 20.7404 70.2095C20.7404 71.2095 21.5504 72.0195 22.5504 72.0195C23.5404 72.0195 24.3604 71.2095 24.3604 70.2095Z" fill="#929493"/>
<path d="M4.40039 70.2096C4.40039 69.2096 3.59039 68.3996 2.59039 68.3996C1.59039 68.3996 0.780365 69.2096 0.780365 70.2096C0.780365 71.2096 1.59039 72.0196 2.59039 72.0196C3.59039 72.0196 4.40039 71.2096 4.40039 70.2096Z" fill="#929493"/>
<path d="M243.91 53.1995C243.91 52.1995 243.1 51.3895 242.1 51.3895C241.1 51.3895 240.29 52.1995 240.29 53.1995C240.29 54.1995 241.1 55.0095 242.1 55.0095C243.1 55.0095 243.91 54.1995 243.91 53.1995Z" fill="#929493"/>
<path d="M223.951 53.1995C223.951 52.1995 223.141 51.3895 222.141 51.3895C221.141 51.3895 220.331 52.1995 220.331 53.1995C220.331 54.1995 221.141 55.0095 222.141 55.0095C223.141 55.0095 223.951 54.1995 223.951 53.1995Z" fill="#929493"/>
<path d="M203.99 53.1995C203.99 52.1995 203.18 51.3895 202.18 51.3895C201.18 51.3895 200.37 52.1995 200.37 53.1995C200.37 54.1995 201.18 55.0095 202.18 55.0095C203.18 55.0095 203.99 54.1995 203.99 53.1995Z" fill="#929493"/>
<path d="M184.029 53.1995C184.029 52.1995 183.219 51.3895 182.219 51.3895C181.219 51.3895 180.409 52.1995 180.409 53.1995C180.409 54.1995 181.219 55.0095 182.219 55.0095C183.219 55.0095 184.029 54.1995 184.029 53.1995Z" fill="#929493"/>
<path d="M164.07 53.1995C164.07 52.1995 163.26 51.3895 162.26 51.3895C161.26 51.3895 160.45 52.1995 160.45 53.1995C160.45 54.1995 161.26 55.0095 162.26 55.0095C163.26 55.0095 164.07 54.1995 164.07 53.1995Z" fill="#929493"/>
<path d="M144.109 53.1995C144.109 52.1995 143.299 51.3895 142.299 51.3895C141.299 51.3895 140.489 52.1995 140.489 53.1995C140.489 54.1995 141.299 55.0095 142.299 55.0095C143.299 55.0095 144.109 54.1995 144.109 53.1995Z" fill="#929493"/>
<path d="M124.15 53.1995C124.15 52.1995 123.34 51.3895 122.34 51.3895C121.34 51.3895 120.53 52.1995 120.53 53.1995C120.53 54.1995 121.34 55.0095 122.34 55.0095C123.34 55.0095 124.15 54.1995 124.15 53.1995Z" fill="#929493"/>
<path d="M104.189 53.1995C104.189 52.1995 103.379 51.3895 102.379 51.3895C101.379 51.3895 100.569 52.1995 100.569 53.1995C100.569 54.1995 101.379 55.0095 102.379 55.0095C103.379 55.0095 104.189 54.1995 104.189 53.1995Z" fill="#929493"/>
<path d="M84.2305 53.1995C84.2305 52.1995 83.4205 51.3895 82.4205 51.3895C81.4205 51.3895 80.6105 52.1995 80.6105 53.1995C80.6105 54.1995 81.4205 55.0095 82.4205 55.0095C83.4205 55.0095 84.2305 54.1995 84.2305 53.1995Z" fill="#929493"/>
<path d="M64.2695 53.1995C64.2695 52.1995 63.4595 51.3895 62.4595 51.3895C61.4595 51.3895 60.6495 52.1995 60.6495 53.1995C60.6495 54.1995 61.4595 55.0095 62.4595 55.0095C63.4595 55.0095 64.2695 54.1995 64.2695 53.1995Z" fill="#929493"/>
<path d="M44.3105 53.1995C44.3105 52.1995 43.5005 51.3895 42.5005 51.3895C41.5005 51.3895 40.6906 52.1995 40.6906 53.1995C40.6906 54.1995 41.5005 55.0095 42.5005 55.0095C43.5005 55.0095 44.3105 54.1995 44.3105 53.1995Z" fill="#929493"/>
<path d="M24.3604 53.1995C24.3604 52.1995 23.5504 51.3895 22.5504 51.3895C21.5504 51.3895 20.7404 52.1995 20.7404 53.1995C20.7404 54.1995 21.5504 55.0095 22.5504 55.0095C23.5404 55.0095 24.3604 54.1995 24.3604 53.1995Z" fill="#929493"/>
<path d="M4.40039 53.1996C4.40039 52.1996 3.59039 51.3896 2.59039 51.3896C1.59039 51.3896 0.780365 52.1996 0.780365 53.1996C0.780365 54.1996 1.59039 55.0096 2.59039 55.0096C3.59039 55.0096 4.40039 54.1996 4.40039 53.1996Z" fill="#929493"/>
<path d="M243.91 36.1995C243.91 35.1995 243.1 34.3895 242.1 34.3895C241.1 34.3895 240.29 35.1995 240.29 36.1995C240.29 37.1995 241.1 38.0095 242.1 38.0095C243.1 38.0095 243.91 37.1895 243.91 36.1995Z" fill="#929493"/>
<path d="M223.951 36.1995C223.951 35.1995 223.141 34.3895 222.141 34.3895C221.141 34.3895 220.331 35.1995 220.331 36.1995C220.331 37.1995 221.141 38.0095 222.141 38.0095C223.141 38.0095 223.951 37.1895 223.951 36.1995Z" fill="#929493"/>
<path d="M203.99 36.1995C203.99 35.1995 203.18 34.3895 202.18 34.3895C201.18 34.3895 200.37 35.1995 200.37 36.1995C200.37 37.1995 201.18 38.0095 202.18 38.0095C203.18 38.0095 203.99 37.1895 203.99 36.1995Z" fill="#929493"/>
<path d="M184.029 36.1995C184.029 35.1995 183.219 34.3895 182.219 34.3895C181.219 34.3895 180.409 35.1995 180.409 36.1995C180.409 37.1995 181.219 38.0095 182.219 38.0095C183.219 38.0095 184.029 37.1895 184.029 36.1995Z" fill="#929493"/>
<path d="M164.07 36.1995C164.07 35.1995 163.26 34.3895 162.26 34.3895C161.26 34.3895 160.45 35.1995 160.45 36.1995C160.45 37.1995 161.26 38.0095 162.26 38.0095C163.26 38.0095 164.07 37.1895 164.07 36.1995Z" fill="#929493"/>
<path d="M144.109 36.1995C144.109 35.1995 143.299 34.3895 142.299 34.3895C141.299 34.3895 140.489 35.1995 140.489 36.1995C140.489 37.1995 141.299 38.0095 142.299 38.0095C143.299 38.0095 144.109 37.1895 144.109 36.1995Z" fill="#929493"/>
<path d="M124.15 36.1995C124.15 35.1995 123.34 34.3895 122.34 34.3895C121.34 34.3895 120.53 35.1995 120.53 36.1995C120.53 37.1995 121.34 38.0095 122.34 38.0095C123.34 38.0095 124.15 37.1895 124.15 36.1995Z" fill="#929493"/>
<path d="M104.189 36.1995C104.189 35.1995 103.379 34.3895 102.379 34.3895C101.379 34.3895 100.569 35.1995 100.569 36.1995C100.569 37.1995 101.379 38.0095 102.379 38.0095C103.379 38.0095 104.189 37.1895 104.189 36.1995Z" fill="#929493"/>
<path d="M84.2305 36.1995C84.2305 35.1995 83.4205 34.3895 82.4205 34.3895C81.4205 34.3895 80.6105 35.1995 80.6105 36.1995C80.6105 37.1995 81.4205 38.0095 82.4205 38.0095C83.4205 38.0095 84.2305 37.1895 84.2305 36.1995Z" fill="#929493"/>
<path d="M64.2695 36.1995C64.2695 35.1995 63.4595 34.3895 62.4595 34.3895C61.4595 34.3895 60.6495 35.1995 60.6495 36.1995C60.6495 37.1995 61.4595 38.0095 62.4595 38.0095C63.4595 38.0095 64.2695 37.1895 64.2695 36.1995Z" fill="#929493"/>
<path d="M44.3105 36.1995C44.3105 35.1995 43.5005 34.3895 42.5005 34.3895C41.5005 34.3895 40.6906 35.1995 40.6906 36.1995C40.6906 37.1995 41.5005 38.0095 42.5005 38.0095C43.5005 38.0095 44.3105 37.1895 44.3105 36.1995Z" fill="#929493"/>
<path d="M24.3604 36.1995C24.3604 35.1995 23.5504 34.3895 22.5504 34.3895C21.5504 34.3895 20.7404 35.1995 20.7404 36.1995C20.7404 37.1995 21.5504 38.0095 22.5504 38.0095C23.5404 38.0095 24.3604 37.1895 24.3604 36.1995Z" fill="#929493"/>
<path d="M4.40039 36.1996C4.40039 35.1996 3.59039 34.3896 2.59039 34.3896C1.59039 34.3896 0.780365 35.1996 0.780365 36.1996C0.780365 37.1996 1.59039 38.0096 2.59039 38.0096C3.59039 38.0096 4.40039 37.1896 4.40039 36.1996Z" fill="#929493"/>
<path d="M243.91 19.1895C243.91 18.1895 243.1 17.3795 242.1 17.3795C241.1 17.3795 240.29 18.1895 240.29 19.1895C240.29 20.1895 241.1 20.9995 242.1 20.9995C243.1 20.9995 243.91 20.1895 243.91 19.1895Z" fill="#929493"/>
<path d="M223.951 19.1895C223.951 18.1895 223.141 17.3795 222.141 17.3795C221.141 17.3795 220.331 18.1895 220.331 19.1895C220.331 20.1895 221.141 20.9995 222.141 20.9995C223.141 20.9995 223.951 20.1895 223.951 19.1895Z" fill="#929493"/>
<path d="M203.99 19.1895C203.99 18.1895 203.18 17.3795 202.18 17.3795C201.18 17.3795 200.37 18.1895 200.37 19.1895C200.37 20.1895 201.18 20.9995 202.18 20.9995C203.18 20.9995 203.99 20.1895 203.99 19.1895Z" fill="#929493"/>
<path d="M182.219 17.3795C181.22 17.3795 180.409 18.1899 180.409 19.1895C180.409 20.1891 181.22 20.9995 182.219 20.9995C183.219 20.9995 184.029 20.1891 184.029 19.1895C184.029 18.1899 183.219 17.3795 182.219 17.3795Z" fill="#929493"/>
<path d="M162.26 17.3795C161.261 17.3795 160.45 18.1899 160.45 19.1895C160.45 20.1891 161.261 20.9995 162.26 20.9995C163.26 20.9995 164.07 20.1891 164.07 19.1895C164.07 18.1899 163.26 17.3795 162.26 17.3795Z" fill="#929493"/>
<path d="M142.299 17.3795C141.3 17.3795 140.489 18.1899 140.489 19.1895C140.489 20.1891 141.3 20.9995 142.299 20.9995C143.299 20.9995 144.109 20.1891 144.109 19.1895C144.109 18.1899 143.299 17.3795 142.299 17.3795Z" fill="#929493"/>
<path d="M124.15 19.1895C124.15 18.1895 123.34 17.3795 122.34 17.3795C121.34 17.3795 120.53 18.1895 120.53 19.1895C120.53 20.1895 121.34 20.9995 122.34 20.9995C123.34 20.9995 124.15 20.1895 124.15 19.1895Z" fill="#929493"/>
<path d="M104.189 19.1895C104.189 18.1895 103.379 17.3795 102.379 17.3795C101.379 17.3795 100.569 18.1895 100.569 19.1895C100.569 20.1895 101.379 20.9995 102.379 20.9995C103.379 20.9995 104.189 20.1895 104.189 19.1895Z" fill="#929493"/>
<path d="M84.2305 19.1895C84.2305 18.1895 83.4205 17.3795 82.4205 17.3795C81.4205 17.3795 80.6105 18.1895 80.6105 19.1895C80.6105 20.1895 81.4205 20.9995 82.4205 20.9995C83.4205 20.9995 84.2305 20.1895 84.2305 19.1895Z" fill="#929493"/>
<path d="M64.2695 19.1895C64.2695 18.1895 63.4595 17.3795 62.4595 17.3795C61.4595 17.3795 60.6495 18.1895 60.6495 19.1895C60.6495 20.1895 61.4595 20.9995 62.4595 20.9995C63.4595 20.9995 64.2695 20.1895 64.2695 19.1895Z" fill="#929493"/>
<path d="M44.3105 19.1895C44.3105 18.1895 43.5005 17.3795 42.5005 17.3795C41.5005 17.3795 40.6906 18.1895 40.6906 19.1895C40.6906 20.1895 41.5005 20.9995 42.5005 20.9995C43.5005 20.9995 44.3105 20.1895 44.3105 19.1895Z" fill="#929493"/>
<path d="M24.3604 19.1895C24.3604 18.1895 23.5504 17.3795 22.5504 17.3795C21.5504 17.3795 20.7404 18.1895 20.7404 19.1895C20.7404 20.1895 21.5504 20.9995 22.5504 20.9995C23.5404 20.9995 24.3604 20.1895 24.3604 19.1895Z" fill="#929493"/>
<path d="M4.40039 19.1896C4.40039 18.1896 3.59039 17.3796 2.59039 17.3796C1.59039 17.3796 0.780365 18.1896 0.780365 19.1896C0.780365 20.1896 1.59039 20.9996 2.59039 20.9996C3.59039 20.9996 4.40039 20.1896 4.40039 19.1896Z" fill="#929493"/>
<path d="M243.91 2.17949C243.91 1.17949 243.1 0.369492 242.1 0.369491C241.1 0.369491 240.29 1.17949 240.29 2.17949C240.29 3.17949 241.1 3.9895 242.1 3.9895C243.1 3.9895 243.91 3.17949 243.91 2.17949Z" fill="#929493"/>
<path d="M223.951 2.17949C223.951 1.17949 223.141 0.369492 222.141 0.369491C221.141 0.369491 220.331 1.17949 220.331 2.17949C220.331 3.17949 221.141 3.9895 222.141 3.9895C223.141 3.9895 223.951 3.17949 223.951 2.17949Z" fill="#929493"/>
<path d="M203.99 2.17949C203.99 1.17949 203.18 0.369492 202.18 0.369491C201.18 0.369491 200.37 1.17949 200.37 2.17949C200.37 3.17949 201.18 3.9895 202.18 3.9895C203.18 3.9895 203.99 3.17949 203.99 2.17949Z" fill="#929493"/>
<path d="M184.029 2.17949C184.029 1.17949 183.219 0.369492 182.219 0.369491C181.219 0.369491 180.409 1.17949 180.409 2.17949C180.409 3.17949 181.219 3.9895 182.219 3.9895C183.219 3.9895 184.029 3.17949 184.029 2.17949Z" fill="#929493"/>
<path d="M164.07 2.17949C164.07 1.17949 163.26 0.369492 162.26 0.369491C161.26 0.369491 160.45 1.17949 160.45 2.17949C160.45 3.17949 161.26 3.9895 162.26 3.9895C163.26 3.9895 164.07 3.17949 164.07 2.17949Z" fill="#929493"/>
<path d="M144.109 2.17949C144.109 1.17949 143.299 0.369492 142.299 0.369491C141.299 0.369491 140.489 1.17949 140.489 2.17949C140.489 3.17949 141.299 3.9895 142.299 3.9895C143.299 3.9895 144.109 3.17949 144.109 2.17949Z" fill="#929493"/>
<path d="M124.15 2.17949C124.15 1.17949 123.34 0.369492 122.34 0.369491C121.34 0.369491 120.53 1.17949 120.53 2.17949C120.53 3.17949 121.34 3.9895 122.34 3.9895C123.34 3.9895 124.15 3.17949 124.15 2.17949Z" fill="#929493"/>
<path d="M104.189 2.17949C104.189 1.17949 103.379 0.369492 102.379 0.369491C101.379 0.369491 100.569 1.17949 100.569 2.17949C100.569 3.17949 101.379 3.9895 102.379 3.9895C103.379 3.9895 104.189 3.17949 104.189 2.17949Z" fill="#929493"/>
<path d="M84.2305 2.17949C84.2305 1.17949 83.4205 0.369492 82.4205 0.369491C81.4205 0.369491 80.6105 1.17949 80.6105 2.17949C80.6105 3.17949 81.4205 3.9895 82.4205 3.9895C83.4205 3.9895 84.2305 3.17949 84.2305 2.17949Z" fill="#929493"/>
<path d="M64.2695 2.17949C64.2695 1.17949 63.4595 0.369492 62.4595 0.369491C61.4595 0.369491 60.6495 1.17949 60.6495 2.17949C60.6495 3.17949 61.4595 3.9895 62.4595 3.9895C63.4595 3.9895 64.2695 3.17949 64.2695 2.17949Z" fill="#929493"/>
<path d="M44.3105 2.17949C44.3105 1.17949 43.5005 0.369492 42.5005 0.369491C41.5005 0.369491 40.6906 1.17949 40.6906 2.17949C40.6906 3.17949 41.5005 3.9895 42.5005 3.9895C43.5005 3.9895 44.3105 3.17949 44.3105 2.17949Z" fill="#929493"/>
<path d="M24.3604 2.17949C24.3604 1.17949 23.5504 0.369492 22.5504 0.369491C21.5504 0.369491 20.7404 1.17949 20.7404 2.17949C20.7404 3.17949 21.5504 3.9895 22.5504 3.9895C23.5404 3.9895 24.3604 3.17949 24.3604 2.17949Z" fill="#929493"/>
<path d="M4.40039 2.17955C4.40039 1.17955 3.59039 0.369553 2.59039 0.369552C1.59039 0.369552 0.780365 1.17955 0.780365 2.17955C0.780365 3.17955 1.59039 3.98956 2.59039 3.98956C3.59039 3.98956 4.40039 3.17955 4.40039 2.17955Z" fill="#929493"/>
</svg>
