<svg width="308" height="306" viewBox="0 0 308 306" fill="none" xmlns="http://www.w3.org/2000/svg">
<path d="M66.8394 297.9L62.8394 305.31C62.8394 305.31 48.9994 286.63 50.5594 259.64C51.8594 237.27 69.3794 223.59 76.8694 213.02C85.1494 201.32 83.6594 184.96 79.9294 172.7C76.1894 160.44 68.9894 135.88 70.8494 121.46H72.9694C72.9694 121.46 71.1194 131.87 79.6594 160.97C88.1994 190.07 85.7994 206.62 79.1294 215.16C72.4594 223.7 59.4194 237.18 56.7094 246.49C54.0494 255.62 48.4395 264.84 53.5095 279.24C58.5795 293.64 67.2394 299.61 67.2394 299.61" fill="#455A64"/>
<path d="M26.6901 275.691L21.0701 281.451C21.0701 281.451 12.0601 260.961 19.9201 236.731C26.4401 216.651 46.6201 208.551 56.3601 200.781C67.1301 192.181 69.5401 176.891 68.8101 164.771C68.0801 152.651 66.8701 128.451 72.0701 115.771L74.1201 116.301C74.1201 116.301 69.8801 125.331 71.3101 154.001C72.7401 182.671 66.5201 197.161 58.0501 203.291C49.5801 209.411 33.7901 218.451 28.9701 226.261C24.2501 233.921 16.6401 240.931 18.1701 255.331C19.6901 269.73 26.6701 277.341 26.6701 277.341" fill="#E0E0E0"/>
<path d="M114.499 0.780273L175.109 92.0303C175.109 92.0303 119.219 82.6003 71.3994 122.67C71.3994 122.67 56.9194 64.7603 4.39937 49.2703L114.499 0.780273Z" fill="#FFD74C"/>
<path d="M34.4594 36.0205C34.4594 36.0305 34.5794 36.0805 34.8294 36.1705C35.0994 36.2605 35.4695 36.3905 35.9395 36.5505C36.4395 36.7205 37.0395 36.9205 37.7495 37.1505C38.4594 37.4105 39.2594 37.7505 40.1694 38.1205C43.7594 39.6405 48.9095 42.1905 54.2895 46.7205C59.6995 51.1805 65.2794 57.5805 69.9894 65.6305C72.3694 69.6405 74.5094 74.0605 76.4194 78.7805C78.2994 83.5005 79.9695 88.5405 81.1095 93.8105L81.2094 94.2705L81.5495 93.9505C82.2695 93.2705 83.0495 92.5405 83.8295 91.8005C92.0995 84.2505 101.749 79.2705 110.799 75.9205C119.899 72.5705 128.509 70.8205 135.759 69.7905C143.029 68.7805 148.969 68.5005 153.069 68.4305C155.119 68.4005 156.709 68.4205 157.789 68.4405C158.309 68.4505 158.719 68.4605 159.019 68.4705C159.299 68.4805 159.439 68.4805 159.439 68.4705C159.439 68.4605 159.299 68.4405 159.019 68.4205C158.719 68.4005 158.309 68.3705 157.789 68.3405C156.709 68.2905 155.109 68.2305 153.059 68.2405C148.949 68.2505 142.989 68.4705 135.699 69.4405C128.419 70.4205 119.779 72.1505 110.629 75.4805C101.519 78.8205 91.8094 83.8205 83.4695 91.4205C82.6795 92.1605 81.8995 92.9005 81.1694 93.5805L81.6095 93.7205C80.4494 88.3905 78.7695 83.3505 76.8795 78.6005C74.9595 73.8605 72.7895 69.4305 70.3895 65.4005C65.6294 57.3205 59.9795 50.9005 54.5095 46.4505C49.0695 41.9305 43.8595 39.4105 40.2295 37.9405C39.3095 37.5905 38.4995 37.2605 37.7895 37.0105C37.0695 36.7905 36.4594 36.6105 35.9594 36.4505C35.4794 36.3105 35.1094 36.2005 34.8294 36.1205C34.5994 36.0505 34.4694 36.0205 34.4594 36.0205Z" fill="white"/>
<g opacity="0.4">
<g opacity="0.4">
<path opacity="0.4" d="M114.5 0.780273L148.58 52.0803C148.58 52.0803 119.56 47.2403 89.7601 68.4603C89.7601 68.4603 83.8901 40.3903 54.2501 27.3203L114.5 0.780273Z" fill="white"/>
</g>
</g>
<path d="M165.27 85.2901C165.39 85.2101 154.35 68.0401 140.61 46.9301C126.86 25.8301 115.63 8.78014 115.51 8.86014C115.39 8.94014 126.43 26.1101 140.17 47.2201C153.91 68.3201 165.15 85.3701 165.27 85.2901Z" fill="#263238"/>
<path d="M71.4 122.67C71.54 122.72 80.77 96.3 92.02 63.6701C103.27 31.0201 112.28 4.53005 112.14 4.48005C112 4.43005 102.77 30.8501 91.52 63.4901C80.27 96.1201 71.26 122.62 71.4 122.67Z" fill="#263238"/>
<path d="M17.5295 47.0803C17.5895 47.2103 38.8195 37.7803 64.9395 26.0203C91.0695 14.2603 112.2 4.62033 112.14 4.48033C112.08 4.35033 90.8595 13.7803 64.7195 25.5403C38.5995 37.3003 17.4695 46.9503 17.5295 47.0803Z" fill="#263238"/>
<path d="M77.7895 104.12C77.8895 104.23 84.3295 98.5703 92.1795 91.4803C100.03 84.3903 106.32 78.5603 106.22 78.4503C106.12 78.3403 99.6795 84.0003 91.8295 91.0903C83.9795 98.1803 77.6995 104.02 77.7895 104.12Z" fill="#263238"/>
<path d="M-1.83052 253.53C-1.83052 253.53 -1.9305 253.39 -2.1505 253.13C-2.3805 252.88 -2.69051 252.49 -3.07051 251.95C-3.81051 250.88 -4.7905 249.16 -5.3405 246.72C-5.9005 244.31 -6.01051 241.16 -4.9705 237.77C-3.9705 234.38 -1.87051 230.81 1.20949 227.6C4.28949 224.39 8.3595 221.5 13.2495 219.61C15.6895 218.68 18.3195 217.96 21.0895 217.61C23.8495 217.26 26.7395 217.28 29.6695 217.59C35.5395 218.14 41.6195 219.74 48.1295 219.83C54.6295 219.98 61.3695 217.85 66.9895 213.87C72.6395 209.92 76.8695 204.27 78.9295 198.1C81.0395 191.93 81.1295 185.5 80.4395 179.62C79.7095 173.72 78.3295 168.23 76.9795 163.14C75.6295 158.05 74.2895 153.33 73.3095 148.96C72.3195 144.6 71.6495 140.6 71.3995 137.06C71.1495 133.52 71.2595 130.45 71.6195 127.98C71.9595 125.51 72.4395 123.62 72.8195 122.36C73.0195 121.75 73.1695 121.27 73.2795 120.93C73.3795 120.61 73.4195 120.44 73.4195 120.44C73.4195 120.44 73.3495 120.6 73.2295 120.92C73.1095 121.26 72.9395 121.73 72.7195 122.33C72.3095 123.58 71.7895 125.47 71.4195 127.95C71.0295 130.43 70.8995 133.52 71.1095 137.08C71.3295 140.64 71.9795 144.66 72.9495 149.04C73.9095 153.42 75.2295 158.15 76.5695 163.25C77.8995 168.34 79.2595 173.81 79.9695 179.67C80.6495 185.51 80.5395 191.85 78.4495 197.93C76.4295 203.99 72.2595 209.55 66.6895 213.44C61.1495 217.35 54.5395 219.46 48.1395 219.31C41.7195 219.23 35.6495 217.64 29.7295 217.1C26.7695 216.8 23.8495 216.79 21.0395 217.15C18.2395 217.51 15.5695 218.24 13.0995 219.2C8.1595 221.14 4.04951 224.08 0.949509 227.34C-2.15049 230.6 -4.2505 234.23 -5.24049 237.68C-6.26049 241.13 -6.1205 244.33 -5.5305 246.76C-4.94051 249.22 -3.9305 250.94 -3.1505 252.01C-2.3705 253.07 -1.83052 253.53 -1.83052 253.53Z" fill="#263238"/>
<path d="M112.14 4.48047C112.14 4.48047 112.08 4.79047 111.98 5.39047C111.88 6.01047 111.74 6.91047 111.55 8.08047C111.18 10.4405 110.64 13.9305 110 18.4305C108.74 27.4205 106.82 40.4605 105.99 56.7005C105.6 64.8205 105.6 73.7405 106.34 83.2805C107.07 92.8205 108.54 102.95 110.7 113.47C110.98 114.78 111.26 116.11 111.54 117.44C111.69 118.11 111.81 118.77 111.98 119.44C112.15 120.12 112.37 120.77 112.58 121.43C113.46 124.04 114.45 126.65 115.46 129.27C116.49 131.89 117.53 134.53 118.58 137.2C119.12 138.53 119.66 139.87 120.2 141.21L121.02 143.23L121.44 144.25L121.92 145.24C124.41 150.53 127.28 155.79 130.73 160.76C134.19 165.71 138.2 170.47 143.07 174.36L144.89 175.81L146.8 177.13L147.75 177.79L148.74 178.39L150.73 179.57C153.46 180.99 156.23 182.31 159.12 183.23C164.88 185.17 170.81 186.16 176.66 186.54C179.59 186.76 182.5 186.71 185.37 186.59C188.24 186.39 191.08 186.12 193.86 185.62C199.43 184.69 204.76 183.21 209.82 181.37C212.35 180.45 214.82 179.48 217.22 178.42C219.64 177.43 221.95 176.2 224.15 174.91C228.54 172.3 232.58 169.46 236.68 167.03C240.75 164.56 244.91 162.52 249.09 161.11C253.27 159.7 257.48 158.93 261.52 158.78C269.62 158.39 276.95 159.84 282.97 162.07C289.01 164.3 293.8 167.23 297.45 169.9C301.1 172.59 303.65 175.04 305.31 176.76C306.15 177.61 306.74 178.3 307.15 178.76C307.55 179.22 307.76 179.46 307.76 179.46C307.76 179.46 307.58 179.2 307.2 178.72C306.81 178.25 306.23 177.54 305.4 176.68C303.76 174.94 301.23 172.46 297.58 169.73C293.94 167.02 289.15 164.06 283.08 161.79C277.04 159.52 269.67 158.03 261.51 158.4C257.44 158.54 253.19 159.3 248.97 160.71C244.75 162.12 240.56 164.17 236.47 166.64C232.35 169.08 228.3 171.92 223.93 174.5C221.74 175.78 219.47 176.98 217.05 177.97C214.66 179.02 212.19 179.99 209.67 180.9C204.63 182.72 199.32 184.19 193.79 185.11C191.03 185.61 188.21 185.87 185.35 186.07C182.49 186.19 179.6 186.24 176.7 186.02C170.9 185.64 164.99 184.64 159.3 182.73C156.43 181.83 153.69 180.51 150.99 179.11L149.02 177.94L148.04 177.35L147.1 176.7L145.21 175.39L143.4 173.95C138.58 170.09 134.6 165.38 131.16 160.46C127.73 155.52 124.88 150.29 122.39 145.02L121.92 144.04L121.51 143.04L120.69 141.03C120.15 139.69 119.61 138.35 119.07 137.02C118.02 134.35 116.97 131.71 115.94 129.1C114.93 126.48 113.94 123.88 113.06 121.28C112.85 120.63 112.63 119.98 112.47 119.33C112.3 118.68 112.18 118 112.03 117.34C111.75 116.01 111.47 114.69 111.19 113.38C109.02 102.87 107.53 92.7605 106.79 83.2505C106.03 73.7405 106.01 64.8305 106.38 56.7205C107.16 40.5005 109.03 27.4605 110.22 18.4605C110.85 13.9705 111.34 10.4805 111.68 8.10047C111.84 6.92047 111.97 6.03047 112.06 5.40047C112.11 4.80047 112.14 4.48047 112.14 4.48047Z" fill="#263238"/>
</svg>
