<svg width="151" height="195" viewBox="0 0 151 195" fill="none" xmlns="http://www.w3.org/2000/svg">
<g clip-path="url(#clip0_1420_5523)">
<path d="M54.9565 0.015625C65.0059 2.14871 73.5348 9.28349 78.8376 18.0365C84.1404 26.7527 86.5508 36.9768 87.4037 47.1641C89.1095 66.8399 81.9896 88.4281 73.2382 106.155C54.0665 95.2687 45.315 71.3635 41.6439 58.9696C35.8961 39.3305 37.4165 0.420175 54.9565 0.015625Z" fill="#FFD74C"/>
<path d="M98.6779 134.105C93.8572 123.771 96.008 110.936 102.942 101.815C109.84 92.6942 120.965 87.2144 132.386 85.8536C137.652 85.2284 143.585 85.5962 147.404 89.2371C151.001 92.6574 151.78 98.2476 150.408 102.992C148.999 107.736 145.773 111.708 142.139 115.092C129.753 126.676 115.625 135.687 98.6779 134.105Z" fill="#FFD74C"/>
<path d="M88.3299 182.431C88.0704 182.431 87.7737 177.466 87.9962 169.375C88.1074 165.329 88.812 160.438 90.2582 155.289C91.7045 150.177 93.1878 144.476 95.6723 138.739C100.456 127.228 107.872 118.217 114.325 113.216C117.551 110.678 120.443 109.06 122.483 108.03C124.56 107.074 125.746 106.669 125.82 106.817C126.006 107.184 121.37 109.207 115.326 114.429C109.319 119.615 102.384 128.442 97.7118 139.622C95.3385 145.175 93.7811 150.802 92.2236 155.877C90.7032 160.953 89.8503 165.55 89.5537 169.522C88.9603 177.429 88.7008 182.431 88.3299 182.431Z" fill="white"/>
<path d="M56.4401 29.768C56.5884 29.7312 57.293 31.9747 58.4055 36.0937C59.5179 40.176 61.0383 46.1339 62.8924 53.5261C66.5636 68.2738 71.3473 88.6852 76.1309 111.34C80.8775 134.032 84.6228 154.664 86.9961 169.669C88.1827 177.171 89.0727 183.24 89.5919 187.469C90.1481 191.698 90.3706 194.015 90.2223 194.052C90.0739 194.089 89.5548 191.772 88.739 187.616C87.8861 183.056 86.7736 177.098 85.4386 169.963C82.6574 155.031 78.6896 134.473 73.943 111.818C69.0481 89.3839 64.6724 69.0829 61.335 53.8939C59.8146 46.7591 58.5167 40.8748 57.5526 36.3144C56.6997 32.1218 56.2918 29.8048 56.4401 29.768Z" fill="white"/>
<path d="M75.5375 146.388C64.079 125.204 41.7183 110.236 17.6517 107.588C11.496 106.889 4.07951 107.625 1.11291 112.994C-1.85369 118.363 1.5579 125.02 5.5999 129.654C22.287 149.036 51.5081 156.685 75.6859 148.006" fill="#FFD74C"/>
<path d="M27.1444 122.778C27.1815 122.631 28.4052 122.815 30.6302 123.256C32.8551 123.698 35.97 124.507 39.8266 125.61C47.4285 128.001 58.1825 131.789 67.9722 139.512C72.8301 143.374 76.7979 147.86 79.7274 152.347C82.6569 156.871 84.3627 161.395 85.5864 165.219C86.6618 169.081 87.2922 172.281 87.4776 174.524C87.7001 176.767 87.7743 177.981 87.626 177.981C87.181 178.055 86.6618 173.126 84.1031 165.697C82.7311 162.02 80.9511 157.717 78.0216 153.451C75.1292 149.184 71.3097 144.918 66.6002 141.241C57.1812 133.812 46.724 129.876 39.3445 127.118C31.8539 124.507 27.0702 123.146 27.1444 122.778Z" fill="white"/>
</g>
<defs>
<clipPath id="clip0_1420_5523">
<rect width="151" height="194" fill="white" transform="translate(0.000976562 0.015625)"/>
</clipPath>
</defs>
</svg>
