<svg width="161" height="283" viewBox="0 0 161 283" fill="none" xmlns="http://www.w3.org/2000/svg">
<path d="M153.619 22.7902C153.809 23.3402 151.969 60.9402 149.339 64.6202C146.709 68.3002 120.159 80.2802 120.159 80.2802L113.059 66.4602L136.199 54.1002L143.299 20.4502L153.619 22.7902Z" fill="#FFBE9D"/>
<path d="M107.359 65.3901L126.379 59.3501L130.669 76.0701L118.289 82.3101L107.359 65.3901Z" fill="#FFD74C"/>
<path d="M114.07 175.23C114.47 175.83 128.56 200.44 129.95 204.6C131.34 208.77 132.13 273.87 132.13 273.87L116.26 272.91C116.26 272.91 109.51 242.12 109.31 232.39C109.11 222.67 109.31 212.94 109.31 212.94L87.0799 182.97L114.07 175.23Z" fill="#FFBE9D"/>
<path d="M80.8096 186.13C80.8096 186.13 72.8696 215.3 69.0996 218.88C65.3296 222.45 14.5196 245.08 14.5196 244.28C14.5196 243.49 9.71957 229.92 9.71957 229.92C9.71957 229.92 39.1296 208.75 41.9096 207.16C44.6896 205.57 53.0196 201.8 53.0196 201.8L56.1996 181.36L80.8096 186.13Z" fill="#FFBE9D"/>
<path d="M99.46 154.76C99.46 155.36 80.6 208.16 80.6 208.16L47.65 194.51C47.65 194.51 53.56 173.02 55.79 166.57C58.46 158.82 59.5 148.59 62.46 145.61C65.42 142.63 67.11 139.69 67.11 139.69L99.46 154.76Z" fill="#455A64"/>
<path d="M110.94 154.581C110.75 155.081 129.11 194.171 129.11 194.171L95.8004 204.831L86.1903 186.471L91.5204 159.951L110.94 154.581Z" fill="#455A64"/>
<path d="M47.6599 194.51C47.6499 194.53 47.8799 194.64 48.3099 194.83C48.7899 195.04 49.4199 195.31 50.2099 195.65C51.9199 196.36 54.3099 197.36 57.2499 198.59C63.2699 201.05 71.5299 204.42 80.7199 208.17L80.9699 208.27L81.0599 208.01C81.2199 207.55 81.3899 207.05 81.5599 206.55C84.8499 196.81 87.8299 188 90.0099 181.56C91.0499 178.39 91.8999 175.81 92.5099 173.97C92.7799 173.11 92.9999 172.42 93.1699 171.9C93.3099 171.42 93.3799 171.17 93.3599 171.17C93.3399 171.17 93.2399 171.41 93.0699 171.87C92.8799 172.38 92.6299 173.06 92.3199 173.91C91.6699 175.74 90.7699 178.31 89.6599 181.45C87.4499 187.88 84.4199 196.67 81.0699 206.39C80.8999 206.89 80.7299 207.38 80.5699 207.85L80.9099 207.69C71.6999 204 63.4199 200.68 57.3799 198.26C54.4199 197.1 51.9999 196.15 50.2799 195.48C49.4799 195.18 48.8299 194.93 48.3399 194.75C47.8999 194.57 47.6599 194.5 47.6599 194.51Z" fill="#263238"/>
<path d="M60.5799 161.901C60.5499 161.951 61.4199 162.521 63.0199 163.001C64.5999 163.481 66.9699 163.771 69.4799 163.231C71.9899 162.691 74.0199 161.451 75.2699 160.351C76.5299 159.261 77.0899 158.371 77.0399 158.341C76.9699 158.281 76.3199 159.071 75.0399 160.061C73.7699 161.051 71.7899 162.191 69.3699 162.711C66.9599 163.231 64.6799 163.011 63.1199 162.631C61.5299 162.271 60.6099 161.821 60.5799 161.901Z" fill="#263238"/>
<path d="M108.86 162.33C108.75 162.4 109.76 163.83 111.69 164.69C113.61 165.57 115.36 165.38 115.33 165.25C115.34 165.09 113.69 165.04 111.9 164.22C110.1 163.42 108.98 162.22 108.86 162.33Z" fill="#263238"/>
<path d="M118.85 8.11033C116.59 1.35033 108.59 0.410326 102.3 0.0903261C96.0096 -0.219674 89.6296 2.12033 85.0396 6.42033C76.5996 14.3203 74.7296 27.5903 65.9396 35.1003C63.2896 37.3603 60.0796 39.0203 57.9096 41.7503C55.2096 45.1503 54.5296 49.7103 54.2596 54.0403C53.9796 58.3703 53.9896 62.8403 52.3496 66.8603C50.7096 70.8803 46.8796 74.4003 42.5396 74.0903C41.4496 74.0103 40.3696 73.7003 39.2896 73.8303C38.2096 73.9603 37.0796 74.7403 37.0596 75.8303C37.0496 76.6203 37.6096 77.2903 38.1796 77.8303C39.8796 79.4403 41.9896 80.6303 44.2496 81.2603C45.1096 81.5003 46.0696 81.7203 46.5596 82.4603C47.1796 83.3903 46.6696 84.7403 45.7696 85.4003C44.8696 86.0703 43.6996 86.2303 42.5896 86.3703C50.9396 91.6703 62.1296 93.6203 70.6996 88.6903C76.6396 85.2603 80.4396 79.1603 85.1696 74.2003C94.5796 64.3203 114.6 67.6103 123.01 56.8703C132.16 45.2003 134.28 11.3403 118.85 8.11033Z" fill="#263238"/>
<path d="M125.279 21.7704C124.939 14.3504 117.079 6.82039 109.689 7.48039L85.6692 11.6304L85.6792 15.6204L86.3192 65.0004C86.3192 65.0004 88.0992 80.9504 101.549 80.2704C113.629 79.6604 113.179 66.9004 113.179 66.8904L112.969 57.5804C112.969 57.5804 122.719 57.3504 124.889 45.0404C125.979 38.9104 125.659 30.0104 125.279 21.7704Z" fill="#FFBE9D"/>
<path d="M119.879 32.3004C119.899 33.1404 119.199 33.8404 118.329 33.8704C117.459 33.9004 116.739 33.2504 116.719 32.4104C116.699 31.5704 117.399 30.8704 118.269 30.8404C119.139 30.8104 119.859 31.4604 119.879 32.3004Z" fill="#263238"/>
<path d="M122.989 28.3004C122.789 28.5004 121.609 27.6004 119.899 27.5704C118.199 27.5204 116.929 28.3804 116.749 28.1604C116.659 28.0704 116.869 27.7004 117.419 27.3104C117.959 26.9204 118.879 26.5604 119.949 26.5804C121.009 26.6004 121.899 27.0104 122.399 27.4204C122.919 27.8304 123.089 28.2104 122.989 28.3004Z" fill="#263238"/>
<path d="M105.029 31.6602C105.049 32.5002 104.349 33.2002 103.479 33.2302C102.609 33.2602 101.889 32.6102 101.869 31.7702C101.849 30.9302 102.549 30.2302 103.419 30.2002C104.289 30.1802 105.019 30.8302 105.029 31.6602Z" fill="#263238"/>
<path d="M107.309 28.3004C107.109 28.5004 105.919 27.6004 104.219 27.5704C102.519 27.5204 101.249 28.3804 101.069 28.1604C100.979 28.0704 101.189 27.7004 101.739 27.3104C102.279 26.9204 103.199 26.5604 104.259 26.5804C105.319 26.6004 106.209 27.0104 106.709 27.4204C107.229 27.8304 107.399 28.2104 107.309 28.3004Z" fill="#263238"/>
<path d="M112.219 40.7706C112.209 40.6906 113.279 40.5406 114.999 40.3806C115.439 40.3506 115.849 40.2806 115.929 40.0306C116.039 39.7606 115.869 39.3706 115.669 38.9306C115.279 38.0306 114.879 37.0906 114.449 36.1106C113.989 35.0806 111.759 29.2906 111.739 28.7406C111.929 28.6806 113.459 31.8906 115.139 35.9006C115.549 36.8906 115.929 37.8306 116.299 38.7406C116.449 39.1606 116.729 39.6406 116.489 40.1906C116.369 40.4606 116.039 40.6606 115.759 40.7206C115.479 40.7906 115.229 40.7906 115.019 40.8006C113.299 40.8506 112.229 40.8506 112.219 40.7706Z" fill="#263238"/>
<path d="M113.06 57.6505C113.06 57.6505 104.74 58.0404 96.5996 52.9604C96.5996 52.9604 100.68 61.6504 113.06 60.7104V57.6505Z" fill="#EB996E"/>
<path d="M107.109 40.8302C107.389 40.8202 107.359 42.6702 108.919 44.0102C110.479 45.3502 112.449 45.1802 112.459 45.4402C112.479 45.5602 112.009 45.7902 111.179 45.8002C110.359 45.8102 109.179 45.5302 108.219 44.7102C107.269 43.8902 106.869 42.8102 106.819 42.0502C106.769 41.2702 106.979 40.8202 107.109 40.8302Z" fill="#263238"/>
<path d="M107.629 22.5503C107.419 23.0703 105.969 22.6603 104.189 22.7503C102.409 22.7903 100.929 23.3203 100.749 22.8103C100.669 22.5703 100.969 22.0904 101.599 21.6304C102.219 21.1704 103.179 20.7703 104.239 20.7303C105.309 20.6903 106.239 21.0203 106.839 21.4303C107.439 21.8403 107.719 22.3003 107.629 22.5503Z" fill="#263238"/>
<path d="M122.979 22.6703C122.689 23.1503 121.429 22.7403 119.949 22.8003C118.469 22.8003 117.229 23.2603 116.919 22.8003C116.779 22.5703 116.949 22.1003 117.479 21.6403C117.999 21.1803 118.879 20.7703 119.899 20.7503C120.919 20.7303 121.819 21.0903 122.369 21.5303C122.909 21.9703 123.109 22.4303 122.979 22.6703Z" fill="#263238"/>
<path d="M80.5293 19.5504L81.0493 19.5804C80.9493 16.4704 81.2993 13.4204 82.5493 10.6104C84.7893 5.58044 89.6293 2.26043 94.7193 1.01043C99.7993 -0.239569 105.129 0.340434 110.249 1.42043C112.659 1.93043 115.469 2.97044 116.079 5.52044C116.389 6.83044 115.999 8.21044 115.479 9.44044C113.079 15.1904 107.719 19.4004 101.869 20.1404C100.539 20.3104 99.1093 20.3404 97.9993 21.1304C96.6293 22.1004 95.7493 23.7304 95.2193 25.4404C95.0493 26.1104 94.9093 26.8704 94.8093 27.7404C94.5493 29.9704 94.7193 32.2604 94.0693 34.4004C93.2693 37.0604 90.7593 39.1404 90.6393 41.9204C90.4493 46.3604 96.3693 49.2204 96.2693 53.6604C96.2293 55.6004 95.0193 57.2804 94.0293 58.9404C93.0393 60.6004 92.2193 62.6504 92.9893 64.4304C93.3893 65.3504 94.1593 66.0604 94.6593 66.9304C96.2893 69.7604 94.3593 73.7104 91.2993 74.8404C88.2393 75.9704 84.6793 74.7404 82.3093 72.4904C79.9393 70.2504 78.5593 67.1604 77.5093 64.0704C72.5493 49.6304 73.6793 33.2004 80.5293 19.5504Z" fill="#263238"/>
<path d="M37.1794 64.6201C37.1694 64.6201 37.1894 64.7001 37.2494 64.8601C37.2894 65.0201 37.3794 65.2501 37.5494 65.5401C37.8594 66.1101 38.5094 66.8901 39.6394 67.4501C40.7494 67.9901 42.3394 68.3501 44.0794 67.9001C45.8194 67.4501 47.5194 66.1101 48.6994 64.2201C49.9094 62.3401 50.5794 59.9201 50.8594 57.3501C51.1694 54.7701 51.1394 52.0001 51.6494 49.1701C51.9094 47.7601 52.3094 46.3401 52.9694 45.0001C53.6294 43.6701 54.5894 42.4601 55.8294 41.5401C58.2994 39.6401 61.5094 38.7301 64.3994 36.9201C65.8394 36.0101 67.0894 34.8201 68.0694 33.4901C69.0494 32.1501 69.7894 30.6901 70.3994 29.2201C71.6094 26.2701 72.3494 23.3001 73.2994 20.5801C73.7694 19.2201 74.2894 17.9001 74.9094 16.7001C75.5194 15.4901 76.3394 14.4401 77.1294 13.4401C78.7794 11.4801 80.5594 9.86014 82.2494 8.49014C85.6494 5.74014 88.7594 3.99013 90.9794 2.98013C92.0894 2.47013 92.9894 2.15013 93.5994 1.95013C93.8794 1.86013 94.1094 1.79013 94.2994 1.73013C94.4594 1.68013 94.5394 1.65014 94.5294 1.64014C94.5294 1.64014 93.1694 1.84014 90.8994 2.80014C88.6394 3.76014 85.4794 5.48013 82.0194 8.21013C80.2994 9.58013 78.4894 11.2001 76.7994 13.1701C75.9794 14.1801 75.1394 15.2401 74.4994 16.4901C73.8494 17.7201 73.3194 19.0501 72.8394 20.4201C71.8694 23.1701 71.1194 26.1301 69.9194 29.0301C69.3194 30.4701 68.5994 31.9001 67.6394 33.1901C66.6894 34.4801 65.4994 35.6101 64.1094 36.4901C61.3194 38.2401 58.0794 39.1601 55.5094 41.1401C54.2194 42.1001 53.1894 43.3901 52.5094 44.7801C51.8194 46.1701 51.4194 47.6401 51.1594 49.0801C50.6494 51.9701 50.6994 54.7501 50.4094 57.3001C50.1594 59.8501 49.5194 62.1901 48.3694 64.0201C47.2494 65.8601 45.6294 67.1601 43.9894 67.6101C42.3394 68.0601 40.7994 67.7501 39.7094 67.2501C38.6094 66.7401 37.9594 66.0101 37.6294 65.4701C37.2894 64.9501 37.2194 64.6101 37.1794 64.6201Z" fill="#263238"/>
<path d="M72.2993 125.02C74.6693 117.63 78.6093 96.9405 79.3093 88.3005C80.0093 79.6505 85.6093 59.0305 93.2493 59.4205C93.3293 59.4205 93.3993 59.4305 93.4793 59.4305C113.039 60.1805 120.079 73.6005 121.739 89.7005L121.659 100.381C121.739 115.191 118.149 137.94 117.619 145.81C117.049 154.32 115.079 159.71 115.079 159.71C115.079 159.71 98.2393 162.391 89.7293 158.761C81.2193 155.131 74.5293 155.97 69.6493 152.21C64.7693 148.45 60.8693 143.84 60.8693 143.84C60.8693 143.84 69.9293 132.42 72.2993 125.02Z" fill="#FFD74C"/>
<g opacity="0.3">
<g opacity="0.3">
<g opacity="0.3">
<path opacity="0.3" d="M89.779 80.4507C100.839 90.5207 105.239 107.091 117.949 114.971L120.959 116.731C118.139 120.991 111.999 122.661 107.409 120.401C104.359 118.901 102.219 116.051 100.219 113.301C96.689 108.461 93.169 103.541 90.929 97.9907C88.689 92.4407 87.829 86.1207 89.779 80.4507Z" fill="black"/>
</g>
</g>
</g>
<path d="M91.6796 60.1804C92.1196 60.1704 103.62 60.1804 108.13 66.3204C112.11 71.7304 119.56 90.5804 119.56 90.5804L95.3096 100.93C95.3096 100.93 89.6996 89.6804 87.3596 82.3104C84.7296 73.9604 86.6596 60.3204 91.6796 60.1804Z" fill="#FFD74C"/>
<path d="M142.209 91.2407L121.119 100.231L115.779 92.2007L97.9693 99.8007C97.9693 99.8007 105.559 118.211 113.859 119.591C122.159 120.971 149.819 98.5007 149.819 98.5007L142.209 91.2407Z" fill="#FFBE9D"/>
<path d="M146.889 77.2704C146.889 77.2704 150.239 76.2904 150.379 79.9204C150.379 79.9204 153.869 79.3604 153.869 82.7104C153.869 82.7104 157.079 83.1304 156.519 86.0604C156.519 86.0604 159.029 87.7304 157.909 90.6604C156.789 93.5904 149.819 98.5004 149.819 98.5004L142.209 91.2404C142.209 91.2404 142.429 84.6604 142.849 83.8204C143.259 82.9904 146.889 77.2704 146.889 77.2704Z" fill="#FFBE9D"/>
<path d="M86.5096 80.2803C86.4996 80.2903 86.5396 80.4203 86.6396 80.6803C86.7596 80.9803 86.8996 81.3603 87.0896 81.8203C87.5196 82.8603 88.0996 84.3003 88.8396 86.0903C90.3896 89.7903 92.5597 94.9503 95.1096 101.02L95.1996 101.24L95.4196 101.15C99.7296 99.3203 104.53 97.2803 109.58 95.1303C113.11 93.6203 116.53 92.1603 119.67 90.8103L119.89 90.7103L119.8 90.4903C116.88 83.2603 114.15 77.1203 112 72.8503C110.92 70.7203 110.01 69.0503 109.3 67.9603C108.97 67.4003 108.66 67.0003 108.46 66.7203C108.26 66.4503 108.15 66.3103 108.14 66.3203C108.1 66.3503 108.52 66.9203 109.16 68.0503C109.82 69.1703 110.68 70.8603 111.72 73.0003C113.79 77.2903 116.46 83.4503 119.34 90.6803L119.47 90.3603C116.32 91.7003 112.91 93.1503 109.37 94.6603C104.32 96.8203 99.5296 98.8803 95.2296 100.72L95.5396 100.85C92.9197 94.8103 90.6896 89.6703 89.0996 85.9903C88.3096 84.2203 87.6796 82.8003 87.2296 81.7703C87.0196 81.3203 86.8497 80.9503 86.7197 80.6603C86.5896 80.4003 86.5196 80.2803 86.5096 80.2803Z" fill="#263238"/>
<path d="M85.6694 75.0807C85.7494 75.0807 85.7994 73.7907 85.9894 71.7207C86.1994 69.6907 86.5794 66.7207 88.4494 64.1907C89.3694 62.9407 90.5794 62.0307 91.8294 61.5507C93.0794 61.0707 94.3194 60.9507 95.3394 60.9807C97.3994 61.0607 98.6194 61.5907 98.6394 61.4907C98.6494 61.4607 98.3694 61.3007 97.8094 61.1107C97.2494 60.9207 96.4194 60.6907 95.3594 60.6207C94.2994 60.5407 92.9994 60.6207 91.6594 61.1107C90.3194 61.5907 88.9994 62.5707 88.0294 63.8907C87.0494 65.2107 86.4694 66.6807 86.1294 68.0407C85.7894 69.4007 85.6694 70.6607 85.6194 71.7107C85.5694 72.7607 85.5694 73.6107 85.5894 74.1907C85.6094 74.7607 85.6394 75.0807 85.6694 75.0807Z" fill="#263238"/>
<path d="M114.499 68.7704C114.419 68.8204 115.349 70.1504 116.579 72.4404C117.809 74.7304 119.269 78.0304 120.269 81.8704C121.259 85.7104 121.599 89.3004 121.639 91.9004C121.689 94.5004 121.519 96.1104 121.619 96.1204C121.659 96.1204 121.719 95.7204 121.809 95.0004C121.909 94.2704 121.979 93.2104 122.009 91.9004C122.059 89.2804 121.779 85.6304 120.769 81.7404C119.749 77.8504 118.219 74.5304 116.899 72.2704C116.239 71.1404 115.659 70.2504 115.219 69.6604C114.789 69.0604 114.529 68.7504 114.499 68.7704Z" fill="#263238"/>
<path d="M18.7694 243.48L17.8694 244C17.8694 244 20.3794 262.85 17.5594 264.67L0.469362 234.07L10.8894 228.8C11.3094 234.52 13.7394 239.41 18.7694 243.48Z" fill="#FFD74C"/>
<g opacity="0.6">
<g opacity="0.6">
<g opacity="0.6">
<g opacity="0.6">
<g opacity="0.6">
<g opacity="0.6">
<g opacity="0.6">
<g opacity="0.6">
<g opacity="0.6">
<g opacity="0.6">
<g opacity="0.6">
<g opacity="0.6">
<g opacity="0.6">
<g opacity="0.6">
<g opacity="0.6">
<g opacity="0.6">
<g opacity="0.6">
<path opacity="0.6" d="M9.3594 233.71C8.8694 233.21 7.9694 233.17 7.4494 233.64C6.9294 234.11 6.87939 235.02 7.36939 235.53C7.84939 236.04 8.9294 236.12 9.3894 235.59C9.8594 235.06 9.84939 233.99 9.25939 233.61" fill="white"/>
</g>
</g>
</g>
</g>
</g>
</g>
</g>
</g>
</g>
</g>
</g>
</g>
</g>
</g>
</g>
</g>
</g>
<g opacity="0.6">
<g opacity="0.6">
<g opacity="0.6">
<g opacity="0.6">
<g opacity="0.6">
<g opacity="0.6">
<g opacity="0.6">
<g opacity="0.6">
<g opacity="0.6">
<g opacity="0.6">
<g opacity="0.6">
<g opacity="0.6">
<g opacity="0.6">
<g opacity="0.6">
<g opacity="0.6">
<g opacity="0.6">
<path opacity="0.6" d="M0.469288 234.061L2.96929 232.791L18.4293 262.581C18.4293 262.581 18.5993 264.271 17.5493 264.661L0.469288 234.061Z" fill="white"/>
</g>
</g>
</g>
</g>
</g>
</g>
</g>
</g>
</g>
</g>
</g>
</g>
</g>
</g>
</g>
</g>
<path d="M17.8392 244.15C17.6892 244.23 17.1992 243.52 16.3092 243.05C15.4292 242.56 14.5692 242.54 14.5492 242.37C14.4992 242.22 15.5192 241.94 16.5892 242.52C17.6692 243.1 17.9892 244.11 17.8392 244.15Z" fill="#263238"/>
<path d="M18.2989 248.101C18.1689 248.211 17.5589 247.711 16.6389 247.561C15.7289 247.381 14.9689 247.631 14.8989 247.481C14.7989 247.351 15.6189 246.761 16.7489 246.971C17.8889 247.181 18.4389 248.021 18.2989 248.101Z" fill="#263238"/>
<path d="M15.4794 252.071C15.3694 251.951 15.9994 251.331 17.0394 251.251C18.0694 251.171 18.7894 251.69 18.6994 251.83C18.6194 251.98 17.9294 251.771 17.0894 251.851C16.2294 251.901 15.5794 252.211 15.4794 252.071Z" fill="#263238"/>
<path d="M17.5892 243.4C17.6092 243.42 17.8692 243.18 18.2292 242.67C18.5792 242.15 19.0192 241.34 19.2592 240.22C19.3192 239.93 19.3392 239.62 19.2992 239.29C19.2592 238.97 19.1192 238.58 18.7692 238.35C18.4292 238.11 17.9592 238.12 17.5892 238.29C17.2092 238.47 16.9392 238.79 16.7492 239.14C15.9792 240.56 16.3892 242.54 17.6592 243.81C18.9592 245.08 20.6992 245.48 22.1892 245.5C22.3892 245.5 22.5992 245.48 22.8092 245.39C23.0192 245.3 23.2192 245.1 23.2792 244.86C23.3992 244.38 23.1192 243.96 22.8192 243.75C22.1892 243.36 21.5992 243.25 21.0392 243.13C19.9092 242.94 18.9892 243.07 18.3792 243.23C17.7692 243.39 17.4692 243.56 17.4792 243.59C17.4892 243.7 18.8292 243.07 20.9692 243.5C21.4792 243.62 22.0992 243.78 22.5692 244.1C22.7892 244.26 22.9092 244.52 22.8492 244.74C22.7992 244.94 22.5292 245.03 22.1892 245.03C20.7992 244.99 19.1792 244.58 18.0292 243.45C16.9092 242.33 16.5492 240.58 17.1792 239.38C17.3292 239.09 17.5392 238.84 17.7892 238.72C18.0392 238.6 18.3392 238.59 18.5392 238.73C18.9592 239 18.9792 239.69 18.8992 240.17C18.4992 242.29 17.4892 243.35 17.5892 243.4Z" fill="#263238"/>
<path d="M132.19 270.65L132.22 271.69C132.22 271.69 150.02 278.38 150.29 281.73L115.25 282.33L115.53 270.66C120.77 272.99 126.23 273.16 132.19 270.65Z" fill="#FFD74C"/>
<g opacity="0.6">
<g opacity="0.6">
<g opacity="0.6">
<g opacity="0.6">
<g opacity="0.6">
<g opacity="0.6">
<g opacity="0.6">
<g opacity="0.6">
<g opacity="0.6">
<g opacity="0.6">
<g opacity="0.6">
<g opacity="0.6">
<g opacity="0.6">
<g opacity="0.6">
<g opacity="0.6">
<g opacity="0.6">
<g opacity="0.6">
<path opacity="0.6" d="M119.129 274.33C118.449 274.53 117.999 275.3 118.169 275.98C118.339 276.66 119.119 277.13 119.799 276.95C120.479 276.76 121.049 275.86 120.809 275.2C120.569 274.54 119.619 274.04 119.009 274.38" fill="white"/>
</g>
</g>
</g>
</g>
</g>
</g>
</g>
</g>
</g>
</g>
</g>
</g>
</g>
</g>
</g>
</g>
</g>
<g opacity="0.6">
<g opacity="0.6">
<g opacity="0.6">
<g opacity="0.6">
<g opacity="0.6">
<g opacity="0.6">
<g opacity="0.6">
<g opacity="0.6">
<g opacity="0.6">
<g opacity="0.6">
<g opacity="0.6">
<g opacity="0.6">
<g opacity="0.6">
<g opacity="0.6">
<g opacity="0.6">
<g opacity="0.6">
<path opacity="0.6" d="M115.24 282.331L115.31 279.521L148.87 279.971C148.87 279.971 150.44 280.621 150.28 281.721L115.24 282.331Z" fill="white"/>
</g>
</g>
</g>
</g>
</g>
</g>
</g>
</g>
</g>
</g>
</g>
</g>
</g>
</g>
</g>
</g>
<path d="M132.34 271.79C132.34 271.96 131.48 272.05 130.65 272.62C129.8 273.16 129.38 273.91 129.22 273.85C129.06 273.82 129.3 272.79 130.32 272.13C131.34 271.44 132.38 271.63 132.34 271.79Z" fill="#263238"/>
<path d="M136.049 273.24C136.089 273.41 135.359 273.71 134.789 274.44C134.199 275.16 134.069 275.94 133.899 275.94C133.739 275.97 133.599 274.97 134.329 274.07C135.029 273.17 136.039 273.08 136.049 273.24Z" fill="#263238"/>
<path d="M138.209 277.61C138.059 277.65 137.799 276.8 138.229 275.85C138.649 274.9 139.449 274.52 139.519 274.66C139.619 274.8 139.109 275.31 138.769 276.09C138.419 276.87 138.379 277.59 138.209 277.61Z" fill="#263238"/>
<path d="M131.56 271.65C131.59 271.64 131.5 271.3 131.21 270.74C130.92 270.19 130.41 269.41 129.54 268.68C129.31 268.49 129.05 268.32 128.74 268.21C128.44 268.1 128.03 268.03 127.66 268.23C127.29 268.42 127.07 268.84 127.05 269.24C127.02 269.66 127.19 270.06 127.4 270.38C128.29 271.73 130.23 272.31 131.94 271.79C133.67 271.25 134.85 269.9 135.57 268.59C135.66 268.41 135.74 268.22 135.76 267.99C135.78 267.76 135.7 267.49 135.52 267.32C135.16 266.99 134.65 267.03 134.33 267.2C133.69 267.57 133.31 268.04 132.94 268.48C132.25 269.38 131.92 270.26 131.77 270.87C131.62 271.48 131.63 271.83 131.66 271.84C131.77 271.88 131.84 270.41 133.23 268.72C133.58 268.33 134.02 267.86 134.51 267.6C134.75 267.48 135.04 267.5 135.2 267.65C135.35 267.79 135.31 268.07 135.14 268.36C134.45 269.56 133.32 270.8 131.78 271.28C130.27 271.74 128.55 271.23 127.79 270.1C127.6 269.83 127.48 269.53 127.5 269.25C127.51 268.97 127.64 268.71 127.86 268.59C128.3 268.35 128.91 268.66 129.3 268.95C131.01 270.32 131.47 271.71 131.56 271.65Z" fill="#263238"/>
<path d="M143.499 5.42024C144.239 5.43024 145.069 5.83024 145.749 7.11024C145.749 7.11024 148.649 5.09024 150.099 8.11024C150.099 8.11024 153.169 7.09024 153.939 9.97024C153.939 9.97024 156.929 10.3902 157.199 13.5102C157.469 16.6302 153.319 24.0902 153.319 24.0902L143.309 20.8602C143.309 20.8602 140.649 14.8402 140.659 13.9002C140.669 13.2202 141.089 9.43024 141.309 7.45024C141.439 6.33024 142.359 5.40024 143.499 5.42024Z" fill="#FFBE9D"/>
<path d="M141.629 13.4201C141.899 12.4001 142.279 11.4101 142.769 10.4701C142.929 10.1501 143.119 9.83008 143.429 9.65008C143.729 9.47008 144.099 9.46008 144.449 9.46008C146.299 9.44008 148.149 9.48009 149.999 9.58009C150.269 9.60009 150.589 9.64009 150.719 9.88009C150.879 10.1801 150.609 10.5301 150.349 10.7501C149.149 11.7701 147.629 12.4201 146.069 12.6001C147.689 13.3501 149.429 14.2001 150.259 15.7801C150.719 16.6601 150.859 17.6901 150.729 18.6701C150.599 19.6501 150.219 20.5901 149.709 21.4401" fill="#FFBE9D"/>
<path d="M149.689 21.4402C149.709 21.4502 149.909 21.2202 150.179 20.7202C150.439 20.2302 150.789 19.4602 150.909 18.4302C151.019 17.4202 150.859 16.0502 149.949 14.9202C149.059 13.7802 147.629 13.0402 146.169 12.3702L146.089 12.8502C147.089 12.7402 148.119 12.4402 149.069 11.9202C149.519 11.6802 149.949 11.4002 150.329 11.0902C150.519 10.9402 150.739 10.7602 150.889 10.5002C151.069 10.2702 151.079 9.75023 150.749 9.53023C150.459 9.32023 150.169 9.33023 149.939 9.31023C149.709 9.31023 149.479 9.30023 149.259 9.30023C148.809 9.29023 148.369 9.29023 147.939 9.28023C147.089 9.27023 146.269 9.26023 145.489 9.25023C145.109 9.25023 144.739 9.25023 144.379 9.24023C144.029 9.25023 143.629 9.28023 143.299 9.49023C142.979 9.70023 142.809 10.0102 142.669 10.2702C142.539 10.5402 142.419 10.7902 142.319 11.0302C142.119 11.5102 141.969 11.9302 141.859 12.2802C141.649 12.9802 141.589 13.3802 141.619 13.3902C141.659 13.4002 141.779 13.0202 142.049 12.3502C142.179 12.0102 142.359 11.6102 142.579 11.1502C142.819 10.7202 143.039 10.1002 143.489 9.80023C143.949 9.53023 144.739 9.67023 145.479 9.67023C146.249 9.69023 147.059 9.72023 147.909 9.75023C148.339 9.76023 148.779 9.77022 149.219 9.79022C149.639 9.82022 150.219 9.77023 150.419 9.92023C150.609 10.0102 150.379 10.4002 149.989 10.6702C149.629 10.9602 149.229 11.2202 148.799 11.4502C147.909 11.9302 146.939 12.2202 145.999 12.3302L145.089 12.4402L145.919 12.8202C147.379 13.4802 148.729 14.1702 149.569 15.1902C150.419 16.1902 150.609 17.4302 150.549 18.3902C150.479 19.3702 150.199 20.1302 149.989 20.6402C149.799 21.1602 149.659 21.4302 149.689 21.4402Z" fill="#EB996E"/>
<path d="M153.3 10.6801C153.23 10.6601 152.97 11.3101 152.71 12.4001C152.58 12.9501 152.46 13.6001 152.37 14.3401C152.33 14.7001 152.28 15.1101 152.32 15.5401C152.36 15.9601 152.48 16.4601 152.86 16.8201C153.24 17.1901 153.78 17.2901 154.23 17.2101C154.68 17.1401 155.09 16.9101 155.37 16.6101C155.94 16.0201 156.14 15.3201 156.27 14.7801C156.49 13.6701 156.63 13.0301 156.58 13.0001C156.5 12.9601 156.22 13.6301 155.91 14.6801C155.74 15.1901 155.51 15.8101 155.03 16.2701C154.6 16.7201 153.71 16.9201 153.22 16.4401C152.73 15.9501 152.79 15.0801 152.85 14.3801C152.91 13.6601 152.99 13.0001 153.07 12.4601C153.23 11.3801 153.37 10.7001 153.3 10.6801Z" fill="#EB996E"/>
<path d="M149.38 11.2604C149.32 11.2704 149.21 11.8604 149.06 12.8904C149.02 13.4004 148.99 14.0904 149.39 14.7604C149.59 15.0904 149.92 15.3704 150.34 15.5104C150.75 15.6604 151.3 15.5804 151.65 15.2604C152.01 14.9604 152.19 14.5804 152.36 14.2504C152.52 13.9204 152.67 13.5904 152.79 13.2704C153.04 12.6404 153.23 12.0504 153.36 11.5504C153.62 10.5504 153.66 9.91038 153.59 9.90038C153.51 9.88038 153.34 10.4904 153 11.4404C152.83 11.9204 152.61 12.4804 152.34 13.0804C152.05 13.6604 151.78 14.4304 151.31 14.8604C150.84 15.2904 150.09 14.9804 149.79 14.5004C149.46 14.0104 149.42 13.4004 149.43 12.9104C149.48 11.9204 149.47 11.2604 149.38 11.2604Z" fill="#EB996E"/>
<path d="M145.189 9.52049C145.329 9.55049 145.559 9.09048 145.689 8.48048C145.829 7.88048 145.829 7.36049 145.689 7.33049C145.549 7.30049 145.319 7.76048 145.189 8.37048C145.049 8.97048 145.049 9.49049 145.189 9.52049Z" fill="#EB996E"/>
<path d="M157.899 69.4705C157.919 69.4705 157.959 69.2805 158.029 68.9205C158.099 68.5005 158.199 67.9805 158.309 67.3405C158.539 65.9605 158.859 63.9705 159.199 61.4905C159.849 56.5505 160.549 49.5905 159.559 41.9705C159.099 38.1605 158.089 34.6305 157.019 31.5005C155.939 28.3705 154.769 25.6205 153.779 23.3305C152.789 21.1005 151.979 19.2705 151.379 17.9205C151.109 17.3305 150.889 16.8404 150.719 16.4604C150.559 16.1304 150.469 15.9604 150.459 15.9604C150.439 15.9704 150.499 16.1505 150.629 16.5005C150.779 16.9005 150.969 17.4005 151.199 18.0005C151.759 19.3605 152.519 21.2105 153.439 23.4705C154.379 25.7805 155.509 28.5305 156.559 31.6505C157.599 34.7705 158.579 38.2705 159.039 42.0405C160.019 49.5805 159.389 56.5005 158.829 61.4405C158.529 63.8605 158.289 65.8505 158.109 67.3105C158.039 67.9605 157.969 68.4905 157.919 68.9105C157.899 69.2705 157.879 69.4605 157.899 69.4705Z" fill="#263238"/>
</svg>
