<svg width="48" height="41" viewBox="0 0 48 41" fill="none" xmlns="http://www.w3.org/2000/svg">
<path d="M47.3337 6.95964H40.5003C39.667 3.1263 36.3337 0.292969 32.3337 0.292969C28.3337 0.292969 25.0003 3.1263 24.167 6.95964H0.666992V10.293H24.167C25.0003 14.1263 28.3337 16.9596 32.3337 16.9596C36.3337 16.9596 39.667 14.1263 40.5003 10.293H47.3337V6.95964ZM32.3337 13.6263C29.5003 13.6263 27.3337 11.4596 27.3337 8.6263C27.3337 5.79297 29.5003 3.6263 32.3337 3.6263C35.167 3.6263 37.3337 5.79297 37.3337 8.6263C37.3337 11.4596 35.167 13.6263 32.3337 13.6263Z" fill="#473D8D"/>
<path d="M0.666992 33.6262H7.50033C8.33366 37.4596 11.667 40.2929 15.667 40.2929C19.667 40.2929 23.0003 37.4596 23.8337 33.6262H47.3337V30.2929H23.8337C23.0003 26.4596 19.667 23.6262 15.667 23.6262C11.667 23.6262 8.33366 26.4596 7.50033 30.2929H0.666992V33.6262ZM15.667 26.9596C18.5003 26.9596 20.667 29.1262 20.667 31.9596C20.667 34.7929 18.5003 36.9596 15.667 36.9596C12.8337 36.9596 10.667 34.7929 10.667 31.9596C10.667 29.1262 12.8337 26.9596 15.667 26.9596Z" fill="#473D8D"/>
</svg>
