<svg width="46" height="41" viewBox="0 0 46 41" fill="none" xmlns="http://www.w3.org/2000/svg">
<path d="M29.9702 30.4915C29.9702 30.8576 29.8248 31.2086 29.5659 31.4675C29.307 31.7264 28.956 31.8718 28.5899 31.8718H9.26603C8.96237 31.8718 8.67251 32.1478 8.42406 32.3273L3.74493 36.0126V13.9282C3.74493 13.5621 3.89035 13.211 4.1492 12.9522C4.40805 12.6933 4.75913 12.5479 5.1252 12.5479H10.4531V9.78735H5.1252C4.02699 9.78735 2.97375 10.2236 2.1972 11.0002C1.42064 11.7767 0.984375 12.83 0.984375 13.9282V38.7732C0.986429 39.0295 1.05983 39.2802 1.19635 39.4972C1.33288 39.7141 1.52712 39.8888 1.75733 40.0016C1.97911 40.1025 2.22364 40.1428 2.46607 40.1186C2.7085 40.0943 2.94019 40.0063 3.13761 39.8636L10.246 34.6323H28.7969C29.3201 34.6478 29.8408 34.5557 30.3269 34.3617C30.813 34.1678 31.2541 33.8761 31.6229 33.5047C31.9917 33.1333 32.2803 32.6902 32.4708 32.2028C32.6614 31.7153 32.7498 31.1939 32.7307 30.6709V29.1112H29.9702V30.4915Z" fill="#473D8D"/>
<path d="M41.0127 0.125488H17.5481C16.4498 0.125488 15.3966 0.561753 14.62 1.33831C13.8435 2.11486 13.4072 3.1681 13.4072 4.26632V20.8296C13.4072 21.9278 13.8435 22.9811 14.62 23.7576C15.3966 24.5342 16.4498 24.9705 17.5481 24.9705H36.2508L42.8485 30.0913C43.0447 30.2363 43.2757 30.3267 43.5182 30.3534C43.7606 30.3801 44.0058 30.342 44.2288 30.2431C44.4637 30.1312 44.6622 29.9553 44.8014 29.7355C44.9406 29.5157 45.0148 29.261 45.0156 29.0009V4.26632C45.0161 3.1916 44.5989 2.15876 43.8519 1.38605C43.105 0.613341 42.0869 0.161312 41.0127 0.125488ZM42.393 26.2679L37.5621 22.4998C37.3211 22.3128 37.0251 22.2109 36.7201 22.2099H17.5481C17.182 22.2099 16.8309 22.0645 16.5721 21.8056C16.3132 21.5468 16.1678 21.1957 16.1678 20.8296V4.26632C16.1678 3.90024 16.3132 3.54917 16.5721 3.29031C16.8309 3.03146 17.182 2.88604 17.5481 2.88604H41.0127C41.3817 2.91953 41.7257 3.08676 41.9799 3.35624C42.2341 3.62572 42.3811 3.97885 42.393 4.34913V26.2679Z" fill="#473D8D"/>
</svg>
