<svg width="44" height="41" viewBox="0 0 44 41" fill="none" xmlns="http://www.w3.org/2000/svg">
<path d="M26.6152 33.9717H32.7691V40.1255H26.6152V33.9717Z" fill="#473D8D"/>
<path d="M37.3848 33.9717H43.5386V40.1255H37.3848V33.9717Z" fill="#473D8D"/>
<path d="M26.6152 23.2024H32.7691V29.3562H26.6152V23.2024Z" fill="#473D8D"/>
<path d="M37.3848 23.2024H43.5386V29.3562H37.3848V23.2024Z" fill="#473D8D"/>
<path d="M23.5388 33.9716H3.53884V12.4332H40.4619V20.1255H43.5388V12.4332C43.538 11.6174 43.2136 10.8352 42.6367 10.2584C42.0599 9.68151 41.2777 9.35707 40.4619 9.35626H31.2311V3.20241C31.2303 2.38661 30.9059 1.60446 30.329 1.0276C29.7522 0.450739 28.97 0.126303 28.1542 0.125488H15.8465C15.0307 0.126303 14.2486 0.450739 13.6717 1.0276C13.0949 1.60446 12.7704 2.38661 12.7696 3.20241V9.35626H3.53884C2.72304 9.35707 1.94088 9.68151 1.36402 10.2584C0.787165 10.8352 0.462729 11.6174 0.461914 12.4332V33.9716C0.462729 34.7874 0.787165 35.5696 1.36402 36.1465C1.94088 36.7233 2.72304 37.0478 3.53884 37.0486H23.5388V33.9716ZM15.8465 3.20241H28.1542V9.35626H15.8465V3.20241Z" fill="#473D8D"/>
</svg>
