<?xml version="1.0" standalone="no"?>
<svg version="1.0" xmlns="http://www.w3.org/2000/svg"
 width="40.000000pt" height="41.000000pt" viewBox="0 0 40.000000 41.000000"
 preserveAspectRatio="xMidYMid meet">

<g transform="translate(0.000000,41.000000) scale(0.100000,-0.100000)"
fill="#473D8D" stroke="none">
<path d="M7 403 c-13 -12 -8 -368 5 -381 15 -15 388 -17 388 -2 0 6 -72 11
-182 12 l-183 3 -3 180 c-2 166 -8 206 -25 188z"/>
<path d="M262 338 c3 -7 24 -15 47 -18 l42 -5 -60 -60 -61 -59 -30 29 -31 29
-56 -56 c-34 -35 -53 -60 -48 -68 5 -8 23 3 56 36 l49 48 23 -22 c13 -12 27
-22 32 -22 5 0 40 30 77 67 l68 67 0 -47 c0 -36 4 -47 15 -47 13 0 15 12 13
68 l-3 67 -68 3 c-53 2 -68 0 -65 -10z"/>
</g>
</svg>