<svg width="40" height="41" viewBox="0 0 40 41" fill="none" xmlns="http://www.w3.org/2000/svg">
<path d="M0 7.00488C0 5.34728 0.65848 3.75757 1.83058 2.58547C3.00269 1.41336 4.5924 0.754883 6.25 0.754883H33.75C35.4076 0.754883 36.9973 1.41336 38.1694 2.58547C39.3415 3.75757 40 5.34728 40 7.00488V34.5049C40 36.1625 39.3415 37.7522 38.1694 38.9243C36.9973 40.0964 35.4076 40.7549 33.75 40.7549H6.25C4.5924 40.7549 3.00269 40.0964 1.83058 38.9243C0.65848 37.7522 0 36.1625 0 34.5049V7.00488ZM6.25 3.25488C5.25544 3.25488 4.30161 3.64997 3.59835 4.35323C2.89509 5.05649 2.5 6.01032 2.5 7.00488V34.5049C2.5 35.4994 2.89509 36.4533 3.59835 37.1565C4.30161 37.8598 5.25544 38.2549 6.25 38.2549H33.75C34.7446 38.2549 35.6984 37.8598 36.4016 37.1565C37.1049 36.4533 37.5 35.4994 37.5 34.5049V7.00488C37.5 6.01032 37.1049 5.05649 36.4016 4.35323C35.6984 3.64997 34.7446 3.25488 33.75 3.25488H6.25Z" fill="#473D8D"/>
<path d="M7.5 10.7549C7.5 10.0918 7.76339 9.45596 8.23223 8.98712C8.70107 8.51828 9.33696 8.25488 10 8.25488H15C15.663 8.25488 16.2989 8.51828 16.7678 8.98712C17.2366 9.45596 17.5 10.0918 17.5 10.7549V15.7549C17.5 16.4179 17.2366 17.0538 16.7678 17.5226C16.2989 17.9915 15.663 18.2549 15 18.2549H10C9.33696 18.2549 8.70107 17.9915 8.23223 17.5226C7.76339 17.0538 7.5 16.4179 7.5 15.7549V10.7549ZM15 10.7549H10V15.7549H15V10.7549Z" fill="#473D8D"/>
<path d="M7.5 25.7549C7.5 25.0918 7.76339 24.456 8.23223 23.9871C8.70107 23.5183 9.33696 23.2549 10 23.2549H15C15.663 23.2549 16.2989 23.5183 16.7678 23.9871C17.2366 24.456 17.5 25.0918 17.5 25.7549V30.7549C17.5 31.4179 17.2366 32.0538 16.7678 32.5226C16.2989 32.9915 15.663 33.2549 15 33.2549H10C9.33696 33.2549 8.70107 32.9915 8.23223 32.5226C7.76339 32.0538 7.5 31.4179 7.5 30.7549V25.7549ZM15 25.7549H10V30.7549H15V25.7549Z" fill="#473D8D"/>
<path d="M22.5 10.7549C22.5 10.0918 22.7634 9.45596 23.2322 8.98712C23.7011 8.51828 24.337 8.25488 25 8.25488H30C30.663 8.25488 31.2989 8.51828 31.7678 8.98712C32.2366 9.45596 32.5 10.0918 32.5 10.7549V15.7549C32.5 16.4179 32.2366 17.0538 31.7678 17.5226C31.2989 17.9915 30.663 18.2549 30 18.2549H25C24.337 18.2549 23.7011 17.9915 23.2322 17.5226C22.7634 17.0538 22.5 16.4179 22.5 15.7549V10.7549ZM30 10.7549H25V15.7549H30V10.7549Z" fill="#473D8D"/>
<path d="M22.5 25.7549C22.5 25.0918 22.7634 24.456 23.2322 23.9871C23.7011 23.5183 24.337 23.2549 25 23.2549H30C30.663 23.2549 31.2989 23.5183 31.7678 23.9871C32.2366 24.456 32.5 25.0918 32.5 25.7549V30.7549C32.5 31.4179 32.2366 32.0538 31.7678 32.5226C31.2989 32.9915 30.663 33.2549 30 33.2549H25C24.337 33.2549 23.7011 32.9915 23.2322 32.5226C22.7634 32.0538 22.5 31.4179 22.5 30.7549V25.7549ZM30 25.7549H25V30.7549H30V25.7549Z" fill="#473D8D"/>
</svg>
