<svg width="45" height="50" viewBox="0 0 45 50" fill="none" xmlns="http://www.w3.org/2000/svg">
<path d="M40 9.06885H10C8.67392 9.06885 7.40215 9.59563 6.46447 10.5333C5.52678 11.471 5 12.7428 5 14.0688L5 44.0688C5 45.3949 5.52678 46.6667 6.46447 47.6044C7.40215 48.5421 8.67392 49.0688 10 49.0688H40C41.3261 49.0688 42.5979 48.5421 43.5355 47.6044C44.4732 46.6667 45 45.3949 45 44.0688V14.0688C45 12.7428 44.4732 11.471 43.5355 10.5333C42.5979 9.59563 41.3261 9.06885 40 9.06885V9.06885ZM7.5 18.7113C7.5 17.5288 8.62 16.5688 10 16.5688H40C41.38 16.5688 42.5 17.5288 42.5 18.7113V44.4263C42.5 45.6088 41.38 46.5688 40 46.5688H10C8.62 46.5688 7.5 45.6088 7.5 44.4263V18.7113Z" fill="#515151"/>
<path d="M35 26.5686C35.663 26.5686 36.2989 26.3052 36.7678 25.8364C37.2366 25.3675 37.5 24.7316 37.5 24.0686C37.5 23.4056 37.2366 22.7697 36.7678 22.3008C36.2989 21.832 35.663 21.5686 35 21.5686C34.337 21.5686 33.7011 21.832 33.2322 22.3008C32.7634 22.7697 32.5 23.4056 32.5 24.0686C32.5 24.7316 32.7634 25.3675 33.2322 25.8364C33.7011 26.3052 34.337 26.5686 35 26.5686Z" fill="#515151"/>
<rect x="0.5" y="0.677734" width="24" height="24" fill="#FFC64A" stroke="#FFC64A"/>
</svg>
