<svg width="40" height="44" viewBox="0 0 40 44" fill="none" xmlns="http://www.w3.org/2000/svg">
<circle cx="12.5" cy="12.6777" r="12" fill="#FFC64A" stroke="#FFC64A"/>
<path d="M5.51966 11.5872H38.6231C38.9158 11.5872 39.1964 11.7034 39.4034 11.9104C39.6103 12.1173 39.7266 12.398 39.7266 12.6906V14.5334C39.7264 14.794 39.6746 15.052 39.5742 15.2925C39.4738 15.533 39.3269 15.7513 39.1417 15.9347L26.4852 28.7789V40.0341L24.2783 40.8727V28.1389C24.2774 27.9937 24.3053 27.8497 24.3602 27.7153C24.4151 27.5808 24.496 27.4585 24.5983 27.3554L37.5197 14.4451V13.7941H6.62312V14.4672L19.5004 27.3554C19.6106 27.4548 19.6997 27.5754 19.7623 27.71C19.8249 27.8447 19.8596 27.9905 19.8645 28.1389V42.7154L17.6576 43.5872V28.6906L5.00105 16.001C4.81294 15.8128 4.66432 15.5891 4.56389 15.3427C4.46346 15.0964 4.41325 14.8325 4.41622 14.5665V12.6906C4.41622 12.398 4.53247 12.1173 4.73941 11.9104C4.94635 11.7034 5.22701 11.5872 5.51966 11.5872Z" fill="#515151"/>
</svg>
