<svg width="48" height="43" viewBox="0 0 48 43" fill="none" xmlns="http://www.w3.org/2000/svg">
<rect x="0.5" y="1.20605" width="24" height="24" fill="#FFC64A" stroke="#FFC64A"/>
<path d="M31.6689 22.3734C31.6689 22.0198 31.8094 21.6806 32.0595 21.4306C32.3095 21.1805 32.6487 21.04 33.0023 21.04H41.0023C41.3559 21.04 41.695 21.1805 41.9451 21.4306C42.1951 21.6806 42.3356 22.0198 42.3356 22.3734C42.3356 22.727 42.1951 23.0661 41.9451 23.3162C41.695 23.5662 41.3559 23.7067 41.0023 23.7067H33.0023C32.6487 23.7067 32.3095 23.5662 32.0595 23.3162C31.8094 23.0661 31.6689 22.727 31.6689 22.3734Z" fill="#515151"/>
<path d="M31.6689 30.3734C31.6689 30.0198 31.8094 29.6806 32.0595 29.4306C32.3095 29.1805 32.6487 29.04 33.0023 29.04H41.0023C41.3559 29.04 41.695 29.1805 41.9451 29.4306C42.1951 29.6806 42.3356 30.0198 42.3356 30.3734C42.3356 30.727 42.1951 31.0661 41.9451 31.3162C41.695 31.5662 41.3559 31.7067 41.0023 31.7067H33.0023C32.6487 31.7067 32.3095 31.5662 32.0595 31.3162C31.8094 31.0661 31.6689 30.727 31.6689 30.3734Z" fill="#515151"/>
<path d="M10.3311 28.3728C10.3311 27.8424 10.5418 27.3337 10.9168 26.9586C11.2919 26.5835 11.8006 26.3728 12.3311 26.3728H20.3311C20.5938 26.3725 20.854 26.4239 21.0968 26.5243C21.3396 26.6247 21.5603 26.772 21.7461 26.9578C21.9318 27.1436 22.0791 27.3642 22.1795 27.607C22.2799 27.8498 22.3314 28.1101 22.3311 28.3728V30.3728C22.3311 30.3728 22.3311 30.4341 22.3204 30.5461C22.2021 31.5006 21.7301 32.376 20.9977 32.9995C20.1311 33.7515 18.6964 34.3728 16.3311 34.3728C10.3311 34.3728 10.3311 30.3728 10.3311 30.3728V28.3728Z" fill="#515151"/>
<path d="M16.3333 23.7067C17.2174 23.7067 18.0652 23.3555 18.6904 22.7304C19.3155 22.1053 19.6667 21.2574 19.6667 20.3734C19.6667 19.4893 19.3155 18.6415 18.6904 18.0163C18.0652 17.3912 17.2174 17.04 16.3333 17.04C15.4493 17.04 14.6014 17.3912 13.9763 18.0163C13.3512 18.6415 13 19.4893 13 20.3734C13 21.2574 13.3512 22.1053 13.9763 22.7304C14.6014 23.3555 15.4493 23.7067 16.3333 23.7067Z" fill="#515151"/>
<path d="M27.6644 21.0395C27.6644 21.7467 27.3834 22.425 26.8833 22.9251C26.3832 23.4252 25.705 23.7061 24.9977 23.7061C24.2905 23.7061 23.6122 23.4252 23.1121 22.9251C22.612 22.425 22.3311 21.7467 22.3311 21.0395C22.3311 20.3322 22.612 19.6539 23.1121 19.1539C23.6122 18.6538 24.2905 18.3728 24.9977 18.3728C25.705 18.3728 26.3832 18.6538 26.8833 19.1539C27.3834 19.6539 27.6644 20.3322 27.6644 21.0395Z" fill="#515151"/>
<path d="M24.8251 31.6448C24.7238 32.0448 24.5611 32.5275 24.2998 33.0395H24.9985C26.0593 33.0395 27.0768 32.618 27.8269 31.8679C28.577 31.1178 28.9985 30.1003 28.9985 29.0395C28.9985 28.3322 28.7175 27.6539 28.2174 27.1539C27.7173 26.6538 27.039 26.3728 26.3318 26.3728H24.5505C24.8385 26.9781 24.9985 27.6581 24.9985 28.3728V30.4741L24.9931 30.5515C24.9708 30.9203 24.9146 31.2863 24.8251 31.6448Z" fill="#515151"/>
<path d="M11.6667 10.3728C9.89856 10.3728 8.20286 11.0752 6.95262 12.3254C5.70238 13.5757 5 15.2714 5 17.0395V35.7061C5 37.4742 5.70238 39.1699 6.95262 40.4202C8.20286 41.6704 9.89856 42.3728 11.6667 42.3728H41C42.7681 42.3728 44.4638 41.6704 45.7141 40.4202C46.9643 39.1699 47.6667 37.4742 47.6667 35.7061V17.0395C47.6667 15.2714 46.9643 13.5757 45.7141 12.3254C44.4638 11.0752 42.7681 10.3728 41 10.3728H11.6667ZM7.66667 17.0395C7.66667 15.9786 8.08809 14.9612 8.83824 14.211C9.58839 13.4609 10.6058 13.0395 11.6667 13.0395H41C42.0609 13.0395 43.0783 13.4609 43.8284 14.211C44.5786 14.9612 45 15.9786 45 17.0395V35.7061C45 36.767 44.5786 37.7844 43.8284 38.5346C43.0783 39.2847 42.0609 39.7061 41 39.7061H11.6667C10.6058 39.7061 9.58839 39.2847 8.83824 38.5346C8.08809 37.7844 7.66667 36.767 7.66667 35.7061V17.0395Z" fill="#515151"/>
</svg>
