<svg width="263" height="261" viewBox="0 0 263 261" fill="none" xmlns="http://www.w3.org/2000/svg">
<g opacity="0.2" clip-path="url(#clip0_2723_1887)">
<path d="M251.839 93.5747C248.978 88.1735 243.89 84.0431 238.061 82.3486" stroke="#010101" stroke-width="5.477" stroke-miterlimit="10" stroke-linecap="round"/>
<path d="M60.8508 84.4668C51.6299 94.6338 43.257 105.648 35.9438 117.404" stroke="#010101" stroke-width="5.477" stroke-miterlimit="10" stroke-linecap="round"/>
<path d="M79.2925 36.0679C86.8176 40.1982 92.9648 46.9762 96.3564 54.9192" stroke="#010101" stroke-width="5.477" stroke-miterlimit="10" stroke-linecap="round"/>
<path d="M76.5371 63.6035C80.7766 72.4997 83.8502 82.0312 85.546 91.7746" stroke="#010101" stroke-width="5.477" stroke-miterlimit="10" stroke-linecap="round"/>
<path d="M106.319 72.4993C119.992 64.7682 134.618 58.8374 149.88 54.813" stroke="#010101" stroke-width="5.477" stroke-miterlimit="10" stroke-linecap="round"/>
<path d="M95.1904 12.4507C105.365 13.192 115.434 13.9334 125.609 14.7806" stroke="#010101" stroke-width="5.477" stroke-miterlimit="10" stroke-linecap="round"/>
<path d="M12.7324 84.4668C14.7462 91.033 16.8659 97.5992 18.8797 104.165" stroke="#010101" stroke-width="5.477" stroke-miterlimit="10" stroke-linecap="round"/>
<path d="M144.157 3.23682C145.641 9.5912 147.124 16.0515 148.608 22.4059" stroke="#010101" stroke-width="5.477" stroke-miterlimit="10" stroke-linecap="round"/>
<path d="M114.268 44.4345C118.614 41.9986 122.959 39.5628 127.198 37.127" stroke="#010101" stroke-width="5.477" stroke-miterlimit="10" stroke-linecap="round"/>
<path d="M172.455 11.3916C182.842 16.581 191.957 24.4181 198.634 33.9496" stroke="#010101" stroke-width="5.477" stroke-miterlimit="10" stroke-linecap="round"/>
<path d="M88.9373 108.296C81.3062 109.037 74.0991 112.744 69.0117 118.463" stroke="#010101" stroke-width="5.477" stroke-miterlimit="10" stroke-linecap="round"/>
<path d="M177.331 59.1553C179.768 68.3691 181.358 77.7948 181.888 87.3264" stroke="#010101" stroke-width="5.477" stroke-miterlimit="10" stroke-linecap="round"/>
<path d="M207.113 74.1938C204.993 80.76 202.98 87.3262 200.86 93.8924" stroke="#010101" stroke-width="5.477" stroke-miterlimit="10" stroke-linecap="round"/>
<path d="M47.1782 134.031C52.1596 136.467 57.247 138.797 62.2284 141.233" stroke="#010101" stroke-width="5.477" stroke-miterlimit="10" stroke-linecap="round"/>
<path d="M13.6865 158.39C17.2901 165.168 22.6954 170.992 29.2666 175.123" stroke="#010101" stroke-width="5.477" stroke-miterlimit="10" stroke-linecap="round"/>
<path d="M55.1274 30.3491C60.4268 22.7239 68.2698 16.899 77.0668 14.0396" stroke="#010101" stroke-width="5.477" stroke-miterlimit="10" stroke-linecap="round"/>
<path d="M19.9399 65.2981C32.7644 59.5791 46.7547 56.1901 60.8509 55.5547" stroke="#010101" stroke-width="5.477" stroke-miterlimit="10" stroke-linecap="round"/>
<path d="M12.8386 123.97C8.70514 131.066 5.41955 138.585 3.2998 146.528" stroke="#010101" stroke-width="5.477" stroke-miterlimit="10" stroke-linecap="round"/>
<path d="M138.857 79.5952C145.641 85.2082 152.424 90.8213 159.207 96.4343" stroke="#010101" stroke-width="5.477" stroke-miterlimit="10" stroke-linecap="round"/>
<path d="M221.633 38.3979C215.486 42.4224 209.974 47.4 205.311 53.1189" stroke="#010101" stroke-width="5.477" stroke-miterlimit="10" stroke-linecap="round"/>
<path d="M192.169 109.143C207.749 116.874 221.103 128.948 230.324 143.774" stroke="#010101" stroke-width="5.477" stroke-miterlimit="10" stroke-linecap="round"/>
<path d="M233.08 98.5522C236.683 109.037 238.591 120.157 238.697 131.277" stroke="#010101" stroke-width="5.477" stroke-miterlimit="10" stroke-linecap="round"/>
<path d="M110.559 119.416C119.567 111.155 129.954 104.272 141.083 99.2939" stroke="#010101" stroke-width="5.477" stroke-miterlimit="10" stroke-linecap="round"/>
<path d="M152.211 36.9151C162.068 35.5384 172.031 35.1147 181.994 35.8561" stroke="#010101" stroke-width="5.477" stroke-miterlimit="10" stroke-linecap="round"/>
<path d="M187.611 136.891C192.169 147.375 197.786 157.436 204.569 166.756" stroke="#010101" stroke-width="5.477" stroke-miterlimit="10" stroke-linecap="round"/>
<path d="M82.1543 142.186C91.6931 141.339 101.338 140.385 110.877 139.538" stroke="#010101" stroke-width="5.477" stroke-miterlimit="10" stroke-linecap="round"/>
<path d="M159.419 143.562C164.506 147.799 170.548 151.082 176.801 153.2" stroke="#010101" stroke-width="5.477" stroke-miterlimit="10" stroke-linecap="round"/>
<path d="M219.513 173.005C216.44 184.972 210.292 196.198 201.813 205.2" stroke="#010101" stroke-width="5.477" stroke-miterlimit="10" stroke-linecap="round"/>
<path d="M51.2061 168.239C60.4269 172.581 69.6478 176.817 78.8687 181.159" stroke="#010101" stroke-width="5.477" stroke-miterlimit="10" stroke-linecap="round"/>
<path d="M135.36 135.09C132.18 146.634 130.378 158.707 130.272 170.675" stroke="#010101" stroke-width="5.477" stroke-miterlimit="10" stroke-linecap="round"/>
<path d="M171.395 171.416C159.313 178.724 147.336 186.031 135.254 193.233" stroke="#010101" stroke-width="5.477" stroke-miterlimit="10" stroke-linecap="round"/>
<path d="M229.794 56.084C227.674 64.9801 225.448 73.7703 223.329 82.6665" stroke="#010101" stroke-width="5.477" stroke-miterlimit="10" stroke-linecap="round"/>
<path d="M101.126 171.734C103.882 182.854 101.338 195.245 94.4487 204.353" stroke="#010101" stroke-width="5.477" stroke-miterlimit="10" stroke-linecap="round"/>
<path d="M117.872 213.355C121.476 221.404 131.968 225.534 140.129 222.039" stroke="#010101" stroke-width="5.477" stroke-miterlimit="10" stroke-linecap="round"/>
<path d="M181.146 193.656C176.907 200.434 174.045 207.954 172.455 215.791" stroke="#010101" stroke-width="5.477" stroke-miterlimit="10" stroke-linecap="round"/>
<path d="M37.5337 206.789C37.8517 215.579 41.5612 224.263 47.9204 230.406" stroke="#010101" stroke-width="5.477" stroke-miterlimit="10" stroke-linecap="round"/>
<path d="M9.02295 184.972C16.972 188.997 25.8749 191.432 34.7778 191.962" stroke="#010101" stroke-width="5.477" stroke-miterlimit="10" stroke-linecap="round"/>
<path d="M73.6753 209.013C73.2514 216.744 73.6753 224.475 74.8412 232.1" stroke="#010101" stroke-width="5.477" stroke-miterlimit="10" stroke-linecap="round"/>
<path d="M183.69 223.628C193.865 224.157 204.039 224.793 214.108 225.322" stroke="#010101" stroke-width="5.477" stroke-miterlimit="10" stroke-linecap="round"/>
<path d="M159.419 228.711C152.848 231.995 146.594 235.913 140.765 240.573" stroke="#010101" stroke-width="5.477" stroke-miterlimit="10" stroke-linecap="round"/>
<path d="M81.0942 247.774C93.4947 252.858 107.061 255.294 120.521 254.87" stroke="#010101" stroke-width="5.477" stroke-miterlimit="10" stroke-linecap="round"/>
<path d="M232.868 203.612C234.034 197.045 235.199 190.479 236.365 183.913" stroke="#010101" stroke-width="5.477" stroke-miterlimit="10" stroke-linecap="round"/>
<path d="M158.783 251.799C166.096 248.621 173.409 245.444 180.722 242.267" stroke="#010101" stroke-width="5.477" stroke-miterlimit="10" stroke-linecap="round"/>
<path d="M170.124 112.638C161.539 116.345 153.378 121.111 145.853 126.724" stroke="#010101" stroke-width="5.477" stroke-miterlimit="10" stroke-linecap="round"/>
<path d="M59.8969 195.457C56.5053 199.269 53.1138 202.976 49.7222 206.789" stroke="#010101" stroke-width="5.477" stroke-miterlimit="10" stroke-linecap="round"/>
<path d="M228.205 159.872C235.73 160.19 243.361 158.813 250.25 155.742" stroke="#010101" stroke-width="5.477" stroke-miterlimit="10" stroke-linecap="round"/>
<path d="M258.093 126.618C258.517 129.054 258.941 131.383 259.365 133.819" stroke="#010101" stroke-width="5.477" stroke-miterlimit="10" stroke-linecap="round"/>
<path d="M34.6719 82.0313C36.3677 80.6545 37.9575 79.3836 39.6533 78.0068" stroke="#010101" stroke-width="5.477" stroke-miterlimit="10" stroke-linecap="round"/>
<path d="M31.1743 146.316C33.824 149.176 35.5198 152.883 35.9437 156.801" stroke="#010101" stroke-width="5.477" stroke-miterlimit="10" stroke-linecap="round"/>
<path d="M108.439 87.9619C110.241 89.9741 112.149 92.0923 113.95 94.1045" stroke="#010101" stroke-width="5.477" stroke-miterlimit="10" stroke-linecap="round"/>
<path d="M190.897 46.9761C190.155 49.4119 189.413 51.7419 188.671 54.1777" stroke="#010101" stroke-width="5.477" stroke-miterlimit="10" stroke-linecap="round"/>
<path d="M107.591 230.936C107.273 232.842 106.955 234.854 106.743 236.76" stroke="#010101" stroke-width="5.477" stroke-miterlimit="10" stroke-linecap="round"/>
<path d="M242.513 68.793C242.619 69.1107 242.831 69.4284 242.937 69.7461" stroke="#010101" stroke-width="5.477" stroke-miterlimit="10" stroke-linecap="round"/>
<path d="M32.2344 42.8459C33.2942 40.516 35.202 38.6097 37.3217 37.2329" stroke="#010101" stroke-width="5.477" stroke-miterlimit="10" stroke-linecap="round"/>
<path d="M24.2852 207.212C24.2852 206.577 24.2852 205.942 24.2852 205.306" stroke="#010101" stroke-width="5.477" stroke-miterlimit="10" stroke-linecap="round"/>
<path d="M137.056 254.658C137.48 255.611 138.01 256.565 138.434 257.412" stroke="#010101" stroke-width="5.477" stroke-miterlimit="10" stroke-linecap="round"/>
</g>
<defs>
<clipPath id="clip0_2723_1887">
<rect width="262" height="260" fill="white" transform="translate(0.332031 0.377441)"/>
</clipPath>
</defs>
</svg>
