<svg width="171" height="169" viewBox="0 0 171 169" fill="none" xmlns="http://www.w3.org/2000/svg">
<g opacity="0.5" clip-path="url(#clip0_2720_1114)">
<path d="M164.151 60.5784C162.283 57.0676 158.963 54.3829 155.158 53.2814" stroke="#86CDC1" stroke-width="5.477" stroke-miterlimit="10" stroke-linecap="round"/>
<path d="M39.4983 54.6583C33.4801 61.2668 28.0152 68.4261 23.2422 76.0672" stroke="#86CDC1" stroke-width="5.477" stroke-miterlimit="10" stroke-linecap="round"/>
<path d="M51.5352 23.1988C56.4466 25.8835 60.4587 30.2892 62.6723 35.4522" stroke="#86CDC1" stroke-width="5.477" stroke-miterlimit="10" stroke-linecap="round"/>
<path d="M49.7363 41.0969C52.5033 46.8794 54.5094 53.0749 55.6162 59.4081" stroke="#86CDC1" stroke-width="5.477" stroke-miterlimit="10" stroke-linecap="round"/>
<path d="M69.1748 46.8794C78.0984 41.8542 87.6445 37.9992 97.6056 35.3833" stroke="#86CDC1" stroke-width="5.477" stroke-miterlimit="10" stroke-linecap="round"/>
<path d="M61.9111 7.84766C68.5519 8.32953 75.1235 8.8114 81.7643 9.36212" stroke="#86CDC1" stroke-width="5.477" stroke-miterlimit="10" stroke-linecap="round"/>
<path d="M8.09277 54.6583C9.40709 58.9263 10.7906 63.1943 12.1049 67.4623" stroke="#86CDC1" stroke-width="5.477" stroke-miterlimit="10" stroke-linecap="round"/>
<path d="M93.8701 1.85864C94.8386 5.98899 95.807 10.1882 96.7755 14.3185" stroke="#86CDC1" stroke-width="5.477" stroke-miterlimit="10" stroke-linecap="round"/>
<path d="M74.3623 28.637C77.1985 27.0537 80.0346 25.4704 82.8016 23.8871" stroke="#86CDC1" stroke-width="5.477" stroke-miterlimit="10" stroke-linecap="round"/>
<path d="M112.34 7.15924C119.119 10.5324 125.068 15.6265 129.426 21.822" stroke="#86CDC1" stroke-width="5.477" stroke-miterlimit="10" stroke-linecap="round"/>
<path d="M57.83 70.147C52.8495 70.6289 48.1456 73.0383 44.8252 76.7556" stroke="#86CDC1" stroke-width="5.477" stroke-miterlimit="10" stroke-linecap="round"/>
<path d="M115.521 38.2057C117.112 44.1947 118.15 50.3214 118.496 56.5169" stroke="#86CDC1" stroke-width="5.477" stroke-miterlimit="10" stroke-linecap="round"/>
<path d="M134.959 47.9808C133.576 52.2489 132.261 56.5169 130.878 60.7849" stroke="#86CDC1" stroke-width="5.477" stroke-miterlimit="10" stroke-linecap="round"/>
<path d="M30.5752 86.8749C33.8264 88.4582 37.1468 89.9727 40.398 91.556" stroke="#86CDC1" stroke-width="5.477" stroke-miterlimit="10" stroke-linecap="round"/>
<path d="M8.71582 102.708C11.0678 107.114 14.5957 110.9 18.8845 113.585" stroke="#86CDC1" stroke-width="5.477" stroke-miterlimit="10" stroke-linecap="round"/>
<path d="M35.7627 19.4815C39.2214 14.5251 44.3404 10.7389 50.0819 8.88025" stroke="#86CDC1" stroke-width="5.477" stroke-miterlimit="10" stroke-linecap="round"/>
<path d="M12.7969 42.1984C21.167 38.4811 30.2981 36.2782 39.4983 35.8652" stroke="#86CDC1" stroke-width="5.477" stroke-miterlimit="10" stroke-linecap="round"/>
<path d="M8.16225 80.3352C5.46444 84.9474 3.32002 89.835 1.93652 94.9979" stroke="#86CDC1" stroke-width="5.477" stroke-miterlimit="10" stroke-linecap="round"/>
<path d="M90.4111 51.4916C94.8383 55.1401 99.2655 58.7886 103.693 62.437" stroke="#86CDC1" stroke-width="5.477" stroke-miterlimit="10" stroke-linecap="round"/>
<path d="M144.436 24.7133C140.424 27.3291 136.827 30.5646 133.783 34.2819" stroke="#86CDC1" stroke-width="5.477" stroke-miterlimit="10" stroke-linecap="round"/>
<path d="M125.206 70.6978C135.375 75.723 144.091 83.5707 150.109 93.2081" stroke="#86CDC1" stroke-width="5.477" stroke-miterlimit="10" stroke-linecap="round"/>
<path d="M151.907 63.8138C154.259 70.6289 155.504 77.857 155.573 85.0851" stroke="#86CDC1" stroke-width="5.477" stroke-miterlimit="10" stroke-linecap="round"/>
<path d="M71.9414 77.3751C77.8213 72.0057 84.6004 67.5312 91.8637 64.2957" stroke="#86CDC1" stroke-width="5.477" stroke-miterlimit="10" stroke-linecap="round"/>
<path d="M99.127 23.7495C105.56 22.8546 112.063 22.5792 118.565 23.0611" stroke="#86CDC1" stroke-width="5.477" stroke-miterlimit="10" stroke-linecap="round"/>
<path d="M122.231 88.7336C125.206 95.5487 128.872 102.088 133.299 108.146" stroke="#86CDC1" stroke-width="5.477" stroke-miterlimit="10" stroke-linecap="round"/>
<path d="M53.4023 92.1756C59.6281 91.6248 65.923 91.0053 72.1487 90.4546" stroke="#86CDC1" stroke-width="5.477" stroke-miterlimit="10" stroke-linecap="round"/>
<path d="M103.831 93.0704C107.151 95.824 111.094 97.958 115.176 99.3348" stroke="#86CDC1" stroke-width="5.477" stroke-miterlimit="10" stroke-linecap="round"/>
<path d="M143.053 112.208C141.047 119.987 137.035 127.283 131.501 133.135" stroke="#86CDC1" stroke-width="5.477" stroke-miterlimit="10" stroke-linecap="round"/>
<path d="M33.2031 109.11C39.2213 111.932 45.2395 114.686 51.2577 117.508" stroke="#86CDC1" stroke-width="5.477" stroke-miterlimit="10" stroke-linecap="round"/>
<path d="M88.128 87.5634C86.0528 95.0668 84.8768 102.914 84.8076 110.693" stroke="#86CDC1" stroke-width="5.477" stroke-miterlimit="10" stroke-linecap="round"/>
<path d="M111.648 111.175C103.762 115.925 95.9455 120.675 88.0596 125.356" stroke="#86CDC1" stroke-width="5.477" stroke-miterlimit="10" stroke-linecap="round"/>
<path d="M149.763 36.2094C148.379 41.9918 146.926 47.7055 145.543 53.488" stroke="#86CDC1" stroke-width="5.477" stroke-miterlimit="10" stroke-linecap="round"/>
<path d="M65.7848 111.382C67.5833 118.61 65.9231 126.664 61.4268 132.584" stroke="#86CDC1" stroke-width="5.477" stroke-miterlimit="10" stroke-linecap="round"/>
<path d="M76.7148 138.435C79.0668 143.667 85.9151 146.352 91.2415 144.08" stroke="#86CDC1" stroke-width="5.477" stroke-miterlimit="10" stroke-linecap="round"/>
<path d="M118.012 125.631C115.245 130.037 113.377 134.925 112.34 140.019" stroke="#86CDC1" stroke-width="5.477" stroke-miterlimit="10" stroke-linecap="round"/>
<path d="M24.2803 134.167C24.4878 139.881 26.9089 145.526 31.0594 149.518" stroke="#86CDC1" stroke-width="5.477" stroke-miterlimit="10" stroke-linecap="round"/>
<path d="M5.67188 119.987C10.86 122.602 16.6707 124.186 22.4813 124.53" stroke="#86CDC1" stroke-width="5.477" stroke-miterlimit="10" stroke-linecap="round"/>
<path d="M47.8685 135.613C47.5918 140.638 47.8685 145.664 48.6295 150.62" stroke="#86CDC1" stroke-width="5.477" stroke-miterlimit="10" stroke-linecap="round"/>
<path d="M119.672 145.113C126.313 145.457 132.953 145.87 139.525 146.214" stroke="#86CDC1" stroke-width="5.477" stroke-miterlimit="10" stroke-linecap="round"/>
<path d="M103.831 148.417C99.5422 150.551 95.4609 153.098 91.6562 156.127" stroke="#86CDC1" stroke-width="5.477" stroke-miterlimit="10" stroke-linecap="round"/>
<path d="M52.7109 160.808C60.8044 164.112 69.6588 165.696 78.444 165.42" stroke="#86CDC1" stroke-width="5.477" stroke-miterlimit="10" stroke-linecap="round"/>
<path d="M151.77 132.102C152.53 127.834 153.291 123.566 154.052 119.298" stroke="#86CDC1" stroke-width="5.477" stroke-miterlimit="10" stroke-linecap="round"/>
<path d="M103.416 163.424C108.189 161.359 112.962 159.294 117.735 157.229" stroke="#86CDC1" stroke-width="5.477" stroke-miterlimit="10" stroke-linecap="round"/>
<path d="M110.818 72.9694C105.214 75.3788 99.888 78.4766 94.9766 82.125" stroke="#86CDC1" stroke-width="5.477" stroke-miterlimit="10" stroke-linecap="round"/>
<path d="M38.8761 126.802C36.6625 129.28 34.4489 131.689 32.2354 134.167" stroke="#86CDC1" stroke-width="5.477" stroke-miterlimit="10" stroke-linecap="round"/>
<path d="M148.726 103.672C153.637 103.878 158.618 102.983 163.114 100.987" stroke="#86CDC1" stroke-width="5.477" stroke-miterlimit="10" stroke-linecap="round"/>
<path d="M168.232 82.0562C168.509 83.6395 168.786 85.154 169.063 86.7373" stroke="#86CDC1" stroke-width="5.477" stroke-miterlimit="10" stroke-linecap="round"/>
<path d="M22.4121 53.0749C23.5189 52.18 24.5565 51.354 25.6633 50.459" stroke="#86CDC1" stroke-width="5.477" stroke-miterlimit="10" stroke-linecap="round"/>
<path d="M20.1299 94.8602C21.8593 96.7189 22.966 99.1283 23.2427 101.675" stroke="#86CDC1" stroke-width="5.477" stroke-miterlimit="10" stroke-linecap="round"/>
<path d="M70.5576 56.9299C71.7336 58.2379 72.9787 59.6147 74.1547 60.9226" stroke="#86CDC1" stroke-width="5.477" stroke-miterlimit="10" stroke-linecap="round"/>
<path d="M124.376 30.2892C123.891 31.8725 123.407 33.3869 122.923 34.9702" stroke="#86CDC1" stroke-width="5.477" stroke-miterlimit="10" stroke-linecap="round"/>
<path d="M70.0046 149.863C69.797 151.102 69.5895 152.41 69.4512 153.649" stroke="#86CDC1" stroke-width="5.477" stroke-miterlimit="10" stroke-linecap="round"/>
<path d="M158.064 44.47C158.134 44.6765 158.272 44.8831 158.341 45.0896" stroke="#86CDC1" stroke-width="5.477" stroke-miterlimit="10" stroke-linecap="round"/>
<path d="M20.8213 27.6045C21.513 26.09 22.7582 24.8509 24.1417 23.956" stroke="#86CDC1" stroke-width="5.477" stroke-miterlimit="10" stroke-linecap="round"/>
<path d="M15.6328 134.443C15.6328 134.03 15.6328 133.617 15.6328 133.204" stroke="#86CDC1" stroke-width="5.477" stroke-miterlimit="10" stroke-linecap="round"/>
<path d="M89.2354 165.283C89.512 165.902 89.8579 166.522 90.1346 167.072" stroke="#86CDC1" stroke-width="5.477" stroke-miterlimit="10" stroke-linecap="round"/>
</g>
<defs>
<clipPath id="clip0_2720_1114">
<rect width="171" height="169" fill="white"/>
</clipPath>
</defs>
</svg>
