<svg width="179" height="115" viewBox="0 0 179 115" fill="none" xmlns="http://www.w3.org/2000/svg">
<path d="M138.235 13.6832C138.698 13.8074 139.021 14.2417 139.202 14.986C139.404 15.719 139.395 16.4951 139.175 17.3142C138.96 18.1179 138.532 19.1295 137.89 20.3491C137.264 21.5728 136.567 22.6615 135.798 23.615C135.029 24.5686 134.413 24.9832 133.949 24.859C133.625 24.7721 133.518 24.52 133.63 24.1027C133.746 23.67 134.288 22.6971 135.257 21.1841C136.245 19.6599 136.869 18.4109 137.13 17.4372C137.395 16.4481 137.373 15.9121 137.063 15.8293C136.677 15.7258 136.138 15.9458 135.446 16.4892C134.769 17.0368 134.016 17.7131 133.188 18.5182C132.359 19.3232 131.912 19.7582 131.845 19.823C131.782 19.8724 131.695 19.9486 131.585 20.0515C131.49 20.1586 131.377 20.2693 131.247 20.3836C131.133 20.502 130.804 20.8613 130.263 21.4616C129.736 22.066 129.288 22.5339 128.918 22.8654C128.551 23.1814 128.268 23.3125 128.067 23.2587C127.882 23.209 127.706 23.0295 127.54 22.7201C127.375 22.4107 127.321 22.1478 127.379 21.9315C127.437 21.7151 127.696 21.3042 128.156 20.6986C129.498 18.9047 130.401 17.1423 130.865 15.4113C130.951 15.0867 130.954 14.7976 130.873 14.544C130.796 14.2749 130.673 14.1176 130.503 14.0721C130.333 14.0265 130.134 14.0562 129.907 14.1611C129.685 14.2505 129.383 14.4511 129.001 14.763C128.623 15.0594 128.281 15.3487 127.973 15.6307C127.666 15.9128 127.191 16.357 126.548 16.9633C125.925 17.5584 125.45 18.0026 125.123 18.2959C124.815 18.578 124.453 18.9115 124.035 19.2965C123.621 19.6661 123.296 19.9517 123.06 20.1535C122.839 20.3594 122.589 20.5822 122.309 20.8221C121.739 21.2822 121.353 21.4853 121.152 21.4315C120.967 21.3818 120.765 21.1456 120.547 20.7227C120.333 20.2845 120.249 19.9803 120.295 19.8103C120.344 19.6249 120.435 19.4091 120.567 19.1629C120.7 18.9167 120.83 18.6782 120.958 18.4475C121.101 18.2209 121.307 17.8867 121.574 17.4449C121.861 16.9917 122.184 16.4654 122.544 15.8659C122.923 15.2552 123.312 14.3904 123.711 13.2715C124.129 12.1414 124.432 11.3197 124.619 10.8067C124.81 10.2782 125.014 10.0429 125.231 10.1008C125.571 10.1919 125.855 10.4587 126.085 10.9011C126.33 11.3476 126.404 11.7486 126.309 12.1041C125.945 13.4641 124.835 15.5685 122.978 18.4173C125.579 15.6353 127.184 14.003 127.793 13.5203C128.403 13.0376 128.92 12.6542 129.344 12.3702C130.124 11.8671 130.824 11.6983 131.442 11.8639C131.813 11.9632 132.166 12.4058 132.503 13.1915C132.858 13.9659 132.949 14.6777 132.775 15.3268C132.602 15.9759 132.294 16.7548 131.852 17.6633C134.623 14.6125 136.751 13.2858 138.235 13.6832ZM146.705 20.1757C146.846 19.6503 146.893 19.1329 146.847 18.6237C146.805 18.0991 146.651 17.6851 146.385 17.3818C145.24 17.3898 144.099 17.9704 142.962 19.1235C141.844 20.2652 141.126 21.4311 140.807 22.6212C140.489 23.8112 140.583 24.6317 141.092 25.0827C142.263 25.1644 143.408 24.6596 144.529 23.5683C145.669 22.4657 146.394 21.3349 146.705 20.1757ZM140.552 18.7513C141.416 17.6907 142.384 16.8899 143.456 16.349C144.548 15.7967 145.55 15.6427 146.462 15.8869C147.389 16.1353 148.057 16.7364 148.464 17.6902C148.875 18.6285 148.929 19.6618 148.627 20.7901C148.329 21.9028 147.752 22.9741 146.897 24.0038C146.046 25.018 145.037 25.7832 143.872 26.2993C142.726 26.8041 141.62 26.9137 140.554 26.6281C139.766 26.417 139.206 25.8778 138.875 25.0107C138.544 24.1435 138.528 23.1536 138.826 22.0408C139.128 20.9126 139.703 19.8161 140.552 18.7513ZM156.967 18.7006C157.492 18.8413 157.908 19.2674 158.215 19.9789C158.525 20.6749 158.622 21.2393 158.506 21.6721C158.436 21.9348 158.277 22.0331 158.03 21.9668C157.86 21.9213 157.632 21.7195 157.347 21.3616C157.066 20.9882 156.74 20.7518 156.37 20.6525C155.999 20.5531 155.353 20.6122 154.434 20.8297C153.53 21.0513 153.013 21.4017 152.885 21.8808C152.79 22.2363 153.337 23.0372 154.527 24.2835C154.977 24.7684 155.346 25.3393 155.634 25.9961C155.941 26.6416 156.012 27.2735 155.847 27.8917C155.685 28.4945 155.101 28.9756 154.094 29.3353C153.106 29.6836 152.048 29.7066 150.92 29.4044C149.807 29.1064 148.89 28.571 148.17 27.7982C147.464 27.0296 147.176 26.4058 147.304 25.9267C147.358 25.7257 147.446 25.5836 147.568 25.5003C147.709 25.4056 147.857 25.379 148.011 25.4204C148.166 25.4618 148.355 25.6202 148.58 25.8956C149.253 26.7219 150.038 27.2551 150.934 27.4952C151.846 27.7394 152.53 27.8149 152.985 27.7216C153.445 27.6129 153.721 27.3885 153.812 27.0485C153.907 26.693 153.782 26.262 153.437 25.7556C153.097 25.2337 152.697 24.7458 152.239 24.2918C151.797 23.8419 151.411 23.3329 151.083 22.7646C150.755 22.1964 150.653 21.6804 150.777 21.2168C150.996 20.3977 151.866 19.7194 153.384 19.1821C154.923 18.6334 156.117 18.4729 156.967 18.7006ZM159.418 29.196C159.339 29.4896 159.47 29.682 159.81 29.7731C160.397 29.9304 161.151 29.9585 162.073 29.8575C163.014 29.7451 163.531 29.7014 163.624 29.7262C163.902 29.8007 164.002 29.9848 163.923 30.2785C163.803 30.7267 163.201 31.1202 162.116 31.4592C161.047 31.8022 160.134 31.8723 159.376 31.6695C158.634 31.4708 158.07 31.1043 157.683 30.57C157.3 30.0202 157.167 29.529 157.283 29.0962C157.399 28.6635 157.638 28.1397 158.002 27.5248C158.369 26.8944 158.87 26.0761 159.504 25.0699C160.158 24.0523 160.682 23.2072 161.078 22.5346C160.306 22.5101 159.796 22.4647 159.549 22.3985C159.301 22.3322 159.087 22.1424 158.906 21.8288C158.745 21.504 158.695 21.2257 158.757 20.9939C158.857 20.6229 159.956 20.5365 162.057 20.7347C162.678 19.5264 163.122 18.4277 163.387 17.4385C163.511 16.9749 163.728 16.7845 164.037 16.8673C164.299 16.9376 164.578 17.1946 164.874 17.6381C165.173 18.0661 165.267 18.4888 165.155 18.9061C165.043 19.3234 164.715 20.0223 164.171 21.0029C165.073 21.1616 165.786 21.3113 166.312 21.452C167.239 21.7004 167.649 22.0255 167.541 22.4273C167.479 22.6592 167.173 22.7841 166.621 22.802C166.085 22.8241 164.97 22.7822 163.276 22.6762C162.624 23.8102 161.84 25.0992 160.923 26.5432C160.011 27.9717 159.509 28.856 159.418 29.196ZM115.379 34.4035C116.044 34.5815 116.502 35.1596 116.753 36.138C117.02 37.1205 117.031 38.0677 116.787 38.9796C116.547 39.876 116.042 40.7097 115.272 41.4808C114.507 42.2365 113.642 42.8663 112.679 43.3703C111.716 43.8742 110.699 44.2395 109.628 44.4661C108.576 44.6814 107.656 44.6835 106.868 44.4723C106.559 44.3895 106.276 44.2723 106.018 44.1205C105.886 44.3666 105.652 44.8091 105.315 45.4477C104.978 46.0863 104.696 46.6153 104.468 47.0345C104.239 47.4537 103.987 47.8997 103.712 48.3725C103.152 49.3489 102.764 49.8081 102.548 49.7502C102.331 49.6922 102.153 49.4622 102.012 49.0601C101.852 48.6693 101.807 48.3425 101.877 48.0798C101.947 47.8171 102.497 46.7551 103.525 44.8938C106.619 39.2791 108.446 35.4286 109.005 33.3421C109.129 32.8784 109.361 32.6922 109.701 32.7832C109.979 32.8577 110.255 33.1554 110.53 33.6762C110.824 34.1856 110.905 34.6876 110.773 35.1822C110.706 35.4295 110.603 35.6917 110.463 35.9688C112.318 34.5444 113.957 34.0226 115.379 34.4035ZM107.121 42.602C107.94 42.8214 108.895 42.7791 109.987 42.4753C111.094 42.1755 112.102 41.6587 113.011 40.9249C113.94 40.1797 114.526 39.3512 114.77 38.4393C115.114 37.1566 114.984 36.4344 114.381 36.273C113.779 36.1116 112.821 36.4099 111.508 37.1681C110.211 37.9303 109.039 39.0576 107.993 40.5499L106.889 42.5399L107.121 42.602ZM123.869 40.9757C124.009 40.4502 124.057 39.9329 124.011 39.4237C123.969 38.899 123.815 38.4851 123.549 38.1818C122.404 38.1898 121.262 38.7703 120.125 39.9234C119.008 41.0652 118.29 42.2311 117.971 43.4211C117.652 44.6112 117.747 45.4317 118.256 45.8826C119.427 45.9643 120.572 45.4595 121.693 44.3683C122.833 43.2657 123.558 42.1348 123.869 40.9757ZM117.716 39.5513C118.579 38.4907 119.548 37.6899 120.62 37.1489C121.712 36.5967 122.714 36.4427 123.626 36.6869C124.553 36.9353 125.22 37.5364 125.628 38.4902C126.039 39.4285 126.093 40.4618 125.791 41.59C125.493 42.7028 124.916 43.774 124.061 44.8037C123.209 45.818 122.201 46.5832 121.036 47.0993C119.89 47.6041 118.784 47.7137 117.718 47.428C116.93 47.2169 116.37 46.6778 116.039 45.8106C115.708 44.9435 115.692 43.9535 115.99 42.8408C116.292 41.7125 116.867 40.616 117.716 39.5513ZM135.1 39.6855C135.764 39.8635 136.222 40.4417 136.474 41.4201C136.741 42.4026 136.752 43.3498 136.508 44.2616C136.268 45.158 135.763 45.9918 134.993 46.7629C134.228 47.5186 133.363 48.1484 132.4 48.6523C131.437 49.1563 130.42 49.5216 129.349 49.7482C128.297 49.9635 127.377 49.9655 126.589 49.7544C126.28 49.6716 125.997 49.5543 125.739 49.4026C125.607 49.6487 125.372 50.0911 125.036 50.7298C124.699 51.3684 124.417 51.8973 124.188 52.3166C123.96 52.7358 123.708 53.1818 123.432 53.6545C122.873 54.631 122.485 55.0902 122.268 55.0323C122.052 54.9743 121.873 54.7443 121.733 54.3422C121.572 53.9514 121.527 53.6246 121.598 53.3619C121.668 53.0991 122.218 52.0372 123.246 50.1759C126.34 44.5612 128.167 40.7106 128.725 38.6242C128.85 38.1605 129.082 37.9742 129.422 38.0653C129.7 38.1398 129.976 38.4375 130.251 38.9582C130.545 39.4677 130.626 39.9697 130.493 40.4643C130.427 40.7116 130.324 40.9738 130.183 41.2509C132.039 39.8265 133.678 39.3047 135.1 39.6855ZM126.841 47.8841C127.661 48.1035 128.616 48.0612 129.708 47.7574C130.815 47.4576 131.823 46.9408 132.732 46.207C133.66 45.4618 134.247 44.6333 134.491 43.7214C134.834 42.4386 134.705 41.7165 134.102 41.5551C133.499 41.3936 132.542 41.692 131.229 42.4501C129.931 43.2124 128.76 44.3397 127.714 45.832L126.61 47.822L126.841 47.8841ZM145.677 43.2887C145.805 43.058 145.912 42.9045 145.999 42.8284C146.085 42.7522 146.229 42.741 146.43 42.7948C146.646 42.8528 146.848 43.122 147.034 43.6025C147.235 44.0871 147.286 44.5149 147.187 44.8858C147.133 45.0867 146.474 46.1857 145.211 48.1828C143.947 50.1798 142.958 51.77 142.243 52.9535C141.884 53.5529 141.534 53.8071 141.194 53.716C140.993 53.6622 140.846 53.5317 140.753 53.3244C140.659 53.1172 140.672 52.7894 140.792 52.3412C140.912 51.893 141.307 51.1292 141.977 50.0498C141.047 50.9269 140.112 51.6041 139.172 52.0813C138.233 52.5585 137.446 52.7122 136.813 52.5425C136.194 52.3769 135.686 51.9259 135.287 51.1896C134.888 50.4533 134.771 49.776 134.936 49.1578C135.33 47.6896 136.245 45.972 137.683 44.005C139.141 42.0267 140.155 41.1142 140.727 41.2673C141.005 41.3418 141.21 41.5374 141.34 41.8539C141.49 42.1592 141.522 42.4741 141.435 42.7986C141.398 42.9377 141.055 43.3841 140.405 44.1378C139.761 44.8761 139.074 45.7689 138.346 46.8163C137.623 47.8482 137.145 48.7969 136.913 49.6624C136.847 49.9097 136.868 50.139 136.977 50.3505C137.091 50.5464 137.255 50.6734 137.472 50.7313C138.059 50.8886 138.893 50.5571 139.974 49.7369C141.071 48.9208 142.135 47.914 143.168 46.7165C144.201 45.519 145.037 44.3764 145.677 43.2887ZM153.662 39.862C152.884 42.7676 151.271 46.3772 148.823 50.6909C147.206 53.6368 146.243 55.0683 145.934 54.9855C145.717 54.9276 145.508 54.6892 145.305 54.2706C145.118 53.8561 145.05 53.5561 145.099 53.3706C145.149 53.1851 145.63 52.2869 146.542 50.676C147.453 49.0651 148.471 47.06 149.594 44.6609C150.721 42.2463 151.555 40.0266 152.098 38.002C152.156 37.7856 152.228 37.6393 152.315 37.5632C152.401 37.487 152.545 37.4758 152.746 37.5296C152.947 37.5835 153.173 37.8841 153.424 38.4317C153.694 38.9679 153.774 39.4447 153.662 39.862ZM158.8 46.1079C159.495 46.2942 160.041 46.8215 160.438 47.6897C160.839 48.5425 160.963 49.2548 160.81 49.8266C160.661 50.383 160.315 50.9031 159.771 51.3869C159.894 51.6684 159.933 51.8942 159.888 52.0642C159.772 52.497 159.473 53.2119 158.99 54.209C158.523 55.2103 158.223 55.867 158.09 56.1792C157.972 56.4954 157.871 56.7499 157.786 56.9425C157.705 57.1197 157.617 57.2948 157.521 57.4679C157.356 57.8377 157.165 57.9936 156.948 57.9357C156.67 57.8612 156.503 57.5595 156.445 57.0307C156.408 56.4906 156.477 55.8301 156.653 55.049C154.81 56.427 153.301 56.9587 152.126 56.6441C151.415 56.4537 150.793 55.964 150.259 55.175C149.744 54.3746 149.574 53.6499 149.748 53.0008C149.996 52.0734 150.643 51.0208 151.687 49.8429C152.736 48.6495 153.944 47.6645 155.311 46.8879C156.678 46.1112 157.841 45.8513 158.8 46.1079ZM158.773 50.4737C159.158 49.0364 159.065 48.2411 158.493 48.088C157.89 47.9265 157.071 48.1709 156.035 48.8212C155.004 49.4559 154.065 50.2397 153.219 51.1726C152.373 52.1054 151.865 52.8887 151.695 53.5223C151.625 53.7851 151.675 54.0304 151.846 54.2584C152.021 54.4709 152.255 54.6165 152.549 54.6951C153.275 54.8897 154.225 54.6222 155.398 53.8928C156.574 53.1479 157.529 52.1198 158.261 50.8086C158.37 50.5892 158.538 50.4853 158.767 50.4969L158.773 50.4737ZM163.206 50.3193L163.602 48.562C163.797 47.8356 164.064 47.518 164.404 47.609C164.698 47.6877 164.924 47.9554 165.083 48.4121C165.262 48.8576 165.281 49.343 165.141 49.8685C165.004 50.3785 164.885 50.7608 164.784 51.0152C166.675 49.3353 168.223 48.6567 169.429 48.9796C170.186 49.1825 170.515 49.4694 170.415 49.8403C170.366 50.0257 170.235 50.173 170.024 50.282C169.812 50.391 169.494 50.4963 169.07 50.5979C168.155 50.734 167.313 51.0963 166.542 51.685C165.791 52.2624 165.114 52.9671 164.51 53.7992C163.906 54.6313 163.411 55.3352 163.025 55.9109C162.655 56.4908 162.368 56.944 162.164 57.2705C161.961 57.597 161.744 57.9116 161.514 58.2143C161.101 58.7663 160.732 58.9988 160.408 58.9119C160.145 58.8415 159.968 58.6368 159.876 58.2976C159.805 57.9471 159.806 57.6327 159.881 57.3545C159.959 57.0609 160.244 56.5242 160.734 55.7446C161.889 53.9669 162.713 52.1585 163.206 50.3193Z" fill="#EC595A"/>
<g clip-path="url(#clip0_983:722)">
<path d="M104.505 22.7723C83.3677 12.1365 56.8446 17.8623 37.6609 29.9849C28.195 35.9599 19.9423 44.9889 19.5999 56.6475C19.4602 61.692 20.8984 66.8582 24.2886 70.6875C26.349 73.0225 29.4913 75.1715 32.7502 74.2343C37.7549 72.795 36.3491 67.144 32.3635 65.3877C25.0047 62.1493 18.7115 72.2413 16.3738 77.5426C13.5877 83.7985 12.4729 90.5747 11.9114 97.3419C11.7281 99.2713 8.73647 98.7304 8.91979 96.801C9.66642 88.7045 11.1553 80.4695 15.2103 73.2982C18.1356 68.1031 22.8163 62.3533 29.3778 62.0677C34.163 61.8426 39.3448 65.8322 39.0448 70.8477C38.7506 76.1369 32.7193 78.3717 28.2395 76.9076C15.6167 72.881 14.8053 55.399 19.1963 45.4537C25.2838 31.6176 40.966 23.6047 54.7419 19.1176C71.1508 13.7982 89.5208 13.1945 105.118 21.5202C105.871 21.929 105.322 23.138 104.505 22.7723Z" fill="#EC595A"/>
<path d="M22.013 88.1565C19.2561 86.6223 14.619 95.4874 13.7012 96.9023C12.9283 98.1255 12.0639 99.5501 10.3639 99.1882C8.51325 98.7446 7.84949 96.0079 7.21424 94.6392C5.63089 91.1912 3.99412 87.7335 2.59013 84.2088C1.9053 82.5041 4.48494 81.6622 5.24228 83.271C6.61962 86.0276 7.80806 88.9137 9.06901 91.7038C9.34753 92.2993 10.3776 95.7563 11.1541 95.7332C11.3239 95.7093 12.4479 93.4594 12.5299 93.3107C14.3465 90.5864 18.0789 85.8098 21.8071 85.9388C22.2974 85.9729 22.6523 86.1461 22.843 86.6167C22.9212 86.7944 22.9995 86.972 23.0777 87.1497C23.4001 87.8077 22.6158 88.4836 22.013 88.1565Z" fill="#EC595A"/>
<path d="M106.238 20.1962C107.574 20.4377 107.963 22.2525 106.786 22.9663C106.597 23.0957 106.301 23.2058 106.053 23.0519C105.008 22.4268 104.359 21.4373 104.418 20.1942C104.422 19.8678 104.552 19.4552 104.954 19.3644C107.21 18.7909 108.455 21.3602 108.612 23.242C108.663 24.178 108.472 25.2337 107.556 25.7223C106.514 26.2972 105.406 25.7152 104.675 24.8744C103.409 23.337 102.579 20.2978 104.876 19.1867C107.067 18.0564 108.846 20.7223 108.833 22.6278C108.8 24.6389 107.121 26.2978 105.057 25.8156C103.206 25.3719 101.865 23.3305 103.054 21.6375C104.325 19.7957 107.16 19.9812 107.982 22.1469C108.32 23.0256 108.173 24.1438 107.602 24.8584C106.887 25.7648 105.644 25.9218 104.87 25.0186C104.422 24.4469 104.118 23.6834 103.733 23.0686C103.445 22.5259 103.166 21.9304 103.227 21.2873C103.355 20.2746 104.193 19.6084 105.202 19.5183C106.265 19.4379 107.276 19.9478 107.774 20.8555C108.438 22.0658 108.18 23.4911 107.844 24.7387C107.705 25.2041 107.226 25.7172 106.711 25.515C104.452 24.8885 102.945 22.5445 103.685 20.2798C103.825 19.8144 104.304 19.3013 104.882 19.4603C106.971 20.1106 107.591 22.7848 105.843 24.2133C104.86 25.0714 103.676 23.3853 104.702 22.5897C104.973 22.3116 104.83 21.577 104.466 21.4566C104.844 21.1979 105.275 20.9487 105.662 20.6372C105.282 21.8223 105.748 23.2148 107.064 23.5618C106.686 23.8206 106.309 24.0794 105.868 24.3813C106.045 23.7047 106.738 21.7039 105.616 21.5011C105.189 21.4238 105.233 21.4863 105.282 21.8223C105.454 22.3985 105.981 23.1479 106.278 23.6378C106.419 23.7723 106.356 23.8155 106.118 23.6088C106.137 23.5032 106.209 23.4073 106.229 23.3017C106.169 23.0185 106.261 22.817 106.085 22.5672C105.778 22.1301 105.225 22.139 104.828 22.5034C104.053 23.1265 104.847 23.9242 105.605 24.0066C106.62 24.1901 107.078 23.1827 107.017 22.2994C106.942 21.7954 106.708 21.2623 106.318 20.9739C105.672 20.5844 105.319 21.0112 105.32 21.6112C105.278 22.1487 105.645 22.8691 105.889 23.3493C106.143 23.7768 106.723 24.5358 106.822 23.6816C106.858 22.8704 106.42 20.7196 105.275 20.9487C105.536 20.7234 105.798 20.4981 106.006 20.2632C105.988 20.9687 106.339 21.4683 106.879 21.8385C106.549 21.8333 106.282 21.785 105.952 21.7799C106.122 21.756 106.141 21.6505 106 21.5159C105.208 21.3183 105.384 20.0417 106.238 20.1962Z" fill="#EC595A"/>
</g>
<defs>
<clipPath id="clip0_983:722">
<rect width="93.8648" height="96.0226" fill="white" transform="matrix(-0.984046 -0.177913 -0.177913 0.984046 109.451 19.5234)"/>
</clipPath>
</defs>
</svg>
