<svg width="181" height="196" viewBox="0 0 181 196" fill="none" xmlns="http://www.w3.org/2000/svg">
<g opacity="0.5">
<path d="M149.497 71.3519C156.827 74.6361 160.917 83.6239 161.429 95.7599C161.939 107.862 158.873 122.931 152.086 138.081C145.298 153.232 136.095 165.55 126.724 173.226C117.327 180.923 107.897 183.854 100.567 180.57C93.2361 177.286 89.1461 168.298 88.6345 156.162C88.1242 144.06 91.19 128.991 97.9774 113.841C104.765 98.6903 113.969 86.3715 123.339 78.6958C132.736 70.9988 142.166 68.0678 149.497 71.3519Z" stroke="#EC595A"/>
<path d="M108.344 52.9154C115.675 56.1996 119.765 65.1873 120.276 77.3233C120.787 89.4258 117.721 104.494 110.933 119.645C104.146 134.795 94.9423 147.114 85.5714 154.79C76.1745 162.487 66.7449 165.418 59.4143 162.134C52.0836 158.849 47.9937 149.862 47.482 137.726C46.9718 125.623 50.0376 110.555 56.825 95.4042C63.6124 80.2537 72.8161 67.935 82.187 60.2593C91.5839 52.5623 101.013 49.6313 108.344 52.9154Z" stroke="#EC595A"/>
<path d="M80.3248 15.0556C87.6555 18.3397 91.7454 27.3275 92.257 39.4635C92.7673 51.566 89.7015 66.6345 82.9141 81.7849C76.1267 96.9354 66.923 109.254 57.5521 116.93C48.1552 124.627 38.7257 127.558 31.395 124.274C24.0643 120.99 19.9744 112.002 19.4627 99.8658C18.9525 87.7633 22.0183 72.6948 28.8057 57.5443C35.5931 42.3939 44.7968 30.0752 54.1677 22.3994C63.5646 14.7024 72.9941 11.7714 80.3248 15.0556Z" stroke="#EC595A"/>
</g>
</svg>
