<svg width="33" height="29" viewBox="0 0 33 29" fill="none" xmlns="http://www.w3.org/2000/svg">
<path d="M15.3829 7.04952C10.7986 10.3637 6.66592 13.8923 4.13014 18.9539C3.87374 19.5407 4.37653 20.0672 4.95414 19.8765C8.89973 18.1409 12.2029 15.6133 15.6832 12.9926C19.1634 10.3719 25.2095 8.54868 26.4596 4.05009C26.6275 3.50989 26.3017 2.89031 25.7615 2.72242C21.6635 1.3747 18.4671 4.75002 15.3829 7.04952Z" fill="#BBC0C4"/>
<path d="M18.3688 17.4556C16.3796 18.6145 14.0737 19.6009 13.4067 21.9852C13.2388 22.5254 13.518 23.0565 14.0582 23.2244C16.4006 24.0264 18.5203 22.686 20.6026 21.7041C23.3045 20.3965 25.6988 19.3636 26.9389 16.5649C27.2838 15.9317 26.958 15.3121 26.1943 15.1488C23.0973 14.6305 20.8891 16.0175 18.3688 17.4556Z" fill="#BBC0C4"/>
</svg>
