<svg width="257" height="207" viewBox="0 0 257 207" fill="none" xmlns="http://www.w3.org/2000/svg">
<g opacity="0.6" clip-path="url(#clip0_968:212)">
<path d="M99.4347 159.048C85.6583 151.097 72.9879 141.476 61.7245 130.32C56.1762 124.959 50.7621 119.298 45.9174 113.171C43.5784 110.324 41.0726 107.043 39.1687 104.03C36.9639 100.883 35.0601 97.8706 33.2904 94.5573C30.8862 90.2399 29.0512 85.4557 27.3831 81.1064C25.6824 76.0216 24.2826 71.0711 23.017 65.8201C22.9843 65.0846 22.9517 64.3491 23.822 64.0166C24.2572 63.8504 25.2943 63.9529 25.6279 64.8227C26.3278 67.298 27.0277 69.7732 27.7276 72.2484C28.4275 74.7237 29.1274 77.1989 30.1282 79.8085C30.8281 82.2837 31.9632 84.5927 33.0982 86.9017C33.9323 89.0764 35.0673 91.3854 36.3365 93.3938C38.9076 98.1462 42.2148 102.867 45.6562 107.287C49.0976 111.707 52.84 116.261 56.7165 120.515L56.4156 120.38C67.1096 132.003 79.5116 142.225 92.7187 150.644C97.5671 153.529 102.115 156.28 107.231 158.564C112.348 160.848 117.599 162.831 122.984 164.514C128.068 166.062 133.421 167.01 138.773 167.957C143.824 168.77 149.144 168.982 154.464 169.194C167.011 169.388 179.493 168.111 191.909 165.362C198.034 163.771 203.992 161.744 209.617 158.848C212.931 157.083 216.079 154.884 218.624 152.415C220.601 150.414 222.142 148.578 223.817 146.442C224.923 144.773 225.728 142.97 226.232 141.032C226.602 139.395 227.106 137.457 227.175 135.685C227.244 133.914 227.012 132.008 226.345 130.268C225.246 125.452 223.143 121.269 220.872 116.651C218.769 112.468 216.097 108.752 213.424 105.035C210.45 101.185 207.343 97.6346 204.235 94.0846C200.525 90.2658 197.116 86.5814 192.837 83.2294C189.929 80.8498 187.322 78.6045 184.413 76.2249C183.946 75.6556 183.344 75.3869 182.575 74.6832C181.806 73.9796 180.903 73.5765 180.435 73.0072C177.527 70.6276 174.484 68.5486 171.576 66.1689C166.695 62.5483 161.379 59.0938 156.364 55.7737C142.254 46.9519 126.602 39.9654 110.748 35.0512C99.2419 31.7173 87.6341 29.4194 75.8232 29.1938C71.2395 28.9501 66.6885 29.4418 62.3043 30.3685C59.5265 30.9309 56.9156 31.9282 54.4715 33.3605C52.5967 34.326 50.8887 35.7263 49.1807 37.1267C47.9079 38.3609 46.5009 39.8957 45.3948 41.5648C44.2888 43.2339 43.3496 45.3379 42.8456 47.2757C42.0732 49.8146 41.7359 52.1874 41.6997 54.6945C41.5945 58.9732 42.2255 63.22 43.2917 67.3006C44.4231 72.8522 46.7259 78.2057 49.2969 82.9581C51.7012 87.2755 54.4065 91.7273 57.5469 96.0129C59.2839 98.5906 61.1551 100.868 62.8921 103.445C63.6609 104.149 64.2955 105.153 64.7633 105.723C65.8657 107.296 67.4032 108.703 68.5056 110.277C69.2744 110.98 69.608 111.85 70.3768 112.554C71.1456 113.258 72.0812 114.396 72.85 115.1C74.2534 116.808 75.9578 118.65 77.4953 120.057C79.1997 121.899 81.0382 123.441 82.7426 125.283C83.9792 126.556 85.2158 127.829 86.5865 128.801C88.5919 130.778 90.7314 132.454 92.7368 134.431C94.5753 135.972 96.4139 137.514 98.2524 139.055C100.994 141 103.735 142.945 106.477 144.89C109.654 146.668 113.131 148.581 116.308 150.359C119.619 151.837 122.93 153.315 126.375 154.492C128.917 155.267 131.894 155.875 134.704 156.048C135.44 156.016 136.477 156.119 137.214 156.087C137.95 156.055 138.686 156.023 139.556 155.69C139.69 155.39 139.991 155.524 139.991 155.524C140.427 155.358 140.894 155.927 141.061 156.362C141.261 157.533 139.788 157.596 138.918 157.929C138.182 157.961 137.312 158.293 136.575 158.325C135.404 158.523 134.668 158.555 133.631 158.453C129.95 158.612 126.371 157.735 122.792 156.858C118.912 155.847 115.3 154.235 111.989 152.757C108.377 151.145 104.899 149.232 101.556 147.019C97.0086 144.268 92.7296 140.916 88.5847 137.263C87.0471 135.856 85.6763 134.884 84.1388 133.476C83.671 132.907 82.768 132.504 82.3002 131.935C79.9939 129.824 77.8217 127.412 75.2144 125.167C73.51 123.325 71.8056 121.483 70.2681 120.075C68.5637 118.233 66.8593 116.391 65.4559 114.683C63.2838 112.271 61.2458 109.559 59.0736 107.148C58.6058 106.579 58.138 106.009 57.6702 105.44C56.5678 103.867 55.4654 102.293 54.2288 101.02C53.5942 100.016 52.8254 99.3123 52.1908 98.3081C51.2552 97.1695 50.1528 95.596 49.3514 94.1569C48.249 92.5834 47.2807 90.7093 46.1783 89.1358C44.4087 85.8226 42.338 82.375 41.0035 78.8955C39.3681 75.2817 38.3345 71.9367 37.5694 67.9904C36.67 64.3448 36.0717 60.8334 36.0426 56.8553C35.8106 54.9494 36.0136 52.8772 36.3835 51.24C36.5866 49.1678 37.0906 47.23 37.7288 44.9917C39.0379 41.2504 40.949 37.7778 43.3278 34.8746C46.1418 31.8051 49.2894 29.6055 52.6039 27.8408C55.9183 26.0761 59.5664 25.1812 63.2145 24.2864C66.8625 23.3916 70.5432 23.2322 74.2239 23.0729C82.1873 23.023 90.0492 24.0091 97.6427 25.5964C105.671 27.0174 113.598 29.4746 121.391 32.2323C136.676 37.6134 151.156 44.7979 164.53 53.6515C168.476 56.1337 172.287 58.9164 175.797 61.5647C178.84 63.6438 181.748 66.0234 184.79 68.1024C185.258 68.6717 186.161 69.0748 186.629 69.6441C187.398 70.3477 188 70.6164 188.769 71.3201C191.677 73.6997 194.284 75.945 197.192 78.3246C198.563 79.297 199.499 80.4355 200.87 81.4079C203.644 84.0881 206.418 86.7683 209.192 89.4485C211.832 92.4293 214.773 95.5444 217.413 98.5252C219.752 101.372 221.957 104.519 224.027 107.966C226.098 111.414 228.169 114.861 229.804 118.475C230.471 120.215 231.273 121.654 231.94 123.394C232.607 125.133 233.275 126.873 233.808 128.913C234.341 130.954 234.707 132.559 234.805 134.766C235.004 135.936 234.903 136.972 234.801 138.008C234.7 139.044 234.598 140.08 234.497 141.116C234.294 143.189 233.489 144.992 232.684 146.796C231.878 148.599 230.638 150.569 229.532 152.238C228.56 153.606 227.589 154.975 226.316 156.209C224.909 157.744 223.201 159.144 221.627 160.244C218.78 162.578 215.332 164.643 211.85 165.973C208.67 167.437 205.189 168.767 201.541 169.662C197.759 170.857 193.81 171.618 189.86 172.378C182.398 173.733 174.601 174.218 167.105 174.837C159.443 175.021 151.614 174.771 143.752 173.784C135.89 172.798 127.996 171.077 120.805 168.588C116.892 166.841 113.146 165.529 109.233 163.783C105.922 162.305 102.746 160.526 99.4347 159.048ZM134.973 155.447C135.274 155.581 135.274 155.581 134.973 155.447C135.274 155.581 135.274 155.581 134.973 155.447ZM191.775 165.663C191.909 165.362 191.909 165.362 191.775 165.663C191.909 165.362 191.909 165.362 191.775 165.663ZM223.114 147.21C223.114 147.21 223.248 146.909 223.114 147.21C223.248 146.909 223.114 147.21 223.114 147.21ZM156.531 56.2086C156.23 56.0742 155.929 55.9399 155.929 55.9399C156.063 55.6393 156.23 56.0742 156.531 56.2086Z" fill="#EFBA34"/>
</g>
<defs>
<clipPath id="clip0_968:212">
<rect width="224.465" height="126.069" fill="white" transform="matrix(0.913153 0.407617 0.407617 -0.913153 0.57666 115.28)"/>
</clipPath>
</defs>
</svg>
