<svg width="61" height="95" viewBox="0 0 61 95" fill="none" xmlns="http://www.w3.org/2000/svg">
<path d="M42.7086 11.7293C25.2987 16.9634 16.463 28.9435 12.0301 46.0875C8.55513 59.5962 10.4284 73.9682 7.06712 87.2791C7.0241 87.4913 6.64173 87.5611 6.54328 87.3202C2.77449 72.4903 6.16745 52.4843 10.7628 38.1717C15.5293 23.3782 26.1917 11.1057 42.485 10.6529C43.0796 10.6262 43.3319 11.561 42.7086 11.7293Z" fill="#FFC7B6"/>
<path d="M60.3655 9.63817C56.4568 10.3923 51.9946 11.697 48.02 10.5967C47.737 10.5393 47.5401 10.0575 47.8661 9.90268C51.5234 7.84566 56.4061 8.09908 60.4238 8.9872C60.7775 9.0589 60.6771 9.55405 60.3655 9.63817Z" fill="#FFC7B6"/>
</svg>
