<svg width="126" height="126" viewBox="0 0 126 126" fill="none" xmlns="http://www.w3.org/2000/svg">
<path d="M106.221 62.7365C104.887 64.042 105.809 66.4021 107.311 67.06C109.664 68.1234 112.766 67.0951 115.257 66.8596C117.22 66.6917 118.662 64.8367 118.47 62.929C118.247 60.9412 116.479 59.6033 114.54 59.7156C111.738 59.9806 108.23 60.7983 106.221 62.7365Z" fill="#EFBA34"/>
<path d="M99.1883 49.3455C100.475 48.9808 101.655 48.1048 102.698 47.2357C103.975 46.1372 105.292 45.023 105.792 43.352C106.513 40.949 104.649 38.5415 102.042 39.4222C100.611 39.8895 99.6785 40.8073 98.626 41.772C97.4048 42.8949 96.2637 43.9866 95.5101 45.4801C94.3023 47.9351 96.95 49.9898 99.1883 49.3455Z" fill="#EFBA34"/>
<path d="M81.1637 45.2313C83.4778 42.0673 85.8741 37.5799 83.4392 33.828C82.1705 31.8798 79.294 32.543 78.3698 34.426C77.9887 35.2205 77.6945 36.1195 77.5046 36.9315C77.2991 37.7035 77.3235 37.6479 77.0292 38.5469C76.4095 40.2647 75.8698 41.9513 76.1264 43.7878C76.3951 46.1268 79.5839 47.3245 81.1637 45.2313Z" fill="#EFBA34"/>
<path d="M58.8248 49.0744C59.6533 47.1827 59.5534 44.6854 59.2342 42.689C58.8317 40.1255 57.7354 37.5566 54.8593 37.1591C53.6803 36.9743 52.0802 37.5997 51.711 38.8968C51.4568 39.7801 51.3713 40.5053 51.3484 41.3904C51.3498 42.2199 51.9007 43.1574 52.0378 43.98C52.4057 45.8652 52.5631 48.1555 53.8911 49.6655C55.3547 51.1685 57.8832 51.1486 58.8248 49.0744Z" fill="#EFBA34"/>
<path d="M31.6625 56.7401C33.4949 58.0067 36.862 56.829 36.2926 54.1925C35.8465 52.1073 34.8316 50.3366 33.5611 48.6197C31.9273 46.4454 30.3215 43.7528 27.4785 43.2039C25.4475 42.8449 23.9739 44.6199 24.0149 46.4945C24.0835 48.9117 26.1279 50.6028 27.5654 52.3928C28.8534 53.9183 30.0283 55.6265 31.6625 56.7401Z" fill="#EFBA34"/>
<path d="M13.3518 72.6585C14.5621 72.9233 16.0018 73.4212 17.2244 73.1277C18.6626 72.7961 20.2595 71.5725 19.8741 69.8786C19.428 67.7934 17.9938 66.6016 16.0377 65.8444C14.678 65.3152 12.9601 64.6955 11.5012 64.6202C9.81089 64.543 8.25079 65.1528 7.51978 66.8219C6.6913 68.7136 7.57562 70.8581 9.42732 71.7023C10.6357 72.1983 12.086 72.3693 13.3518 72.6585Z" fill="#EFBA34"/>
</svg>
