<svg width="257" height="234" viewBox="0 0 257 234" fill="none" xmlns="http://www.w3.org/2000/svg">
<g opacity="0.8" clip-path="url(#clip0_968:222)">
<path d="M168.388 165.777C180.371 155.316 190.947 143.431 199.845 130.311C204.255 123.981 208.475 117.381 212.046 110.434C213.792 107.189 215.617 103.486 216.904 100.163C218.46 96.6495 219.747 93.3261 220.844 89.7336C222.369 85.0333 223.247 79.9849 224.044 75.3955C224.732 70.078 225.15 64.9505 225.378 59.5539C225.268 58.826 225.158 58.098 224.24 57.9397C223.781 57.8606 222.783 58.1613 222.624 59.0792C222.415 61.643 222.206 64.2068 221.997 66.7705C221.788 69.3343 221.579 71.898 221.1 74.6517C220.891 77.2155 220.223 79.7001 219.555 82.1848C219.156 84.4795 218.488 86.9642 217.63 89.1798C216.025 94.339 213.69 99.609 211.167 104.61C208.643 109.611 205.85 114.802 202.867 119.724L203.136 119.534C194.886 133.002 184.69 145.425 173.356 156.234C169.155 160.001 165.224 163.577 160.645 166.806C156.065 170.034 151.295 172.994 146.336 175.684C141.647 178.185 136.578 180.147 131.509 182.11C126.709 183.882 121.53 185.117 116.351 186.351C104.077 188.963 91.5837 190.118 78.8703 189.818C72.5534 189.438 66.3163 188.6 60.2387 186.843C56.646 185.751 53.133 184.2 50.1589 182.27C47.8334 180.687 45.9671 179.184 43.911 177.411C42.5037 175.987 41.3658 174.373 40.4972 172.569C39.8184 171.034 38.9498 169.229 38.5403 167.504C38.1309 165.779 37.9908 163.865 38.3098 162.029C38.4585 157.091 39.715 152.581 41.0512 147.612C42.3077 143.101 44.2129 138.939 46.1181 134.777C48.2927 130.425 50.657 126.342 53.0213 122.259C55.9243 117.796 58.558 113.523 62.1097 109.408C64.5042 106.512 66.6292 103.806 69.0236 100.909C69.3728 100.261 69.9116 99.8807 70.5301 99.0419C71.1486 98.2032 71.9568 97.6334 72.306 96.9846C74.7004 94.0884 77.2845 91.4613 79.6789 88.5652C83.7695 84.0706 88.3191 79.6551 92.5993 75.4296C104.742 64.0507 118.75 54.1752 133.358 46.2938C144.005 40.802 154.951 36.3073 166.497 33.8067C170.947 32.683 175.507 32.2872 179.988 32.3505C182.822 32.3662 185.576 32.8409 188.251 33.7746C190.277 34.3601 192.223 35.4046 194.169 36.449C195.656 37.4144 197.333 38.6488 198.74 40.073C200.148 41.4973 201.475 43.3805 202.344 45.1847C203.592 47.5268 204.38 49.7899 204.9 52.2429C205.829 56.4208 206.029 60.7096 205.77 64.9192C205.732 70.5848 204.505 76.2821 202.9 81.4413C201.374 86.1415 199.578 91.0317 197.324 95.8428C196.117 98.7072 194.721 101.303 193.514 104.167C192.895 105.006 192.466 106.114 192.117 106.763C191.339 108.519 190.102 110.197 189.324 111.953C188.705 112.792 188.546 113.71 187.927 114.549C187.309 115.388 186.61 116.685 185.992 117.524C184.945 119.471 183.628 121.607 182.391 123.285C181.074 125.421 179.567 127.289 178.25 129.425C177.283 130.913 176.315 132.4 175.158 133.619C173.572 135.945 171.796 138.003 170.209 140.329C168.703 142.197 167.196 144.064 165.69 145.932C163.375 148.369 161.061 150.806 158.746 153.243C155.972 155.601 152.929 158.149 150.155 160.507C147.192 162.596 144.229 164.685 141.075 166.505C138.731 167.756 135.927 168.927 133.203 169.639C132.474 169.75 131.476 170.051 130.748 170.161C130.019 170.272 129.291 170.383 128.373 170.225C128.183 169.956 127.914 170.146 127.914 170.146C127.455 170.067 127.106 170.715 127.026 171.174C127.056 172.361 128.513 172.14 129.431 172.298C130.159 172.187 131.078 172.345 131.806 172.235C132.994 172.203 133.722 172.092 134.72 171.791C138.362 171.237 141.705 169.686 145.048 168.135C148.66 166.395 151.892 164.116 154.856 162.027C158.089 159.748 161.132 157.2 163.985 154.383C167.916 150.806 171.468 146.691 174.83 142.307C176.067 140.63 177.225 139.411 178.462 137.734C178.811 137.085 179.619 136.515 179.968 135.866C181.824 133.35 183.49 130.565 185.615 127.858C186.932 125.722 188.248 123.585 189.485 121.908C190.802 119.771 192.119 117.635 193.167 115.688C194.833 112.903 196.309 109.849 197.975 107.063C198.324 106.414 198.673 105.765 199.022 105.117C199.8 103.36 200.578 101.603 201.546 100.116C201.975 99.0078 202.593 98.169 203.022 97.0612C203.721 95.7635 204.499 94.0068 205.007 92.4401C205.785 90.6834 206.374 88.6577 207.152 86.9011C208.249 83.3086 209.615 79.5262 210.253 75.8547C211.16 71.9932 211.529 68.5115 211.518 64.4918C211.697 60.7411 211.607 57.1804 210.867 53.2714C210.727 51.3565 210.128 49.3625 209.449 47.8274C208.85 45.8334 207.982 44.0293 206.923 41.9561C204.917 38.5378 202.372 35.4993 199.477 33.1097C196.124 30.641 192.611 29.0901 189.018 27.9982C185.426 26.9063 181.673 26.7323 177.921 26.5583C174.169 26.3843 170.527 26.9382 166.884 27.4922C159.061 28.98 151.537 31.4648 144.393 34.4876C136.789 37.4313 129.485 41.372 122.371 45.5818C108.412 53.8114 95.5908 63.6552 84.1769 74.9233C80.7846 78.1202 77.582 81.5861 74.6487 84.862C72.0646 87.4892 69.6702 90.3853 67.0861 93.0124C66.737 93.6613 65.9288 94.231 65.5797 94.8799C64.9611 95.7186 64.4223 96.0985 63.8038 96.9372C61.4094 99.8334 59.2843 102.54 56.8899 105.436C55.7326 106.654 55.0343 107.952 53.8769 109.171C51.6722 112.336 49.4674 115.501 47.2626 118.666C45.2475 122.1 42.963 125.725 40.9479 129.159C39.2022 132.403 37.6461 135.916 36.2797 139.699C34.9133 143.481 33.5469 147.263 32.6395 151.125C32.3205 152.961 31.8119 154.528 31.4929 156.363C31.174 158.199 30.855 160.035 30.7257 162.14C30.5963 164.245 30.5468 165.89 30.8765 168.074C30.9067 169.261 31.2062 170.258 31.5058 171.255C31.8054 172.252 32.1049 173.249 32.4045 174.246C33.0036 176.24 34.1416 177.855 35.2795 179.469C36.4174 181.083 38.0144 182.776 39.4217 184.201C40.6394 185.356 41.8571 186.511 43.3442 187.476C45.0209 188.711 46.967 189.755 48.7235 190.531C51.967 192.271 55.7494 193.632 59.4218 194.265C62.8248 195.088 66.4973 195.721 70.2495 195.895C74.1913 196.338 78.2129 196.322 82.2345 196.306C89.8186 196.195 97.5622 195.167 105.036 194.328C112.59 193.03 120.224 191.273 127.748 188.788C135.271 186.304 142.685 183.091 149.261 179.261C152.763 176.792 156.185 174.782 159.688 172.313C162.651 170.224 165.425 167.866 168.388 165.777ZM132.823 169.101C132.554 169.291 132.554 169.291 132.823 169.101C132.554 169.291 132.554 169.291 132.823 169.101ZM79.0599 190.087C78.8703 189.818 78.8703 189.818 79.0599 190.087C78.8703 189.818 78.8703 189.818 79.0599 190.087ZM44.7494 178.028C44.7494 178.028 44.5597 177.759 44.7494 178.028C44.5597 177.759 44.7494 178.028 44.7494 178.028ZM92.5196 75.8885C92.789 75.6986 93.0584 75.5087 93.0584 75.5087C92.8687 75.2397 92.789 75.6986 92.5196 75.8885Z" fill="#37BD8A"/>
</g>
<defs>
<clipPath id="clip0_968:222">
<rect width="224.465" height="126.069" fill="white" transform="translate(256.941 103.754) rotate(144.818)"/>
</clipPath>
</defs>
</svg>
