<svg width="29" height="44" viewBox="0 0 29 44" fill="none" xmlns="http://www.w3.org/2000/svg">
<g opacity="0.6" clip-path="url(#clip0_975:3)">
<path d="M5.75495 31.6411C8.05824 22.0855 16.8254 7.74914 28.5292 5.40423C28.6836 5.37933 28.8478 5.59836 28.7666 5.68956C24.4647 10.1217 19.5491 13.6931 15.9497 18.7373C12.8068 23.1833 10.6802 28.3136 6.42237 32.0803C6.16626 32.3894 5.64054 31.9608 5.75495 31.6411Z" fill="#EFBA34"/>
<path d="M5.23323 34.8612C5.44713 35.619 4.61822 36.4446 4.31612 37.0178C3.8312 37.9664 3.47042 38.8392 2.33078 39.3132C2.16365 39.3736 1.84994 39.3014 1.77179 39.1132C0.944292 37.4946 2.20838 35.1816 3.64226 34.292C3.95895 34.0847 4.50821 34.0407 4.88735 34.3367C4.84436 34.3213 4.84436 34.3213 4.81407 34.2704C5.1532 34.2715 5.27921 34.5971 5.23323 34.8612Z" fill="#EFBA34"/>
</g>
<defs>
<clipPath id="clip0_975:3">
<rect width="40.8654" height="15.0706" fill="white" transform="matrix(-0.336875 0.941549 0.941549 0.336875 14.696 0.415039)"/>
</clipPath>
</defs>
</svg>
