<svg width="318" height="340" viewBox="0 0 318 340" fill="none" xmlns="http://www.w3.org/2000/svg">
<g opacity="0.3" clip-path="url(#clip0)">
<path d="M227.324 272.269C228.25 272.269 229.037 271.527 229.037 270.552C229.037 269.577 228.296 268.834 227.324 268.834C226.398 268.834 225.61 269.577 225.61 270.552C225.61 271.527 226.351 272.269 227.324 272.269Z" fill="white"/>
<path d="M227.324 285.035C228.25 285.035 229.037 284.293 229.037 283.318C229.037 282.389 228.296 281.6 227.324 281.6C226.398 281.6 225.61 282.343 225.61 283.318C225.61 284.293 226.351 285.035 227.324 285.035Z" fill="white"/>
<path d="M227.324 297.802C228.25 297.802 229.037 297.059 229.037 296.084C229.037 295.156 228.296 294.366 227.324 294.366C226.398 294.366 225.61 295.109 225.61 296.084C225.61 297.059 226.351 297.802 227.324 297.802Z" fill="white"/>
<path d="M227.324 310.614C228.25 310.614 229.037 309.872 229.037 308.897C229.037 307.968 228.296 307.179 227.324 307.179C226.398 307.179 225.61 307.922 225.61 308.897C225.61 309.825 226.351 310.614 227.324 310.614Z" fill="white"/>
<path d="M227.324 323.381C228.25 323.381 229.037 322.638 229.037 321.663C229.037 320.735 228.296 319.945 227.324 319.945C226.398 319.945 225.61 320.688 225.61 321.663C225.61 322.591 226.351 323.381 227.324 323.381Z" fill="white"/>
<path d="M227.324 336.147C228.25 336.147 229.037 335.404 229.037 334.429C229.037 333.454 228.296 332.712 227.324 332.712C226.398 332.712 225.61 333.454 225.61 334.429C225.61 335.404 226.351 336.147 227.324 336.147Z" fill="white"/>
<path d="M246.356 272.269C247.282 272.269 248.07 271.527 248.07 270.552C248.07 269.577 247.329 268.834 246.356 268.834C245.43 268.834 244.643 269.577 244.643 270.552C244.643 271.527 245.43 272.269 246.356 272.269Z" fill="white"/>
<path d="M246.356 285.035C247.282 285.035 248.07 284.293 248.07 283.318C248.07 282.389 247.329 281.6 246.356 281.6C245.43 281.6 244.643 282.343 244.643 283.318C244.689 284.293 245.43 285.035 246.356 285.035Z" fill="white"/>
<path d="M246.356 297.802C247.282 297.802 248.07 297.059 248.07 296.084C248.07 295.156 247.329 294.366 246.356 294.366C245.43 294.366 244.643 295.109 244.643 296.084C244.689 297.059 245.43 297.802 246.356 297.802Z" fill="white"/>
<path d="M246.356 310.614C247.282 310.614 248.07 309.872 248.07 308.897C248.07 307.968 247.329 307.179 246.356 307.179C245.43 307.179 244.643 307.922 244.643 308.897C244.689 309.825 245.43 310.614 246.356 310.614Z" fill="white"/>
<path d="M246.356 323.381C247.282 323.381 248.07 322.638 248.07 321.663C248.07 320.735 247.329 319.945 246.356 319.945C245.43 319.945 244.643 320.688 244.643 321.663C244.689 322.591 245.43 323.381 246.356 323.381Z" fill="white"/>
<path d="M246.356 336.147C247.282 336.147 248.07 335.404 248.07 334.429C248.07 333.454 247.329 332.712 246.356 332.712C245.43 332.712 244.643 333.454 244.643 334.429C244.643 335.404 245.43 336.147 246.356 336.147Z" fill="white"/>
<path d="M265.435 272.316C264.489 272.316 263.722 271.547 263.722 270.599C263.722 269.65 264.489 268.881 265.435 268.881C266.381 268.881 267.148 269.65 267.148 270.599C267.148 271.547 266.381 272.316 265.435 272.316Z" fill="white"/>
<path d="M265.435 285.082C264.489 285.082 263.722 284.313 263.722 283.364C263.722 282.416 264.489 281.647 265.435 281.647C266.381 281.647 267.148 282.416 267.148 283.364C267.148 284.313 266.381 285.082 265.435 285.082Z" fill="white"/>
<path d="M265.435 297.848C264.489 297.848 263.722 297.079 263.722 296.13C263.722 295.182 264.489 294.413 265.435 294.413C266.381 294.413 267.148 295.182 267.148 296.13C267.148 297.079 266.381 297.848 265.435 297.848Z" fill="white"/>
<path d="M265.435 310.614C264.489 310.614 263.722 309.845 263.722 308.897C263.722 307.948 264.489 307.179 265.435 307.179C266.381 307.179 267.148 307.948 267.148 308.897C267.148 309.845 266.381 310.614 265.435 310.614Z" fill="white"/>
<path d="M265.435 323.381C264.489 323.381 263.722 322.612 263.722 321.663C263.722 320.714 264.489 319.945 265.435 319.945C266.381 319.945 267.148 320.714 267.148 321.663C267.148 322.612 266.381 323.381 265.435 323.381Z" fill="white"/>
<path d="M265.435 336.147C264.489 336.147 263.722 335.378 263.722 334.429C263.722 333.481 264.489 332.712 265.435 332.712C266.381 332.712 267.148 333.481 267.148 334.429C267.148 335.378 266.381 336.147 265.435 336.147Z" fill="white"/>
<path d="M15.9761 340H218.849L117.436 163.872L15.9761 340ZM216.858 338.839H17.921L117.39 166.147L216.858 338.839Z" fill="white"/>
<path d="M32.6469 312.239L48.2988 339.443H16.995L32.6469 312.239Z" fill="white"/>
<path d="M215.181 138.491L216.182 139.073L100.252 339.72L99.2499 339.138L215.181 138.491Z" fill="white"/>
<path d="M75.9359 237.832L128.425 290.452L127.606 291.272L75.1173 238.653L75.9359 237.832Z" fill="white"/>
<path d="M67.5848 252.008L119.779 304.332L118.96 305.153L66.7662 252.829L67.5848 252.008Z" fill="white"/>
<path d="M59.7573 266.191L112.246 318.811L111.427 319.631L58.9387 267.012L59.7573 266.191Z" fill="white"/>
<path d="M219.22 143.446L266.732 191.076C279.837 177.938 279.837 156.584 266.732 143.446C253.626 156.63 232.371 156.63 219.22 143.446Z" fill="white"/>
<path d="M284.791 0H284.375L282.106 117.403H282.522C282.661 117.403 282.8 117.403 282.985 117.403H283.495L283.634 117.171L334.618 28.5964L334.479 28.3643C323.829 11.0022 305.259 0.417804 284.791 0ZM282.985 116.521L285.208 0.928454C305.12 1.4391 323.18 11.7914 333.6 28.6428L282.985 116.521Z" fill="white"/>
<path d="M283.958 116.521L334.109 29.4784C339.573 38.6701 342.352 49.1616 342.12 59.8388C341.842 75.1583 335.545 89.4565 324.431 100.134C313.548 110.672 299.193 116.475 283.958 116.521ZM334.063 27.7607L333.692 28.3642L282.43 117.403H283.171C298.869 117.542 313.734 111.647 324.986 100.83C336.285 89.9672 342.676 75.4369 343 59.8853C343.232 48.7438 340.268 37.8809 334.479 28.4107L334.063 27.7607Z" fill="white"/>
<path d="M282.476 74.23C276.671 74.23 271.964 69.512 271.964 63.692C271.964 57.8721 276.671 53.1541 282.476 53.1541C288.282 53.1541 292.988 57.8721 292.988 63.692C292.988 69.512 288.282 74.23 282.476 74.23Z" fill="white"/>
<path d="M193.149 115.593L141.377 207.092L140.219 206.442L192.223 114.571L193.149 115.593Z" fill="white"/>
<path d="M192.714 115.145L307.468 231.46L306.546 232.374L191.792 116.059L192.714 115.145Z" fill="white"/>
<path d="M317.253 214.38V339.443C317.253 339.443 286.366 321.338 286.366 276.912C286.366 243.255 303.546 225.429 317.253 214.38Z" fill="white"/>
<path d="M42.2325 196.136H53.439V207.37H42.2325V196.136Z" fill="white"/>
<path d="M7.77963 217.862H15.4204V225.522H7.77963V217.862Z" fill="white"/>
<path d="M3.05176e-05 161.876H16.0225V177.938H3.05176e-05V161.876Z" fill="white"/>
<path d="M9.95612 92.6598H32.3227V115.128H9.95612V92.6598ZM15.513 109.511H26.7195V98.2769H15.513V109.511Z" fill="white"/>
<path d="M95.764 152.452L106.091 144.235L116.463 152.452L126.836 144.235L137.209 152.452L147.536 144.282L156.844 152.266L157.307 151.709L147.582 143.353L137.209 151.57L126.836 143.353L116.463 151.57L106.091 143.353L95.764 151.57L85.3911 143.353L75.0182 151.57L64.6454 143.353L54.3187 151.57L43.9459 143.353L33.3414 151.709L33.8045 152.266L43.9459 144.235L54.3187 152.452L64.6454 144.235L75.0182 152.452L85.3911 144.235L95.764 152.452Z" fill="white"/>
<path d="M95.764 133.604L106.091 125.434L116.463 133.604L126.836 125.434L137.209 133.604L147.536 125.434L156.844 133.465L157.307 132.908L147.536 124.552L137.209 132.769L126.836 124.552L116.463 132.769L106.091 124.552L95.764 132.769L85.3911 124.552L75.0182 132.769L64.6454 124.552L54.3187 132.769L43.9459 124.552L33.3414 132.908L33.8045 133.465L43.9459 125.434L54.3187 133.604L64.6454 125.434L75.0182 133.604L85.3911 125.434L95.764 133.604Z" fill="white"/>
</g>
<defs>
<clipPath id="clip0">
<rect width="343" height="340" fill="white" transform="matrix(-1 0 0 1 343 0)"/>
</clipPath>
</defs>
</svg>
