<svg width="105" height="105" viewBox="0 0 105 105" fill="none" xmlns="http://www.w3.org/2000/svg">
<path fill-rule="evenodd" clip-rule="evenodd" d="M52.6534 104.606C52.5643 104.606 52.4751 104.607 52.3859 104.607C52.2967 104.607 52.2075 104.606 52.1184 104.606C51.6924 104.604 51.3489 104.257 51.351 103.831C51.3531 103.405 51.7002 103.061 52.1261 103.063C52.2127 103.064 52.2993 103.064 52.3859 103.064C52.4725 103.064 52.5591 103.064 52.6456 103.063C53.0716 103.061 53.4186 103.405 53.4208 103.831C53.4229 104.257 53.0793 104.604 52.6534 104.606ZM57.1173 103.626C57.0723 103.203 57.3792 102.823 57.8027 102.778C57.9746 102.76 58.1463 102.74 58.3177 102.72C58.7408 102.671 59.1237 102.974 59.1731 103.397C59.2224 103.82 58.9195 104.203 58.4964 104.253C58.3198 104.273 58.1429 104.293 57.9658 104.312C57.5422 104.357 57.1624 104.05 57.1173 103.626ZM47.6544 103.626C47.6094 104.05 47.2295 104.357 46.806 104.312C46.6288 104.293 46.452 104.273 46.2754 104.253C45.8523 104.203 45.5493 103.82 45.5987 103.397C45.648 102.974 46.031 102.671 46.4541 102.72C46.6255 102.74 46.7971 102.76 46.969 102.778C47.3926 102.823 47.6995 103.203 47.6544 103.626ZM62.8236 102.781C62.7313 102.365 62.9936 101.953 63.4094 101.861C63.5777 101.824 63.7457 101.786 63.9134 101.747C64.3282 101.65 64.7428 101.908 64.8394 102.323C64.936 102.738 64.6779 103.152 64.2631 103.249C64.0902 103.289 63.9171 103.328 63.7436 103.367C63.3278 103.459 62.9159 103.197 62.8236 102.781ZM41.9482 102.781C41.8559 103.197 41.444 103.459 41.0281 103.367C40.8547 103.328 40.6815 103.289 40.5087 103.249C40.0939 103.152 39.8358 102.738 39.9324 102.323C40.0289 101.908 40.4435 101.65 40.8584 101.747C41.0261 101.786 41.1941 101.824 41.3624 101.861C41.7782 101.953 42.0405 102.365 41.9482 102.781ZM68.3971 101.3C68.2584 100.897 68.4726 100.458 68.8754 100.319C69.0381 100.263 69.2005 100.207 69.3624 100.149C69.7638 100.006 70.2048 100.216 70.3476 100.617C70.4903 101.018 70.2807 101.459 69.8794 101.602C69.7124 101.662 69.5451 101.72 69.3773 101.778C68.9746 101.917 68.5357 101.702 68.3971 101.3ZM36.3747 101.3C36.2361 101.702 35.7972 101.917 35.3944 101.778C35.2267 101.72 35.0594 101.662 34.8924 101.602C34.4911 101.459 34.2815 101.018 34.4242 100.617C34.567 100.216 35.008 100.006 35.4093 100.149C35.5713 100.207 35.7337 100.263 35.8964 100.319C36.2992 100.458 36.5133 100.897 36.3747 101.3ZM73.7671 99.1991C73.584 98.8145 73.7473 98.3543 74.1319 98.1712C74.2875 98.0971 74.4426 98.0223 74.5972 97.9467C74.9799 97.7596 75.4418 97.9182 75.6288 98.3009C75.8159 98.6836 75.6573 99.1455 75.2746 99.3325C75.1152 99.4104 74.9554 99.4875 74.7951 99.5639C74.4105 99.747 73.9503 99.5837 73.7671 99.1991ZM31.0046 99.1991C30.8215 99.5837 30.3613 99.747 29.9767 99.5639C29.8164 99.4875 29.6566 99.4104 29.4972 99.3325C29.1145 99.1455 28.9559 98.6836 29.1429 98.3009C29.33 97.9182 29.7919 97.7596 30.1745 97.9467C30.3292 98.0223 30.4843 98.0971 30.6399 98.1711C31.0244 98.3543 31.1878 98.8145 31.0046 99.1991ZM78.8678 96.507C78.6427 96.1454 78.7533 95.6698 79.1149 95.4447C79.2612 95.3536 79.407 95.2618 79.5523 95.1693C79.9116 94.9405 80.3883 95.0463 80.6171 95.4056C80.8459 95.7649 80.7401 96.2416 80.3808 96.4704C80.2311 96.5657 80.0809 96.6603 79.9302 96.7542C79.5686 96.9793 79.0929 96.8686 78.8678 96.507ZM25.904 96.507C25.6789 96.8686 25.2032 96.9793 24.8416 96.7541C24.6909 96.6603 24.5406 96.5657 24.3909 96.4704C24.0316 96.2416 23.9258 95.7648 24.1546 95.4055C24.3834 95.0463 24.8602 94.9405 25.2195 95.1693C25.3648 95.2618 25.5106 95.3536 25.6568 95.4446C26.0184 95.6698 26.1291 96.1454 25.904 96.507ZM83.6347 93.2607C83.3706 92.9265 83.4274 92.4414 83.7616 92.1773C83.8968 92.0706 84.0313 91.9631 84.1653 91.855C84.4968 91.5875 84.9824 91.6394 85.2499 91.9709C85.5174 92.3024 85.4655 92.788 85.134 93.0555C84.9959 93.1669 84.8572 93.2776 84.718 93.3876C84.3838 93.6517 83.8988 93.5949 83.6347 93.2607ZM21.1371 93.2606C20.873 93.5949 20.388 93.6517 20.0537 93.3876C19.9145 93.2776 19.7759 93.1669 19.6378 93.0555C19.3063 92.788 19.2544 92.3024 19.5219 91.9709C19.7894 91.6394 20.2749 91.5875 20.6065 91.855C20.7404 91.9631 20.875 92.0705 21.0101 92.1773C21.3443 92.4414 21.4012 92.9264 21.1371 93.2606ZM88.0096 89.503C87.71 89.2003 87.7125 88.7119 88.0152 88.4123C88.1376 88.2911 88.2594 88.1693 88.3805 88.0469C88.6802 87.7442 89.1685 87.7417 89.4712 88.0414C89.774 88.3411 89.7764 88.8294 89.4768 89.1321C89.3519 89.2582 89.2265 89.3837 89.1004 89.5085C88.7976 89.8082 88.3093 89.8057 88.0096 89.503ZM16.7621 89.503C16.4625 89.8057 15.9741 89.8082 15.6714 89.5085C15.5453 89.3837 15.4199 89.2582 15.295 89.1321C14.9954 88.8294 14.9978 88.3411 15.3006 88.0414C15.6033 87.7417 16.0916 87.7442 16.3913 88.0469C16.5124 88.1693 16.6342 88.2911 16.7566 88.4123C17.0593 88.7119 17.0618 89.2003 16.7621 89.503ZM91.9392 85.2816C91.6077 85.0142 91.5558 84.5286 91.8232 84.1971C91.9314 84.0631 92.0388 83.9285 92.1456 83.7934C92.4097 83.4592 92.8947 83.4024 93.2289 83.6665C93.5631 83.9306 93.6199 84.4156 93.3558 84.7498C93.2458 84.889 93.1351 85.0276 93.0237 85.1657C92.7562 85.4972 92.2707 85.5491 91.9392 85.2816ZM12.8326 85.2816C12.5011 85.5491 12.0155 85.4972 11.7481 85.1657C11.6367 85.0276 11.5259 84.889 11.4159 84.7498C11.1518 84.4156 11.2087 83.9305 11.5429 83.6664C11.8771 83.4023 12.3621 83.4592 12.6262 83.7934C12.733 83.9285 12.8404 84.0631 12.9485 84.1971C13.216 84.5286 13.1641 85.0142 12.8326 85.2816ZM95.3738 80.6489C95.0145 80.4201 94.9087 79.9433 95.1375 79.5841C95.23 79.4388 95.3218 79.293 95.4129 79.1467C95.638 78.7851 96.1137 78.6744 96.4753 78.8996C96.8369 79.1247 96.9475 79.6003 96.7224 79.9619C96.6286 80.1127 96.534 80.2629 96.4386 80.4126C96.2098 80.7719 95.7331 80.8777 95.3738 80.6489ZM9.39797 80.6489C9.03868 80.8777 8.56194 80.7719 8.33315 80.4126C8.23781 80.2629 8.14322 80.1127 8.04938 79.9619C7.82426 79.6003 7.93491 79.1247 8.29651 78.8995C8.65812 78.6744 9.13376 78.7851 9.35888 79.1467C9.44995 79.293 9.54174 79.4388 9.63426 79.584C9.86306 79.9433 9.75726 80.4201 9.39797 80.6489ZM98.2692 75.6606C97.8865 75.4735 97.7279 75.0117 97.9149 74.629C97.9905 74.4743 98.0653 74.3192 98.1394 74.1637C98.3225 73.7791 98.7827 73.6158 99.1673 73.7989C99.5519 73.982 99.7152 74.4422 99.5321 74.8268C99.4558 74.9871 99.3787 75.147 99.3008 75.3064C99.1137 75.6891 98.6518 75.8476 98.2692 75.6606ZM6.50262 75.6606C6.11994 75.8476 5.65807 75.689 5.47102 75.3063C5.39311 75.147 5.31599 74.9871 5.23966 74.8268C5.05655 74.4422 5.21986 73.982 5.60445 73.7989C5.98904 73.6157 6.44926 73.7791 6.63237 74.1637C6.70644 74.3192 6.78127 74.4743 6.85687 74.629C7.04392 75.0117 6.88533 75.4735 6.50262 75.6606ZM100.585 70.3793C100.184 70.2366 99.9744 69.7955 100.117 69.3942C100.175 69.2322 100.232 69.0698 100.288 68.9071C100.426 68.5043 100.865 68.2902 101.268 68.4288C101.671 68.5674 101.885 69.0063 101.746 69.4091C101.688 69.5768 101.63 69.7442 101.571 69.9111C101.428 70.3124 100.987 70.5221 100.585 70.3793ZM4.18642 70.3793C3.7851 70.522 3.34404 70.3124 3.20129 69.9111C3.1419 69.7442 3.08335 69.5768 3.02562 69.4091C2.887 69.0063 3.10114 68.5674 3.50391 68.4288C3.90668 68.2902 4.34557 68.5043 4.48418 68.9071C4.5402 69.0698 4.59701 69.2322 4.65462 69.3942C4.79737 69.7955 4.58775 70.2366 4.18642 70.3793ZM102.291 64.8712C101.876 64.7746 101.618 64.36 101.715 63.9451C101.754 63.7775 101.792 63.6095 101.829 63.4412C101.922 63.0253 102.334 62.763 102.749 62.8553C103.165 62.9476 103.428 63.3596 103.335 63.7754C103.297 63.9489 103.257 64.122 103.217 64.2948C103.121 64.7097 102.706 64.9677 102.291 64.8712ZM2.48065 64.8711C2.06578 64.9677 1.65118 64.7097 1.55463 64.2948C1.5144 64.122 1.47504 63.9488 1.43654 63.7754C1.34425 63.3595 1.60653 62.9476 2.02236 62.8553C2.4382 62.763 2.85013 63.0253 2.94242 63.4411C2.97977 63.6094 3.01797 63.7774 3.05699 63.9451C3.15356 64.36 2.89552 64.7746 2.48065 64.8711ZM103.365 59.2048C102.942 59.1555 102.639 58.7725 102.689 58.3494C102.709 58.178 102.728 58.0064 102.746 57.8345C102.791 57.4109 103.171 57.1041 103.595 57.1491C104.018 57.1941 104.325 57.574 104.28 57.9976C104.261 58.1747 104.241 58.3515 104.221 58.5281C104.171 58.9512 103.788 59.2542 103.365 59.2048ZM1.40639 59.2048C0.983292 59.2542 0.600311 58.9512 0.550964 58.5281C0.530365 58.3515 0.510651 58.1747 0.491821 57.9975C0.446793 57.574 0.753662 57.1941 1.17723 57.1491C1.60081 57.104 1.98068 57.4109 2.02571 57.8345C2.04398 58.0064 2.06312 58.178 2.08311 58.3494C2.13245 58.7725 1.82948 59.1555 1.40639 59.2048ZM103.799 53.4525C103.373 53.4504 103.03 53.1033 103.032 52.6774C103.032 52.5909 103.032 52.5043 103.032 52.4176C103.032 52.331 103.032 52.2444 103.032 52.1579C103.03 51.7319 103.373 51.3849 103.799 51.3828C104.225 51.3806 104.572 51.7242 104.574 52.1501C104.575 52.2393 104.575 52.3284 104.575 52.4176C104.575 52.5069 104.575 52.596 104.574 52.6851C104.572 53.1111 104.225 53.4547 103.799 53.4525ZM0.972763 53.4525C0.546814 53.4546 0.199776 53.1111 0.197639 52.6851C0.197197 52.596 0.196968 52.5069 0.196968 52.4176C0.196968 52.3739 0.197021 52.3302 0.197128 52.2865C0.197243 52.241 0.197411 52.1956 0.197639 52.1501C0.199776 51.7242 0.546814 51.3806 0.972763 51.3827C1.39872 51.3849 1.74229 51.7319 1.74015 52.1579C1.73972 52.2444 1.73949 52.331 1.73949 52.4176C1.73949 52.5043 1.73972 52.5909 1.74015 52.6774C1.74229 53.1033 1.39872 53.4504 0.972763 53.4525ZM103.595 47.6862C103.171 47.7312 102.791 47.4244 102.746 47.0008C102.728 46.8289 102.709 46.6572 102.689 46.4859C102.639 46.0628 102.942 45.6798 103.365 45.6304C103.788 45.5811 104.171 45.8841 104.221 46.3072C104.241 46.4838 104.261 46.6606 104.28 46.8377C104.325 47.2613 104.018 47.6412 103.595 47.6862ZM1.17723 47.6862C0.75367 47.6412 0.4468 47.2613 0.491821 46.8377C0.510651 46.6606 0.530373 46.4837 0.550964 46.3071C0.600311 45.8841 0.983299 45.5811 1.40639 45.6304C1.82948 45.6798 2.13245 46.0628 2.08311 46.4859C2.06312 46.6572 2.04399 46.8289 2.02571 47.0008C1.98068 47.4243 1.60081 47.7312 1.17723 47.6862ZM102.749 41.98C102.334 42.0723 101.922 41.81 101.829 41.3941C101.792 41.2258 101.754 41.0578 101.715 40.8902C101.618 40.4753 101.876 40.0607 102.291 39.9641C102.706 39.8676 103.121 40.1256 103.217 40.5405C103.257 40.7133 103.297 40.8864 103.335 41.0599C103.428 41.4757 103.165 41.8877 102.749 41.98ZM2.02237 41.9799C1.60653 41.8876 1.34425 41.4757 1.43654 41.0599C1.47504 40.8864 1.51441 40.7133 1.55463 40.5405C1.65119 40.1256 2.06579 39.8676 2.48066 39.9641C2.89552 40.0607 3.15356 40.4753 3.057 40.8901C3.01797 41.0578 2.97978 41.2258 2.94242 41.3941C2.85014 41.81 2.43821 42.0722 2.02237 41.9799ZM101.268 36.4065C100.865 36.5451 100.426 36.3309 100.288 35.9282C100.232 35.7654 100.175 35.6031 100.117 35.4411C99.9744 35.0398 100.184 34.5987 100.585 34.456C100.987 34.3132 101.428 34.5228 101.571 34.9242C101.63 35.0911 101.688 35.2585 101.746 35.4262C101.885 35.829 101.671 36.2678 101.268 36.4065ZM3.50392 36.4064C3.10114 36.2678 2.88701 35.8289 3.02563 35.4262C3.08336 35.2584 3.14191 35.0911 3.20129 34.9241C3.34404 34.5228 3.7851 34.3132 4.18642 34.456C4.58775 34.5987 4.79737 35.0398 4.65462 35.4411C4.59702 35.6031 4.5402 35.7654 4.48419 35.9282C4.34557 36.3309 3.90668 36.5451 3.50392 36.4064ZM99.1673 31.0364C98.7828 31.2195 98.3225 31.0562 98.1394 30.6716C98.0654 30.5161 97.9905 30.361 97.9149 30.2063C97.7279 29.8236 97.8865 29.3617 98.2692 29.1747C98.6519 28.9876 99.1137 29.1462 99.3008 29.5289C99.3787 29.6883 99.4558 29.8482 99.5321 30.0085C99.7153 30.3931 99.5519 30.8533 99.1673 31.0364ZM5.60446 31.0364C5.21987 30.8533 5.05656 30.3931 5.23967 30.0085C5.31599 29.8482 5.39312 29.6883 5.47102 29.5289C5.65808 29.1462 6.11995 28.9876 6.50264 29.1747C6.88533 29.3617 7.04393 29.8236 6.85688 30.2063C6.78127 30.361 6.70644 30.5161 6.63238 30.6716C6.44926 31.0562 5.98904 31.2195 5.60446 31.0364ZM96.4753 25.9357C96.1137 26.1609 95.638 26.0502 95.4129 25.6886C95.3218 25.5423 95.2301 25.3965 95.1375 25.2512C94.9087 24.8919 95.0145 24.4152 95.3738 24.1864C95.7331 23.9576 96.2099 24.0634 96.4387 24.4227C96.534 24.5724 96.6286 24.7226 96.7224 24.8734C96.9475 25.235 96.8369 25.7106 96.4753 25.9357ZM8.29652 25.9357C7.93491 25.7106 7.82426 25.235 8.04939 24.8733C8.14323 24.7226 8.23782 24.5724 8.33315 24.4227C8.56195 24.0634 9.03869 23.9576 9.39799 24.1864C9.75728 24.4152 9.86307 24.8919 9.63427 25.2512C9.54175 25.3965 9.44996 25.5423 9.35889 25.6886C9.13377 26.0502 8.65813 26.1608 8.29652 25.9357ZM93.2289 21.1688C92.8947 21.4329 92.4097 21.3761 92.1456 21.0419C92.0388 20.9068 91.9314 20.7722 91.8232 20.6382C91.5558 20.3067 91.6077 19.8211 91.9392 19.5536C92.2707 19.2862 92.7563 19.3381 93.0237 19.6696C93.1351 19.8076 93.2458 19.9463 93.3559 20.0855C93.62 20.4197 93.5631 20.9047 93.2289 21.1688ZM11.5429 21.1688C11.2087 20.9047 11.1518 20.4197 11.416 20.0855C11.526 19.9463 11.6367 19.8076 11.7481 19.6696C12.0155 19.3381 12.5011 19.2862 12.8326 19.5536C13.1641 19.8211 13.216 20.3067 12.9486 20.6382C12.8404 20.7722 12.733 20.9068 12.6262 21.0419C12.3621 21.3761 11.8771 21.4329 11.5429 21.1688ZM89.4712 16.7939C89.1685 17.0936 88.6802 17.0911 88.3805 16.7884C88.2594 16.666 88.1376 16.5442 88.0152 16.423C87.7125 16.1234 87.71 15.635 88.0097 15.3323C88.3093 15.0296 88.7977 15.0271 89.1004 15.3268C89.2265 15.4516 89.3519 15.5771 89.4768 15.7032C89.7764 16.0059 89.774 16.4942 89.4712 16.7939ZM15.3006 16.7939C14.9978 16.4942 14.9954 16.0059 15.295 15.7032C15.4199 15.5771 15.5453 15.4516 15.6714 15.3268C15.9742 15.0271 16.4625 15.0296 16.7622 15.3323C17.0618 15.635 17.0593 16.1233 16.7566 16.423C16.6342 16.5442 16.5124 16.666 16.3913 16.7884C16.0916 17.0911 15.6033 17.0935 15.3006 16.7939ZM85.2499 12.8644C84.9824 13.1959 84.4969 13.2478 84.1653 12.9803C84.0313 12.8722 83.8968 12.7647 83.7617 12.6579C83.4275 12.3939 83.3706 11.9088 83.6347 11.5746C83.8988 11.2404 84.3838 11.1836 84.718 11.4477C84.8573 11.5577 84.9959 11.6684 85.134 11.7798C85.4655 12.0473 85.5174 12.5329 85.2499 12.8644ZM19.5219 12.8643C19.2544 12.5328 19.3063 12.0473 19.6378 11.7798C19.7759 11.6684 19.9145 11.5577 20.0538 11.4477C20.388 11.1836 20.873 11.2404 21.1371 11.5746C21.4012 11.9088 21.3444 12.3938 21.0102 12.6579C20.875 12.7647 20.7405 12.8722 20.6065 12.9803C20.275 13.2478 19.7894 13.1959 19.5219 12.8643ZM80.6171 9.42973C80.3884 9.78902 79.9116 9.89481 79.5523 9.66601C79.407 9.57349 79.2612 9.4817 79.115 9.39062C78.7533 9.1655 78.6427 8.68987 78.8678 8.32825C79.0929 7.96665 79.5686 7.856 79.9302 8.08112C80.0809 8.17496 80.2312 8.26955 80.3809 8.36489C80.7402 8.59369 80.8459 9.07043 80.6171 9.42973ZM24.1547 9.42971C23.9259 9.07042 24.0317 8.59368 24.3909 8.36488C24.5406 8.26955 24.6909 8.17496 24.8416 8.08112C25.2032 7.856 25.6789 7.96664 25.904 8.32825C26.1291 8.68986 26.0185 9.1655 25.6569 9.39062C25.5106 9.48169 25.3648 9.57348 25.2195 9.666C24.8602 9.8948 24.3835 9.789 24.1547 9.42971ZM75.6289 6.53438C75.4418 6.91707 74.9799 7.07567 74.5972 6.88862C74.4426 6.81301 74.2875 6.73818 74.1319 6.66412C73.7473 6.481 73.584 6.02078 73.7671 5.6362C73.9503 5.25161 74.4105 5.08829 74.7951 5.27141C74.9554 5.34773 75.1152 5.42486 75.2746 5.50276C75.6573 5.68982 75.8159 6.15169 75.6289 6.53438ZM29.143 6.53436C28.9559 6.15168 29.1145 5.68981 29.4972 5.50276C29.6566 5.42485 29.8164 5.34773 29.9767 5.2714C30.3613 5.08829 30.8215 5.2516 31.0047 5.63619C31.1878 6.02077 31.0245 6.481 30.6399 6.66411C30.4843 6.73817 30.3292 6.813 30.1746 6.88861C29.7919 7.07566 29.33 6.91707 29.143 6.53436ZM70.3476 4.21816C70.2048 4.61949 69.7638 4.82911 69.3624 4.68636C69.2005 4.62875 69.0381 4.57194 68.8754 4.51593C68.4726 4.3773 68.2585 3.93842 68.3971 3.53566C68.5357 3.13288 68.9746 2.91875 69.3774 3.05737C69.5451 3.1151 69.7124 3.17365 69.8794 3.23303C70.2807 3.37578 70.4903 3.81684 70.3476 4.21816ZM34.4242 4.21816C34.2815 3.81683 34.4911 3.37578 34.8924 3.23302C35.0594 3.17364 35.2267 3.11509 35.3945 3.05736C35.7972 2.91874 36.2361 3.13287 36.3747 3.53565C36.5133 3.93842 36.2992 4.3773 35.8964 4.51592C35.7337 4.57194 35.5714 4.62875 35.4094 4.68636C35.008 4.82911 34.567 4.61948 34.4242 4.21816ZM64.8394 2.5124C64.7429 2.92726 64.3283 3.1853 63.9134 3.08874C63.7457 3.04971 63.5777 3.01152 63.4094 2.97416C62.9936 2.88187 62.7313 2.46995 62.8236 2.05411C62.9159 1.63827 63.3278 1.37598 63.7436 1.46828C63.9171 1.50677 64.0903 1.54615 64.2631 1.58636C64.6779 1.68293 64.936 2.09753 64.8394 2.5124ZM39.9324 2.51239C39.8358 2.09752 40.0939 1.68292 40.5087 1.58636C40.6816 1.54614 40.8547 1.50677 41.0282 1.46828C41.444 1.37598 41.8559 1.63827 41.9482 2.0541C42.0405 2.46994 41.7782 2.88187 41.3624 2.97416C41.1941 3.01151 41.0261 3.04971 40.8584 3.08873C40.4436 3.1853 40.029 2.92726 39.9324 2.51239ZM59.1731 1.43813C59.1238 1.86121 58.7408 2.16419 58.3177 2.11485C58.1463 2.09486 57.9747 2.07573 57.8028 2.05745C57.3792 2.01242 57.0723 1.63255 57.1174 1.20897C57.1624 0.785408 57.5423 0.478539 57.9658 0.52356C58.1429 0.542389 58.3198 0.562111 58.4964 0.582703C58.9195 0.63205 59.2225 1.01504 59.1731 1.43813ZM45.5987 1.43813C45.5494 1.01503 45.8523 0.63205 46.2754 0.582703C46.452 0.562103 46.6289 0.542389 46.806 0.52356C47.2296 0.478531 47.6094 0.7854 47.6545 1.20897C47.6995 1.63255 47.3926 2.01242 46.969 2.05745C46.7972 2.07572 46.6255 2.09486 46.4541 2.11485C46.031 2.16419 45.6481 1.86121 45.5987 1.43813ZM53.4208 1.0045C53.4186 1.43046 53.0716 1.77402 52.6457 1.77189C52.5591 1.77145 52.4725 1.77123 52.3859 1.77123C52.2993 1.77123 52.2127 1.77145 52.1262 1.77189C51.7002 1.77402 51.3532 1.43046 51.351 1.0045C51.3489 0.578552 51.6925 0.231514 52.1184 0.229378C52.2075 0.228935 52.2967 0.228706 52.3859 0.228706C52.4751 0.228706 52.5643 0.228935 52.6534 0.229378C53.0794 0.231514 53.4229 0.578552 53.4208 1.0045Z" fill="#848D95"/>
<path fill-rule="evenodd" clip-rule="evenodd" d="M52.6518 96.8929C52.5632 96.8934 52.4746 96.8937 52.3859 96.8937C52.2972 96.8937 52.2086 96.8934 52.12 96.8929C51.694 96.8904 51.3508 96.5431 51.3533 96.1171C51.3558 95.6912 51.7031 95.3479 52.129 95.3504C52.2146 95.3509 52.3002 95.3511 52.3859 95.3511C52.4716 95.3511 52.5572 95.3509 52.6428 95.3504C53.0687 95.3479 53.416 95.6912 53.4185 96.1171C53.421 96.5431 53.0778 96.8904 52.6518 96.8929ZM57.0708 95.8811C57.0183 95.4584 57.3183 95.0731 57.741 95.0205C57.9101 94.9995 58.0789 94.9775 58.2474 94.9545C58.6694 94.8969 59.0583 95.1923 59.1159 95.6143C59.1735 96.0364 58.878 96.4252 58.456 96.4828C58.2814 96.5066 58.1066 96.5294 57.9314 96.5512C57.5087 96.6038 57.1234 96.3038 57.0708 95.8811ZM47.701 95.8811C47.6484 96.3038 47.2631 96.6038 46.8404 96.5512C46.6652 96.5294 46.4903 96.5066 46.3158 96.4828C45.8938 96.4252 45.5983 96.0364 45.6559 95.6143C45.7135 95.1923 46.1024 94.8969 46.5244 94.9545C46.6929 94.9775 46.8617 94.9995 47.0308 95.0205C47.4535 95.0731 47.7535 95.4584 47.701 95.8811ZM62.7034 94.9046C62.5959 94.4924 62.8428 94.0711 63.255 93.9636C63.4202 93.9205 63.5851 93.8764 63.7495 93.8314C64.1603 93.7189 64.5846 93.9608 64.697 94.3717C64.8095 94.7825 64.5676 95.2067 64.1568 95.3192C63.9864 95.3658 63.8156 95.4115 63.6444 95.4562C63.2322 95.5637 62.8109 95.3167 62.7034 94.9046ZM42.0684 94.9046C41.9609 95.3167 41.5396 95.5637 41.1274 95.4562C40.9562 95.4115 40.7854 95.3658 40.615 95.3192C40.2042 95.2067 39.9623 94.7825 40.0748 94.3717C40.1872 93.9608 40.6115 93.7189 41.0223 93.8314C41.1867 93.8764 41.3516 93.9205 41.5168 93.9636C41.929 94.0711 42.1759 94.4924 42.0684 94.9046ZM68.1612 93.196C68.0004 92.8016 68.1898 92.3514 68.5843 92.1906C68.7418 92.1264 68.8989 92.0613 69.0555 91.9952C69.448 91.8297 69.9003 92.0137 70.0658 92.4062C70.2313 92.7987 70.0473 93.251 69.6548 93.4166C69.4926 93.485 69.3298 93.5525 69.1666 93.619C68.7722 93.7798 68.322 93.5904 68.1612 93.196ZM36.6106 93.196C36.4498 93.5904 35.9996 93.7798 35.6052 93.619C35.442 93.5525 35.2792 93.485 35.117 93.4166C34.7245 93.251 34.5405 92.7987 34.706 92.4062C34.8715 92.0137 35.3239 91.8297 35.7163 91.9952C35.8729 92.0613 36.03 92.1264 36.1875 92.1906C36.582 92.3514 36.7714 92.8016 36.6106 93.196ZM73.3465 90.7853C73.1354 90.4153 73.2642 89.9443 73.6341 89.7332C73.7821 89.6487 73.9295 89.5634 74.0763 89.4773C74.4437 89.2618 74.9163 89.3849 75.1318 89.7523C75.3473 90.1198 75.2242 90.5923 74.8568 90.8078C74.7046 90.8971 74.5519 90.9854 74.3987 91.0729C74.0287 91.284 73.5577 91.1552 73.3465 90.7853ZM31.4253 90.7853C31.2141 91.1552 30.7431 91.284 30.3731 91.0729C30.2199 90.9854 30.0672 90.8971 29.915 90.8078C29.5476 90.5923 29.4245 90.1198 29.64 89.7523C29.8555 89.3849 30.3281 89.2618 30.6955 89.4773C30.8423 89.5634 30.9897 89.6487 31.1377 89.7332C31.5076 89.9443 31.6364 90.4153 31.4253 90.7853ZM78.1717 87.7172C77.9142 87.3779 77.9805 86.8941 78.3197 86.6365C78.4555 86.5335 78.5906 86.4297 78.725 86.3251C79.0612 86.0635 79.5458 86.124 79.8074 86.4603C80.0689 86.7965 80.0084 87.281 79.6722 87.5426C79.5329 87.6509 79.393 87.7585 79.2524 87.8652C78.9131 88.1227 78.4293 88.0564 78.1717 87.7172ZM26.6001 87.7172C26.3425 88.0564 25.8587 88.1227 25.5194 87.8652C25.3788 87.7585 25.2389 87.6509 25.0996 87.5426C24.7634 87.281 24.7029 86.7965 24.9644 86.4603C25.226 86.124 25.7106 86.0635 26.0468 86.3251C26.1812 86.4297 26.3163 86.5335 26.452 86.6365C26.7913 86.8941 26.8576 87.3779 26.6001 87.7172ZM82.557 84.047C82.2576 83.744 82.2605 83.2557 82.5634 82.9563C82.6846 82.8365 82.805 82.7161 82.9248 82.5949C83.2242 82.292 83.7125 82.2891 84.0155 82.5885C84.3185 82.8879 84.3214 83.3762 84.0219 83.6792C83.8979 83.8047 83.7732 83.9294 83.6477 84.0534C83.3447 84.3529 82.8564 84.35 82.557 84.047ZM22.2148 84.047C21.9154 84.35 21.4271 84.3528 21.1241 84.0534C20.9986 83.9294 20.8739 83.8047 20.7499 83.6792C20.4504 83.3762 20.4533 82.8879 20.7563 82.5885C21.0593 82.2891 21.5476 82.292 21.847 82.5949C21.9668 82.7161 22.0872 82.8365 22.2084 82.9563C22.5113 83.2557 22.5142 83.744 22.2148 84.047ZM86.4288 79.8389C86.0926 79.5773 86.032 79.0927 86.2936 78.7565C86.3982 78.6221 86.502 78.487 86.605 78.3512C86.8626 78.012 87.3464 77.9457 87.6857 78.2032C88.0249 78.4608 88.0912 78.9446 87.8337 79.2839C87.727 79.4245 87.6194 79.5644 87.5111 79.7037C87.2495 80.0399 86.765 80.1004 86.4288 79.8389ZM18.343 79.8389C18.0068 80.1004 17.5223 80.0399 17.2607 79.7037C17.1524 79.5644 17.0448 79.4245 16.9381 79.2839C16.6806 78.9446 16.7468 78.4608 17.0861 78.2032C17.4254 77.9457 17.9092 78.012 18.1668 78.3512C18.2698 78.487 18.3736 78.6221 18.4782 78.7565C18.7398 79.0927 18.6793 79.5773 18.343 79.8389ZM89.7208 75.1633C89.3534 74.9478 89.2303 74.4752 89.4458 74.1078C89.5319 73.961 89.6172 73.8136 89.7017 73.6656C89.9128 73.2957 90.3838 73.1669 90.7538 73.378C91.1237 73.5892 91.2525 74.0602 91.0414 74.4302C90.9539 74.5834 90.8656 74.7361 90.7763 74.8883C90.5608 75.2557 90.0883 75.3788 89.7208 75.1633ZM15.0509 75.1633C14.6835 75.3788 14.211 75.2557 13.9955 74.8883C13.9062 74.7361 13.8179 74.5834 13.7304 74.4302C13.5193 74.0602 13.6481 73.5891 14.018 73.378C14.388 73.1669 14.859 73.2957 15.0701 73.6656C15.1546 73.8136 15.2399 73.961 15.326 74.1078C15.5415 74.4752 15.4184 74.9478 15.0509 75.1633ZM92.3747 70.0973C91.9822 69.9318 91.7982 69.4794 91.9637 69.087C92.0298 68.9304 92.0949 68.7733 92.1591 68.6158C92.3199 68.2213 92.7701 68.0319 93.1645 68.1927C93.5589 68.3535 93.7483 68.8037 93.5875 69.1981C93.521 69.3613 93.4535 69.5241 93.3851 69.6863C93.2195 70.0788 92.7672 70.2628 92.3747 70.0973ZM12.3971 70.0973C12.0046 70.2628 11.5523 70.0788 11.3867 69.6863C11.3183 69.5241 11.2508 69.3613 11.1843 69.1981C11.0235 68.8037 11.2129 68.3535 11.6073 68.1927C12.0017 68.0319 12.4519 68.2213 12.6127 68.6158C12.6769 68.7733 12.742 68.9304 12.8081 69.087C12.9736 69.4794 12.7896 69.9318 12.3971 70.0973ZM94.3402 64.7285C93.9293 64.6161 93.6874 64.1918 93.7999 63.781C93.8449 63.6166 93.889 63.4517 93.9321 63.2865C94.0396 62.8743 94.4609 62.6274 94.8731 62.7349C95.2852 62.8424 95.5322 63.2637 95.4247 63.6759C95.38 63.8471 95.3343 64.0179 95.2877 64.1883C95.1752 64.5991 94.751 64.841 94.3402 64.7285ZM10.4316 64.7285C10.0208 64.841 9.59657 64.5991 9.48411 64.1883C9.43745 64.0179 9.39179 63.8471 9.34713 63.6759C9.23961 63.2637 9.48656 62.8424 9.89873 62.7349C10.3109 62.6273 10.7322 62.8743 10.8397 63.2865C10.8828 63.4517 10.9269 63.6165 10.9719 63.781C11.0844 64.1918 10.8425 64.6161 10.4316 64.7285ZM95.5828 59.1474C95.1608 59.0898 94.8654 58.7009 94.923 58.2789C94.946 58.1104 94.968 57.9416 94.989 57.7725C95.0416 57.3498 95.4269 57.0498 95.8496 57.1023C96.2723 57.1549 96.5723 57.5402 96.5197 57.9629C96.498 58.1381 96.4751 58.3129 96.4513 58.4875C96.3937 58.9095 96.0049 59.205 95.5828 59.1474ZM9.18896 59.1474C8.76692 59.205 8.37809 58.9095 8.32047 58.4875C8.29665 58.3129 8.27385 58.1381 8.25205 57.9629C8.19947 57.5402 8.49951 57.1549 8.92221 57.1023C9.34492 57.0498 9.7302 57.3498 9.78278 57.7725C9.80383 57.9416 9.82584 58.1104 9.84884 58.2789C9.90645 58.7009 9.61101 59.0897 9.18896 59.1474ZM96.0856 53.45C95.6597 53.4475 95.3164 53.1002 95.3189 52.6743C95.3194 52.5887 95.3197 52.5031 95.3197 52.4174C95.3197 52.3317 95.3194 52.2461 95.3189 52.1605C95.3164 51.7346 95.6597 51.3872 96.0856 51.3848C96.5116 51.3823 96.8589 51.7255 96.8614 52.1515C96.8619 52.2401 96.8622 52.3287 96.8622 52.4174C96.8622 52.5061 96.8619 52.5947 96.8614 52.6833C96.8589 53.1093 96.5116 53.4525 96.0856 53.45ZM8.68616 53.45C8.26022 53.4525 7.91289 53.1093 7.91039 52.6833C7.90988 52.5947 7.90962 52.5061 7.90962 52.4174C7.90962 52.3287 7.90988 52.2401 7.91039 52.1515C7.91289 51.7255 8.26022 51.3823 8.68616 51.3848C9.11211 51.3872 9.4554 51.7346 9.4529 52.1605C9.4524 52.2461 9.45215 52.3317 9.45215 52.4174C9.45215 52.5031 9.4524 52.5887 9.4529 52.6743C9.4554 53.1002 9.11211 53.4475 8.68616 53.45ZM95.8496 47.7324C95.4269 47.785 95.0416 47.485 94.989 47.0623C94.968 46.8932 94.946 46.7244 94.923 46.5559C94.8654 46.1339 95.1608 45.745 95.5828 45.6874C96.0049 45.6298 96.3937 45.9253 96.4513 46.3473C96.4751 46.5218 96.498 46.6967 96.5197 46.8719C96.5723 47.2946 96.2723 47.6799 95.8496 47.7324ZM8.92221 47.7324C8.49951 47.6799 8.19947 47.2946 8.25205 46.8719C8.27385 46.6967 8.29665 46.5218 8.32047 46.3473C8.37809 45.9253 8.76692 45.6298 9.18896 45.6874C9.61101 45.745 9.90645 46.1339 9.84884 46.5559C9.82584 46.7244 9.80383 46.8932 9.78279 47.0623C9.7302 47.485 9.34492 47.785 8.92221 47.7324ZM94.8731 42.0999C94.4609 42.2074 94.0396 41.9605 93.9321 41.5483C93.889 41.3831 93.8449 41.2182 93.7999 41.0538C93.6874 40.643 93.9293 40.2187 94.3402 40.1063C94.751 39.9938 95.1752 40.2357 95.2877 40.6465C95.3343 40.8169 95.38 40.9877 95.4247 41.1589C95.5322 41.5711 95.2852 41.9924 94.8731 42.0999ZM9.89873 42.0999C9.48656 41.9924 9.23961 41.5711 9.34714 41.1589C9.39179 40.9877 9.43745 40.8169 9.48411 40.6465C9.59657 40.2357 10.0208 39.9938 10.4316 40.1063C10.8425 40.2187 11.0844 40.6429 10.9719 41.0538C10.9269 41.2182 10.8828 41.3831 10.8397 41.5483C10.7322 41.9605 10.3109 42.2074 9.89873 42.0999ZM93.1645 36.6421C92.7701 36.8029 92.3199 36.6135 92.1591 36.219C92.0949 36.0615 92.0298 35.9044 91.9637 35.7478C91.7982 35.3553 91.9822 34.903 92.3747 34.7375C92.7672 34.572 93.2195 34.756 93.3851 35.1485C93.4535 35.3107 93.521 35.4735 93.5875 35.6367C93.7483 36.0311 93.5589 36.4813 93.1645 36.6421ZM11.6073 36.6421C11.2129 36.4813 11.0235 36.0311 11.1843 35.6367C11.2508 35.4735 11.3183 35.3107 11.3867 35.1484C11.5523 34.756 12.0046 34.572 12.3971 34.7375C12.7896 34.903 12.9736 35.3553 12.8081 35.7478C12.742 35.9044 12.6769 36.0615 12.6127 36.219C12.4519 36.6135 12.0017 36.8029 11.6073 36.6421ZM90.7538 31.4568C90.3838 31.6679 89.9128 31.5391 89.7017 31.1692C89.6172 31.0212 89.5319 30.8738 89.4458 30.727C89.2303 30.3596 89.3534 29.887 89.7208 29.6715C90.0883 29.456 90.5608 29.5791 90.7763 29.9465C90.8656 30.0986 90.9539 30.2514 91.0414 30.4046C91.2525 30.7746 91.1238 31.2456 90.7538 31.4568ZM14.018 31.4568C13.6481 31.2456 13.5193 30.7746 13.7304 30.4046C13.8179 30.2514 13.9062 30.0986 13.9955 29.9465C14.211 29.5791 14.6835 29.456 15.051 29.6715C15.4184 29.887 15.5415 30.3596 15.326 30.727C15.2399 30.8738 15.1546 31.0212 15.0701 31.1692C14.859 31.5391 14.388 31.6679 14.018 31.4568ZM87.6857 26.6316C87.3464 26.8891 86.8626 26.8228 86.605 26.4836C86.502 26.3478 86.3982 26.2127 86.2936 26.0783C86.032 25.7421 86.0926 25.2575 86.4288 24.9959C86.765 24.7344 87.2495 24.7949 87.5111 25.1311C87.6194 25.2704 87.727 25.4103 87.8337 25.5509C88.0912 25.8902 88.025 26.374 87.6857 26.6316ZM17.0861 26.6316C16.7469 26.374 16.6806 25.8902 16.9381 25.5509C17.0448 25.4103 17.1524 25.2704 17.2607 25.1311C17.5223 24.7949 18.0068 24.7344 18.343 24.9959C18.6793 25.2575 18.7398 25.7421 18.4782 26.0783C18.3736 26.2127 18.2698 26.3478 18.1668 26.4835C17.9092 26.8228 17.4254 26.8891 17.0861 26.6316ZM84.0155 22.2463C83.7125 22.5457 83.2242 22.5428 82.9248 22.2398C82.8051 22.1187 82.6846 21.9982 82.5635 21.8785C82.2605 21.5791 82.2576 21.0908 82.557 20.7878C82.8564 20.4848 83.3447 20.4819 83.6477 20.7813C83.7732 20.9054 83.8979 21.0301 84.0219 21.1556C84.3214 21.4586 84.3185 21.9469 84.0155 22.2463ZM20.7563 22.2463C20.4533 21.9469 20.4504 21.4586 20.7499 21.1556C20.8739 21.0301 20.9986 20.9054 21.1241 20.7813C21.4271 20.4819 21.9154 20.4848 22.2148 20.7878C22.5142 21.0908 22.5113 21.5791 22.2084 21.8785C22.0872 21.9982 21.9668 22.1187 21.847 22.2398C21.5476 22.5428 21.0593 22.5457 20.7563 22.2463ZM79.8074 18.3745C79.5458 18.7107 79.0612 18.7713 78.725 18.5097C78.5906 18.4051 78.4555 18.3013 78.3197 18.1983C77.9805 17.9407 77.9142 17.4569 78.1717 17.1176C78.4293 16.7784 78.9131 16.7121 79.2524 16.9696C79.393 17.0763 79.5329 17.1839 79.6722 17.2922C80.0084 17.5538 80.0689 18.0383 79.8074 18.3745ZM24.9644 18.3745C24.7029 18.0383 24.7634 17.5538 25.0996 17.2922C25.2389 17.1839 25.3788 17.0763 25.5194 16.9696C25.8587 16.7121 26.3425 16.7783 26.6001 17.1176C26.8576 17.4569 26.7913 17.9407 26.4521 18.1983C26.3163 18.3013 26.1812 18.4051 26.0468 18.5097C25.7106 18.7713 25.226 18.7107 24.9644 18.3745ZM75.1318 15.0825C74.9163 15.4499 74.4437 15.573 74.0763 15.3575C73.9295 15.2714 73.7821 15.1861 73.6341 15.1016C73.2642 14.8905 73.1354 14.4195 73.3465 14.0495C73.5577 13.6796 74.0287 13.5508 74.3987 13.7619C74.5519 13.8494 74.7047 13.9377 74.8568 14.027C75.2242 14.2425 75.3473 14.715 75.1318 15.0825ZM29.64 15.0824C29.4245 14.715 29.5476 14.2425 29.915 14.027C30.0672 13.9377 30.2199 13.8494 30.3731 13.7619C30.7431 13.5508 31.2141 13.6796 31.4253 14.0495C31.6364 14.4195 31.5076 14.8905 31.1377 15.1016C30.9897 15.1861 30.8423 15.2714 30.6955 15.3575C30.3281 15.573 29.8555 15.4499 29.64 15.0824ZM70.0658 12.4286C69.9003 12.8211 69.448 13.0051 69.0555 12.8396C68.8989 12.7735 68.7418 12.7084 68.5843 12.6442C68.1898 12.4834 68.0004 12.0332 68.1612 11.6388C68.322 11.2444 68.7722 11.055 69.1666 11.2158C69.3298 11.2823 69.4926 11.3498 69.6548 11.4182C70.0473 11.5838 70.2313 12.0361 70.0658 12.4286ZM34.706 12.4286C34.5405 12.0361 34.7245 11.5838 35.117 11.4182C35.2792 11.3498 35.442 11.2823 35.6052 11.2158C35.9996 11.055 36.4498 11.2444 36.6106 11.6388C36.7714 12.0332 36.582 12.4834 36.1875 12.6442C36.03 12.7084 35.8729 12.7735 35.7163 12.8396C35.3239 13.0051 34.8715 12.8211 34.706 12.4286ZM64.697 10.4631C64.5846 10.874 64.1603 11.1159 63.7495 11.0034C63.5851 10.9584 63.4202 10.9143 63.255 10.8712C62.8428 10.7637 62.5959 10.3424 62.7034 9.93022C62.8109 9.51806 63.2322 9.2711 63.6444 9.37863C63.8156 9.42329 63.9864 9.46895 64.1568 9.5156C64.5676 9.62807 64.8095 10.0523 64.697 10.4631ZM40.0748 10.4631C39.9623 10.0523 40.2042 9.62807 40.615 9.5156C40.7854 9.46895 40.9562 9.42329 41.1274 9.37862C41.5396 9.2711 41.9609 9.51806 42.0684 9.93022C42.1759 10.3424 41.929 10.7637 41.5168 10.8712C41.3516 10.9143 41.1867 10.9584 41.0223 11.0034C40.6115 11.1159 40.1872 10.874 40.0748 10.4631ZM59.1159 9.22046C59.0583 9.6425 58.6694 9.93794 58.2474 9.88033C58.0789 9.85734 57.9101 9.83532 57.741 9.81429C57.3183 9.7617 57.0183 9.37641 57.0708 8.9537C57.1234 8.53101 57.5087 8.23096 57.9314 8.28355C58.1066 8.30534 58.2815 8.32815 58.456 8.35197C58.878 8.40958 59.1735 8.79842 59.1159 9.22046ZM45.6559 9.22046C45.5983 8.79842 45.8938 8.40958 46.3158 8.35197C46.4904 8.32815 46.6652 8.30534 46.8404 8.28355C47.2631 8.23096 47.6484 8.53101 47.701 8.9537C47.7535 9.37641 47.4535 9.7617 47.0308 9.81428C46.8617 9.83532 46.6929 9.85734 46.5244 9.88033C46.1024 9.93794 45.7136 9.6425 45.6559 9.22046ZM53.4185 8.71766C53.416 9.14361 53.0687 9.48689 52.6428 9.4844C52.5572 9.48389 52.4716 9.48364 52.3859 9.48364C52.3354 9.48364 52.2848 9.48373 52.2343 9.4839C52.1992 9.48402 52.1641 9.48419 52.129 9.4844C51.7031 9.48689 51.3558 9.14361 51.3533 8.71766C51.3508 8.29171 51.694 7.94438 52.12 7.94189C52.2086 7.94138 52.2972 7.94112 52.3859 7.94112C52.4746 7.94112 52.5632 7.94138 52.6518 7.94189C53.0778 7.94438 53.421 8.29171 53.4185 8.71766Z" fill="#848D95"/>
<path fill-rule="evenodd" clip-rule="evenodd" d="M52.6404 87.8947C52.5557 87.8953 52.4708 87.8956 52.3859 87.8956C52.301 87.8956 52.2162 87.8953 52.1315 87.8947C51.7055 87.8917 51.3626 87.544 51.3656 87.1181C51.3686 86.6921 51.7164 86.3493 52.1423 86.3522C52.2234 86.3528 52.3047 86.3531 52.3859 86.3531C52.4672 86.3531 52.5484 86.3528 52.6296 86.3522C53.0555 86.3493 53.4033 86.6921 53.4062 87.1181C53.4092 87.544 53.0664 87.8917 52.6404 87.8947ZM56.8093 86.8538C56.7461 86.4325 57.0365 86.0399 57.4577 85.9768C57.618 85.9528 57.7778 85.9276 57.9373 85.9014C58.3576 85.8322 58.7544 86.1169 58.8235 86.5372C58.8927 86.9575 58.608 87.3543 58.1877 87.4235C58.0209 87.4509 57.8538 87.4772 57.6863 87.5023C57.265 87.5654 56.8724 87.275 56.8093 86.8538ZM47.9626 86.8538C47.8995 87.275 47.5068 87.5654 47.0856 87.5023C46.9181 87.4772 46.7509 87.4509 46.5842 87.4235C46.1639 87.3543 45.8792 86.9575 45.9484 86.5372C46.0175 86.1169 46.4143 85.8322 46.8346 85.9014C46.9941 85.9276 47.1539 85.9528 47.3142 85.9768C47.7354 86.0399 48.0257 86.4325 47.9626 86.8538ZM62.1431 85.7431C62.0144 85.337 62.2394 84.9035 62.6454 84.7749C62.7997 84.726 62.9536 84.6761 63.1069 84.625C63.5111 84.4906 63.9477 84.7092 64.0822 85.1134C64.2167 85.5175 63.998 85.9542 63.5939 86.0887C63.4335 86.142 63.2726 86.1943 63.1112 86.2454C62.7052 86.374 62.2717 86.1491 62.1431 85.7431ZM42.6288 85.743C42.5002 86.1491 42.0667 86.374 41.6606 86.2454C41.4993 86.1943 41.3384 86.142 41.178 86.0887C40.7738 85.9542 40.5552 85.5175 40.6897 85.1134C40.8241 84.7092 41.2608 84.4906 41.665 84.625C41.8183 84.676 41.9722 84.726 42.1265 84.7749C42.5325 84.9035 42.7574 85.337 42.6288 85.743ZM67.2354 83.8058C67.0444 83.425 67.1983 82.9616 67.579 82.7706C67.7235 82.6981 67.8674 82.6247 68.0107 82.5502C68.3886 82.3538 68.8543 82.501 69.0507 82.879C69.2471 83.257 69.0999 83.7226 68.7219 83.919C68.5721 83.9968 68.4216 84.0737 68.2706 84.1494C67.8898 84.3404 67.4263 84.1865 67.2354 83.8058ZM37.5365 83.8058C37.3456 84.1865 36.8821 84.3404 36.5013 84.1494C36.3503 84.0737 36.1998 83.9968 36.05 83.919C35.672 83.7226 35.5248 83.257 35.7212 82.879C35.9176 82.501 36.3832 82.3538 36.7612 82.5502C36.9045 82.6247 37.0484 82.6981 37.1929 82.7706C37.5736 82.9616 37.7275 83.425 37.5365 83.8058ZM32.8122 81.0926C32.5641 81.4388 32.0822 81.5182 31.736 81.27C31.5988 81.1716 31.4623 81.0723 31.3265 80.972C30.9839 80.7189 30.9114 80.236 31.1644 79.8934C31.4175 79.5508 31.9005 79.4782 32.2431 79.7313C32.3729 79.8272 32.5035 79.9223 32.6348 80.0164C32.981 80.2646 33.0604 80.7464 32.8122 81.0926ZM71.9597 81.0926C71.7115 80.7464 71.7909 80.2646 72.1371 80.0164C72.2684 79.9223 72.3989 79.8272 72.5288 79.7313C72.8714 79.4782 73.3544 79.5508 73.6075 79.8934C73.8605 80.236 73.788 80.7189 73.4454 80.972C73.3096 81.0723 73.1731 81.1716 73.0359 81.27C72.6897 81.5182 72.2078 81.4388 71.9597 81.0926ZM28.5695 77.675C28.2705 77.9784 27.7822 77.9818 27.4788 77.6828C27.3586 77.5642 27.2392 77.4448 27.1206 77.3246C26.8216 77.0212 26.825 76.5329 27.1283 76.2339C27.4317 75.9348 27.92 75.9383 28.2191 76.2416C28.3325 76.3567 28.4467 76.4709 28.5618 76.5843C28.8651 76.8834 28.8686 77.3717 28.5695 77.675ZM76.2024 77.675C75.9033 77.3717 75.9068 76.8834 76.2101 76.5843C76.3252 76.4709 76.4394 76.3567 76.5528 76.2416C76.8519 75.9383 77.3402 75.9348 77.6435 76.2339C77.9469 76.5329 77.9503 77.0212 77.6513 77.3246C77.5327 77.4448 77.4133 77.5642 77.2931 77.6828C76.9897 77.9818 76.5014 77.9784 76.2024 77.675ZM24.91 73.6389C24.5674 73.892 24.0845 73.8195 23.8314 73.4769C23.7311 73.3411 23.6318 73.2046 23.5334 73.0674C23.2852 72.7212 23.3646 72.2393 23.7108 71.9911C24.057 71.743 24.5388 71.8224 24.787 72.1686C24.8811 72.2999 24.9762 72.4304 25.0721 72.5603C25.3252 72.9029 25.2526 73.3859 24.91 73.6389ZM79.8619 73.6389C79.5193 73.3858 79.4467 72.9029 79.6998 72.5603C79.7957 72.4304 79.8908 72.2998 79.9849 72.1686C80.2331 71.8224 80.7149 71.7429 81.0611 71.9911C81.4073 72.2393 81.4867 72.7212 81.2385 73.0673C81.1401 73.2046 81.0408 73.3411 80.9405 73.4769C80.6874 73.8195 80.2045 73.892 79.8619 73.6389ZM82.8475 69.0822C82.4695 68.8858 82.3223 68.4201 82.5187 68.0422C82.5932 67.8989 82.6666 67.755 82.7391 67.6105C82.9301 67.2298 83.3935 67.0759 83.7743 67.2669C84.155 67.4578 84.3089 67.9213 84.1179 68.3021C84.0422 68.4531 83.9654 68.6036 83.8875 68.7534C83.6911 69.1314 83.2255 69.2786 82.8475 69.0822ZM21.9244 69.0822C21.5464 69.2786 21.0808 69.1314 20.8844 68.7534C20.8065 68.6036 20.7297 68.4531 20.654 68.3021C20.463 67.9213 20.6169 67.4578 20.9976 67.2669C21.3784 67.0759 21.8418 67.2298 22.0328 67.6105C22.1052 67.755 22.1787 67.8989 22.2532 68.0422C22.4496 68.4201 22.3024 68.8858 21.9244 69.0822ZM85.0819 64.1137C84.6777 63.9792 84.4591 63.5426 84.5935 63.1384C84.6446 62.9851 84.6945 62.8312 84.7434 62.6769C84.872 62.2709 85.3055 62.0459 85.7116 62.1746C86.1176 62.3032 86.3425 62.7367 86.2139 63.1427C86.1628 63.3041 86.1105 63.465 86.0572 63.6254C85.9227 64.0295 85.4861 64.2482 85.0819 64.1137ZM19.69 64.1137C19.2858 64.2482 18.8492 64.0295 18.7147 63.6254C18.6614 63.465 18.6091 63.3041 18.558 63.1427C18.4294 62.7367 18.6543 62.3032 19.0603 62.1746C19.4664 62.0459 19.8999 62.2708 20.0285 62.6769C20.0774 62.8312 20.1273 62.9851 20.1784 63.1384C20.3128 63.5426 20.0942 63.9792 19.69 64.1137ZM86.5057 58.855C86.0854 58.7859 85.8008 58.3891 85.8699 57.9688C85.8961 57.8093 85.9213 57.6495 85.9453 57.4892C86.0084 57.068 86.401 56.7776 86.8223 56.8408C87.2436 56.9039 87.5339 57.2965 87.4708 57.7178C87.4457 57.8853 87.4194 58.0524 87.392 58.2192C87.3228 58.6395 86.926 58.9242 86.5057 58.855ZM18.2662 58.855C17.8459 58.9242 17.4491 58.6395 17.3799 58.2192C17.3525 58.0524 17.3262 57.8853 17.3011 57.7178C17.238 57.2965 17.5283 56.9039 17.9496 56.8408C18.3708 56.7776 18.7635 57.068 18.8266 57.4892C18.8506 57.6494 18.8758 57.8093 18.902 57.9688C18.9711 58.3891 18.6865 58.7859 18.2662 58.855ZM87.0866 53.4378C86.6606 53.4348 86.3178 53.087 86.3207 52.6611C86.3213 52.5799 86.3216 52.4987 86.3216 52.4174C86.3216 52.3362 86.3213 52.2549 86.3207 52.1738C86.3178 51.7479 86.6606 51.4001 87.0866 51.3971C87.5125 51.3941 87.8602 51.737 87.8632 52.163C87.8638 52.2477 87.8641 52.3325 87.8641 52.4174C87.8641 52.5023 87.8638 52.5872 87.8632 52.6719C87.8602 53.0979 87.5125 53.4407 87.0866 53.4378ZM17.6853 53.4377C17.2594 53.4407 16.9116 53.0979 16.9087 52.6719C16.9081 52.5872 16.9078 52.5023 16.9078 52.4174C16.9078 52.3325 16.9081 52.2477 16.9087 52.163C16.9116 51.737 17.2594 51.3941 17.6853 51.3971C18.1113 51.4001 18.4541 51.7478 18.4511 52.1738C18.4506 52.2549 18.4503 52.3362 18.4503 52.4174C18.4503 52.4987 18.4506 52.5799 18.4511 52.6611C18.4541 53.087 18.1113 53.4347 17.6853 53.4377ZM86.8223 47.9941C86.401 48.0572 86.0084 47.7669 85.9453 47.3457C85.9213 47.1854 85.8961 47.0256 85.8699 46.8661C85.8008 46.4458 86.0854 46.049 86.5057 45.9799C86.926 45.9107 87.3228 46.1954 87.392 46.6157C87.4194 46.7824 87.4457 46.9496 87.4708 47.1171C87.5339 47.5383 87.2436 47.931 86.8223 47.9941ZM17.9496 47.9941C17.5283 47.931 17.238 47.5383 17.3011 47.1171C17.3262 46.9496 17.3525 46.7824 17.3799 46.6157C17.4491 46.1954 17.8459 45.9107 18.2662 45.9799C18.6865 46.049 18.9711 46.4458 18.902 46.8661C18.8758 47.0256 18.8506 47.1854 18.8266 47.3456C18.7635 47.7669 18.3708 48.0572 17.9496 47.9941ZM85.7116 42.6603C85.3055 42.7889 84.872 42.564 84.7434 42.158C84.6945 42.0037 84.6446 41.8498 84.5935 41.6965C84.4591 41.2923 84.6777 40.8556 85.0819 40.7212C85.4861 40.5867 85.9227 40.8053 86.0572 41.2095C86.1105 41.3699 86.1628 41.5308 86.2139 41.6921C86.3425 42.0982 86.1176 42.5317 85.7116 42.6603ZM19.0603 42.6603C18.6543 42.5317 18.4294 42.0982 18.558 41.6921C18.6091 41.5308 18.6614 41.3699 18.7147 41.2095C18.8492 40.8053 19.2858 40.5867 19.69 40.7212C20.0942 40.8556 20.3128 41.2923 20.1784 41.6965C20.1273 41.8498 20.0774 42.0036 20.0285 42.158C19.8999 42.564 19.4664 42.7889 19.0603 42.6603ZM83.7743 37.568C83.3935 37.759 82.9301 37.6051 82.7391 37.2244C82.6666 37.0799 82.5932 36.936 82.5187 36.7927C82.3223 36.4147 82.4695 35.9491 82.8475 35.7527C83.2255 35.5563 83.6911 35.7035 83.8875 36.0815C83.9654 36.2313 84.0422 36.3818 84.1179 36.5328C84.3089 36.9136 84.155 37.377 83.7743 37.568ZM20.9976 37.568C20.6169 37.377 20.463 36.9136 20.654 36.5328C20.7297 36.3818 20.8065 36.2313 20.8844 36.0815C21.0808 35.7035 21.5464 35.5563 21.9244 35.7527C22.3024 35.9491 22.4496 36.4147 22.2532 36.7927C22.1787 36.936 22.1053 37.0799 22.0328 37.2244C21.8418 37.6051 21.3784 37.759 20.9976 37.568ZM23.7108 32.8437C23.3646 32.5955 23.2852 32.1137 23.5334 31.7675C23.6318 31.6303 23.7311 31.4938 23.8314 31.358C24.0845 31.0154 24.5674 30.9428 24.91 31.1959C25.2526 31.449 25.3252 31.9319 25.0721 32.2746C24.9762 32.4044 24.8811 32.535 24.787 32.6663C24.5388 33.0125 24.057 33.0919 23.7108 32.8437ZM81.0611 32.8437C80.7149 33.0919 80.2331 33.0125 79.9849 32.6663C79.8908 32.535 79.7957 32.4044 79.6998 32.2746C79.4467 31.9319 79.5193 31.449 79.8619 31.1959C80.2045 30.9428 80.6874 31.0154 80.9405 31.358C81.0408 31.4938 81.1401 31.6303 81.2385 31.7675C81.4867 32.1137 81.4073 32.5955 81.0611 32.8437ZM27.1283 28.601C26.825 28.302 26.8216 27.8136 27.1206 27.5103C27.2392 27.3901 27.3586 27.2707 27.4788 27.1521C27.7821 26.8531 28.2705 26.8565 28.5695 27.1598C28.8686 27.4632 28.8651 27.9515 28.5618 28.2505C28.4467 28.364 28.3325 28.4782 28.2191 28.5933C27.92 28.8966 27.4317 28.9001 27.1283 28.601ZM77.6435 28.601C77.3402 28.9001 76.8519 28.8966 76.5528 28.5933C76.4394 28.4782 76.3252 28.364 76.2101 28.2505C75.9068 27.9515 75.9033 27.4632 76.2024 27.1598C76.5014 26.8565 76.9897 26.853 77.2931 27.1521C77.4133 27.2707 77.5327 27.3901 77.6513 27.5103C77.9503 27.8136 77.9469 28.302 77.6435 28.601ZM31.1644 24.9415C30.9113 24.5989 30.9839 24.116 31.3265 23.8629C31.4623 23.7626 31.5988 23.6632 31.736 23.5649C32.0822 23.3167 32.564 23.3961 32.8122 23.7423C33.0604 24.0885 32.981 24.5703 32.6348 24.8185C32.5035 24.9126 32.3729 25.0077 32.2431 25.1036C31.9004 25.3567 31.4175 25.2841 31.1644 24.9415ZM73.6074 24.9415C73.3544 25.2841 72.8714 25.3567 72.5288 25.1036C72.3989 25.0076 72.2684 24.9126 72.1371 24.8185C71.7909 24.5703 71.7115 24.0885 71.9596 23.7423C72.2078 23.3961 72.6897 23.3167 73.0359 23.5648C73.1731 23.6632 73.3096 23.7626 73.4454 23.8629C73.788 24.116 73.8605 24.5989 73.6074 24.9415ZM69.0507 21.9559C68.8543 22.3339 68.3886 22.4811 68.0107 22.2847C67.8674 22.2102 67.7235 22.1367 67.579 22.0643C67.1983 21.8733 67.0444 21.4099 67.2354 21.0291C67.4263 20.6483 67.8898 20.4945 68.2706 20.6855C68.4216 20.7612 68.5721 20.838 68.7219 20.9159C69.0999 21.1123 69.2471 21.5779 69.0507 21.9559ZM35.7212 21.9559C35.5248 21.5779 35.672 21.1123 36.05 20.9159C36.1998 20.838 36.3503 20.7612 36.5013 20.6855C36.8821 20.4945 37.3456 20.6483 37.5365 21.0291C37.7275 21.4099 37.5736 21.8733 37.1929 22.0643C37.0484 22.1367 36.9045 22.2102 36.7612 22.2847C36.3832 22.4811 35.9176 22.3339 35.7212 21.9559ZM64.0822 19.7215C63.9477 20.1257 63.5111 20.3443 63.1069 20.2099C62.9536 20.1588 62.7997 20.1089 62.6454 20.06C62.2394 19.9314 62.0144 19.4979 62.1431 19.0918C62.2717 18.6858 62.7052 18.4608 63.1112 18.5895C63.2726 18.6406 63.4335 18.6928 63.5939 18.7462C63.9981 18.8807 64.2167 19.3173 64.0822 19.7215ZM40.6897 19.7215C40.5552 19.3173 40.7738 18.8807 41.178 18.7462C41.3384 18.6928 41.4993 18.6406 41.6607 18.5895C42.0667 18.4608 42.5002 18.6858 42.6288 19.0918C42.7574 19.4979 42.5325 19.9314 42.1265 20.06C41.9722 20.1089 41.8183 20.1588 41.665 20.2098C41.2608 20.3443 40.8241 20.1257 40.6897 19.7215ZM58.8235 18.2977C58.7544 18.718 58.3576 19.0026 57.9373 18.9335C57.7778 18.9072 57.618 18.8821 57.4577 18.8581C57.0365 18.795 56.7462 18.4023 56.8093 17.9811C56.8724 17.5598 57.265 17.2695 57.6863 17.3326C57.8538 17.3577 58.0209 17.384 58.1877 17.4114C58.608 17.4806 58.8927 17.8773 58.8235 18.2977ZM45.9484 18.2977C45.8792 17.8773 46.1639 17.4806 46.5842 17.4114C46.751 17.384 46.9181 17.3577 47.0856 17.3326C47.5069 17.2695 47.8995 17.5598 47.9626 17.9811C48.0257 18.4023 47.7354 18.795 47.3142 18.8581C47.1539 18.8821 46.9941 18.9072 46.8346 18.9335C46.4143 19.0026 46.0175 18.718 45.9484 18.2977ZM53.4063 17.7168C53.4033 18.1428 53.0555 18.4856 52.6296 18.4826C52.5945 18.4824 52.5594 18.4822 52.5243 18.482C52.4782 18.4819 52.4321 18.4818 52.3859 18.4818C52.3047 18.4818 52.2235 18.4821 52.1423 18.4826C51.7164 18.4856 51.3686 18.1428 51.3656 17.7168C51.3626 17.2909 51.7055 16.9431 52.1315 16.9401C52.2162 16.9395 52.3011 16.9392 52.3859 16.9392C52.4708 16.9392 52.5557 16.9395 52.6404 16.9401C53.0664 16.9431 53.4093 17.2909 53.4063 17.7168Z" fill="#848D95"/>
<path fill-rule="evenodd" clip-rule="evenodd" d="M52.6571 78.8963C52.5668 78.8973 52.4764 78.8977 52.3859 78.8977C52.2954 78.8977 52.205 78.8973 52.1147 78.8963C51.6888 78.8921 51.347 78.5433 51.3512 78.1174C51.3555 77.6914 51.7043 77.3496 52.1302 77.3539C52.2153 77.3547 52.3006 77.3552 52.3859 77.3552C52.4713 77.3552 52.5565 77.3547 52.6416 77.3539C53.0676 77.3496 53.4163 77.6914 53.4206 78.1174C53.4249 78.5433 53.0831 78.8921 52.6571 78.8963ZM57.0992 77.7072C57.009 77.2909 57.2734 76.8803 57.6897 76.7902C57.8557 76.7542 58.0212 76.7166 58.186 76.6773C58.6003 76.5786 59.0162 76.8346 59.1149 77.2489C59.2136 77.6633 58.9577 78.0792 58.5433 78.1779C58.3683 78.2196 58.1926 78.2595 58.0162 78.2977C57.5999 78.3879 57.1893 78.1235 57.0992 77.7072ZM47.6727 77.7072C47.5825 78.1235 47.172 78.3879 46.7557 78.2977C46.5793 78.2595 46.4036 78.2196 46.2285 78.1779C45.8141 78.0792 45.5582 77.6633 45.6569 77.2489C45.7556 76.8346 46.1715 76.5786 46.5859 76.6773C46.7507 76.7166 46.9161 76.7542 47.0821 76.7901C47.4984 76.8803 47.7628 77.2909 47.6727 77.7072ZM62.6083 76.0265C62.4271 75.641 62.5928 75.1816 62.9783 75.0005C63.1319 74.9283 63.2846 74.8546 63.4365 74.7795C63.8182 74.5904 64.2809 74.7467 64.4699 75.1284C64.6589 75.5101 64.5027 75.9728 64.121 76.1618C63.9597 76.2417 63.7975 76.3199 63.6343 76.3966C63.2488 76.5777 62.7894 76.4121 62.6083 76.0265ZM42.1636 76.0265C41.9824 76.4121 41.523 76.5777 41.1375 76.3966C40.9744 76.3199 40.8122 76.2417 40.6509 76.1618C40.2692 75.9728 40.1129 75.5101 40.3019 75.1284C40.491 74.7467 40.9536 74.5904 41.3354 74.7795C41.4872 74.8546 41.6399 74.9283 41.7935 75.0005C42.179 75.1816 42.3447 75.641 42.1636 76.0265ZM67.6023 73.1562C67.3399 72.8206 67.3992 72.3359 67.7347 72.0735C67.8683 71.969 68.0008 71.8632 68.1323 71.7561C68.4624 71.4869 68.9482 71.5363 69.2174 71.8665C69.4866 72.1966 69.4371 72.6825 69.107 72.9516C68.9675 73.0653 68.8268 73.1777 68.6849 73.2886C68.3494 73.551 67.8647 73.4917 67.6023 73.1562ZM37.1696 73.1562C36.9072 73.4917 36.4225 73.551 36.0869 73.2886C35.9451 73.1777 35.8044 73.0653 35.6649 72.9516C35.3347 72.6825 35.2853 72.1966 35.5545 71.8665C35.8236 71.5363 36.3094 71.4869 36.6396 71.756C36.771 71.8632 36.9035 71.969 37.0372 72.0735C37.3727 72.3359 37.432 72.8206 37.1696 73.1562ZM71.8348 69.2491C71.5047 68.9799 71.4552 68.4941 71.7244 68.1639C71.8315 68.0325 71.9373 67.9 72.0418 67.7664C72.3042 67.4308 72.789 67.3715 73.1245 67.6339C73.46 67.8963 73.5193 68.3811 73.2569 68.7166C73.146 68.8585 73.0337 68.9991 72.9199 69.1386C72.6508 69.4688 72.1649 69.5182 71.8348 69.2491ZM32.9371 69.2491C32.6069 69.5182 32.1211 69.4688 31.8519 69.1386C31.7382 68.9991 31.6259 68.8584 31.5149 68.7166C31.2525 68.3811 31.3118 67.8963 31.6474 67.6339C31.9829 67.3715 32.4676 67.4308 32.73 67.7664C32.8345 67.9 32.9403 68.0325 33.0475 68.1639C33.3166 68.4941 33.2672 68.9799 32.9371 69.2491ZM75.0967 64.5016C74.715 64.3126 74.5588 63.8499 74.7478 63.4682C74.823 63.3163 74.8967 63.1636 74.9688 63.01C75.15 62.6245 75.6093 62.4588 75.9949 62.64C76.3804 62.8211 76.5461 63.2805 76.3649 63.666C76.2883 63.8291 76.21 63.9914 76.1301 64.1526C75.9411 64.5344 75.4784 64.6906 75.0967 64.5016ZM29.6751 64.5016C29.2934 64.6906 28.8307 64.5344 28.6417 64.1526C28.5619 63.9914 28.4836 63.8291 28.407 63.666C28.2258 63.2805 28.3915 62.8211 28.777 62.64C29.1625 62.4588 29.6219 62.6245 29.803 63.01C29.8752 63.1636 29.9489 63.3163 30.0241 63.4682C30.2131 63.8499 30.0569 64.3126 29.6751 64.5016ZM77.2172 59.1466C76.8029 59.0479 76.547 58.632 76.6457 58.2176C76.6849 58.0529 76.7225 57.8874 76.7585 57.7214C76.8486 57.3051 77.2592 57.0407 77.6755 57.1308C78.0918 57.221 78.3562 57.6316 78.2661 58.0479C78.2279 58.2243 78.1879 58.4 78.1462 58.575C78.0475 58.9894 77.6316 59.2453 77.2172 59.1466ZM27.5546 59.1466C27.1402 59.2453 26.7243 58.9894 26.6256 58.575C26.584 58.4 26.544 58.2242 26.5058 58.0479C26.4156 57.6316 26.68 57.221 27.0964 57.1308C27.5127 57.0407 27.9232 57.3051 28.0134 57.7214C28.0493 57.8874 28.087 58.0528 28.1262 58.2176C28.2249 58.632 27.969 59.0479 27.5546 59.1466ZM78.0857 53.4523C77.6598 53.448 77.3179 53.0993 77.3222 52.6733C77.3231 52.5882 77.3235 52.503 77.3235 52.4176C77.3235 52.3323 77.3231 52.247 77.3222 52.1619C77.3179 51.736 77.6598 51.3872 78.0857 51.3829C78.5116 51.3786 78.8604 51.7205 78.8647 52.1464C78.8656 52.2367 78.866 52.3271 78.866 52.4176C78.866 52.5081 78.8656 52.5985 78.8647 52.6888C78.8604 53.1147 78.5116 53.4566 78.0857 53.4523ZM26.6862 53.4523C26.2602 53.4566 25.9115 53.1147 25.9072 52.6888C25.9063 52.5985 25.9058 52.5081 25.9058 52.4176C25.9058 52.3271 25.9063 52.2367 25.9072 52.1464C25.9115 51.7205 26.2602 51.3786 26.6862 51.3829C27.1121 51.3872 27.4539 51.736 27.4496 52.1619C27.4488 52.247 27.4484 52.3323 27.4484 52.4176C27.4484 52.5029 27.4488 52.5882 27.4496 52.6733C27.4539 53.0993 27.1121 53.448 26.6862 53.4523ZM77.6755 47.7044C77.2592 47.7945 76.8486 47.5301 76.7585 47.1138C76.7225 46.9478 76.6849 46.7824 76.6457 46.6176C76.547 46.2032 76.8029 45.7873 77.2172 45.6886C77.6316 45.5899 78.0475 45.8458 78.1462 46.2602C78.1879 46.4352 78.2279 46.611 78.2661 46.7873C78.3562 47.2036 78.0918 47.6142 77.6755 47.7044ZM27.0964 47.7044C26.68 47.6142 26.4156 47.2036 26.5058 46.7873C26.544 46.611 26.584 46.4352 26.6256 46.2602C26.7243 45.8458 27.1402 45.5899 27.5546 45.6886C27.969 45.7873 28.2249 46.2032 28.1262 46.6176C28.087 46.7824 28.0493 46.9478 28.0134 47.1138C27.9232 47.5301 27.5127 47.7945 27.0964 47.7044ZM75.9949 42.1952C75.6093 42.3764 75.15 42.2107 74.9688 41.8252C74.8967 41.6716 74.823 41.5189 74.7478 41.367C74.5588 40.9853 74.715 40.5226 75.0967 40.3336C75.4785 40.1446 75.9411 40.3008 76.1301 40.6826C76.21 40.8439 76.2883 41.0061 76.3649 41.1692C76.5461 41.5547 76.3804 42.0141 75.9949 42.1952ZM28.777 42.1952C28.3915 42.0141 28.2258 41.5547 28.407 41.1692C28.4836 41.0061 28.5619 40.8438 28.6417 40.6826C28.8307 40.3008 29.2934 40.1446 29.6751 40.3336C30.0569 40.5226 30.2131 40.9853 30.0241 41.367C29.9489 41.5189 29.8752 41.6716 29.803 41.8252C29.6219 42.2107 29.1625 42.3764 28.777 42.1952ZM73.1245 37.2013C72.789 37.4637 72.3042 37.4044 72.0418 37.0688C71.9373 36.9352 71.8315 36.8027 71.7244 36.6713C71.4552 36.3411 71.5047 35.8553 71.8348 35.5861C72.1649 35.317 72.6508 35.3664 72.9199 35.6966C73.0337 35.8361 73.146 35.9768 73.2569 36.1186C73.5193 36.4542 73.46 36.9389 73.1245 37.2013ZM31.6474 37.2013C31.3118 36.9389 31.2525 36.4542 31.5149 36.1186C31.6259 35.9768 31.7382 35.8361 31.8519 35.6966C32.1211 35.3664 32.6069 35.317 32.9371 35.5861C33.2672 35.8553 33.3166 36.3411 33.0475 36.6713C32.9403 36.8027 32.8345 36.9352 32.73 37.0688C32.4676 37.4044 31.9829 37.4637 31.6474 37.2013ZM69.2174 32.9687C68.9482 33.2989 68.4624 33.3483 68.1323 33.0792C68.0009 32.972 67.8683 32.8662 67.7347 32.7617C67.3992 32.4993 67.3399 32.0146 67.6023 31.679C67.8647 31.3435 68.3494 31.2842 68.6849 31.5466C68.8268 31.6575 68.9675 31.7699 69.107 31.8836C69.4371 32.1528 69.4866 32.6386 69.2174 32.9687ZM35.5545 32.9687C35.2853 32.6386 35.3348 32.1528 35.6649 31.8836C35.8044 31.7699 35.9451 31.6575 36.0869 31.5466C36.4225 31.2842 36.9072 31.3435 37.1696 31.679C37.432 32.0146 37.3727 32.4993 37.0372 32.7617C36.9035 32.8662 36.771 32.972 36.6396 33.0792C36.3094 33.3483 35.8236 33.2989 35.5545 32.9687ZM64.4699 29.7068C64.2809 30.0885 63.8182 30.2448 63.4365 30.0558C63.2846 29.9806 63.1319 29.9069 62.9783 29.8347C62.5928 29.6536 62.4271 29.1942 62.6083 28.8087C62.7894 28.4232 63.2488 28.2575 63.6343 28.4386C63.7975 28.5153 63.9597 28.5935 64.121 28.6734C64.5027 28.8624 64.6589 29.3251 64.4699 29.7068ZM40.3019 29.7068C40.1129 29.3251 40.2692 28.8624 40.6509 28.6734C40.8122 28.5935 40.9744 28.5153 41.1375 28.4386C41.523 28.2575 41.9824 28.4232 42.1636 28.8087C42.3447 29.1942 42.179 29.6536 41.7935 29.8347C41.6399 29.9069 41.4872 29.9806 41.3354 30.0558C40.9536 30.2448 40.491 30.0885 40.3019 29.7068ZM59.1149 27.5863C59.0162 28.0007 58.6003 28.2566 58.186 28.1579C58.0212 28.1186 57.8558 28.081 57.6897 28.0451C57.2734 27.9549 57.009 27.5443 57.0992 27.128C57.1893 26.7117 57.5999 26.4473 58.0162 26.5375C58.1926 26.5757 58.3683 26.6156 58.5433 26.6573C58.9577 26.756 59.2136 27.1719 59.1149 27.5863ZM45.6569 27.5863C45.5582 27.1719 45.8142 26.756 46.2285 26.6573C46.4036 26.6156 46.5793 26.5757 46.7557 26.5375C47.172 26.4473 47.5825 26.7117 47.6727 27.128C47.7629 27.5443 47.4985 27.9549 47.0821 28.0451C46.9161 28.081 46.7507 28.1186 46.5859 28.1579C46.1715 28.2566 45.7556 28.0007 45.6569 27.5863ZM53.4206 26.7178C53.4163 27.1438 53.0676 27.4856 52.6416 27.4813C52.5565 27.4805 52.4713 27.48 52.3859 27.48C52.3006 27.48 52.2153 27.4805 52.1302 27.4813C51.7043 27.4856 51.3555 27.1438 51.3512 26.7178C51.347 26.2919 51.6888 25.9431 52.1147 25.9389C52.205 25.938 52.2954 25.9375 52.3859 25.9375C52.4764 25.9375 52.5668 25.938 52.6571 25.9389C53.0831 25.9431 53.4249 26.2919 53.4206 26.7178Z" fill="#848D95"/>
</svg>
