<svg width="75" height="93" viewBox="0 0 75 93" fill="none" xmlns="http://www.w3.org/2000/svg">
<path d="M1.62886 89.7424C2.45194 89.7436 3.11815 90.4119 3.11688 91.235C3.11561 92.0581 2.44733 92.7243 1.62425 92.723C0.801167 92.7217 0.134958 92.0535 0.136231 91.2304C0.137503 90.4073 0.805776 89.7411 1.62886 89.7424Z" fill="#848D95"/>
<path d="M1.64269 80.8004C2.46577 80.8017 3.13198 81.47 3.1307 82.293C3.12943 83.1161 2.46116 83.7823 1.63808 83.7811C0.814993 83.7798 0.148784 83.1115 0.150057 82.2884C0.151329 81.4654 0.819602 80.7991 1.64269 80.8004Z" fill="#848D95"/>
<path d="M1.65651 71.8585C2.47959 71.8597 3.1458 72.528 3.14453 73.3511C3.14326 74.1742 2.47499 74.8404 1.6519 74.8391C0.828819 74.8378 0.16261 74.1696 0.163883 73.3465C0.165155 72.5234 0.833428 71.8572 1.65651 71.8585Z" fill="#848D95"/>
<path d="M1.67034 62.9165C2.49342 62.9178 3.15963 63.5861 3.15836 64.4092C3.15708 65.2322 2.48881 65.8984 1.66573 65.8972C0.842645 65.8959 0.176436 65.2276 0.177709 64.4045C0.178981 63.5815 0.847254 62.9153 1.67034 62.9165Z" fill="#848D95"/>
<path d="M1.68416 53.9746C2.50725 53.9759 3.17346 54.6441 3.17218 55.4672C3.17091 56.2903 2.50264 56.9565 1.67955 56.9552C0.856471 56.954 0.190262 56.2857 0.191535 55.4626C0.192807 54.6395 0.86108 53.9733 1.68416 53.9746Z" fill="#848D95"/>
<path d="M1.69799 45.0326C2.52107 45.0339 3.18728 45.7022 3.18601 46.5253C3.18474 47.3483 2.51646 48.0146 1.69338 48.0133C0.870297 48.012 0.204088 47.3437 0.20536 46.5207C0.206633 45.6976 0.874906 45.0314 1.69799 45.0326Z" fill="#848D95"/>
<path d="M1.71181 36.0907C2.5349 36.092 3.20111 36.7602 3.19983 37.5833C3.19856 38.4064 2.53029 39.0726 1.70721 39.0713C0.884123 39.0701 0.217914 38.4018 0.219186 37.5787C0.220459 36.7556 0.888732 36.0894 1.71181 36.0907Z" fill="#848D95"/>
<path d="M1.72564 27.1487C2.54872 27.15 3.21493 27.8183 3.21366 28.6414C3.21239 29.4645 2.54412 30.1307 1.72103 30.1294C0.897949 30.1281 0.23174 29.4599 0.233012 28.6368C0.234285 27.8137 0.902557 27.1475 1.72564 27.1487Z" fill="#848D95"/>
<path d="M1.73947 18.2068C2.56255 18.2081 3.22876 18.8764 3.22749 19.6994C3.22621 20.5225 2.55794 21.1887 1.73486 21.1875C0.911775 21.1862 0.245566 20.5179 0.246838 19.6948C0.248111 18.8717 0.916383 18.2055 1.73947 18.2068Z" fill="#848D95"/>
<path d="M1.75329 9.26486C2.57638 9.26613 3.24259 9.93441 3.24131 10.7575C3.24004 11.5806 2.57177 12.2468 1.74868 12.2455C0.925601 12.2442 0.259392 11.576 0.260664 10.7529C0.261937 9.9298 0.930209 9.26358 1.75329 9.26486Z" fill="#848D95"/>
<path d="M1.76712 0.322912C2.5902 0.324185 3.25641 0.99246 3.25514 1.81554C3.25387 2.63862 2.58559 3.30483 1.76251 3.30356C0.939427 3.30229 0.273218 2.63401 0.27449 1.81093C0.275763 0.987851 0.944035 0.32164 1.76712 0.322912Z" fill="#848D95"/>
<path d="M10.5708 89.7562C11.3939 89.7575 12.0601 90.4257 12.0588 91.2488C12.0576 92.0719 11.3893 92.7381 10.5662 92.7368C9.74311 92.7356 9.0769 92.0673 9.07818 91.2442C9.07945 90.4211 9.74772 89.7549 10.5708 89.7562Z" fill="#848D95"/>
<path d="M10.5846 80.8142C11.4077 80.8155 12.0739 81.4838 12.0726 82.3069C12.0714 83.13 11.4031 83.7962 10.58 83.7949C9.75694 83.7936 9.09073 83.1253 9.092 82.3023C9.09327 81.4792 9.76155 80.813 10.5846 80.8142Z" fill="#848D95"/>
<path d="M10.5985 71.8723C11.4215 71.8736 12.0877 72.5418 12.0865 73.3649C12.0852 74.188 11.4169 74.8542 10.5938 74.8529C9.77076 74.8517 9.10455 74.1834 9.10583 73.3603C9.1071 72.5372 9.77537 71.871 10.5985 71.8723Z" fill="#848D95"/>
<path d="M10.6123 62.9304C11.4354 62.9316 12.1016 63.5999 12.1003 64.423C12.099 65.2461 11.4308 65.9123 10.6077 65.911C9.78459 65.9097 9.11838 65.2415 9.11965 64.4184C9.12093 63.5953 9.7892 62.9291 10.6123 62.9304Z" fill="#848D95"/>
<path d="M10.6261 53.9884C11.4492 53.9897 12.1154 54.658 12.1141 55.481C12.1129 56.3041 11.4446 56.9703 10.6215 56.9691C9.79842 56.9678 9.13221 56.2995 9.13348 55.4764C9.13475 54.6533 9.80302 53.9871 10.6261 53.9884Z" fill="#848D95"/>
<path d="M10.6399 45.0465C11.463 45.0477 12.1292 45.716 12.128 46.5391C12.1267 47.3622 11.4584 48.0284 10.6353 48.0271C9.81224 48.0258 9.14603 47.3576 9.1473 46.5345C9.14858 45.7114 9.81685 45.0452 10.6399 45.0465Z" fill="#848D95"/>
<path d="M10.6538 36.1045C11.4768 36.1058 12.1431 36.7741 12.1418 37.5971C12.1405 38.4202 11.4722 39.0864 10.6492 39.0852C9.82607 39.0839 9.15986 38.4156 9.16113 37.5925C9.1624 36.7695 9.83068 36.1032 10.6538 36.1045Z" fill="#848D95"/>
<path d="M10.6676 27.1626C11.4907 27.1638 12.1569 27.8321 12.1556 28.6552C12.1543 29.4783 11.4861 30.1445 10.663 30.1432C9.83989 30.1419 9.17368 29.4737 9.17496 28.6506C9.17623 27.8275 9.8445 27.1613 10.6676 27.1626Z" fill="#848D95"/>
<path d="M10.6814 18.2206C11.5045 18.2219 12.1707 18.8902 12.1694 19.7133C12.1682 20.5363 11.4999 21.2026 10.6768 21.2013C9.85372 21.2 9.18751 20.5317 9.18878 19.7086C9.19006 18.8856 9.85833 18.2194 10.6814 18.2206Z" fill="#848D95"/>
<path d="M10.6952 9.27868C11.5183 9.27996 12.1845 9.94823 12.1833 10.7713C12.182 11.5944 11.5137 12.2606 10.6906 12.2593C9.86755 12.2581 9.20134 11.5898 9.20261 10.7667C9.20388 9.94362 9.87215 9.27741 10.6952 9.27868Z" fill="#848D95"/>
<path d="M10.7091 0.336738C11.5321 0.338011 12.1984 1.00629 12.1971 1.82937C12.1958 2.65245 11.5275 3.31866 10.7045 3.31739C9.88137 3.31611 9.21516 2.64784 9.21643 1.82476C9.21771 1.00168 9.88598 0.335466 10.7091 0.336738Z" fill="#848D95"/>
<path d="M19.5127 89.77C20.3358 89.7713 21.002 90.4396 21.0008 91.2626C20.9995 92.0857 20.3312 92.7519 19.5081 92.7507C18.6851 92.7494 18.0188 92.0811 18.0201 91.258C18.0214 90.4349 18.6897 89.7687 19.5127 89.77Z" fill="#848D95"/>
<path d="M19.5266 80.8281C20.3497 80.8293 21.0159 81.4976 21.0146 82.3207C21.0133 83.1438 20.345 83.81 19.522 83.8087C18.6989 83.8074 18.0327 83.1392 18.0339 82.3161C18.0352 81.493 18.7035 80.8268 19.5266 80.8281Z" fill="#848D95"/>
<path d="M19.5404 71.8861C20.3635 71.8874 21.0297 72.5557 21.0284 73.3788C21.0271 74.2018 20.3589 74.868 19.5358 74.8668C18.7127 74.8655 18.0465 74.1972 18.0478 73.3741C18.049 72.5511 18.7173 71.8848 19.5404 71.8861Z" fill="#848D95"/>
<path d="M19.5542 62.9442C20.3773 62.9454 21.0435 63.6137 21.0422 64.4368C21.041 65.2599 20.3727 65.9261 19.5496 65.9248C18.7265 65.9236 18.0603 65.2553 18.0616 64.4322C18.0629 63.6091 18.7311 62.9429 19.5542 62.9442Z" fill="#848D95"/>
<path d="M19.5681 54.0022C20.3911 54.0035 21.0573 54.6718 21.0561 55.4949C21.0548 56.3179 20.3865 56.9842 19.5634 56.9829C18.7404 56.9816 18.0742 56.3133 18.0754 55.4903C18.0767 54.6672 18.745 54.001 19.5681 54.0022Z" fill="#848D95"/>
<path d="M19.5819 45.0603C20.405 45.0616 21.0712 45.7298 21.0699 46.5529C21.0686 47.376 20.4004 48.0422 19.5773 48.0409C18.7542 48.0397 18.088 47.3714 18.0892 46.5483C18.0905 45.7252 18.7588 45.059 19.5819 45.0603Z" fill="#848D95"/>
<path d="M19.5957 36.1183C20.4188 36.1196 21.085 36.7879 21.0837 37.611C21.0825 38.4341 20.4142 39.1003 19.5911 39.099C18.768 39.0977 18.1018 38.4294 18.1031 37.6064C18.1043 36.7833 18.7726 36.1171 19.5957 36.1183Z" fill="#848D95"/>
<path d="M19.6095 27.1764C20.4326 27.1777 21.0988 27.8459 21.0975 28.669C21.0963 29.4921 20.428 30.1583 19.6049 30.157C18.7818 30.1558 18.1156 29.4875 18.1169 28.6644C18.1182 27.8413 18.7864 27.1751 19.6095 27.1764Z" fill="#848D95"/>
<path d="M19.6234 18.2345C20.4464 18.2357 21.1126 18.904 21.1114 19.7271C21.1101 20.5502 20.4418 21.2164 19.6187 21.2151C18.7957 21.2138 18.1295 20.5456 18.1307 19.7225C18.132 18.8994 18.8003 18.2332 19.6234 18.2345Z" fill="#848D95"/>
<path d="M19.6372 9.29251C20.4603 9.29378 21.1265 9.96206 21.1252 10.7851C21.1239 11.6082 20.4557 12.2744 19.6326 12.2732C18.8095 12.2719 18.1433 11.6036 18.1446 10.7805C18.1458 9.95745 18.8141 9.29124 19.6372 9.29251Z" fill="#848D95"/>
<path d="M19.651 0.350564C20.4741 0.351837 21.1403 1.02011 21.139 1.84319C21.1378 2.66627 20.4695 3.33249 19.6464 3.33121C18.8233 3.32994 18.1571 2.66167 18.1584 1.83858C18.1597 1.0155 18.8279 0.349291 19.651 0.350564Z" fill="#848D95"/>
<path d="M28.4547 89.7838C29.2778 89.7851 29.944 90.4534 29.9427 91.2765C29.9414 92.0995 29.2732 92.7658 28.4501 92.7645C27.627 92.7632 26.9608 92.0949 26.9621 91.2719C26.9633 90.4488 27.6316 89.7826 28.4547 89.7838Z" fill="#848D95"/>
<path d="M28.4685 80.8419C29.2916 80.8432 29.9578 81.5114 29.9565 82.3345C29.9553 83.1576 29.287 83.8238 28.4639 83.8225C27.6408 83.8213 26.9746 83.153 26.9759 82.3299C26.9772 81.5068 27.6454 80.8406 28.4685 80.8419Z" fill="#848D95"/>
<path d="M28.4823 71.8999C29.3054 71.9012 29.9716 72.5695 29.9704 73.3926C29.9691 74.2157 29.3008 74.8819 28.4777 74.8806C27.6547 74.8793 26.9884 74.2111 26.9897 73.388C26.991 72.5649 27.6593 71.8987 28.4823 71.8999Z" fill="#848D95"/>
<path d="M28.4962 62.958C29.3193 62.9593 29.9855 63.6275 29.9842 64.4506C29.9829 65.2737 29.3146 65.9399 28.4916 65.9387C27.6685 65.9374 27.0023 65.2691 27.0035 64.446C27.0048 63.6229 27.6731 62.9567 28.4962 62.958Z" fill="#848D95"/>
<path d="M28.51 54.0161C29.3331 54.0173 29.9993 54.6856 29.998 55.5087C29.9967 56.3318 29.3285 56.998 28.5054 56.9967C27.6823 56.9954 27.0161 56.3272 27.0174 55.5041C27.0186 54.681 27.6869 54.0148 28.51 54.0161Z" fill="#848D95"/>
<path d="M28.5238 45.0741C29.3469 45.0754 30.0131 45.7437 30.0118 46.5667C30.0106 47.3898 29.3423 48.056 28.5192 48.0548C27.6961 48.0535 27.0299 47.3852 27.0312 46.5621C27.0325 45.739 27.7007 45.0728 28.5238 45.0741Z" fill="#848D95"/>
<path d="M28.5376 36.1322C29.3607 36.1334 30.0269 36.8017 30.0257 37.6248C30.0244 38.4479 29.3561 39.1141 28.533 39.1128C27.71 39.1115 27.0437 38.4433 27.045 37.6202C27.0463 36.7971 27.7146 36.1309 28.5376 36.1322Z" fill="#848D95"/>
<path d="M28.5515 27.1902C29.3746 27.1915 30.0408 27.8598 30.0395 28.6829C30.0382 29.5059 29.3699 30.1721 28.5469 30.1709C27.7238 30.1696 27.0576 29.5013 27.0588 28.6782C27.0601 27.8552 27.7284 27.189 28.5515 27.1902Z" fill="#848D95"/>
<path d="M28.5653 18.2483C29.3884 18.2496 30.0546 18.9178 30.0533 19.7409C30.052 20.564 29.3838 21.2302 28.5607 21.2289C27.7376 21.2277 27.0714 20.5594 27.0727 19.7363C27.0739 18.9132 27.7422 18.247 28.5653 18.2483Z" fill="#848D95"/>
<path d="M28.5791 9.30634C29.4022 9.30761 30.0684 9.97588 30.0671 10.799C30.0659 11.622 29.3976 12.2883 28.5745 12.287C27.7514 12.2857 27.0852 11.6174 27.0865 10.7944C27.0878 9.97127 27.756 9.30506 28.5791 9.30634Z" fill="#848D95"/>
<path d="M28.593 0.36439C29.416 0.365663 30.0822 1.03394 30.081 1.85702C30.0797 2.6801 29.4114 3.34631 28.5883 3.34504C27.7653 3.34377 27.0991 2.67549 27.1003 1.85241C27.1016 1.02933 27.7699 0.363117 28.593 0.36439Z" fill="#848D95"/>
<path d="M37.3966 89.7977C38.2197 89.7989 38.8859 90.4672 38.8847 91.2903C38.8834 92.1134 38.2151 92.7796 37.392 92.7783C36.5689 92.777 35.9027 92.1088 35.904 91.2857C35.9053 90.4626 36.5736 89.7964 37.3966 89.7977Z" fill="#848D95"/>
<path d="M37.4105 80.8557C38.2335 80.857 38.8998 81.5253 38.8985 82.3483C38.8972 83.1714 38.2289 83.8376 37.4059 83.8364C36.5828 83.8351 35.9166 83.1668 35.9178 82.3437C35.9191 81.5207 36.5874 80.8544 37.4105 80.8557Z" fill="#848D95"/>
<path d="M37.4243 71.9138C38.2474 71.915 38.9136 72.5833 38.9123 73.4064C38.911 74.2295 38.2428 74.8957 37.4197 74.8944C36.5966 74.8931 35.9304 74.2249 35.9317 73.4018C35.9329 72.5787 36.6012 71.9125 37.4243 71.9138Z" fill="#848D95"/>
<path d="M37.4381 62.9718C38.2612 62.9731 38.9274 63.6414 38.9261 64.4645C38.9249 65.2875 38.2566 65.9537 37.4335 65.9525C36.6104 65.9512 35.9442 65.2829 35.9455 64.4598C35.9468 63.6368 36.615 62.9706 37.4381 62.9718Z" fill="#848D95"/>
<path d="M37.4519 54.0299C38.275 54.0312 38.9412 54.6994 38.94 55.5225C38.9387 56.3456 38.2704 57.0118 37.4473 57.0105C36.6242 57.0093 35.958 56.341 35.9593 55.5179C35.9606 54.6948 36.6289 54.0286 37.4519 54.0299Z" fill="#848D95"/>
<path d="M37.4658 45.0879C38.2889 45.0892 38.9551 45.7575 38.9538 46.5806C38.9525 47.4037 38.2842 48.0699 37.4612 48.0686C36.6381 48.0673 35.9719 47.399 35.9731 46.576C35.9744 45.7529 36.6427 45.0867 37.4658 45.0879Z" fill="#848D95"/>
<path d="M37.4796 36.146C38.3027 36.1473 38.9689 36.8155 38.9676 37.6386C38.9663 38.4617 38.2981 39.1279 37.475 39.1266C36.6519 39.1254 35.9857 38.4571 35.987 37.634C35.9882 36.8109 36.6565 36.1447 37.4796 36.146Z" fill="#848D95"/>
<path d="M37.4934 27.2041C38.3165 27.2053 38.9827 27.8736 38.9814 28.6967C38.9802 29.5198 38.3119 30.186 37.4888 30.1847C36.6657 30.1834 35.9995 29.5152 36.0008 28.6921C36.0021 27.869 36.6703 27.2028 37.4934 27.2041Z" fill="#848D95"/>
<path d="M37.5072 18.2621C38.3303 18.2634 38.9965 18.9317 38.9953 19.7547C38.994 20.5778 38.3257 21.244 37.5026 21.2428C36.6796 21.2415 36.0133 20.5732 36.0146 19.7501C36.0159 18.927 36.6842 18.2608 37.5072 18.2621Z" fill="#848D95"/>
<path d="M37.5211 9.32016C38.3442 9.32143 39.0104 9.98971 39.0091 10.8128C39.0078 11.6359 38.3395 12.3021 37.5165 12.3008C36.6934 12.2995 36.0272 11.6313 36.0284 10.8082C36.0297 9.9851 36.698 9.31889 37.5211 9.32016Z" fill="#848D95"/>
<path d="M37.5349 0.378216C38.358 0.379489 39.0242 1.04776 39.0229 1.87084C39.0216 2.69393 38.3534 3.36014 37.5303 3.35886C36.7072 3.35759 36.041 2.68932 36.0423 1.86624C36.0435 1.04315 36.7118 0.376943 37.5349 0.378216Z" fill="#848D95"/>
<path d="M46.3386 89.8115C47.1617 89.8128 47.8279 90.481 47.8266 91.3041C47.8253 92.1272 47.1571 92.7934 46.334 92.7921C45.5109 92.7909 44.8447 92.1226 44.846 91.2995C44.8472 90.4764 45.5155 89.8102 46.3386 89.8115Z" fill="#848D95"/>
<path d="M46.3524 80.8695C47.1755 80.8708 47.8417 81.5391 47.8404 82.3622C47.8392 83.1853 47.1709 83.8515 46.3478 83.8502C45.5247 83.8489 44.8585 83.1806 44.8598 82.3576C44.8611 81.5345 45.5293 80.8683 46.3524 80.8695Z" fill="#848D95"/>
<path d="M46.3662 71.9276C47.1893 71.9289 47.8555 72.5971 47.8543 73.4202C47.853 74.2433 47.1847 74.9095 46.3616 74.9082C45.5385 74.907 44.8723 74.2387 44.8736 73.4156C44.8749 72.5925 45.5431 71.9263 46.3662 71.9276Z" fill="#848D95"/>
<path d="M46.3801 62.9857C47.2031 62.9869 47.8694 63.6552 47.8681 64.4783C47.8668 65.3014 47.1985 65.9676 46.3755 65.9663C45.5524 65.965 44.8862 65.2968 44.8874 64.4737C44.8887 63.6506 45.557 62.9844 46.3801 62.9857Z" fill="#848D95"/>
<path d="M46.3939 54.0437C47.217 54.045 47.8832 54.7133 47.8819 55.5363C47.8806 56.3594 47.2124 57.0256 46.3893 57.0244C45.5662 57.0231 44.9 56.3548 44.9013 55.5317C44.9025 54.7086 45.5708 54.0424 46.3939 54.0437Z" fill="#848D95"/>
<path d="M46.4077 45.1018C47.2308 45.103 47.897 45.7713 47.8957 46.5944C47.8945 47.4175 47.2262 48.0837 46.4031 48.0824C45.58 48.0811 44.9138 47.4129 44.9151 46.5898C44.9164 45.7667 45.5846 45.1005 46.4077 45.1018Z" fill="#848D95"/>
<path d="M46.4215 36.1598C47.2446 36.1611 47.9108 36.8294 47.9096 37.6524C47.9083 38.4755 47.24 39.1417 46.4169 39.1405C45.5938 39.1392 44.9276 38.4709 44.9289 37.6478C44.9302 36.8248 45.5985 36.1585 46.4215 36.1598Z" fill="#848D95"/>
<path d="M46.4354 27.2179C47.2584 27.2192 47.9247 27.8874 47.9234 28.7105C47.9221 29.5336 47.2538 30.1998 46.4308 30.1985C45.6077 30.1973 44.9415 29.529 44.9427 28.7059C44.944 27.8828 45.6123 27.2166 46.4354 27.2179Z" fill="#848D95"/>
<path d="M46.4492 18.2759C47.2723 18.2772 47.9385 18.9455 47.9372 19.7686C47.9359 20.5916 47.2677 21.2579 46.4446 21.2566C45.6215 21.2553 44.9553 20.587 44.9566 19.764C44.9578 18.9409 45.6261 18.2747 46.4492 18.2759Z" fill="#848D95"/>
<path d="M46.463 9.33399C47.2861 9.33526 47.9523 10.0035 47.951 10.8266C47.9498 11.6497 47.2815 12.3159 46.4584 12.3146C45.6353 12.3134 44.9691 11.6451 44.9704 10.822C44.9717 9.99893 45.6399 9.33271 46.463 9.33399Z" fill="#848D95"/>
<path d="M46.4768 0.392042C47.2999 0.393315 47.9661 1.06159 47.9649 1.88467C47.9636 2.70775 47.2953 3.37396 46.4722 3.37269C45.6491 3.37142 44.9829 2.70314 44.9842 1.88006C44.9855 1.05698 45.6538 0.390769 46.4768 0.392042Z" fill="#848D95"/>
<path d="M55.2805 89.8253C56.1036 89.8266 56.7698 90.4949 56.7685 91.3179C56.7673 92.141 56.099 92.8072 55.2759 92.806C54.4528 92.8047 53.7866 92.1364 53.7879 91.3133C53.7892 90.4903 54.4574 89.824 55.2805 89.8253Z" fill="#848D95"/>
<path d="M55.2944 80.8834C56.1174 80.8846 56.7836 81.5529 56.7824 82.376C56.7811 83.1991 56.1128 83.8653 55.2897 83.864C54.4667 83.8627 53.8005 83.1945 53.8017 82.3714C53.803 81.5483 54.4713 80.8821 55.2944 80.8834Z" fill="#848D95"/>
<path d="M55.3082 71.9414C56.1313 71.9427 56.7975 72.611 56.7962 73.4341C56.7949 74.2571 56.1267 74.9233 55.3036 74.9221C54.4805 74.9208 53.8143 74.2525 53.8156 73.4294C53.8168 72.6064 54.4851 71.9402 55.3082 71.9414Z" fill="#848D95"/>
<path d="M55.322 62.9995C56.1451 63.0008 56.8113 63.669 56.81 64.4921C56.8088 65.3152 56.1405 65.9814 55.3174 65.9801C54.4943 65.9789 53.8281 65.3106 53.8294 64.4875C53.8307 63.6644 54.4989 62.9982 55.322 62.9995Z" fill="#848D95"/>
<path d="M55.3358 54.0575C56.1589 54.0588 56.8251 54.7271 56.8239 55.5502C56.8226 56.3733 56.1543 57.0395 55.3312 57.0382C54.5081 57.0369 53.8419 56.3686 53.8432 55.5456C53.8445 54.7225 54.5127 54.0563 55.3358 54.0575Z" fill="#848D95"/>
<path d="M55.3497 45.1156C56.1727 45.1169 56.839 45.7851 56.8377 46.6082C56.8364 47.4313 56.1681 48.0975 55.345 48.0962C54.522 48.095 53.8558 47.4267 53.857 46.6036C53.8583 45.7805 54.5266 45.1143 55.3497 45.1156Z" fill="#848D95"/>
<path d="M55.3635 36.1736C56.1866 36.1749 56.8528 36.8432 56.8515 37.6663C56.8502 38.4894 56.182 39.1556 55.3589 39.1543C54.5358 39.153 53.8696 38.4848 53.8709 37.6617C53.8721 36.8386 54.5404 36.1724 55.3635 36.1736Z" fill="#848D95"/>
<path d="M55.3773 27.2317C56.2004 27.233 56.8666 27.9013 56.8653 28.7243C56.8641 29.5474 56.1958 30.2136 55.3727 30.2123C54.5496 30.2111 53.8834 29.5428 53.8847 28.7197C53.886 27.8966 54.5542 27.2304 55.3773 27.2317Z" fill="#848D95"/>
<path d="M55.3911 18.2898C56.2142 18.291 56.8804 18.9593 56.8792 19.7824C56.8779 20.6055 56.2096 21.2717 55.3865 21.2704C54.5634 21.2691 53.8972 20.6009 53.8985 19.7778C53.8998 18.9547 54.5681 18.2885 55.3911 18.2898Z" fill="#848D95"/>
<path d="M55.405 9.34781C56.228 9.34909 56.8943 10.0174 56.893 10.8404C56.8917 11.6635 56.2234 12.3297 55.4004 12.3285C54.5773 12.3272 53.9111 11.6589 53.9123 10.8358C53.9136 10.0128 54.5819 9.34654 55.405 9.34781Z" fill="#848D95"/>
<path d="M55.4188 0.405868C56.2419 0.407141 56.9081 1.07542 56.9068 1.8985C56.9055 2.72158 56.2373 3.38779 55.4142 3.38652C54.5911 3.38524 53.9249 2.71697 53.9262 1.89389C53.9274 1.07081 54.5957 0.404595 55.4188 0.405868Z" fill="#848D95"/>
<path d="M64.2225 89.8391C65.0456 89.8404 65.7118 90.5087 65.7105 91.3318C65.7092 92.1549 65.0409 92.8211 64.2179 92.8198C63.3948 92.8185 62.7286 92.1502 62.7298 91.3272C62.7311 90.5041 63.3994 89.8379 64.2225 89.8391Z" fill="#848D95"/>
<path d="M64.2363 80.8972C65.0594 80.8985 65.7256 81.5667 65.7243 82.3898C65.723 83.2129 65.0548 83.8791 64.2317 83.8778C63.4086 83.8766 62.7424 83.2083 62.7437 82.3852C62.7449 81.5621 63.4132 80.8959 64.2363 80.8972Z" fill="#848D95"/>
<path d="M64.2501 71.9553C65.0732 71.9565 65.7394 72.6248 65.7381 73.4479C65.7369 74.271 65.0686 74.9372 64.2455 74.9359C63.4224 74.9346 62.7562 74.2664 62.7575 73.4433C62.7588 72.6202 63.427 71.954 64.2501 71.9553Z" fill="#848D95"/>
<path d="M64.2639 63.0133C65.087 63.0146 65.7532 63.6829 65.752 64.5059C65.7507 65.329 65.0824 65.9952 64.2593 65.994C63.4363 65.9927 62.7701 65.3244 62.7713 64.5013C62.7726 63.6782 63.4409 63.012 64.2639 63.0133Z" fill="#848D95"/>
<path d="M64.2778 54.0714C65.1009 54.0726 65.7671 54.7409 65.7658 55.564C65.7645 56.3871 65.0962 57.0533 64.2732 57.052C63.4501 57.0507 62.7839 56.3825 62.7851 55.5594C62.7864 54.7363 63.4547 54.0701 64.2778 54.0714Z" fill="#848D95"/>
<path d="M64.2916 45.1294C65.1147 45.1307 65.7809 45.799 65.7796 46.622C65.7783 47.4451 65.1101 48.1113 64.287 48.1101C63.4639 48.1088 62.7977 47.4405 62.799 46.6174C62.8002 45.7944 63.4685 45.1281 64.2916 45.1294Z" fill="#848D95"/>
<path d="M64.3054 36.1875C65.1285 36.1887 65.7947 36.857 65.7934 37.6801C65.7922 38.5032 65.1239 39.1694 64.3008 39.1681C63.4777 39.1668 62.8115 38.4986 62.8128 37.6755C62.8141 36.8524 63.4823 36.1862 64.3054 36.1875Z" fill="#848D95"/>
<path d="M64.3193 27.2455C65.1423 27.2468 65.8085 27.9151 65.8073 28.7382C65.806 29.5612 65.1377 30.2274 64.3146 30.2262C63.4916 30.2249 62.8254 29.5566 62.8266 28.7336C62.8279 27.9105 63.4962 27.2443 64.3193 27.2455Z" fill="#848D95"/>
<path d="M64.3331 18.3036C65.1562 18.3049 65.8224 18.9731 65.8211 19.7962C65.8198 20.6193 65.1515 21.2855 64.3285 21.2842C63.5054 21.283 62.8392 20.6147 62.8405 19.7916C62.8417 18.9685 63.51 18.3023 64.3331 18.3036Z" fill="#848D95"/>
<path d="M64.3469 9.36164C65.17 9.36291 65.8362 10.0312 65.8349 10.8543C65.8337 11.6773 65.1654 12.3436 64.3423 12.3423C63.5192 12.341 62.853 11.6727 62.8543 10.8497C62.8556 10.0266 63.5238 9.36037 64.3469 9.36164Z" fill="#848D95"/>
<path d="M64.3607 0.419694C65.1838 0.420966 65.85 1.08924 65.8487 1.91232C65.8475 2.7354 65.1792 3.40161 64.3561 3.40034C63.533 3.39907 62.8668 2.73079 62.8681 1.90771C62.8694 1.08463 63.5376 0.418421 64.3607 0.419694Z" fill="#848D95"/>
<path d="M73.1644 89.853C73.9875 89.8542 74.6537 90.5225 74.6524 91.3456C74.6512 92.1687 73.9829 92.8349 73.1598 92.8336C72.3367 92.8323 71.6705 92.1641 71.6718 91.341C71.6731 90.5179 72.3413 89.8517 73.1644 89.853Z" fill="#848D95"/>
<path d="M73.1782 80.911C74.0013 80.9123 74.6675 81.5806 74.6663 82.4037C74.665 83.2267 73.9967 83.8929 73.1736 83.8917C72.3506 83.8904 71.6843 83.2221 71.6856 82.399C71.6869 81.576 72.3552 80.9097 73.1782 80.911Z" fill="#848D95"/>
<path d="M73.1921 71.9691C74.0151 71.9704 74.6814 72.6386 74.6801 73.4617C74.6788 74.2848 74.0105 74.951 73.1875 74.9497C72.3644 74.9485 71.6982 74.2802 71.6994 73.4571C71.7007 72.634 72.369 71.9678 73.1921 71.9691Z" fill="#848D95"/>
<path d="M73.2059 63.0271C74.029 63.0284 74.6952 63.6967 74.6939 64.5198C74.6926 65.3428 74.0244 66.0091 73.2013 66.0078C72.3782 66.0065 71.712 65.3382 71.7133 64.5152C71.7145 63.6921 72.3828 63.0259 73.2059 63.0271Z" fill="#848D95"/>
<path d="M73.2197 54.0852C74.0428 54.0865 74.709 54.7547 74.7077 55.5778C74.7065 56.4009 74.0382 57.0671 73.2151 57.0658C72.392 57.0646 71.7258 56.3963 71.7271 55.5732C71.7284 54.7501 72.3966 54.0839 73.2197 54.0852Z" fill="#848D95"/>
<path d="M73.2335 45.1432C74.0566 45.1445 74.7228 45.8128 74.7216 46.6359C74.7203 47.459 74.052 48.1252 73.2289 48.1239C72.4059 48.1226 71.7396 47.4543 71.7409 46.6313C71.7422 45.8082 72.4105 45.142 73.2335 45.1432Z" fill="#848D95"/>
<path d="M73.2474 36.2013C74.0705 36.2026 74.7367 36.8708 74.7354 37.6939C74.7341 38.517 74.0658 39.1832 73.2428 39.1819C72.4197 39.1807 71.7535 38.5124 71.7547 37.6893C71.756 36.8662 72.4243 36.2 73.2474 36.2013Z" fill="#848D95"/>
<path d="M73.2612 27.2594C74.0843 27.2606 74.7505 27.9289 74.7492 28.752C74.7479 29.5751 74.0797 30.2413 73.2566 30.24C72.4335 30.2387 71.7673 29.5705 71.7686 28.7474C71.7698 27.9243 72.4381 27.2581 73.2612 27.2594Z" fill="#848D95"/>
<path d="M73.275 18.3174C74.0981 18.3187 74.7643 18.987 74.763 19.81C74.7618 20.6331 74.0935 21.2993 73.2704 21.2981C72.4473 21.2968 71.7811 20.6285 71.7824 19.8054C71.7837 18.9823 72.4519 18.3161 73.275 18.3174Z" fill="#848D95"/>
<path d="M73.2888 9.37547C74.1119 9.37674 74.7781 10.045 74.7769 10.8681C74.7756 11.6912 74.1073 12.3574 73.2842 12.3561C72.4612 12.3548 71.7949 11.6866 71.7962 10.8635C71.7975 10.0404 72.4658 9.37419 73.2888 9.37547Z" fill="#848D95"/>
<path d="M73.3027 0.43352C74.1258 0.434792 74.792 1.10307 74.7907 1.92615C74.7894 2.74923 74.1211 3.41544 73.2981 3.41417C72.475 3.4129 71.8088 2.74462 71.81 1.92154C71.8113 1.09846 72.4796 0.432247 73.3027 0.43352Z" fill="#848D95"/>
</svg>
