<svg width="128" height="93" viewBox="0 0 128 93" fill="none" xmlns="http://www.w3.org/2000/svg">
<path d="M41.7112 69.7724C28.6207 57.4192 28.0229 36.793 40.3761 23.7025C52.7292 10.612 73.3554 10.0142 86.4459 22.3674C99.5364 34.7205 100.134 55.3467 87.7811 68.4373C75.4279 81.5278 54.8017 82.1255 41.7112 69.7724Z" fill="#616161"/>
<path d="M94.4063 58.0534C91.5908 55.183 88.341 52.7735 84.7763 50.9134C78.5663 47.5534 61.3063 43.0434 53.5263 38.2934C42.5863 31.6234 41.6663 25.2934 41.9863 22.1134C45.0767 19.2808 48.6819 17.0675 52.6063 15.5935C53.1563 18.9435 55.3863 29.4335 73.7763 37.5935C83.2763 41.8235 92.7763 40.2735 96.0563 39.7535C97.2792 45.8851 96.7062 52.2394 94.4063 58.0534Z" fill="#C6C6C6"/>
<path d="M79.7188 74.6935C73.1573 78.2699 65.5675 79.4872 58.2167 78.1422C50.8658 76.7973 44.1988 72.9714 39.3287 67.3034C41.2467 66.4467 43.2613 65.8255 45.3287 65.4534C54.2387 64.0334 63.5187 68.9934 66.8687 71.2434C70.6017 73.8931 75.1607 75.1171 79.7188 74.6935Z" fill="#C6C6C6"/>
<path d="M92.0898 62.7735L91.6198 63.5335L91.1798 64.2035C90.8398 64.7135 90.4998 65.2035 90.1798 65.6935C89.8598 66.1835 89.5098 66.5535 89.1798 66.9635L88.7899 67.4235L88.3398 67.9335C88.1898 68.1035 88.0399 68.2735 87.8799 68.4335L87.3199 69.0135L86.7599 69.5735L86.2599 70.0435C85.8899 70.3835 85.5099 70.7135 85.1299 71.0435C83.0599 71.4935 80.3699 71.0435 76.5399 69.1235C70.8199 66.3335 64.9098 60.2535 53.8398 55.2335C46.9983 52.196 39.4521 51.1026 32.0298 52.0735C30.7903 45.4569 31.6359 38.6188 34.4499 32.5035C36.5299 32.5935 43.1399 34.0835 56.4499 46.9835C60.5771 51.1053 65.1177 54.7914 69.9998 57.9835C81.6498 65.3335 88.8398 63.9835 91.8898 62.7735H92.0898Z" fill="#C6C6C6"/>
<path d="M62.5367 27.3035C61.8367 28.5735 59.7766 28.7835 57.9266 27.7735C56.0766 26.7635 55.1566 24.9034 55.8466 23.6334C56.5366 22.3634 58.6066 22.1634 60.4566 23.1734C62.3066 24.1834 63.2267 25.9835 62.5367 27.3035Z" fill="#8D8D8D"/>
<path d="M53.1391 28.7334C52.7491 29.4434 51.5291 29.5334 50.4191 28.9234C49.3091 28.3134 48.7391 27.2435 49.1291 26.5335C49.5191 25.8235 50.7391 25.7234 51.8491 26.3334C52.9591 26.9434 53.5291 28.0134 53.1391 28.7334Z" fill="#8D8D8D"/>
<path d="M74.6771 70.8835C74.0771 71.9735 72.2871 72.1335 70.6771 71.2435C69.0671 70.3535 68.2371 68.7635 68.8271 67.6735C69.4171 66.5835 71.2171 66.4335 72.8271 67.3135C74.4371 68.1935 75.2671 69.8035 74.6771 70.8835Z" fill="#8D8D8D"/>
<path d="M68.5984 71.4635C68.5214 71.7959 68.3421 72.0957 68.0857 72.3208C67.8294 72.5458 67.5089 72.6848 67.1693 72.7181C66.8298 72.7513 66.4884 72.6772 66.1932 72.5062C65.898 72.3352 65.6639 72.0758 65.5239 71.7647C65.3839 71.4536 65.3451 71.1064 65.4129 70.7721C65.4806 70.4377 65.6516 70.133 65.9017 69.901C66.1517 69.6689 66.4683 69.5212 66.8068 69.4786C67.1453 69.436 67.4886 69.5006 67.7884 69.6635C68.1288 69.8019 68.4029 70.0662 68.5537 70.4013C68.7046 70.7365 68.7205 71.1169 68.5984 71.4635Z" fill="#8D8D8D"/>
<path d="M67.9075 68.3635C67.761 68.5385 67.5536 68.6513 67.3271 68.6792C67.1006 68.707 66.872 68.6478 66.6875 68.5134C66.1975 68.2434 65.9575 67.7435 66.1475 67.4035C66.2956 67.2277 66.5048 67.1146 66.733 67.0868C66.9612 67.059 67.1914 67.1185 67.3775 67.2535C67.8575 67.5235 68.0975 68.0235 67.9075 68.3635Z" fill="#8D8D8D"/>
<path d="M47.6568 66.4334C47.1268 67.4334 45.6568 67.6134 44.3568 66.9034C43.0568 66.1934 42.4468 64.8334 42.9768 63.9034C43.5068 62.9734 44.9768 62.7234 46.2768 63.4334C47.5768 64.1434 48.1868 65.4634 47.6568 66.4334Z" fill="#8D8D8D"/>
<path d="M48.8492 62.0834C48.7508 62.3254 48.5812 62.5318 48.363 62.6753C48.1447 62.8188 47.888 62.8927 47.6269 62.8872C47.3657 62.8816 47.1124 62.7969 46.9004 62.6442C46.6885 62.4916 46.5278 62.2782 46.4398 62.0323C46.3517 61.7863 46.3404 61.5195 46.4073 61.267C46.4742 61.0145 46.6162 60.7882 46.8145 60.6182C47.0128 60.4481 47.258 60.3423 47.5178 60.3147C47.7776 60.287 48.0396 60.3389 48.2692 60.4634C48.5603 60.602 48.7848 60.8502 48.8934 61.1538C49.0021 61.4573 48.9862 61.7916 48.8492 62.0834Z" fill="#8D8D8D"/>
<path d="M90.1389 65.6935C69.939 61.4165 50.2708 54.9308 31.4889 46.3534C16.8889 39.4934 7.87892 32.9235 9.09892 29.2135C10.3189 25.5035 21.2689 25.4535 36.6989 28.4235C36.2789 29.0735 35.8889 29.7335 35.5089 30.4235C35.3689 30.6835 35.2389 30.9435 35.0989 31.1935C26.8889 30.1435 21.4489 30.6234 20.7089 32.8834C19.9689 35.1434 24.1889 38.8835 31.6389 42.9635C41.0552 47.9081 50.8902 52.0107 61.0289 55.2235C71.1196 58.6488 81.4933 61.1753 92.0289 62.7735C100.419 63.8835 106.029 63.4135 106.749 61.1235C107.469 58.8335 103.399 55.2735 96.2089 51.2635C96.3886 50.1708 96.5088 49.0692 96.5689 47.9635C111.149 54.8035 120.289 61.6035 119.029 65.3035C117.769 69.0035 106.359 68.9635 90.1389 65.6935Z" fill="#8D8D8D"/>
<path d="M88.2981 67.9235C78.5605 65.8367 68.9376 63.2465 59.4681 60.1635C50.0346 57.1447 40.7624 53.6435 31.6881 49.6735C11.4081 40.6735 -1.54189 31.5035 0.148117 26.2435C1.83812 20.9835 17.4281 21.0935 38.7881 25.5435C38.4781 25.9335 38.1681 26.3335 37.8681 26.7435C19.9281 23.3035 7.06812 23.4935 5.61812 28.0035C4.16812 32.5135 14.6881 40.3435 31.5581 48.1235C40.7693 52.301 50.2152 55.9405 59.8481 59.0235C69.5122 62.1703 79.3524 64.7481 89.3181 66.7435C107.468 70.2635 120.508 70.0935 121.968 65.5435C123.428 60.9935 113.168 53.4135 96.6881 45.7435C96.6881 45.2335 96.6881 44.7435 96.6281 44.2135C116.488 53.0635 129.108 62.1135 127.438 67.3135C125.768 72.5135 109.908 72.4635 88.2981 67.9235Z" fill="#C6C6C6"/>
</svg>
