<svg width="117" height="115" viewBox="0 0 117 115" fill="none" xmlns="http://www.w3.org/2000/svg">
<path d="M49.0103 5.9368C43.5703 2.7768 36.5403 5.5768 31.6603 9.5368C26.7803 13.4968 22.6603 18.6668 16.8603 21.0968C13.1603 22.6468 8.9303 23.0068 5.6603 25.3168C0.330302 29.0768 -0.609673 36.6468 0.310327 43.1068C1.23033 49.5668 3.50029 55.9768 2.71029 62.4568C2.12029 67.1968 -0.0996954 71.9568 1.1003 76.5868C2.7903 83.0668 10.2503 86.1568 13.8803 91.7968C16.4903 95.7968 17.2003 101.287 21.0903 104.127C25.6003 107.417 31.8703 105.497 37.4403 105.997C44.2903 106.617 50.1503 110.997 56.6603 113.217C61.8946 114.924 67.485 115.231 72.8747 114.107C78.2645 112.982 83.2656 110.465 87.3803 106.807C91.5103 103.047 94.5603 98.2268 98.6203 94.3968C102.1 91.1068 106.32 88.5468 109.17 84.7068C112.02 80.8668 113.17 76.3768 114.34 71.8968C116.07 65.3568 117.8 58.5468 116.54 51.8968C114.54 41.2868 105.48 33.5568 100.77 23.8368C98.9303 20.0168 97.5803 15.7168 94.2203 13.2468C90.6103 10.6268 85.7203 10.8468 81.4903 9.41681C75.4203 7.41681 70.8403 1.95681 64.6403 0.416806C61.776 -0.268598 58.7743 -0.106003 56.0008 0.884774C53.2274 1.87555 50.8019 3.65172 49.0203 5.9968" fill="#FAFAFA"/>
<path d="M69.5994 101.758C94.2897 95.2995 109.069 70.0481 102.61 45.3578C96.1512 20.6676 70.8998 5.88822 46.2095 12.3472C21.5193 18.8061 6.73991 44.0575 13.1989 68.7477C19.6578 93.438 44.9092 108.217 69.5994 101.758Z" fill="#F0F0F0"/>
<path d="M44.2807 64.6968C43.3609 65.8712 42.1135 66.7463 40.6963 67.2115C39.279 67.6767 37.7557 67.7111 36.3189 67.3103C34.8821 66.9096 33.5964 66.0916 32.6246 64.96C31.6528 63.8284 31.0384 62.434 30.8593 60.9532C30.6801 59.4723 30.9442 57.9716 31.6181 56.6409C32.2921 55.3102 33.3456 54.2093 34.6453 53.4775C35.9451 52.7456 37.4327 52.4157 38.92 52.5296C40.4073 52.6434 41.8274 53.1958 43.0007 54.1168C43.7801 54.727 44.4315 55.4849 44.9177 56.3471C45.4039 57.2092 45.7153 58.1588 45.8342 59.1415C45.9531 60.1241 45.8771 61.1206 45.6105 62.0738C45.3439 63.0271 44.892 63.9184 44.2807 64.6968Z" fill="#F5F5F5"/>
<path d="M49.2902 41.0168C48.756 41.7023 48.0304 42.2138 47.2053 42.4865C46.3802 42.7593 45.4927 42.781 44.6552 42.5489C43.8177 42.3169 43.068 41.8415 42.5009 41.1829C41.9338 40.5244 41.575 39.7124 41.4698 38.8498C41.3646 37.9871 41.5178 37.1127 41.91 36.3372C42.3022 35.5617 42.9157 34.92 43.6729 34.4935C44.43 34.067 45.2967 33.8747 46.1632 33.9412C47.0297 34.0077 47.857 34.3298 48.5402 34.8668C49.4532 35.5843 50.0446 36.6343 50.1852 37.7869C50.3257 38.9395 50.004 40.1009 49.2902 41.0168Z" fill="#F5F5F5"/>
</svg>
