<svg width="215" height="286" viewBox="0 0 215 286" fill="none" xmlns="http://www.w3.org/2000/svg">
<path d="M211.984 55.1968C212.017 47.6059 210.566 40.0817 207.714 33.0468C204.824 26.1168 200.254 19.9767 194.334 16.1168C192.891 15.1599 191.365 14.3333 189.774 13.6468C188.212 13.0012 186.591 12.5056 184.934 12.1667C181.706 11.5009 178.381 11.4534 175.134 12.0268C168.694 13.1367 162.754 16.3268 157.494 20.5268C157.174 20.7968 156.814 21.0668 156.494 21.3168L155.754 22.0268C155.274 22.5268 154.754 23.0268 154.334 23.5568C153.374 24.6501 152.502 25.817 151.724 27.0468C150.023 29.7057 148.567 32.514 147.374 35.4368C144.78 41.8859 142.651 48.5129 141.004 55.2668C137.434 69.2668 134.594 84.0968 131.214 99.1568C130.374 102.93 129.478 106.717 128.524 110.517C127.604 114.327 126.584 118.147 125.524 121.997C123.369 130.004 120.601 137.834 117.244 145.417C116.324 147.417 115.314 149.417 114.114 151.487C113.524 152.487 112.854 153.557 112.114 154.577C111.374 155.597 110.654 156.577 109.864 157.467C106.839 160.986 103.335 164.062 99.4544 166.607C92.1144 171.537 84.5744 174.607 77.3344 177.727C70.0944 180.847 62.9544 183.727 56.2044 187.177C49.5218 190.53 43.2388 194.625 37.4744 199.387C31.8974 204.06 27.1417 209.634 23.4044 215.877C19.7244 222.067 17.0444 228.817 16.2744 235.387C15.8542 238.519 15.898 241.697 16.4044 244.817C16.8863 247.606 17.9051 250.276 19.4044 252.677C20.7465 254.799 22.512 256.622 24.5905 258.031C26.6691 259.44 29.0159 260.406 31.4844 260.867C34.0038 261.359 36.5841 261.46 39.1344 261.167C41.8724 260.828 44.5589 260.156 47.1344 259.167C47.8044 258.917 48.4644 258.637 49.1344 258.357L51.4944 257.357C53.0544 256.657 54.6044 255.927 56.1144 255.147C59.1144 253.597 62.1144 251.927 65.0244 250.057C70.8544 246.367 76.5844 241.897 82.9644 237.057C89.6542 231.909 96.7132 227.26 104.084 223.147C111.768 219.041 119.829 215.682 128.154 213.117C129.154 212.777 130.214 212.507 131.244 212.207L134.014 211.417C135.544 210.967 137.094 210.477 138.634 209.947C141.704 208.867 144.744 207.637 147.704 206.267C159.534 200.747 169.874 193.007 177.234 182.947C181.041 177.817 184.189 172.23 186.604 166.317C187.904 163.224 189.003 160.051 189.894 156.817C190.853 153.467 191.635 150.069 192.234 146.637C192.834 143.147 193.304 139.567 193.594 135.927C193.744 134.217 193.854 131.987 193.994 129.927C194.134 127.867 194.344 125.817 194.584 123.777C195.54 115.71 197.061 107.721 199.134 99.8668C201.134 92.0968 203.614 84.5768 206.134 77.1868C207.404 73.4868 208.674 69.8168 209.804 66.1868C211.021 62.638 211.755 58.9414 211.984 55.1968ZM214.984 55.1968C214.974 57.242 214.766 59.2814 214.364 61.2868C214.014 63.2868 213.554 65.1768 213.104 67.0768C212.204 70.8868 211.234 74.6468 210.434 78.4268C209.634 82.2068 208.924 85.9768 208.434 89.7668C207.944 93.5568 207.624 97.3568 207.434 101.147C207.164 108.659 207.646 116.18 208.874 123.597C209.154 125.437 209.514 127.257 209.874 129.067C210.234 130.877 210.664 132.557 211.084 134.707C211.939 138.849 212.563 143.035 212.954 147.247C213.803 156 213.396 164.829 211.744 173.467C209.987 182.495 206.7 191.156 202.024 199.077C197.234 207.021 191.24 214.173 184.254 220.277C177.406 226.273 169.781 231.319 161.584 235.277C157.552 237.254 153.396 238.97 149.144 240.417C147.024 241.167 144.864 241.817 142.664 242.417L137.324 243.847C130.768 245.635 124.375 247.977 118.214 250.847C111.823 253.897 105.651 257.389 99.7444 261.297C93.3944 265.297 86.5244 269.967 78.9044 274.017C75.0817 276.073 71.1529 277.926 67.1344 279.567C65.1344 280.397 63.1344 281.147 61.0344 281.867L57.9544 282.867C56.7844 283.217 55.6044 283.557 54.4144 283.867C49.5354 285.107 44.5054 285.649 39.4744 285.477C34.2513 285.311 29.0973 284.235 24.2444 282.297C19.2908 280.304 14.7907 277.331 11.0144 273.557C7.28497 269.834 4.3938 265.357 2.53438 260.427C0.787399 255.764 -0.0707245 250.815 0.00437927 245.837C0.0567169 241.199 0.784363 236.594 2.16438 232.167C4.84019 223.998 8.91772 216.357 14.2144 209.587C16.7288 206.285 19.4651 203.157 22.4044 200.227C25.3274 197.349 28.416 194.644 31.6544 192.127C44.5444 182.127 59.1844 175.487 72.4144 167.757C79.0144 163.937 85.3044 159.757 90.0744 154.937C92.3098 152.688 94.2093 150.128 95.7144 147.337C96.0544 146.67 96.3644 146.003 96.6444 145.337C96.9144 144.687 97.1644 144.027 97.4144 143.337C97.9044 141.897 98.3544 140.337 98.7644 138.677C99.5744 135.387 100.204 131.837 100.764 128.217C101.324 124.597 101.824 120.887 102.334 117.147L103.814 105.807C104.314 101.997 104.814 98.1568 105.414 94.2968C107.774 78.8968 110.774 63.1868 116.414 47.5468C119.255 39.4177 123.048 31.6536 127.714 24.4167C128.984 22.5568 130.304 20.7167 131.774 18.9167C133.247 17.0731 134.844 15.3324 136.554 13.7068C138.317 12.0055 140.209 10.4441 142.214 9.03677C143.238 8.31348 144.299 7.64584 145.394 7.03677L147.074 6.13675C147.614 5.85675 148.074 5.65674 148.604 5.41675C152.664 3.53165 156.915 2.08997 161.284 1.11676C165.73 0.134186 170.293 -0.202606 174.834 0.11676C179.35 0.438599 183.776 1.54163 187.914 3.37677C189.936 4.27435 191.871 5.35553 193.694 6.60675C195.47 7.82062 197.142 9.17853 198.694 10.6667C204.567 16.5184 208.899 23.7331 211.304 31.6668C213.673 39.261 214.913 47.162 214.984 55.1168V55.1968Z" fill="#F9F9F9"/>
</svg>
