<svg width="396" height="387" viewBox="0 0 396 387" fill="none" xmlns="http://www.w3.org/2000/svg">
<path d="M334.367 282.99L339.877 284L341.107 289.81L342.337 284L347.847 282.98L342.357 281.64L341.107 276.16L339.847 281.64L334.367 282.99Z" fill="#C7C7C7"/>
<path d="M107.074 251.63L112.584 252.65L113.814 258.46L115.044 252.65L120.554 251.63L115.074 250.29L113.814 244.81L112.564 250.29L107.074 251.63Z" fill="#C7C7C7"/>
<path d="M278.094 189.56L283.604 190.58L284.834 196.38L286.064 190.58L291.574 189.56L286.094 188.21L284.834 182.73L283.584 188.21L278.094 189.56Z" fill="#C7C7C7"/>
<path d="M386.727 248.8L389.807 249.37L390.497 252.62L391.187 249.37L394.257 248.8L391.197 248.05L390.497 244.99L389.797 248.05L386.727 248.8Z" fill="#C7C7C7"/>
<path d="M153.086 372.3L156.156 372.87L156.846 376.12L157.536 372.87L160.616 372.3L157.546 371.55L156.846 368.49L156.146 371.55L153.086 372.3Z" fill="#C7C7C7"/>
<path d="M379.195 102.71L382.275 103.28L382.965 106.52L383.645 103.28L386.725 102.7L383.665 101.96L382.965 98.89L382.255 101.96L379.195 102.71Z" fill="#C7C7C7"/>
<path d="M16.0039 172.52L19.0839 173.09L19.7739 176.33L20.4539 173.09L23.5339 172.52L20.4739 171.77L19.7739 168.7L19.0739 171.77L16.0039 172.52Z" fill="#C7C7C7"/>
<path d="M32.5234 337.71L35.6034 338.28L36.2934 341.52L36.9734 338.28L40.0534 337.71L36.9934 336.96L36.2934 333.89L35.5834 336.96L32.5234 337.71Z" fill="#C7C7C7"/>
<path d="M367.316 184.92L370.396 185.49L371.076 188.73L371.766 185.49L374.846 184.92L371.786 184.17L371.076 181.1L370.376 184.17L367.316 184.92Z" fill="#C7C7C7"/>
<path d="M237.445 289.81L240.525 290.38L241.215 293.63L241.905 290.38L244.985 289.81L241.915 289.06L241.215 286L240.515 289.06L237.445 289.81Z" fill="#C7C7C7"/>
<path d="M125.406 29.19L128.486 29.76L129.176 33L129.866 29.76L132.936 29.19L129.876 28.44L129.176 25.37L128.476 28.44L125.406 29.19Z" fill="#C7C7C7"/>
<path d="M245.934 278.02L249.014 278.59L249.704 281.84L250.394 278.59L253.474 278.02L250.404 277.27L249.704 274.2L249.004 277.27L245.934 278.02Z" fill="#C7C7C7"/>
<path d="M145.794 379.32C146.015 379.343 146.219 379.448 146.368 379.613C146.517 379.778 146.599 379.993 146.599 380.215C146.599 380.437 146.517 380.652 146.368 380.817C146.219 380.982 146.015 381.087 145.794 381.11C145.572 381.087 145.368 380.982 145.219 380.817C145.071 380.652 144.988 380.437 144.988 380.215C144.988 379.993 145.071 379.778 145.219 379.613C145.368 379.448 145.572 379.343 145.794 379.32Z" fill="#C7C7C7"/>
<path d="M305.004 211.93C305.226 211.953 305.43 212.058 305.579 212.223C305.727 212.388 305.81 212.603 305.81 212.825C305.81 213.047 305.727 213.262 305.579 213.427C305.43 213.592 305.226 213.697 305.004 213.72C304.783 213.697 304.579 213.592 304.43 213.427C304.281 213.262 304.199 213.047 304.199 212.825C304.199 212.603 304.281 212.388 304.43 212.223C304.579 212.058 304.783 211.953 305.004 211.93Z" fill="#C7C7C7"/>
<path d="M228.855 287.12C229.091 287.12 229.317 287.214 229.484 287.381C229.651 287.548 229.745 287.774 229.745 288.01C229.745 288.246 229.651 288.472 229.484 288.639C229.317 288.806 229.091 288.9 228.855 288.9C228.619 288.9 228.392 288.806 228.226 288.639C228.059 288.472 227.965 288.246 227.965 288.01C227.965 287.774 228.059 287.548 228.226 287.381C228.392 287.214 228.619 287.12 228.855 287.12Z" fill="#C7C7C7"/>
<path d="M96.4837 372.63C96.7198 372.63 96.9462 372.724 97.1131 372.891C97.28 373.058 97.3737 373.284 97.3737 373.52C97.3737 373.756 97.28 373.982 97.1131 374.149C96.9462 374.316 96.7198 374.41 96.4837 374.41C96.2477 374.41 96.0213 374.316 95.8544 374.149C95.6875 373.982 95.5938 373.756 95.5938 373.52C95.5938 373.284 95.6875 373.058 95.8544 372.891C96.0213 372.724 96.2477 372.63 96.4837 372.63Z" fill="#C7C7C7"/>
<path d="M394.426 384.45C394.647 384.473 394.852 384.578 395.001 384.743C395.149 384.908 395.232 385.123 395.232 385.345C395.232 385.567 395.149 385.782 395.001 385.947C394.852 386.112 394.647 386.217 394.426 386.24C394.205 386.217 394.001 386.112 393.852 385.947C393.703 385.782 393.621 385.567 393.621 385.345C393.621 385.123 393.703 384.908 393.852 384.743C394.001 384.578 394.205 384.473 394.426 384.45Z" fill="#C7C7C7"/>
<path d="M347.476 223.63C347.712 223.63 347.938 223.724 348.105 223.891C348.272 224.058 348.366 224.284 348.366 224.52C348.366 224.756 348.272 224.982 348.105 225.149C347.938 225.316 347.712 225.41 347.476 225.41C347.24 225.41 347.014 225.316 346.847 225.149C346.68 224.982 346.586 224.756 346.586 224.52C346.586 224.284 346.68 224.058 346.847 223.891C347.014 223.724 347.24 223.63 347.476 223.63Z" fill="#C7C7C7"/>
<path d="M168.153 363.27C168.321 363.27 168.481 363.336 168.599 363.455C168.717 363.573 168.783 363.733 168.783 363.9C168.783 364.067 168.717 364.227 168.599 364.345C168.481 364.464 168.321 364.53 168.153 364.53C167.986 364.53 167.826 364.464 167.708 364.345C167.59 364.227 167.523 364.067 167.523 363.9C167.523 363.733 167.59 363.573 167.708 363.455C167.826 363.336 167.986 363.27 168.153 363.27Z" fill="#C7C7C7"/>
<path d="M42.0758 35.44C42.2305 35.4595 42.3728 35.5347 42.4759 35.6516C42.579 35.7685 42.6359 35.9191 42.6359 36.075C42.6359 36.2309 42.579 36.3815 42.4759 36.4984C42.3728 36.6153 42.2305 36.6905 42.0758 36.71C41.9211 36.6905 41.7788 36.6153 41.6757 36.4984C41.5725 36.3815 41.5156 36.2309 41.5156 36.075C41.5156 35.9191 41.5725 35.7685 41.6757 35.6516C41.7788 35.5347 41.9211 35.4595 42.0758 35.44Z" fill="#C7C7C7"/>
<path d="M285.614 238.37C285.781 238.37 285.942 238.436 286.06 238.555C286.178 238.673 286.244 238.833 286.244 239C286.244 239.167 286.178 239.327 286.06 239.445C285.942 239.564 285.781 239.63 285.614 239.63C285.447 239.63 285.287 239.564 285.169 239.445C285.051 239.327 284.984 239.167 284.984 239C284.984 238.833 285.051 238.673 285.169 238.555C285.287 238.436 285.447 238.37 285.614 238.37Z" fill="#C7C7C7"/>
<path d="M255.075 293C255.242 293 255.403 293.066 255.521 293.185C255.639 293.303 255.705 293.463 255.705 293.63C255.705 293.797 255.639 293.957 255.521 294.075C255.403 294.194 255.242 294.26 255.075 294.26C254.908 294.26 254.748 294.194 254.63 294.075C254.512 293.957 254.445 293.797 254.445 293.63C254.445 293.463 254.512 293.303 254.63 293.185C254.748 293.066 254.908 293 255.075 293Z" fill="#C7C7C7"/>
<path d="M205.127 282.35C205.281 282.369 205.424 282.445 205.527 282.562C205.63 282.679 205.687 282.829 205.687 282.985C205.687 283.141 205.63 283.291 205.527 283.408C205.424 283.525 205.281 283.601 205.127 283.62C204.972 283.601 204.83 283.525 204.726 283.408C204.623 283.291 204.566 283.141 204.566 282.985C204.566 282.829 204.623 282.679 204.726 282.562C204.83 282.445 204.972 282.369 205.127 282.35Z" fill="#C7C7C7"/>
<path d="M264.175 226.9C264.628 226.9 265.063 227.08 265.384 227.401C265.705 227.722 265.885 228.156 265.885 228.61C265.885 229.064 265.705 229.498 265.384 229.819C265.063 230.14 264.628 230.32 264.175 230.32C263.721 230.32 263.286 230.14 262.966 229.819C262.645 229.498 262.465 229.064 262.465 228.61C262.465 228.156 262.645 227.722 262.966 227.401C263.286 227.08 263.721 226.9 264.175 226.9Z" fill="#C7C7C7"/>
<path d="M176.605 54.09L182.115 55.11L183.345 60.91L184.575 55.11L190.085 54.09L184.595 52.75L183.345 47.26L182.085 52.75L176.605 54.09Z" fill="#C7C7C7"/>
<path d="M197.594 3.82L200.674 4.39L201.364 7.63L202.054 4.39L205.124 3.82L202.064 3.07L201.364 0L200.664 3.07L197.594 3.82Z" fill="#C7C7C7"/>
<path d="M10.9564 87.12C11.1924 87.12 11.4188 87.2138 11.5857 87.3807C11.7526 87.5476 11.8464 87.774 11.8464 88.01C11.8464 88.246 11.7526 88.4724 11.5857 88.6393C11.4188 88.8062 11.1924 88.9 10.9564 88.9C10.7204 88.9 10.494 88.8062 10.3271 88.6393C10.1602 88.4724 10.0664 88.246 10.0664 88.01C10.0664 87.774 10.1602 87.5476 10.3271 87.3807C10.494 87.2138 10.7204 87.12 10.9564 87.12Z" fill="#C7C7C7"/>
<path d="M24.9771 323.82C25.1982 323.843 25.4028 323.948 25.5515 324.113C25.7001 324.278 25.7824 324.493 25.7824 324.715C25.7824 324.937 25.7001 325.152 25.5515 325.317C25.4028 325.482 25.1982 325.587 24.9771 325.61C24.7561 325.587 24.5515 325.482 24.4028 325.317C24.2541 325.152 24.1719 324.937 24.1719 324.715C24.1719 324.493 24.2541 324.278 24.4028 324.113C24.5515 323.948 24.7561 323.843 24.9771 323.82Z" fill="#C7C7C7"/>
<path d="M0.805264 368.12C1.02632 368.143 1.2309 368.248 1.37958 368.413C1.52826 368.578 1.61053 368.793 1.61053 369.015C1.61053 369.237 1.52826 369.452 1.37958 369.617C1.2309 369.782 1.02632 369.887 0.805264 369.91C0.584206 369.887 0.379631 369.782 0.230949 369.617C0.0822678 369.452 0 369.237 0 369.015C0 368.793 0.0822678 368.578 0.230949 368.413C0.379631 368.248 0.584206 368.143 0.805264 368.12Z" fill="#C7C7C7"/>
<path d="M46.5162 161.94C46.7373 161.963 46.9418 162.068 47.0905 162.233C47.2392 162.398 47.3215 162.613 47.3215 162.835C47.3215 163.057 47.2392 163.272 47.0905 163.437C46.9418 163.602 46.7373 163.707 46.5162 163.73C46.2951 163.707 46.0906 163.602 45.9419 163.437C45.7932 163.272 45.7109 163.057 45.7109 162.835C45.7109 162.613 45.7932 162.398 45.9419 162.233C46.0906 162.068 46.2951 161.963 46.5162 161.94Z" fill="#C7C7C7"/>
<path d="M0.805264 7.89001C1.02632 7.91341 1.2309 8.01779 1.37958 8.18304C1.52826 8.34829 1.61053 8.56273 1.61053 8.78502C1.61053 9.00731 1.52826 9.22174 1.37958 9.38699C1.2309 9.55224 1.02632 9.65662 0.805264 9.68002C0.584206 9.65662 0.379631 9.55224 0.230949 9.38699C0.0822678 9.22174 0 9.00731 0 8.78502C0 8.56273 0.0822678 8.34829 0.230949 8.18304C0.379631 8.01779 0.584206 7.91341 0.805264 7.89001Z" fill="#C7C7C7"/>
<path d="M81.8258 281.27C81.9805 281.289 82.1228 281.365 82.2259 281.482C82.329 281.599 82.3859 281.749 82.3859 281.905C82.3859 282.061 82.329 282.211 82.2259 282.328C82.1228 282.445 81.9805 282.521 81.8258 282.54C81.6711 282.521 81.5288 282.445 81.4257 282.328C81.3225 282.211 81.2656 282.061 81.2656 281.905C81.2656 281.749 81.3225 281.599 81.4257 281.482C81.5288 281.365 81.6711 281.289 81.8258 281.27Z" fill="#C7C7C7"/>
<path d="M215.005 362.2C215.172 362.2 215.332 362.266 215.45 362.384C215.569 362.503 215.635 362.663 215.635 362.83C215.635 362.997 215.569 363.157 215.45 363.275C215.332 363.394 215.172 363.46 215.005 363.46C214.838 363.46 214.678 363.394 214.56 363.275C214.441 363.157 214.375 362.997 214.375 362.83C214.375 362.663 214.441 362.503 214.56 362.384C214.678 362.266 214.838 362.2 215.005 362.2Z" fill="#C7C7C7"/>
<path d="M308.763 73.35C308.918 73.3694 309.06 73.4447 309.163 73.5616C309.267 73.6785 309.323 73.8291 309.323 73.985C309.323 74.1409 309.267 74.2914 309.163 74.4084C309.06 74.5253 308.918 74.6005 308.763 74.62C308.609 74.6005 308.466 74.5253 308.363 74.4084C308.26 74.2914 308.203 74.1409 308.203 73.985C308.203 73.8291 308.26 73.6785 308.363 73.5616C308.466 73.4447 308.609 73.3694 308.763 73.35Z" fill="#C7C7C7"/>
<path d="M194.716 34.69C194.883 34.69 195.043 34.7564 195.161 34.8745C195.28 34.9927 195.346 35.1529 195.346 35.32C195.346 35.4871 195.28 35.6473 195.161 35.7655C195.043 35.8836 194.883 35.95 194.716 35.95C194.549 35.95 194.389 35.8836 194.27 35.7655C194.152 35.6473 194.086 35.4871 194.086 35.32C194.086 35.1529 194.152 34.9927 194.27 34.8745C194.389 34.7564 194.549 34.69 194.716 34.69Z" fill="#C7C7C7"/>
<path d="M156.847 258.84C157.3 258.84 157.735 259.02 158.056 259.341C158.377 259.662 158.557 260.096 158.557 260.55C158.557 261.003 158.377 261.438 158.056 261.759C157.735 262.08 157.3 262.26 156.847 262.26C156.393 262.26 155.958 262.08 155.638 261.759C155.317 261.438 155.137 261.003 155.137 260.55C155.137 260.096 155.317 259.662 155.638 259.341C155.958 259.02 156.393 258.84 156.847 258.84Z" fill="#C7C7C7"/>
<path d="M382.206 129.57C382.638 129.603 383.042 129.798 383.337 130.116C383.631 130.434 383.795 130.852 383.795 131.285C383.795 131.718 383.631 132.136 383.337 132.454C383.042 132.772 382.638 132.967 382.206 133C381.774 132.967 381.37 132.772 381.075 132.454C380.781 132.136 380.617 131.718 380.617 131.285C380.617 130.852 380.781 130.434 381.075 130.116C381.37 129.798 381.774 129.603 382.206 129.57Z" fill="#C7C7C7"/>
<path d="M32.085 279.56C32.5385 279.56 32.9735 279.74 33.2942 280.061C33.6148 280.382 33.795 280.816 33.795 281.27C33.795 281.724 33.6148 282.158 33.2942 282.479C32.9735 282.8 32.5385 282.98 32.085 282.98C31.6315 282.98 31.1965 282.8 30.8758 282.479C30.5552 282.158 30.375 281.724 30.375 281.27C30.375 280.816 30.5552 280.382 30.8758 280.061C31.1965 279.74 31.6315 279.56 32.085 279.56Z" fill="#C7C7C7"/>
<path d="M175.805 213.72L178.885 214.29L179.575 217.53L180.265 214.29L183.345 213.72L180.275 212.97L179.575 209.9L178.875 212.97L175.805 213.72Z" fill="#C7C7C7"/>
<path d="M241.215 368.99L244.295 369.56L244.985 372.8L245.665 369.56L248.745 368.98L245.685 368.24L244.985 365.17L244.275 368.24L241.215 368.99Z" fill="#C7C7C7"/>
<path d="M254.856 329C255.077 329.023 255.282 329.128 255.43 329.293C255.579 329.458 255.661 329.673 255.661 329.895C255.661 330.117 255.579 330.332 255.43 330.497C255.282 330.662 255.077 330.767 254.856 330.79C254.635 330.767 254.43 330.662 254.282 330.497C254.133 330.332 254.051 330.117 254.051 329.895C254.051 329.673 254.133 329.458 254.282 329.293C254.43 329.128 254.635 329.023 254.856 329Z" fill="#C7C7C7"/>
<path d="M289.614 305.26C289.835 305.283 290.039 305.388 290.188 305.553C290.337 305.718 290.419 305.933 290.419 306.155C290.419 306.377 290.337 306.592 290.188 306.757C290.039 306.922 289.835 307.027 289.614 307.05C289.393 307.027 289.188 306.922 289.04 306.757C288.891 306.592 288.809 306.377 288.809 306.155C288.809 305.933 288.891 305.718 289.04 305.553C289.188 305.388 289.393 305.283 289.614 305.26Z" fill="#C7C7C7"/>
<path d="M179.574 346.25L182.654 346.82L183.344 350.07L184.034 346.82L187.114 346.25L184.044 345.5L183.344 342.43L182.644 345.5L179.574 346.25Z" fill="#C7C7C7"/>
<path d="M306.317 58.8C306.538 58.8234 306.743 58.9278 306.891 59.093C307.04 59.2583 307.122 59.4727 307.122 59.695C307.122 59.9173 307.04 60.1317 306.891 60.297C306.743 60.4622 306.538 60.5666 306.317 60.59C306.096 60.5666 305.891 60.4622 305.743 60.297C305.594 60.1317 305.512 59.9173 305.512 59.695C305.512 59.4727 305.594 59.2583 305.743 59.093C305.891 58.9278 306.096 58.8234 306.317 58.8Z" fill="#C7C7C7"/>
<path d="M327.786 308.12C327.953 308.12 328.114 308.186 328.232 308.305C328.35 308.423 328.416 308.583 328.416 308.75C328.416 308.917 328.35 309.077 328.232 309.195C328.114 309.314 327.953 309.38 327.786 309.38C327.619 309.38 327.459 309.314 327.341 309.195C327.223 309.077 327.156 308.917 327.156 308.75C327.156 308.583 327.223 308.423 327.341 308.305C327.459 308.186 327.619 308.12 327.786 308.12Z" fill="#C7C7C7"/>
<path d="M59.1367 200.74L62.2167 201.31L62.8967 204.55L63.5867 201.31L66.6667 200.74L63.6067 199.99L62.8967 196.92L62.1967 199.99L59.1367 200.74Z" fill="#C7C7C7"/>
<path d="M23.5345 249.85C23.7706 249.85 23.9969 249.944 24.1639 250.111C24.3308 250.278 24.4245 250.504 24.4245 250.74C24.4245 250.976 24.3308 251.202 24.1639 251.369C23.9969 251.536 23.7706 251.63 23.5345 251.63C23.2985 251.63 23.0721 251.536 22.9052 251.369C22.7383 251.202 22.6445 250.976 22.6445 250.74C22.6445 250.504 22.7383 250.278 22.9052 250.111C23.0721 249.944 23.2985 249.85 23.5345 249.85Z" fill="#C7C7C7"/>
<path d="M146.617 184.12C146.853 184.12 147.079 184.214 147.246 184.381C147.413 184.548 147.507 184.774 147.507 185.01C147.507 185.246 147.413 185.472 147.246 185.639C147.079 185.806 146.853 185.9 146.617 185.9C146.381 185.9 146.154 185.806 145.987 185.639C145.82 185.472 145.727 185.246 145.727 185.01C145.727 184.774 145.82 184.548 145.987 184.381C146.154 184.214 146.381 184.12 146.617 184.12Z" fill="#C7C7C7"/>
<path d="M42.0758 93.95C42.2305 93.9695 42.3728 94.0447 42.4759 94.1616C42.579 94.2786 42.6359 94.4291 42.6359 94.585C42.6359 94.7409 42.579 94.8915 42.4759 95.0084C42.3728 95.1253 42.2305 95.2006 42.0758 95.22C41.9211 95.2006 41.7788 95.1253 41.6757 95.0084C41.5725 94.8915 41.5156 94.7409 41.5156 94.585C41.5156 94.4291 41.5725 94.2786 41.6757 94.1616C41.7788 94.0447 41.9211 93.9695 42.0758 93.95Z" fill="#C7C7C7"/>
<path d="M33.9834 88.12C34.437 88.12 34.8719 88.3002 35.1926 88.6208C35.5133 88.9415 35.6934 89.3765 35.6934 89.83C35.6934 90.2835 35.5133 90.7185 35.1926 91.0392C34.8719 91.3598 34.437 91.54 33.9834 91.54C33.5299 91.54 33.095 91.3598 32.7743 91.0392C32.4536 90.7185 32.2734 90.2835 32.2734 89.83C32.2734 89.3765 32.4536 88.9415 32.7743 88.6208C33.095 88.3002 33.5299 88.12 33.9834 88.12Z" fill="#C7C7C7"/>
<path d="M383.855 12.61C384.308 12.61 384.743 12.7901 385.064 13.1108C385.384 13.4315 385.565 13.8665 385.565 14.32C385.565 14.7735 385.384 15.2084 385.064 15.5291C384.743 15.8498 384.308 16.03 383.855 16.03C383.401 16.03 382.966 15.8498 382.645 15.5291C382.325 15.2084 382.145 14.7735 382.145 14.32C382.145 13.8665 382.325 13.4315 382.645 13.1108C382.966 12.7901 383.401 12.61 383.855 12.61Z" fill="#C7C7C7"/>
</svg>
