<svg width="445" height="327" viewBox="0 0 445 327" fill="none" xmlns="http://www.w3.org/2000/svg">
<path d="M440.589 91.38L441.139 92.38C441.759 93.5103 442.689 94.4401 443.819 95.06L444.819 95.61L443.819 96.17C442.689 96.79 441.759 97.7197 441.139 98.85L440.589 99.85L440.039 98.85C439.419 97.7197 438.49 96.79 437.359 96.17L436.359 95.61L437.359 95.06C438.49 94.4401 439.419 93.5103 440.039 92.38L440.589 91.38Z" fill="#C6C6C6"/>
<path d="M4.23001 240.97L4.79001 241.97C5.40724 243.102 6.33769 244.033 7.47 244.65L8.47 245.2L7.47 245.76C6.33769 246.377 5.40724 247.308 4.79001 248.44L4.23001 249.44L3.68001 248.44C3.06006 247.31 2.13027 246.38 1 245.76L0 245.2L1 244.65C2.13027 244.03 3.06006 243.1 3.68001 241.97L4.23001 240.97Z" fill="#C6C6C6"/>
<path d="M123.87 238.61L124.15 239.11C124.46 239.675 124.925 240.14 125.49 240.45L126 240.73L125.49 241C124.924 241.314 124.46 241.782 124.15 242.35L123.87 242.85L123.6 242.35C123.29 241.782 122.826 241.314 122.26 241L121.75 240.73L122.26 240.45C122.825 240.14 123.29 239.675 123.6 239.11L123.87 238.61Z" fill="#C6C6C6"/>
<path d="M399.171 236.73L399.451 237.24C399.761 237.805 400.226 238.27 400.791 238.58L401.291 238.85L400.791 239.13C400.223 239.437 399.758 239.903 399.451 240.47L399.171 240.97L398.901 240.47C398.591 239.905 398.126 239.44 397.561 239.13L397.051 238.85L397.561 238.58C398.124 238.267 398.588 237.803 398.901 237.24L399.171 236.73Z" fill="#C6C6C6"/>
<path d="M271.048 86.21L271.318 86.71C271.629 87.275 272.093 87.7398 272.658 88.05L273.168 88.33L272.658 88.6C272.095 88.9129 271.631 89.377 271.318 89.94L271.048 90.45L270.768 89.94C270.45 89.3743 269.979 88.9099 269.408 88.6L268.898 88.33L269.408 88.1C269.973 87.7898 270.438 87.325 270.748 86.76L271.048 86.21Z" fill="#C6C6C6"/>
<path d="M122.261 67.03L122.531 67.53C122.84 68.098 123.305 68.5662 123.871 68.88L124.381 69.15L123.871 69.43C123.306 69.7402 122.841 70.205 122.531 70.77L122.261 71.27L121.981 70.77C121.674 70.2026 121.208 69.737 120.641 69.43L120.141 69.15L120.641 68.88C121.208 68.5689 121.674 68.1 121.981 67.53L122.261 67.03Z" fill="#C6C6C6"/>
<path d="M223.952 0L224.952 1.74C226.021 3.69422 227.628 5.30103 229.582 6.37L231.322 7.37L229.582 8.37C227.628 9.43896 226.021 11.0458 224.952 13L223.952 14.74L222.952 13C221.923 11.0212 220.347 9.37955 218.412 8.27L216.672 7.27L218.412 6.27C220.366 5.20103 221.973 3.59423 223.042 1.64L223.952 0Z" fill="#C6C6C6"/>
<path d="M120.679 311.52L121.629 313.26C122.695 315.216 124.302 316.824 126.259 317.89L127.999 318.89L126.259 319.84C124.304 320.909 122.698 322.516 121.629 324.47L120.679 326.21L119.679 324.47C118.61 322.516 117.003 320.909 115.049 319.84L113.309 318.89L115.049 317.89C117.005 316.824 118.612 315.216 119.679 313.26L120.679 311.52Z" fill="#C6C6C6"/>
</svg>
