<svg width="137" height="140" viewBox="0 0 137 140" fill="none" xmlns="http://www.w3.org/2000/svg">
<g opacity="0.6">
<path d="M20.2576 33.8079L27.9576 26.1079C28.4849 25.5837 28.9034 24.9605 29.1889 24.274C29.4745 23.5875 29.6215 22.8514 29.6215 22.1079C29.6215 21.3644 29.4745 20.6282 29.1889 19.9417C28.9034 19.2553 28.4849 18.632 27.9576 18.1079C27.4328 17.5818 26.8093 17.1644 26.123 16.8796C25.4366 16.5948 24.7007 16.4482 23.9576 16.4482C23.2145 16.4482 22.4787 16.5948 21.7923 16.8796C21.1059 17.1644 20.4825 17.5818 19.9576 18.1079L12.2576 25.8079C11.7303 26.332 11.3119 26.9553 11.0263 27.6418C10.7408 28.3282 10.5938 29.0644 10.5938 29.8079C10.5938 30.5514 10.7408 31.2875 11.0263 31.974C11.3119 32.6605 11.7303 33.2837 12.2576 33.8079C12.7825 34.334 13.4059 34.7514 14.0923 35.0362C14.7787 35.321 15.5145 35.4676 16.2576 35.4676C17.0007 35.4676 17.7366 35.321 18.4229 35.0362C19.1093 34.7514 19.7328 34.334 20.2576 33.8079Z" fill="#EBEBEB"/>
<path d="M125.439 110.138L130.329 100.408C131.001 99.0697 131.113 97.5198 130.643 96.0986C130.172 94.6773 129.157 93.501 127.819 92.8279C127.157 92.4942 126.435 92.2944 125.696 92.2399C124.956 92.1855 124.213 92.2775 123.509 92.5106C122.805 92.7438 122.153 93.1135 121.592 93.5986C121.031 94.0838 120.572 94.6748 120.239 95.3379L115.349 105.068C115.016 105.73 114.816 106.452 114.761 107.192C114.707 107.931 114.799 108.674 115.032 109.379C115.265 110.083 115.635 110.734 116.12 111.295C116.605 111.856 117.196 112.316 117.859 112.648C118.522 112.982 119.243 113.181 119.983 113.236C120.723 113.29 121.466 113.198 122.17 112.965C122.874 112.732 123.525 112.362 124.086 111.877C124.647 111.392 125.107 110.801 125.439 110.138Z" fill="#EBEBEB"/>
<path d="M58.0182 12.0679L63.8082 11.2379C65.2904 11.0249 66.6274 10.2323 67.5256 9.03414C68.4237 7.83598 68.8095 6.33029 68.5982 4.84786C68.494 4.11339 68.2459 3.4067 67.8682 2.76824C67.4905 2.12978 66.9905 1.57211 66.397 1.12716C65.8034 0.682211 65.1279 0.358707 64.4091 0.175224C63.6903 -0.00826028 62.9424 -0.0481166 62.2082 0.0578835L56.4182 0.88787C55.6837 0.992058 54.977 1.24013 54.3385 1.61785C53.7001 1.99557 53.1424 2.49553 52.6975 3.0891C52.2525 3.68268 51.929 4.35818 51.7456 5.07696C51.5621 5.79573 51.5222 6.54367 51.6282 7.27788C51.8411 8.76009 52.6337 10.0971 53.8319 10.9953C55.0301 11.8934 56.5358 12.2792 58.0182 12.0679Z" fill="#EBEBEB"/>
<path d="M12.058 88.4779L11.228 82.6879C11.1238 81.9534 10.8757 81.2467 10.498 80.6083C10.1203 79.9698 9.62034 79.4121 9.02676 78.9672C8.43319 78.5222 7.75767 78.1988 7.03889 78.0153C6.32012 77.8318 5.5722 77.7919 4.83799 77.8979C4.10482 78.0021 3.39941 78.2499 2.76216 78.6271C2.1249 79.0043 1.56833 79.5035 1.12431 80.0962C0.680285 80.6888 0.357544 81.3632 0.174568 82.0808C-0.00840738 82.7984 -0.0480227 83.545 0.0579911 84.2779L0.877991 90.0779C1.09342 91.5589 1.88667 92.8943 3.08418 93.792C4.28169 94.6897 5.78599 95.0765 7.26799 94.8679C8.75019 94.655 10.0872 93.8623 10.9854 92.6642C11.8835 91.466 12.2693 89.9603 12.058 88.4779Z" fill="#EBEBEB"/>
<path d="M136.238 79.7579V66.9379C136.238 65.745 135.271 64.7779 134.078 64.7779H127.108C125.915 64.7779 124.948 65.745 124.948 66.9379V79.7579C124.948 80.9508 125.915 81.9179 127.108 81.9179H134.078C135.271 81.9179 136.238 80.9508 136.238 79.7579Z" fill="#EBEBEB"/>
<path d="M47.537 137.558L53.187 139.068C53.9034 139.26 54.6505 139.308 55.3857 139.211C56.121 139.114 56.8298 138.873 57.4716 138.501C58.1134 138.13 58.6757 137.635 59.1262 137.046C59.5767 136.457 59.9066 135.785 60.097 135.068C60.289 134.351 60.3378 133.603 60.2406 132.867C60.1435 132.131 59.9023 131.422 59.5308 130.779C59.1594 130.136 58.6649 129.573 58.0757 129.122C57.4865 128.67 56.8141 128.339 56.097 128.148L50.447 126.638C49.73 126.446 48.9821 126.397 48.2462 126.494C47.5104 126.591 46.8008 126.833 46.1582 127.204C45.5155 127.576 44.9524 128.07 44.5009 128.659C44.0494 129.248 43.7185 129.921 43.527 130.638C43.1451 132.087 43.3526 133.629 44.104 134.925C44.8555 136.222 46.0897 137.169 47.537 137.558Z" fill="#EBEBEB"/>
<path d="M67.097 136.038C103.073 136.038 132.237 106.874 132.237 70.8979C132.237 34.9221 103.073 5.75787 67.097 5.75787C31.1212 5.75787 1.95703 34.9221 1.95703 70.8979C1.95703 106.874 31.1212 136.038 67.097 136.038Z" fill="#EBEBEB"/>
<path d="M90.797 32.2579C90.961 35.3866 90.1162 38.4853 88.387 41.0979C86.6407 43.79 84.1928 45.9544 81.307 47.3579C78.3396 48.8476 74.9126 49.1376 71.737 48.1679C68.728 47.214 66.1508 45.2315 64.457 42.5679C66.7727 44.2821 69.4403 45.4605 72.267 46.0179C73.59 46.253 74.9441 46.253 76.267 46.0179C77.5869 45.8142 78.8661 45.4024 80.057 44.7979C80.667 44.4979 81.287 44.1679 81.887 43.7979C82.487 43.4279 83.047 43.0479 83.577 42.6079C84.6778 41.7737 85.6838 40.8213 86.577 39.7679C88.4584 37.5626 89.8918 35.0117 90.797 32.2579Z" fill="#C7C7C7"/>
<path d="M67.3788 36.0079C67.0898 33.8361 67.571 31.6317 68.7388 29.7779C69.9095 27.8512 71.6108 26.3028 73.6388 25.3179C74.684 24.7923 75.8229 24.4784 76.9899 24.3943C78.1568 24.3102 79.3289 24.4576 80.4388 24.8279C82.5346 25.5403 84.2775 27.0292 85.3087 28.9879C83.6596 27.9689 81.8238 27.2889 79.9088 26.9879C78.1908 26.7849 76.4512 27.0946 74.9088 27.8779C71.4798 29.5635 68.7971 32.46 67.3788 36.0079Z" fill="#C7C7C7"/>
<path d="M45.3177 80.7479C46.1205 82.7303 46.1773 84.9367 45.4777 86.9579C44.7921 89.0574 43.4799 90.8966 41.7177 92.2279C40.8188 92.9296 39.7886 93.4442 38.6877 93.7413C37.5868 94.0384 36.4375 94.1121 35.3077 93.9579C33.1803 93.6643 31.2362 92.5961 29.8477 90.9579C31.6392 91.5494 33.5225 91.8136 35.4077 91.7379C37.0765 91.6172 38.6714 91.0009 39.9877 89.9679C41.3858 88.9116 42.5616 87.5897 43.4477 86.0779C44.3787 84.4246 45.0117 82.6204 45.3177 80.7479Z" fill="#C7C7C7"/>
<path d="M31.8283 88.1379C31.4688 87.4769 31.2448 86.7508 31.1692 86.0022C31.0937 85.2536 31.1682 84.4974 31.3883 83.7779C31.8224 82.256 32.7425 80.9178 34.0083 79.9678C34.6569 79.4554 35.4063 79.0854 36.2075 78.8821C37.0087 78.6787 37.8438 78.6466 38.6583 78.7879C39.4054 78.9166 40.1185 79.1957 40.7545 79.6083C41.3905 80.0208 41.9361 80.5582 42.3583 81.1878C41.1071 80.9431 39.8264 80.8859 38.5583 81.0179C37.5258 81.1683 36.5504 81.5853 35.7283 82.2279C33.8158 83.7172 32.4455 85.7937 31.8283 88.1379Z" fill="#C7C7C7"/>
<path d="M21.9594 66.2479C22.5346 66.7858 22.9958 67.434 23.3153 68.1538C23.6349 68.8736 23.8063 69.6504 23.8194 70.4379C23.8342 71.2893 23.6781 72.1352 23.3603 72.9253C23.0425 73.7154 22.5696 74.4337 21.9694 75.0379C21.3529 75.6577 20.602 76.1272 19.7747 76.4099C18.9475 76.6926 18.0662 76.7809 17.1994 76.6679C15.6458 76.4942 14.2004 75.7874 13.1094 74.6679C14.4536 74.7192 15.7997 74.6421 17.1294 74.4379C18.1849 74.2809 19.1626 73.7903 19.9194 73.0379C20.6981 72.2479 21.2655 71.2747 21.5694 70.2079C21.9189 68.9188 22.0507 67.5804 21.9594 66.2479Z" fill="#C7C7C7"/>
<path d="M13.887 72.5779C13.4134 72.2551 13.0207 71.8272 12.7397 71.3276C12.4587 70.8281 12.2969 70.2703 12.267 69.6979C12.2264 69.0689 12.3204 68.4384 12.5429 67.8486C12.7653 67.2589 13.1111 66.7234 13.557 66.2779C14.0167 65.815 14.5812 65.4698 15.2026 65.2713C15.8241 65.0729 16.4842 65.0271 17.127 65.1379C17.6808 65.2209 18.2126 65.413 18.6915 65.7031C19.1704 65.9932 19.587 66.3755 19.917 66.8279C18.9929 66.9528 18.0778 67.1365 17.177 67.3779C16.5736 67.5295 16.0235 67.8444 15.587 68.2879C15.1195 68.7615 14.7492 69.322 14.497 69.9379C14.1693 70.7844 13.9639 71.6734 13.887 72.5779Z" fill="#C7C7C7"/>
<path d="M111.217 46.9579C111.292 47.7416 111.207 48.5325 110.966 49.2822C110.725 50.0318 110.334 50.7245 109.817 51.3179C109.263 51.9642 108.586 52.4935 107.826 52.8748C107.065 53.256 106.236 53.4814 105.387 53.5379C104.514 53.5913 103.641 53.4431 102.834 53.105C102.028 52.7669 101.31 52.2478 100.737 51.5879C99.6867 50.4344 99.0653 48.9551 98.9766 47.3979C99.965 48.328 101.04 49.1617 102.187 49.8879C103.078 50.4628 104.127 50.7458 105.187 50.6979C106.29 50.6279 107.359 50.2842 108.297 49.6979C109.413 48.9496 110.399 48.0241 111.217 46.9579Z" fill="#C7C7C7"/>
<path d="M100.978 46.3279C100.839 45.7712 100.831 45.19 100.954 44.6296C101.077 44.0693 101.328 43.545 101.688 43.0979C102.075 42.6023 102.564 42.1945 103.12 41.9014C103.677 41.6084 104.29 41.4368 104.918 41.3979C105.568 41.352 106.219 41.4655 106.815 41.7287C107.411 41.9919 107.934 42.3967 108.338 42.9078C108.704 43.3347 108.982 43.8307 109.154 44.3666C109.325 44.9025 109.388 45.4674 109.338 46.0279C108.565 45.4985 107.757 45.024 106.918 44.6079C106.367 44.32 105.747 44.1918 105.128 44.2379C104.464 44.2778 103.815 44.4476 103.218 44.7379C102.399 45.1589 101.645 45.6943 100.978 46.3279Z" fill="#C7C7C7"/>
<path d="M74.6964 91.2179C77.3006 92.3964 80.1962 92.775 83.0158 92.3055C85.8355 91.836 88.4522 90.5397 90.534 88.5809C92.6158 86.6222 94.069 84.0892 94.7093 81.3034C95.3495 78.5176 95.1479 75.6043 94.1301 72.9332C93.1122 70.2621 91.324 67.9535 88.9922 66.3001C86.6605 64.6468 83.8902 63.7232 81.0327 63.6466C78.1753 63.57 75.3595 64.3437 72.9424 65.8697C70.5254 67.3957 68.616 69.6052 67.4564 72.2179C65.9004 75.6979 65.7889 79.6533 67.1463 83.2155C68.5037 86.7777 71.2191 89.6558 74.6964 91.2179Z" fill="#DBDBDB"/>
<path d="M87.3175 71.2478C89.1921 72.085 90.8418 73.3542 92.1315 74.9515C93.4212 76.5489 94.3142 78.4289 94.7375 80.4379C95.1288 78.0556 94.9136 75.6131 94.1117 73.336C93.3099 71.0588 91.9473 69.0204 90.1496 67.4089C88.352 65.7974 86.1774 64.6647 83.8265 64.1155C81.4756 63.5663 79.0242 63.6183 76.6987 64.2666C74.3731 64.9149 72.2484 66.1386 70.5207 67.8248C68.793 69.5111 67.5179 71.6054 66.8132 73.9144C66.1086 76.2235 65.997 78.6729 66.4889 81.0365C66.9808 83.4 68.0602 85.6016 69.6275 87.4379C68.8155 85.0314 68.721 82.4408 69.3557 79.9816C69.9903 77.5225 71.3266 75.301 73.2017 73.5881C75.0769 71.8751 77.4098 70.7447 79.9162 70.3345C82.4226 69.9243 84.9942 70.2521 87.3175 71.2779V71.2478Z" fill="#C7C7C7"/>
<path d="M100.477 80.4579C100.551 84.2866 99.4405 88.0446 97.297 91.2179C95.1272 94.4672 92.1313 97.0801 88.617 98.7879C85.0253 100.602 80.878 100.981 77.017 99.8479C73.3308 98.7162 70.137 96.3685 67.957 93.1879C70.7584 95.4161 74.0428 96.9573 77.547 97.6879C78.3844 97.8272 79.2291 97.9174 80.077 97.9579C80.9147 97.9667 81.7514 97.8997 82.577 97.7579C84.2438 97.5067 85.8604 96.9937 87.367 96.2379C88.137 95.8479 88.907 95.4379 89.647 94.9979C90.387 94.5579 91.107 94.0679 91.767 93.5079C93.1471 92.4546 94.4019 91.2468 95.507 89.9079C97.7936 87.1316 99.4853 83.9151 100.477 80.4579Z" fill="#C7C7C7"/>
<path d="M116.247 85.9379C117.285 86.1856 118.374 86.1194 119.374 85.7477C120.375 85.376 121.243 84.7155 121.868 83.85C122.493 82.9845 122.846 81.9529 122.884 80.886C122.922 79.8192 122.642 78.7651 122.08 77.8575C121.518 76.9499 120.699 76.2296 119.727 75.788C118.756 75.3463 117.674 75.2032 116.621 75.3768C115.568 75.5504 114.59 76.0328 113.811 76.7629C113.032 77.493 112.488 78.438 112.247 79.4779C111.923 80.8649 112.162 82.3238 112.911 83.5348C113.661 84.7458 114.861 85.6099 116.247 85.9379Z" fill="#DBDBDB"/>
<path d="M119.449 77.7179C120.195 77.893 120.889 78.2414 121.474 78.7349C122.06 79.2283 122.521 79.8529 122.819 80.5579C122.794 79.6577 122.543 78.7783 122.088 78.001C121.633 77.2236 120.99 76.5734 120.218 76.1103C119.445 75.6473 118.569 75.3862 117.669 75.3514C116.769 75.3166 115.875 75.5091 115.069 75.9111C114.263 76.3131 113.571 76.9117 113.058 77.6515C112.545 78.3914 112.226 79.2487 112.131 80.1443C112.037 81.0399 112.169 81.9449 112.517 82.7757C112.864 83.6065 113.415 84.3364 114.119 84.8979C113.509 83.8356 113.326 82.5801 113.609 81.3879C113.898 80.1272 114.675 79.0325 115.77 78.3444C116.865 77.6562 118.188 77.4309 119.449 77.7179Z" fill="#C7C7C7"/>
<path d="M124.918 80.1379C125.293 81.5394 125.198 83.0254 124.648 84.3679C124.101 85.7491 123.18 86.9507 121.988 87.8379C120.769 88.7746 119.237 89.2078 117.708 89.0479C116.254 88.8801 114.909 88.1951 113.918 87.1179C115.123 87.6674 116.434 87.9472 117.758 87.9379C118.986 87.895 120.169 87.4645 121.138 86.7079C122.174 85.9198 123.042 84.9326 123.691 83.8044C124.34 82.6761 124.757 81.4296 124.918 80.1379Z" fill="#C7C7C7"/>
<path d="M79.296 120.798C80.8079 120.887 82.3122 120.525 83.6183 119.758C84.9243 118.991 85.9734 117.854 86.6325 116.49C87.2916 115.127 87.5311 113.598 87.3206 112.098C87.1102 110.598 86.4593 109.195 85.4504 108.065C84.4415 106.935 83.12 106.131 81.6533 105.753C80.1866 105.375 78.6408 105.441 77.2117 105.943C75.7826 106.444 74.5345 107.359 73.6256 108.57C72.7167 109.782 72.1878 111.236 72.106 112.748C72.0492 113.749 72.1902 114.751 72.5209 115.697C72.8515 116.643 73.3654 117.515 74.0331 118.263C74.7008 119.01 75.5093 119.619 76.4123 120.054C77.3153 120.489 78.2952 120.742 79.296 120.798Z" fill="#DBDBDB"/>
<path d="M81.7573 108.518C82.8448 108.575 83.9031 108.889 84.8454 109.435C85.7876 109.981 86.5869 110.743 87.1773 111.658C86.9223 110.402 86.3549 109.232 85.5275 108.254C84.7002 107.276 83.6397 106.522 82.4439 106.062C81.2482 105.603 79.9559 105.452 78.6865 105.624C77.417 105.796 76.2115 106.285 75.1812 107.047C74.151 107.808 73.3293 108.817 72.7921 109.98C72.2549 111.143 72.0197 112.422 72.108 113.7C72.1963 114.978 72.6054 116.213 73.2974 117.291C73.9895 118.369 74.9421 119.256 76.0673 119.868C74.9488 118.531 74.3835 116.818 74.4873 115.078C74.5334 114.17 74.7581 113.279 75.1485 112.458C75.5389 111.637 76.0874 110.9 76.7626 110.291C77.4378 109.682 78.2264 109.212 79.0835 108.907C79.9405 108.603 80.8491 108.471 81.7573 108.518Z" fill="#C7C7C7"/>
<path d="M90.0198 110.578C90.759 112.462 90.909 114.526 90.4499 116.498C89.9926 118.512 89.0091 120.368 87.5998 121.878C86.1659 123.445 84.1958 124.415 82.0798 124.598C80.0473 124.735 78.0273 124.189 76.3398 123.048C78.1446 123.639 80.0639 123.793 81.9398 123.498C83.7204 123.159 85.3422 122.25 86.5598 120.908C87.8268 119.56 88.7916 117.958 89.3898 116.208C89.9884 114.395 90.2029 112.478 90.0198 110.578Z" fill="#C7C7C7"/>
<path d="M45.2188 47.0079C41.7688 52.2779 34.1488 53.3979 28.2188 49.5079C22.2888 45.6179 20.2188 38.1879 23.6788 32.9179C27.1388 27.6479 34.7388 26.5279 40.6788 30.4179C46.6188 34.3079 48.6588 41.7379 45.2188 47.0079Z" fill="#DBDBDB"/>
<path d="M26.2787 37.8578C25.3844 39.2832 24.8642 40.9112 24.7663 42.591C24.6684 44.2709 24.996 45.9482 25.7187 47.4678C21.7187 43.3678 20.7187 37.3778 23.6587 32.9078C27.0987 27.6478 34.7187 26.5278 40.6587 30.4178C42.652 31.6476 44.2776 33.3912 45.365 35.4656C46.4524 37.5401 46.9614 39.8689 46.8387 42.2078C45.948 39.4705 44.1348 37.1271 41.7087 35.5778C36.3287 32.0578 29.4087 33.0678 26.2787 37.8578Z" fill="#C7C7C7"/>
<path d="M49.4184 38.3079C50.3046 39.6659 50.9122 41.1864 51.2057 42.7812C51.4993 44.3761 51.473 46.0133 51.1284 47.5978C50.7514 49.2498 50.0176 50.7994 48.9784 52.1378C47.9478 53.4928 46.6849 54.6541 45.2484 55.5678C43.7593 56.403 42.1285 56.9556 40.4384 57.1978C38.8042 57.4024 37.1483 57.3552 35.5284 57.0579C32.3968 56.5102 29.4394 55.2285 26.8984 53.3178C29.7884 54.1587 32.7638 54.6719 35.7684 54.8478C38.5447 55.051 41.321 54.4541 43.7684 53.1278C44.9351 52.4176 45.9759 51.5187 46.8484 50.4678C47.7619 49.4377 48.4772 48.2478 48.9584 46.9579C49.8996 44.1708 50.0587 41.179 49.4184 38.3079Z" fill="#C7C7C7"/>
</g>
</svg>
