<svg width="49" height="49" viewBox="0 0 49 49" fill="none" xmlns="http://www.w3.org/2000/svg">
<path d="M18.1995 42.6104C8.14863 39.179 2.7825 28.2495 6.21387 18.1987C9.64525 8.14782 20.5747 2.78169 30.6256 6.21307C40.6764 9.64444 46.0425 20.5739 42.6112 30.6248C39.1798 40.6756 28.2503 46.0417 18.1995 42.6104Z" fill="#EBEBEB"/>
<path d="M5.99556 29.9857C7.78716 28.4323 9.81189 27.1702 11.9956 26.2457C15.8056 24.5657 26.1756 22.7257 30.9956 20.2957C37.7456 16.8957 38.5856 13.2257 38.5456 11.2957C36.8669 9.48057 34.8534 8.00688 32.6156 6.95572C32.1356 8.89572 30.3256 14.9557 19.1156 18.9557C13.3256 20.9557 7.78557 19.6357 5.90557 19.1757C4.89565 22.7128 4.92689 26.466 5.99556 29.9857Z" fill="#DBDBDB"/>
<path d="M13.847 40.4757C17.5342 42.8974 21.9416 43.9786 26.3309 43.538C30.7201 43.0974 34.8247 41.1619 37.957 38.0557C36.8677 37.459 35.709 36.9989 34.507 36.6857C29.337 35.4257 23.647 37.8957 21.567 39.0657C19.2448 40.4429 16.5062 40.9431 13.847 40.4757Z" fill="#DBDBDB"/>
<path d="M7.15673 32.8757L7.39673 33.3357C7.46673 33.4857 7.54673 33.6157 7.62673 33.7557C7.80006 34.0757 7.98005 34.3857 8.16672 34.6857C8.33672 34.9557 8.51672 35.2157 8.69672 35.4757L8.90673 35.7657L9.15673 36.0557L9.40673 36.3757C9.50006 36.4957 9.60006 36.6157 9.70673 36.7357C9.8134 36.8557 9.9134 36.9757 10.0067 37.0957L10.2867 37.3957C10.4867 37.6157 10.6867 37.8257 10.8967 38.0357C12.0867 38.4057 13.6967 38.2457 16.0367 37.3157C19.5367 35.9457 23.2967 32.6457 30.0367 30.2257C34.1927 28.7696 38.6688 28.4825 42.9767 29.3957C44.0194 25.5643 43.8447 21.5034 42.4767 17.7757C41.2567 17.7257 37.2967 18.2857 28.8767 25.2457C26.251 27.4653 23.4064 29.4119 20.3867 31.0557C13.1767 34.8257 9.01672 33.7057 7.27672 32.8357H7.15673V32.8757Z" fill="#DBDBDB"/>
<path d="M25.4167 40.1057C25.0767 39.3257 23.8767 39.1057 22.7367 39.5957C21.5967 40.0857 20.9567 41.1257 21.2967 41.9057C21.6367 42.6857 22.8367 42.9057 23.9767 42.4257C25.1167 41.9457 25.7567 40.8957 25.4167 40.1057Z" fill="#C7C7C7"/>
<path d="M19.9757 38.7357C19.7857 38.2957 19.0757 38.1857 18.3857 38.4857C17.6957 38.7857 17.3057 39.3757 17.4957 39.8157C17.6857 40.2557 18.4057 40.3757 19.0857 40.0757C19.7657 39.7757 20.1557 39.1857 19.9757 38.7357Z" fill="#C7C7C7"/>
<path d="M34.8878 15.1157C34.5978 14.4557 33.5578 14.2557 32.5578 14.6957C31.5578 15.1357 30.9878 16.0257 31.2878 16.6957C31.5878 17.3657 32.6178 17.5557 33.6178 17.1157C34.6178 16.6757 35.1578 15.7857 34.8878 15.1157Z" fill="#C7C7C7"/>
<path d="M31.3473 14.4557C31.2317 14.2718 31.0487 14.1406 30.8374 14.0901C30.6262 14.0396 30.4035 14.0739 30.2173 14.1858C30.0128 14.2485 29.84 14.387 29.7341 14.5728C29.6282 14.7586 29.5972 14.9778 29.6473 15.1858C29.7895 15.3253 29.9701 15.4191 30.166 15.4553C30.3619 15.4915 30.5641 15.4684 30.7468 15.3888C30.9294 15.3093 31.0842 15.1771 31.1912 15.0091C31.2982 14.841 31.3525 14.6449 31.3473 14.4457V14.4557Z" fill="#C7C7C7"/>
<path d="M30.7752 16.2357C30.6981 16.1251 30.5818 16.048 30.4499 16.0202C30.318 15.9923 30.1804 16.0158 30.0652 16.0857C29.7652 16.2157 29.6052 16.4957 29.6952 16.7057C29.7691 16.82 29.8848 16.9007 30.0175 16.9307C30.1503 16.9606 30.2894 16.9373 30.4052 16.8657C30.5359 16.8283 30.6472 16.7419 30.7161 16.6247C30.7849 16.5074 30.8061 16.3682 30.7752 16.2357Z" fill="#C7C7C7"/>
<path d="M18.7748 16.2857C18.7339 15.9447 18.587 15.625 18.3547 15.3719C18.1224 15.1189 17.8165 14.9451 17.4802 14.8752C17.1439 14.8053 16.7941 14.8428 16.4802 14.9823C16.1663 15.1219 15.9041 15.3565 15.7307 15.653C15.5573 15.9495 15.4814 16.293 15.5137 16.635C15.546 16.977 15.6848 17.3002 15.9107 17.5591C16.1365 17.8179 16.4379 17.9993 16.7724 18.0777C17.1068 18.156 17.4575 18.1273 17.7748 17.9957C18.1314 17.8972 18.4354 17.6633 18.6222 17.3439C18.809 17.0245 18.8637 16.6449 18.7748 16.2857Z" fill="#C7C7C7"/>
<path d="M19.236 18.9057C19.1486 18.7317 18.9977 18.5978 18.8145 18.5318C18.6313 18.4658 18.4297 18.4726 18.2514 18.5509C18.0731 18.6291 17.9316 18.7728 17.8561 18.9524C17.7807 19.1319 17.7771 19.3336 17.846 19.5157C17.9334 19.6898 18.0842 19.8236 18.2675 19.8897C18.4507 19.9557 18.6522 19.9489 18.8306 19.8706C19.0089 19.7924 19.1504 19.6486 19.2258 19.4691C19.3013 19.2895 19.3049 19.0879 19.236 18.9057Z" fill="#C7C7C7"/>
</svg>
