<svg width="233" height="205" viewBox="0 0 233 205" fill="none" xmlns="http://www.w3.org/2000/svg">
<path d="M211.311 0L213.471 3.94L217.411 6.1L213.471 8.25L211.311 12.2L209.161 8.25L205.211 6.1L209.161 3.94L211.311 0Z" fill="#C6C6C6"/>
<path d="M221.149 18.09L222.129 19.9L223.939 20.88L222.129 21.87L221.149 23.67L220.159 21.87L218.359 20.88L220.159 19.9L221.149 18.09Z" fill="#C6C6C6"/>
<path d="M17.1217 137.4L19.2717 141.35L23.2217 143.5L19.2717 145.66L17.1217 149.61L14.9617 145.66L11.0117 143.5L14.9617 141.35L17.1217 137.4Z" fill="#C6C6C6"/>
<path d="M226.459 192.55L228.619 196.49L232.569 198.65L228.619 200.81L226.459 204.75L224.309 200.81L220.359 198.65L224.309 196.49L226.459 192.55Z" fill="#C6C6C6"/>
<path d="M2.79 150.31L3.78 152.12L5.57999 153.1L3.78 154.09L2.79 155.89L1.81 154.09L0 153.1L1.81 152.12L2.79 150.31Z" fill="#C6C6C6"/>
<path d="M31.8408 114.68L32.8308 116.48L34.6308 117.47L32.8308 118.45L31.8408 120.26L30.8508 118.45L29.0508 117.47L30.8508 116.48L31.8408 114.68Z" fill="#C6C6C6"/>
</svg>
