<svg width="35" height="29" viewBox="0 0 35 29" fill="none" xmlns="http://www.w3.org/2000/svg">
<g clip-path="url(#clip0_2061_2669)">
<path d="M35 3.48161C33.7121 4.05303 32.3282 4.43922 30.8757 4.61296C32.3585 3.72375 33.4969 2.31565 34.033 0.637913C32.6235 1.47485 31.0814 2.06452 29.4733 2.38145C28.1634 0.985115 26.2973 0.112457 24.2319 0.112457C20.2662 0.112457 17.051 3.32949 17.051 7.29728C17.051 7.86049 17.1146 8.40879 17.237 8.9348C11.2692 8.63506 5.97816 5.77468 2.43646 1.42767C1.8185 2.48884 1.46439 3.7232 1.46439 5.03978C1.46439 7.53258 2.73219 9.73167 4.65883 11.0202C3.51852 10.9845 2.40331 10.6763 1.40629 10.1214C1.40588 10.1515 1.40588 10.1816 1.40588 10.2118C1.40588 13.693 3.88104 16.5971 7.16584 17.2571C6.10844 17.5449 4.9993 17.587 3.92314 17.3802C4.83684 20.2348 7.48877 22.3119 10.6308 22.3701C8.17332 24.2971 5.07705 25.4458 1.71295 25.4458C1.13326 25.4458 0.561777 25.4117 0 25.3454C3.17775 27.384 6.95215 28.5735 11.0072 28.5735C24.2152 28.5735 31.4377 17.6251 31.4377 8.13054C31.4377 7.81891 31.4308 7.50905 31.4169 7.20097C32.8227 6.1841 34.036 4.92461 35 3.48161Z" fill="#55ACEE"/>
</g>
<defs>
<clipPath id="clip0_2061_2669">
<rect width="35" height="28.5915" fill="white"/>
</clipPath>
</defs>
</svg>
