<svg width="289" height="291" viewBox="0 0 289 291" fill="none" xmlns="http://www.w3.org/2000/svg">
<mask id="mask0_2099_255" style="mask-type:alpha" maskUnits="userSpaceOnUse" x="12" y="13" width="266" height="265">
<g opacity="0.7">
<g opacity="0.7">
<path opacity="0.7" d="M175.706 267.224L172.644 266.266L155.812 224.665L157.13 221.313L175.706 267.224Z" fill="#616161"/>
<path opacity="0.7" d="M167.98 264.417L164.91 263.456L152.506 232.799L153.828 229.438L167.98 264.417Z" fill="#616161"/>
<path opacity="0.7" d="M191.167 272.843L188.105 271.885L162.418 208.414L163.739 205.053L191.167 272.843Z" fill="#616161"/>
<path opacity="0.7" d="M183.441 270.035L180.371 269.074L159.115 216.54L160.437 213.178L183.441 270.035Z" fill="#616161"/>
<path opacity="0.7" d="M230.01 212.312L231.549 212.794L230.886 214.479L230.01 212.312Z" fill="#616161"/>
<path opacity="0.7" d="M198.9 275.654L195.83 274.693L165.722 200.28L167.044 196.919L198.9 275.654Z" fill="#616161"/>
<path opacity="0.7" d="M160.252 261.609L157.181 260.648L149.201 240.925L150.523 237.564L160.252 261.609Z" fill="#616161"/>
<path opacity="0.7" d="M145.897 249.059L147.219 245.698L152.519 258.798L149.449 257.837L145.897 249.059Z" fill="#616161"/>
<path opacity="0.7" d="M225.599 227.378L224.277 230.739L214.557 206.697L217.619 207.655L225.599 227.378Z" fill="#616161"/>
<path opacity="0.7" d="M228.905 219.243L227.583 222.604L222.283 209.505L225.353 210.465L228.905 219.243Z" fill="#616161"/>
<path opacity="0.7" d="M222.296 235.503L220.974 238.864L206.822 203.886L209.892 204.847L222.296 235.503Z" fill="#616161"/>
<path opacity="0.7" d="M144.792 255.99L143.252 255.509L143.912 253.832L144.792 255.99Z" fill="#616161"/>
<path opacity="0.7" d="M218.993 243.629L217.671 246.99L199.095 201.078L202.165 202.039L218.993 243.629Z" fill="#616161"/>
<path opacity="0.7" d="M215.689 251.763L214.367 255.124L191.362 198.268L194.433 199.228L215.689 251.763Z" fill="#616161"/>
<path opacity="0.7" d="M169.706 190.397L171.237 190.876L205.765 276.232L205.106 277.908L203.575 277.429L169.035 192.08L169.698 190.395L169.706 190.397Z" fill="#616161"/>
<path opacity="0.7" d="M209.079 268.023L207.758 271.384L175.91 192.652L178.972 193.61L209.079 268.023Z" fill="#616161"/>
<path opacity="0.7" d="M212.384 259.889L211.062 263.25L183.634 195.46L186.704 196.42L212.384 259.889Z" fill="#616161"/>
</g>
<g opacity="0.7">
<path opacity="0.7" d="M110.296 244.37L107.226 243.41L90.4019 201.81L91.7202 198.458L110.296 244.37Z" fill="#616161"/>
<path opacity="0.7" d="M102.568 241.562L99.4977 240.602L87.0939 209.945L88.4155 206.584L102.568 241.562Z" fill="#616161"/>
<path opacity="0.7" d="M125.755 249.988L122.685 249.028L97.0055 185.56L98.3272 182.198L125.755 249.988Z" fill="#616161"/>
<path opacity="0.7" d="M118.031 247.18L114.961 246.22L93.7048 193.685L95.0265 190.324L118.031 247.18Z" fill="#616161"/>
<path opacity="0.7" d="M164.6 189.458L166.131 189.937L165.468 191.621L164.6 189.458Z" fill="#616161"/>
<path opacity="0.7" d="M133.482 252.796L130.42 251.838L100.312 177.425L101.634 174.064L133.482 252.796Z" fill="#616161"/>
<path opacity="0.7" d="M94.8319 238.751L91.7617 237.791L83.7898 218.071L85.1115 214.71L94.8319 238.751Z" fill="#616161"/>
<path opacity="0.7" d="M80.4848 226.205L81.8065 222.843L87.1068 235.943L84.0366 234.983L80.4848 226.205Z" fill="#616161"/>
<path opacity="0.7" d="M160.181 204.52L158.859 207.881L149.139 183.84L152.209 184.8L160.181 204.52Z" fill="#616161"/>
<path opacity="0.7" d="M163.485 196.386L162.164 199.747L156.872 186.65L159.942 187.611L163.485 196.386Z" fill="#616161"/>
<path opacity="0.7" d="M156.878 212.646L155.556 216.007L141.412 181.032L144.482 181.992L156.878 212.646Z" fill="#616161"/>
<path opacity="0.7" d="M79.3721 233.133L77.841 232.654L78.5002 230.978L79.3721 233.133Z" fill="#616161"/>
<path opacity="0.7" d="M153.575 220.771L152.253 224.133L133.686 178.224L136.748 179.182L153.575 220.771Z" fill="#616161"/>
<path opacity="0.7" d="M150.269 228.906L148.947 232.267L125.951 175.413L129.021 176.373L150.269 228.906Z" fill="#616161"/>
<path opacity="0.7" d="M104.286 167.54L105.817 168.019L140.345 253.374L139.686 255.05L138.155 254.572L103.624 169.225L104.286 167.54Z" fill="#616161"/>
<path opacity="0.7" d="M143.66 245.165L142.338 248.526L110.49 169.795L113.56 170.755L143.66 245.165Z" fill="#616161"/>
<path opacity="0.7" d="M146.964 237.031L145.642 240.392L118.214 172.602L121.284 173.563L146.964 237.031Z" fill="#616161"/>
</g>
<g opacity="0.7">
<path opacity="0.7" d="M44.8705 221.512L41.8083 220.554L24.9762 178.953L26.2944 175.601L44.8705 221.512Z" fill="#616161"/>
<path opacity="0.7" d="M37.144 218.705L34.0739 217.744L21.67 187.087L22.9917 183.726L37.144 218.705Z" fill="#616161"/>
<path opacity="0.7" d="M60.3315 227.131L57.2694 226.173L31.5817 162.702L32.9034 159.341L60.3315 227.131Z" fill="#616161"/>
<path opacity="0.7" d="M52.6051 224.323L49.5349 223.363L28.2791 170.828L29.6007 167.467L52.6051 224.323Z" fill="#616161"/>
<path opacity="0.7" d="M99.1738 166.601L100.713 167.082L100.05 168.767L99.1738 166.601Z" fill="#616161"/>
<path opacity="0.7" d="M68.0642 229.942L64.9941 228.981L34.8861 154.568L36.2078 151.207L68.0642 229.942Z" fill="#616161"/>
<path opacity="0.7" d="M29.4157 215.897L26.3455 214.936L18.3654 195.213L19.6871 191.852L29.4157 215.897Z" fill="#616161"/>
<path opacity="0.7" d="M15.061 203.347L16.3827 199.986L21.683 213.086L18.6128 212.126L15.061 203.347Z" fill="#616161"/>
<path opacity="0.7" d="M94.7628 181.666L93.4411 185.027L83.7125 160.982L86.7827 161.942L94.7628 181.666Z" fill="#616161"/>
<path opacity="0.7" d="M98.0691 173.531L96.7474 176.893L91.4472 163.793L94.5173 164.753L98.0691 173.531Z" fill="#616161"/>
<path opacity="0.7" d="M91.4599 189.791L90.1382 193.152L75.9859 158.174L79.0561 159.135L91.4599 189.791Z" fill="#616161"/>
<path opacity="0.7" d="M13.956 210.278L12.4165 209.797L13.0758 208.12L13.956 210.278Z" fill="#616161"/>
<path opacity="0.7" d="M88.157 197.917L86.8353 201.278L68.2592 155.366L71.3294 156.327L88.157 197.917Z" fill="#616161"/>
<path opacity="0.7" d="M84.8526 206.051L83.5309 209.412L60.5265 152.556L63.5967 153.516L84.8526 206.051Z" fill="#616161"/>
<path opacity="0.7" d="M38.8699 144.685L40.401 145.164L74.9292 230.52L74.2701 232.196L72.739 231.717L38.1993 146.368L38.8619 144.683L38.8699 144.685Z" fill="#616161"/>
<path opacity="0.7" d="M78.2435 222.311L76.9218 225.672L45.0736 146.94L48.1358 147.898L78.2435 222.311Z" fill="#616161"/>
<path opacity="0.7" d="M81.5478 214.177L80.2261 217.538L52.7979 149.748L55.8681 150.708L81.5478 214.177Z" fill="#616161"/>
</g>
<g opacity="0.7">
<path opacity="0.7" d="M198.564 201.802L195.502 200.844L178.666 159.251L179.988 155.89L198.564 201.802Z" fill="#616161"/>
<path opacity="0.7" d="M190.839 198.994L187.769 198.034L175.365 167.377L176.687 164.016L190.839 198.994Z" fill="#616161"/>
<path opacity="0.7" d="M214.027 207.42L210.965 206.462L185.277 142.992L186.599 139.63L214.027 207.42Z" fill="#616161"/>
<path opacity="0.7" d="M206.3 204.613L203.23 203.652L181.974 151.117L183.292 147.765L206.3 204.613Z" fill="#616161"/>
<path opacity="0.7" d="M252.867 146.898L254.406 147.38L253.747 149.056L252.867 146.898Z" fill="#616161"/>
<path opacity="0.7" d="M221.761 210.231L218.691 209.271L188.579 134.866L189.901 131.505L221.761 210.231Z" fill="#616161"/>
<path opacity="0.7" d="M183.114 196.186L180.044 195.226L172.06 175.511L173.382 172.15L183.114 196.186Z" fill="#616161"/>
<path opacity="0.7" d="M168.756 183.637L170.078 180.276L175.378 193.375L172.308 192.415L168.756 183.637Z" fill="#616161"/>
<path opacity="0.7" d="M248.46 161.955L247.138 165.316L237.414 141.283L240.476 142.241L248.46 161.955Z" fill="#616161"/>
<path opacity="0.7" d="M251.76 153.83L250.442 157.182L245.138 144.091L248.209 145.051L251.76 153.83Z" fill="#616161"/>
<path opacity="0.7" d="M245.153 170.09L243.835 173.442L229.679 138.472L232.749 139.432L245.153 170.09Z" fill="#616161"/>
<path opacity="0.7" d="M167.651 190.568L166.112 190.086L166.771 188.41L167.651 190.568Z" fill="#616161"/>
<path opacity="0.7" d="M241.85 178.215L240.529 181.576L221.953 135.664L225.023 136.625L241.85 178.215Z" fill="#616161"/>
<path opacity="0.7" d="M238.544 186.349L237.226 189.702L214.218 132.854L217.288 133.814L238.544 186.349Z" fill="#616161"/>
<path opacity="0.7" d="M192.561 124.983L194.092 125.462L228.624 210.809L227.965 212.485L226.434 212.006L191.894 126.657L192.553 124.981L192.561 124.983Z" fill="#616161"/>
<path opacity="0.7" d="M231.938 202.6L230.616 205.961L198.765 127.238L201.827 128.196L231.938 202.6Z" fill="#616161"/>
<path opacity="0.7" d="M235.241 194.475L233.919 197.836L206.491 130.046L209.562 131.006L235.241 194.475Z" fill="#616161"/>
</g>
<g opacity="0.7">
<path opacity="0.7" d="M133.15 178.947L130.08 177.987L113.252 136.397L114.574 133.036L133.15 178.947Z" fill="#616161"/>
<path opacity="0.7" d="M125.423 176.14L122.353 175.179L109.949 144.522L111.271 141.161L125.423 176.14Z" fill="#616161"/>
<path opacity="0.7" d="M148.611 184.566L145.541 183.605L119.861 120.137L121.183 116.776L148.611 184.566Z" fill="#616161"/>
<path opacity="0.7" d="M140.886 181.758L137.816 180.798L116.559 128.262L117.878 124.91L140.886 181.758Z" fill="#616161"/>
<path opacity="0.7" d="M187.451 124.044L188.982 124.523L188.323 126.199L187.451 124.044Z" fill="#616161"/>
<path opacity="0.7" d="M156.337 187.374L153.275 186.416L123.164 112.011L124.485 108.65L156.337 187.374Z" fill="#616161"/>
<path opacity="0.7" d="M117.691 173.329L114.62 172.368L106.645 152.657L107.967 149.295L117.691 173.329Z" fill="#616161"/>
<path opacity="0.7" d="M103.34 160.782L104.662 157.421L109.962 170.521L106.892 169.561L103.34 160.782Z" fill="#616161"/>
<path opacity="0.7" d="M183.036 139.098L181.714 142.459L171.99 118.425L175.06 119.386L183.036 139.098Z" fill="#616161"/>
<path opacity="0.7" d="M186.337 130.972L185.018 134.325L179.723 121.236L182.793 122.197L186.337 130.972Z" fill="#616161"/>
<path opacity="0.7" d="M179.729 147.232L178.411 150.585L164.263 115.618L167.334 116.578L179.729 147.232Z" fill="#616161"/>
<path opacity="0.7" d="M102.228 167.71L100.697 167.231L101.356 165.555L102.228 167.71Z" fill="#616161"/>
<path opacity="0.7" d="M176.427 155.357L175.105 158.718L156.537 112.81L159.599 113.768L176.427 155.357Z" fill="#616161"/>
<path opacity="0.7" d="M173.12 163.492L171.802 166.844L148.802 109.999L151.872 110.96L173.12 163.492Z" fill="#616161"/>
<path opacity="0.7" d="M127.137 102.126L128.669 102.605L163.2 187.952L162.541 189.628L161.01 189.149L126.478 103.802L127.137 102.126Z" fill="#616161"/>
<path opacity="0.7" d="M166.514 179.743L165.193 183.104L133.341 104.381L136.411 105.341L166.514 179.743Z" fill="#616161"/>
<path opacity="0.7" d="M169.817 171.617L168.496 174.978L141.067 107.188L144.138 108.149L169.817 171.617Z" fill="#616161"/>
</g>
<g opacity="0.7">
<path opacity="0.7" d="M67.7279 156.09L64.6657 155.132L47.8301 113.539L49.1518 110.178L67.7279 156.09Z" fill="#616161"/>
<path opacity="0.7" d="M60.0034 153.282L56.9332 152.322L44.5294 121.665L45.8511 118.304L60.0034 153.282Z" fill="#616161"/>
<path opacity="0.7" d="M83.1909 161.708L80.1287 160.75L54.4411 97.2796L55.7628 93.9185L83.1909 161.708Z" fill="#616161"/>
<path opacity="0.7" d="M75.4639 158.901L72.3937 157.94L51.1376 105.405L52.4559 102.053L75.4639 158.901Z" fill="#616161"/>
<path opacity="0.7" d="M122.031 101.186L123.57 101.668L122.911 103.345L122.031 101.186Z" fill="#616161"/>
<path opacity="0.7" d="M90.925 164.519L87.8548 163.559L57.7432 89.1538L59.0649 85.7927L90.925 164.519Z" fill="#616161"/>
<path opacity="0.7" d="M52.2764 150.474L49.2062 149.514L41.2225 129.799L42.5442 126.438L52.2764 150.474Z" fill="#616161"/>
<path opacity="0.7" d="M37.9204 137.925L39.2421 134.564L44.5423 147.664L41.4721 146.703L37.9204 137.925Z" fill="#616161"/>
<path opacity="0.7" d="M117.624 116.243L116.302 119.604L106.57 95.568L109.64 96.5284L117.624 116.243Z" fill="#616161"/>
<path opacity="0.7" d="M120.924 108.118L119.606 111.47L114.302 98.3788L117.373 99.3392L120.924 108.118Z" fill="#616161"/>
<path opacity="0.7" d="M114.317 124.378L112.999 127.73L98.8429 92.7601L101.913 93.7205L114.317 124.378Z" fill="#616161"/>
<path opacity="0.7" d="M36.8153 144.856L35.2759 144.374L35.9352 142.698L36.8153 144.856Z" fill="#616161"/>
<path opacity="0.7" d="M111.014 132.503L109.693 135.864L91.1167 89.9525L94.1868 90.9129L111.014 132.503Z" fill="#616161"/>
<path opacity="0.7" d="M107.708 140.637L106.39 143.99L83.3816 87.1417L86.4519 88.1021L107.708 140.637Z" fill="#616161"/>
<path opacity="0.7" d="M61.725 79.2714L63.2561 79.7503L97.788 165.097L97.1289 166.774L95.5978 166.295L61.0579 80.945L61.717 79.2689L61.725 79.2714Z" fill="#616161"/>
<path opacity="0.7" d="M101.102 156.888L99.7806 160.249L67.9287 81.526L70.9909 82.4839L101.102 156.888Z" fill="#616161"/>
<path opacity="0.7" d="M104.405 148.763L103.083 152.124L75.6554 84.3339L78.7256 85.2943L104.405 148.763Z" fill="#616161"/>
</g>
<g opacity="0.7">
<path opacity="0.7" d="M221.417 136.388L218.355 135.43L201.523 93.8286L202.841 90.4763L221.417 136.388Z" fill="#616161"/>
<path opacity="0.7" d="M213.691 133.58L210.621 132.62L198.217 101.963L199.539 98.6018L213.691 133.58Z" fill="#616161"/>
<path opacity="0.7" d="M236.878 142.006L233.816 141.048L208.129 77.5775L209.45 74.2164L236.878 142.006Z" fill="#616161"/>
<path opacity="0.7" d="M229.152 139.199L226.082 138.238L204.826 85.7033L206.148 82.3421L229.152 139.199Z" fill="#616161"/>
<path opacity="0.7" d="M275.721 81.4759L277.26 81.9574L276.597 83.6424L275.721 81.4759Z" fill="#616161"/>
<path opacity="0.7" d="M244.611 144.817L241.541 143.857L211.433 69.4436L212.755 66.0825L244.611 144.817Z" fill="#616161"/>
<path opacity="0.7" d="M205.963 130.772L202.892 129.812L194.912 110.089L196.234 106.728L205.963 130.772Z" fill="#616161"/>
<path opacity="0.7" d="M191.608 118.223L192.93 114.862L198.23 127.962L195.16 127.001L191.608 118.223Z" fill="#616161"/>
<path opacity="0.7" d="M271.31 96.5412L269.988 99.9023L260.268 75.8604L263.33 76.8183L271.31 96.5412Z" fill="#616161"/>
<path opacity="0.7" d="M274.616 88.407L273.294 91.7681L267.994 78.6682L271.064 79.6286L274.616 88.407Z" fill="#616161"/>
<path opacity="0.7" d="M268.007 104.667L266.685 108.028L252.533 73.0497L255.603 74.0101L268.007 104.667Z" fill="#616161"/>
<path opacity="0.7" d="M190.503 125.154L188.963 124.672L189.623 122.996L190.503 125.154Z" fill="#616161"/>
<path opacity="0.7" d="M264.704 112.792L263.382 116.154L244.806 70.242L247.876 71.2024L264.704 112.792Z" fill="#616161"/>
<path opacity="0.7" d="M261.399 120.927L260.078 124.288L237.073 67.4313L240.144 68.3917L261.399 120.927Z" fill="#616161"/>
<path opacity="0.7" d="M215.417 59.5609L216.948 60.0398L251.476 145.395L250.817 147.071L249.286 146.593L214.746 61.2433L215.409 59.5584L215.417 59.5609Z" fill="#616161"/>
<path opacity="0.7" d="M254.79 137.186L253.469 140.547L221.621 61.8157L224.683 62.7736L254.79 137.186Z" fill="#616161"/>
<path opacity="0.7" d="M258.091 129.061L256.773 132.413L229.345 64.6234L232.415 65.5838L258.091 129.061Z" fill="#616161"/>
</g>
<g opacity="0.7">
<path opacity="0.7" d="M156.005 113.533L152.935 112.573L136.111 70.9741L137.429 67.6217L156.005 113.533Z" fill="#616161"/>
<path opacity="0.7" d="M148.279 110.725L145.209 109.765L132.805 79.1086L134.126 75.7475L148.279 110.725Z" fill="#616161"/>
<path opacity="0.7" d="M171.466 119.152L168.396 118.192L142.716 54.7229L144.038 51.3618L171.466 119.152Z" fill="#616161"/>
<path opacity="0.7" d="M163.742 116.344L160.672 115.384L139.416 62.8487L140.737 59.4876L163.742 116.344Z" fill="#616161"/>
<path opacity="0.7" d="M210.309 58.6216L211.84 59.1004L211.177 60.785L210.309 58.6216Z" fill="#616161"/>
<path opacity="0.7" d="M179.193 121.96L176.131 121.002L146.023 46.589L147.345 43.2279L179.193 121.96Z" fill="#616161"/>
<path opacity="0.7" d="M140.543 107.915L137.473 106.955L129.501 87.2341L130.822 83.873L140.543 107.915Z" fill="#616161"/>
<path opacity="0.7" d="M126.196 95.3683L127.517 92.0072L132.818 105.107L129.748 104.147L126.196 95.3683Z" fill="#616161"/>
<path opacity="0.7" d="M205.89 73.6836L204.568 77.0446L194.848 53.003L197.918 53.9634L205.89 73.6836Z" fill="#616161"/>
<path opacity="0.7" d="M209.196 65.5497L207.875 68.9107L202.582 55.8137L205.653 56.7741L209.196 65.5497Z" fill="#616161"/>
<path opacity="0.7" d="M202.587 81.8093L201.265 85.1704L187.121 50.1953L190.191 51.1557L202.587 81.8093Z" fill="#616161"/>
<path opacity="0.7" d="M125.083 102.296L123.552 101.817L124.211 100.141L125.083 102.296Z" fill="#616161"/>
<path opacity="0.7" d="M199.284 89.9351L197.962 93.2962L179.395 47.3874L182.457 48.3453L199.284 89.9351Z" fill="#616161"/>
<path opacity="0.7" d="M195.98 98.0692L194.658 101.43L171.662 44.5767L174.732 45.5371L195.98 98.0692Z" fill="#616161"/>
<path opacity="0.7" d="M149.997 36.7038L151.528 37.1827L186.056 122.538L185.397 124.214L183.866 123.735L149.335 38.3887L149.997 36.7038Z" fill="#616161"/>
<path opacity="0.7" d="M189.37 114.329L188.049 117.69L156.201 38.9581L159.271 39.9185L189.37 114.329Z" fill="#616161"/>
<path opacity="0.7" d="M192.671 106.203L191.353 109.556L163.925 41.7659L166.995 42.7263L192.671 106.203Z" fill="#616161"/>
</g>
<g opacity="0.7">
<path opacity="0.7" d="M90.5814 90.6759L87.5192 89.718L70.6871 48.1166L72.0053 44.7643L90.5814 90.6759Z" fill="#616161"/>
<path opacity="0.7" d="M82.855 87.868L79.7848 86.9076L67.381 56.2509L68.7027 52.8898L82.855 87.868Z" fill="#616161"/>
<path opacity="0.7" d="M106.042 96.2945L102.98 95.3366L77.2926 31.8655L78.6143 28.5044L106.042 96.2945Z" fill="#616161"/>
<path opacity="0.7" d="M98.3161 93.4866L95.2459 92.5262L73.99 39.9913L75.3117 36.6302L98.3161 93.4866Z" fill="#616161"/>
<path opacity="0.7" d="M144.885 35.7642L146.424 36.2456L145.761 37.9304L144.885 35.7642Z" fill="#616161"/>
<path opacity="0.7" d="M113.775 99.105L110.705 98.1446L80.5971 23.7316L81.9188 20.3705L113.775 99.105Z" fill="#616161"/>
<path opacity="0.7" d="M75.1266 85.0603L72.0564 84.0999L64.0764 64.3767L65.398 61.0156L75.1266 85.0603Z" fill="#616161"/>
<path opacity="0.7" d="M60.7719 72.5108L62.0936 69.1497L67.3939 82.2496L64.3237 81.2892L60.7719 72.5108Z" fill="#616161"/>
<path opacity="0.7" d="M140.474 50.8292L139.152 54.1903L129.423 30.1456L132.494 31.106L140.474 50.8292Z" fill="#616161"/>
<path opacity="0.7" d="M143.78 42.6951L142.458 46.0562L137.158 32.9562L140.228 33.9166L143.78 42.6951Z" fill="#616161"/>
<path opacity="0.7" d="M137.171 58.9547L135.849 62.3159L121.697 27.3377L124.767 28.2981L137.171 58.9547Z" fill="#616161"/>
<path opacity="0.7" d="M59.6669 79.4417L58.1275 78.9602L58.7867 77.2838L59.6669 79.4417Z" fill="#616161"/>
<path opacity="0.7" d="M133.868 67.0805L132.546 70.4416L113.97 24.53L117.04 25.4904L133.868 67.0805Z" fill="#616161"/>
<path opacity="0.7" d="M130.564 75.2147L129.242 78.5757L106.237 21.7193L109.308 22.6797L130.564 75.2147Z" fill="#616161"/>
<path opacity="0.7" d="M84.5808 13.8489L86.1119 14.3278L120.64 99.6833L119.981 101.359L118.45 100.881L83.9103 15.5313L84.5728 13.8464L84.5808 13.8489Z" fill="#616161"/>
<path opacity="0.7" d="M123.954 91.4743L122.633 94.8354L90.7845 16.1037L93.8467 17.0616L123.954 91.4743Z" fill="#616161"/>
<path opacity="0.7" d="M127.255 83.3489L125.937 86.7013L98.5089 18.9114L101.579 19.8718L127.255 83.3489Z" fill="#616161"/>
</g>
</g>
</mask>
<g mask="url(#mask0_2099_255)">
<path d="M215.961 170.725L78.8853 196.728L124.903 65.0155L215.961 170.725Z" fill="#722575"/>
</g>
</svg>
