<svg width="119" height="119" viewBox="0 0 119 119" fill="none" xmlns="http://www.w3.org/2000/svg">
<path d="M96.7605 13.14C96.2705 12.74 95.7705 12.36 95.2705 11.98L11.9805 95.27C12.3605 95.77 12.7505 96.27 13.1405 96.76L96.7605 13.14Z" fill="#8CB3FF"/>
<path d="M76.4109 2.44012C75.7209 2.24012 75.0209 2.05012 74.3309 1.87012L1.88086 74.3201C2.06086 75.0201 2.25087 75.7101 2.45087 76.4001L76.4109 2.44012Z" fill="#8CB3FF"/>
<path d="M90.7091 8.8401C90.1591 8.5001 89.5991 8.1701 89.0491 7.8501L7.86914 89.0301C8.18914 89.5901 8.51913 90.1401 8.85913 90.6901L90.7091 8.8401Z" fill="#8CB3FF"/>
<path d="M83.9509 5.24995C83.3409 4.96995 82.7209 4.69995 82.1009 4.44995L4.46094 82.09C4.72094 82.71 4.98093 83.33 5.26093 83.94L83.9509 5.24995Z" fill="#8CB3FF"/>
<path d="M67.9208 0.59005C67.1308 0.48005 66.3408 0.380049 65.5508 0.300049L0.300781 65.55C0.380781 66.34 0.48079 67.13 0.59079 67.92L67.9208 0.59005Z" fill="#8CB3FF"/>
<path d="M101.51 17.41C101.29 17.19 101.06 16.97 100.84 16.76L16.7598 100.84C16.9798 101.06 17.1898 101.29 17.4098 101.51C17.6298 101.73 17.8598 101.95 18.0798 102.16L102.16 18.08C101.95 17.85 101.73 17.63 101.51 17.41Z" fill="#8CB3FF"/>
<path d="M58.16 0C57.23 0.02 56.31 0.0599973 55.38 0.129997L0.129974 55.38C0.0699744 56.31 0.02 57.23 0 58.16L58.16 0Z" fill="#8CB3FF"/>
<path d="M1.44922 46.3699L46.3792 1.43994C45.1792 1.70994 43.9892 2.01994 42.8092 2.35994L2.36923 42.7999C2.01923 43.9799 1.71922 45.1699 1.44922 46.3699Z" fill="#8CB3FF"/>
<path d="M118.79 63.54C118.85 62.61 118.9 61.69 118.92 60.76L60.7695 118.91C61.6995 118.89 62.6195 118.85 63.5495 118.78L118.79 63.54Z" fill="#8CB3FF"/>
<path d="M118.61 53.36C118.53 52.57 118.43 51.78 118.32 50.99L51 118.31C51.79 118.42 52.58 118.52 53.37 118.6L118.61 53.36Z" fill="#8CB3FF"/>
<path d="M29.2607 8.20996C25.0307 10.71 21.0507 13.77 17.4107 17.4C13.7807 21.03 10.7107 25.02 8.2207 29.25L29.2607 8.20996Z" fill="#8CB3FF"/>
<path d="M116.561 76.11C116.901 74.93 117.211 73.74 117.481 72.54L72.5508 117.47C73.7508 117.2 74.9408 116.89 76.1208 116.55L116.561 76.11Z" fill="#8CB3FF"/>
<path d="M89.6699 110.7C93.8999 108.2 97.8799 105.14 101.52 101.51C105.15 97.8799 108.22 93.8899 110.71 89.6599L89.6699 110.7Z" fill="#8CB3FF"/>
<path d="M111.061 29.87C110.741 29.31 110.411 28.76 110.071 28.21L28.2207 110.06C28.7707 110.4 29.3307 110.73 29.8807 111.05L111.061 29.87Z" fill="#8CB3FF"/>
<path d="M106.94 23.6499C106.56 23.1499 106.17 22.6499 105.78 22.1599L22.1602 105.78C22.6502 106.18 23.1502 106.56 23.6502 106.94L106.94 23.6499Z" fill="#8CB3FF"/>
<path d="M117.04 44.58C116.86 43.88 116.67 43.19 116.47 42.5L42.5098 116.46C43.1998 116.66 43.8898 116.85 44.5898 117.03L117.04 44.58Z" fill="#8CB3FF"/>
<path d="M114.47 36.82C114.21 36.2 113.95 35.58 113.67 34.97L34.9805 113.66C35.5905 113.94 36.2105 114.2 36.8305 114.46L114.47 36.82Z" fill="#8CB3FF"/>
</svg>
