<svg width="531" height="405" viewBox="0 0 531 405" fill="none" xmlns="http://www.w3.org/2000/svg">
<path d="M289.476 267.604H90.1465V402.261H289.476V267.604Z" fill="white"/>
<path d="M291.385 404.218H88.252V265.646H291.385V404.218ZM92.0559 400.303H287.581V269.561H92.0559V400.303Z" fill="#25383F"/>
<path d="M311.312 377.835C314.051 379.714 321.278 382.297 340.07 382.297C340.07 382.297 358.329 385.429 364.416 376.034L359.09 359.593L316.485 358.81L310.323 374.39C309.79 375.642 310.247 377.052 311.312 377.835Z" fill="#25383F"/>
<path d="M415.389 332.974C415.389 332.974 424.062 337.907 440.495 326.711C446.506 322.562 458.754 312.619 457.994 303.225L442.017 292.264L412.346 311.836L415.389 332.974Z" fill="#25383F"/>
<path d="M242.698 96.1504V66.3224C242.698 66.3224 267.272 68.8277 248.861 25.6906L214.549 36.9642L219.418 62.8777L215.462 94.5847L242.698 96.1504Z" fill="white"/>
<path d="M244.596 98.1876L213.327 96.3086L217.511 62.8794L212.338 35.6349L249.921 23.3436L250.606 24.9876C258.29 42.994 259.659 55.6768 254.638 62.8011C251.595 67.107 247.182 68.1247 244.596 68.2813V98.1876ZM217.587 92.7074L240.792 94.1166V64.2103L242.846 64.4452C243.074 64.4452 248.476 64.9149 251.519 60.5307C254.258 56.538 255.779 47.7696 247.715 28.1974L216.598 38.375L221.239 62.8794L217.587 92.7074Z" fill="#25383F"/>
<path d="M231.505 42.288C231.505 42.288 228.234 35.7118 224.201 40.0177C222.452 41.8183 222.376 46.9071 228.614 49.1774C228.614 49.1774 229.603 60.6859 218.343 61.8602C218.343 61.8602 204.192 47.2203 208.985 30.623C208.985 30.623 189.585 35.6335 186.39 17.4705C185.401 11.9903 188.824 1.65616 200.465 0.63841C206.247 0.168678 216.746 3.0654 216.974 17.314C216.974 17.314 241.319 3.14365 252.275 29.2138C252.275 29.1355 243.526 41.8183 231.505 42.288Z" fill="#25383F"/>
<path d="M170.412 215.542C170.412 215.542 170.412 235.114 236.602 221.022C236.602 221.022 256.078 215.934 260.415 194.169L181.063 204.19L170.412 215.542Z" fill="#FCE7E9"/>
<path d="M342.885 362.645C342.885 362.645 348.819 385.271 362.818 387.776C380.316 390.908 385.338 400.459 385.794 402.651H317.322L322.115 363.428L342.885 362.645Z" fill="white"/>
<path d="M388.152 404.608H315.191L320.441 361.471L344.33 360.532L344.71 362.019C344.786 362.254 350.492 383.47 363.122 385.741C381.153 388.951 387.011 398.972 387.619 402.181L388.152 404.608ZM319.452 400.694H382.75C380.544 397.328 374.686 391.847 362.437 389.655C349.427 387.385 343.113 369.926 341.439 364.603L323.712 365.308L319.452 400.694Z" fill="#25383F"/>
<path d="M442.549 300.015C442.549 300.015 458.754 315.752 473.97 309.567C490.555 302.834 499.609 307.531 501.131 309.175L443.766 347.615L423.301 309.175L442.549 300.015Z" fill="white"/>
<path d="M443.08 350.433L420.637 308.314L442.928 297.667L443.841 298.606C443.993 298.763 459.362 313.403 473.284 307.766C490.478 300.798 500.368 305.574 502.499 307.844L504.096 309.567L443.08 350.433ZM425.886 310.115L444.374 344.875L497.477 309.332C493.902 307.923 486.218 306.827 474.653 311.446C460.503 317.161 446.047 305.73 442.244 302.364L425.886 310.115Z" fill="#25383F"/>
<path d="M180.769 199.1C180.769 199.1 170.194 256.564 205.8 263.375C241.405 270.265 318.093 251.397 318.093 251.397L312.007 372.666C312.007 372.666 324.865 364.994 338.559 365.777C353.014 366.638 362.6 372.666 362.6 372.666L378.197 199.257L180.769 199.1Z" fill="#FFF7DD"/>
<path d="M309.947 376.19L310.1 372.589L316.034 253.903C302.34 257.113 237.824 271.596 205.414 265.333C197.045 263.689 190.426 259.305 185.709 252.181C172.852 232.765 178.634 200.119 178.938 198.709L179.243 197.144L380.321 197.378L364.269 376.033L361.682 374.389C361.606 374.311 352.248 368.596 338.554 367.813C325.62 367.03 313.219 374.311 313.067 374.389L309.947 376.19ZM336.575 363.82C337.26 363.82 338.021 363.82 338.706 363.899C349.205 364.525 357.117 367.735 360.997 369.614L376.137 201.293L182.438 201.058C181.449 207.791 178.482 234.252 188.905 249.988C193.013 256.173 198.871 260.088 206.175 261.497C240.943 268.23 316.947 249.675 317.708 249.519L320.218 248.893L314.208 369.457C318.469 367.343 327.142 363.82 336.575 363.82Z" fill="#25383F"/>
<path d="M217.357 75.4825C217.357 75.4825 195.065 82.8416 183.425 87.9304C183.425 87.9304 172.317 93.0192 169.122 116.349C169.122 116.349 154.971 179.528 174.98 188.14L170.415 215.541C170.415 215.541 189.435 204.581 214.542 203.015C226.106 202.31 261.407 200.353 261.407 200.353L260.342 142.889L284.916 169.742L295.567 145.473L267.037 97.4816C264.526 93.254 261.179 89.7311 257.146 87.0693L242.539 77.518C242.463 77.4397 232.649 90.5922 217.357 75.4825Z" fill="#25383F"/>
<path d="M222.377 193.622C202.672 193.622 182.892 192.76 174.066 189.707L175.284 186.028C193.314 192.212 262.319 188.846 272.742 188.298L276.698 175.145L192.554 162.071L195.825 135.61L199.629 136.079L196.814 158.783L281.719 172.014L275.633 192.056L274.34 192.134C272.438 192.212 247.483 193.622 222.377 193.622Z" fill="white"/>
<path d="M291.076 201.058H200.008V192.212H291.076V201.058ZM203.812 197.144H287.272V196.126H203.812V197.144Z" fill="white"/>
<path d="M364.344 139.837H273.657L246.42 199.336H337.107L364.344 139.837Z" fill="white"/>
<path d="M338.321 201.293H243.373L272.436 137.879H367.383L338.321 201.293ZM249.383 197.378H335.886L361.373 141.793H274.87L249.383 197.378Z" fill="#25383F"/>
<path d="M381.846 178.51L454.35 300.563C454.35 300.563 446.894 299.153 433.58 307.922C422.929 314.968 415.321 329.843 415.321 329.843C415.321 329.843 352.707 240.124 329.807 199.1L267.193 199.179L357.272 169.116C366.63 166.063 376.748 169.899 381.846 178.51Z" fill="#FFF7DD"/>
<path d="M415.62 333.522L413.794 330.938C413.186 330.077 351.865 242.081 328.737 201.057L255.092 201.136L356.658 167.237C366.853 163.87 377.885 168.02 383.438 177.414L458.225 303.224L454.041 302.441C453.964 302.441 447.041 301.345 434.64 309.487C424.522 316.142 417.142 330.547 417.066 330.704L415.62 333.522ZM331.02 197.143L331.552 198.161C352.017 234.8 404.969 311.523 415.24 326.241C417.979 321.544 424.369 311.758 432.662 306.277C441.107 300.719 447.421 299.075 451.073 298.605L380.319 179.528C375.678 171.699 366.473 168.176 357.952 170.995L279.437 197.221L331.02 197.143Z" fill="#25383F"/>
<path d="M258.706 120.746L258.568 143.45L262.372 143.475L262.51 120.771L258.706 120.746Z" fill="white"/>
<path d="M315.423 172.536C316.816 169.152 315.905 165.521 313.389 164.427C310.874 163.333 307.705 165.19 306.313 168.574C304.92 171.959 305.83 175.589 308.346 176.683C310.862 177.777 314.03 175.921 315.423 172.536Z" fill="#25383F"/>
<path d="M996.646 401.086H0V405H996.646V401.086Z" fill="#25383F"/>
</svg>
