<svg width="244" height="89" viewBox="0 0 244 89" fill="none" xmlns="http://www.w3.org/2000/svg">
<path d="M1.81 85.5303C1.08614 85.5303 0.5 86.1164 0.5 86.8403C0.5 87.5641 1.08614 88.1503 1.81 88.1503C2.53386 88.1503 3.12 87.5641 3.12 86.8403C3.12 86.1164 2.53386 85.5303 1.81 85.5303Z" fill="#616161" stroke="#616161"/>
<path d="M21.7709 85.5303C21.0471 85.5303 20.4609 86.1164 20.4609 86.8403C20.4609 87.5641 21.0471 88.1503 21.7709 88.1503C22.4948 88.1503 23.0809 87.5641 23.0809 86.8403C23.0809 86.1164 22.4948 85.5303 21.7709 85.5303Z" fill="#616161" stroke="#616161"/>
<path d="M41.7299 85.5303C41.0061 85.5303 40.4199 86.1164 40.4199 86.8403C40.4199 87.5641 41.0061 88.1503 41.7299 88.1503C42.4538 88.1503 43.0399 87.5641 43.0399 86.8403C43.0399 86.1164 42.4538 85.5303 41.7299 85.5303Z" fill="#616161" stroke="#616161"/>
<path d="M61.6909 85.5303C60.967 85.5303 60.3809 86.1164 60.3809 86.8403C60.3809 87.5641 60.967 88.1503 61.6909 88.1503C62.4147 88.1503 63.0009 87.5641 63.0009 86.8403C63.0009 86.1164 62.4147 85.5303 61.6909 85.5303Z" fill="#616161" stroke="#616161"/>
<path d="M81.6498 85.5303C80.926 85.5303 80.3398 86.1164 80.3398 86.8403C80.3398 87.5641 80.926 88.1503 81.6498 88.1503C82.3737 88.1503 82.9598 87.5641 82.9598 86.8403C82.9598 86.1164 82.3737 85.5303 81.6498 85.5303Z" fill="#616161" stroke="#616161"/>
<path d="M101.611 85.5303C100.887 85.5303 100.301 86.1164 100.301 86.8403C100.301 87.5641 100.887 88.1503 101.611 88.1503C102.335 88.1503 102.921 87.5641 102.921 86.8403C102.921 86.1164 102.335 85.5303 101.611 85.5303Z" fill="#616161" stroke="#616161"/>
<path d="M121.57 85.5303C120.846 85.5303 120.26 86.1164 120.26 86.8403C120.26 87.5641 120.846 88.1503 121.57 88.1503C122.294 88.1503 122.88 87.5641 122.88 86.8403C122.88 86.1164 122.294 85.5303 121.57 85.5303Z" fill="#616161" stroke="#616161"/>
<path d="M141.531 85.5303C140.807 85.5303 140.221 86.1164 140.221 86.8403C140.221 87.5641 140.807 88.1503 141.531 88.1503C142.255 88.1503 142.841 87.5641 142.841 86.8403C142.841 86.1164 142.255 85.5303 141.531 85.5303Z" fill="#616161" stroke="#616161"/>
<path d="M161.49 85.5303C160.766 85.5303 160.18 86.1164 160.18 86.8403C160.18 87.5641 160.766 88.1503 161.49 88.1503C162.214 88.1503 162.8 87.5641 162.8 86.8403C162.8 86.1164 162.214 85.5303 161.49 85.5303Z" fill="#616161" stroke="#616161"/>
<path d="M181.451 85.5303C180.727 85.5303 180.141 86.1164 180.141 86.8403C180.141 87.5641 180.727 88.1503 181.451 88.1503C182.174 88.1503 182.761 87.5641 182.761 86.8403C182.761 86.1164 182.174 85.5303 181.451 85.5303Z" fill="#616161" stroke="#616161"/>
<path d="M201.41 85.5303C200.686 85.5303 200.1 86.1164 200.1 86.8403C200.1 87.5641 200.686 88.1503 201.41 88.1503C202.133 88.1503 202.72 87.5641 202.72 86.8403C202.72 86.1164 202.133 85.5303 201.41 85.5303Z" fill="#616161" stroke="#616161"/>
<path d="M221.361 85.5303C220.637 85.5303 220.051 86.1164 220.051 86.8403C220.051 87.5623 220.645 88.1503 221.361 88.1503C222.085 88.1503 222.671 87.5641 222.671 86.8403C222.671 86.1164 222.085 85.5303 221.361 85.5303Z" fill="#616161" stroke="#616161"/>
<path d="M241.32 85.5303C240.596 85.5303 240.01 86.1164 240.01 86.8403C240.01 87.5641 240.596 88.1503 241.32 88.1503C242.044 88.1503 242.63 87.5641 242.63 86.8403C242.63 86.1164 242.044 85.5303 241.32 85.5303Z" fill="#616161" stroke="#616161"/>
<path d="M1.81 68.5302C1.08614 68.5302 0.5 69.1164 0.5 69.8402C0.5 70.5641 1.08614 71.1502 1.81 71.1502C2.53386 71.1502 3.12 70.5641 3.12 69.8402C3.12 69.1164 2.53386 68.5302 1.81 68.5302Z" fill="#616161" stroke="#616161"/>
<path d="M21.7709 68.5302C21.0471 68.5302 20.4609 69.1164 20.4609 69.8402C20.4609 70.5641 21.0471 71.1502 21.7709 71.1502C22.4948 71.1502 23.0809 70.5641 23.0809 69.8402C23.0809 69.1164 22.4948 68.5302 21.7709 68.5302Z" fill="#616161" stroke="#616161"/>
<path d="M41.7299 68.5302C41.0061 68.5302 40.4199 69.1164 40.4199 69.8402C40.4199 70.5641 41.0061 71.1502 41.7299 71.1502C42.4538 71.1502 43.0399 70.5641 43.0399 69.8402C43.0399 69.1164 42.4538 68.5302 41.7299 68.5302Z" fill="#616161" stroke="#616161"/>
<path d="M61.6909 68.5302C60.967 68.5302 60.3809 69.1164 60.3809 69.8402C60.3809 70.5641 60.967 71.1502 61.6909 71.1502C62.4147 71.1502 63.0009 70.5641 63.0009 69.8402C63.0009 69.1164 62.4147 68.5302 61.6909 68.5302Z" fill="#616161" stroke="#616161"/>
<path d="M81.6498 68.5302C80.926 68.5302 80.3398 69.1164 80.3398 69.8402C80.3398 70.5641 80.926 71.1502 81.6498 71.1502C82.3737 71.1502 82.9598 70.5641 82.9598 69.8402C82.9598 69.1164 82.3737 68.5302 81.6498 68.5302Z" fill="#616161" stroke="#616161"/>
<path d="M101.611 68.5302C100.887 68.5302 100.301 69.1164 100.301 69.8402C100.301 70.5641 100.887 71.1502 101.611 71.1502C102.335 71.1502 102.921 70.5641 102.921 69.8402C102.921 69.1164 102.335 68.5302 101.611 68.5302Z" fill="#616161" stroke="#616161"/>
<path d="M121.57 68.5302C120.846 68.5302 120.26 69.1164 120.26 69.8402C120.26 70.5641 120.846 71.1502 121.57 71.1502C122.294 71.1502 122.88 70.5641 122.88 69.8402C122.88 69.1164 122.294 68.5302 121.57 68.5302Z" fill="#616161" stroke="#616161"/>
<path d="M141.531 68.5302C140.807 68.5302 140.221 69.1164 140.221 69.8402C140.221 70.5641 140.807 71.1502 141.531 71.1502C142.255 71.1502 142.841 70.5641 142.841 69.8402C142.841 69.1164 142.255 68.5302 141.531 68.5302Z" fill="#616161" stroke="#616161"/>
<path d="M161.49 68.5302C160.766 68.5302 160.18 69.1164 160.18 69.8402C160.18 70.5641 160.766 71.1502 161.49 71.1502C162.214 71.1502 162.8 70.5641 162.8 69.8402C162.8 69.1164 162.214 68.5302 161.49 68.5302Z" fill="#616161" stroke="#616161"/>
<path d="M181.451 68.5302C180.727 68.5302 180.141 69.1164 180.141 69.8402C180.141 70.5641 180.727 71.1502 181.451 71.1502C182.174 71.1502 182.761 70.5641 182.761 69.8402C182.761 69.1164 182.174 68.5302 181.451 68.5302Z" fill="#616161" stroke="#616161"/>
<path d="M201.41 68.5302C200.686 68.5302 200.1 69.1164 200.1 69.8402C200.1 70.5641 200.686 71.1502 201.41 71.1502C202.133 71.1502 202.72 70.5641 202.72 69.8402C202.72 69.1164 202.133 68.5302 201.41 68.5302Z" fill="#616161" stroke="#616161"/>
<path d="M221.361 68.5302C220.637 68.5302 220.051 69.1164 220.051 69.8402C220.051 70.5623 220.645 71.1502 221.361 71.1502C222.085 71.1502 222.671 70.5641 222.671 69.8402C222.671 69.1164 222.085 68.5302 221.361 68.5302Z" fill="#616161" stroke="#616161"/>
<path d="M241.32 68.5302C240.596 68.5302 240.01 69.1164 240.01 69.8402C240.01 70.5641 240.596 71.1502 241.32 71.1502C242.044 71.1502 242.63 70.5641 242.63 69.8402C242.63 69.1164 242.044 68.5302 241.32 68.5302Z" fill="#616161" stroke="#616161"/>
<path d="M1.81 51.52C1.08614 51.52 0.5 52.1061 0.5 52.83C0.5 53.5538 1.08614 54.14 1.81 54.14C2.53386 54.14 3.12 53.5538 3.12 52.83C3.12 52.1061 2.53386 51.52 1.81 51.52Z" fill="#616161" stroke="#616161"/>
<path d="M21.7709 51.52C21.0471 51.52 20.4609 52.1061 20.4609 52.83C20.4609 53.5538 21.0471 54.14 21.7709 54.14C22.4948 54.14 23.0809 53.5538 23.0809 52.83C23.0809 52.1061 22.4948 51.52 21.7709 51.52Z" fill="#616161" stroke="#616161"/>
<path d="M41.7299 51.52C41.0061 51.52 40.4199 52.1061 40.4199 52.83C40.4199 53.5538 41.0061 54.14 41.7299 54.14C42.4538 54.14 43.0399 53.5538 43.0399 52.83C43.0399 52.1061 42.4538 51.52 41.7299 51.52Z" fill="#616161" stroke="#616161"/>
<path d="M61.6909 51.52C60.967 51.52 60.3809 52.1061 60.3809 52.83C60.3809 53.5538 60.967 54.14 61.6909 54.14C62.4147 54.14 63.0009 53.5538 63.0009 52.83C63.0009 52.1061 62.4147 51.52 61.6909 51.52Z" fill="#616161" stroke="#616161"/>
<path d="M81.6498 51.52C80.926 51.52 80.3398 52.1061 80.3398 52.83C80.3398 53.5538 80.926 54.14 81.6498 54.14C82.3737 54.14 82.9598 53.5538 82.9598 52.83C82.9598 52.1061 82.3737 51.52 81.6498 51.52Z" fill="#616161" stroke="#616161"/>
<path d="M101.611 51.52C100.887 51.52 100.301 52.1061 100.301 52.83C100.301 53.5538 100.887 54.14 101.611 54.14C102.335 54.14 102.921 53.5538 102.921 52.83C102.921 52.1061 102.335 51.52 101.611 51.52Z" fill="#616161" stroke="#616161"/>
<path d="M121.57 51.52C120.846 51.52 120.26 52.1061 120.26 52.83C120.26 53.5538 120.846 54.14 121.57 54.14C122.294 54.14 122.88 53.5538 122.88 52.83C122.88 52.1061 122.294 51.52 121.57 51.52Z" fill="#616161" stroke="#616161"/>
<path d="M141.531 51.52C140.807 51.52 140.221 52.1061 140.221 52.83C140.221 53.5538 140.807 54.14 141.531 54.14C142.255 54.14 142.841 53.5538 142.841 52.83C142.841 52.1061 142.255 51.52 141.531 51.52Z" fill="#616161" stroke="#616161"/>
<path d="M161.49 51.52C160.766 51.52 160.18 52.1061 160.18 52.83C160.18 53.5538 160.766 54.14 161.49 54.14C162.214 54.14 162.8 53.5538 162.8 52.83C162.8 52.1061 162.214 51.52 161.49 51.52Z" fill="#616161" stroke="#616161"/>
<path d="M181.451 51.52C180.727 51.52 180.141 52.1061 180.141 52.83C180.141 53.5538 180.727 54.14 181.451 54.14C182.174 54.14 182.761 53.5538 182.761 52.83C182.761 52.1061 182.174 51.52 181.451 51.52Z" fill="#616161" stroke="#616161"/>
<path d="M201.41 51.52C200.686 51.52 200.1 52.1061 200.1 52.83C200.1 53.5538 200.686 54.14 201.41 54.14C202.133 54.14 202.72 53.5538 202.72 52.83C202.72 52.1061 202.133 51.52 201.41 51.52Z" fill="#616161" stroke="#616161"/>
<path d="M221.361 51.52C220.637 51.52 220.051 52.1061 220.051 52.83C220.051 53.552 220.645 54.14 221.361 54.14C222.085 54.14 222.671 53.5538 222.671 52.83C222.671 52.1061 222.085 51.52 221.361 51.52Z" fill="#616161" stroke="#616161"/>
<path d="M241.32 51.52C240.596 51.52 240.01 52.1061 240.01 52.83C240.01 53.5538 240.596 54.14 241.32 54.14C242.044 54.14 242.63 53.5538 242.63 52.83C242.63 52.1061 242.044 51.52 241.32 51.52Z" fill="#616161" stroke="#616161"/>
<path d="M1.81 34.52C1.08614 34.52 0.5 35.1061 0.5 35.83C0.5 36.5456 1.08794 37.14 1.81 37.14C2.53386 37.14 3.12 36.5538 3.12 35.83C3.12 35.1061 2.53386 34.52 1.81 34.52Z" fill="#616161" stroke="#616161"/>
<path d="M21.7709 34.52C21.0471 34.52 20.4609 35.1061 20.4609 35.83C20.4609 36.5456 21.0489 37.14 21.7709 37.14C22.4948 37.14 23.0809 36.5538 23.0809 35.83C23.0809 35.1061 22.4948 34.52 21.7709 34.52Z" fill="#616161" stroke="#616161"/>
<path d="M41.7299 34.52C41.0061 34.52 40.4199 35.1061 40.4199 35.83C40.4199 36.5456 41.0079 37.14 41.7299 37.14C42.4538 37.14 43.0399 36.5538 43.0399 35.83C43.0399 35.1061 42.4538 34.52 41.7299 34.52Z" fill="#616161" stroke="#616161"/>
<path d="M61.6909 34.52C60.967 34.52 60.3809 35.1061 60.3809 35.83C60.3809 36.5456 60.9688 37.14 61.6909 37.14C62.4147 37.14 63.0009 36.5538 63.0009 35.83C63.0009 35.1061 62.4147 34.52 61.6909 34.52Z" fill="#616161" stroke="#616161"/>
<path d="M81.6498 34.52C80.926 34.52 80.3398 35.1061 80.3398 35.83C80.3398 36.5456 80.9278 37.14 81.6498 37.14C82.3737 37.14 82.9598 36.5538 82.9598 35.83C82.9598 35.1061 82.3737 34.52 81.6498 34.52Z" fill="#616161" stroke="#616161"/>
<path d="M101.611 34.52C100.887 34.52 100.301 35.1061 100.301 35.83C100.301 36.5456 100.889 37.14 101.611 37.14C102.335 37.14 102.921 36.5538 102.921 35.83C102.921 35.1061 102.335 34.52 101.611 34.52Z" fill="#616161" stroke="#616161"/>
<path d="M121.57 34.52C120.846 34.52 120.26 35.1061 120.26 35.83C120.26 36.5456 120.848 37.14 121.57 37.14C122.294 37.14 122.88 36.5538 122.88 35.83C122.88 35.1061 122.294 34.52 121.57 34.52Z" fill="#616161" stroke="#616161"/>
<path d="M141.531 34.52C140.807 34.52 140.221 35.1061 140.221 35.83C140.221 36.5456 140.809 37.14 141.531 37.14C142.255 37.14 142.841 36.5538 142.841 35.83C142.841 35.1061 142.255 34.52 141.531 34.52Z" fill="#616161" stroke="#616161"/>
<path d="M161.49 34.52C160.766 34.52 160.18 35.1061 160.18 35.83C160.18 36.5456 160.768 37.14 161.49 37.14C162.214 37.14 162.8 36.5538 162.8 35.83C162.8 35.1061 162.214 34.52 161.49 34.52Z" fill="#616161" stroke="#616161"/>
<path d="M181.451 34.52C180.727 34.52 180.141 35.1061 180.141 35.83C180.141 36.5456 180.729 37.14 181.451 37.14C182.174 37.14 182.761 36.5538 182.761 35.83C182.761 35.1061 182.174 34.52 181.451 34.52Z" fill="#616161" stroke="#616161"/>
<path d="M201.41 34.52C200.686 34.52 200.1 35.1061 200.1 35.83C200.1 36.5456 200.688 37.14 201.41 37.14C202.133 37.14 202.72 36.5538 202.72 35.83C202.72 35.1061 202.133 34.52 201.41 34.52Z" fill="#616161" stroke="#616161"/>
<path d="M221.361 34.52C220.637 34.52 220.051 35.1061 220.051 35.83C220.051 36.5438 220.647 37.14 221.361 37.14C222.085 37.14 222.671 36.5538 222.671 35.83C222.671 35.1061 222.085 34.52 221.361 34.52Z" fill="#616161" stroke="#616161"/>
<path d="M241.32 34.52C240.596 34.52 240.01 35.1061 240.01 35.83C240.01 36.5456 240.598 37.14 241.32 37.14C242.044 37.14 242.63 36.5538 242.63 35.83C242.63 35.1061 242.044 34.52 241.32 34.52Z" fill="#616161" stroke="#616161"/>
<path d="M1.81 17.5102C1.08614 17.5102 0.5 18.0964 0.5 18.8202C0.5 19.5441 1.08614 20.1302 1.81 20.1302C2.53386 20.1302 3.12 19.5441 3.12 18.8202C3.12 18.0964 2.53385 17.5102 1.81 17.5102Z" fill="#616161" stroke="#616161"/>
<path d="M21.7709 17.5102C21.0471 17.5102 20.4609 18.0964 20.4609 18.8202C20.4609 19.5441 21.0471 20.1302 21.7709 20.1302C22.4948 20.1302 23.0809 19.5441 23.0809 18.8202C23.0809 18.0964 22.4948 17.5102 21.7709 17.5102Z" fill="#616161" stroke="#616161"/>
<path d="M41.7299 17.5102C41.0061 17.5102 40.4199 18.0964 40.4199 18.8202C40.4199 19.5441 41.0061 20.1302 41.7299 20.1302C42.4538 20.1302 43.0399 19.5441 43.0399 18.8202C43.0399 18.0964 42.4538 17.5102 41.7299 17.5102Z" fill="#616161" stroke="#616161"/>
<path d="M63.0009 18.8202C63.0009 18.0967 62.4143 17.5102 61.6909 17.5102C60.9674 17.5102 60.3809 18.0967 60.3809 18.8202C60.3809 19.5437 60.9674 20.1302 61.6909 20.1302C62.4143 20.1302 63.0009 19.5437 63.0009 18.8202Z" fill="#616161" stroke="#616161"/>
<path d="M82.9598 18.8202C82.9598 18.0967 82.3733 17.5102 81.6498 17.5102C80.9264 17.5102 80.3398 18.0967 80.3398 18.8202C80.3398 19.5437 80.9263 20.1302 81.6498 20.1302C82.3733 20.1302 82.9598 19.5437 82.9598 18.8202Z" fill="#616161" stroke="#616161"/>
<path d="M102.921 18.8202C102.921 18.0967 102.334 17.5102 101.611 17.5102C100.887 17.5102 100.301 18.0967 100.301 18.8202C100.301 19.5437 100.887 20.1302 101.611 20.1302C102.334 20.1302 102.921 19.5437 102.921 18.8202Z" fill="#616161" stroke="#616161"/>
<path d="M121.57 17.5102C120.846 17.5102 120.26 18.0964 120.26 18.8202C120.26 19.5441 120.846 20.1302 121.57 20.1302C122.294 20.1302 122.88 19.5441 122.88 18.8202C122.88 18.0964 122.294 17.5102 121.57 17.5102Z" fill="#616161" stroke="#616161"/>
<path d="M141.531 17.5102C140.807 17.5102 140.221 18.0964 140.221 18.8202C140.221 19.5441 140.807 20.1302 141.531 20.1302C142.255 20.1302 142.841 19.5441 142.841 18.8202C142.841 18.0964 142.255 17.5102 141.531 17.5102Z" fill="#616161" stroke="#616161"/>
<path d="M161.49 17.5102C160.766 17.5102 160.18 18.0964 160.18 18.8202C160.18 19.5441 160.766 20.1302 161.49 20.1302C162.214 20.1302 162.8 19.5441 162.8 18.8202C162.8 18.0964 162.214 17.5102 161.49 17.5102Z" fill="#616161" stroke="#616161"/>
<path d="M181.451 17.5102C180.727 17.5102 180.141 18.0964 180.141 18.8202C180.141 19.5441 180.727 20.1302 181.451 20.1302C182.174 20.1302 182.761 19.5441 182.761 18.8202C182.761 18.0964 182.174 17.5102 181.451 17.5102Z" fill="#616161" stroke="#616161"/>
<path d="M201.41 17.5102C200.686 17.5102 200.1 18.0964 200.1 18.8202C200.1 19.5441 200.686 20.1302 201.41 20.1302C202.133 20.1302 202.72 19.5441 202.72 18.8202C202.72 18.0964 202.133 17.5102 201.41 17.5102Z" fill="#616161" stroke="#616161"/>
<path d="M221.361 17.5102C220.637 17.5102 220.051 18.0964 220.051 18.8202C220.051 19.5423 220.645 20.1302 221.361 20.1302C222.085 20.1302 222.671 19.5441 222.671 18.8202C222.671 18.0964 222.085 17.5102 221.361 17.5102Z" fill="#616161" stroke="#616161"/>
<path d="M241.32 17.5102C240.596 17.5102 240.01 18.0964 240.01 18.8202C240.01 19.5441 240.596 20.1302 241.32 20.1302C242.044 20.1302 242.63 19.5441 242.63 18.8202C242.63 18.0964 242.044 17.5102 241.32 17.5102Z" fill="#616161" stroke="#616161"/>
<path d="M1.81 0.499954C1.08614 0.499954 0.5 1.08609 0.5 1.80995C0.5 2.53381 1.08615 3.11996 1.81 3.11996C2.53385 3.11996 3.12 2.53381 3.12 1.80995C3.12 1.0861 2.53386 0.499954 1.81 0.499954Z" fill="#616161" stroke="#616161"/>
<path d="M21.7709 0.499954C21.0471 0.499954 20.4609 1.08609 20.4609 1.80995C20.4609 2.53381 21.0471 3.11996 21.7709 3.11996C22.4948 3.11996 23.0809 2.53381 23.0809 1.80995C23.0809 1.0861 22.4948 0.499954 21.7709 0.499954Z" fill="#616161" stroke="#616161"/>
<path d="M41.7299 0.499954C41.0061 0.499954 40.4199 1.08609 40.4199 1.80995C40.4199 2.53381 41.0061 3.11996 41.7299 3.11996C42.4538 3.11996 43.0399 2.53381 43.0399 1.80995C43.0399 1.08609 42.4538 0.499954 41.7299 0.499954Z" fill="#616161" stroke="#616161"/>
<path d="M61.6909 0.499954C60.967 0.499954 60.3809 1.08609 60.3809 1.80995C60.3809 2.53381 60.967 3.11996 61.6909 3.11996C62.4147 3.11996 63.0009 2.53381 63.0009 1.80995C63.0009 1.08609 62.4147 0.499954 61.6909 0.499954Z" fill="#616161" stroke="#616161"/>
<path d="M81.6498 0.499954C80.926 0.499954 80.3398 1.08609 80.3398 1.80995C80.3398 2.53381 80.926 3.11996 81.6498 3.11996C82.3737 3.11996 82.9598 2.53381 82.9598 1.80995C82.9598 1.08609 82.3737 0.499954 81.6498 0.499954Z" fill="#616161" stroke="#616161"/>
<path d="M101.611 0.499954C100.887 0.499954 100.301 1.08609 100.301 1.80995C100.301 2.53381 100.887 3.11996 101.611 3.11996C102.335 3.11996 102.921 2.53381 102.921 1.80995C102.921 1.0861 102.335 0.499954 101.611 0.499954Z" fill="#616161" stroke="#616161"/>
<path d="M121.57 0.499954C120.846 0.499954 120.26 1.08609 120.26 1.80995C120.26 2.53381 120.846 3.11996 121.57 3.11996C122.294 3.11996 122.88 2.53381 122.88 1.80995C122.88 1.08609 122.294 0.499954 121.57 0.499954Z" fill="#616161" stroke="#616161"/>
<path d="M141.531 0.499954C140.807 0.499954 140.221 1.0861 140.221 1.80995C140.221 2.53381 140.807 3.11996 141.531 3.11996C142.255 3.11996 142.841 2.53381 142.841 1.80995C142.841 1.08609 142.255 0.499954 141.531 0.499954Z" fill="#616161" stroke="#616161"/>
<path d="M161.49 0.499954C160.766 0.499954 160.18 1.08609 160.18 1.80995C160.18 2.53381 160.766 3.11996 161.49 3.11996C162.214 3.11996 162.8 2.53381 162.8 1.80995C162.8 1.08609 162.214 0.499954 161.49 0.499954Z" fill="#616161" stroke="#616161"/>
<path d="M181.451 0.499985C180.727 0.499985 180.141 1.08612 180.141 1.80998C180.141 2.53385 180.727 3.12 181.451 3.11999C182.174 3.11999 182.761 2.53385 182.761 1.80998C182.761 1.08612 182.174 0.499985 181.451 0.499985Z" fill="#616161" stroke="#616161"/>
<path d="M201.41 0.499954C200.686 0.499954 200.1 1.08609 200.1 1.80995C200.1 2.53381 200.686 3.11996 201.41 3.11996C202.133 3.11996 202.72 2.53381 202.72 1.80995C202.72 1.08609 202.133 0.499954 201.41 0.499954Z" fill="#616161" stroke="#616161"/>
<path d="M221.361 0.499954C220.637 0.499954 220.051 1.08609 220.051 1.80995C220.051 2.53202 220.645 3.11996 221.361 3.11996C222.085 3.11996 222.671 2.53381 222.671 1.80995C222.671 1.08609 222.085 0.499954 221.361 0.499954Z" fill="#616161" stroke="#616161"/>
<path d="M241.32 0.499954C240.596 0.499954 240.01 1.08609 240.01 1.80995C240.01 2.53381 240.596 3.11996 241.32 3.11996C242.044 3.11996 242.63 2.5338 242.63 1.80995C242.63 1.0861 242.044 0.499954 241.32 0.499954Z" fill="#616161" stroke="#616161"/>
</svg>
