<svg width="263" height="586" viewBox="0 0 263 586" fill="none" xmlns="http://www.w3.org/2000/svg">
<path d="M223.986 385.3L223.886 385L223.786 385.4C222.286 390.1 218.686 393.7 213.986 395.2L213.586 395.3L214.086 395.5C218.686 397.2 222.286 400.8 224.086 405.4L224.386 406.1L224.486 405.7C225.986 401 229.586 397.4 234.286 395.9L234.686 395.8C229.686 394.2 225.686 390.3 223.986 385.3Z" fill="#AC72FF"/>
<path d="M255.586 417.1L255.486 416.9L255.386 417.1C254.386 420.2 251.986 422.7 248.786 423.7L248.586 423.8L248.886 423.9C251.986 425 254.386 427.5 255.586 430.5L255.786 431L255.886 430.8C256.886 427.7 259.286 425.2 262.486 424.2L262.686 424.1C259.386 423.1 256.786 420.4 255.586 417.1Z" fill="#AC72FF"/>
<path d="M87.5855 163.2L87.4855 163L87.3855 163.2C86.3855 166.3 83.9855 168.8 80.7855 169.8L80.5855 169.9L80.8855 170C83.9855 171.1 86.3855 173.6 87.5855 176.6L87.7855 177.1L87.8855 176.9C88.8855 173.8 91.2855 171.3 94.4855 170.3L94.6855 170.2C91.4855 169.1 88.7855 166.5 87.5855 163.2Z" fill="#AC72FF"/>
<path d="M254.9 120.8L260 130.2C261.2 132.4 260.8 135.1 259 136.8C256.7 139.1 252.8 138.9 250.7 136.4L250.5 136.1C249 134.3 248.8 131.9 249.9 129.9L254.9 120.8Z" fill="#AC72FF"/>
<path d="M-0.000396729 222.3C-0.000396729 223.6 0.999622 224.6 2.29962 224.6C3.59962 224.6 4.59961 223.6 4.59961 222.3C4.59961 221 3.59962 220 2.29962 220C0.999622 220 -0.000396729 221.1 -0.000396729 222.3Z" fill="#AC72FF"/>
<path d="M104.586 559.6C104.586 560.9 105.586 561.9 106.886 561.9C108.186 561.9 109.186 560.9 109.186 559.6C109.186 558.3 108.186 557.3 106.886 557.3C105.686 557.3 104.586 558.3 104.586 559.6Z" fill="#AC72FF"/>
<path d="M90.4 2.3C90.4 3.6 91.4 4.6 92.7 4.6C94 4.6 95 3.6 95 2.3C95 0.999999 94 0 92.7 0C91.4 0 90.4 0.999999 90.4 2.3Z" fill="#AC72FF"/>
<path d="M153.686 119.5C153.686 120.3 154.386 121 155.186 121C155.986 121 156.686 120.3 156.686 119.5C156.686 118.7 155.986 118 155.186 118C154.286 118 153.686 118.7 153.686 119.5Z" fill="#AC72FF"/>
<path d="M152.186 295.6C151.357 295.6 150.686 294.929 150.686 294.1C150.686 293.272 151.357 292.6 152.186 292.6C153.014 292.6 153.686 293.272 153.686 294.1C153.686 294.929 153.014 295.6 152.186 295.6Z" fill="#AC72FF"/>
<path d="M181.686 584.4C181.686 585.2 182.386 585.9 183.186 585.9C183.986 585.9 184.686 585.2 184.686 584.4C184.686 583.6 183.986 582.9 183.186 582.9C182.286 582.9 181.686 583.6 181.686 584.4Z" fill="#AC72FF"/>
<path d="M259.186 251C258.357 251 257.686 250.328 257.686 249.5C257.686 248.672 258.357 248 259.186 248C260.014 248 260.686 248.672 260.686 249.5C260.686 250.328 260.014 251 259.186 251Z" fill="#AC72FF"/>
<path d="M81.7852 500C80.9567 500 80.2852 499.328 80.2852 498.5C80.2852 497.672 80.9567 497 81.7852 497C82.6136 497 83.2852 497.672 83.2852 498.5C83.2852 499.328 82.6136 500 81.7852 500Z" fill="#AC72FF"/>
<path d="M185.185 341.3C185.185 342.6 186.185 343.6 187.485 343.6C188.785 343.6 189.785 342.6 189.785 341.3C189.785 340 188.785 339 187.485 339C186.185 339 185.185 340 185.185 341.3Z" fill="#AC72FF"/>
<path d="M247.9 10.4006C247.9 11.7006 248.9 12.7006 250.2 12.7006C251.5 12.7006 252.5 11.7006 252.5 10.4006C252.5 9.10059 251.5 8.10059 250.2 8.10059C248.9 8.10059 247.9 9.20059 247.9 10.4006Z" fill="#AC72FF"/>
</svg>
