<svg width="263" height="586" viewBox="0 0 263 586" fill="none" xmlns="http://www.w3.org/2000/svg">
<path d="M38.7 385.3L38.8 385L38.9 385.4C40.4 390.1 44 393.7 48.7 395.2L49.1 395.3L48.6 395.5C44 397.2 40.4 400.8 38.6 405.4L38.3 406.1L38.2 405.7C36.7 401 33.1 397.4 28.4 395.9L28 395.8C33 394.2 37 390.3 38.7 385.3Z" fill="#8F74FF"/>
<path d="M7.09998 417.1L7.20001 416.9L7.29999 417.1C8.29999 420.2 10.7 422.7 13.9 423.7L14.1 423.8L13.8 423.9C10.7 425 8.29998 427.5 7.09998 430.5L6.90002 431L6.79999 430.8C5.79999 427.7 3.40001 425.2 0.200012 424.2L0 424.1C3.3 423.1 5.89998 420.4 7.09998 417.1Z" fill="#8F74FF"/>
<path d="M175.1 163.2L175.2 163L175.3 163.2C176.3 166.3 178.7 168.8 181.9 169.8L182.1 169.9L181.8 170C178.7 171.1 176.3 173.6 175.1 176.6L174.9 177.1L174.8 176.9C173.8 173.8 171.4 171.3 168.2 170.3L168 170.2C171.2 169.1 173.9 166.5 175.1 163.2Z" fill="#8F74FF"/>
<path d="M7.78593 120.8L2.68594 130.2C1.48594 132.4 1.88594 135.1 3.68594 136.8C5.98594 139.1 9.88594 138.9 11.9859 136.4L12.1859 136.1C13.6859 134.3 13.8859 131.9 12.7859 129.9L7.78593 120.8Z" fill="#8F74FF"/>
<path d="M262.686 222.3C262.686 223.6 261.686 224.6 260.386 224.6C259.086 224.6 258.086 223.6 258.086 222.3C258.086 221 259.086 220 260.386 220C261.686 220 262.686 221.1 262.686 222.3Z" fill="#8F74FF"/>
<path d="M158.1 559.6C158.1 560.9 157.1 561.9 155.8 561.9C154.5 561.9 153.5 560.9 153.5 559.6C153.5 558.3 154.5 557.3 155.8 557.3C157 557.3 158.1 558.3 158.1 559.6Z" fill="#8F74FF"/>
<path d="M172.286 2.3C172.286 3.6 171.286 4.6 169.986 4.6C168.686 4.6 167.686 3.6 167.686 2.3C167.686 0.999999 168.686 0 169.986 0C171.286 0 172.286 0.999999 172.286 2.3Z" fill="#8F74FF"/>
<path d="M109 119.5C109 120.3 108.3 121 107.5 121C106.7 121 106 120.3 106 119.5C106 118.7 106.7 118 107.5 118C108.4 118 109 118.7 109 119.5Z" fill="#8F74FF"/>
<path d="M110.5 295.6C111.328 295.6 112 294.929 112 294.1C112 293.272 111.328 292.6 110.5 292.6C109.672 292.6 109 293.272 109 294.1C109 294.929 109.672 295.6 110.5 295.6Z" fill="#8F74FF"/>
<path d="M81 584.4C81 585.2 80.3 585.9 79.5 585.9C78.7 585.9 78 585.2 78 584.4C78 583.6 78.7 582.9 79.5 582.9C80.4 582.9 81 583.6 81 584.4Z" fill="#8F74FF"/>
<path d="M3.5 251C4.32843 251 5 250.328 5 249.5C5 248.672 4.32843 248 3.5 248C2.67157 248 2 248.672 2 249.5C2 250.328 2.67157 251 3.5 251Z" fill="#8F74FF"/>
<path d="M180.9 500C181.729 500 182.4 499.328 182.4 498.5C182.4 497.672 181.729 497 180.9 497C180.072 497 179.4 497.672 179.4 498.5C179.4 499.328 180.072 500 180.9 500Z" fill="#8F74FF"/>
<path d="M77.5004 341.3C77.5004 342.6 76.5004 343.6 75.2004 343.6C73.9004 343.6 72.9004 342.6 72.9004 341.3C72.9004 340 73.9004 339 75.2004 339C76.5004 339 77.5004 340 77.5004 341.3Z" fill="#8F74FF"/>
<path d="M14.7855 10.4006C14.7855 11.7006 13.7855 12.7006 12.4855 12.7006C11.1855 12.7006 10.1855 11.7006 10.1855 10.4006C10.1855 9.10059 11.1855 8.10059 12.4855 8.10059C13.7855 8.10059 14.7855 9.20059 14.7855 10.4006Z" fill="#8F74FF"/>
</svg>
