<svg width="253" height="126" viewBox="0 0 253 126" fill="none" xmlns="http://www.w3.org/2000/svg">
<path class="leaf one" d="M13.5991 8.90039C6.79907 22.6004 10.6991 44.8004 10.6991 44.8004L16.5991 50.2004C17.9991 38.9004 13.5991 8.90039 13.5991 8.90039Z" fill="#8DB867"/>
<path class="leaf two" d="M34.0994 45.1004C34.0994 45.1004 33.4994 35.5004 36.8994 28.9004C36.8994 28.9004 42.6994 44.0004 41.8994 48.5004C41.2994 52.9004 34.0994 45.1004 34.0994 45.1004Z" fill="#529C67"/>
<path class="leaf three" d="M48.9999 0C43.0999 13.5 47.8999 40 47.8999 40L52.6999 38.8C53.8999 30.2 48.9999 0 48.9999 0Z" fill="#8DB867"/>
<path class="leaf one" d="M51.4004 39.8996L57.3004 42.1996C60.6004 37.5996 65.5004 18.5996 65.5004 18.5996C59.6004 22.9996 51.4004 39.8996 51.4004 39.8996Z" fill="#8DB867"/>
<path class="leaf two" d="M80.4004 15.7998C84.0004 22.5998 87.5004 53.9998 87.5004 53.9998L92.6004 54.8998C94.3004 25.0998 80.4004 15.7998 80.4004 15.7998Z" fill="#529C67"/>
<path class="leaf three" d="M91.8008 56.8002L100.001 59.6002C100.001 59.6002 102.201 31.2002 106.401 18.7002C106.401 18.7002 94.3008 37.0002 91.8008 56.8002Z" fill="#8DB867"/>
<path class="leaf one" d="M108.201 37.5996C108.201 37.5996 102.401 52.6996 103.201 60.1996L110.701 61.8996C111.401 61.7996 109.801 43.3996 108.201 37.5996Z" fill="#529C67"/>
<path d="M126.9 83.9004C126.9 81.9004 126.8 80.0004 126.4 78.0004C125.9 75.3004 124.7 72.8004 123.4 70.5004C121 66.2004 117.9 62.1004 113.8 59.4004C109.7 56.6004 104.5 55.2004 99.7 56.3004C98.8 56.5004 98.1 56.8004 97.4 57.3004C96 53.7004 92.8 50.9004 89.2 49.9004C85.5 48.9004 81.2 49.8004 78.2 52.2004C77.9 45.8004 73.1 40.2004 67.2 37.7004C61.3 35.2004 54.5 35.5004 48.4 37.3004C46.4 37.9004 44.5 38.6004 42.8 39.8004C40.7 41.3004 39 43.6004 37.5 45.7004C35.9 43.6004 33.3 42.3004 30.6 42.1004C28.6 42.0004 26.5 42.6004 24.9 43.7004C23.3 44.9004 21.9 46.7004 21.5 48.7004C19 44.7004 13.3 43.2004 9.2 45.4004C7.6 46.3004 6.3 47.6004 5.1 48.9004C1.5 53.3004 -0.5 58.0004 -1 63.6004V125.1H125.6L126.4 97.3004C126.9 92.8004 127 88.4004 126.9 83.9004Z" fill="#427B63"/>
<path d="M33.1992 83.5996C33.5992 82.3996 33.9992 81.0996 34.3992 79.8996C34.9992 78.0996 35.5992 76.1996 36.5992 74.5996C36.9992 75.0996 37.2992 75.6996 37.4992 76.3996C38.5992 79.5996 39.4992 82.7996 39.7992 86.1996C39.7992 86.2996 39.7992 86.2996 39.7992 86.3996C39.6992 86.3996 39.5992 86.3996 39.6992 86.2996C38.5992 86.2996 37.2992 86.2996 36.2992 85.9996C35.2992 85.5996 33.8992 84.4996 33.1992 83.5996Z" fill="#7FA467"/>
<path d="M54.6992 75.3996C54.6992 74.2996 58.3992 63.3996 61.8992 59.5996C61.8992 59.5996 61.8992 75.7996 61.8992 76.9996C61.7992 78.1996 54.6992 75.3996 54.6992 75.3996Z" fill="#7FA467"/>
<path d="M45.0996 84.8004C45.0996 84.8004 45.5996 59.6004 56.2996 45.4004C56.2996 45.4004 55.9996 64.9004 57.6996 80.6004C59.3996 96.2004 45.0996 84.8004 45.0996 84.8004Z" fill="#8DB867"/>
<path d="M22 84.7998C25.8 76.4998 27.8 67.3998 27.8 58.2998C28.5 68.9998 32.1 79.2998 37.5 88.4998C36.6 90.3998 35.1 91.7998 33 92.2998C31 92.7998 28.8 92.2998 27.1 90.9998C26.4 90.4998 25.9 89.8998 25.3 89.2998C24.3 87.9998 23.1 85.9998 22 84.7998Z" fill="#8DB867"/>
<path d="M184.199 107.9C184.199 107.9 184.399 99.6996 184.699 97.0996C184.699 97.0996 190.099 108 189.699 108.9C189.299 109.9 184.199 107.9 184.199 107.9Z" fill="#529C67"/>
<path class="leaf three" d="M201.2 112.8C201.2 112.8 198.6 98.9004 193.1 93.4004C193.1 93.4004 192.2 109 194.2 111.5C196.2 114.1 201.2 112.8 201.2 112.8Z" fill="#8DB867"/>
<path d="M198.1 112.7C198.1 112.7 202.8 96.8 206.9 93.5C206.9 93.5 207.6 108.7 206.9 110C206.3 111.1 198.1 112.7 198.1 112.7Z" fill="#529C67"/>
<path class="leaf one" d="M252.301 91.5C252.301 91.5 236.101 114.1 234.301 125L246.801 125.1C246.801 125.1 253.301 102.7 252.301 91.5Z" fill="#529C67"/>
<path class="leaf two" d="M121.001 42.2998C112.101 55.4998 112.501 92.4998 112.501 92.4998L118.301 101.4C121.301 86.4998 121.001 42.2998 121.001 42.2998Z" fill="#8DB867"/>
<path d="M129.5 101.3L131.9 82.2002C131.9 82.2002 118.4 94.3002 117.6 102.7C116.7 111.1 129.5 101.3 129.5 101.3Z" fill="#7FA467"/>
<path d="M147.6 104.9C147.6 104.9 148.6 94.6004 152.7 88.9004C152.7 88.9004 157 104.9 156.6 107.7C156.3 110.3 147.6 104.9 147.6 104.9Z" fill="#8DB867"/>
<path d="M155.9 105.9C157 104.6 158.1 103.3 159.2 102C160.4 100.5 161.7 99.0001 163.4 98.2001C165.4 97.1001 167.9 97.1001 170.1 97.2001C171.8 97.3001 173.4 97.5001 175 98.1001C179.2 99.7001 181.8 104 184.1 107.9C186.4 105.8 189.9 105.6 192.9 106.3C195.9 107 198.6 109 200.6 111.4C204.8 104.7 211.5 100.6 219.3 100.5C221.2 100.5 223 100.7 224.8 101.3C229.6 103 232.8 107.5 235.3 112C237.6 116 240.8 120.9 242.5 125.1H152L155.9 105.9Z" fill="#427B63"/>
<path d="M170 125.1H-1V83.0997C0.7 79.0997 4.8 76.6997 9.1 75.5997C11.3 75.0997 13.6 74.9997 15.8 75.4997C18.3 76.0997 20.5 77.5997 22.5 79.1997C26 81.8997 29.2 84.9997 32 88.4997C33.8 85.6997 36.3 82.8997 39.5 81.9997C40.6 81.6997 41.8 81.4997 42.9 81.4997C46.1 81.2997 49.6 81.6997 52.2 83.5997C53.9 79.1997 57.3 75.7997 60.7 72.4997C62.6 70.5997 64.5 68.7997 66.9 67.3997C71 65.0997 75.9 64.6997 80.6 64.8997C83.1 64.9997 85.7 65.1997 88 66.3997C92.3 68.5997 94.4 73.4997 96.5 77.8997C98.8 82.8997 101.3 87.7997 104.1 92.4997C106 90.8997 108.6 89.9997 111 90.3997C113.4 90.7997 115.2 92.6997 116.7 94.5997C118.9 97.2997 120.8 100.2 122.5 103.2C126.4 99.1997 131.5 96.2997 137 95.4997C138.7 95.2997 140.4 95.1997 142 95.5997C143.7 95.9997 145.2 96.9997 146.6 98.0997C148.8 99.9997 150.7 102.3 151.9 105C153 105 154.1 105.2 155.2 105C164.1 103 167.7 119.7 170 125.1Z" fill="#529C67"/>
<path d="M116.7 125.1H-1C-0.7 119.2 1.2 113 4.8 108.4C6.1 106.8 7.8 105.2 9.9 105.3C12.1 105.4 13.7 107.5 15 109.3C15.9 110.7 16.9 112 17.8 113.4C18.8 109.3 20.7 105.7 23.7 102.6C25.5 100.7 27.8 99.1003 30.4 99.0003C33.3 99.0003 35.9 100.9 38 102.9C41.9 106.6 45.2 110.8 47.9 115.4C47.8 112.8 49.4 110.4 51.7 109.2C54 108 56.8 108.1 59.2 109.1C58.8 107.4 60.5 105.7 62.2 105.7C64 105.6 65.6 106.8 66.7 108.2C69.2 106.2 70.9 103.1 73.4 101C78 97.0003 85.3 95.6003 90.4 99.0003C95.7 102.4 97.4 109.2 98.7 115.3C100.7 112.9 104.3 111.8 107.4 112.3C110.5 112.8 113.3 114.9 114.6 117.8C115.6 119.8 116.6 122.8 116.7 125.1Z" fill="#8DB867"/>
<style>
            
            .leaf{
                animation: 2s ease-in-out infinite leafMotion;
                -webkit-animation: 2s ease-in-out infinite leafMotion;
                -moz-animation: 2s ease-in-out infinite leafMotion;
                transform-origin: left bottom;
            }
            .one{
                animation-duration: 2.3s;
                -webkit-animation-duration: 2.3s;
                -moz-animation-duration: 2.3s;
            }
            .two{
                animation-duration: 2.7s;
                -webkit-animation-duration: 2.7s;
                -moz-animation-duration: 2.7s;
                transform-origin: 40px 100px;
            }
            .three{
                animation-duration: 3s;
                -webkit-animation-duration: 3s;
                -moz-animation-duration: 3s;
                transform-origin: 40px 100px;
            }
            @keyframes leafMotion {
                50% {
                  transform: rotate(4deg)
                }
              }

                @-webkit-keyframes leafMotion {
                50% {
                  -webkit-transform: rotate(4deg)
                }
              }

                @-moz-keyframes leafMotion {
                50% {
                  -moz-transform: rotate(4deg)
                }
              }
        </style>
</svg>