<svg width="343" height="26" viewBox="0 0 343 26" fill="none" xmlns="http://www.w3.org/2000/svg">
<path fill-rule="evenodd" clip-rule="evenodd" d="M4.3176 13.461L28.6932 12.404L51.0374 11.3471L72.8013 10.114C75.9933 9.93782 79.3305 9.58551 82.6676 9.58551L97.1769 9.23319H105.157L120.101 9.58551L142.446 10.6425L188.15 12.9325L210.639 14.3418L232.984 15.5749C247.057 16.2795 261.131 16.808 275.06 17.8649L286.668 18.7457L299.581 19.9788L310.753 21.2119L315.396 21.7404L320.765 22.6212L328.309 23.6782L337.885 25.7921L338.756 25.9682C339.49 26.0102 340.215 25.7567 340.819 25.2471C341.422 24.7374 341.87 24.0001 342.093 23.1497C342.383 22.0927 342.238 20.8596 341.803 19.8027C341.513 19.098 340.642 18.0411 339.917 17.8649L333.823 16.4557L327.729 15.2226C321.117 14.1456 314.49 13.2059 307.851 12.404C308.402 11.943 308.832 11.2991 309.089 10.5493C309.346 9.79959 309.42 8.9757 309.302 8.17624C309.012 7.11929 308.432 6.06234 307.851 5.53387L306.255 4.65308C305.006 4.35742 303.748 4.12236 302.483 3.94845L299.581 3.41997L294.068 3.06766L283.186 2.36302L260.696 1.48223L238.352 0.953758L226.599 0.601442H191.197L168.272 0.249125C154.198 0.0729671 139.834 -0.103191 125.615 0.0729671H104.431C96.8867 0.0729671 89.3419 0.0729671 81.797 0.425283L66.8525 0.601442L58.292 0.7776L44.6533 1.48223L35.6576 2.01071C24.9207 2.8915 14.329 3.77229 3.73723 5.00539C3.01177 5.18155 2.57649 5.53387 2.14121 6.06234C1.41575 6.76698 0.980469 7.82392 0.980469 8.88087C0.980469 11.1709 2.43139 13.2848 4.3176 13.2848" fill="#FFC600">
</path>
</svg>
