<svg width="90" height="97" viewBox="0 0 90 97" fill="none" xmlns="http://www.w3.org/2000/svg">
<path d="M51.0435 32.1295H66.8914V4.20312H38.965V18.9658H23.1171V46.8922H51.0435V32.1295ZM39.6526 4.88245H66.2121V31.442H51.0518H47.0753H39.6526V22.934H42.2538V28.8407H47.0753H51.0518H63.6108V7.48368H42.2538V18.9575H39.6526V4.88245ZM47.067 32.1295V42.9157H27.0852V22.934H38.9567V32.1295H47.067ZM47.067 28.1531H42.9331V22.934H47.067V28.1531ZM51.0435 28.1531V18.9575H42.9331V8.1713H62.9149V28.1531H51.0435ZM50.3559 46.2046H23.7964V19.6451H38.9567H42.9331H50.3559V28.1531H47.7546V22.2463H42.9331H38.9567H26.3977V43.6033H47.7546V32.1295H50.3559V46.2046Z" fill="#171717"/>
<path d="M19.853 0.400391V50.6945H70.1471V0.400391H19.853ZM69.4678 50.0069H20.5489V1.088H69.4678V50.0069Z" fill="#171717"/>
<path d="M10.4418 83.5966C8.46633 83.5966 6.67902 83.1639 5.07985 82.2985C3.49949 81.4142 2.25778 80.2102 1.35472 78.6862C0.451653 77.1435 0.00012207 75.4126 0.00012207 73.4936C0.00012207 71.5746 0.451653 69.8532 1.35472 68.3292C2.25778 66.7865 3.5089 65.5824 5.10807 64.717C6.70724 63.8327 8.49455 63.3906 10.47 63.3906C12.0127 63.3906 13.4238 63.654 14.7031 64.1808C15.9824 64.6888 17.0736 65.4507 17.9767 66.4667L16.1424 68.2446C14.6561 66.683 12.8029 65.9023 10.5829 65.9023C9.11541 65.9023 7.78904 66.2315 6.60377 66.89C5.4185 67.5485 4.48721 68.4609 3.80992 69.6274C3.15143 70.775 2.82219 72.0638 2.82219 73.4936C2.82219 74.9235 3.15143 76.2216 3.80992 77.3881C4.48721 78.5357 5.4185 79.4388 6.60377 80.0973C7.78904 80.7558 9.11541 81.085 10.5829 81.085C12.7841 81.085 14.6373 80.2948 16.1424 78.7145L17.9767 80.4924C17.0736 81.5083 15.973 82.2797 14.6749 82.8065C13.3955 83.3333 11.9845 83.5966 10.4418 83.5966Z" fill="#171717"/>
<path d="M30.1039 83.5966C27.47 83.5966 25.4193 82.8441 23.9518 81.339C22.4843 79.8339 21.7506 77.6703 21.7506 74.8482V63.6164H24.5726V74.7353C24.5726 78.9685 26.4258 81.085 30.1321 81.085C31.9382 81.085 33.3211 80.5676 34.2806 79.5329C35.2401 78.4793 35.7198 76.8801 35.7198 74.7353V63.6164H38.4572V74.8482C38.4572 77.6891 37.7235 79.8621 36.256 81.3672C34.7885 82.8535 32.7378 83.5966 30.1039 83.5966Z" fill="#171717"/>
<path d="M57.5349 73.1268C58.6825 73.4466 59.5856 74.0298 60.244 74.8764C60.9025 75.7043 61.2318 76.7578 61.2318 78.0372C61.2318 79.7492 60.5827 81.0662 59.2845 81.9881C58.0052 82.9099 56.1332 83.3709 53.6686 83.3709H44.2429V63.6164H53.1042C55.3619 63.6164 57.1021 64.0679 58.325 64.971C59.5667 65.874 60.1876 67.1252 60.1876 68.7243C60.1876 69.7591 59.943 70.6528 59.4539 71.4053C58.9835 72.1579 58.3439 72.7317 57.5349 73.1268ZM47.065 65.9023V72.2237H52.8502C54.2989 72.2237 55.4089 71.9603 56.1803 71.4335C56.9704 70.8879 57.3655 70.0977 57.3655 69.063C57.3655 68.0282 56.9704 67.2475 56.1803 66.7207C55.4089 66.1751 54.2989 65.9023 52.8502 65.9023H47.065ZM53.5557 81.085C55.1549 81.085 56.359 80.8216 57.168 80.2948C57.977 79.768 58.3815 78.9402 58.3815 77.8114C58.3815 75.6102 56.7729 74.5096 53.5557 74.5096H47.065V81.085H53.5557Z" fill="#171717"/>
<path d="M65.6013 63.6164H68.4234V83.3709H65.6013V63.6164Z" fill="#171717"/>
<path d="M86.7547 83.3709L80.8284 75.2151L74.9867 83.3709H71.7413L79.1634 73.2396L72.1929 63.6164H75.41L80.9413 71.2078L86.4161 63.6164H89.4921L82.5216 73.155L90.0001 83.3709H86.7547Z" fill="#171717"/>
<path d="M0.894043 96.1438V90.7634H2.41283C2.8809 90.7634 3.29478 90.8668 3.65446 91.0738C4.01414 91.2807 4.29129 91.5751 4.48591 91.957C4.683 92.3388 4.78277 92.7773 4.78524 93.2725V93.6162C4.78524 94.1237 4.68669 94.5683 4.48961 94.9502C4.29499 95.332 4.01537 95.6252 3.65077 95.8297C3.28862 96.0341 2.86612 96.1388 2.38327 96.1438H0.894043ZM1.60355 91.3472V95.5636H2.35001C2.89692 95.5636 3.32188 95.3936 3.6249 95.0536C3.93038 94.7137 4.08312 94.2296 4.08312 93.6014V93.2873C4.08312 92.6763 3.939 92.2021 3.65077 91.8646C3.36499 91.5246 2.95851 91.3522 2.4313 91.3472H1.60355Z" fill="#171717"/>
<path d="M8.90184 93.6568H6.57009V95.5636H9.27877V96.1438H5.86058V90.7634H9.24182V91.3472H6.57009V93.0766H8.90184V93.6568Z" fill="#171717"/>
<path d="M11.7473 93.7455C11.1388 93.5706 10.6953 93.3563 10.4169 93.1025C10.141 92.8463 10.0031 92.531 10.0031 92.1565C10.0031 91.7328 10.1718 91.3829 10.5093 91.107C10.8493 90.8286 11.2903 90.6895 11.8322 90.6895C12.2018 90.6895 12.5307 90.7609 12.8189 90.9038C13.1096 91.0467 13.3338 91.2438 13.4915 91.495C13.6516 91.7463 13.7317 92.021 13.7317 92.3191H13.0185C13.0185 91.9939 12.915 91.7389 12.708 91.5542C12.5011 91.3669 12.2092 91.2733 11.8322 91.2733C11.4824 91.2733 11.209 91.3509 11.0119 91.5061C10.8173 91.6589 10.72 91.872 10.72 92.1454C10.72 92.3647 10.8123 92.5507 10.9971 92.7034C11.1843 92.8537 11.5009 92.9916 11.9468 93.1173C12.3952 93.2429 12.745 93.3821 12.9963 93.5349C13.25 93.6851 13.4373 93.8613 13.558 94.0633C13.6812 94.2653 13.7427 94.503 13.7427 94.7765C13.7427 95.2125 13.5728 95.5624 13.2328 95.826C12.8928 96.0871 12.4383 96.2177 11.8692 96.2177C11.4997 96.2177 11.1548 96.1475 10.8345 96.007C10.5142 95.8642 10.2667 95.6695 10.0917 95.4232C9.9193 95.1768 9.83307 94.8972 9.83307 94.5843H10.5463C10.5463 94.9095 10.6658 95.167 10.9047 95.3567C11.1461 95.5439 11.4676 95.6375 11.8692 95.6375C12.2437 95.6375 12.5307 95.5611 12.7302 95.4084C12.9298 95.2557 13.0295 95.0475 13.0295 94.7839C13.0295 94.5203 12.9372 94.317 12.7524 94.1742C12.5676 94.0288 12.2326 93.8859 11.7473 93.7455Z" fill="#171717"/>
<path d="M15.4167 96.1438H14.7072V90.7634H15.4167V96.1438Z" fill="#171717"/>
<path d="M20.69 95.438C20.5077 95.6991 20.2527 95.895 19.925 96.0255C19.5999 96.1536 19.2205 96.2177 18.7869 96.2177C18.3484 96.2177 17.9591 96.1154 17.6192 95.911C17.2792 95.704 17.0156 95.4109 16.8284 95.0315C16.6436 94.6521 16.5487 94.2123 16.5438 93.7122V93.2429C16.5438 92.4324 16.7323 91.8042 17.1092 91.3583C17.4886 90.9124 18.0207 90.6895 18.7056 90.6895C19.2673 90.6895 19.7193 90.8336 20.0618 91.1218C20.4042 91.4076 20.6136 91.8141 20.69 92.3413H19.9805C19.8474 91.6293 19.4237 91.2733 18.7093 91.2733C18.2338 91.2733 17.8729 91.4408 17.6265 91.7759C17.3827 92.1085 17.2595 92.5913 17.257 93.2245V93.6642C17.257 94.2678 17.395 94.7482 17.6709 95.1054C17.9468 95.4601 18.32 95.6375 18.7906 95.6375C19.0566 95.6375 19.2894 95.608 19.489 95.5488C19.6885 95.4897 19.8536 95.3899 19.9842 95.2495V94.0411H18.7388V93.4647H20.69V95.438Z" fill="#171717"/>
<path d="M26.0113 96.1438H25.2981L22.5894 91.9976V96.1438H21.8762V90.7634H22.5894L25.3055 94.928V90.7634H26.0113V96.1438Z" fill="#171717"/>
<path d="M30.7339 93.7455C30.1254 93.5706 29.682 93.3563 29.4036 93.1025C29.1277 92.8463 28.9897 92.531 28.9897 92.1565C28.9897 91.7328 29.1585 91.3829 29.496 91.107C29.8359 90.8286 30.2769 90.6895 30.8189 90.6895C31.1884 90.6895 31.5173 90.7609 31.8056 90.9038C32.0963 91.0467 32.3204 91.2438 32.4781 91.495C32.6382 91.7463 32.7183 92.021 32.7183 92.3191H32.0051C32.0051 91.9939 31.9016 91.7389 31.6947 91.5542C31.4878 91.3669 31.1958 91.2733 30.8189 91.2733C30.4691 91.2733 30.1956 91.3509 29.9985 91.5061C29.8039 91.6589 29.7066 91.872 29.7066 92.1454C29.7066 92.3647 29.799 92.5507 29.9838 92.7034C30.171 92.8537 30.4876 92.9916 30.9335 93.1173C31.3818 93.2429 31.7317 93.3821 31.9829 93.5349C32.2367 93.6851 32.4239 93.8613 32.5446 94.0633C32.6678 94.2653 32.7294 94.503 32.7294 94.7765C32.7294 95.2125 32.5594 95.5624 32.2194 95.826C31.8795 96.0871 31.4249 96.2177 30.8559 96.2177C30.4863 96.2177 30.1414 96.1475 29.8212 96.007C29.5009 95.8642 29.2533 95.6695 29.0784 95.4232C28.906 95.1768 28.8197 94.8972 28.8197 94.5843H29.5329C29.5329 94.9095 29.6524 95.167 29.8914 95.3567C30.1328 95.5439 30.4543 95.6375 30.8559 95.6375C31.2303 95.6375 31.5173 95.5611 31.7169 95.4084C31.9164 95.2557 32.0162 95.0475 32.0162 94.7839C32.0162 94.5203 31.9238 94.317 31.739 94.1742C31.5543 94.0288 31.2192 93.8859 30.7339 93.7455Z" fill="#171717"/>
<path d="M37.3597 91.3472H35.6302V96.1438H34.9244V91.3472H33.1987V90.7634H37.3597V91.3472Z" fill="#171717"/>
<path d="M41.9456 90.7634V94.4217C41.9431 94.9292 41.783 95.3443 41.4652 95.6671C41.1498 95.9898 40.7212 96.1709 40.1792 96.2103L39.9907 96.2177C39.402 96.2177 38.9326 96.0588 38.5828 95.741C38.233 95.4232 38.0556 94.9859 38.0507 94.4291V90.7634H38.7528V94.407C38.7528 94.7962 38.86 95.0992 39.0743 95.316C39.2886 95.5303 39.5941 95.6375 39.9907 95.6375C40.3923 95.6375 40.699 95.5303 40.9109 95.316C41.1252 95.1017 41.2324 94.7999 41.2324 94.4107V90.7634H41.9456Z" fill="#171717"/>
<path d="M43.0653 96.1438V90.7634H44.5841C45.0521 90.7634 45.466 90.8668 45.8257 91.0738C46.1854 91.2807 46.4625 91.5751 46.6571 91.957C46.8542 92.3388 46.954 92.7773 46.9565 93.2725V93.6162C46.9565 94.1237 46.8579 94.5683 46.6608 94.9502C46.4662 95.332 46.1866 95.6252 45.822 95.8297C45.4598 96.0341 45.0373 96.1388 44.5545 96.1438H43.0653ZM43.7748 91.3472V95.5636H44.5212C45.0681 95.5636 45.4931 95.3936 45.7961 95.0536C46.1016 94.7137 46.2543 94.2296 46.2543 93.6014V93.2873C46.2543 92.6763 46.1102 92.2021 45.822 91.8646C45.5362 91.5246 45.1297 91.3522 44.6025 91.3472H43.7748Z" fill="#171717"/>
<path d="M48.793 96.1438H48.0835V90.7634H48.793V96.1438Z" fill="#171717"/>
<path d="M54.2326 93.6272C54.2326 94.1545 54.1439 94.6151 53.9665 95.0093C53.7891 95.401 53.5379 95.7003 53.2127 95.9073C52.8875 96.1142 52.5081 96.2177 52.0745 96.2177C51.6508 96.2177 51.2751 96.1142 50.9474 95.9073C50.6198 95.6979 50.3648 95.401 50.1825 95.0167C50.0027 94.6299 49.9103 94.1828 49.9053 93.6753V93.2873C49.9053 92.7699 49.9953 92.3129 50.1751 91.9163C50.3549 91.5197 50.6087 91.2167 50.9363 91.0073C51.2665 90.7954 51.6434 90.6895 52.0671 90.6895C52.4982 90.6895 52.8776 90.7942 53.2053 91.0036C53.5354 91.2105 53.7891 91.5123 53.9665 91.9089C54.1439 92.3031 54.2326 92.7625 54.2326 93.2873V93.6272ZM53.5268 93.2799C53.5268 92.6418 53.3987 92.1528 53.1425 91.8128C52.8862 91.4704 52.5278 91.2992 52.0671 91.2992C51.6187 91.2992 51.2652 91.4704 51.0066 91.8128C50.7503 92.1528 50.6185 92.6258 50.6111 93.2318V93.6272C50.6111 94.2456 50.7405 94.7322 50.9992 95.0869C51.2603 95.4392 51.6187 95.6153 52.0745 95.6153C52.5327 95.6153 52.8875 95.4491 53.1388 95.1165C53.39 94.7814 53.5194 94.3023 53.5268 93.679V93.2799Z" fill="#171717"/>
</svg>
