<svg width="90" height="88" viewBox="0 0 90 88" fill="none" xmlns="http://www.w3.org/2000/svg">
<path d="M23.7587 86.655V86.4732C23.8831 86.47 23.982 86.4605 24.0553 86.4445C24.1319 86.4286 24.1893 86.4015 24.2276 86.3632C24.2691 86.3249 24.2962 86.2707 24.3089 86.2005C24.3249 86.1303 24.3329 86.0394 24.3329 85.9277V83.698C24.3329 83.5864 24.3265 83.497 24.3137 83.43C24.3041 83.3599 24.2818 83.3056 24.2467 83.2674C24.2148 83.2259 24.167 83.1988 24.1032 83.186C24.0394 83.1701 23.9564 83.1589 23.8544 83.1525V82.9707H25.285C25.7157 82.9707 26.0506 83.0473 26.2899 83.2004C26.5291 83.3535 26.6487 83.5688 26.6487 83.8463C26.6487 84.0569 26.5817 84.2291 26.4478 84.3631C26.317 84.4971 26.108 84.6071 25.8209 84.6933V84.7124C25.9198 84.722 26.006 84.7331 26.0793 84.7459C26.1527 84.7586 26.2181 84.7746 26.2755 84.7937C26.3329 84.8097 26.3856 84.8304 26.4334 84.8559C26.4844 84.8815 26.5339 84.9102 26.5817 84.9421C26.8656 85.143 27.0076 85.395 27.0076 85.6981C27.0076 85.8671 26.9597 86.025 26.864 86.1718C26.7715 86.3153 26.6408 86.4286 26.4717 86.5115C26.4175 86.5402 26.3616 86.5641 26.3042 86.5833C26.2468 86.5992 26.1798 86.6136 26.1033 86.6263C26.0267 86.6359 25.9374 86.6439 25.8353 86.6503C25.7364 86.6535 25.6184 86.655 25.4812 86.655H23.7587ZM25.4956 86.4493C26.0729 86.4493 26.3616 86.2021 26.3616 85.7076C26.3616 85.3472 26.2133 85.0952 25.9166 84.9516C25.8656 84.9293 25.8162 84.9102 25.7683 84.8942C25.7205 84.8783 25.6646 84.8671 25.6008 84.8607C25.537 84.8512 25.4605 84.8448 25.3712 84.8416C25.285 84.8384 25.1782 84.8368 25.0506 84.8368H24.8353V85.9038C24.8353 86.0984 24.8863 86.2388 24.9884 86.3249C25.0905 86.4078 25.2595 86.4493 25.4956 86.4493ZM25.1032 84.5976C25.2021 84.5976 25.285 84.596 25.352 84.5928C25.419 84.5896 25.4764 84.5848 25.5243 84.5784C25.5721 84.5688 25.6136 84.5577 25.6487 84.5449C25.687 84.529 25.7252 84.5082 25.7635 84.4827C25.8656 84.4189 25.9374 84.3424 25.9788 84.253C26.0235 84.1637 26.0458 84.0473 26.0458 83.9037C26.0458 83.6517 25.9836 83.4715 25.8592 83.3631C25.738 83.2514 25.5466 83.1956 25.285 83.1956H24.9166C24.8624 83.1956 24.8353 83.2227 24.8353 83.2769V84.5976H25.1032Z" fill="#171717"/>
<path d="M29.5082 82.9229C29.7889 82.9229 30.0505 82.9723 30.2929 83.0712C30.5353 83.1701 30.7459 83.3056 30.9245 83.4779C31.1031 83.6502 31.2435 83.8527 31.3456 84.0856C31.4476 84.3184 31.4987 84.5704 31.4987 84.8416C31.4987 85.1 31.446 85.3424 31.3408 85.5689C31.2387 85.7954 31.0983 85.9931 30.9197 86.1622C30.7411 86.3281 30.5305 86.4605 30.2881 86.5594C30.0457 86.655 29.7857 86.7029 29.5082 86.7029C29.2306 86.7029 28.9707 86.655 28.7282 86.5594C28.4858 86.4605 28.2753 86.3281 28.0966 86.1622C27.918 85.9931 27.776 85.7954 27.6708 85.5689C27.5687 85.3424 27.5177 85.1 27.5177 84.8416C27.5177 84.5704 27.5687 84.3184 27.6708 84.0856C27.7729 83.8527 27.9132 83.6502 28.0919 83.4779C28.2705 83.3056 28.481 83.1701 28.7235 83.0712C28.9659 82.9723 29.2275 82.9229 29.5082 82.9229ZM29.5082 86.4397C29.7187 86.4397 29.9069 86.403 30.0728 86.3297C30.2419 86.2563 30.3854 86.151 30.5034 86.0139C30.6246 85.8767 30.7171 85.7108 30.7809 85.5163C30.8447 85.3185 30.8766 85.0984 30.8766 84.8559C30.8766 84.6007 30.8447 84.3711 30.7809 84.1669C30.7171 83.9596 30.6262 83.7841 30.5082 83.6406C30.3902 83.4938 30.2466 83.3822 30.0776 83.3056C29.9085 83.2259 29.7187 83.186 29.5082 83.186C29.2976 83.186 29.1078 83.2259 28.9388 83.3056C28.7697 83.3822 28.6262 83.4938 28.5081 83.6406C28.3901 83.7841 28.2992 83.9596 28.2354 84.1669C28.1716 84.3711 28.1397 84.6007 28.1397 84.8559C28.1397 85.0984 28.1716 85.3185 28.2354 85.5163C28.2992 85.7108 28.3901 85.8767 28.5081 86.0139C28.6262 86.151 28.7697 86.2563 28.9388 86.3297C29.1078 86.403 29.2976 86.4397 29.5082 86.4397Z" fill="#171717"/>
<path d="M35.1714 85.1717C35.1714 85.4237 35.1459 85.6454 35.0948 85.8368C35.047 86.0282 34.9672 86.1877 34.8556 86.3153C34.7471 86.4429 34.6052 86.5402 34.4297 86.6072C34.2543 86.671 34.0422 86.7029 33.7934 86.7029C33.5573 86.7029 33.3516 86.6806 33.1761 86.6359C33.0007 86.5881 32.8539 86.5115 32.7359 86.4062C32.6179 86.2978 32.5302 86.1574 32.4727 85.9852C32.4153 85.8129 32.3866 85.6008 32.3866 85.3488V84.0856C32.3866 83.8495 32.3802 83.6677 32.3675 83.5401C32.3579 83.4125 32.326 83.3184 32.2718 83.2578C32.2335 83.2163 32.1809 83.1892 32.1139 83.1764C32.0501 83.1605 31.9639 83.1525 31.8555 83.1525V82.9707H33.4871V83.1525C33.3787 83.1525 33.2909 83.1589 33.224 83.1717C33.157 83.1844 33.1043 83.2163 33.0661 83.2674C33.0214 83.3248 32.9927 83.4173 32.9799 83.5449C32.9672 83.6693 32.9608 83.8495 32.9608 84.0856V85.3871C32.9608 85.5497 32.9767 85.6949 33.0086 85.8225C33.0437 85.9469 33.0996 86.0538 33.1761 86.1431C33.2527 86.2292 33.3516 86.2946 33.4728 86.3392C33.5972 86.3839 33.7487 86.4062 33.9273 86.4062C34.2463 86.4062 34.4856 86.3185 34.6451 86.1431C34.8046 85.9644 34.8843 85.7029 34.8843 85.3583V84.2052C34.8843 83.9213 34.8731 83.706 34.8508 83.5592C34.8285 83.4125 34.787 83.3088 34.7264 83.2482C34.6817 83.2068 34.6259 83.1812 34.5589 83.1717C34.4919 83.1589 34.409 83.1525 34.3101 83.1525V82.9707H35.6977V83.1525C35.5957 83.1525 35.5111 83.1605 35.4441 83.1764C35.3803 83.1924 35.3293 83.2275 35.291 83.2817C35.2432 83.3487 35.2113 83.454 35.1953 83.5975C35.1794 83.7379 35.1714 83.9404 35.1714 84.2052V85.1717Z" fill="#171717"/>
<path d="M39.599 83.8846H39.4028C39.3932 83.7474 39.3709 83.6326 39.3358 83.5401C39.3007 83.4476 39.2497 83.3758 39.1827 83.3248C39.1189 83.2706 39.0375 83.2323 38.9387 83.2099C38.8398 83.1876 38.7217 83.1764 38.5846 83.1764C38.4666 83.1764 38.3709 83.1796 38.2975 83.186C38.2273 83.1892 38.1731 83.1972 38.1348 83.2099C38.0965 83.2227 38.071 83.2387 38.0582 83.2578C38.0487 83.2737 38.0439 83.2961 38.0439 83.3248V85.8847C38.0439 85.9868 38.0503 86.0745 38.063 86.1479C38.079 86.2212 38.1077 86.2818 38.1492 86.3297C38.1938 86.3743 38.256 86.4094 38.3358 86.4349C38.4187 86.4573 38.5272 86.47 38.6611 86.4732V86.655H36.8525V86.4732C36.9864 86.47 37.0949 86.4573 37.1778 86.4349C37.2608 86.4094 37.323 86.3743 37.3644 86.3297C37.4091 86.2818 37.4378 86.2212 37.4506 86.1479C37.4665 86.0745 37.4745 85.9868 37.4745 85.8847V83.3248C37.4745 83.2961 37.4681 83.2737 37.4554 83.2578C37.4458 83.2387 37.4235 83.2227 37.3884 83.2099C37.3565 83.1972 37.3102 83.1892 37.2496 83.186C37.189 83.1796 37.1076 83.1764 37.0056 83.1764C36.8812 83.1764 36.7647 83.1812 36.6563 83.1908C36.551 83.2004 36.4585 83.2291 36.3788 83.2769C36.3022 83.3216 36.24 83.3918 36.1921 83.4875C36.1443 83.5832 36.1188 83.7155 36.1156 83.8846H35.9385V82.9707H39.5511L39.599 83.8846Z" fill="#171717"/>
<path d="M40.9231 85.7507C40.9231 85.9102 40.9295 86.0362 40.9422 86.1287C40.955 86.2212 40.9789 86.293 41.014 86.344C41.0523 86.3951 41.1049 86.4286 41.1719 86.4445C41.2421 86.4605 41.333 86.47 41.4447 86.4732V86.655H39.8944V86.4732C40.006 86.47 40.0953 86.4605 40.1623 86.4445C40.2325 86.4254 40.2867 86.3919 40.325 86.344C40.3633 86.2962 40.3888 86.2292 40.4016 86.1431C40.4143 86.0538 40.4207 85.9341 40.4207 85.7842V83.8415C40.4207 83.7076 40.4143 83.5975 40.4016 83.5114C40.392 83.4221 40.3697 83.3519 40.3346 83.3009C40.3027 83.2498 40.2548 83.2147 40.191 83.1956C40.1272 83.1733 40.0443 83.1589 39.9422 83.1525V82.9707H41.3968V83.1525C41.2947 83.1557 41.2118 83.1685 41.148 83.1908C41.0874 83.2131 41.0395 83.2514 41.0044 83.3056C40.9726 83.3567 40.9502 83.4285 40.9375 83.521C40.9279 83.6135 40.9231 83.7315 40.9231 83.875V85.7507Z" fill="#171717"/>
<path d="M43.8769 82.9229C44.1576 82.9229 44.4192 82.9723 44.6616 83.0712C44.9041 83.1701 45.1146 83.3056 45.2932 83.4779C45.4719 83.6502 45.6122 83.8543 45.7143 84.0904C45.8164 84.3232 45.8674 84.5752 45.8674 84.8464C45.8674 85.1462 45.8052 85.4206 45.6808 85.6694C45.5596 85.915 45.3969 86.1271 45.1927 86.3058C45.0588 86.4206 44.9088 86.5179 44.743 86.5976C44.5771 86.6742 44.4032 86.746 44.2214 86.8129C44.1353 86.848 44.0508 86.8847 43.9678 86.923C43.8881 86.9613 43.8147 87.0059 43.7477 87.057V87.0761C43.7669 87.0729 43.7924 87.0697 43.8243 87.0665C43.8594 87.0665 43.8897 87.0665 43.9152 87.0665C44.0587 87.0665 44.1927 87.0841 44.3171 87.1192C44.4415 87.1575 44.5627 87.1989 44.6808 87.2436C44.7988 87.2914 44.9168 87.3329 45.0348 87.368C45.1529 87.4063 45.2773 87.4254 45.4081 87.4254C45.558 87.4254 45.6712 87.3935 45.7478 87.3297C45.8243 87.2659 45.8865 87.1559 45.9344 86.9996H46.054C46.0604 87.0283 46.0652 87.0602 46.0684 87.0953C46.0716 87.1303 46.0732 87.1654 46.0732 87.2005C46.0732 87.3026 46.0508 87.3951 46.0062 87.478C45.9647 87.5642 45.9057 87.6375 45.8291 87.6981C45.7558 87.7619 45.668 87.8114 45.566 87.8465C45.4639 87.8816 45.3538 87.8991 45.2358 87.8991C45.0572 87.8991 44.8913 87.864 44.7382 87.7938C44.5883 87.7269 44.4447 87.6519 44.3075 87.569C44.1736 87.4892 44.0444 87.4142 43.92 87.3441C43.7956 87.2771 43.6728 87.2436 43.5515 87.2436C43.4686 87.2436 43.4016 87.2595 43.3506 87.2914C43.2995 87.3233 43.2533 87.3584 43.2118 87.3967C43.1703 87.4382 43.1305 87.4749 43.0922 87.5068C43.0571 87.5387 43.0124 87.5546 42.9582 87.5546C42.8657 87.5546 42.8194 87.5147 42.8194 87.435C42.8194 87.4127 42.8226 87.3935 42.829 87.3776C42.8354 87.3616 42.8482 87.3425 42.8673 87.3201C42.8896 87.301 42.9215 87.2771 42.963 87.2484C43.0045 87.2229 43.0619 87.1894 43.1352 87.1479L43.7573 86.7938C43.4893 86.7842 43.2405 86.7284 43.0108 86.6263C42.7812 86.5211 42.5834 86.3823 42.4175 86.2101C42.2516 86.0346 42.1209 85.8321 42.0252 85.6024C41.9327 85.3695 41.8864 85.1207 41.8864 84.8559C41.8864 84.5816 41.9374 84.3264 42.0395 84.0904C42.1416 83.8543 42.2819 83.6502 42.4606 83.4779C42.6392 83.3056 42.8498 83.1701 43.0922 83.0712C43.3346 82.9723 43.5962 82.9229 43.8769 82.9229ZM43.8769 86.5594C44.0874 86.5594 44.2756 86.5195 44.4415 86.4397C44.6106 86.36 44.7541 86.2467 44.8722 86.1C44.9934 85.9501 45.0859 85.7714 45.1497 85.5641C45.2135 85.3536 45.2454 85.1175 45.2454 84.8559C45.2454 84.6007 45.2135 84.3711 45.1497 84.1669C45.0859 83.9596 44.995 83.7841 44.8769 83.6406C44.7589 83.4938 44.6154 83.3822 44.4463 83.3056C44.2772 83.2259 44.0874 83.186 43.8769 83.186C43.6664 83.186 43.4766 83.2259 43.3075 83.3056C43.1384 83.3822 42.9949 83.4938 42.8769 83.6406C42.7588 83.7841 42.6679 83.9596 42.6041 84.1669C42.5403 84.3711 42.5084 84.6007 42.5084 84.8559C42.5084 85.1175 42.5403 85.3536 42.6041 85.5641C42.6679 85.7714 42.7588 85.9501 42.8769 86.1C42.9949 86.2467 43.1384 86.36 43.3075 86.4397C43.4766 86.5195 43.6664 86.5594 43.8769 86.5594Z" fill="#171717"/>
<path d="M49.5494 85.1717C49.5494 85.4237 49.5238 85.6454 49.4728 85.8368C49.425 86.0282 49.3452 86.1877 49.2336 86.3153C49.1251 86.4429 48.9832 86.5402 48.8077 86.6072C48.6323 86.671 48.4201 86.7029 48.1713 86.7029C47.9353 86.7029 47.7295 86.6806 47.5541 86.6359C47.3786 86.5881 47.2319 86.5115 47.1139 86.4062C46.9958 86.2978 46.9081 86.1574 46.8507 85.9852C46.7933 85.8129 46.7646 85.6008 46.7646 85.3488V84.0856C46.7646 83.8495 46.7582 83.6677 46.7454 83.5401C46.7359 83.4125 46.704 83.3184 46.6497 83.2578C46.6115 83.2163 46.5588 83.1892 46.4918 83.1764C46.428 83.1605 46.3419 83.1525 46.2335 83.1525V82.9707H47.8651V83.1525C47.7566 83.1525 47.6689 83.1589 47.6019 83.1717C47.5349 83.1844 47.4823 83.2163 47.444 83.2674C47.3994 83.3248 47.3707 83.4173 47.3579 83.5449C47.3451 83.6693 47.3388 83.8495 47.3388 84.0856V85.3871C47.3388 85.5497 47.3547 85.6949 47.3866 85.8225C47.4217 85.9469 47.4775 86.0538 47.5541 86.1431C47.6306 86.2292 47.7295 86.2946 47.8507 86.3392C47.9751 86.3839 48.1267 86.4062 48.3053 86.4062C48.6243 86.4062 48.8635 86.3185 49.023 86.1431C49.1825 85.9644 49.2623 85.7029 49.2623 85.3583V84.2052C49.2623 83.9213 49.2511 83.706 49.2288 83.5592C49.2064 83.4125 49.165 83.3088 49.1044 83.2482C49.0597 83.2068 49.0039 83.1812 48.9369 83.1717C48.8699 83.1589 48.787 83.1525 48.6881 83.1525V82.9707H50.0757V83.1525C49.9736 83.1525 49.8891 83.1605 49.8221 83.1764C49.7583 83.1924 49.7073 83.2275 49.669 83.2817C49.6211 83.3487 49.5892 83.454 49.5733 83.5975C49.5573 83.7379 49.5494 83.9404 49.5494 84.2052V85.1717Z" fill="#171717"/>
<path d="M51.4601 84.631C51.6324 84.631 51.7759 84.6215 51.8907 84.6023C52.0088 84.58 52.1013 84.5465 52.1683 84.5019C52.2384 84.4572 52.2879 84.3998 52.3166 84.3296C52.3485 84.2594 52.3644 84.1765 52.3644 84.0808H52.5319V85.3871H52.3644C52.3644 85.2914 52.3501 85.2084 52.3214 85.1382C52.2959 85.0681 52.248 85.0106 52.1778 84.966C52.1108 84.9181 52.0183 84.8831 51.9003 84.8607C51.7855 84.8352 51.6387 84.8224 51.4601 84.8224V85.9038C51.4601 86.0091 51.4729 86.0968 51.4984 86.167C51.5239 86.234 51.567 86.2898 51.6276 86.3345C51.6914 86.3759 51.7743 86.4062 51.8764 86.4254C51.9785 86.4413 52.1045 86.4493 52.2544 86.4493C52.4235 86.4493 52.567 86.4381 52.685 86.4158C52.8031 86.3903 52.9019 86.3488 52.9817 86.2914C53.0614 86.234 53.1252 86.159 53.1731 86.0665C53.2209 85.9708 53.2608 85.8528 53.2927 85.7124H53.4745L53.4028 86.655H50.4314V86.4732C50.543 86.47 50.6323 86.4605 50.6993 86.4445C50.7695 86.4286 50.8237 86.4015 50.862 86.3632C50.9003 86.3249 50.9258 86.2707 50.9385 86.2005C50.9513 86.1303 50.9577 86.0394 50.9577 85.9277V83.698C50.9577 83.5864 50.9513 83.497 50.9385 83.43C50.929 83.3599 50.9066 83.3056 50.8716 83.2674C50.8397 83.2259 50.7918 83.1988 50.728 83.186C50.6642 83.1701 50.5813 83.1589 50.4792 83.1525V82.9707H53.2449L53.2879 83.8128H53.1204C53.1013 83.6852 53.0694 83.5816 53.0247 83.5018C52.9833 83.4189 52.9243 83.3535 52.8477 83.3056C52.7743 83.2578 52.6802 83.2243 52.5654 83.2052C52.4506 83.186 52.3118 83.1764 52.1491 83.1764H51.5414C51.4872 83.1764 51.4601 83.2036 51.4601 83.2578V84.631Z" fill="#171717"/>
<path d="M52.0248 0.71875C36.4125 0.71875 23.712 7.99173 23.712 16.9326V29.715C23.712 38.6559 36.4125 45.9289 52.0248 45.9289C67.6371 45.9289 80.3376 38.6559 80.3376 29.715V16.9326C80.3376 7.99173 67.6371 0.71875 52.0248 0.71875ZM52.0248 1.4023C67.2612 1.4023 79.654 8.36768 79.654 16.9326C79.654 19.0038 78.9226 20.9724 77.6102 22.7838C77.1933 22.278 76.7353 21.7927 76.2294 21.3142C77.1591 19.9334 77.6717 18.4569 77.6717 16.9326C77.6717 9.59124 65.9283 3.38462 52.0248 3.38462C38.1214 3.38462 26.3779 9.59124 26.3779 16.9326C26.3779 18.4569 26.8906 19.9334 27.8202 21.3142C27.3144 21.7858 26.8564 22.278 26.4394 22.7838C25.127 20.9792 24.3956 19.0038 24.3956 16.9326C24.4024 8.36768 36.7953 1.4023 52.0248 1.4023ZM52.0248 14.1847C61.827 14.1847 70.4534 17.0761 75.3545 21.4167C71.7385 26.2563 62.5105 29.7971 52.0248 29.7971C41.5391 29.7971 32.3112 26.2563 28.6952 21.4167C33.6031 17.0761 42.2227 14.1847 52.0248 14.1847ZM28.3192 20.8699C27.5126 19.619 27.0683 18.2997 27.0683 16.9326C27.0683 9.96036 38.4973 4.06817 52.0317 4.06817C65.566 4.06817 76.995 9.96036 76.995 16.9326C76.995 18.2997 76.5506 19.6258 75.744 20.8699C70.6858 16.4404 61.95 13.5012 52.0317 13.5012C42.1133 13.5012 33.3775 16.4404 28.3192 20.8699ZM52.0248 30.4806C62.6541 30.4806 72.0187 26.851 75.8398 21.8542C76.3319 22.3258 76.783 22.818 77.1932 23.317C72.8526 28.6966 63.2077 32.4561 52.0248 32.4561C40.8419 32.4561 31.2038 28.7034 26.8564 23.317C27.2597 22.8112 27.7109 22.3258 28.2099 21.8542C32.0309 26.851 41.3956 30.4806 52.0248 30.4806ZM24.4024 20.4597C24.7852 21.4509 25.3252 22.4079 26.0156 23.3238C25.3252 24.2398 24.7852 25.1968 24.4024 26.1879V20.4597ZM52.0248 45.2454C36.7884 45.2454 24.3956 38.2799 24.3956 29.715C24.3956 27.6439 25.127 25.6752 26.4394 23.8638C30.985 29.3459 40.7462 33.1465 52.0248 33.1465C63.3034 33.1465 73.0646 29.3459 77.6102 23.8638C78.9226 25.6684 79.654 27.6439 79.654 29.715C79.654 38.2799 67.2612 45.2454 52.0248 45.2454ZM79.654 26.1879C79.2712 25.1968 78.7312 24.2398 78.0408 23.3238C78.7312 22.4079 79.2712 21.4509 79.654 20.4597V26.1879Z" fill="#171717"/>
<path d="M2.58605 73.6011H0V53.9902H2.58605V73.6011Z" fill="#171717"/>
<path d="M22.399 73.6011H19.7995L9.92667 58.4889V73.6011H7.32715V53.9902H9.92667L19.8264 69.1698V53.9902H22.399V73.6011Z" fill="#171717"/>
<path d="M38.0769 64.5365H29.578V71.4865H39.4508V73.6011H26.9919V53.9902H39.3161V56.1183H29.578V62.4218H38.0769V64.5365Z" fill="#171717"/>
<path d="M45.2694 71.4865H54.563V73.6011H42.6699V53.9902H45.2694V71.4865Z" fill="#171717"/>
<path d="M68.6112 68.4829H60.3951L58.5498 73.6011H55.883L63.3717 53.9902H65.6345L73.1368 73.6011H70.4834L68.6112 68.4829ZM61.1763 66.3548H67.8435L64.5031 57.1824L61.1763 66.3548Z" fill="#171717"/>
<path d="M82.9692 65.6679H78.3628V73.6011H75.7632V53.9902H82.2553C84.4642 53.9902 86.1613 54.4931 87.3466 55.4988C88.5409 56.5045 89.138 57.9681 89.138 59.8897C89.138 61.1109 88.8057 62.1749 88.1413 63.0818C87.4858 63.9887 86.5699 64.6667 85.3936 65.1156L90 73.4395V73.6011H87.2254L82.9692 65.6679ZM78.3628 63.5532H82.3361C83.6202 63.5532 84.6393 63.221 85.3936 62.5565C86.1568 61.8921 86.5385 61.0031 86.5385 59.8897C86.5385 58.6775 86.1748 57.7481 85.4475 57.1016C84.7291 56.4551 83.6875 56.1273 82.3227 56.1183H78.3628V63.5532Z" fill="#171717"/>
</svg>
