<svg width="90" height="88" viewBox="0 0 90 88" fill="none" xmlns="http://www.w3.org/2000/svg">
<path d="M65.9756 5.18806C64.7809 2.49184 62.1443 0.760986 59.2056 0.760986H37.1174C34.0963 0.760986 31.5009 2.58838 30.3474 5.19496C27.6009 6.33964 25.7677 9.07721 25.7677 12.063V34.2534C25.7677 37.3496 27.6627 40.0113 30.3474 41.1284C31.5421 43.8247 34.1787 45.5555 37.1174 45.5555H59.2125C62.2336 45.5555 64.8289 43.7281 65.9824 41.1215C68.7289 39.9769 70.5622 37.2392 70.5622 34.2534V12.063C70.5622 8.96688 68.6672 6.30516 65.9756 5.18806ZM37.1174 1.45056H59.2125C61.6568 1.45056 63.8746 2.77455 65.0624 4.87774C65.0006 4.86395 64.9388 4.85016 64.877 4.83637C64.7534 4.80879 64.6367 4.78121 64.5132 4.75362C64.3758 4.72604 64.2384 4.70534 64.1011 4.69154C64.005 4.67775 63.9158 4.66397 63.8197 4.65707C63.6686 4.64328 63.5107 4.63637 63.3596 4.63637C63.291 4.63637 63.2223 4.6226 63.1536 4.6226C63.1261 4.6226 63.0918 4.62951 63.0643 4.62951C62.9476 4.62951 62.831 4.63638 62.7142 4.65017C62.5632 4.65707 62.419 4.67085 62.2748 4.68464C62.2611 4.68464 62.2473 4.68465 62.2267 4.69154C61.3822 3.9606 60.3179 3.56064 59.2056 3.56064H37.1174C35.9639 3.56064 34.9133 3.98818 34.1031 4.68464H34.0963L33.9727 4.795C33.9658 4.80189 33.9589 4.81567 33.9521 4.82256C33.7667 4.99496 33.595 5.18804 33.444 5.38802C33.4234 5.4156 33.4028 5.43628 33.389 5.46386C33.2448 5.66383 33.1076 5.8776 32.9977 6.10515C32.984 6.13274 32.9702 6.15346 32.9633 6.18104C32.8535 6.41549 32.7574 6.64994 32.6818 6.90508C32.675 6.91887 32.675 6.93266 32.6681 6.94645C32.5857 7.22918 32.5377 7.51881 32.5102 7.82222L32.4827 8.1601H32.4896C32.4896 8.18079 32.4896 8.19455 32.4896 8.21524C32.4896 10.7804 34.57 12.863 37.1174 12.863V14.9662C33.698 14.9662 30.8692 12.3872 30.4504 9.06344L30.4435 9.02897C30.4298 8.91864 30.4229 8.82209 30.416 8.72555C30.4023 8.55316 30.3885 8.38763 30.3885 8.21524C30.3885 7.98768 30.4023 7.76013 30.4229 7.53257C30.4366 7.41534 30.4572 7.29125 30.4778 7.17402C30.4915 7.07059 30.5053 6.96715 30.5259 6.87061C30.6151 6.43618 30.7456 6.00862 30.9173 5.59488L30.9379 5.53974C31.9747 3.13314 34.3503 1.45056 37.1174 1.45056ZM55.7383 12.1665H40.5847V12.07C40.5847 8.67037 38.2365 5.69832 35.0095 4.86394C35.6206 4.47778 36.3415 4.25021 37.1105 4.25021H59.2056C59.9609 4.25021 60.6887 4.47089 61.3135 4.87084C58.1139 5.69143 55.7383 8.60831 55.7383 12.07V12.1665ZM63.1468 8.10492C63.1468 8.1394 63.1536 8.17389 63.1536 8.20147C63.1536 10.3874 61.3822 12.1596 59.2125 12.1596V12.063C59.2056 9.88401 60.9702 8.10492 63.1468 8.10492ZM59.2056 12.8561C61.7598 12.8561 63.8334 10.7667 63.8334 8.20838C63.8334 8.19459 63.8334 8.18766 63.8334 8.17386C63.8403 8.17386 63.854 8.17387 63.8608 8.18077C64.0325 8.21525 64.2041 8.25662 64.3689 8.31179C64.3895 8.31868 64.4033 8.3256 64.4239 8.33249C64.575 8.38766 64.7259 8.44969 64.8701 8.51865C64.8907 8.53244 64.9114 8.53937 64.9389 8.55316C65.0968 8.63591 65.2546 8.72553 65.3988 8.82896C65.4057 8.83586 65.4126 8.84278 65.4263 8.84967C65.5705 8.95311 65.7078 9.06343 65.8383 9.18755C65.8451 9.19445 65.852 9.20136 65.8589 9.20136C65.3783 12.4975 62.5494 14.9662 59.2125 14.9662H55.7451H40.5916V12.863H55.7451H59.2056V12.8561ZM67.0948 12.063V34.2534C67.0948 35.0464 66.8613 35.8049 66.4287 36.4531C65.6735 33.1501 62.7279 30.6745 59.2125 30.6745V15.6488C62.6936 15.6488 65.6735 13.2146 66.4287 9.87022C66.8476 10.4977 67.0948 11.2494 67.0948 12.063ZM63.1468 38.2115C60.9771 38.2115 59.2056 36.4324 59.2056 34.2534V34.1569C61.3822 34.1569 63.1468 35.936 63.1468 38.115C63.1537 38.1495 63.1468 38.1839 63.1468 38.2115ZM58.519 34.1569V34.2534C58.519 36.791 60.5513 38.8597 63.0712 38.9011C63.0369 39.0804 62.9888 39.2528 62.927 39.4183C62.9202 39.4459 62.9064 39.4666 62.8996 39.4942C62.776 39.8252 62.6112 40.1423 62.3983 40.432C62.3846 40.4527 62.364 40.4802 62.3503 40.5009C62.2405 40.6457 62.1306 40.7768 62.0001 40.9078C58.8074 40.3561 56.4249 37.522 56.4249 34.2534V34.1569V30.6745V15.6488H58.519V30.6745V34.1569ZM40.5847 34.1569H55.7383V34.2534C55.7383 37.653 58.0865 40.625 61.3135 41.4594C60.7024 41.8456 59.9815 42.0732 59.2125 42.0732H37.1174C36.3621 42.0732 35.6343 41.8525 35.0095 41.4525C38.2091 40.6319 40.5847 37.715 40.5847 34.2534V34.1569ZM33.1762 38.2115C33.1762 38.1771 33.1694 38.1426 33.1694 38.115C33.1694 35.9291 34.9408 34.1569 37.1105 34.1569V34.2534C37.1174 36.4393 35.3459 38.2115 33.1762 38.2115ZM37.1174 33.4673C34.5632 33.4673 32.4896 35.5567 32.4896 38.115C32.4896 38.1288 32.4896 38.1357 32.4896 38.1495H32.4827C32.2974 38.115 32.1119 38.0667 31.9334 38.0116C31.7618 37.9564 31.5901 37.8806 31.4322 37.8047C31.4185 37.7978 31.4048 37.7909 31.3979 37.784C31.2331 37.7013 31.0752 37.6047 30.9241 37.5013C30.9173 37.4944 30.9104 37.4944 30.9104 37.4875C30.7662 37.3841 30.6289 37.2737 30.4984 37.1496C30.4916 37.1427 30.4847 37.1358 30.4778 37.1289C30.9584 33.8328 33.7873 31.3641 37.1242 31.3641H40.5916H55.7451V33.4673H40.5916H37.1174ZM29.2282 34.2534V12.063C29.2282 11.27 29.4616 10.5115 29.8942 9.86332C30.6495 13.1664 33.595 15.6419 37.1105 15.6419V30.6676C33.6294 30.6676 30.6495 33.1018 29.8942 36.4462C29.4754 35.8256 29.2282 35.0671 29.2282 34.2534ZM33.1762 8.10492C35.3527 8.10492 37.1174 9.88401 37.1174 12.063V12.1596C34.9408 12.1596 33.1762 10.3805 33.1762 8.20147C33.1693 8.167 33.1762 8.1394 33.1762 8.10492ZM37.804 12.1665V12.07C37.804 9.53233 35.7716 7.46363 33.2517 7.42226C33.2861 7.24297 33.3341 7.07058 33.3959 6.90508C33.4028 6.8775 33.4165 6.85682 33.4234 6.82924C33.547 6.49824 33.7118 6.18101 33.9246 5.89139C33.9383 5.8707 33.9589 5.84314 33.9727 5.82245C34.0825 5.67764 34.1924 5.5466 34.3229 5.41558C37.5156 5.96724 39.8981 8.80139 39.8981 12.07V12.1665V15.6488V30.6745H37.804V15.6488V12.1665ZM40.5847 15.6488H55.7383V30.6745H40.5847V15.6488ZM26.4474 34.2534V12.063C26.4474 9.5806 27.8481 7.27743 30.004 6.11206C29.9972 6.14653 29.9903 6.17413 29.9835 6.20861C29.9148 6.47064 29.853 6.7327 29.8118 7.00163C29.7981 7.08438 29.7844 7.16712 29.7775 7.24986C29.7363 7.56017 29.7088 7.87738 29.7088 8.20147C29.7088 8.38766 29.7226 8.58073 29.7363 8.79449C29.7432 8.84276 29.7363 8.89791 29.7431 8.94618C28.9673 9.80125 28.5416 10.9046 28.5416 12.063V34.2534C28.5416 35.4533 29.0016 36.5428 29.7431 37.3634V37.3703L29.8599 37.4875C29.8599 37.4875 29.8668 37.4875 29.8668 37.4944C30.0521 37.6875 30.2581 37.8599 30.4778 38.0185C30.4915 38.0254 30.5053 38.0392 30.519 38.0529C30.7319 38.2047 30.9585 38.3357 31.1919 38.446C31.2125 38.4529 31.2262 38.4667 31.2468 38.4736C31.4803 38.5839 31.7274 38.6736 31.9815 38.7425C31.9952 38.7494 32.0158 38.7494 32.0296 38.7563C32.2836 38.8253 32.5514 38.8667 32.8192 38.8873C32.826 38.8873 32.826 38.8873 32.8329 38.8873L33.238 38.9149V38.9011C35.7647 38.8666 37.8108 36.7979 37.8108 34.2534V34.1569H39.905V34.2534C39.905 37.6737 37.3577 40.5009 34.0688 40.9422C33.8491 40.9698 33.6362 40.9905 33.4165 40.9974C33.3547 40.9974 33.2929 41.0043 33.2311 41.0043C32.9702 41.0043 32.7093 40.9974 32.4484 40.963C32.3866 40.9561 32.3248 40.9422 32.2562 40.9353C32.0502 40.9078 31.8442 40.8733 31.6382 40.8181C31.5764 40.8043 31.5146 40.7836 31.4528 40.7699C31.2262 40.7078 30.9996 40.6388 30.7799 40.5492C30.7319 40.5285 30.6838 40.5147 30.6358 40.494L30.5396 40.4595C28.1365 39.4321 26.4474 37.0393 26.4474 34.2534ZM59.2056 44.8659H37.1174C34.673 44.8659 32.4553 43.5419 31.2674 41.4388C31.3155 41.4525 31.3704 41.4594 31.4253 41.4732C31.5627 41.5077 31.7 41.5422 31.8442 41.5629C31.9609 41.5836 32.0776 41.6042 32.1943 41.618C32.3042 41.6318 32.4209 41.6456 32.5308 41.6594C32.675 41.6732 32.8123 41.6801 32.9565 41.6801C33.032 41.6801 33.1007 41.6939 33.1762 41.6939C33.2105 41.6939 33.238 41.687 33.2723 41.687C33.4028 41.687 33.5332 41.6732 33.6568 41.6663C33.7804 41.6594 33.9109 41.6525 34.0344 41.6387C34.055 41.6387 34.0757 41.6387 34.1031 41.6318C34.9477 42.3628 36.0119 42.7627 37.1174 42.7627H59.2125C60.366 42.7627 61.4165 42.3352 62.2267 41.6387H62.2336L62.3572 41.5284C62.3641 41.5215 62.3709 41.5077 62.3777 41.5008C62.5631 41.3284 62.7348 41.1353 62.8859 40.9353C62.9065 40.9078 62.9271 40.8871 62.9408 40.8595C63.085 40.6595 63.2223 40.4458 63.3321 40.2182C63.3459 40.1906 63.3596 40.1699 63.3665 40.1424C63.4763 39.9148 63.5725 39.6734 63.648 39.4183C63.6549 39.4045 63.6549 39.3907 63.6618 39.3769C63.7442 39.0942 63.7922 38.8046 63.8197 38.5012L63.8402 38.1702H63.8334C63.8334 38.1495 63.8334 38.1357 63.8334 38.115C63.8334 35.5498 61.753 33.4673 59.2056 33.4673V31.3641C62.6455 31.3641 65.4813 33.9707 65.8795 37.322C65.9138 37.6047 65.9275 37.8668 65.9275 38.1219C65.9275 38.3495 65.9138 38.577 65.8932 38.7977C65.8727 38.977 65.8451 39.1494 65.8108 39.3287C65.8039 39.3701 65.7971 39.4183 65.7902 39.4597C65.701 39.8941 65.5705 40.3216 65.3988 40.7354L65.3714 40.8043C64.3415 43.1902 61.9658 44.8659 59.2056 44.8659ZM69.8755 34.2534C69.8755 36.7359 68.4749 39.039 66.3189 40.2044C66.3258 40.1768 66.3326 40.1492 66.3395 40.1217C66.415 39.8527 66.4699 39.5838 66.518 39.308C66.5317 39.2252 66.5455 39.1494 66.5524 39.0666C66.5936 38.7563 66.621 38.4391 66.621 38.115C66.621 37.8668 66.6073 37.6185 66.5867 37.3703C67.3625 36.5152 67.7882 35.4119 67.7882 34.2534V12.063C67.7882 10.8632 67.3282 9.77367 66.5867 8.95308V8.94618L66.47 8.82896C66.2846 8.63588 66.0786 8.46349 65.8589 8.30488C65.8452 8.29109 65.8314 8.28421 65.8108 8.27041C65.6048 8.1256 65.3851 7.99459 65.1517 7.88426C65.1242 7.87047 65.1036 7.85668 65.0761 7.84979C64.8496 7.74635 64.6161 7.66361 64.3689 7.59465C64.3414 7.58775 64.3071 7.58083 64.2728 7.56704C64.0325 7.50498 63.7853 7.46361 63.5244 7.44292C63.5107 7.44292 63.5038 7.43606 63.4969 7.43606L63.0918 7.40845V7.42916C60.5651 7.45674 58.519 9.53234 58.519 12.0769V12.1734H56.4249V12.0769C56.4249 8.66348 58.9584 5.84314 62.2404 5.39492C62.4739 5.36044 62.7005 5.34664 62.927 5.33974C62.9957 5.33974 63.0575 5.33284 63.1262 5.33284C63.3734 5.33284 63.6136 5.34666 63.854 5.36735C63.9775 5.38114 64.0943 5.4018 64.211 5.42249C64.3552 5.44317 64.4994 5.47075 64.6436 5.50523C64.7397 5.52592 64.829 5.55353 64.9251 5.58112C65.1174 5.63628 65.3096 5.69831 65.5018 5.76727C65.5842 5.80175 65.6735 5.82934 65.7628 5.86382H65.7696C68.1796 6.89128 69.8755 9.291 69.8755 12.0838V34.2534Z" fill="#171717"/>
<path d="M0.862091 58.0889V73.7893H4.96079V67.7645H11.2992V73.7893H15.3979V58.0889H11.2992V64.4945H4.96079V58.0889H0.862091Z" fill="#171717"/>
<path d="M17.3276 58.0889V73.7893H29.9372V70.5193H21.4263V67.5629H28.9069V64.2929H21.4263V61.3589H29.7132V58.0889H17.3276Z" fill="#171717"/>
<path d="M31.3215 58.0889V73.7893H42.0721V70.2954H35.4202V58.0889H31.3215Z" fill="#171717"/>
<path d="M42.8219 58.0889V73.7893H55.4316V70.5193H46.9206V67.5629H54.4013V64.2929H46.9206V61.3589H55.2076V58.0889H42.8219Z" fill="#171717"/>
<path d="M56.8158 58.0889V73.7893H60.6457V64.3825L67.7681 73.7893H71.3516V58.0889H67.5441V67.5405L60.4218 58.0889H56.8158Z" fill="#171717"/>
<path d="M84.8377 73.7893H89.2052L82.6204 58.0889H78.4097L71.6682 73.7893H75.8788L76.9763 71.0121H83.7627L84.8377 73.7893ZM78.2082 67.8765L80.4031 62.2772L82.5532 67.8765H78.2082Z" fill="#171717"/>
<path d="M2.1063 85.4587H0.759844V87.7776H0V82.0453H1.89764C2.54331 82.0453 3.03938 82.1923 3.38583 82.4862C3.73491 82.7802 3.90946 83.208 3.90946 83.7697C3.90946 84.1267 3.81234 84.4377 3.61812 84.7028C3.42652 84.9679 3.1588 85.166 2.81497 85.2973L4.16142 87.7303V87.7776H3.3504L2.1063 85.4587ZM0.759844 84.8406H1.92126C2.29659 84.8406 2.59449 84.7435 2.81497 84.5492C3.03806 84.355 3.14961 84.0952 3.14961 83.7697C3.14961 83.4154 3.04331 83.1437 2.83071 82.9547C2.62074 82.7658 2.31628 82.67 1.91733 82.6673H0.759844V84.8406Z" fill="#171717"/>
<path d="M9.38191 85.0965C9.38191 85.6582 9.28742 86.149 9.09844 86.5689C8.90946 86.9862 8.64175 87.3051 8.29529 87.5256C7.94883 87.7461 7.54463 87.8563 7.08269 87.8563C6.63125 87.8563 6.23098 87.7461 5.8819 87.5256C5.53282 87.3025 5.26116 86.9862 5.06694 86.5768C4.87534 86.1647 4.77691 85.6883 4.77166 85.1477V84.7343C4.77166 84.1831 4.86746 83.6962 5.05906 83.2736C5.25067 82.8511 5.52101 82.5282 5.87009 82.3051C6.2218 82.0794 6.62337 81.9666 7.07482 81.9666C7.53413 81.9666 7.93833 82.0781 8.28742 82.3012C8.63912 82.5217 8.90946 82.8432 9.09844 83.2658C9.28742 83.6857 9.38191 84.1752 9.38191 84.7343V85.0965ZM8.62994 84.7264C8.62994 84.0466 8.49345 83.5256 8.22049 83.1634C7.94752 82.7986 7.56563 82.6162 7.07482 82.6162C6.59713 82.6162 6.22048 82.7986 5.94489 83.1634C5.67193 83.5256 5.53151 84.0295 5.52363 84.6752V85.0965C5.52363 85.7553 5.66143 86.2736 5.93702 86.6516C6.21523 87.0269 6.59713 87.2146 7.08269 87.2146C7.57088 87.2146 7.94883 87.0374 8.21655 86.6831C8.48427 86.3261 8.62206 85.8156 8.62994 85.1516V84.7264Z" fill="#171717"/>
<path d="M10.5158 87.7776V82.0453H12.3898C13.0118 82.0453 13.479 82.1739 13.7914 82.4311C14.1063 82.6883 14.2638 83.0689 14.2638 83.5729C14.2638 83.8406 14.1877 84.0781 14.0355 84.2855C13.8832 84.4902 13.6759 84.649 13.4134 84.7618C13.7231 84.8484 13.9672 85.0138 14.1457 85.2579C14.3268 85.4994 14.4173 85.7881 14.4173 86.124C14.4173 86.6385 14.2507 87.0427 13.9173 87.3366C13.584 87.6306 13.1129 87.7776 12.504 87.7776H10.5158ZM11.2717 85.0965V87.1595H12.5197C12.8714 87.1595 13.1483 87.0689 13.3504 86.8878C13.5551 86.7041 13.6575 86.4521 13.6575 86.1319C13.6575 85.4416 13.2822 85.0965 12.5315 85.0965H11.2717ZM11.2717 84.4902H12.4134C12.7441 84.4902 13.0079 84.4075 13.2047 84.2421C13.4042 84.0768 13.504 83.8524 13.504 83.5689C13.504 83.254 13.4121 83.0256 13.2284 82.8839C13.0446 82.7395 12.7651 82.6673 12.3898 82.6673H11.2717V84.4902Z" fill="#171717"/>
<path d="M18.7796 85.128H16.2953V87.1595H19.1811V87.7776H15.5394V82.0453H19.1418V82.6673H16.2953V84.5099H18.7796V85.128Z" fill="#171717"/>
<path d="M22.2245 85.4587H20.878V87.7776H20.1181V82.0453H22.0158C22.6615 82.0453 23.1575 82.1923 23.504 82.4862C23.8531 82.7802 24.0276 83.208 24.0276 83.7697C24.0276 84.1267 23.9305 84.4377 23.7363 84.7028C23.5447 84.9679 23.2769 85.166 22.9331 85.2973L24.2796 87.7303V87.7776H23.4685L22.2245 85.4587ZM20.878 84.8406H22.0394C22.4147 84.8406 22.7126 84.7435 22.9331 84.5492C23.1562 84.355 23.2678 84.0952 23.2678 83.7697C23.2678 83.4154 23.1615 83.1437 22.9489 82.9547C22.7389 82.7658 22.4344 82.67 22.0355 82.6673H20.878V84.8406Z" fill="#171717"/>
<path d="M28.7363 82.6673H26.8937V87.7776H26.1418V82.6673H24.3032V82.0453H28.7363V82.6673Z" fill="#171717"/>
<path d="M31.2127 85.2225C30.5644 85.0361 30.0919 84.8078 29.7953 84.5374C29.5014 84.2645 29.3544 83.9285 29.3544 83.5295C29.3544 83.0781 29.5342 82.7054 29.8938 82.4114C30.256 82.1148 30.7258 81.9666 31.3032 81.9666C31.6969 81.9666 32.0473 82.0427 32.3544 82.1949C32.6641 82.3471 32.9029 82.5571 33.0709 82.8248C33.2415 83.0925 33.3268 83.3852 33.3268 83.7028H32.567C32.567 83.3563 32.4567 83.0847 32.2363 82.8878C32.0158 82.6883 31.7048 82.5886 31.3032 82.5886C30.9305 82.5886 30.6392 82.6713 30.4292 82.8366C30.2218 82.9994 30.1182 83.2264 30.1182 83.5177C30.1182 83.7513 30.2166 83.9495 30.4134 84.1122C30.6129 84.2723 30.9502 84.4193 31.4253 84.5532C31.9029 84.687 32.2756 84.8353 32.5434 84.9981C32.8137 85.1582 33.0132 85.3458 33.1418 85.561C33.273 85.7763 33.3386 86.0296 33.3386 86.3209C33.3386 86.7855 33.1575 87.1582 32.7953 87.439C32.4331 87.7172 31.9489 87.8563 31.3426 87.8563C30.9489 87.8563 30.5814 87.7815 30.2402 87.6319C29.899 87.4797 29.6352 87.2723 29.4489 87.0099C29.2651 86.7474 29.1733 86.4495 29.1733 86.1162H29.9331C29.9331 86.4626 30.0604 86.7369 30.315 86.939C30.5722 87.1385 30.9148 87.2382 31.3426 87.2382C31.7415 87.2382 32.0473 87.1569 32.2599 86.9941C32.4725 86.8314 32.5788 86.6096 32.5788 86.3288C32.5788 86.0479 32.4804 85.8314 32.2835 85.6792C32.0867 85.5243 31.7297 85.3721 31.2127 85.2225Z" fill="#171717"/>
<path d="M38.7205 85.0965C38.7205 85.6582 38.626 86.149 38.4371 86.5689C38.2481 86.9862 37.9804 87.3051 37.6339 87.5256C37.2875 87.7461 36.8833 87.8563 36.4213 87.8563C35.9699 87.8563 35.5696 87.7461 35.2205 87.5256C34.8715 87.3025 34.5998 86.9862 34.4056 86.5768C34.214 86.1647 34.1155 85.6883 34.1103 85.1477V84.7343C34.1103 84.1831 34.2061 83.6962 34.3977 83.2736C34.5893 82.8511 34.8596 82.5282 35.2087 82.3051C35.5604 82.0794 35.962 81.9666 36.4134 81.9666C36.8728 81.9666 37.277 82.0781 37.626 82.3012C37.9778 82.5217 38.2481 82.8432 38.4371 83.2658C38.626 83.6857 38.7205 84.1752 38.7205 84.7343V85.0965ZM37.9686 84.7264C37.9686 84.0466 37.8321 83.5256 37.5591 83.1634C37.2862 82.7986 36.9043 82.6162 36.4134 82.6162C35.9358 82.6162 35.5591 82.7986 35.2835 83.1634C35.0106 83.5256 34.8701 84.0295 34.8623 84.6752V85.0965C34.8623 85.7553 35.0001 86.2736 35.2757 86.6516C35.5539 87.0269 35.9358 87.2146 36.4213 87.2146C36.9095 87.2146 37.2875 87.0374 37.5552 86.6831C37.8229 86.3261 37.9607 85.8156 37.9686 85.1516V84.7264Z" fill="#171717"/>
<path d="M44.2599 87.7776H43.5001L40.6142 83.3603V87.7776H39.8544V82.0453H40.6142L43.5079 86.4823V82.0453H44.2599V87.7776Z" fill="#171717"/>
<path fill-rule="evenodd" clip-rule="evenodd" d="M2.1063 85.4587H0.759844V87.7776H0V82.0453H1.89764C1.90422 82.0453 1.91078 82.0453 1.91733 82.0453C1.91869 82.0453 1.92006 82.0454 1.92142 82.0454C2.50679 82.0487 2.96778 82.1742 3.30439 82.4219C3.30557 82.4227 3.30676 82.4236 3.30794 82.4245C3.3347 82.4443 3.36066 82.4649 3.38583 82.4862C3.73491 82.7802 3.90946 83.208 3.90946 83.7697C3.90946 84.1267 3.81234 84.4377 3.61812 84.7028C3.53025 84.8243 3.42638 84.9318 3.3065 85.0253C3.29226 85.0363 3.2778 85.0472 3.26311 85.0579C3.26204 85.0587 3.26096 85.0595 3.25988 85.0603C3.17836 85.1194 3.08991 85.1724 2.99453 85.2193C2.93718 85.2475 2.87732 85.2735 2.81497 85.2973L4.16142 87.7303V87.7776H3.3504L2.1063 85.4587ZM5.87009 82.3051C5.68643 82.4225 5.52457 82.5675 5.3845 82.7401C5.38433 82.7403 5.38467 82.7399 5.3845 82.7401C5.25855 82.8954 5.14974 83.0737 5.05906 83.2736C4.87541 83.6787 4.77977 84.1428 4.77216 84.6661C4.77211 84.6691 4.77207 84.6722 4.77203 84.6752C4.77179 84.6948 4.77166 84.7145 4.77166 84.7343V85.1477C4.77691 85.6883 4.87534 86.1647 5.06694 86.5768C5.15279 86.7578 5.25377 86.9206 5.36988 87.0651C5.37103 87.0666 5.37218 87.068 5.37334 87.0694C5.51913 87.2501 5.68865 87.4021 5.8819 87.5256C6.23098 87.7461 6.63125 87.8563 7.08269 87.8563C7.54463 87.8563 7.94883 87.7461 8.29529 87.5256C8.47526 87.4111 8.63398 87.27 8.77146 87.1024C8.77198 87.1017 8.7725 87.1011 8.77302 87.1005C8.89953 86.9458 9.008 86.7686 9.09844 86.5689C9.2802 86.165 9.37455 85.6955 9.38149 85.1605C9.38153 85.1575 9.38157 85.1546 9.3816 85.1516C9.38181 85.1333 9.38191 85.1149 9.38191 85.0965V84.7343C9.38191 84.7316 9.3819 84.729 9.3819 84.7264C9.38102 84.1706 9.28653 83.6837 9.09844 83.2658C9.01074 83.0697 8.90551 82.8953 8.78275 82.7427C8.78225 82.7421 8.78174 82.7415 8.78123 82.7408C8.63982 82.5655 8.47522 82.4189 8.28742 82.3012C7.93833 82.0781 7.53413 81.9666 7.07482 81.9666C6.62337 81.9666 6.2218 82.0794 5.87009 82.3051ZM8.4416 86.2733C8.4418 86.2728 8.44201 86.2723 8.44222 86.2718C8.56213 85.9661 8.62471 85.5928 8.62994 85.1516V84.7264C8.62994 84.2649 8.56704 83.8766 8.44125 83.5615C8.44104 83.561 8.44083 83.5605 8.44062 83.5599C8.38122 83.4115 8.30785 83.2793 8.22049 83.1634C8.1343 83.0482 8.03726 82.9512 7.92936 82.8724C7.92777 82.8712 7.92618 82.8701 7.92459 82.8689C7.69164 82.7004 7.40838 82.6162 7.07482 82.6162C6.74731 82.6162 6.4673 82.7019 6.23479 82.8734C6.23445 82.8736 6.2341 82.8739 6.23375 82.8742C6.12754 82.9527 6.03126 83.0491 5.94489 83.1634C5.85412 83.2839 5.77801 83.42 5.71655 83.5718C5.59319 83.8764 5.52889 84.2443 5.52363 84.6752V85.0965C5.52363 85.1112 5.5237 85.1258 5.52384 85.1404C5.52386 85.1428 5.52389 85.1452 5.52391 85.1477C5.52871 85.583 5.59504 85.9557 5.72291 86.2656C5.72362 86.2674 5.72434 86.2691 5.72505 86.2708C5.78314 86.4105 5.8538 86.5375 5.93702 86.6516C6.02729 86.7734 6.12849 86.8754 6.24059 86.9577C6.24156 86.9584 6.24253 86.9591 6.2435 86.9598C6.47632 87.1297 6.75604 87.2146 7.08269 87.2146C7.41972 87.2146 7.70421 87.1302 7.93616 86.9613C8.04019 86.8855 8.13366 86.7928 8.21655 86.6831C8.3061 86.5637 8.38112 86.4271 8.4416 86.2733ZM14.1485 84.0979C14.2254 83.9382 14.2638 83.7631 14.2638 83.5729C14.2638 83.5715 14.2638 83.5702 14.2638 83.5689C14.263 83.0669 14.1055 82.6877 13.7914 82.4311C13.75 82.397 13.7059 82.3652 13.6591 82.3357C13.6573 82.3346 13.6556 82.3335 13.6538 82.3324C13.3477 82.141 12.9264 82.0453 12.3898 82.0453H10.5158V87.7776H12.504C12.5092 87.7776 12.5145 87.7776 12.5197 87.7776C13.0653 87.7753 13.4993 87.6541 13.8219 87.414C13.8221 87.4139 13.8218 87.4141 13.8219 87.414C13.8547 87.3895 13.8868 87.3636 13.9173 87.3366C14.249 87.0442 14.4156 86.6426 14.4173 86.1319C14.4173 86.1293 14.4173 86.1267 14.4173 86.124C14.4173 85.8276 14.3468 85.5679 14.2058 85.3451C14.187 85.3154 14.167 85.2863 14.1457 85.2579C14.0463 85.122 13.9266 85.0105 13.7866 84.9234C13.7801 84.9194 13.7736 84.9154 13.767 84.9115C13.7622 84.9086 13.7574 84.9058 13.7525 84.903C13.6499 84.8434 13.5369 84.7964 13.4134 84.7618C13.4686 84.7381 13.5213 84.7124 13.5715 84.6846C13.5726 84.684 13.5738 84.6834 13.5749 84.6828C13.6513 84.6403 13.7221 84.5931 13.7873 84.5413C13.8819 84.4659 13.9647 84.3807 14.0355 84.2855C14.0795 84.2255 14.1172 84.163 14.1485 84.0979ZM13.4629 83.8597C13.4899 83.772 13.5036 83.6764 13.504 83.5729C13.504 83.5715 13.504 83.5702 13.504 83.5689C13.504 83.3228 13.4478 83.1295 13.3356 82.9892C13.335 82.9884 13.3344 82.9876 13.3337 82.9868C13.3028 82.9485 13.2677 82.9142 13.2284 82.8839C13.0446 82.7395 12.7651 82.6673 12.3898 82.6673H11.2717V84.4902H12.4134C12.4538 84.4902 12.4931 84.4889 12.5315 84.4865C12.788 84.47 13 84.3985 13.1674 84.272C13.1763 84.2652 13.1851 84.2583 13.1938 84.2512C13.1975 84.2482 13.2011 84.2452 13.2047 84.2421C13.3291 84.1391 13.4147 84.013 13.4615 83.8641C13.462 83.8626 13.4624 83.8612 13.4629 83.8597ZM11.2717 85.0965V87.1595H12.5197C12.8714 87.1595 13.1483 87.0689 13.3504 86.8878C13.3828 86.8587 13.4127 86.8279 13.44 86.7954C13.585 86.6226 13.6575 86.4014 13.6575 86.1319C13.6575 86.1293 13.6575 86.1267 13.6575 86.124C13.6568 85.954 13.6331 85.8051 13.5865 85.6773C13.5855 85.6745 13.5845 85.6717 13.5835 85.669C13.52 85.4996 13.4156 85.3678 13.2703 85.2736C13.2568 85.2648 13.243 85.2564 13.2288 85.2483C13.0514 85.1471 12.819 85.0965 12.5315 85.0965H11.2717ZM19.1418 82.6673V82.0453H15.5394V87.7776H19.1811V87.1595H16.2953V85.128H18.7796V84.5099H16.2953V82.6673H19.1418ZM20.1181 87.7776H20.878V85.4587H22.2245L23.4685 87.7776H24.2796V87.7303L22.9331 85.2973C22.9955 85.2735 23.0553 85.2475 23.1127 85.2193C23.2081 85.1724 23.2965 85.1194 23.378 85.0603C23.3791 85.0595 23.3802 85.0587 23.3813 85.0579C23.3959 85.0472 23.4104 85.0363 23.4247 85.0253C23.5445 84.9318 23.6484 84.8243 23.7363 84.7028C23.9305 84.4377 24.0276 84.1267 24.0276 83.7697C24.0276 83.6987 24.0248 83.6299 24.0192 83.5632C23.9891 83.2019 23.8771 82.9032 23.6833 82.6673C23.6297 82.6022 23.57 82.5418 23.504 82.4862C23.4788 82.4649 23.4528 82.4443 23.4261 82.4245C23.4249 82.4236 23.4237 82.4227 23.4225 82.4219C23.4175 82.4181 23.4124 82.4145 23.4073 82.4108C23.0721 82.1704 22.6162 82.0486 22.0396 82.0454C22.0382 82.0454 22.0368 82.0453 22.0355 82.0453C22.0289 82.0453 22.0224 82.0453 22.0158 82.0453H20.1181V87.7776ZM20.878 84.8406H22.0394C22.1033 84.8406 22.165 84.8378 22.2245 84.8321C22.4058 84.8149 22.5663 84.7715 22.7058 84.7018C22.7401 84.6847 22.7732 84.666 22.805 84.6457C22.8502 84.6168 22.893 84.5846 22.9331 84.5492C23.024 84.4701 23.0964 84.3801 23.1502 84.2792C23.151 84.2778 23.1517 84.2764 23.1524 84.275C23.2293 84.1292 23.2678 83.9608 23.2678 83.7697C23.2678 83.4671 23.1903 83.2249 23.0352 83.0429C23.0346 83.0422 23.0341 83.0415 23.0335 83.0408C23.0074 83.0104 22.9792 82.9817 22.9489 82.9547C22.7389 82.7658 22.4344 82.67 22.0355 82.6673H20.878V84.8406ZM26.1418 87.7776H26.8937V82.6673H28.7363V82.0453H24.3032V82.6673H26.1418V87.7776ZM29.9331 86.1162H29.1733C29.1733 86.4495 29.2651 86.7474 29.4489 87.0099C29.4494 87.0106 29.4499 87.0113 29.4504 87.0121C29.571 87.1812 29.7238 87.3275 29.9088 87.4507C29.9108 87.4521 29.9129 87.4535 29.915 87.4548C30.0142 87.5204 30.1226 87.5794 30.2402 87.6319C30.5814 87.7815 30.9489 87.8563 31.3426 87.8563C31.8806 87.8563 32.3225 87.7468 32.6683 87.5277C32.7122 87.4999 32.7545 87.4703 32.7953 87.439C33.1555 87.1598 33.3366 86.7897 33.3386 86.3288C33.3386 86.3261 33.3386 86.3235 33.3386 86.3209C33.3386 86.2803 33.3374 86.2404 33.3348 86.2012C33.3261 86.068 33.3027 85.9434 33.2645 85.8274C33.2333 85.7329 33.1925 85.6441 33.1418 85.561C33.0439 85.3973 32.9051 85.2495 32.7252 85.1177C32.7236 85.1165 32.722 85.1154 32.7204 85.1142C32.6652 85.074 32.6062 85.0353 32.5434 84.9981C32.2756 84.8353 31.9029 84.687 31.4253 84.5532C31.4194 84.5515 31.4136 84.5499 31.4077 84.5482C31.4073 84.5481 31.407 84.548 31.4066 84.5479C30.9413 84.4154 30.6103 84.2702 30.4134 84.1122C30.3695 84.0759 30.3304 84.0378 30.2963 83.9979C30.2948 83.9962 30.2933 83.9944 30.2919 83.9927C30.1786 83.8582 30.1207 83.7039 30.1182 83.5295C30.1182 83.5256 30.1182 83.5217 30.1182 83.5177C30.1182 83.2816 30.1863 83.0876 30.3226 82.936C30.3227 82.9358 30.3224 82.9361 30.3226 82.936C30.3543 82.9007 30.3901 82.8673 30.4292 82.8366C30.6392 82.6713 30.9305 82.5886 31.3032 82.5886C31.613 82.5886 31.8689 82.648 32.0709 82.7667C32.0716 82.7671 32.0722 82.7674 32.0728 82.7678C32.1319 82.8027 32.1864 82.8427 32.2363 82.8878C32.3365 82.9773 32.414 83.0823 32.4686 83.2027C32.4693 83.2043 32.47 83.2058 32.4707 83.2073C32.5349 83.3507 32.567 83.5158 32.567 83.7028H33.3268C33.3268 83.6923 33.3267 83.6818 33.3265 83.6714C33.3211 83.3659 33.2359 83.0837 33.0709 82.8248C33.0672 82.8188 33.0634 82.8128 33.0595 82.8069C32.9581 82.6498 32.8319 82.5131 32.6808 82.3965C32.6796 82.3956 32.6785 82.3948 32.6773 82.3939C32.5799 82.3192 32.4723 82.2529 32.3544 82.1949C32.0473 82.0427 31.6969 81.9666 31.3032 81.9666C30.7911 81.9666 30.3637 82.0832 30.0209 82.3164C30.0206 82.3166 30.0203 82.3168 30.02 82.317C29.9766 82.3466 29.9345 82.3781 29.8938 82.4114C29.7922 82.4944 29.705 82.5837 29.6322 82.6793C29.4492 82.9192 29.3567 83.1987 29.3544 83.5177C29.3544 83.5217 29.3544 83.5256 29.3544 83.5295C29.3544 83.5408 29.3545 83.5521 29.3547 83.5632C29.3628 83.9474 29.5097 84.2722 29.7953 84.5374C29.8439 84.5817 29.8971 84.6248 29.955 84.6667C29.9578 84.6688 29.9606 84.6708 29.9635 84.6728C30.2592 84.8849 30.6756 85.0681 31.2127 85.2225C31.2201 85.2246 31.2275 85.2268 31.2348 85.2289C31.2352 85.229 31.2345 85.2288 31.2348 85.2289C31.6563 85.3521 31.9703 85.4773 32.1751 85.604C32.1774 85.6054 32.1797 85.6069 32.182 85.6083C32.2196 85.6319 32.2534 85.6555 32.2835 85.6792C32.3786 85.7527 32.4507 85.8412 32.4998 85.9447C32.5008 85.9467 32.5017 85.9487 32.5027 85.9507C32.5525 86.0582 32.5779 86.1815 32.5788 86.3209C32.5788 86.3235 32.5788 86.3261 32.5788 86.3288C32.5788 86.5539 32.5105 86.7411 32.3739 86.8903C32.3732 86.8911 32.3724 86.8919 32.3717 86.8927C32.3384 86.9287 32.3012 86.9625 32.2599 86.9941C32.0473 87.1569 31.7415 87.2382 31.3426 87.2382C31.0088 87.2382 30.727 87.1775 30.4971 87.0561C30.4959 87.0555 30.4947 87.0549 30.4935 87.0542C30.43 87.0205 30.3705 86.9821 30.315 86.939C30.1929 86.8421 30.1001 86.7286 30.0366 86.5985C30.0359 86.597 30.0352 86.5956 30.0345 86.5941C29.9669 86.4539 29.9331 86.2946 29.9331 86.1162ZM34.2217 86.0567C34.2684 86.2402 34.3297 86.4135 34.4056 86.5768C34.4914 86.7578 34.5924 86.9206 34.7085 87.0651C34.7097 87.0666 34.7108 87.068 34.712 87.0694C34.8578 87.2501 35.0273 87.4021 35.2205 87.5256C35.5696 87.7461 35.9699 87.8563 36.4213 87.8563C36.8833 87.8563 37.2875 87.7461 37.6339 87.5256C37.8139 87.4111 37.9726 87.27 38.1101 87.1024C38.1106 87.1017 38.1111 87.1011 38.1117 87.1005C38.2382 86.9458 38.3466 86.7686 38.4371 86.5689C38.6188 86.165 38.7132 85.6955 38.7201 85.1605C38.7202 85.1575 38.7202 85.1546 38.7202 85.1516C38.7204 85.1333 38.7205 85.1149 38.7205 85.0965V84.7343C38.7205 84.7316 38.7205 84.729 38.7205 84.7264C38.7197 84.1706 38.6252 83.6837 38.4371 83.2658C38.3494 83.0697 38.2441 82.8953 38.1214 82.7427C38.1209 82.7421 38.1204 82.7415 38.1199 82.7408C37.9785 82.5655 37.8139 82.4189 37.626 82.3012C37.277 82.0781 36.8728 81.9666 36.4134 81.9666C35.962 81.9666 35.5604 82.0794 35.2087 82.3051C35.0251 82.4225 34.8632 82.5675 34.7231 82.7401C34.723 82.7403 34.7233 82.7399 34.7231 82.7401C34.5972 82.8954 34.4884 83.0737 34.3977 83.2736C34.3259 83.4319 34.2676 83.5992 34.2227 83.7756C34.1577 84.031 34.1209 84.3054 34.1123 84.5987C34.1116 84.621 34.1111 84.6435 34.1108 84.6661C34.1107 84.6691 34.1107 84.6722 34.1107 84.6752C34.1104 84.6948 34.1103 84.7145 34.1103 84.7343V85.1477C34.1119 85.3165 34.1227 85.4791 34.1425 85.6354C34.161 85.7813 34.1874 85.9218 34.2217 86.0567ZM34.8625 85.1404C34.8625 85.1428 34.8625 85.1452 34.8625 85.1477C34.8673 85.583 34.9337 85.9557 35.0615 86.2656C35.0623 86.2674 35.063 86.2691 35.0637 86.2708C35.1218 86.4105 35.1924 86.5375 35.2757 86.6516C35.3659 86.7734 35.4671 86.8754 35.5792 86.9577C35.5802 86.9584 35.5812 86.9591 35.5821 86.9598C35.8149 87.1297 36.0947 87.2146 36.4213 87.2146C36.7584 87.2146 37.0429 87.1302 37.2748 86.9613C37.3788 86.8855 37.4723 86.7928 37.5552 86.6831C37.6447 86.5637 37.7198 86.4271 37.7802 86.2733C37.7804 86.2728 37.7806 86.2723 37.7808 86.2718C37.9008 85.9661 37.9633 85.5928 37.9686 85.1516V84.7264C37.9686 84.2649 37.9057 83.8766 37.7799 83.5615C37.7797 83.561 37.7795 83.5605 37.7793 83.5599C37.7199 83.4115 37.6465 83.2793 37.5591 83.1634C37.4729 83.0482 37.3759 82.9512 37.268 82.8724C37.2664 82.8712 37.2648 82.8701 37.2632 82.8689C37.0303 82.7004 36.747 82.6162 36.4134 82.6162C36.0859 82.6162 35.8059 82.7019 35.5734 82.8734C35.5731 82.8737 35.5727 82.8739 35.5724 82.8742C35.4662 82.9527 35.3699 83.0491 35.2835 83.1634C35.1928 83.2839 35.1166 83.42 35.0552 83.5718C34.9318 83.8764 34.8675 84.2443 34.8623 84.6752V85.0965C34.8623 85.1112 34.8623 85.1258 34.8625 85.1404ZM39.8544 87.7776H40.6142V83.3603L43.5001 87.7776H44.2599V82.0453H43.5079V86.4823L40.6142 82.0453H39.8544V87.7776ZM2.81497 84.5492C2.77481 84.5846 2.7321 84.6168 2.68681 84.6457C2.65503 84.666 2.622 84.6847 2.5877 84.7018C2.44815 84.7715 2.28769 84.8149 2.1063 84.8321C2.04687 84.8378 1.98519 84.8406 1.92126 84.8406H0.759844V82.6673H1.91733C2.31628 82.67 2.62074 82.7658 2.83071 82.9547C2.86108 82.9817 2.88928 83.0104 2.91531 83.0408C2.9159 83.0415 2.9165 83.0422 2.91709 83.0429C3.0721 83.2249 3.14961 83.4671 3.14961 83.7697C3.14961 83.9608 3.11117 84.1292 3.03429 84.275C3.03356 84.2764 3.03282 84.2778 3.03208 84.2792C2.97822 84.3801 2.90585 84.4701 2.81497 84.5492Z" fill="#171717"/>
<path fill-rule="evenodd" clip-rule="evenodd" d="M90 85.5322H48.2268V84.5075H90V85.5322Z" fill="#171717"/>
</svg>
