<svg width="90" height="73" viewBox="0 0 90 73" fill="none" xmlns="http://www.w3.org/2000/svg">
<path d="M18.4731 71.4462L19.4549 68.6117H19.9505L18.676 72.0481H18.2748L17.0027 68.6117H17.496L18.4731 71.4462Z" fill="#171717"/>
<path d="M22.3555 70.4597H20.8663V71.6775H22.5963V72.0481H20.4131V68.6117H22.5727V68.9846H20.8663V70.0891H22.3555V70.4597Z" fill="#171717"/>
<path d="M24.4207 70.6579H23.6135V72.0481H23.158V68.6117H24.2956C24.6827 68.6117 24.98 68.6998 25.1877 68.876C25.397 69.0522 25.5016 69.3087 25.5016 69.6454C25.5016 69.8594 25.4434 70.0459 25.327 70.2048C25.2121 70.3637 25.0516 70.4825 24.8455 70.5612L25.6527 72.0197V72.0481H25.1665L24.4207 70.6579ZM23.6135 70.2874H24.3098C24.5348 70.2874 24.7133 70.2292 24.8455 70.1127C24.9793 69.9963 25.0461 69.8405 25.0461 69.6454C25.0461 69.433 24.9824 69.2701 24.855 69.1569C24.7291 69.0436 24.5466 68.9861 24.3074 68.9846H23.6135V70.2874Z" fill="#171717"/>
<path d="M28.7799 72.0481H28.3244L26.5944 69.4V72.0481H26.1389V68.6117H26.5944L28.3291 71.2716V68.6117H28.7799V72.0481Z" fill="#171717"/>
<path d="M30.0709 72.0481H29.6178V68.6117H30.0709V72.0481Z" fill="#171717"/>
<path d="M33.4294 70.9577C33.387 71.3211 33.2524 71.602 33.0259 71.8002C32.8008 71.9969 32.5011 72.0953 32.1266 72.0953C31.7207 72.0953 31.395 71.9497 31.1495 71.6586C30.9056 71.3675 30.7837 70.9781 30.7837 70.4903V70.1599C30.7837 69.8405 30.8403 69.5597 30.9536 69.3173C31.0685 69.075 31.2306 68.8894 31.4398 68.7603C31.6491 68.6298 31.8914 68.5645 32.1668 68.5645C32.5318 68.5645 32.8245 68.6667 33.0447 68.8713C33.265 69.0742 33.3933 69.3559 33.4294 69.7162H32.9739C32.9346 69.4424 32.8488 69.2442 32.7167 69.1215C32.5861 68.9987 32.4028 68.9374 32.1668 68.9374C31.8772 68.9374 31.6499 69.0444 31.4847 69.2583C31.321 69.4723 31.2392 69.7768 31.2392 70.1717V70.5045C31.2392 70.8774 31.3171 71.174 31.4729 71.3943C31.6286 71.6146 31.8466 71.7247 32.1266 71.7247C32.3784 71.7247 32.5711 71.6681 32.7049 71.5548C32.8402 71.4399 32.9299 71.2409 32.9739 70.9577H33.4294Z" fill="#171717"/>
<path d="M35.9926 70.4597H34.5033V71.6775H36.2333V72.0481H34.0502V68.6117H36.2097V68.9846H34.5033V70.0891H35.9926V70.4597Z" fill="#171717"/>
<path d="M2.2073 61.1303H0.00012207V44.3926H2.2073V61.1303Z" fill="#171717"/>
<path d="M19.1175 61.1303H16.8988L8.47247 48.2321V61.1303H6.25379V44.3926H8.47247L16.9218 57.3483V44.3926H19.1175V61.1303Z" fill="#171717"/>
<path d="M32.2686 53.7386H25.2447V61.1303H23.0375V44.3926H33.4067V46.2089H25.2447V51.9338H32.2686V53.7386Z" fill="#171717"/>
<path d="M38.4188 61.1303H36.2116V44.3926H38.4188V61.1303Z" fill="#171717"/>
<path d="M55.329 61.1303H53.1104L44.684 48.2321V61.1303H42.4653V44.3926H44.684L53.1333 57.3483V44.3926H55.329V61.1303Z" fill="#171717"/>
<path d="M61.6172 61.1303H59.41V44.3926H61.6172V61.1303Z" fill="#171717"/>
<path d="M76.8835 46.2089H71.5035V61.1303H69.3078V46.2089H63.9393V44.3926H76.8835V46.2089Z" fill="#171717"/>
<path d="M88.8276 53.3937H81.5738V59.3255H90.0001V61.1303H79.3666V44.3926H89.8852V46.2089H81.5738V51.5889H88.8276V53.3937Z" fill="#171717"/>
<path d="M50.4633 3.15137C46.9473 3.15137 43.6481 3.66398 40.717 4.59063C37.6873 3.63769 34.4145 3.15137 30.9773 3.15137C18.4774 3.15137 8.68518 9.67077 8.68518 17.9909C8.68518 26.311 18.4774 32.8304 30.9773 32.8304C34.4933 32.8304 37.7924 32.3178 40.7235 31.3911C43.7467 32.3441 47.0261 32.8304 50.4633 32.8304C62.9631 32.8304 72.7553 26.311 72.7553 17.9909C72.7488 9.67077 62.9631 3.15137 50.4633 3.15137ZM9.34896 17.9909C9.34896 10.0388 18.8521 3.80856 30.9839 3.80856C34.0202 3.80856 36.9315 4.19631 39.6523 4.95866C39.12 5.14925 38.6074 5.35955 38.1079 5.57643C38.0948 5.583 38.0882 5.58301 38.0816 5.58958C37.6216 5.79331 37.1747 6.00362 36.741 6.22707C36.7015 6.24678 36.6555 6.26649 36.6161 6.28621C34.7956 5.95104 32.9029 5.78016 30.9905 5.78016C20.1467 5.78016 11.3271 11.2612 11.3271 17.9909C11.3271 24.7272 20.1467 30.2016 30.9905 30.2016C32.9424 30.2016 34.8219 30.0242 36.6029 29.689L36.7147 29.6693C36.7212 29.6693 36.7212 29.6693 36.7278 29.6693C37.0761 29.6036 37.4244 29.5313 37.7662 29.4524C37.8187 29.4393 37.8779 29.4261 37.9305 29.413C38.1933 29.3538 38.4563 29.2881 38.7126 29.2158C38.8703 29.1764 39.0214 29.1304 39.1791 29.0844C39.3303 29.045 39.4815 28.9989 39.6261 28.9529C39.8167 28.8938 40.0007 28.8346 40.1847 28.7755C40.2833 28.7426 40.3818 28.7098 40.487 28.6769C40.6053 28.6375 40.7236 28.598 40.8353 28.5586L41.6962 28.2497L41.6568 28.2366C47.059 26.0613 50.6472 22.2758 50.6472 17.9843C50.6472 13.8505 47.2429 9.97965 41.7028 7.73861C42.682 7.42973 43.7007 7.16686 44.7522 6.9697C49.7534 9.64449 52.6188 13.6534 52.6188 17.9843C52.6188 22.4795 49.5826 26.4227 44.7522 29.0055H44.739L44.6405 29.0581C43.405 29.7087 42.0576 30.2739 40.625 30.7274L40.1255 30.8851C37.3652 31.7066 34.2765 32.1666 30.9905 32.1666C18.8521 32.1798 9.34896 25.9496 9.34896 17.9909ZM40.7104 8.08035C46.428 10.1702 49.9834 13.9557 49.9834 17.9975C49.9834 22.2035 46.2637 25.8904 40.7301 27.9146C35.0125 25.8313 31.4571 22.0392 31.4571 17.9975C31.4571 13.7848 35.1702 10.0979 40.7104 8.08035ZM35.6763 6.8054C31.0496 9.50648 28.1711 13.4825 28.1711 17.9975C28.1711 22.3678 30.8985 26.403 35.6829 29.1961C34.1779 29.4327 32.6006 29.5576 30.9773 29.5576C20.495 29.5576 11.9712 24.3723 11.9712 18.004C11.9712 11.6292 20.495 6.45051 30.9773 6.45051C32.5743 6.43737 34.145 6.56224 35.6763 6.8054ZM45.7577 6.79882C47.2627 6.56223 48.84 6.43735 50.4633 6.43735C60.9455 6.43735 69.4693 11.6227 69.4693 17.9909C69.4693 24.3657 60.9455 29.5444 50.4633 29.5444C48.8728 29.5444 47.2955 29.4195 45.7643 29.1764C50.3909 26.4753 53.2694 22.4993 53.2694 17.9843C53.2694 13.6271 50.5421 9.58534 45.7577 6.79882ZM50.4633 32.1798C47.4204 32.1798 44.509 31.792 41.7948 31.0297C42.3271 30.8391 42.8397 30.6288 43.3392 30.4119C43.3457 30.4119 43.3523 30.4053 43.3589 30.4053C43.8387 30.195 44.2987 29.9716 44.7522 29.7416C44.7785 29.7284 44.8047 29.7153 44.831 29.7022C46.6515 30.0373 48.5442 30.2082 50.4567 30.2082C61.3004 30.2082 70.12 24.7272 70.12 17.9975C70.12 11.2612 61.3004 5.78673 50.4567 5.78673C47.703 5.78673 45.0808 6.14163 42.6951 6.77911C42.5834 6.81197 42.4717 6.84482 42.36 6.87111C42.1694 6.92368 41.9788 6.97626 41.7948 7.03541C41.6239 7.08798 41.4596 7.14056 41.2887 7.1997C41.1704 7.23914 41.0522 7.27858 40.9405 7.31802C40.8288 7.35745 40.7236 7.3903 40.6119 7.42973L39.7509 7.73861L39.7838 7.75175C34.3816 9.93364 30.7933 13.7125 30.7933 18.004C30.7933 22.1378 34.1976 26.0087 39.7378 28.2497C38.7585 28.5586 37.7399 28.8215 36.6949 29.0187C31.6871 26.3439 28.8217 22.335 28.8217 18.004C28.8217 13.5088 31.8579 9.56562 36.6883 6.98284H36.7015L36.8001 6.93025C38.0291 6.2862 39.3829 5.72102 40.8221 5.26098L41.3939 5.07697C44.1344 4.26862 47.197 3.81514 50.4501 3.81514C62.582 3.81514 72.085 10.0454 72.085 17.9975C72.0916 25.9496 62.5885 32.1798 50.4633 32.1798Z" fill="#171717"/>
<path d="M50.4633 0.522461C47.0721 0.522461 43.7993 0.969354 40.7367 1.85657C37.661 0.969354 34.3816 0.522461 30.9839 0.522461C17.0119 0.522461 6.06299 8.19854 6.06299 17.9908C6.06299 27.7896 17.0119 35.4591 30.9839 35.4591C34.3816 35.4591 37.6544 35.0122 40.7104 34.125C43.7861 35.0122 47.0656 35.4591 50.4633 35.4591C64.4353 35.4591 75.3841 27.783 75.3841 17.9908C75.3776 8.19854 64.4353 0.522461 50.4633 0.522461ZM50.4633 34.8084C47.0919 34.8084 43.8452 34.3616 40.8024 33.4743L40.7104 33.448L40.6184 33.4743C37.5953 34.3616 34.3488 34.8084 30.9839 34.8084C17.38 34.8084 6.72019 27.4216 6.72019 17.9974C6.72019 8.56657 17.38 1.18624 30.9839 1.18624C34.3554 1.18624 37.6019 1.63313 40.6447 2.52035L40.7367 2.54664L40.8287 2.52035C43.8584 1.63313 47.0984 1.18624 50.4633 1.18624C64.0673 1.18624 74.7269 8.57314 74.7269 17.9974C74.7204 27.4216 64.0673 34.8084 50.4633 34.8084Z" fill="#171717"/>
</svg>
