<svg width="90" height="82" viewBox="0 0 90 82" fill="none" xmlns="http://www.w3.org/2000/svg">
<path d="M66.3705 22.1584L59.2577 9.84407L59.1727 9.69249H50.1377L44.9471 0.706787L39.7566 9.69249H30.7214L23.5238 22.1584L30.6366 34.4728L30.7214 34.6244H39.7566L44.9471 43.61L50.1377 34.6244H59.1727L66.3705 22.1584ZM58.8272 10.2988L65.4973 21.8552H57.1657L50.4955 10.2988H58.8272ZM37.7555 21.8552H33.4441L40.1143 10.2988H44.4257L37.7555 21.8552ZM37.7555 22.4615L44.4257 34.018H40.1143L33.4441 22.4615H37.7555ZM38.283 22.1584L44.9531 10.602L51.6233 22.1584L44.9531 33.7149L38.283 22.1584ZM52.1509 22.4615H56.4622L49.792 34.018H45.4808L52.1509 22.4615ZM52.1509 21.8552L45.4808 10.2988H49.792L56.4622 21.8552H52.1509ZM44.9531 1.91336L49.4404 9.68642H45.4747H44.4257H40.4599L44.9531 1.91336ZM31.0853 10.2988H39.417L32.7468 21.8552H24.4152L31.0853 10.2988ZM31.0853 34.018L24.4152 22.4615H32.7468L39.417 34.018H31.0853ZM44.9531 42.3973L40.466 34.6244H44.4317H45.4808H49.4465L44.9531 42.3973ZM50.4955 34.018L57.1657 22.4615H65.4973L58.8272 34.018H50.4955Z" fill="#171717"/>
<path d="M3.56374 80.4022H1.26334L0.746689 81.8352H0L2.09676 76.3444H2.73032L4.83085 81.8352H4.08793L3.56374 80.4022ZM1.48206 79.8063H3.34879L2.41354 77.2382L1.48206 79.8063Z" fill="#171717"/>
<path d="M9.56366 80.0929C9.49578 80.6737 9.28082 81.1225 8.91879 81.4392C8.55927 81.7535 8.08033 81.9106 7.48198 81.9106C6.83334 81.9106 6.31292 81.6781 5.92072 81.213C5.53103 80.7479 5.33619 80.1256 5.33619 79.3462V78.8183C5.33619 78.3079 5.4267 77.8592 5.60771 77.472C5.79124 77.0848 6.05019 76.7881 6.38457 76.582C6.71895 76.3733 7.10612 76.269 7.54609 76.269C8.12936 76.269 8.59698 76.4324 8.94896 76.7592C9.30093 77.0836 9.50583 77.5336 9.56366 78.1093H8.83582C8.77297 77.6719 8.63595 77.3551 8.42477 77.159C8.2161 76.9629 7.9232 76.8648 7.54609 76.8648C7.08349 76.8648 6.7202 77.0358 6.45622 77.3777C6.19475 77.7196 6.06402 78.2061 6.06402 78.8371V79.3689C6.06402 79.9647 6.18847 80.4386 6.43737 80.7906C6.68626 81.1426 7.03447 81.3186 7.48198 81.3186C7.88423 81.3186 8.19221 81.2281 8.40591 81.047C8.62212 80.8635 8.76543 80.5455 8.83582 80.0929H9.56366Z" fill="#171717"/>
<path d="M13.5875 80.4022H11.2871L10.7704 81.8352H10.0237L12.1205 76.3444H12.7541L14.8546 81.8352H14.1117L13.5875 80.4022ZM11.5058 79.8063H13.3725L12.4373 77.2382L11.5058 79.8063Z" fill="#171717"/>
<path d="M15.5937 81.8352V76.3444H17.1437C17.6214 76.3444 18.0437 76.45 18.4108 76.6612C18.7779 76.8724 19.0607 77.1728 19.2593 77.5625C19.4604 77.9522 19.5623 78.3997 19.5648 78.905V79.2557C19.5648 79.7736 19.4642 80.2274 19.2631 80.6171C19.0645 81.0068 18.7791 81.306 18.407 81.5147C18.0374 81.7233 17.6063 81.8302 17.1135 81.8352H15.5937ZM16.3178 76.9402V81.2431H17.0796C17.6377 81.2431 18.0714 81.0697 18.3806 80.7227C18.6924 80.3758 18.8482 79.8818 18.8482 79.2407V78.9201C18.8482 78.2966 18.7012 77.8126 18.407 77.4682C18.1154 77.1213 17.7006 76.9453 17.1625 76.9402H16.3178Z" fill="#171717"/>
<path d="M23.7658 79.2972H21.3862V81.2431H24.1505V81.8352H20.6622V76.3444H24.1128V76.9402H21.3862V78.7051H23.7658V79.2972Z" fill="#171717"/>
<path d="M25.987 76.3444L27.7821 80.8245L29.5772 76.3444H30.5162V81.8352H29.7921V79.697L29.86 77.389L28.0574 81.8352H27.5031L25.7042 77.4003L25.7759 79.697V81.8352H25.0518V76.3444H25.987Z" fill="#171717"/>
<path d="M33.3634 79.1011L34.7965 76.3444H35.6186L33.7255 79.7875V81.8352H33.0014V79.7875L31.1083 76.3444H31.9379L33.3634 79.1011Z" fill="#171717"/>
<path d="M13.963 64.9758C13.963 65.6253 13.8792 66.1979 13.7115 66.6938C13.5509 67.1896 13.3205 67.6191 13.0202 67.9823C12.7269 68.3454 12.3777 68.6492 11.9726 68.8936C11.5676 69.138 11.1241 69.3336 10.6422 69.4802C10.1674 69.6269 9.66104 69.7317 9.1233 69.7945C8.59255 69.8574 8.05132 69.8888 7.49961 69.8888C6.77331 69.8888 6.10288 69.8329 5.48833 69.7212C4.87377 69.6164 4.29413 69.4488 3.7494 69.2184C3.21166 68.9809 2.69138 68.6771 2.18856 68.307C1.69272 67.9369 1.19689 67.4864 0.70105 66.9557L2.83804 64.7872C3.03358 65.2691 3.30245 65.7161 3.64465 66.1281C3.98685 66.5332 4.36047 66.8823 4.76552 67.1756C5.17755 67.469 5.60356 67.6994 6.04352 67.867C6.48349 68.0346 6.89902 68.1184 7.2901 68.1184C7.75102 68.1184 8.18401 68.087 8.58906 68.0242C8.99411 67.9543 9.34678 67.8426 9.64707 67.6889C9.94737 67.5353 10.1813 67.3328 10.3489 67.0814C10.5235 66.823 10.6108 66.5017 10.6108 66.1176C10.6108 65.8243 10.5445 65.5729 10.4118 65.3634C10.2791 65.1539 10.1045 64.9758 9.88801 64.8292C9.6785 64.6755 9.43757 64.5463 9.16521 64.4416C8.89284 64.3368 8.6135 64.2495 8.32717 64.1797C8.04782 64.1029 7.77197 64.0365 7.49961 63.9806C7.22725 63.9178 6.98631 63.8549 6.7768 63.7921C6.36477 63.6734 5.93528 63.5477 5.48833 63.415C5.04137 63.2753 4.60141 63.1182 4.16842 62.9436C3.73544 62.769 3.3234 62.5699 2.93232 62.3465C2.54822 62.116 2.20951 61.8471 1.9162 61.5399C1.62289 61.2256 1.38894 60.8659 1.21435 60.4609C1.03976 60.0489 0.95246 59.5775 0.95246 59.0467C0.95246 58.4112 1.02928 57.849 1.18292 57.3602C1.34354 56.8643 1.56702 56.4348 1.85335 56.0717C2.13968 55.7085 2.47838 55.4047 2.86947 55.1603C3.26055 54.9089 3.69004 54.7099 4.15794 54.5632C4.62585 54.4096 5.12169 54.3013 5.64546 54.2385C6.17621 54.1686 6.71744 54.1337 7.26915 54.1337C8.02338 54.1337 8.70778 54.2036 9.32234 54.3432C9.94388 54.4829 10.5165 54.6819 11.0403 54.9403C11.5641 55.1987 12.0425 55.5095 12.4754 55.8727C12.9154 56.2288 13.3274 56.6269 13.7115 57.0669L11.5746 59.2353C11.4069 58.7324 11.173 58.2785 10.8727 57.8735C10.5794 57.4684 10.2512 57.1227 9.88801 56.8364C9.52486 56.5431 9.14425 56.3196 8.74619 56.166C8.34812 56.0053 7.96402 55.925 7.59389 55.925C7.11202 55.925 6.66856 55.9599 6.26351 56.0298C5.85846 56.0926 5.50928 56.2009 5.21596 56.3545C4.92964 56.5012 4.70616 56.7037 4.54554 56.9621C4.38491 57.2135 4.3046 57.5278 4.3046 57.9049C4.3046 58.2052 4.36396 58.4601 4.48268 58.6696C4.6014 58.8791 4.75854 59.0572 4.95408 59.2038C5.1566 59.3505 5.38357 59.4727 5.63498 59.5705C5.88639 59.6613 6.14479 59.7416 6.41016 59.8114C6.68253 59.8813 6.9479 59.9441 7.2063 60C7.47168 60.0489 7.71261 60.1047 7.9291 60.1676C8.34812 60.2863 8.78809 60.412 9.24901 60.5447C9.70993 60.6774 10.1639 60.8345 10.6108 61.0161C11.0578 61.1907 11.4838 61.3932 11.8888 61.6237C12.2939 61.8541 12.65 62.13 12.9573 62.4512C13.2646 62.7655 13.509 63.1321 13.6906 63.5511C13.8722 63.9632 13.963 64.4381 13.963 64.9758Z" fill="#171717"/>
<path d="M29.85 62.3674V62.5665C29.836 63.1531 29.7732 63.7607 29.6614 64.3892C29.5567 65.0177 29.4065 65.6462 29.211 66.2748C29.0155 66.9033 28.7815 67.5248 28.5092 68.1394C28.2368 68.7539 27.9295 69.3406 27.5873 69.8993C27.2521 70.4649 26.8889 70.9922 26.4979 71.4811C26.1068 71.9769 25.6947 72.4134 25.2618 72.7905L23.7009 71.8896C23.9454 71.4776 24.1653 71.0271 24.3609 70.5383C24.5634 70.0564 24.745 69.5501 24.9056 69.0193C25.0662 68.4886 25.2024 67.9438 25.3141 67.3852C25.4329 66.8265 25.5306 66.2713 25.6075 65.7196C25.6843 65.1679 25.7401 64.6266 25.7751 64.0959C25.817 63.5581 25.8379 63.0483 25.8379 62.5665C25.8379 62.1893 25.8344 61.7633 25.8274 61.2885C25.8274 60.8066 25.7995 60.3177 25.7436 59.8219C25.6947 59.3261 25.6109 58.8442 25.4922 58.3763C25.3735 57.9014 25.1954 57.4789 24.958 57.1088C24.7275 56.7386 24.4272 56.4418 24.0571 56.2183C23.6939 55.9949 23.24 55.8831 22.6953 55.8831C22.2134 55.8831 21.7979 55.9669 21.4487 56.1345C21.1065 56.2952 20.8132 56.5151 20.5688 56.7945C20.3313 57.0669 20.1393 57.3846 19.9926 57.7478C19.8529 58.1109 19.7412 58.495 19.6574 58.9001C19.5806 59.2981 19.5282 59.7032 19.5003 60.1152C19.4793 60.5203 19.4688 60.9044 19.4688 61.2675V64.1901H23.9838V65.9186H19.4688V69.585H15.3101V61.917C15.3101 60.8205 15.4847 59.8009 15.8339 58.8582C16.183 57.9154 16.6754 57.0983 17.3109 56.4069C17.9534 55.7085 18.7216 55.1638 19.6155 54.7727C20.5164 54.3747 21.5185 54.1756 22.622 54.1756C23.3692 54.1756 24.0676 54.2839 24.717 54.5004C25.3735 54.7099 25.9706 55.0032 26.5083 55.3803C27.0461 55.7504 27.5245 56.1939 27.9435 56.7107C28.3695 57.2205 28.7222 57.7792 29.0015 58.3868C29.2878 58.9943 29.5043 59.6368 29.651 60.3142C29.7976 60.9916 29.864 61.676 29.85 62.3674Z" fill="#171717"/>
<path d="M35.6492 69.585H31.4905V54.5004H39.6404C40.3457 54.5004 41.0196 54.5946 41.6621 54.7832C42.3116 54.9718 42.8842 55.2581 43.3801 55.6422C43.8759 56.0193 44.2705 56.4977 44.5638 57.0773C44.8641 57.65 45.0143 58.3239 45.0143 59.0991C45.0143 59.5879 44.9444 60.0489 44.8047 60.4818C44.6651 60.9078 44.4695 61.2989 44.2181 61.6551C43.9737 62.0113 43.6839 62.3325 43.3487 62.6188C43.0134 62.9052 42.6468 63.1461 42.2487 63.3416C41.8507 63.5372 41.4282 63.6873 40.9812 63.7921C40.5412 63.8968 40.0943 63.9492 39.6404 63.9492H35.6492V69.585ZM40.8031 59.0991C40.8031 58.1284 40.5552 57.3671 40.0594 56.8154C39.5705 56.2568 38.8303 55.9774 37.8386 55.9774H35.6492V62.5246H37.8386C38.3693 62.5246 38.8198 62.4408 39.1899 62.2731C39.567 62.0986 39.8743 61.8576 40.1117 61.5503C40.3492 61.2431 40.5238 60.8834 40.6355 60.4714C40.7473 60.0524 40.8031 59.5949 40.8031 59.0991Z" fill="#171717"/>
<path d="M50.2687 69.585H46.11V54.5004H53.5266C54.225 54.5004 54.8989 54.5842 55.5484 54.7518C56.1978 54.9124 56.7705 55.1708 57.2663 55.527C57.7691 55.8761 58.1672 56.3301 58.4605 56.8888C58.7608 57.4475 58.911 58.1249 58.911 58.921C58.911 59.5425 58.7783 60.1292 58.5129 60.6809C58.2545 61.2256 57.9053 61.7145 57.4654 62.1474C57.0324 62.5734 56.533 62.9296 55.9674 63.2159C55.4017 63.4953 54.8151 63.6803 54.2075 63.7711C54.4799 64.2321 54.7627 64.6685 55.056 65.0806C55.3563 65.4926 55.6566 65.8802 55.9569 66.2433C56.2642 66.5995 56.568 66.9312 56.8683 67.2385C57.1686 67.5388 57.4549 67.8147 57.7272 68.0661C58.3697 68.6527 59.0052 69.159 59.6338 69.585H54.4484C54.0294 69.1869 53.6313 68.7086 53.2542 68.1499C52.933 67.675 52.6082 67.0884 52.28 66.39C51.9588 65.6846 51.7109 64.8711 51.5363 63.9492H50.2687V69.585ZM54.6894 58.921C54.6894 57.9084 54.4415 57.1646 53.9456 56.6897C53.4568 56.2148 52.72 55.9774 51.7353 55.9774H50.2687V62.5246H51.7353C52.2591 62.5246 52.706 62.4268 53.0762 62.2312C53.4533 62.0287 53.7605 61.7633 53.998 61.4351C54.2354 61.0999 54.41 60.7158 54.5218 60.2828C54.6335 59.8498 54.6894 59.3959 54.6894 58.921Z" fill="#171717"/>
<path d="M76.1179 62.0217C76.1179 63.2369 75.9084 64.3333 75.4894 65.311C75.0704 66.2817 74.4907 67.1058 73.7505 67.7832C73.0102 68.4606 72.1338 68.9809 71.1211 69.3441C70.1085 69.7072 69.0121 69.8888 67.8318 69.8888C66.6516 69.8888 65.5552 69.7072 64.5426 69.3441C63.5299 68.9809 62.6535 68.4606 61.9132 67.7832C61.173 67.1058 60.5933 66.2817 60.1743 65.311C59.7553 64.3333 59.5458 63.2369 59.5458 62.0217C59.5458 60.7856 59.7518 59.6822 60.1638 58.7115C60.5828 57.7338 61.159 56.9097 61.8923 56.2393C62.6325 55.5619 63.509 55.0451 64.5216 54.6889C65.5342 54.3258 66.6376 54.1442 67.8318 54.1442C69.0261 54.1442 70.1295 54.3258 71.1421 54.6889C72.1547 55.0451 73.0277 55.5619 73.761 56.2393C74.5012 56.9097 75.0774 57.7338 75.4894 58.7115C75.9084 59.6822 76.1179 60.7856 76.1179 62.0217ZM71.8858 62.0217C71.8858 61.5608 71.8649 61.0894 71.823 60.6075C71.7811 60.1257 71.7043 59.6578 71.5925 59.2038C71.4808 58.7499 71.3272 58.3239 71.1316 57.9258C70.9431 57.5278 70.6986 57.1821 70.3983 56.8888C70.098 56.5885 69.7349 56.3545 69.3089 56.1869C68.8899 56.0123 68.3975 55.925 67.8318 55.925C67.2592 55.925 66.7599 56.0123 66.3339 56.1869C65.9079 56.3545 65.5447 56.585 65.2444 56.8783C64.9441 57.1716 64.6997 57.5173 64.5111 57.9154C64.3226 58.3134 64.1724 58.7394 64.0607 59.1934C63.9559 59.6403 63.8826 60.1082 63.8407 60.5971C63.7988 61.0789 63.7779 61.5538 63.7779 62.0217C63.7779 62.4827 63.7988 62.954 63.8407 63.4359C63.8826 63.9178 63.9594 64.3857 64.0712 64.8396C64.1829 65.2866 64.3331 65.7091 64.5216 66.1072C64.7172 66.5052 64.9651 66.8544 65.2654 67.1547C65.5657 67.448 65.9253 67.682 66.3443 67.8566C66.7703 68.0311 67.2662 68.1184 67.8318 68.1184C68.3836 68.1184 68.8654 68.0311 69.2775 67.8566C69.6895 67.675 70.0457 67.434 70.346 67.1337C70.6463 66.8265 70.8942 66.4738 71.0897 66.0757C71.2922 65.6707 71.4494 65.2447 71.5611 64.7977C71.6798 64.3438 71.7636 63.8794 71.8125 63.4045C71.8614 62.9296 71.8858 62.4687 71.8858 62.0217Z" fill="#171717"/>
<path d="M89.8261 69.585H85.5835L82.0428 64.2949L78.4183 69.585H75.4852L80.9324 62.6503L75.4852 54.5004H79.7278L83.1532 59.6229L86.893 54.5004H89.8261L84.2636 61.278L89.8261 69.585Z" fill="#171717"/>
<path fill-rule="evenodd" clip-rule="evenodd" d="M90 79.684H37.8564V78.7025H90V79.684Z" fill="#171717"/>
</svg>
