<svg width="90" height="89" viewBox="0 0 90 89" fill="none" xmlns="http://www.w3.org/2000/svg">
<path d="M75.2811 22.3101L53.1156 0.144531L45.0001 8.26002L36.8845 0.144531L14.719 22.3101L36.8845 44.4756L45.0001 36.3601L53.1156 44.4756L75.2811 22.3101ZM15.6444 22.3101L36.891 1.0635L44.5471 8.71952L41.1365 12.1301L36.891 7.88467L22.4591 22.3165L36.891 36.7484L42.5797 31.0598L45.466 28.1799L51.3229 22.323L45.466 16.4661L48.4818 13.4438L48.8701 13.0555L58.1376 22.323L48.8701 31.5905L45.4142 35.0464L36.891 43.5696L15.6444 22.3101ZM40.677 12.5831L30.95 22.3101L40.677 32.037L36.8845 35.8294L23.3717 22.3165L36.8845 8.80366L40.677 12.5831ZM45.0065 16.9127L50.4038 22.3101L45.0065 27.7075L39.6091 22.3101L45.0065 16.9127ZM49.3296 12.5831L53.1221 8.7907L66.6349 22.3036L53.1221 35.8165L49.3296 32.0241L59.0566 22.2971L49.3296 12.5831ZM46.178 35.1887L48.8701 32.4965L53.1156 36.7419L67.5475 22.3101L53.1156 7.87819L48.8701 12.1236L48.3977 12.5961L38.6902 22.3036L44.5471 28.1605L42.2755 30.432L41.1365 31.5711L31.869 22.3036L41.1365 13.0361L45.4595 8.71304L53.1156 1.05704L74.362 22.3036L53.1156 43.5501L45.4595 35.8941L46.178 35.1887Z" fill="#171717"/>
<path d="M24.4076 88.4728C24.1703 88.4728 23.9438 88.4327 23.728 88.3526C23.5154 88.2693 23.349 88.163 23.2288 88.0336L23.3351 87.8579C23.4491 87.9781 23.6017 88.0767 23.7928 88.1538C23.9869 88.2277 24.1903 88.2647 24.403 88.2647C24.7112 88.2647 24.9439 88.2062 25.1011 88.089C25.2583 87.9719 25.3368 87.8194 25.3368 87.6314C25.3368 87.4865 25.2952 87.3709 25.212 87.2846C25.1288 87.1983 25.0256 87.1321 24.9023 87.0859C24.779 87.0396 24.6126 86.9919 24.403 86.9425C24.1657 86.884 23.9746 86.827 23.8297 86.7715C23.688 86.716 23.5662 86.6313 23.4645 86.5172C23.3659 86.4001 23.3166 86.2445 23.3166 86.0503C23.3166 85.8931 23.3582 85.7498 23.4414 85.6204C23.5246 85.4878 23.651 85.3831 23.8205 85.306C23.9931 85.229 24.2073 85.1904 24.4631 85.1904C24.6419 85.1904 24.8175 85.2166 24.9901 85.269C25.1627 85.3214 25.3122 85.3923 25.4385 85.4817L25.3507 85.6712C25.2213 85.5818 25.078 85.514 24.9208 85.4678C24.7667 85.4216 24.6141 85.3985 24.4631 85.3985C24.1641 85.3985 23.9376 85.4586 23.7835 85.5788C23.6294 85.699 23.5524 85.8546 23.5524 86.0457C23.5524 86.1905 23.594 86.3061 23.6772 86.3924C23.7604 86.4787 23.8637 86.545 23.9869 86.5912C24.1102 86.6374 24.2782 86.6867 24.4908 86.7391C24.7281 86.7977 24.9177 86.8547 25.0595 86.9102C25.2012 86.9657 25.3214 87.0504 25.4201 87.1644C25.5218 87.2754 25.5726 87.4264 25.5726 87.6175C25.5726 87.7747 25.5295 87.918 25.4432 88.0474C25.36 88.1769 25.2305 88.2801 25.0548 88.3572C24.8792 88.4342 24.6634 88.4728 24.4076 88.4728Z" fill="#171717"/>
<path d="M29.0092 85.2135V88.4496H28.7735V86.9102H26.6099V88.4496H26.3741V85.2135H26.6099V86.7021H28.7735V85.2135H29.0092Z" fill="#171717"/>
<path d="M31.5124 88.4728C31.1949 88.4728 30.9083 88.4019 30.6525 88.2601C30.3967 88.1152 30.1948 87.918 30.0469 87.6684C29.902 87.4187 29.8296 87.1398 29.8296 86.8316C29.8296 86.5234 29.902 86.2445 30.0469 85.9948C30.1948 85.7452 30.3967 85.5495 30.6525 85.4077C30.9083 85.2629 31.1949 85.1904 31.5124 85.1904C31.8298 85.1904 32.1164 85.2613 32.3722 85.4031C32.628 85.5449 32.8284 85.7406 32.9732 85.9902C33.1212 86.2398 33.1951 86.5203 33.1951 86.8316C33.1951 87.1429 33.1212 87.4233 32.9732 87.673C32.8284 87.9226 32.628 88.1183 32.3722 88.2601C32.1164 88.4019 31.8298 88.4728 31.5124 88.4728ZM31.5124 88.2555C31.7836 88.2555 32.0286 88.1938 32.2474 88.0706C32.4662 87.9473 32.6388 87.7778 32.7652 87.562C32.8916 87.3432 32.9547 87.0997 32.9547 86.8316C32.9547 86.5635 32.8916 86.3215 32.7652 86.1058C32.6388 85.887 32.4662 85.7159 32.2474 85.5926C32.0286 85.4693 31.7836 85.4077 31.5124 85.4077C31.2411 85.4077 30.9946 85.4693 30.7727 85.5926C30.5539 85.7159 30.3813 85.887 30.2549 86.1058C30.1285 86.3215 30.0654 86.5635 30.0654 86.8316C30.0654 87.0997 30.1285 87.3432 30.2549 87.562C30.3813 87.7778 30.5539 87.9473 30.7727 88.0706C30.9946 88.1938 31.2411 88.2555 31.5124 88.2555Z" fill="#171717"/>
<path d="M35.1733 85.2135C35.5801 85.2135 35.8991 85.3106 36.1302 85.5048C36.3614 85.6959 36.4769 85.9625 36.4769 86.3046C36.4769 86.6436 36.3614 86.9102 36.1302 87.1043C35.8991 87.2954 35.5801 87.391 35.1733 87.391H34.2487V88.4496H34.0129V85.2135H35.1733ZM35.1733 87.1783C35.5184 87.1783 35.782 87.1028 35.9638 86.9518C36.1456 86.8008 36.2365 86.585 36.2365 86.3046C36.2365 86.0241 36.1456 85.8084 35.9638 85.6574C35.782 85.5033 35.5184 85.4262 35.1733 85.4262H34.2487V87.1783H35.1733Z" fill="#171717"/>
<path d="M10.9616 68.5206H3.88593L2.29681 72.9284H0.00012207L6.44941 56.0396H8.39811L14.859 72.9284H12.5739L10.9616 68.5206ZM4.5587 66.6879H10.3004L7.42376 58.7887L4.5587 66.6879Z" fill="#171717"/>
<path d="M30.1122 72.9284H27.8736L19.3712 59.9138V72.9284H17.1325V56.0396H19.3712L27.8968 69.1122V56.0396H30.1122V72.9284Z" fill="#171717"/>
<path d="M46.537 70.7129C45.9648 71.5326 45.1644 72.1474 44.136 72.5572C43.1152 72.9593 41.9243 73.1604 40.5633 73.1604C39.1869 73.1604 37.9651 72.8395 36.8979 72.1976C35.8308 71.548 35.0033 70.6278 34.4156 69.437C33.8357 68.2461 33.5379 66.8657 33.5225 65.296V63.8228C33.5225 61.2787 34.1141 59.3068 35.2972 57.9071C36.4881 56.5074 38.1584 55.8076 40.3082 55.8076C42.0713 55.8076 43.4903 56.26 44.5651 57.1648C45.64 58.0618 46.2973 59.3377 46.537 60.9926H44.31C43.8924 58.7577 42.5623 57.6403 40.3197 57.6403C38.8273 57.6403 37.6944 58.1662 36.9211 59.2178C36.1556 60.2618 35.7689 61.7775 35.7612 63.7648V65.1452C35.7612 67.0397 36.1942 68.5477 37.0603 69.6689C37.9264 70.7825 39.0979 71.3393 40.5749 71.3393C41.4101 71.3393 42.1409 71.2465 42.7672 71.0609C43.3936 70.8753 43.9117 70.5621 44.3216 70.1213V66.3283H40.4125V64.5188H46.537V70.7129Z" fill="#171717"/>
<path d="M59.8068 65.122H52.4876V71.1073H60.9899V72.9284H50.2605V56.0396H60.8739V57.8723H52.4876V63.3008H59.8068V65.122Z" fill="#171717"/>
<path d="M66.0009 71.1073H74.0045V72.9284H63.7622V56.0396H66.0009V71.1073Z" fill="#171717"/>
<path d="M86.1027 68.5206H79.0271L77.4379 72.9284H75.1412L81.5905 56.0396H83.5392L90.0001 72.9284H87.715L86.1027 68.5206ZM79.6998 66.6879H85.4415L82.5649 58.7887L79.6998 66.6879Z" fill="#171717"/>
</svg>
