<svg width="90" height="93" viewBox="0 0 90 93" fill="none" xmlns="http://www.w3.org/2000/svg">
<path d="M8.80055 72.0881C8.81822 72.0174 8.82706 71.9644 8.82706 71.9291C8.82706 71.8937 8.80939 71.8761 8.77404 71.8761C8.75637 71.8761 8.70336 71.9202 8.615 72.0086C8.54431 72.097 8.44712 72.2207 8.32341 72.3797C8.19971 72.5387 7.93463 72.8392 7.52818 73.281C7.1394 73.7228 6.73295 74.138 6.30883 74.5268C5.16016 75.6225 4.0115 76.4619 2.86283 77.0451C2.58008 77.1864 2.27082 77.2571 1.93506 77.2571C0.64502 77.2571 0 76.2852 0 74.3413C0 72.6094 0.821738 70.5242 2.46521 68.0855C3.24277 66.9545 4.17054 65.85 5.24852 64.772C6.34417 63.6763 7.50168 62.7044 8.72103 61.8562C9.94038 61.0079 11.2658 60.3275 12.6972 59.8151C14.1286 59.2849 15.5247 59.0198 16.8854 59.0198C17.1151 59.0198 17.4244 59.0994 17.8132 59.2584C18.467 59.5411 18.7939 59.8416 18.7939 60.1597C18.7939 60.3364 18.6791 60.4336 18.4493 60.4512C18.361 60.4512 18.3168 60.4866 18.3168 60.5573C18.3168 60.628 18.4405 60.7693 18.6879 60.9814C18.953 61.1758 19.0855 61.3702 19.0855 61.5646C19.0855 61.7413 19.0237 61.9003 18.9 62.0417C18.0164 63.0137 17.3095 63.8266 16.7794 64.4804C16.2492 65.1166 15.8428 65.5937 15.56 65.9118C15.2949 66.2299 14.9857 66.601 14.6322 67.0252C14.2965 67.4316 13.9165 67.9529 13.4924 68.5891C13.0683 69.2076 12.6795 69.8261 12.3261 70.4446C11.5132 71.9467 11.1067 73.3251 11.1067 74.5798C11.1067 75.8169 11.2216 76.992 11.4513 78.1054C11.6811 79.2364 11.9196 79.9256 12.167 80.173C12.167 80.226 12.1052 80.2525 11.9815 80.2525C11.1686 80.2525 10.4705 79.9344 9.88737 79.2982C8.82706 78.1142 8.29691 76.5591 8.29691 74.6329C8.29691 73.9437 8.46479 73.0954 8.80055 72.0881ZM12.2731 66.1239L17.3625 61.0079C17.4862 60.8842 17.5481 60.7958 17.5481 60.7428C17.5481 60.6898 17.5039 60.6633 17.4155 60.6633C16.0548 60.8754 14.6146 61.432 13.0948 62.3333C11.575 63.2346 10.1966 64.2772 8.9596 65.4612C7.72257 66.6452 6.58274 67.8557 5.54011 69.0928C4.49747 70.3298 3.68457 71.4431 3.1014 72.4327C2.5359 73.4223 2.25315 74.1292 2.25315 74.5533C2.25315 74.624 2.29733 74.6594 2.38569 74.6594C2.49172 74.6594 2.68611 74.5975 2.96886 74.4738C3.25161 74.3324 4.22356 73.5549 5.88471 72.1411C7.56353 70.7097 9.69298 68.704 12.2731 66.1239Z" fill="#171717"/>
<path d="M26.2718 58.9668C26.7843 58.5427 27.3675 58.3306 28.0213 58.3306C28.6752 58.3306 29.0021 58.4632 29.0021 58.7282C29.0021 58.8343 28.9226 58.9933 28.7635 59.2054C28.6222 59.5235 27.9595 60.7252 26.7755 62.8104C23.6829 68.218 22.1366 71.823 22.1366 73.6256C22.1366 73.7669 22.172 73.8376 22.2426 73.8376C22.3487 73.8376 22.5254 73.6609 22.7728 73.3075C23.4973 72.0528 24.4251 70.6125 25.5561 68.9867C26.6871 67.3609 27.7562 65.9295 28.7635 64.6925C29.7708 63.4554 30.9107 62.2979 32.183 61.22C33.4554 60.142 34.6129 59.4705 35.6555 59.2054C37.3874 58.9226 38.5095 58.7813 39.022 58.7813C39.075 58.7989 39.1015 58.8431 39.1015 58.9138C39.1015 58.9668 39.0043 59.0463 38.8099 59.1524C36.813 60.2657 34.3301 62.3863 31.3613 65.5142C28.4101 68.6244 25.7417 71.823 23.356 75.11C22.7198 76.188 22.225 76.8595 21.8715 77.1246C21.5181 77.3897 21.094 77.5222 20.5992 77.5222C19.6802 77.5222 19.2208 76.5502 19.2208 74.6063C19.2208 73.7581 19.3886 72.8922 19.7244 72.0086C20.9614 68.704 22.1189 66.336 23.1969 64.9045C23.7978 64.0209 24.0982 63.535 24.0982 63.4466C24.0982 63.3936 23.9921 63.4996 23.7801 63.7647C19.3798 69.296 16.2696 72.9187 14.4494 74.6329C13.1947 75.9406 11.7721 77.2836 10.1816 78.662C8.59118 80.0404 7.31881 80.9859 6.36454 81.4983C6.06412 81.7458 5.74602 81.8695 5.41026 81.8695C5.07449 81.8695 4.66804 81.7281 4.19091 81.4453C3.71377 81.1626 3.4752 80.8357 3.4752 80.4645C3.4752 80.2702 3.58123 80.0934 3.79329 79.9344L8.14055 76.2763C8.40563 76.0466 8.57351 75.9317 8.6442 75.9317C8.69721 75.9317 8.72372 75.9671 8.72372 76.0378C8.72372 76.0908 8.69721 76.1703 8.6442 76.2763C8.59118 76.3824 8.51166 76.4972 8.40563 76.6209C8.28193 76.7446 8.15822 76.8595 8.03452 76.9655L7.58389 77.4427C7.03606 77.9905 6.76215 78.2909 6.76215 78.3439C6.76215 78.4146 6.77982 78.45 6.81517 78.45C6.85051 78.45 6.93887 78.3969 7.08024 78.2909C8.77673 77.1246 11.2243 74.9333 14.4229 71.717C17.6215 68.4831 20.3959 65.5496 22.7463 62.9165L26.2718 58.9668Z" fill="#171717"/>
<path d="M34.1692 72.0881C34.1869 72.0174 34.1957 71.9644 34.1957 71.9291C34.1957 71.8937 34.1781 71.8761 34.1427 71.8761C34.125 71.8761 34.072 71.9202 33.9837 72.0086C33.913 72.097 33.8158 72.2207 33.6921 72.3797C33.5684 72.5387 33.3033 72.8392 32.8969 73.281C32.5081 73.7228 32.1016 74.138 31.6775 74.5268C30.5288 75.6225 29.3802 76.4619 28.2315 77.0451C27.9488 77.1864 27.6395 77.2571 27.3037 77.2571C26.0137 77.2571 25.3687 76.2852 25.3687 74.3413C25.3687 72.6094 26.1904 70.5242 27.8339 68.0855C28.6115 66.9545 29.5392 65.85 30.6172 64.772C31.7129 63.6763 32.8704 62.7044 34.0897 61.8562C35.3091 61.0079 36.6344 60.3275 38.0659 59.8151C39.4973 59.2849 40.8933 59.0198 42.2541 59.0198C42.4838 59.0198 42.7931 59.0994 43.1818 59.2584C43.8357 59.5411 44.1626 59.8416 44.1626 60.1597C44.1626 60.3364 44.0478 60.4336 43.818 60.4512C43.7297 60.4512 43.6855 60.4866 43.6855 60.5573C43.6855 60.628 43.8092 60.7693 44.0566 60.9814C44.3217 61.1758 44.4542 61.3702 44.4542 61.5646C44.4542 61.7413 44.3924 61.9003 44.2687 62.0417C43.3851 63.0137 42.6782 63.8266 42.148 64.4804C41.6179 65.1166 41.2114 65.5937 40.9287 65.9118C40.6636 66.2299 40.3544 66.601 40.0009 67.0252C39.6652 67.4316 39.2852 67.9529 38.8611 68.5891C38.437 69.2076 38.0482 69.8261 37.6947 70.4446C36.8818 71.9467 36.4754 73.3251 36.4754 74.5798C36.4754 75.8169 36.5903 76.992 36.82 78.1054C37.0497 79.2364 37.2883 79.9256 37.5357 80.173C37.5357 80.226 37.4739 80.2525 37.3502 80.2525C36.5372 80.2525 35.8392 79.9344 35.256 79.2982C34.1957 78.1142 33.6656 76.5591 33.6656 74.6329C33.6656 73.9437 33.8335 73.0954 34.1692 72.0881ZM37.6417 66.1239L42.7312 61.0079C42.8549 60.8842 42.9168 60.7958 42.9168 60.7428C42.9168 60.6898 42.8726 60.6633 42.7842 60.6633C41.4235 60.8754 39.9832 61.432 38.4635 62.3333C36.9437 63.2346 35.5653 64.2772 34.3283 65.4612C33.0913 66.6452 31.9514 67.8557 30.9088 69.0928C29.8661 70.3298 29.0532 71.4431 28.4701 72.4327C27.9046 73.4223 27.6218 74.1292 27.6218 74.5533C27.6218 74.624 27.666 74.6594 27.7544 74.6594C27.8604 74.6594 28.0548 74.5975 28.3375 74.4738C28.6203 74.3324 29.5922 73.5549 31.2534 72.1411C32.9322 70.7097 35.0617 68.704 37.6417 66.1239Z" fill="#171717"/>
<path d="M43.7677 73.4665C45.0401 72.0174 46.6835 70.0735 48.6981 67.6348C50.7127 65.1961 52.1971 63.4643 53.1514 62.4393C54.1057 61.4144 54.9274 60.6368 55.6166 60.1066C57.2248 58.905 58.8594 58.3041 60.5206 58.3041C60.8917 58.3041 61.307 58.4543 61.7664 58.7548C62.2436 59.0552 62.4821 59.5235 62.4821 60.1597C62.4821 60.7782 61.8901 61.7324 60.7061 63.0225C60.1229 63.6587 59.2747 64.3125 58.1614 64.9841C57.0657 65.6379 55.8375 66.1681 54.4768 66.5745C53.9643 66.6629 53.5844 66.7071 53.337 66.7071C53.1072 66.7071 52.9924 66.6806 52.9924 66.6275C52.9924 66.5745 53.0542 66.5127 53.1779 66.442C54.6624 65.6291 56.3235 64.4009 58.1614 62.7574C60.0169 61.1139 60.9447 60.036 60.9447 59.5235C60.9447 59.4528 60.8917 59.4174 60.7856 59.4174C60.6973 59.4174 60.5912 59.4351 60.4675 59.4705C60.3615 59.5058 60.2378 59.5411 60.0964 59.5765C59.9551 59.6118 59.6546 59.762 59.1952 60.0271C58.7357 60.2745 58.2497 60.5926 57.7373 60.9814C57.2424 61.3525 56.6151 61.9357 55.8552 62.7309C55.113 63.5085 54.3619 64.4097 53.6021 65.4347C50.6862 69.5169 48.7953 72.0263 47.9294 72.9629C47.788 73.1219 47.6113 73.3163 47.3993 73.546C47.8411 73.5991 48.5037 73.6609 49.3873 73.7316C50.2709 73.8023 50.8629 73.8641 51.1633 73.9171C51.4814 73.9525 51.9409 74.0409 52.5417 74.1822C53.1426 74.3236 53.6197 74.5003 53.9732 74.7124C54.8921 75.2779 55.7757 76.0466 56.6239 77.0185C56.8183 77.2306 56.9155 77.372 56.9155 77.4427C56.9155 77.5134 56.889 77.5487 56.836 77.5487C56.7476 77.5487 56.6328 77.5134 56.4914 77.4427C56.2263 77.372 55.8375 77.2748 55.3251 77.1511C54.8302 77.0274 53.7523 76.8683 52.0911 76.6739C50.43 76.4796 48.9014 76.3824 47.5053 76.3824C46.1269 76.3824 45.1196 76.3912 44.4834 76.4089C43.5468 77.2925 42.2303 78.1142 40.5338 78.8741C38.8373 79.634 37.5649 80.0139 36.7167 80.0139C35.8507 80.0139 35.0378 79.7842 34.278 79.3247C33.5181 78.8829 33.1381 78.2821 33.1381 77.5222C33.1381 76.9744 33.5534 76.3735 34.384 75.7197C36.2925 74.2176 39.4204 73.4665 43.7677 73.4665ZM34.596 78.2909C34.596 78.4676 34.8081 78.5825 35.2322 78.6355C35.7801 78.6355 36.2484 78.6002 36.6371 78.5295C37.0259 78.4765 37.6003 78.2821 38.3601 77.9463C39.1024 77.6106 39.8887 77.1157 40.7193 76.4619C39.5883 76.4619 38.2894 76.6651 36.8227 77.0716C35.3383 77.478 34.596 77.8845 34.596 78.2909Z" fill="#171717"/>
<path d="M69.4199 59.2849C70.6923 58.472 71.7702 58.0656 72.6538 58.0656C73.4667 58.0656 73.9792 58.3748 74.1913 58.9933C74.262 59.2054 74.2973 59.3733 74.2973 59.497C74.2973 60.1685 73.9174 61.22 73.1575 62.6514C72.3976 64.0828 71.3903 65.6379 70.1356 67.3167C68.8809 68.9779 67.529 70.5772 66.0799 72.1146C64.6308 73.6521 63.1199 74.9333 61.5471 75.9582C59.9743 76.9832 58.5959 77.4957 57.4119 77.4957C56.5813 77.4957 55.8126 77.1423 55.1057 76.4354C54.3989 75.7285 54.0454 74.8714 54.0454 73.8641C54.0454 72.8392 54.3282 71.6993 54.8937 70.4446C55.4592 69.1723 56.2367 67.8911 57.2264 66.601C58.2337 65.311 59.3381 64.1093 60.5398 62.996C61.7415 61.865 63.0492 60.9461 64.463 60.2392C65.8944 59.5323 67.2551 59.1789 68.5451 59.1789C68.8986 59.1789 69.1902 59.2142 69.4199 59.2849ZM56.7227 75.4811C57.624 75.4811 59.3823 74.3324 61.9977 72.0351C64.6132 69.7378 67.0254 67.3432 69.2343 64.8515C71.461 62.3421 72.5743 60.7782 72.5743 60.1597C72.5743 60.1066 72.539 60.0801 72.4683 60.0801C71.8674 60.0801 71.0192 60.4336 69.9235 61.1404C68.8456 61.8473 67.8118 62.6425 66.8221 63.5261C65.8325 64.4097 64.9754 65.1961 64.2509 65.8853C63.544 66.5745 63.1376 66.9986 63.0315 67.1577C62.9255 67.3167 62.8372 67.3963 62.7665 67.3963C62.7311 67.3963 62.7135 67.3521 62.7135 67.2637L62.7665 66.8661C62.9609 66.2299 63.5529 65.1961 64.5425 63.7647L65.0461 63.0225C65.1698 62.7928 65.2317 62.6602 65.2317 62.6249C65.2317 62.5719 65.214 62.5454 65.1787 62.5454C65.0373 62.5454 64.7987 62.6956 64.463 62.996C63.1376 64.1977 61.9624 65.417 60.9374 66.654C59.9125 67.8734 59.1261 68.9337 58.5783 69.835C58.0481 70.7186 57.6151 71.5668 57.2794 72.3797C56.7492 73.6167 56.4841 74.4473 56.4841 74.8714C56.4841 75.2779 56.5637 75.4811 56.7227 75.4811Z" fill="#171717"/>
<path d="M89.0987 61.379C89.6289 61.5557 89.9205 61.7324 89.9735 61.9092L90 62.0152C90 62.3863 89.6289 62.9076 88.8867 63.5792C85.8648 66.9721 83.7177 69.5964 82.4453 71.4519C82.0742 71.9821 81.5529 72.7596 80.8814 73.7846C80.2098 74.7919 79.662 75.596 79.2379 76.1968C78.8314 76.8153 78.2836 77.584 77.5944 78.503C76.9229 79.4396 76.322 80.2083 75.7919 80.8091C75.2794 81.41 74.6432 82.0815 73.8833 82.8237C73.1411 83.5659 72.4254 84.1845 71.7362 84.6793C70.1811 85.7926 68.5111 86.6143 66.7262 87.1445C66.2668 87.1445 65.8338 87.0296 65.4274 86.7999C65.0033 86.5878 64.7824 86.2786 64.7647 85.8721C64.7824 84.9178 65.5246 83.7338 66.9913 82.3201C68.4581 80.924 70.4285 79.8549 72.9025 79.1127C73.256 79.0243 73.5034 78.8918 73.6448 78.715L81.226 69.6759L81.6236 69.1458C81.6589 69.0751 81.6766 69.0309 81.6766 69.0132C81.6766 68.9779 81.6589 68.9602 81.6236 68.9602C81.6059 68.9602 81.2171 69.349 80.4572 70.1265C79.6973 70.8864 79.0347 71.5668 78.4692 72.1676C77.9213 72.7685 77.1968 73.493 76.2955 74.3413C75.3943 75.1718 74.2898 75.9936 72.9821 76.8065C71.692 77.6371 70.6052 78.0523 69.7216 78.0523C68.5553 78.0523 67.8307 77.2836 67.548 75.7462C67.495 75.3927 67.4685 75.0393 67.4685 74.6859C67.4685 73.0954 68.1577 71.3901 69.5361 69.5699C70.8968 67.732 72.5668 66.1062 74.546 64.6925C76.5429 63.2611 78.6901 62.0682 80.9874 61.1139C83.2847 60.142 85.3258 59.6472 87.1107 59.6295H87.1372C87.7027 59.6295 88.171 59.8239 88.5421 60.2127C88.9309 60.5838 89.1252 60.9107 89.1252 61.1935C89.1252 61.2818 89.1164 61.3437 89.0987 61.379ZM66.0901 85.7661C66.0901 85.8721 66.1342 85.9251 66.2226 85.9251H66.2756C66.7174 85.9251 67.8307 85.0769 69.6156 83.3804C71.4181 81.7016 72.4784 80.4557 72.7965 79.6428C72.7965 79.6075 72.7788 79.5898 72.7435 79.5898C71.5595 80.0139 70.1546 81.0389 68.5288 82.6647C66.903 84.3082 66.0901 85.342 66.0901 85.7661ZM88.118 61.8296C88.224 61.7236 88.277 61.6441 88.277 61.5911C88.277 61.5204 88.1975 61.485 88.0384 61.485C86.9604 61.485 85.582 61.8562 83.9032 62.5984C82.2421 63.3229 80.5368 64.286 78.7873 65.4877C77.0554 66.6894 75.3501 68.1738 73.6713 69.941C72.0101 71.6905 70.6936 73.4842 69.7216 75.3221C69.6686 75.3927 69.6421 75.4634 69.6421 75.5341C69.6421 75.5871 69.6863 75.6136 69.7746 75.6136C70.7643 75.6136 73.1058 74.1734 76.7992 71.2929C80.5103 68.3947 84.2832 65.2403 88.118 61.8296Z" fill="#171717"/>
<path d="M6.91046 86.7991V92.3657H6.42537L2.84683 87.8488V92.3657H2.25836V86.7991H2.74345L6.32994 91.316V86.7991H6.91046Z" fill="#171717"/>
<path d="M10.9699 92.4134C10.2489 92.4134 9.68695 92.2067 9.28404 91.7932C8.88112 91.3796 8.67966 90.7779 8.67966 89.988V86.7991H9.26813V89.9641C9.26813 90.6109 9.41392 91.0934 9.70551 91.4115C9.99709 91.7295 10.4186 91.8886 10.9699 91.8886C11.5266 91.8886 11.9507 91.7295 12.2423 91.4115C12.5339 91.0934 12.6797 90.6109 12.6797 89.9641V86.7991H13.2522V89.988C13.2522 90.7779 13.0508 91.3796 12.6479 91.7932C12.2502 92.2067 11.6909 92.4134 10.9699 92.4134Z" fill="#171717"/>
<path d="M18.8267 92.3657L17.5544 90.5765C17.4112 90.5924 17.2628 90.6003 17.109 90.6003H15.614V92.3657H15.0255V86.7991H17.109C17.8194 86.7991 18.3761 86.9688 18.779 87.3081C19.1819 87.6474 19.3834 88.1139 19.3834 88.7077C19.3834 89.1424 19.2721 89.5109 19.0494 89.813C18.832 90.1099 18.5192 90.3246 18.111 90.4572L19.4709 92.3657H18.8267ZM17.0931 90.0993C17.6445 90.0993 18.066 89.9774 18.3576 89.7335C18.6491 89.4896 18.7949 89.1477 18.7949 88.7077C18.7949 88.257 18.6491 87.9124 18.3576 87.6739C18.066 87.43 17.6445 87.3081 17.0931 87.3081H15.614V90.0993H17.0931Z" fill="#171717"/>
<path d="M24.7087 91.8568V92.3657H20.7723V86.7991H24.5894V87.3081H21.3608V89.2882H24.2395V89.7892H21.3608V91.8568H24.7087Z" fill="#171717"/>
<path d="M30.7441 86.7991V92.3657H30.259L26.6804 87.8488V92.3657H26.092V86.7991H26.5771L30.1636 91.316V86.7991H30.7441Z" fill="#171717"/>
<path d="M34.9785 92.4134C34.4271 92.4134 33.9288 92.2915 33.4835 92.0476C33.0434 91.8038 32.6962 91.4671 32.4417 91.0377C32.1925 90.603 32.0679 90.1179 32.0679 89.5824C32.0679 89.047 32.1925 88.5645 32.4417 88.1351C32.6962 87.7004 33.0461 87.3611 33.4914 87.1172C33.9367 86.8733 34.4351 86.7514 34.9864 86.7514C35.4 86.7514 35.7817 86.8203 36.1316 86.9582C36.4815 87.096 36.7784 87.2975 37.0222 87.5625L36.6485 87.9363C36.2137 87.4963 35.665 87.2763 35.0023 87.2763C34.5623 87.2763 34.1621 87.377 33.8015 87.5784C33.441 87.7799 33.1574 88.0556 32.9507 88.4055C32.7492 88.7554 32.6485 89.1477 32.6485 89.5824C32.6485 90.0172 32.7492 90.4095 32.9507 90.7594C33.1574 91.1093 33.441 91.3849 33.8015 91.5864C34.1621 91.7879 34.5623 91.8886 35.0023 91.8886C35.6703 91.8886 36.2191 91.6659 36.6485 91.2206L37.0222 91.5944C36.7784 91.8594 36.4788 92.0635 36.1236 92.2067C35.7737 92.3445 35.392 92.4134 34.9785 92.4134Z" fill="#171717"/>
<path d="M40.0688 90.4413V92.3657H39.4883V90.4413L37.2616 86.7991H37.8898L39.7984 89.9244L41.7069 86.7991H42.2954L40.0688 90.4413Z" fill="#171717"/>
<path d="M50.3046 0.203857L42.3204 4.82283L19.5208 44.3833L65.1848 44.3545L73.169 39.7355L50.3046 0.203857ZM44.6984 9.47066L27.469 39.3752L21.1279 43.043L42.587 5.81004L44.6984 9.47066ZM43.0699 5.21915L49.1877 1.68106L45.1162 8.75006L43.0699 5.21915ZM45.1162 10.1912L61.9205 39.2527L28.3553 39.2743L45.1162 10.1912ZM27.8293 39.9949L62.3385 39.9733L64.457 43.6339L21.481 43.6627L27.8293 39.9949ZM63.1671 39.9733L71.3242 39.9661L65.2064 43.5042L63.1671 39.9733ZM62.7563 39.2527L45.5342 9.47066L50.1748 1.42166L72.052 39.2527H62.7563Z" fill="#171717"/>
<path d="M49.2448 34.9104H43.7524L42.7319 37.434H38.9837L44.7173 24.4452H48.3356L54.0878 37.434H50.2654L49.2448 34.9104ZM48.1686 32.2013L46.4986 28.0449L44.8286 32.2013H48.1686Z" fill="#171717"/>
</svg>
