<svg width="728" height="785" viewBox="0 0 728 785" fill="none" xmlns="http://www.w3.org/2000/svg">
<path d="M597.33 477.863H293.828V781.365H597.33V477.863Z" fill="#FFC7B6"/>
<path d="M599.525 783.563H291.625V475.663H599.525V783.563ZM296.024 779.165H595.127V480.062H296.024V779.165Z" fill="#25383F"/>
<path d="M571.292 176.999C620.169 176.999 659.792 137.376 659.792 88.4994C659.792 39.6225 620.169 0 571.292 0C522.415 0 482.793 39.6225 482.793 88.4994C482.793 137.376 522.415 176.999 571.292 176.999Z" fill="#F6623A"/>
<path d="M334.293 127.736H630.845C630.845 127.736 601.726 68.6193 519.913 88.5888C519.825 88.5888 403.439 -24.1907 334.293 127.736Z" fill="#DEE6E9"/>
<path d="M634.365 129.933H330.863L332.271 126.854C353.296 80.5814 380.919 53.926 414.26 47.592C443.027 42.1378 470.562 53.2222 488.684 63.4269C505.487 72.9278 517.187 83.2205 520.442 86.2115C562.844 76.1828 591.083 87.5311 607.27 98.8794C625.04 111.371 632.43 126.151 632.782 126.766L634.365 129.933ZM337.725 125.535H626.975C623.896 120.608 616.683 110.844 604.543 102.31C582.198 86.7394 553.079 82.6927 520.354 90.6981L519.21 90.962L518.331 90.0823C517.803 89.6424 467.747 41.7859 415.14 51.8147C383.998 57.7967 357.959 82.6047 337.725 125.535Z" fill="#25383F"/>
<path d="M585.722 397.896L587.922 364.467C587.922 364.467 559.419 365.347 583.787 318.458L622.582 333.677L615.017 362.356L617.304 398.16L585.722 397.896Z" fill="white"/>
<path d="M619.674 400.361L583.43 400.097L585.629 366.492C582.638 366.052 577.624 364.557 574.457 359.543C569.179 351.185 571.73 337.022 581.934 317.404L582.814 315.645L625.304 332.271L617.299 362.446L619.674 400.361ZM588.092 395.699L614.924 395.875L612.812 362.006L619.938 334.911L584.838 321.187C574.105 342.476 575.161 352.505 578.064 357.167C581.319 362.358 587.565 362.27 587.828 362.27L590.204 362.182L590.028 364.557L588.092 395.699Z" fill="#25383F"/>
<path d="M602.607 338.342C602.607 338.342 606.918 331.216 611.229 336.406C613.076 338.605 612.9 344.324 605.422 346.259C605.422 346.259 603.399 359.103 616.331 361.214C616.331 361.214 633.749 345.907 629.351 326.905C629.351 326.905 651.431 334.031 656.358 313.885C657.853 307.815 654.686 295.939 641.315 294.004C634.717 293.036 622.313 295.499 620.993 311.422C620.993 311.422 593.986 293.74 579.383 322.067C579.559 322.067 588.708 336.934 602.607 338.342Z" fill="#25383F"/>
<path d="M366.84 740.016C366.84 740.016 394.111 774.325 416.104 769.926L418.743 762.889L377.396 735.617L366.84 740.016Z" fill="#F6623A"/>
<path d="M542.34 516.569C542.34 516.569 614.916 564.074 650.985 546.479L642.188 521.847L558.615 504.253L542.34 516.569Z" fill="#F6623A"/>
<path d="M659.791 751.454C659.791 751.454 686.182 737.378 685.303 696.031L672.107 688.114L649.234 739.138L659.791 751.454Z" fill="#F6623A"/>
<path d="M225.473 244.121C225.473 244.121 160.462 244.121 121.227 265.322L185.182 342.561C213.333 308.076 225.473 244.121 225.473 244.121Z" fill="#25383F"/>
<path d="M377.228 730.252C377.228 730.252 373.445 755.324 355.675 760.514C345.294 763.505 318.287 768.256 311.953 782.243L392.447 782.155L408.986 748.814L377.228 730.252Z" fill="white"/>
<path d="M308.605 784.442L310.013 781.363C315.819 768.519 336.932 763.153 349.512 759.986C351.712 759.458 353.559 758.93 355.142 758.49C371.329 753.74 375.112 730.251 375.112 729.988L375.64 726.821L412.06 748.022L394.026 784.354L308.605 784.442ZM378.807 733.682C377.135 740.896 371.505 758.226 356.374 762.625C354.791 763.065 352.855 763.593 350.656 764.121C340.011 766.848 322.857 771.158 315.995 779.955L391.211 779.867L406.254 749.605L378.807 733.682Z" fill="#25383F"/>
<path d="M664.188 705.707L700.784 720.399L702.895 781.803H665.243C665.243 781.803 670.786 771.334 679.935 769.927C679.935 769.927 673.689 741.6 655.391 731.307L664.188 705.707Z" fill="white"/>
<path d="M705.177 784.002H661.543L663.303 780.747C663.567 780.308 668.581 770.982 677.202 768.255C675.355 761.657 668.669 741.248 654.33 733.155L652.746 732.275L662.951 702.805L703.066 718.903L705.177 784.002ZM669.373 779.604H700.691L698.755 721.894L665.59 708.611L658.112 730.34C675.795 741.688 681.865 768.343 682.129 769.487L682.656 771.774L680.369 772.126C675.355 772.83 671.572 776.701 669.373 779.604Z" fill="#25383F"/>
<path d="M551.578 504.253L548.235 642.544C547.883 658.203 555.009 673.07 567.501 682.483L659.343 751.893C659.343 751.893 659.783 732.099 665.061 719.783C670.516 707.027 683.975 695.591 683.975 695.591L605.681 630.492L629.257 518.768L551.578 504.253Z" fill="#25383F"/>
<path d="M546.742 511.73L628.115 518.327C628.115 518.327 634.273 530.643 526.948 628.292L416.104 769.926C416.104 769.926 407.307 753.211 394.111 747.053C383.027 741.863 366.84 740.016 366.84 740.016L457.89 610.962C461.145 606.387 464.664 601.988 468.447 597.766L546.742 511.73Z" fill="#25383F"/>
<path d="M516.923 381.446L488.596 380.654L421.826 357.869L416.196 353.207C413.205 350.744 409.774 348.896 406.079 347.752L386.109 341.594L414.26 371.505L479.535 405.55C484.901 408.365 490.796 410.124 496.866 410.652L519.034 412.676L516.923 381.446Z" fill="white"/>
<path d="M521.496 414.962L496.776 412.674C490.354 412.059 484.284 410.299 478.566 407.308L413.028 373.087L378.895 336.843L406.782 345.464C410.74 346.696 414.435 348.631 417.602 351.358L422.968 355.757L489.035 378.365L518.945 379.157L521.496 414.962ZM415.667 369.656L480.59 403.525C485.78 406.252 491.322 407.836 497.128 408.364L516.658 410.123L514.811 383.556L488.243 382.852L420.857 359.803L414.875 354.877C412.148 352.59 408.981 350.918 405.55 349.863L393.586 346.168L415.667 369.656Z" fill="#25383F"/>
<path d="M551.58 424.2C551.58 424.2 551.052 452.967 551.58 460.268C553.339 485.78 538.824 518.77 538.824 518.77C538.824 518.77 568.294 517.45 593.806 523.608C622.485 530.558 649.228 543.841 649.228 543.841L649.668 413.556C649.668 404.495 645.445 395.873 638.144 390.419L618.086 375.376C618.086 375.376 592.135 404.846 584.657 377.135L511.641 380.654L513.84 422.441L551.58 424.2Z" fill="#FCE7E9"/>
<path d="M651.428 547.36L648.261 545.777C647.997 545.601 621.429 532.493 593.278 525.719C568.382 519.737 539.176 520.969 538.912 520.969L535.393 521.145L536.801 517.89C536.977 517.538 551.052 485.076 549.381 460.444C548.941 454.198 549.205 433.173 549.381 426.311L511.729 424.552L509.266 378.543L586.241 374.848L586.681 376.519C588.264 382.413 590.815 385.756 594.158 386.548C601.636 388.308 612.72 378.015 616.327 373.88L617.647 372.385L639.376 388.659C647.205 394.466 651.78 403.791 651.78 413.555L651.428 547.36ZM545.686 516.482C556.067 516.482 576.3 517.098 594.334 521.496C617.207 527.039 639.112 536.715 647.029 540.41L647.381 413.643C647.381 405.286 643.422 397.281 636.736 392.266L618.174 378.367C614.216 382.413 602.691 393.146 593.102 390.947C588.44 389.891 585.009 386.02 582.898 379.422L513.84 382.765L515.776 420.329L553.779 422.089V424.2C553.779 424.464 553.251 452.967 553.779 460.092C555.275 481.469 545.774 507.509 542.167 516.482C543.135 516.482 544.278 516.482 545.686 516.482Z" fill="#25383F"/>
<path d="M722.689 602.869C721.633 559.851 704.743 527.302 672.545 506.1C648.529 490.266 624.601 487.099 624.337 487.099H624.249C564.164 476.894 507.686 451.382 456.223 411.179C412.853 377.31 372.562 332.533 336.582 278.254C270.867 179.286 233.655 70.3774 217.292 14.2515C215.709 8.88528 211.134 7.12585 207.704 7.12585C204.273 7.21382 199.698 9.14919 198.379 14.6034L135.039 267.258L130.816 266.202L194.156 13.5478C195.739 7.12585 201.106 2.90322 207.704 2.81525C214.301 2.72728 219.756 6.68599 221.603 13.1079C258.551 140.051 371.77 439.858 625.041 482.788C626.624 482.964 650.464 486.307 675.096 502.494C698.145 517.625 725.856 547.359 727.263 602.781L722.689 602.869Z" fill="#25383F"/>
<path d="M599.521 460.709L522.634 443.203L483.398 429.919L498.529 447.69C502.136 451.912 506.887 454.903 512.253 456.487L521.226 459.038L608.67 493.875C617.291 497.306 626.968 492.291 629.167 483.318L638.228 445.93L602.16 438.013L599.521 460.709Z" fill="white"/>
<path d="M614.301 497.039C612.101 497.039 609.902 496.599 607.791 495.807L520.435 461.058L511.55 458.595C505.744 457.012 500.641 453.669 496.771 449.182L476.449 425.342L523.162 441.177L597.586 458.067L600.225 435.195L640.868 444.08L631.279 483.667C630.048 488.593 626.793 492.728 622.306 495.103C619.843 496.423 617.116 497.039 614.301 497.039ZM490.261 434.579L500.202 446.191C503.544 450.062 507.855 452.877 512.782 454.285L522.019 456.924L609.462 491.76C612.981 493.168 616.94 492.992 620.283 491.233C623.626 489.473 626.089 486.394 626.968 482.699L635.502 447.423L604.008 440.473L601.369 463.346L521.843 445.224L490.261 434.579Z" fill="#25383F"/>
<path d="M207.618 30.9654C214.905 30.9654 220.813 25.0574 220.813 17.7696C220.813 10.4818 214.905 4.57391 207.618 4.57391C200.33 4.57391 194.422 10.4818 194.422 17.7696C194.422 25.0574 200.33 30.9654 207.618 30.9654Z" fill="white"/>
<path d="M207.614 33.1677C199.169 33.1677 192.219 26.218 192.219 17.7727C192.219 9.32744 199.169 2.37769 207.614 2.37769C216.059 2.37769 223.009 9.32744 223.009 17.7727C223.009 26.218 216.059 33.1677 207.614 33.1677ZM207.614 6.77626C201.544 6.77626 196.617 11.7027 196.617 17.7727C196.617 23.8427 201.544 28.7691 207.614 28.7691C213.684 28.7691 218.61 23.8427 218.61 17.7727C218.61 11.7027 213.684 6.77626 207.614 6.77626Z" fill="#25383F"/>
<path d="M551.97 401.191L547.582 401.488L549.201 425.449L553.589 425.152L551.97 401.191Z" fill="#25383F"/>
<path d="M549.553 610.525L546.562 607.27C596.53 560.469 619.227 534.693 619.403 534.429L622.746 537.332C622.482 537.596 599.785 563.548 549.553 610.525Z" fill="white"/>
<path d="M643.957 448.742L629.266 446.015L630.057 441.704L640.438 443.639L647.036 409.682L651.434 410.562L643.957 448.742Z" fill="#25383F"/>
<path d="M601.311 417.789L599.551 441.565L603.937 441.89L605.698 418.114L601.311 417.789Z" fill="#25383F"/>
<path d="M64.835 634.187L14.2514 676.942L0 781.804H14.2514L105.214 742.656L64.835 634.187Z" fill="#25383F"/>
<path d="M203.473 634.187L254.056 676.941L268.308 781.803H254.056L163.094 742.656L203.473 634.187Z" fill="#25383F"/>
<path d="M185.71 342.122L83.3988 341.946C83.3988 341.946 -0.96587 535.219 94.3953 745.647L174.713 745.823C270.162 535.395 185.71 342.122 185.71 342.122Z" fill="white"/>
<path d="M176.122 747.937L92.9893 747.761L92.3735 746.441C70.5566 698.233 56.3052 646.946 50.2351 593.987C45.3087 551.584 45.5727 508.038 50.9389 464.581C60.088 390.509 81.2011 341.508 81.3771 341.068L81.9929 339.749L187.207 339.925L187.823 341.244C187.999 341.772 209.2 390.684 218.261 464.756C223.627 508.214 223.803 551.76 218.965 594.163C212.895 647.121 198.643 698.497 176.826 746.617L176.122 747.937ZM95.8044 743.362L173.307 743.538C221.78 635.861 222.132 532.934 213.862 465.46C205.681 398.69 187.647 352.505 184.304 344.323L84.8959 344.147C81.553 352.417 63.5189 398.514 55.3375 465.284C46.9802 532.758 47.3321 635.685 95.8044 743.362Z" fill="#25383F"/>
<path d="M143.574 637.005H124.836V781.718H143.574V637.005Z" fill="#25383F"/>
<path d="M134.329 480.854C154.589 480.854 171.013 464.43 171.013 444.169C171.013 423.909 154.589 407.485 134.329 407.485C114.069 407.485 97.6445 423.909 97.6445 444.169C97.6445 464.43 114.069 480.854 134.329 480.854Z" fill="white"/>
<path d="M134.333 483.053C112.868 483.053 95.4492 465.634 95.4492 444.169C95.4492 422.704 112.868 405.286 134.333 405.286C155.798 405.286 173.216 422.704 173.216 444.169C173.216 465.634 155.71 483.053 134.333 483.053ZM134.333 409.684C115.331 409.684 99.8478 425.167 99.8478 444.169C99.8478 463.171 115.331 478.654 134.333 478.654C153.335 478.654 168.818 463.171 168.818 444.169C168.818 425.167 153.335 409.684 134.333 409.684Z" fill="#25383F"/>
<path d="M134.155 529.768C141.686 529.768 147.791 523.663 147.791 516.132C147.791 508.601 141.686 502.496 134.155 502.496C126.624 502.496 120.52 508.601 120.52 516.132C120.52 523.663 126.624 529.768 134.155 529.768Z" fill="#25383F"/>
<path d="M134.155 579.031C141.686 579.031 147.791 572.926 147.791 565.395C147.791 557.865 141.686 551.76 134.155 551.76C126.624 551.76 120.52 557.865 120.52 565.395C120.52 572.926 126.624 579.031 134.155 579.031Z" fill="#25383F"/>
<path d="M96.7728 357.343C98.7162 357.343 100.292 355.768 100.292 353.825C100.292 351.881 98.7162 350.306 96.7728 350.306C94.8294 350.306 93.2539 351.881 93.2539 353.825C93.2539 355.768 94.8294 357.343 96.7728 357.343Z" fill="#25383F"/>
<path d="M102.046 736.498C103.99 736.498 105.565 734.923 105.565 732.979C105.565 731.036 103.99 729.46 102.046 729.46C100.103 729.46 98.5273 731.036 98.5273 732.979C98.5273 734.923 100.103 736.498 102.046 736.498Z" fill="#25383F"/>
<path d="M116.12 736.498C118.064 736.498 119.639 734.923 119.639 732.979C119.639 731.036 118.064 729.46 116.12 729.46C114.177 729.46 112.602 731.036 112.602 732.979C112.602 734.923 114.177 736.498 116.12 736.498Z" fill="#25383F"/>
<path d="M152.183 736.498C154.126 736.498 155.702 734.923 155.702 732.979C155.702 731.036 154.126 729.46 152.183 729.46C150.24 729.46 148.664 731.036 148.664 732.979C148.664 734.923 150.24 736.498 152.183 736.498Z" fill="#25383F"/>
<path d="M166.269 736.498C168.212 736.498 169.788 734.923 169.788 732.979C169.788 731.036 168.212 729.46 166.269 729.46C164.325 729.46 162.75 731.036 162.75 732.979C162.75 734.923 164.325 736.498 166.269 736.498Z" fill="#25383F"/>
<path d="M111.636 357.343C113.579 357.343 115.155 355.768 115.155 353.825C115.155 351.881 113.579 350.306 111.636 350.306C109.693 350.306 108.117 351.881 108.117 353.825C108.117 355.768 109.693 357.343 111.636 357.343Z" fill="#25383F"/>
<path d="M126.499 357.343C128.443 357.343 130.018 355.768 130.018 353.825C130.018 351.881 128.443 350.306 126.499 350.306C124.556 350.306 122.98 351.881 122.98 353.825C122.98 355.768 124.556 357.343 126.499 357.343Z" fill="#25383F"/>
<path d="M141.37 357.343C143.314 357.343 144.889 355.768 144.889 353.825C144.889 351.881 143.314 350.306 141.37 350.306C139.427 350.306 137.852 351.881 137.852 353.825C137.852 355.768 139.427 357.343 141.37 357.343Z" fill="#25383F"/>
<path d="M156.234 357.343C158.177 357.343 159.753 355.768 159.753 353.825C159.753 351.881 158.177 350.306 156.234 350.306C154.29 350.306 152.715 351.881 152.715 353.825C152.715 355.768 154.29 357.343 156.234 357.343Z" fill="#25383F"/>
<path d="M171.023 357.343C172.966 357.343 174.542 355.768 174.542 353.825C174.542 351.881 172.966 350.306 171.023 350.306C169.079 350.306 167.504 351.881 167.504 353.825C167.504 355.768 169.079 357.343 171.023 357.343Z" fill="#25383F"/>
<path d="M193.192 361.739H75.9258V366.137H193.192V361.739Z" fill="#25383F"/>
<path d="M185.621 717.584H83.5742V721.982H185.621V717.584Z" fill="#25383F"/>
</svg>
