<svg width="178" height="190" viewBox="0 0 178 190" fill="none" xmlns="http://www.w3.org/2000/svg">
<path d="M0.169624 189.052L-0.188213 183.958C-0.480719 183.98 -0.774228 184.002 -1.06855 184.025C-2.45172 184.133 -3.85288 184.242 -5.2525 184.264L-5.04827 189.37C-3.3818 189.334 -1.7135 189.202 -0.0283365 189.068C0.0376241 189.063 0.10361 189.057 0.169624 189.052Z" fill="#E7EAF3" stroke="white"/>
<path d="M-2.71499 184.145L-2.71499 184.145L-2.72103 184.145C-4.14079 184.249 -5.22069 185.381 -5.16993 186.805C-5.11863 188.204 -3.90519 189.357 -2.46985 189.257C-0.998546 189.134 0.0829224 187.894 -0.0183527 186.493C-0.121066 185.072 -1.33128 184.026 -2.71499 184.145Z" fill="#E7EAF3" stroke="white"/>
<path d="M11.5046 187.909C12.0436 187.838 12.5789 187.773 13.1119 187.709C14.3124 187.563 15.5008 187.418 16.6911 187.212L15.8912 182.175C14.7582 182.375 13.6034 182.515 12.4647 182.653C11.9298 182.718 11.3985 182.782 10.8746 182.852L11.5046 187.909Z" fill="#E7EAF3" stroke="white"/>
<path d="M16.3008 184.703L16.3006 184.702C16.0814 183.319 14.7966 182.4 13.3701 182.554C12.0048 182.725 11.0103 184.015 11.1815 185.418C11.3499 186.8 12.6547 187.8 14.1026 187.61L14.1026 187.61L14.1091 187.609C15.5485 187.44 16.5219 186.081 16.3008 184.703Z" fill="#E7EAF3" stroke="white"/>
<path d="M33.0082 183.905L31.7651 178.949L26.8188 180.092L27.9088 185.082L33.0082 183.905Z" fill="#E7EAF3" stroke="white"/>
<path d="M29.3152 179.53L29.3152 179.53L29.308 179.532C27.9574 179.836 27.0938 181.213 27.3864 182.607C27.6721 183.968 29.0388 184.831 30.4708 184.503C31.8791 184.176 32.7358 182.793 32.3991 181.446C32.0561 180.074 30.6481 179.209 29.3152 179.53Z" fill="#E7EAF3" stroke="white"/>
<path d="M48.9553 179.179L47.2685 174.34L42.4772 175.96L43.9935 180.85L48.9553 179.179Z" fill="#E7EAF3" stroke="white"/>
<path d="M48.1052 176.769L48.1052 176.769L48.1033 176.764C47.6427 175.433 46.1727 174.719 44.8665 175.16L44.8646 175.16C43.5462 175.6 42.8159 177.067 43.2299 178.43C43.632 179.753 45.0638 180.482 46.4627 180.015C47.8577 179.55 48.5765 178.082 48.1052 176.769Z" fill="#E7EAF3" stroke="white"/>
<path d="M62.3327 168.401C61.952 168.571 61.5702 168.745 61.1868 168.919C60.0362 169.443 58.8715 169.974 57.6836 170.432L59.6245 175.165C60.9549 174.646 62.2498 174.058 63.5651 173.461C63.8519 173.331 64.1396 173.201 64.4289 173.07L62.3327 168.401Z" fill="#E7EAF3" stroke="white"/>
<path d="M58.6506 172.786L58.651 172.787C59.1814 174.087 60.7365 174.756 62.0288 174.152L62.0287 174.152L62.0336 174.149C63.3611 173.546 63.9473 172.004 63.3736 170.738C62.7941 169.46 61.2974 168.883 60.0247 169.439C58.7368 170.052 58.1111 171.471 58.6506 172.786Z" fill="#E7EAF3" stroke="white"/>
<path d="M72.6655 163.418C72.5587 163.473 72.452 163.527 72.3454 163.581L74.678 168.127C74.904 168.011 75.1297 167.896 75.3549 167.781C76.6945 167.096 78.0194 166.419 79.3068 165.666L76.8201 161.204C75.4578 161.997 74.0525 162.713 72.6655 163.418Z" fill="#E7EAF3" stroke="white"/>
<path d="M78.0817 163.425L78.0813 163.424C77.387 162.188 75.8747 161.783 74.6094 162.424C73.3789 163.048 72.8934 164.574 73.5452 165.843C74.1862 167.091 75.7507 167.583 77.0647 166.911C78.3147 166.25 78.7609 164.631 78.0817 163.425Z" fill="#E7EAF3" stroke="white"/>
<path d="M90.6387 152.731C89.7645 153.309 88.8706 153.877 87.9813 154.441C87.4405 154.785 86.9014 155.127 86.3696 155.47L89.1126 159.797C89.6464 159.452 90.179 159.112 90.71 158.772C91.6512 158.17 92.5875 157.572 93.5172 156.955L90.6387 152.731Z" fill="#E7EAF3" stroke="white"/>
<path d="M92.0679 154.848L92.067 154.846C91.2832 153.688 89.6724 153.36 88.4937 154.112C87.3264 154.856 86.9782 156.441 87.7318 157.64C88.4748 158.822 90.0736 159.172 91.2928 158.382L91.2928 158.382L91.3023 158.376C92.5451 157.61 92.8653 156.018 92.0679 154.848Z" fill="#E7EAF3" stroke="white"/>
<path d="M106.869 147.035L103.632 143.083L99.6603 146.203L102.76 150.274L106.869 147.035Z" fill="#E7EAF3" stroke="white"/>
<path d="M104.806 148.635L104.806 148.635L104.813 148.629C105.959 147.757 106.153 146.147 105.261 145.069C104.35 143.969 102.74 143.787 101.633 144.638C100.537 145.481 100.338 147.101 101.198 148.236C102.039 149.347 103.652 149.548 104.806 148.635Z" fill="#E7EAF3" stroke="white"/>
<path d="M119.309 136.001L115.75 132.339L112.084 135.835L115.524 139.616L119.309 136.001Z" fill="#E7EAF3" stroke="white"/>
<path d="M117.545 134.162C116.547 133.15 114.929 133.112 113.935 134.072C112.931 135.042 112.874 136.668 113.835 137.734C114.782 138.764 116.391 138.821 117.433 137.814C118.466 136.797 118.507 135.178 117.545 134.162Z" fill="#E7EAF3" stroke="white"/>
<path d="M130.755 123.924L126.89 120.587C126.549 120.976 126.209 121.375 125.867 121.776C125.116 122.657 124.354 123.55 123.547 124.389L127.294 127.864C128.108 127.021 128.856 126.142 129.613 125.252C129.989 124.811 130.366 124.367 130.755 123.924Z" fill="#E7EAF3" stroke="white"/>
<path d="M129.02 125.923L129.026 125.916L129.031 125.91C129.995 124.808 129.882 123.172 128.836 122.259C127.758 121.337 126.162 121.444 125.247 122.49C124.344 123.589 124.382 125.157 125.411 126.118C126.437 127.076 128.117 127.026 129.02 125.923Z" fill="#E7EAF3" stroke="white"/>
<path d="M135.51 109.995L135.503 110.005L135.496 110.014L133.937 111.98L137.992 115.115L139.612 113.068L141.129 110.937L136.989 107.939L135.51 109.995Z" fill="#E7EAF3" stroke="white"/>
<path d="M135.503 109.997L135.497 110.006L135.49 110.015C134.633 111.09 134.841 112.69 135.957 113.566C137.052 114.425 138.689 114.218 139.586 113.069C140.442 111.881 140.173 110.247 139.044 109.438C137.901 108.619 136.318 108.877 135.503 109.997Z" fill="#E7EAF3" stroke="white"/>
<path d="M147.56 101.495C147.883 100.985 148.208 100.484 148.531 99.9869C149.16 99.019 149.781 98.0636 150.358 97.0718L145.965 94.4497C145.398 95.4326 144.771 96.393 144.154 97.3374C143.847 97.8071 143.543 98.2729 143.25 98.7355L147.56 101.495Z" fill="#E7EAF3" stroke="white"/>
<path d="M148.967 99.2925L148.967 99.2924L148.971 99.2857C149.764 98.088 149.366 96.4907 148.154 95.7549C146.952 95.0452 145.412 95.4243 144.614 96.6172C143.873 97.784 144.224 99.3502 145.405 100.12C146.568 100.879 148.174 100.534 148.967 99.2925Z" fill="#E7EAF3" stroke="white"/>
<path d="M158.294 82.4588L153.696 80.2276L151.376 84.7476L155.907 87.115L158.294 82.4588Z" fill="#E7EAF3" stroke="white"/>
<path d="M156.012 81.3596L156.012 81.3596L156.009 81.3584C154.72 80.7395 153.165 81.2611 152.538 82.4982C151.91 83.7373 152.399 85.2759 153.651 85.9446C154.878 86.6002 156.431 86.1055 157.104 84.793C157.776 83.4846 157.251 81.9459 156.012 81.3596Z" fill="#E7EAF3" stroke="white"/>
<path d="M164.901 67.1858L160.133 65.3807L158.274 70.0872L162.991 72.0626L164.901 67.1858Z" fill="#E7EAF3" stroke="white"/>
<path d="M162.529 66.2864L162.529 66.2864L162.527 66.2857C161.208 65.7889 159.705 66.4449 159.197 67.7322C158.689 69.0206 159.333 70.5303 160.637 71.0793C161.916 71.6179 163.416 70.9835 163.948 69.6266C164.484 68.2623 163.84 66.7737 162.529 66.2864Z" fill="#E7EAF3" stroke="white"/>
<path d="M170.164 51.418L165.242 50.0214C165.108 50.492 164.978 50.9698 164.847 51.4509C164.536 52.5955 164.22 53.7588 163.833 54.8885L168.7 56.4372C169.084 55.2974 169.404 54.1407 169.729 52.969C169.871 52.4549 170.014 51.9378 170.164 51.418Z" fill="#E7EAF3" stroke="white"/>
<path d="M169.45 53.9583L169.45 53.9582L169.453 53.9474C169.867 52.5331 169.071 51.0916 167.723 50.7211C166.348 50.343 164.943 51.1182 164.571 52.4474C164.208 53.8164 164.921 55.2276 166.259 55.6691C167.589 56.0944 169.08 55.3373 169.45 53.9583Z" fill="#E7EAF3" stroke="white"/>
<path d="M174.084 35.2236L169.057 34.2694C168.767 35.9427 168.398 37.5985 168.01 39.2324L173.002 40.3568C173.41 38.6429 173.794 36.938 174.084 35.2236Z" fill="#E7EAF3" stroke="white"/>
<path d="M168.566 36.7805L168.566 36.7805L168.565 36.7863C168.26 38.1417 169.104 39.4873 170.489 39.814C171.86 40.1169 173.247 39.2382 173.576 37.81C173.88 36.4016 172.926 35.0204 171.55 34.7653C170.154 34.5102 168.857 35.4091 168.566 36.7805Z" fill="#E7EAF3" stroke="white"/>
<path d="M176.533 18.7747L171.44 18.2638L170.809 23.2956L175.867 23.9769L176.533 18.7747Z" fill="#E7EAF3" stroke="white"/>
<path d="M173.988 18.5204L173.988 18.5204C172.577 18.3828 171.281 19.402 171.111 20.7721C170.942 22.1466 171.928 23.4281 173.329 23.6161C174.713 23.8017 175.998 22.8067 176.188 21.3587C176.377 19.9172 175.386 18.6551 173.988 18.5204Z" fill="#E7EAF3" stroke="white"/>
<path d="M177.481 2.18258L172.371 2.09738L172.252 7.18109L177.361 7.41952L177.481 2.18258Z" fill="#E7EAF3" stroke="white"/>
<path d="M177.412 4.79427L177.412 4.79427C177.378 6.25211 176.202 7.34719 174.8 7.2798L177.412 4.79427ZM177.412 4.79427L177.412 4.78839M177.412 4.79427L177.412 4.78839M177.412 4.78839C177.464 3.32999 176.335 2.14605 174.933 2.12916C173.51 2.11201 172.336 3.24527 172.303 4.61472M177.412 4.78839L172.303 4.61472M172.303 4.61472C172.269 5.99037 173.399 7.21129 174.8 7.27979L172.303 4.61472Z" fill="#E7EAF3" stroke="white"/>
<path d="M8.35447 171.542L7.70684 166.463C7.27621 166.515 6.8413 166.571 6.40343 166.628C5.18823 166.784 3.95024 166.944 2.71762 167.029L3.17755 172.139C4.48347 172.043 5.77761 171.875 7.08544 171.705C7.50674 171.65 7.92947 171.595 8.35447 171.542Z" fill="#E7EAF3" stroke="white"/>
<path d="M2.95353 169.547L2.95356 169.547L2.95398 169.551C3.07383 170.938 4.36174 172.049 5.76556 171.849L5.76554 171.849L5.77646 171.847C7.19069 171.677 8.19688 170.381 8.02842 168.986C7.8376 167.575 6.57101 166.588 5.23545 166.77C3.83781 166.981 2.81931 168.154 2.95353 169.547Z" fill="#E7EAF3" stroke="white"/>
<path d="M21.1046 164.298L21.093 164.301L21.0812 164.303L18.624 164.744L19.5608 169.768L22.1356 169.308L24.6722 168.729L23.5479 163.738L21.1046 164.298Z" fill="#E7EAF3" stroke="white"/>
<path d="M21.1117 164.298L21.0994 164.301L21.087 164.303C19.7316 164.557 18.8301 165.861 19.103 167.259L19.1039 167.264C19.3578 168.635 20.7165 169.577 22.1334 169.309C23.5379 168.979 24.416 167.593 24.1113 166.221C23.8033 164.835 22.4396 163.978 21.1117 164.298Z" fill="#E7EAF3" stroke="white"/>
<path d="M39.0685 159.527C37.4752 160.089 35.8711 160.558 34.262 161.002L35.6924 165.906C37.3655 165.439 39.0313 164.942 40.6682 164.377L39.0685 159.527Z" fill="#E7EAF3" stroke="white"/>
<path d="M39.8481 161.954L39.8475 161.952C39.4054 160.608 37.9962 159.908 36.6612 160.318L36.6613 160.319L36.6499 160.322C35.3391 160.691 34.5633 162.096 34.9583 163.47C35.3479 164.825 36.7723 165.615 38.18 165.207C39.5607 164.76 40.2888 163.276 39.8481 161.954Z" fill="#E7EAF3" stroke="white"/>
<path d="M50.1278 155.477C49.899 155.566 49.6709 155.654 49.4438 155.743L51.3333 160.492C51.6917 160.35 52.0495 160.209 52.4064 160.068C53.6693 159.571 54.9205 159.079 56.144 158.515L54.101 153.833C52.7928 154.439 51.4479 154.963 50.1278 155.477Z" fill="#E7EAF3" stroke="white"/>
<path d="M53.7338 159.541L53.7409 159.538L53.748 159.535C55.0881 159.032 55.6806 157.457 55.1156 156.173C54.5395 154.869 53.081 154.327 51.7626 154.828C50.485 155.334 49.8621 156.808 50.3776 158.131C50.8854 159.435 52.3999 160.088 53.7338 159.541Z" fill="#E7EAF3" stroke="white"/>
<path d="M66.3931 153.627C66.8027 153.416 67.2116 153.21 67.6187 153.005C68.768 152.426 69.9035 151.853 71.0029 151.209L68.5149 146.744C67.4836 147.339 66.4206 147.877 65.3722 148.407C64.9307 148.631 64.4917 148.853 64.0588 149.077L66.3931 153.627Z" fill="#E7EAF3" stroke="white"/>
<path d="M69.75 148.967L69.7497 148.966C69.0552 147.73 67.5624 147.324 66.2968 147.946C65.0879 148.57 64.6004 150.097 65.2362 151.369C65.8608 152.618 67.4252 153.122 68.7127 152.452L68.7126 152.452L68.7245 152.446C69.9918 151.83 70.4353 150.183 69.75 148.967Z" fill="#E7EAF3" stroke="white"/>
<path d="M80.7308 145.359C81.1822 145.067 81.6322 144.782 82.0794 144.5C83.101 143.855 84.1082 143.218 85.086 142.516L82.193 138.312C81.2377 139.004 80.2258 139.639 79.2306 140.264C78.8121 140.527 78.3965 140.788 77.9894 141.051L80.7308 145.359Z" fill="#E7EAF3" stroke="white"/>
<path d="M79.3906 143.197L79.3906 143.197L79.3933 143.201C80.1363 144.383 81.735 144.734 82.9542 143.944L82.9542 143.944L82.9627 143.938C84.1449 143.206 84.4386 141.561 83.6488 140.39C82.836 139.225 81.3089 138.971 80.1115 139.696C78.966 140.442 78.6223 142.002 79.3906 143.197Z" fill="#E7EAF3" stroke="white"/>
<path d="M91.0946 131.736L94.2451 135.772C94.7572 135.359 95.267 134.963 95.7723 134.57C96.6363 133.897 97.4873 133.236 98.3148 132.519L95.0285 128.603C94.1884 129.333 93.2954 130.024 92.4174 130.702C91.9695 131.049 91.5256 131.392 91.0946 131.736Z" fill="#E7EAF3" stroke="white"/>
<path d="M96.6565 130.552C95.7407 129.467 94.1736 129.353 93.0683 130.198C91.9964 131.037 91.8094 132.635 92.6695 133.774C93.5334 134.871 95.1515 135.068 96.3046 134.173C97.4327 133.297 97.5627 131.63 96.6565 130.552Z" fill="#E7EAF3" stroke="white"/>
<path d="M106.744 124.938C107.133 124.565 107.522 124.201 107.909 123.838C108.791 123.011 109.662 122.195 110.49 121.325L106.844 117.73C106.071 118.543 105.239 119.326 104.42 120.097C104.019 120.474 103.621 120.849 103.234 121.223L106.744 124.938Z" fill="#E7EAF3" stroke="white"/>
<path d="M108.644 123.145L108.647 123.142C109.708 122.165 109.685 120.5 108.676 119.508C107.678 118.528 106.09 118.547 105.05 119.497C104.061 120.439 104.032 122.056 104.991 123.085C105.957 124.1 107.575 124.144 108.644 123.145Z" fill="#E7EAF3" stroke="white"/>
<path d="M118.205 112.985C118.576 112.554 118.947 112.132 119.316 111.713C120.096 110.825 120.866 109.951 121.594 109.029L117.623 105.79C116.928 106.666 116.182 107.516 115.447 108.354C115.077 108.776 114.71 109.194 114.354 109.611L118.205 112.985Z" fill="#E7EAF3" stroke="white"/>
<path d="M116.284 111.281L116.284 111.281L116.287 111.284C117.332 112.21 118.967 112.087 119.914 110.986L119.914 110.986L119.922 110.976C120.879 109.918 120.705 108.292 119.611 107.403C118.526 106.521 116.935 106.682 116.004 107.713C115.112 108.743 115.226 110.36 116.284 111.281Z" fill="#E7EAF3" stroke="white"/>
<path d="M128.48 99.9792C128.83 99.4802 129.181 98.9905 129.531 98.5035C130.195 97.5781 130.852 96.6626 131.476 95.7125L127.217 92.8672C126.605 93.7962 125.951 94.7062 125.303 95.6066C124.973 96.0666 124.644 96.5241 124.323 96.9804L128.48 99.9792Z" fill="#E7EAF3" stroke="white"/>
<path d="M129.964 97.8467L129.964 97.8466L129.972 97.8362C130.831 96.6914 130.518 95.0822 129.343 94.2974C128.169 93.5331 126.612 93.8327 125.766 94.9494C124.978 96.062 125.241 97.6451 126.391 98.4861C127.519 99.311 129.12 99.0361 129.964 97.8467Z" fill="#E7EAF3" stroke="white"/>
<path d="M137.416 86.0647C137.721 85.529 138.029 85.0012 138.335 84.4762C138.905 83.4989 139.47 82.5313 140.001 81.5406L135.507 79.1234C134.991 80.093 134.433 81.0545 133.88 82.0075C133.591 82.5054 133.303 83.001 133.024 83.4943L137.416 86.0647Z" fill="#E7EAF3" stroke="white"/>
<path d="M137.777 80.3321L137.777 80.3322L137.772 80.3295C136.55 79.6677 134.992 80.1236 134.289 81.3214C133.615 82.5026 134.034 84.0752 135.251 84.7949C136.45 85.5043 138.036 85.0877 138.756 83.8178L138.756 83.8178L138.759 83.8134C139.492 82.5514 139.032 80.9934 137.777 80.3321Z" fill="#E7EAF3" stroke="white"/>
<path d="M147.225 66.6137L142.503 64.6364C142.098 65.5584 141.677 66.4818 141.258 67.4024C140.982 68.0085 140.706 68.6134 140.436 69.2159L145.09 71.3638C145.254 71.0009 145.419 70.6391 145.584 70.2779C146.14 69.0573 146.694 67.8435 147.225 66.6137Z" fill="#E7EAF3" stroke="white"/>
<path d="M142.775 70.2924L142.775 70.2924L142.777 70.2935C144.043 70.8839 145.559 70.3172 146.162 68.9944C146.744 67.6739 146.157 66.1692 144.86 65.6291C143.551 65.0962 142.032 65.6894 141.475 66.9385C140.917 68.1908 141.472 69.6921 142.775 70.2924Z" fill="#E7EAF3" stroke="white"/>
<path d="M152.925 51.0536L148.036 49.5378L146.435 54.3086L151.255 55.9948L152.925 51.0536Z" fill="#E7EAF3" stroke="white"/>
<path d="M148.842 55.1435L148.842 55.1434L148.847 55.1454C150.157 55.6154 151.61 54.9012 152.095 53.5188C152.557 52.1446 151.833 50.7134 150.508 50.3109C149.144 49.8964 147.676 50.6288 147.238 51.9271C146.797 53.2307 147.509 54.682 148.842 55.1435Z" fill="#E7EAF3" stroke="white"/>
<path d="M157.113 35.0444L152.104 33.988L150.962 38.8953L155.937 40.122L157.113 35.0444Z" fill="#E7EAF3" stroke="white"/>
<path d="M153.475 39.5105L153.476 39.5109C154.823 39.8476 156.207 38.9906 156.534 37.5819C156.859 36.1784 155.985 34.8057 154.617 34.5185C153.226 34.2266 151.845 35.1067 151.541 36.4414C151.236 37.779 152.085 39.1672 153.475 39.5105Z" fill="#E7EAF3" stroke="white"/>
<path d="M159.742 18.6877L154.665 18.1255L154.018 23.1168L159.094 23.8493L159.742 18.6877Z" fill="#E7EAF3" stroke="white"/>
<path d="M157.213 18.3975C155.803 18.2428 154.511 19.2429 154.342 20.6091C154.173 21.9823 155.158 23.2684 156.566 23.4744C157.949 23.6769 159.23 22.7009 159.419 21.2568C159.607 19.8197 158.6 18.5498 157.213 18.3975Z" fill="#E7EAF3" stroke="white"/>
<path d="M160.835 2.16171L155.706 2.07653L155.587 7.10237L160.698 7.37499L160.835 2.16171Z" fill="#E7EAF3" stroke="white"/>
<path d="M160.744 4.77395L160.744 4.77395C160.71 6.22724 159.539 7.30677 158.132 7.23916L160.744 4.77395ZM160.744 4.77395L160.744 4.76807M160.744 4.77395L160.744 4.76807M160.744 4.76807C160.796 3.31393 159.671 2.14616 158.265 2.12922C156.837 2.11202 155.668 3.22935 155.635 4.5944M160.744 4.76807L155.635 4.5944M155.635 4.5944C155.601 5.96596 156.727 7.17044 158.132 7.23915L155.635 4.5944Z" fill="#E7EAF3" stroke="white"/>
<path d="M0.0477379 155.61L-0.395048 150.518C-0.906267 150.556 -1.41828 150.596 -1.9306 150.637C-3.07458 150.727 -4.22011 150.817 -5.36179 150.883L-5.10629 155.994C-3.99479 155.931 -2.88909 155.842 -1.7767 155.753C-1.17121 155.704 -0.563734 155.655 0.0477379 155.61Z" fill="#E7EAF3" stroke="white"/>
<path d="M-0.191529 153.086L-0.191559 153.086L-0.192023 153.081C-0.312219 151.673 -1.54895 150.607 -2.89134 150.706C-4.24608 150.826 -5.31289 152.036 -5.26281 153.445C-5.19326 154.874 -3.99062 155.937 -2.56603 155.818L-2.56604 155.818L-2.55972 155.818C-1.09993 155.715 -0.0564726 154.487 -0.191529 153.086Z" fill="#E7EAF3" stroke="white"/>
<path d="M16.3502 153.41L15.3795 148.403L10.4792 149.271L11.2455 154.328L16.3502 153.41Z" fill="#E7EAF3" stroke="white"/>
<path d="M15.8547 150.916C15.5784 149.517 14.2542 148.592 12.9297 148.827C11.6034 149.062 10.6655 150.386 10.8732 151.805C11.0759 153.191 12.375 154.126 13.7921 153.87C15.2155 153.613 16.1248 152.283 15.8547 150.916Z" fill="#E7EAF3" stroke="white"/>
<path d="M32.3688 149.52L30.8692 144.612L26.089 145.973L27.3842 150.932L32.3688 149.52Z" fill="#E7EAF3" stroke="white"/>
<path d="M31.6164 147.074C31.2035 145.715 29.7789 144.922 28.464 145.292C27.1711 145.662 26.3706 147.073 26.7143 148.454C27.0714 149.809 28.459 150.608 29.8404 150.215C31.2333 149.82 32.0202 148.403 31.6164 147.074Z" fill="#E7EAF3" stroke="white"/>
<path d="M47.8623 143.944L45.8516 139.224L41.224 141.062L43.0473 145.85L47.8623 143.944Z" fill="#E7EAF3" stroke="white"/>
<path d="M46.8679 141.608L46.8676 141.607C46.3164 140.315 44.8031 139.66 43.5422 140.164C42.2774 140.67 41.6357 142.151 42.1341 143.474C42.6223 144.771 44.0941 145.429 45.4536 144.917C46.7958 144.362 47.4223 142.901 46.8679 141.608Z" fill="#E7EAF3" stroke="white"/>
<path d="M58.1043 139.141C58.6687 138.844 59.2299 138.561 59.7871 138.28C60.7697 137.784 61.7398 137.294 62.6923 136.746L60.2054 132.284C59.2587 132.824 58.2742 133.318 57.304 133.806C56.7922 134.063 56.2844 134.318 55.7882 134.577L58.1043 139.141Z" fill="#E7EAF3" stroke="white"/>
<path d="M61.4257 134.53L61.4242 134.528C60.7274 133.287 59.2314 132.867 57.9691 133.468C56.7619 134.093 56.2774 135.617 56.9287 136.885L56.9287 136.885L56.9311 136.89C57.5566 138.141 59.1037 138.644 60.392 137.991L60.3944 137.99C61.6763 137.349 62.1239 135.756 61.4257 134.53Z" fill="#E7EAF3" stroke="white"/>
<path d="M73.7389 123.868C72.3851 124.843 71.0051 125.752 69.6011 126.638L72.3606 130.948C73.824 130.021 75.2673 129.066 76.6681 128.057L73.7389 123.868Z" fill="#E7EAF3" stroke="white"/>
<path d="M71.6867 125.29L71.6868 125.29L71.6752 125.297C70.5425 126.013 70.2151 127.57 70.9746 128.781C71.7394 129.968 73.3183 130.313 74.5334 129.528C75.7185 128.729 75.9924 127.095 75.1941 125.957C74.3727 124.794 72.8249 124.525 71.6867 125.29Z" fill="#E7EAF3" stroke="white"/>
<path d="M89.6722 117.94L86.3172 114.074C86.1506 114.219 85.984 114.364 85.8172 114.509C84.7406 115.448 83.6563 116.394 82.5155 117.282L85.7183 121.269C86.8237 120.412 87.8769 119.498 88.9436 118.571C89.1855 118.361 89.4281 118.15 89.6722 117.94Z" fill="#E7EAF3" stroke="white"/>
<path d="M84.0868 119.268L84.0874 119.268C84.9617 120.366 86.6297 120.569 87.6814 119.634L87.6813 119.634L87.6912 119.625C88.7862 118.702 88.9137 117.068 87.9857 116.022C87.0373 114.953 85.4551 114.832 84.4314 115.702C83.3984 116.617 83.2068 118.168 84.0868 119.268Z" fill="#E7EAF3" stroke="white"/>
<path d="M101.532 106.546L97.8002 103.054C97.4074 103.463 97.0145 103.881 96.6197 104.301C95.8767 105.091 95.1268 105.888 94.3568 106.654L97.9481 110.279C98.8449 109.381 99.7192 108.458 100.597 107.531C100.908 107.203 101.219 106.874 101.532 106.546Z" fill="#E7EAF3" stroke="white"/>
<path d="M96.1621 108.454L96.1621 108.454L96.1651 108.457C97.1674 109.476 98.7762 109.46 99.7634 108.422C100.759 107.375 100.714 105.762 99.6857 104.817C98.6327 103.851 97.0313 103.883 96.0898 104.854C95.1557 105.86 95.1732 107.465 96.1621 108.454Z" fill="#E7EAF3" stroke="white"/>
<path d="M112.195 93.991L108.125 90.9088L105.045 94.8216L108.996 98.0571L112.195 93.991Z" fill="#E7EAF3" stroke="white"/>
<path d="M106.598 92.843L106.598 92.843L106.595 92.8469C105.757 93.9021 105.943 95.5095 107.052 96.4274C108.131 97.3216 109.723 97.1445 110.614 95.9968L110.614 95.9968L110.616 95.9948C111.486 94.8856 111.294 93.2913 110.178 92.4459C109.039 91.5835 107.418 91.7882 106.598 92.843Z" fill="#E7EAF3" stroke="white"/>
<path d="M121.477 80.3849L117.098 77.7434C116.499 78.7158 115.88 79.6738 115.267 80.6239C114.983 81.0646 114.7 81.5035 114.42 81.9415L118.694 84.7513C119.033 84.2181 119.373 83.6923 119.712 83.1687C120.31 82.2432 120.905 81.3248 121.477 80.3849Z" fill="#E7EAF3" stroke="white"/>
<path d="M120.113 82.5551L120.113 82.5551L120.115 82.5524C120.877 81.3659 120.506 79.7873 119.3 79.0559C118.099 78.3361 116.51 78.7049 115.784 79.8331C115.062 80.9768 115.407 82.5499 116.597 83.3435C117.76 84.1189 119.341 83.7726 120.113 82.5551Z" fill="#E7EAF3" stroke="white"/>
<path d="M126.955 70.4988C127.135 70.1471 127.316 69.7981 127.495 69.4506C128.115 68.2532 128.725 67.0737 129.268 65.861L124.633 63.6972C124.102 64.8747 123.509 66.0183 122.923 67.1483C122.749 67.4825 122.577 67.8155 122.406 68.1478L126.955 70.4988Z" fill="#E7EAF3" stroke="white"/>
<path d="M126.939 64.7859L126.938 64.7857C125.649 64.1918 124.196 64.7425 123.537 65.9499C122.92 67.1579 123.417 68.6712 124.688 69.324L124.688 69.324L124.69 69.3253C125.925 69.9679 127.478 69.4832 128.149 68.1761L128.149 68.1761L128.151 68.1713C128.801 66.9382 128.206 65.3682 126.939 64.7859Z" fill="#E7EAF3" stroke="white"/>
<path d="M129.842 51.2764L129.838 51.2882L129.833 51.2998L128.92 53.6014L133.69 55.4584L134.642 53.0602L135.476 50.6109L130.637 48.9413L129.842 51.2764Z" fill="#E7EAF3" stroke="white"/>
<path d="M133.062 49.7772L133.062 49.7772L133.057 49.7753C131.719 49.3123 130.282 50.0021 129.845 51.2956L129.841 51.3086L129.836 51.3214C129.334 52.5756 129.98 54.023 131.305 54.539C132.606 55.0462 134.108 54.3918 134.645 53.0608C135.101 51.6863 134.373 50.214 133.062 49.7772Z" fill="#E7EAF3" stroke="white"/>
<path d="M140.072 34.7718L135.081 33.6304C135.036 33.8269 134.991 34.0238 134.946 34.2212C134.626 35.632 134.3 37.0636 133.887 38.4663L138.826 39.7947C139.257 38.333 139.596 36.8503 139.94 35.3462C139.984 35.1551 140.028 34.9636 140.072 34.7718Z" fill="#E7EAF3" stroke="white"/>
<path d="M134.522 36.0548L134.522 36.0562C134.214 37.3928 134.965 38.7546 136.349 39.1484C137.699 39.5237 139.155 38.714 139.474 37.3385C139.801 35.9051 138.937 34.5155 137.572 34.2121C136.173 33.9013 134.824 34.7316 134.522 36.0548Z" fill="#E7EAF3" stroke="white"/>
<path d="M142.94 18.5601L137.863 17.9468C137.791 18.4869 137.726 19.0351 137.661 19.5872C137.532 20.6822 137.401 21.7923 137.207 22.8839L142.249 23.6846C142.463 22.5183 142.603 21.3434 142.744 20.153C142.807 19.6253 142.87 19.0946 142.94 18.5601Z" fill="#E7EAF3" stroke="white"/>
<path d="M140.433 18.2541C139.026 18.0825 137.758 19.0604 137.589 20.403C137.436 21.7728 138.36 23.0519 139.76 23.2923C141.145 23.5132 142.495 22.5515 142.664 21.1631C142.818 19.7104 141.815 18.4227 140.433 18.2541Z" fill="#E7EAF3" stroke="white"/>
<path d="M144.131 2.14177L139.021 2.05663C139.009 2.54076 139.001 3.02955 138.993 3.52098C138.973 4.68288 138.952 5.85953 138.884 7.02425L143.974 7.31366C144.048 6.05143 144.074 4.78635 144.1 3.51336C144.11 3.05725 144.119 2.60014 144.131 2.14177Z" fill="#E7EAF3" stroke="white"/>
<path d="M144.081 4.78025L144.081 4.78025C144.064 6.19354 142.851 7.28455 141.434 7.19919C140.034 7.11364 138.956 5.93506 138.972 4.55112C139.007 3.1919 140.171 2.09213 141.602 2.10933L144.081 4.78025ZM144.081 4.78025L144.081 4.77458M144.081 4.78025L144.081 4.77458M144.081 4.77458C144.116 3.29002 142.982 2.1262 141.602 2.10933L144.081 4.77458Z" fill="#E7EAF3" stroke="white"/>
<path d="M12.578 137.134L11.6239 132.108C11.1076 132.198 10.586 132.296 10.0608 132.394C8.94059 132.604 7.80372 132.817 6.6657 132.966L7.39779 138.022C8.60989 137.862 9.80841 137.641 11.019 137.417C11.5358 137.322 12.0548 137.226 12.578 137.134Z" fill="#E7EAF3" stroke="white"/>
<path d="M7.04484 135.473L7.04488 135.473L7.04567 135.479C7.23256 136.872 8.55836 137.87 9.97955 137.6L9.97952 137.599L9.99091 137.598C11.4298 137.358 12.3592 136.03 12.1071 134.641C11.8301 133.248 10.512 132.322 9.16737 132.554C7.78272 132.834 6.84211 134.087 7.04484 135.473Z" fill="#E7EAF3" stroke="white"/>
<path d="M28.7515 133.16L27.2193 128.291C26.0301 128.66 24.8317 128.996 23.6443 129.328C23.2253 129.445 22.8076 129.562 22.3923 129.68L23.703 134.617C24.2771 134.451 24.8479 134.29 25.4163 134.13C26.5343 133.815 27.6434 133.502 28.7515 133.16Z" fill="#E7EAF3" stroke="white"/>
<path d="M27.9821 130.752L27.9814 130.75C27.5545 129.418 26.1335 128.645 24.7816 129.002C23.4685 129.375 22.6745 130.785 23.0355 132.16C23.388 133.503 24.8078 134.301 26.225 133.903L26.2265 133.903C27.6542 133.507 28.4197 132.098 27.9821 130.752Z" fill="#E7EAF3" stroke="white"/>
<path d="M42.2344 122.606C40.7209 123.298 39.1846 123.974 37.6178 124.572L39.5263 129.344C41.1523 128.716 42.7541 128.008 44.3476 127.275L42.2344 122.606Z" fill="#E7EAF3" stroke="white"/>
<path d="M43.2888 124.921L43.2876 124.918C42.7061 123.636 41.2053 123.063 39.9552 123.621L39.9552 123.621L39.9425 123.626C38.668 124.153 38.0373 125.615 38.5658 126.928L38.5659 126.928L38.5679 126.933C39.0733 128.23 40.6004 128.888 41.9558 128.326C43.2985 127.72 43.8789 126.202 43.2888 124.921Z" fill="#E7EAF3" stroke="white"/>
<path d="M56.4924 115.186L52.1277 117.693L54.5807 122.19L59.1327 119.564L56.4924 115.186Z" fill="#E7EAF3" stroke="white"/>
<path d="M57.8103 117.398L57.8087 117.395C57.072 116.178 55.4965 115.771 54.2881 116.451C53.1099 117.125 52.6692 118.696 53.3419 119.955C53.9966 121.18 55.5508 121.618 56.8244 120.878L56.8269 120.877C58.1261 120.132 58.5286 118.567 57.8103 117.398Z" fill="#E7EAF3" stroke="white"/>
<path d="M69.7218 106.115C68.4157 107.163 67.0699 108.154 65.6971 109.113L68.6597 113.285C70.0935 112.272 71.5048 111.245 72.8732 110.152L69.7218 106.115Z" fill="#E7EAF3" stroke="white"/>
<path d="M71.306 108.142L71.3036 108.139C70.4321 107.028 68.8465 106.826 67.7418 107.659L67.7419 107.659L67.7308 107.667C66.6191 108.459 66.3529 110.039 67.1774 111.207C67.9882 112.356 69.6024 112.622 70.7889 111.765C71.9725 110.87 72.1632 109.217 71.306 108.142Z" fill="#E7EAF3" stroke="white"/>
<path d="M85.4388 99.1853L81.8446 95.557L78.1961 99.0179L81.637 102.817L85.4388 99.1853Z" fill="#E7EAF3" stroke="white"/>
<path d="M83.6462 97.393L83.6462 97.393L83.6402 97.387C82.645 96.3746 81.004 96.3507 80.0268 97.2942L80.0237 97.2972C79.0277 98.2425 78.9821 99.8871 79.9284 100.937C80.8703 101.98 82.4795 102.029 83.5488 101.013C84.6027 99.9924 84.6321 98.3622 83.6462 97.393Z" fill="#E7EAF3" stroke="white"/>
<path d="M96.6173 86.838L92.6138 83.6523C91.6788 84.8552 90.6712 86.0144 89.6806 87.154C89.5813 87.2683 89.4821 87.3825 89.3831 87.4964L93.2514 90.8536C93.2619 90.8415 93.2724 90.8295 93.2829 90.8175C94.424 89.5076 95.5596 88.2043 96.6173 86.838Z" fill="#E7EAF3" stroke="white"/>
<path d="M91.3318 89.1687C92.3739 90.0931 94.0102 89.9742 94.979 88.85C95.9065 87.7704 95.7093 86.0997 94.6198 85.2305C93.4963 84.3462 91.9445 84.543 91.0313 85.5941C90.1389 86.6212 90.2465 88.2212 91.3289 89.1661L91.3289 89.1661L91.3318 89.1687Z" fill="#E7EAF3" stroke="white"/>
<path d="M106.248 73.2442L101.907 70.5544C101.655 70.9485 101.402 71.3463 101.149 71.7458C100.51 72.7543 99.8648 73.7733 99.1891 74.7702L103.394 77.6471C104.074 76.6444 104.728 75.6207 105.386 74.5901C105.671 74.1424 105.958 73.6934 106.248 73.2442Z" fill="#E7EAF3" stroke="white"/>
<path d="M104.835 75.4703L104.835 75.4703L104.838 75.4646C105.653 74.1999 105.294 72.6276 104.104 71.9068C102.877 71.1638 101.292 71.5218 100.571 72.6613C99.8387 73.8377 100.161 75.4136 101.307 76.22C102.479 77.0157 104.07 76.6936 104.835 75.4703Z" fill="#E7EAF3" stroke="white"/>
<path d="M111.895 63.3071C112.106 62.8917 112.319 62.4816 112.53 62.0737C113.126 60.9232 113.712 59.7913 114.232 58.6125L109.598 56.4491C109.09 57.5955 108.509 58.7188 107.936 59.8282C107.744 60.2001 107.552 60.5706 107.365 60.9398L111.895 63.3071Z" fill="#E7EAF3" stroke="white"/>
<path d="M111.905 57.5163L111.905 57.5163L111.902 57.5151C110.614 56.9219 109.162 57.4704 108.502 58.7174C107.882 59.9272 108.381 61.4664 109.639 62.1386C110.861 62.7915 112.416 62.2843 113.092 60.9666L113.092 60.9665L113.097 60.9574C113.786 59.6807 113.185 58.0967 111.905 57.5163Z" fill="#E7EAF3" stroke="white"/>
<path d="M120.404 43.1033L115.55 41.5192C115.382 42.0042 115.219 42.4957 115.056 42.99C114.694 44.0821 114.327 45.1878 113.9 46.2665L118.684 48.0712C119.127 46.9425 119.507 45.7968 119.891 44.6363C120.059 44.1281 120.228 43.617 120.404 43.1033Z" fill="#E7EAF3" stroke="white"/>
<path d="M119.546 45.6083L119.548 45.6012L119.55 45.5942C120.032 44.2193 119.306 42.7464 117.978 42.3262C116.615 41.895 115.173 42.6063 114.734 43.9005C114.305 45.2262 114.963 46.6735 116.268 47.165C117.585 47.6609 119.108 46.9883 119.546 45.6083Z" fill="#E7EAF3" stroke="white"/>
<path d="M123.543 32.1578C123.653 31.6794 123.765 31.2046 123.876 30.7317C124.168 29.4937 124.456 28.2692 124.712 27.029L119.704 26.0241C119.495 27.0306 119.256 28.0428 119.018 29.0481C118.87 29.6736 118.723 30.2965 118.584 30.9138L123.543 32.1578Z" fill="#E7EAF3" stroke="white"/>
<path d="M122.206 26.5164L122.206 26.5164L122.204 26.516C120.843 26.2437 119.47 27.132 119.144 28.4816C118.842 29.8151 119.686 31.1836 121.078 31.5274L121.079 31.5277C122.425 31.864 123.809 31.0095 124.136 29.5797L124.136 29.5797L124.138 29.5742C124.479 28.1567 123.593 26.7869 122.206 26.5164Z" fill="#E7EAF3" stroke="white"/>
<path d="M121.736 12.6027L121.735 12.6147L121.733 12.6266L121.428 15.1039L126.504 15.7343L126.828 13.1261L127.033 10.5005L121.922 10.1087L121.736 12.6027Z" fill="#E7EAF3" stroke="white"/>
<path d="M121.733 12.6021L121.733 12.6146L121.731 12.6271C121.563 13.972 122.538 15.2386 123.966 15.4292C125.35 15.5966 126.648 14.5838 126.826 13.1494C126.924 11.6574 125.868 10.4152 124.477 10.3146C123.048 10.2113 121.834 11.242 121.733 12.6021Z" fill="#E7EAF3" stroke="white"/>
<path d="M4.22094 121.63L3.48839 116.57C2.97279 116.633 2.4517 116.703 1.9271 116.772C0.818708 116.92 -0.305411 117.069 -1.42684 117.167L-0.95015 122.258C0.261995 122.148 1.4619 121.99 2.67121 121.831C3.18553 121.763 3.70155 121.695 4.22094 121.63Z" fill="#E7EAF3" stroke="white"/>
<path d="M-1.19091 119.72L-1.19087 119.721C-1.07183 121.132 0.202203 122.179 1.62062 121.976L1.62062 121.976L1.62641 121.976C3.07164 121.786 4.06665 120.485 3.86433 119.102C3.65783 117.691 2.37031 116.712 1.0445 116.878C-0.297699 117.067 -1.31091 118.315 -1.19091 119.72Z" fill="#E7EAF3" stroke="white"/>
<path d="M16.6586 113.992L16.6466 113.995L16.6345 113.998L14.2299 114.557L15.3876 119.528L17.9247 118.932L20.4426 118.234L19.0295 113.314L16.6586 113.992Z" fill="#E7EAF3" stroke="white"/>
<path d="M16.6818 113.971L16.6694 113.975L16.6568 113.978C15.3546 114.278 14.522 115.627 14.8332 117.028C15.1357 118.389 16.5184 119.253 17.9476 118.932C19.3349 118.531 20.1372 117.115 19.7498 115.767C19.3525 114.385 17.9672 113.604 16.6818 113.971Z" fill="#E7EAF3" stroke="white"/>
<path d="M31.2144 114.668C31.7393 114.458 32.2604 114.257 32.7775 114.057C33.8902 113.628 34.9842 113.206 36.0578 112.715L34.0137 108.031C32.9786 108.501 31.9107 108.912 30.8585 109.317C30.3703 109.505 29.8854 109.691 29.4089 109.882L31.2144 114.668Z" fill="#E7EAF3" stroke="white"/>
<path d="M33.6584 113.698L33.6584 113.698L33.6688 113.694C34.9871 113.21 35.5962 111.658 35.0139 110.356C34.433 109.057 32.9849 108.491 31.6983 108.969C30.465 109.455 29.8168 110.929 30.3184 112.279C30.8057 113.589 32.2942 114.233 33.6584 113.698Z" fill="#E7EAF3" stroke="white"/>
<path d="M48.1299 100.767L43.8235 103.235L46.2588 107.731L50.7866 105.126L48.1299 100.767Z" fill="#E7EAF3" stroke="white"/>
<path d="M45.0598 105.474L45.0598 105.474L45.0625 105.479C45.7166 106.72 47.2691 107.142 48.5251 106.419L48.5276 106.417C49.7946 105.698 50.1929 104.158 49.4676 102.958C48.7222 101.746 47.1427 101.322 45.9909 101.99C44.8282 102.664 44.3897 104.237 45.0598 105.474Z" fill="#E7EAF3" stroke="white"/>
<path d="M61.139 91.6597C60.7118 91.9899 60.2815 92.335 59.8464 92.6838C58.995 93.3664 58.1254 94.0636 57.2255 94.6935L60.2394 98.8141C61.2274 98.1251 62.1586 97.3807 63.1043 96.6248C63.518 96.2942 63.9344 95.9613 64.3595 95.6299L61.139 91.6597Z" fill="#E7EAF3" stroke="white"/>
<path d="M58.7337 96.7641L58.7345 96.7652C59.5517 97.9059 61.2005 98.1699 62.3118 97.2775L62.3147 97.2752C63.4683 96.3627 63.6434 94.7448 62.7663 93.6654C61.872 92.5646 60.2685 92.3728 59.2107 93.1908C58.1464 94.0706 57.8988 95.6054 58.7337 96.7641Z" fill="#E7EAF3" stroke="white"/>
<path d="M76.5565 84.4522L72.8446 80.9446C71.7207 82.1441 70.5743 83.3182 69.3598 84.4528L72.8844 88.1477C74.1476 86.9654 75.3591 85.7263 76.5565 84.4522Z" fill="#E7EAF3" stroke="white"/>
<path d="M74.6997 82.678L74.6997 82.678L74.6967 82.6751C73.6659 81.6958 72.0663 81.7249 71.1242 82.7007L71.1244 82.7008L71.1149 82.7101C70.1559 83.6523 70.1269 85.234 71.1066 86.2652C72.0713 87.2807 73.7027 87.3223 74.7486 86.2967C75.7555 85.2695 75.7299 83.6405 74.6997 82.678Z" fill="#E7EAF3" stroke="white"/>
<path d="M84.0228 75.8812C84.2988 75.5242 84.5755 75.1704 84.8513 74.8178C85.6494 73.7973 86.4395 72.7869 87.1832 71.7382L83.0483 68.7435C82.2683 69.8602 81.4186 70.9358 80.5768 72.0014C80.3974 72.2285 80.2183 72.4552 80.0403 72.6817L84.0228 75.8812Z" fill="#E7EAF3" stroke="white"/>
<path d="M85.1194 70.2367L85.1194 70.2367L85.1171 70.2351C83.9605 69.4016 82.4265 69.6664 81.5654 70.7513C80.7309 71.8028 80.9309 73.388 82.0388 74.2881C83.1136 75.1614 84.7323 74.9746 85.6486 73.8162L85.6486 73.8162L85.6509 73.8133C86.5384 72.7081 86.2449 71.0382 85.1194 70.2367Z" fill="#E7EAF3" stroke="white"/>
<path d="M96.0371 57.7337L91.5195 55.313C91.007 56.2437 90.4712 57.1695 89.9369 58.0927C89.6433 58.6 89.3501 59.1066 89.0615 59.6127L93.4591 62.2547C93.7139 61.8101 93.9704 61.3673 94.2268 60.9248C94.8407 59.8651 95.4534 58.8075 96.0371 57.7337Z" fill="#E7EAF3" stroke="white"/>
<path d="M93.7754 56.5256L93.7751 56.5255C92.5399 55.8736 90.9818 56.3075 90.2853 57.4768C89.617 58.6327 90.028 60.2082 91.2535 60.9504C92.4505 61.6753 94.0152 61.2612 94.7359 60.0086L94.7358 60.0086L94.7395 60.0024C95.4888 58.7423 95.03 57.1868 93.7754 56.5256Z" fill="#E7EAF3" stroke="white"/>
<path d="M102.898 42.6478L98.1083 40.8582C97.8828 41.4167 97.6608 41.9828 97.4379 42.5513C97.0576 43.5214 96.6745 44.4985 96.266 45.4572L100.969 47.4851C101.454 46.3564 101.898 45.2124 102.347 44.057C102.529 43.5891 102.711 43.1193 102.898 42.6478Z" fill="#E7EAF3" stroke="white"/>
<path d="M100.509 41.7701L100.509 41.7701L100.504 41.7681C99.1599 41.2685 97.6821 41.9299 97.1942 43.1684C96.7188 44.448 97.3165 45.9166 98.6156 46.4814C99.93 47.0439 101.435 46.4276 101.942 45.093L101.942 45.093L101.944 45.0879C102.478 43.7271 101.818 42.2399 100.509 41.7701Z" fill="#E7EAF3" stroke="white"/>
<path d="M107.686 26.7912L102.693 25.6666C102.334 27.2605 101.953 28.8745 101.492 30.467L106.416 31.8472C106.907 30.1817 107.306 28.4984 107.686 26.7912Z" fill="#E7EAF3" stroke="white"/>
<path d="M102.147 28.0735L102.147 28.0735L102.146 28.0794C101.822 29.4085 102.587 30.7725 103.957 31.1664L103.958 31.1669C105.291 31.5549 106.739 30.7453 107.1 29.3507C107.424 27.8994 106.56 26.5325 105.197 26.2294C103.801 25.9194 102.449 26.7661 102.147 28.0735Z" fill="#E7EAF3" stroke="white"/>
<path d="M109.717 15.6238C109.779 15.1322 109.846 14.6451 109.913 14.1606C110.083 12.9184 110.252 11.6935 110.336 10.4538L105.242 9.99381C105.159 11.1475 105.003 12.2995 104.849 13.4374C104.782 13.9306 104.716 14.4212 104.656 14.9082L109.717 15.6238Z" fill="#E7EAF3" stroke="white"/>
<path d="M110.041 13.0302L110.041 13.0302L110.042 13.0195C110.26 11.5987 109.172 10.3331 107.765 10.2129C106.35 10.0936 105.154 11.0952 104.964 12.4681C104.798 13.7904 105.773 15.061 107.188 15.2681C108.567 15.4699 109.851 14.4792 110.041 13.0302Z" fill="#E7EAF3" stroke="white"/>
<path d="M-2.82292 100.567L-2.84135 100.569L-2.85991 100.57L-5.34283 100.688L-4.98511 105.798L-2.31973 105.661C-1.81242 105.591 -1.29947 105.512 -0.781494 105.431L-0.779307 105.431C-0.41982 105.375 -0.0579036 105.319 0.303361 105.266L-0.360366 100.194C-0.561565 100.225 -0.76529 100.258 -0.970682 100.291C-1.58091 100.39 -2.20585 100.491 -2.82292 100.567Z" fill="#E7EAF3" stroke="white"/>
<path d="M-0.0180191 102.725L-0.0181273 102.724C-0.205724 101.325 -1.46245 100.381 -2.8145 100.566L-2.83614 100.569L-2.85795 100.57C-4.21782 100.638 -5.25607 101.812 -5.15343 103.232L-5.1534 103.232L-5.15304 103.238C-5.0696 104.623 -3.81188 105.719 -2.31802 105.662C-0.840723 105.443 0.166481 104.083 -0.0180191 102.725Z" fill="#E7EAF3" stroke="white"/>
<path d="M16.7998 101.875L15.3519 96.9693L10.5073 98.2145L11.6486 103.205L16.7998 101.875Z" fill="#E7EAF3" stroke="white"/>
<path d="M11.0911 100.71L11.0911 100.71L11.0924 100.716C11.3926 102.066 12.7864 102.901 14.245 102.519L14.249 102.518C15.6838 102.155 16.4922 100.757 16.0926 99.4421C15.6769 98.0737 14.2415 97.2448 12.9279 97.5817C11.6119 97.9191 10.7642 99.3163 11.0911 100.71Z" fill="#E7EAF3" stroke="white"/>
<path d="M26.7496 93.0066L26.7263 93.0179L26.7018 93.0268L25.7852 93.3589L27.7084 98.0901L28.7177 97.7168L30.1212 97.0351L30.1211 97.0351L30.125 97.0332L32.5431 95.8842L30.3299 91.2706L28.0936 92.3549L28.0936 92.3549L26.7496 93.0066Z" fill="#E7EAF3" stroke="white"/>
<path d="M26.7274 95.7118L26.7278 95.7129C27.2413 97.0137 28.827 97.7051 30.1051 97.0411L30.1131 97.037L30.1213 97.0331C31.4748 96.391 32.0385 94.8298 31.4325 93.5673C30.8155 92.2818 29.3223 91.7494 28.0962 92.3314C26.8252 93.007 26.2061 94.4001 26.7274 95.7118Z" fill="#E7EAF3" stroke="white"/>
<path d="M42.6534 90.3792C43.1275 90.0891 43.6001 89.8088 44.0692 89.5306C45.1286 88.9022 46.1703 88.2844 47.1722 87.5874L44.2782 83.3826C43.3062 84.0617 42.2757 84.6729 41.2645 85.2726C40.8427 85.5228 40.4243 85.771 40.0148 86.0213L42.6534 90.3792Z" fill="#E7EAF3" stroke="white"/>
<path d="M44.142 84.4564L44.1243 84.4536L44.1068 84.4494C43.4513 84.2942 42.7519 84.382 42.1591 84.7371C41.002 85.4425 40.6297 87.0059 41.3534 88.2293C42.0543 89.4141 43.6694 89.7986 44.9601 89.0137L44.9601 89.0137L44.9643 89.0111C45.5935 88.637 46.0009 88.0448 46.1562 87.4222C46.2708 86.7796 46.1337 86.066 45.7453 85.4895C45.331 84.9046 44.7559 84.556 44.142 84.4564Z" fill="#E7EAF3" stroke="white"/>
<path d="M60.2716 77.012L56.7626 73.2986L53.0429 76.677L56.3475 80.5949L60.2716 77.012Z" fill="#E7EAF3" stroke="white"/>
<path d="M58.5264 75.1629C57.5481 74.133 55.9222 74.0721 54.9062 74.9865C53.8961 75.8956 53.7931 77.544 54.7123 78.654C55.5942 79.7189 57.1978 79.8128 58.3088 78.806C59.4165 77.8021 59.4825 76.1693 58.5264 75.1629Z" fill="#E7EAF3" stroke="white"/>
<path d="M70.0046 66.7225L70.0058 66.7209L71.6059 64.5702L67.5515 61.4528L66.0632 63.4485C66.0631 63.4486 66.0631 63.4487 66.063 63.4488C65.7513 63.8678 65.4057 64.2552 65.0646 64.6246C64.9716 64.7252 64.8796 64.8239 64.7886 64.9215C64.656 65.0638 64.5254 65.2038 64.397 65.3445L68.2649 68.7013C68.4187 68.5325 68.5711 68.3694 68.7212 68.2088C69.1755 67.7224 69.6096 67.2577 70.0046 66.7225L70.0046 66.7225Z" fill="#E7EAF3" stroke="white"/>
<path d="M66.0588 63.4505L66.0532 63.4579L66.0474 63.4651C65.1683 64.5511 65.2438 66.0786 66.3164 67.0325C67.3513 67.9483 69.0727 67.8602 69.9878 66.7137C70.8901 65.511 70.6774 63.8567 69.5723 63.0195C68.4389 62.1609 66.8624 62.379 66.0588 63.4505Z" fill="#E7EAF3" stroke="white"/>
<path d="M80.9152 50.549L76.4367 48.097L73.8263 52.3965L78.1685 55.087L80.9152 50.549Z" fill="#E7EAF3" stroke="white"/>
<path d="M78.6942 49.3361C77.4309 48.6611 75.8323 49.0863 75.1211 50.2547C74.4141 51.4162 74.7944 52.9891 75.9987 53.7461C77.1705 54.4827 78.7589 54.0965 79.5412 52.8099C80.32 51.5292 79.9084 49.9847 78.6942 49.3361Z" fill="#E7EAF3" stroke="white"/>
<path d="M87.7735 35.1668L82.9544 33.4639L81.231 38.1736L85.9308 40.1659L87.7735 35.1668Z" fill="#E7EAF3" stroke="white"/>
<path d="M85.3606 34.3186C84.0173 33.8536 82.5551 34.5308 82.0834 35.811C81.6105 37.0945 82.2856 38.6182 83.6054 39.1913C84.8649 39.7381 86.3258 39.091 86.847 37.6851C87.3683 36.2589 86.6656 34.7703 85.3606 34.3186Z" fill="#E7EAF3" stroke="white"/>
<path d="M92.2639 18.9579L87.2414 18.0214C87.0601 19.3298 86.7185 20.6148 86.3871 21.8613C86.2932 22.2146 86.2001 22.5648 86.1117 22.9116L91.0687 24.1381C91.1643 23.7663 91.2622 23.3986 91.3594 23.0336C91.7236 21.6658 92.0779 20.335 92.2639 18.9579Z" fill="#E7EAF3" stroke="white"/>
<path d="M89.7365 18.4747L89.7359 18.4746C88.3298 18.2235 87.1563 19.106 86.7422 20.4977C86.4123 21.8039 87.2327 23.1627 88.6009 23.5048C89.9478 23.8415 91.3774 22.984 91.7417 21.5267L91.7439 21.5178L91.7464 21.5091C92.1402 20.1472 91.0987 18.7161 89.7365 18.4747Z" fill="#E7EAF3" stroke="white"/>
<path d="M94.0329 2.21733L88.905 2.08106L88.6663 7.07851L93.7601 7.52142L94.0329 2.21733Z" fill="#E7EAF3" stroke="white"/>
<path d="M91.4997 2.1497L91.4997 2.14973L91.4937 2.14959C90.0618 2.11508 88.8552 3.2205 88.7877 4.58648C88.7202 5.95379 89.8078 7.18229 91.2255 7.3222C92.5948 7.43738 93.8088 6.36867 93.8778 4.88481L93.8777 4.88481L93.8781 4.87935C93.965 3.36596 92.859 2.16627 91.4997 2.1497Z" fill="#E7EAF3" stroke="white"/>
<path d="M7.16294 81.8648C7.055 81.8931 6.94684 81.9215 6.83845 81.95C5.38652 82.3316 3.89448 82.7238 2.36624 82.9296L3.25125 87.9672C4.92491 87.7334 6.56519 87.3036 8.23447 86.8661C8.2917 86.8511 8.34896 86.8361 8.40626 86.8211L7.16294 81.8648Z" fill="#E7EAF3" stroke="white"/>
<path d="M4.81588 82.4725L4.8144 82.4728C3.4786 82.8024 2.5882 84.0161 2.82518 85.4257C3.06609 86.7973 4.45653 87.8205 5.85835 87.4889C7.29351 87.1239 8.14775 85.6976 7.79514 84.3544C7.43149 82.969 6.07725 82.1571 4.81588 82.4725Z" fill="#E7EAF3" stroke="white"/>
<path d="M19.8513 77.7877L19.8514 77.7879L19.8382 77.7928L17.5419 78.637L19.3483 83.4256L21.8444 82.5194C22.446 82.2629 23.0278 81.9795 23.6247 81.6888C23.8208 81.5933 24.0185 81.497 24.219 81.4006L22.0887 76.7478C21.9186 76.8294 21.7459 76.9137 21.5713 76.999C21.011 77.2726 20.4307 77.556 19.8513 77.7877Z" fill="#E7EAF3" stroke="white"/>
<path d="M23.1589 79.0653L23.1589 79.0653L23.1568 79.0607C22.5585 77.7615 21.0989 77.2395 19.861 77.7821L19.8455 77.7889L19.8296 77.7946C18.5905 78.2407 17.9541 79.6651 18.4396 81.0217C18.9279 82.3306 20.4345 83.0128 21.8366 82.5006C23.1773 81.9157 23.7487 80.3123 23.1589 79.0653Z" fill="#E7EAF3" stroke="white"/>
<path d="M34.3282 76.0021C34.6779 75.7879 35.0264 75.5789 35.3724 75.3714C36.5555 74.662 37.7083 73.9707 38.7742 73.1529L35.8099 68.9791C34.7654 69.7739 33.6376 70.4472 32.5348 71.1056C32.2445 71.279 31.9559 71.4513 31.671 71.6245L34.3282 76.0021Z" fill="#E7EAF3" stroke="white"/>
<path d="M36.6163 74.6149L36.6162 74.6148L36.6232 74.6108C37.8389 73.9043 38.0924 72.1579 37.2839 71.0394C36.4391 69.8738 34.9843 69.6786 33.7665 70.3635C32.6425 71.0458 32.2824 72.5796 33.0255 73.8066C33.7492 75.0017 35.3506 75.3777 36.6163 74.6149Z" fill="#E7EAF3" stroke="white"/>
<path d="M46.0808 60.4884L44.2713 62.1288L47.6785 65.9449L49.6456 64.166C49.7122 64.1046 49.7788 64.0435 49.8451 63.9825C50.4372 63.4383 51.0148 62.9074 51.5327 62.3422L47.8725 58.7842C47.3067 59.3987 46.6882 59.9485 46.091 60.4793L46.0808 60.4884Z" fill="#E7EAF3" stroke="white"/>
<path d="M49.644 64.1444L49.6517 64.1374L49.6596 64.1308C50.7423 63.2285 50.7129 61.5425 49.6933 60.5369C48.6736 59.5712 47.1359 59.5907 46.0733 60.4925C45.0972 61.3743 45.0244 62.9685 45.9754 64.0405C46.8969 65.0794 48.531 65.1531 49.644 64.1444Z" fill="#E7EAF3" stroke="white"/>
<path d="M58.9946 53.6254C59.2996 53.2155 59.6061 52.8101 59.9115 52.4063C60.6699 51.4034 61.4211 50.41 62.1246 49.3795L57.8663 46.552C57.2293 47.4816 56.5408 48.3893 55.8598 49.2869C55.5498 49.6956 55.2413 50.1022 54.94 50.5079L58.9946 53.6254Z" fill="#E7EAF3" stroke="white"/>
<path d="M60.5889 51.4857L60.5889 51.4857L60.5932 51.4801C61.4699 50.3506 61.1873 48.7495 60.0024 47.9697C58.8334 47.2144 57.2332 47.4955 56.417 48.5463C55.6192 49.6137 55.8524 51.1809 56.9796 52.0653C58.0644 52.9165 59.6838 52.6867 60.5889 51.4857Z" fill="#E7EAF3" stroke="white"/>
<path d="M70.12 34.6929L65.4189 32.7001L63.2738 37.1265L67.8386 39.46L70.12 34.6929Z" fill="#E7EAF3" stroke="white"/>
<path d="M67.7952 33.7192L67.7952 33.7192L67.7879 33.7162C66.4669 33.16 64.9097 33.7303 64.3408 34.9351L64.3408 34.9351L64.3396 34.9375C63.7726 36.1216 64.2994 37.6511 65.5655 38.3102C66.7853 38.9452 68.3365 38.4215 68.9761 37.0732L68.9761 37.0731L68.9784 37.0685C69.635 35.7206 69.0738 34.2339 67.7952 33.7192Z" fill="#E7EAF3" stroke="white"/>
<path d="M75.2622 18.7674L70.2725 17.6775L69.0465 22.4453L73.951 23.8928L75.2622 18.7674Z" fill="#E7EAF3" stroke="white"/>
<path d="M74.6004 21.3171L74.6004 21.3171L74.6008 21.3157C74.9794 19.8873 74.1364 18.5111 72.7822 18.2268C71.3731 17.9311 69.977 18.773 69.6421 20.0626C69.3085 21.3469 70.1262 22.7466 71.5029 23.1648C72.8199 23.5649 74.2188 22.7741 74.6004 21.3171Z" fill="#E7EAF3" stroke="white"/>
<path d="M77.3611 2.1941L72.2513 2.02377L71.996 6.94308L77.0887 7.45404L77.3611 2.1941Z" fill="#E7EAF3" stroke="white"/>
<path d="M74.5742 7.20038L74.5742 7.20035L74.5802 7.20101C75.9442 7.35071 77.1545 6.30654 77.2234 4.82379L77.2234 4.82352C77.2928 3.34976 76.2061 2.14238 74.819 2.10895C73.3824 2.07434 72.2001 3.16419 72.1332 4.48538C72.066 5.81211 73.1546 7.06189 74.5742 7.20038Z" fill="#E7EAF3" stroke="white"/>
<path d="M0.0581771 71.5918L-0.878207 66.5693L-5.6121 67.2989L-5.10135 72.3725L0.0581771 71.5918Z" fill="#E7EAF3" stroke="white"/>
<path d="M-5.33171 69.8833L-5.33166 69.8839C-5.19778 71.2729 -3.94682 72.2267 -2.50501 72.0035C-1.05926 71.7798 -0.126138 70.4672 -0.393776 69.1123C-0.67446 67.6914 -1.97781 66.7463 -3.22621 66.9434C-4.48524 67.1422 -5.4717 68.4484 -5.33171 69.8833Z" fill="#E7EAF3" stroke="white"/>
<path d="M11.0717 68.6921C11.5653 68.5098 12.0579 68.3341 12.5483 68.1592C13.7003 67.7484 14.8402 67.342 15.9518 66.8643L13.9079 62.1805C12.9213 62.6022 11.9001 62.9644 10.8956 63.3207C10.3972 63.4975 9.9028 63.6728 9.41888 63.8533L11.0717 68.6921Z" fill="#E7EAF3" stroke="white"/>
<path d="M13.5532 63.1845L13.5444 63.1808L13.5357 63.1769C12.9218 62.8962 12.2673 62.8379 11.6601 63.0676L11.6566 63.0689C10.4532 63.514 9.79155 64.9477 10.2476 66.3333C10.6836 67.6582 12.1303 68.3507 13.5284 67.8334C14.2167 67.575 14.7203 67.0829 14.971 66.5239C15.2073 65.8899 15.2037 65.1773 14.9164 64.5352C14.6222 63.8776 14.1264 63.4205 13.5532 63.1845Z" fill="#E7EAF3" stroke="white"/>
<path d="M25.3823 55.954L25.3619 55.9694L25.34 55.9826L23.3072 57.209L25.981 61.569L28.2229 60.2103L30.3111 58.6484L27.2796 54.5269L25.3823 55.954Z" fill="#E7EAF3" stroke="white"/>
<path d="M25.3825 55.9525L25.3618 55.9682L25.3395 55.9817C24.2586 56.6368 23.9032 58.1507 24.6528 59.3883C25.3725 60.5766 26.9595 60.9552 28.2217 60.2096C29.3836 59.3217 29.6298 57.6904 28.7955 56.5892C27.9193 55.4325 26.3936 55.186 25.3825 55.9525Z" fill="#E7EAF3" stroke="white"/>
<path d="M42.5082 47.4693L38.644 44.1329C38.3335 44.4738 38.023 44.8222 37.7105 45.1729C36.9632 46.0114 36.2039 46.8635 35.402 47.6607L38.9779 51.3047C39.8127 50.4752 40.5885 49.6069 41.3766 48.7249C41.7486 48.3085 42.1233 47.8891 42.5082 47.4693Z" fill="#E7EAF3" stroke="white"/>
<path d="M40.6019 45.8362L40.6019 45.8362L40.5984 45.8332C39.4992 44.891 37.8982 44.9726 37.04 45.9094C36.1843 46.8864 36.2234 48.4832 37.1901 49.4845C38.1923 50.5204 39.7894 50.5009 40.754 49.4179L40.7539 49.4178L40.7595 49.4118C41.7573 48.3279 41.656 46.723 40.6019 45.8362Z" fill="#E7EAF3" stroke="white"/>
<path d="M49.3015 38.3975C49.6167 37.87 49.9353 37.3556 50.2512 36.8457C50.8549 35.8709 51.4485 34.9124 51.9891 33.9107L47.4762 31.5095C46.9768 32.4349 46.4131 33.3428 45.8607 34.2324C45.5701 34.7004 45.2826 35.1633 45.0093 35.6212L49.3015 38.3975Z" fill="#E7EAF3" stroke="white"/>
<path d="M50.6703 36.1536L50.6702 36.1535L50.6755 36.1451C51.4515 34.9137 51.0033 33.3652 49.7285 32.7015C48.4791 32.0601 46.9391 32.472 46.2503 33.5779C45.593 34.6654 45.9722 36.2256 47.1766 37.0111C48.3357 37.7671 49.9149 37.4069 50.6703 36.1536Z" fill="#E7EAF3" stroke="white"/>
<path d="M52.5798 19.5053L52.5747 19.5231L52.5682 19.5405L51.745 21.7583L56.567 23.5304L57.4682 21.065C57.6616 20.3867 57.8352 19.7032 58.0115 19.0086C58.051 18.8529 58.0907 18.6966 58.1308 18.5397L53.1885 17.2104C53.1466 17.3722 53.1047 17.5354 53.0626 17.6994C52.9085 18.2995 52.7516 18.9107 52.5798 19.5053Z" fill="#E7EAF3" stroke="white"/>
<path d="M52.5601 19.5014L52.5546 19.521L52.5476 19.5401C52.1056 20.7352 52.7827 22.1349 54.1414 22.6227L54.1414 22.6227L54.1467 22.6246C55.4564 23.1116 56.9394 22.4161 57.4465 21.0472C57.8288 19.6285 56.9879 18.2094 55.6384 17.8547C54.2325 17.4906 52.9087 18.2563 52.5601 19.5014Z" fill="#E7EAF3" stroke="white"/>
<path d="M55.3609 5.83391L55.2296 6.75358L60.306 7.36687L60.4567 6.32523L60.5371 4.78013L60.5371 4.78L60.6735 2.16971L55.5647 1.96532L55.4467 4.3421L55.4467 4.3421L55.4466 4.34541L55.3651 5.79133L55.3639 5.81271L55.3609 5.83391Z" fill="#E7EAF3" stroke="white"/>
<path d="M57.7535 7.03858L57.7535 7.03853L57.761 7.03954C59.1492 7.22807 60.5006 6.19385 60.5336 4.77417L60.5338 4.76512L60.5344 4.75608C60.6197 3.32193 59.5301 2.12041 58.1266 2.06803C56.6764 2.03457 55.5153 3.07552 55.4443 4.3337C55.4314 5.68938 56.3461 6.86902 57.7535 7.03858Z" fill="#E7EAF3" stroke="white"/>
<path d="M10.1577 45.5217C9.8874 45.6503 9.61605 45.7815 9.34324 45.9135C8.17983 46.4761 6.98973 47.0516 5.73798 47.4937L7.54418 52.2818C9.00885 51.7755 10.4049 51.0931 11.8362 50.3935C12.0542 50.2869 12.2731 50.18 12.4931 50.0732L10.1577 45.5217Z" fill="#E7EAF3" stroke="white"/>
<path d="M10.0383 51.2356L10.0383 51.2356L10.0429 51.2334C11.4412 50.5692 11.9707 49.0149 11.3425 47.8047C10.6574 46.5253 9.14496 45.9965 7.99393 46.5538C6.77467 47.1649 6.13979 48.5178 6.63349 49.863C7.10842 51.1515 8.69301 51.8915 10.0383 51.2356Z" fill="#E7EAF3" stroke="white"/>
<path d="M22.8767 36.5508C22.5131 36.8757 22.1589 37.2084 21.7997 37.5456C21.572 37.7595 21.3423 37.9752 21.107 38.1919C20.5181 38.7344 19.9058 39.2719 19.2413 39.758L22.3553 43.7909C23.0761 43.2648 23.7549 42.6745 24.43 42.0574C24.6882 41.8214 24.9479 41.5795 25.2095 41.336C25.6132 40.9599 26.0213 40.5799 26.4349 40.2112L22.8767 36.5508Z" fill="#E7EAF3" stroke="white"/>
<path d="M20.7977 41.7704L20.7991 41.7722C21.632 42.8771 23.3615 43.116 24.4303 42.0806L24.4302 42.0805L24.4391 42.0723C25.5816 41.0177 25.6454 39.3875 24.6864 38.4119C23.6774 37.3856 22.054 37.3265 21.11 38.1803C20.1341 39.1446 19.9308 40.6315 20.7977 41.7704Z" fill="#E7EAF3" stroke="white"/>
<path d="M36.9047 26.7188L32.4234 24.2652C32.1171 24.7527 31.8238 25.2475 31.5271 25.7479C31.41 25.9455 31.2923 26.144 31.1731 26.3433C30.7613 27.0317 30.3347 27.7236 29.8622 28.3922L34.0512 31.321C34.7502 30.3322 35.3605 29.3027 35.9844 28.2503C36.2842 27.7444 36.5872 27.2333 36.9047 26.7188Z" fill="#E7EAF3" stroke="white"/>
<path d="M31.1752 26.3684L31.1753 26.3684L31.1706 26.3758C30.8327 26.9068 30.7675 27.578 30.9121 28.2648L30.9122 28.2648L30.9137 28.2724C31.0325 28.8833 31.3908 29.4835 31.9564 29.896C32.5335 30.3022 33.2256 30.4365 33.8849 30.3016C34.5013 30.1714 35.0861 29.7409 35.4955 29.0831C36.3212 27.7284 35.9086 26.1715 34.7082 25.5302C33.4318 24.8483 31.8586 25.2517 31.1752 26.3684Z" fill="#E7EAF3" stroke="white"/>
<path d="M42.8991 10.7328L37.8904 9.7276C37.7897 10.1212 37.6904 10.5175 37.5909 10.915C37.2981 12.0839 37.0027 13.2638 36.6595 14.4191L41.5303 15.986C41.9507 14.5619 42.3094 13.1127 42.671 11.6518C42.7467 11.3459 42.8226 11.0396 42.8991 10.7328Z" fill="#E7EAF3" stroke="white"/>
<path d="M42.2323 13.3834L42.2324 13.3834C41.8696 14.8691 40.4436 15.6571 39.1106 15.2073L42.2323 13.3834ZM42.2323 13.3834L42.2337 13.3781M42.2323 13.3834L42.2337 13.3781M42.2337 13.3781C42.6194 11.8703 41.7971 10.5113 40.4253 10.2462M42.2337 13.3781L40.4253 10.2462M40.4253 10.2462C39.0239 9.98405 37.6139 10.8361 37.298 12.0733C36.9961 13.3572 37.777 14.7569 39.1105 15.2072L40.4253 10.2462Z" fill="#E7EAF3" stroke="white"/>
<path d="M-0.826628 37.564C0.889677 36.9785 2.57094 36.3849 4.16771 35.5976L1.93739 31.0007C0.626451 31.647 -0.760913 32.1316 -2.11441 32.6045C-2.17948 32.6272 -2.24447 32.6499 -2.30938 32.6726L-0.826628 37.564Z" fill="#E7EAF3" stroke="white"/>
<path d="M1.72152 36.6554L1.72151 36.6554L1.72646 36.6536C3.13 36.1523 3.66716 34.5173 3.05628 33.2955C2.39833 31.9796 1.01525 31.507 -0.179068 31.9143C-1.28039 32.3163 -1.94671 33.7801 -1.55536 35.1527C-1.15598 36.5142 0.253639 37.1971 1.72152 36.6554Z" fill="#E7EAF3" stroke="white"/>
<path d="M12.1884 23.7558L12.1831 23.7615L12.1777 23.7671C11.7672 24.1909 11.3075 24.6037 10.8622 25.0036C10.7396 25.1137 10.618 25.2228 10.4989 25.3309L13.8549 29.1808C13.976 29.071 14.0965 28.9624 14.2163 28.8546C14.7662 28.3594 15.3004 27.8783 15.8128 27.3525L17.6344 25.3607L13.7182 22.0746L12.1884 23.7558Z" fill="#E7EAF3" stroke="white"/>
<path d="M12.1876 23.7554L12.1762 23.7679L12.164 23.7796C11.3054 24.6059 11.2401 26.1363 12.1808 27.2736C13.0571 28.3136 14.7069 28.412 15.8173 27.3666C16.8575 26.2091 16.7465 24.5989 15.6971 23.7463C14.554 22.8175 12.9698 22.8933 12.1876 23.7554Z" fill="#E7EAF3" stroke="white"/>
<path d="M19.6193 12.5938L19.6112 12.6158L19.6012 12.637L19.2271 13.4238L23.8786 15.5878L24.3489 14.5917L24.8891 13.1114C25.0091 12.7587 25.1342 12.4266 25.2559 12.1038C25.4515 11.5845 25.6381 11.0892 25.7798 10.5712L20.8554 9.15683C20.7689 9.45956 20.6663 9.7489 20.5621 10.0269C20.5126 10.1588 20.4635 10.2863 20.4154 10.4115C20.3004 10.7101 20.1906 10.9953 20.0934 11.2941L20.0906 11.3025L20.0876 11.3108L19.6193 12.5938Z" fill="#E7EAF3" stroke="white"/>
<path d="M21.3892 10.0394L21.376 10.046L21.3625 10.0518C20.7629 10.3087 20.3241 10.7398 20.1114 11.3021C19.7449 12.4893 20.268 13.8769 21.5689 14.5194C22.8223 15.1283 24.4181 14.5449 24.8863 13.1404L24.8885 13.1335L24.891 13.1267C25.1526 12.4118 25.1123 11.6798 24.8319 11.0987C24.5274 10.5099 23.9884 10.0562 23.3138 9.87069C22.6186 9.67953 21.9309 9.76852 21.3892 10.0394Z" fill="#E7EAF3" stroke="white"/>
<path d="M-2.11914 14.1221C-3.33774 15.0284 -4.68478 15.7506 -6.08896 16.3142L-4.3013 21.0814C-2.42625 20.3411 -0.637308 19.3795 0.978928 18.1734L-2.11914 14.1221Z" fill="#E7EAF3" stroke="white"/>
<path d="M-4.04078 15.3428L-4.0407 15.3429L-4.052 15.3489C-4.58137 15.6301 -4.96822 16.0929 -5.17535 16.7315L-5.17933 16.7438L-5.18393 16.7558C-5.40892 17.3443 -5.44221 18.0541 -5.20217 18.7056L-5.20075 18.7095C-4.96972 19.3531 -4.47806 19.8353 -3.80296 20.0738C-3.1691 20.2715 -2.33556 20.2104 -1.57327 19.8039C-0.0126083 18.9324 0.272029 17.2027 -0.56221 16.1579C-1.48243 15.0268 -3.01087 14.7614 -4.04078 15.3428Z" fill="#E7EAF3" stroke="white"/>
<path d="M8.8564 8.35278C9.64039 6.47682 10.2551 4.53044 10.5321 2.54795L5.45564 1.86656C5.23805 3.37886 4.75681 4.82377 4.18422 6.20433L8.8564 8.35278Z" fill="#E7EAF3" stroke="white"/>
<path d="M6.5445 7.26896L6.5445 7.26895L6.54698 7.27017C7.74546 7.86142 9.35921 7.19373 9.87853 5.47876C10.3708 3.78654 9.30524 2.33299 8.00212 2.18776C6.54655 2.03024 5.30806 2.92561 4.95128 4.07507C4.62215 5.20079 5.23465 6.63174 6.5445 7.26896Z" fill="#E7EAF3" stroke="white"/>
</svg>
