<svg width="59" height="59" viewBox="0 0 59 59" fill="none" xmlns="http://www.w3.org/2000/svg">
<path d="M4.7261 32.5099C3.23675 18.6555 13.2605 6.21702 27.1149 4.72767C40.9692 3.23831 53.4077 13.2621 54.897 27.1164C56.3864 40.9707 46.3626 53.4093 32.5083 54.8986C18.654 56.388 6.21546 46.3642 4.7261 32.5099Z" fill="#CECECE"/>
<path d="M38.3144 20.4026C39.1178 20.277 39.8659 19.9158 40.464 19.3648C41.0621 18.8138 41.4833 18.0978 41.6743 17.3073C41.8653 16.5169 41.8175 15.6876 41.537 14.9243C41.2565 14.161 40.7559 13.4981 40.0985 13.0194C39.4411 12.5408 38.6565 12.2679 37.8439 12.2353C37.0314 12.2027 36.2275 12.4119 35.5338 12.8364C34.8402 13.2609 34.2881 13.8816 33.9474 14.62C33.6067 15.3583 33.4927 16.1812 33.6198 16.9844C33.7899 18.0598 34.3799 19.0237 35.26 19.6646C36.1402 20.3054 37.2387 20.5709 38.3144 20.4026Z" fill="#8F8F8F"/>
<path d="M27.6862 13.5067C28.1558 13.4349 28.5936 13.2254 28.944 12.9047C29.2945 12.584 29.5419 12.1665 29.6549 11.7051C29.7679 11.2437 29.7414 10.7591 29.5788 10.3128C29.4162 9.86641 29.1248 9.47834 28.7415 9.19772C28.3582 8.91709 27.9002 8.75653 27.4256 8.73637C26.951 8.71621 26.4811 8.83737 26.0753 9.08447C25.6696 9.33157 25.3464 9.69351 25.1465 10.1245C24.9466 10.5554 24.8791 11.036 24.9526 11.5053C25 11.8166 25.1084 12.1153 25.2716 12.3845C25.4348 12.6538 25.6495 12.8881 25.9035 13.0741C26.1575 13.26 26.4458 13.394 26.7517 13.4682C27.0577 13.5425 27.3752 13.5555 27.6862 13.5067Z" fill="#8F8F8F"/>
<path d="M20.8574 17.6405C20.8059 17.4269 20.6772 17.2399 20.4961 17.1155C20.315 16.9911 20.0942 16.9381 19.8764 16.9667C19.6585 16.9952 19.4589 17.1034 19.316 17.2704C19.1732 17.4373 19.0971 17.6511 19.1024 17.8708C19.1539 18.0844 19.2826 18.2715 19.4637 18.3959C19.6449 18.5203 19.8656 18.5733 20.0835 18.5447C20.3013 18.5161 20.5009 18.4079 20.6438 18.241C20.7867 18.0741 20.8628 17.8602 20.8574 17.6405Z" fill="#8F8F8F"/>
</svg>
