<svg width="293" height="296" viewBox="0 0 293 296" fill="none" xmlns="http://www.w3.org/2000/svg">
<mask id="mask0_2229_1913" style="mask-type:alpha" maskUnits="userSpaceOnUse" x="8" y="10" width="276" height="276">
<g opacity="0.7">
<g opacity="0.7">
<path opacity="0.7" d="M93.6683 17.519L97.2472 18.157L122.74 61.7516L121.802 65.6303L93.6683 17.519Z" fill="#616161"/>
<path opacity="0.7" d="M102.747 19.4885L106.335 20.1282L125.121 52.2537L124.181 56.1426L102.747 19.4885Z" fill="#616161"/>
<path opacity="0.7" d="M75.5023 13.5776L79.0813 14.2156L117.984 80.7266L117.043 84.6155L75.5023 13.5776Z" fill="#616161"/>
<path opacity="0.7" d="M84.5807 15.5474L88.169 16.187L120.362 71.239L119.422 75.1279L84.5807 15.5474Z" fill="#616161"/>
<path opacity="0.7" d="M41.8848 86.3557L40.0859 86.035L40.5573 84.0854L41.8848 86.3557Z" fill="#616161"/>
<path opacity="0.7" d="M66.4147 11.6059L70.0031 12.2456L115.603 90.2241L114.663 94.113L66.4147 11.6059Z" fill="#616161"/>
<path opacity="0.7" d="M111.825 21.4582L115.413 22.0979L127.499 42.7662L126.559 46.655L111.825 21.4582Z" fill="#616161"/>
<path opacity="0.7" d="M129.88 33.2686L128.94 37.1575L120.913 23.4299L124.501 24.0696L129.88 33.2686Z" fill="#616161"/>
<path opacity="0.7" d="M44.3768 68.9892L45.317 65.1003L60.0418 90.2949L56.4628 89.6569L44.3768 68.9892Z" fill="#616161"/>
<path opacity="0.7" d="M41.9958 78.4868L42.936 74.5979L50.9634 88.3254L47.3751 87.6858L41.9958 78.4868Z" fill="#616161"/>
<path opacity="0.7" d="M46.7556 59.5014L47.6958 55.6125L69.1301 92.2666L65.5417 91.6269L46.7556 59.5014Z" fill="#616161"/>
<path opacity="0.7" d="M129.992 25.3994L131.792 25.7201L131.323 27.6599L129.992 25.3994Z" fill="#616161"/>
<path opacity="0.7" d="M49.1343 50.0139L50.0745 46.125L78.2087 94.2363L74.6204 93.5966L49.1343 50.0139Z" fill="#616161"/>
<path opacity="0.7" d="M51.5155 40.5163L52.4556 36.6274L87.2968 96.208L83.7084 95.5683L51.5155 40.5163Z" fill="#616161"/>
<path opacity="0.7" d="M112.743 101.729L110.954 101.41L58.6565 11.9641L59.1253 10.0247L60.9148 10.3436L113.224 99.7812L112.753 101.731L112.743 101.729Z" fill="#616161"/>
<path opacity="0.7" d="M56.2752 21.5312L57.2154 17.6423L105.454 100.147L101.875 99.5092L56.2752 21.5312Z" fill="#616161"/>
<path opacity="0.7" d="M53.8942 31.0285L54.8343 27.1396L96.3754 98.1775L92.787 97.5378L53.8942 31.0285Z" fill="#616161"/>
</g>
<g opacity="0.7">
<path opacity="0.7" d="M169.602 33.2819L173.19 33.9216L198.674 77.5148L197.736 81.3935L169.602 33.2819Z" fill="#616161"/>
<path opacity="0.7" d="M178.68 35.2517L182.269 35.8913L201.055 68.0169L200.114 71.9057L178.68 35.2517Z" fill="#616161"/>
<path opacity="0.7" d="M151.432 29.3408L155.02 29.9805L193.913 96.4897L192.973 100.379L151.432 29.3408Z" fill="#616161"/>
<path opacity="0.7" d="M160.514 31.3105L164.103 31.9502L196.296 87.002L195.355 90.8908L160.514 31.3105Z" fill="#616161"/>
<path opacity="0.7" d="M117.817 102.119L116.027 101.8L116.499 99.8508L117.817 102.119Z" fill="#616161"/>
<path opacity="0.7" d="M142.356 27.3711L145.935 28.0091L191.535 105.987L190.594 109.876L142.356 27.3711Z" fill="#616161"/>
<path opacity="0.7" d="M187.766 37.2234L191.355 37.863L203.431 58.5292L202.491 62.418L187.766 37.2234Z" fill="#616161"/>
<path opacity="0.7" d="M205.814 49.0317L204.874 52.9206L196.846 39.1931L200.434 39.8327L205.814 49.0317Z" fill="#616161"/>
<path opacity="0.7" d="M120.318 84.7543L121.258 80.8655L135.983 106.06L132.395 105.42L120.318 84.7543Z" fill="#616161"/>
<path opacity="0.7" d="M117.937 94.2518L118.877 90.363L126.895 104.088L123.307 103.449L117.937 94.2518Z" fill="#616161"/>
<path opacity="0.7" d="M122.697 75.2665L123.637 71.3777L145.062 108.03L141.473 107.39L122.697 75.2665Z" fill="#616161"/>
<path opacity="0.7" d="M205.934 41.1648L207.723 41.4838L207.254 43.4231L205.934 41.1648Z" fill="#616161"/>
<path opacity="0.7" d="M125.076 65.779L126.016 61.8901L154.14 110L150.561 109.362L125.076 65.779Z" fill="#616161"/>
<path opacity="0.7" d="M127.457 56.2814L128.397 52.3926L163.228 111.971L159.64 111.332L127.457 56.2814Z" fill="#616161"/>
<path opacity="0.7" d="M188.684 117.494L186.895 117.175L134.598 27.7291L135.067 25.7898L136.856 26.1088L189.156 115.544L188.684 117.494Z" fill="#616161"/>
<path opacity="0.7" d="M132.217 37.2963L133.157 33.4074L181.395 115.912L177.807 115.273L132.217 37.2963Z" fill="#616161"/>
<path opacity="0.7" d="M129.836 46.7938L130.776 42.905L172.317 113.943L168.728 113.303L129.836 46.7938Z" fill="#616161"/>
</g>
<g opacity="0.7">
<path opacity="0.7" d="M245.539 49.0474L249.118 49.6853L274.611 93.28L273.674 97.1587L245.539 49.0474Z" fill="#616161"/>
<path opacity="0.7" d="M254.618 51.0168L258.206 51.6565L276.992 83.782L276.052 87.6709L254.618 51.0168Z" fill="#616161"/>
<path opacity="0.7" d="M227.373 45.1059L230.952 45.7439L269.855 112.255L268.914 116.144L227.373 45.1059Z" fill="#616161"/>
<path opacity="0.7" d="M236.452 47.0757L240.04 47.7153L272.233 102.767L271.293 106.656L236.452 47.0757Z" fill="#616161"/>
<path opacity="0.7" d="M193.756 117.884L191.957 117.563L192.428 115.614L193.756 117.884Z" fill="#616161"/>
<path opacity="0.7" d="M218.286 43.1342L221.874 43.7739L267.474 121.752L266.534 125.641L218.286 43.1342Z" fill="#616161"/>
<path opacity="0.7" d="M263.696 52.9865L267.284 53.6262L279.371 74.2943L278.43 78.1831L263.696 52.9865Z" fill="#616161"/>
<path opacity="0.7" d="M281.751 64.7969L280.811 68.6858L272.784 54.9582L276.372 55.5979L281.751 64.7969Z" fill="#616161"/>
<path opacity="0.7" d="M196.248 100.518L197.188 96.6286L211.923 121.825L208.334 121.186L196.248 100.518Z" fill="#616161"/>
<path opacity="0.7" d="M193.867 110.015L194.807 106.126L202.835 119.854L199.246 119.214L193.867 110.015Z" fill="#616161"/>
<path opacity="0.7" d="M198.627 91.0297L199.567 87.1408L221.001 123.795L217.413 123.155L198.627 91.0297Z" fill="#616161"/>
<path opacity="0.7" d="M281.863 56.9277L283.663 57.2484L283.194 59.1882L281.863 56.9277Z" fill="#616161"/>
<path opacity="0.7" d="M201.005 81.5422L201.946 77.6533L230.08 125.765L226.491 125.125L201.005 81.5422Z" fill="#616161"/>
<path opacity="0.7" d="M203.387 72.0446L204.327 68.1557L239.168 127.736L235.579 127.097L203.387 72.0446Z" fill="#616161"/>
<path opacity="0.7" d="M264.614 133.257L262.825 132.938L210.528 43.4924L210.996 41.553L212.786 41.872L265.095 131.31L264.624 133.259L264.614 133.257Z" fill="#616161"/>
<path opacity="0.7" d="M208.146 53.0593L209.087 49.1704L257.325 131.676L253.746 131.038L208.146 53.0593Z" fill="#616161"/>
<path opacity="0.7" d="M205.765 62.5568L206.705 58.6679L248.246 129.706L244.658 129.066L205.765 62.5568Z" fill="#616161"/>
</g>
<g opacity="0.7">
<path opacity="0.7" d="M77.9066 93.4597L81.4855 94.0977L106.981 137.682L106.041 141.571L77.9066 93.4597Z" fill="#616161"/>
<path opacity="0.7" d="M86.9849 95.4295L90.5732 96.0691L109.359 128.195L108.419 132.084L86.9849 95.4295Z" fill="#616161"/>
<path opacity="0.7" d="M59.7367 89.5185L63.3157 90.1565L102.218 156.667L101.278 160.556L59.7367 89.5185Z" fill="#616161"/>
<path opacity="0.7" d="M68.8166 91.488L72.405 92.1277L104.598 147.18L103.66 151.059L68.8166 91.488Z" fill="#616161"/>
<path opacity="0.7" d="M26.1234 162.287L24.3242 161.966L24.7932 160.026L26.1234 162.287Z" fill="#616161"/>
<path opacity="0.7" d="M50.6507 87.5469L54.2391 88.1865L99.8414 166.155L98.9012 170.044L50.6507 87.5469Z" fill="#616161"/>
<path opacity="0.7" d="M96.0609 97.3992L99.6493 98.0388L111.738 118.697L110.798 122.586L96.0609 97.3992Z" fill="#616161"/>
<path opacity="0.7" d="M114.118 109.209L113.178 113.098L105.151 99.3708L108.739 100.011L114.118 109.209Z" fill="#616161"/>
<path opacity="0.7" d="M28.6128 144.93L29.553 141.041L44.2804 166.226L40.7014 165.588L28.6128 144.93Z" fill="#616161"/>
<path opacity="0.7" d="M26.2341 154.418L27.1719 150.539L35.2021 164.256L31.6136 163.617L26.2341 154.418Z" fill="#616161"/>
<path opacity="0.7" d="M30.994 135.432L31.9317 131.553L53.3687 168.198L49.7803 167.558L30.994 135.432Z" fill="#616161"/>
<path opacity="0.7" d="M114.227 101.34L116.026 101.661L115.557 103.601L114.227 101.34Z" fill="#616161"/>
<path opacity="0.7" d="M33.3726 125.945L34.3128 122.056L62.447 170.167L58.8586 169.528L33.3726 125.945Z" fill="#616161"/>
<path opacity="0.7" d="M35.7538 116.447L36.6916 112.568L71.5353 172.139L67.947 171.499L35.7538 116.447Z" fill="#616161"/>
<path opacity="0.7" d="M96.9818 177.66L95.1923 177.341L42.8924 87.905L43.3613 85.9656L45.1508 86.2846L97.46 175.722L96.9911 177.662L96.9818 177.66Z" fill="#616161"/>
<path opacity="0.7" d="M40.5112 97.4719L41.4514 93.583L89.6923 176.078L86.1133 175.44L40.5112 97.4719Z" fill="#616161"/>
<path opacity="0.7" d="M38.1325 106.96L39.0727 103.071L80.6136 174.109L77.0253 173.469L38.1325 106.96Z" fill="#616161"/>
</g>
<g opacity="0.7">
<path opacity="0.7" d="M153.836 109.223L157.425 109.863L182.911 153.445L181.97 157.334L153.836 109.223Z" fill="#616161"/>
<path opacity="0.7" d="M162.915 111.193L166.503 111.832L185.289 143.958L184.349 147.847L162.915 111.193Z" fill="#616161"/>
<path opacity="0.7" d="M135.67 105.282L139.259 105.921L178.152 172.431L177.211 176.32L135.67 105.282Z" fill="#616161"/>
<path opacity="0.7" d="M144.746 107.251L148.335 107.891L180.528 162.943L179.59 166.822L144.746 107.251Z" fill="#616161"/>
<path opacity="0.7" d="M102.055 178.05L100.266 177.731L100.734 175.791L102.055 178.05Z" fill="#616161"/>
<path opacity="0.7" d="M126.592 103.312L130.171 103.95L175.773 181.918L174.833 185.807L126.592 103.312Z" fill="#616161"/>
<path opacity="0.7" d="M172.002 113.164L175.591 113.804L187.67 134.46L186.73 138.349L172.002 113.164Z" fill="#616161"/>
<path opacity="0.7" d="M190.048 124.972L189.108 128.861L181.08 115.134L184.669 115.773L190.048 124.972Z" fill="#616161"/>
<path opacity="0.7" d="M104.554 160.695L105.494 156.806L120.222 181.991L116.633 181.352L104.554 160.695Z" fill="#616161"/>
<path opacity="0.7" d="M102.175 170.183L103.113 166.304L111.134 180.02L107.545 179.38L102.175 170.183Z" fill="#616161"/>
<path opacity="0.7" d="M106.935 151.197L107.873 147.319L129.3 183.961L125.712 183.321L106.935 151.197Z" fill="#616161"/>
<path opacity="0.7" d="M190.168 117.105L191.958 117.424L191.489 119.364L190.168 117.105Z" fill="#616161"/>
<path opacity="0.7" d="M109.314 141.71L110.254 137.821L138.379 185.93L134.8 185.292L109.314 141.71Z" fill="#616161"/>
<path opacity="0.7" d="M111.695 132.212L112.633 128.333L147.467 187.902L143.879 187.262L111.695 132.212Z" fill="#616161"/>
<path opacity="0.7" d="M172.923 193.425L171.133 193.106L118.834 103.67L119.303 101.731L121.092 102.05L173.392 191.485L172.923 193.425Z" fill="#616161"/>
<path opacity="0.7" d="M116.453 113.237L117.393 109.348L165.634 191.844L162.045 191.204L116.453 113.237Z" fill="#616161"/>
<path opacity="0.7" d="M114.074 122.725L115.014 118.836L156.555 189.874L152.967 189.234L114.074 122.725Z" fill="#616161"/>
</g>
<g opacity="0.7">
<path opacity="0.7" d="M229.778 124.988L233.357 125.626L258.852 169.21L257.912 173.099L229.778 124.988Z" fill="#616161"/>
<path opacity="0.7" d="M238.856 126.958L242.444 127.597L261.23 159.723L260.29 163.612L238.856 126.958Z" fill="#616161"/>
<path opacity="0.7" d="M211.608 121.047L215.187 121.685L254.089 188.196L253.149 192.085L211.608 121.047Z" fill="#616161"/>
<path opacity="0.7" d="M220.688 123.016L224.276 123.656L256.469 178.708L255.531 182.587L220.688 123.016Z" fill="#616161"/>
<path opacity="0.7" d="M177.995 193.815L176.195 193.494L176.664 191.555L177.995 193.815Z" fill="#616161"/>
<path opacity="0.7" d="M202.522 119.075L206.11 119.715L251.713 197.684L250.772 201.572L202.522 119.075Z" fill="#616161"/>
<path opacity="0.7" d="M247.932 128.927L251.52 129.567L263.609 150.225L262.669 154.114L247.932 128.927Z" fill="#616161"/>
<path opacity="0.7" d="M265.99 140.738L265.049 144.627L257.022 130.899L260.61 131.539L265.99 140.738Z" fill="#616161"/>
<path opacity="0.7" d="M180.484 176.458L181.424 172.57L196.161 197.756L192.573 197.117L180.484 176.458Z" fill="#616161"/>
<path opacity="0.7" d="M178.105 185.946L179.043 182.067L187.073 195.785L183.485 195.145L178.105 185.946Z" fill="#616161"/>
<path opacity="0.7" d="M182.865 166.961L183.803 163.082L205.24 199.726L201.651 199.086L182.865 166.961Z" fill="#616161"/>
<path opacity="0.7" d="M266.098 132.869L267.897 133.189L267.428 135.129L266.098 132.869Z" fill="#616161"/>
<path opacity="0.7" d="M185.244 157.473L186.184 153.584L214.318 201.696L210.73 201.056L185.244 157.473Z" fill="#616161"/>
<path opacity="0.7" d="M187.625 147.975L188.563 144.097L223.406 203.667L219.818 203.028L187.625 147.975Z" fill="#616161"/>
<path opacity="0.7" d="M248.853 209.188L247.063 208.869L194.763 119.433L195.232 117.494L197.022 117.813L249.331 207.251L248.862 209.19L248.853 209.188Z" fill="#616161"/>
<path opacity="0.7" d="M192.382 129L193.322 125.111L241.563 207.607L237.984 206.969L192.382 129Z" fill="#616161"/>
<path opacity="0.7" d="M190.004 138.488L190.944 134.599L232.485 205.637L228.896 204.997L190.004 138.488Z" fill="#616161"/>
</g>
<g opacity="0.7">
<path opacity="0.7" d="M62.1409 169.391L65.7199 170.029L91.2129 213.623L90.2752 217.502L62.1409 169.391Z" fill="#616161"/>
<path opacity="0.7" d="M71.2192 171.361L74.8076 172L93.5937 204.126L92.6535 208.015L71.2192 171.361Z" fill="#616161"/>
<path opacity="0.7" d="M43.975 165.45L47.554 166.088L86.4562 232.599L85.516 236.488L43.975 165.45Z" fill="#616161"/>
<path opacity="0.7" d="M53.0533 167.419L56.6417 168.059L88.8346 223.111L87.8944 227L53.0533 167.419Z" fill="#616161"/>
<path opacity="0.7" d="M10.3575 238.228L8.55859 237.907L9.02991 235.958L10.3575 238.228Z" fill="#616161"/>
<path opacity="0.7" d="M34.8874 163.478L38.4757 164.118L84.0755 242.096L83.1353 245.985L34.8874 163.478Z" fill="#616161"/>
<path opacity="0.7" d="M80.2976 173.33L83.8859 173.97L95.9721 194.638L95.0319 198.527L80.2976 173.33Z" fill="#616161"/>
<path opacity="0.7" d="M98.3529 185.14L97.4127 189.029L89.3852 175.302L92.9735 175.941L98.3529 185.14Z" fill="#616161"/>
<path opacity="0.7" d="M12.8495 220.861L13.7897 216.972L28.5144 242.167L24.9355 241.529L12.8495 220.861Z" fill="#616161"/>
<path opacity="0.7" d="M10.4684 230.359L11.4086 226.47L19.4361 240.197L15.8477 239.558L10.4684 230.359Z" fill="#616161"/>
<path opacity="0.7" d="M15.2283 211.374L16.1685 207.485L37.6028 244.139L34.0144 243.499L15.2283 211.374Z" fill="#616161"/>
<path opacity="0.7" d="M98.465 177.271L100.264 177.592L99.7953 179.532L98.465 177.271Z" fill="#616161"/>
<path opacity="0.7" d="M17.607 201.886L18.5472 197.997L46.6814 246.108L43.093 245.468L17.607 201.886Z" fill="#616161"/>
<path opacity="0.7" d="M19.9881 192.388L20.9283 188.499L55.7694 248.08L52.1811 247.44L19.9881 192.388Z" fill="#616161"/>
<path opacity="0.7" d="M81.2159 253.601L79.4263 253.282L27.1291 163.836L27.598 161.896L29.3875 162.215L81.6965 251.653L81.2252 253.603L81.2159 253.601Z" fill="#616161"/>
<path opacity="0.7" d="M24.7479 173.403L25.6881 169.514L73.9264 252.019L70.3474 251.381L24.7479 173.403Z" fill="#616161"/>
<path opacity="0.7" d="M22.3693 182.89L23.307 179.012L64.8481 250.05L61.2597 249.41L22.3693 182.89Z" fill="#616161"/>
</g>
<g opacity="0.7">
<path opacity="0.7" d="M138.075 185.154L141.663 185.794L167.146 229.387L166.209 233.265L138.075 185.154Z" fill="#616161"/>
<path opacity="0.7" d="M147.153 187.124L150.741 187.763L169.527 219.889L168.587 223.778L147.153 187.124Z" fill="#616161"/>
<path opacity="0.7" d="M119.905 181.213L123.493 181.852L162.386 248.362L161.446 252.251L119.905 181.213Z" fill="#616161"/>
<path opacity="0.7" d="M128.987 183.182L132.575 183.822L164.768 238.874L163.828 242.763L128.987 183.182Z" fill="#616161"/>
<path opacity="0.7" d="M86.2892 253.991L84.5 253.672L84.9712 251.723L86.2892 253.991Z" fill="#616161"/>
<path opacity="0.7" d="M110.829 179.243L114.408 179.881L160.007 257.859L159.067 261.748L110.829 179.243Z" fill="#616161"/>
<path opacity="0.7" d="M156.239 189.095L159.827 189.735L171.904 210.401L170.964 214.29L156.239 189.095Z" fill="#616161"/>
<path opacity="0.7" d="M174.286 200.904L173.346 204.792L165.319 191.065L168.907 191.705L174.286 200.904Z" fill="#616161"/>
<path opacity="0.7" d="M88.7909 236.626L89.7311 232.738L104.456 257.932L100.868 257.292L88.7909 236.626Z" fill="#616161"/>
<path opacity="0.7" d="M86.4098 246.124L87.3499 242.235L95.3678 255.96L91.7796 255.321L86.4098 246.124Z" fill="#616161"/>
<path opacity="0.7" d="M91.1696 227.139L92.1098 223.25L113.534 259.902L109.946 259.262L91.1696 227.139Z" fill="#616161"/>
<path opacity="0.7" d="M174.406 193.037L176.196 193.356L175.727 195.295L174.406 193.037Z" fill="#616161"/>
<path opacity="0.7" d="M93.5483 217.651L94.4885 213.762L122.613 261.871L119.034 261.233L93.5483 217.651Z" fill="#616161"/>
<path opacity="0.7" d="M95.9294 208.153L96.8696 204.264L131.701 263.843L128.113 263.203L95.9294 208.153Z" fill="#616161"/>
<path opacity="0.7" d="M157.157 269.366L155.367 269.047L103.07 179.601L103.539 177.662L105.329 177.981L157.628 267.416L157.157 269.366Z" fill="#616161"/>
<path opacity="0.7" d="M100.689 189.168L101.629 185.279L149.868 267.784L146.279 267.145L100.689 189.168Z" fill="#616161"/>
<path opacity="0.7" d="M98.3107 198.656L99.2484 194.777L140.789 265.815L137.201 265.175L98.3107 198.656Z" fill="#616161"/>
</g>
<g opacity="0.7">
<path opacity="0.7" d="M214.012 200.919L217.591 201.557L243.084 245.152L242.146 249.031L214.012 200.919Z" fill="#616161"/>
<path opacity="0.7" d="M223.09 202.889L226.679 203.529L245.465 235.654L244.525 239.543L223.09 202.889Z" fill="#616161"/>
<path opacity="0.7" d="M195.846 196.978L199.425 197.616L238.327 264.127L237.387 268.016L195.846 196.978Z" fill="#616161"/>
<path opacity="0.7" d="M204.924 198.947L208.513 199.587L240.706 254.639L239.766 258.528L204.924 198.947Z" fill="#616161"/>
<path opacity="0.7" d="M162.229 269.756L160.43 269.435L160.901 267.486L162.229 269.756Z" fill="#616161"/>
<path opacity="0.7" d="M186.758 195.006L190.347 195.646L235.947 273.624L235.006 277.513L186.758 195.006Z" fill="#616161"/>
<path opacity="0.7" d="M232.169 204.858L235.757 205.498L247.843 226.166L246.903 230.055L232.169 204.858Z" fill="#616161"/>
<path opacity="0.7" d="M250.224 216.669L249.284 220.558L241.256 206.83L244.845 207.47L250.224 216.669Z" fill="#616161"/>
<path opacity="0.7" d="M164.721 252.389L165.661 248.5L180.395 273.697L176.807 273.058L164.721 252.389Z" fill="#616161"/>
<path opacity="0.7" d="M162.34 261.887L163.28 257.998L171.307 271.726L167.719 271.086L162.34 261.887Z" fill="#616161"/>
<path opacity="0.7" d="M167.099 242.902L168.04 239.013L189.474 275.667L185.885 275.027L167.099 242.902Z" fill="#616161"/>
<path opacity="0.7" d="M250.336 208.8L252.135 209.12L251.666 211.06L250.336 208.8Z" fill="#616161"/>
<path opacity="0.7" d="M169.478 233.414L170.418 229.525L198.552 277.636L194.964 276.997L169.478 233.414Z" fill="#616161"/>
<path opacity="0.7" d="M171.859 223.916L172.799 220.028L207.641 279.608L204.052 278.968L171.859 223.916Z" fill="#616161"/>
<path opacity="0.7" d="M233.087 285.129L231.297 284.81L179 195.364L179.469 193.425L181.259 193.744L233.568 283.181L233.096 285.131L233.087 285.129Z" fill="#616161"/>
<path opacity="0.7" d="M176.619 204.931L177.559 201.042L225.797 283.547L222.218 282.909L176.619 204.931Z" fill="#616161"/>
<path opacity="0.7" d="M174.24 214.419L175.178 210.54L216.719 281.578L213.131 280.938L174.24 214.419Z" fill="#616161"/>
</g>
</g>
</mask>
<g mask="url(#mask0_2229_1913)">
<path d="M122.358 233.966L92.7717 80.6458L240.344 131.684L122.358 233.966Z" fill="#FFBCBC"/>
</g>
</svg>
