<svg width="95" height="52" viewBox="0 0 95 52" fill="none" xmlns="http://www.w3.org/2000/svg">
<path d="M0.50061 33.0811C0.50061 34.2749 1.46845 35.2427 2.66242 35.2427C3.85639 35.2427 4.82422 34.2749 4.82422 33.0811C4.82422 31.8873 3.85638 30.9194 2.66242 30.9194C1.46846 30.9194 0.50061 31.8873 0.50061 33.0811Z" fill="#E7EAF3" stroke="white"/>
<path d="M0.50061 49.0508C0.50061 50.2446 1.46846 51.2125 2.66242 51.2125C3.85638 51.2125 4.82422 50.2446 4.82422 49.0508C4.82422 47.857 3.85638 46.8892 2.66242 46.8892C1.46846 46.8892 0.50061 47.857 0.50061 49.0508Z" fill="#E7EAF3" stroke="white"/>
<path d="M18.3717 33.0811C18.3717 34.2749 19.3395 35.2427 20.5335 35.2427C21.7275 35.2427 22.6953 34.2749 22.6953 33.0811C22.6953 31.8873 21.7275 30.9194 20.5335 30.9194C19.3395 30.9194 18.3717 31.8873 18.3717 33.0811Z" fill="#E7EAF3" stroke="white"/>
<path d="M18.3717 49.0508C18.3717 50.2446 19.3395 51.2125 20.5335 51.2125C21.7275 51.2125 22.6953 50.2446 22.6953 49.0508C22.6953 47.857 21.7275 46.8892 20.5335 46.8892C19.3395 46.8892 18.3717 47.857 18.3717 49.0508Z" fill="#E7EAF3" stroke="white"/>
<path d="M36.2428 33.0811C36.2428 34.2749 37.2106 35.2427 38.4046 35.2427C39.5986 35.2427 40.5664 34.2749 40.5664 33.0811C40.5664 31.8873 39.5986 30.9194 38.4046 30.9194C37.2106 30.9194 36.2428 31.8873 36.2428 33.0811Z" fill="#E7EAF3" stroke="white"/>
<path d="M36.2428 49.0508C36.2428 50.2446 37.2106 51.2125 38.4046 51.2125C39.5986 51.2125 40.5664 50.2446 40.5664 49.0508C40.5664 47.857 39.5986 46.8892 38.4046 46.8892C37.2106 46.8892 36.2428 47.857 36.2428 49.0508Z" fill="#E7EAF3" stroke="white"/>
<path d="M54.1139 33.0811C54.1139 34.2749 55.0817 35.2427 56.2757 35.2427C57.4697 35.2427 58.4375 34.2749 58.4375 33.0811C58.4375 31.8873 57.4697 30.9194 56.2757 30.9194C55.0817 30.9194 54.1139 31.8873 54.1139 33.0811Z" fill="#E7EAF3" stroke="white"/>
<path d="M71.9889 33.0811C71.9889 34.2749 72.9567 35.2427 74.1507 35.2427C75.3447 35.2427 76.3125 34.2749 76.3125 33.0811C76.3125 31.8873 75.3447 30.9194 74.1507 30.9194C72.9567 30.9194 71.9889 31.8873 71.9889 33.0811Z" fill="#E7EAF3" stroke="white"/>
<path d="M71.9889 49.0508C71.9889 50.2446 72.9567 51.2125 74.1507 51.2125C75.3447 51.2125 76.3125 50.2446 76.3125 49.0508C76.3125 47.857 75.3447 46.8892 74.1507 46.8892C72.9567 46.8892 71.9889 47.857 71.9889 49.0508Z" fill="#E7EAF3" stroke="white"/>
<path d="M71.9889 2.66171C71.9889 3.85554 72.9567 4.82336 74.1507 4.82336C75.3447 4.82336 76.3125 3.85554 76.3125 2.66171C76.3125 1.46787 75.3446 0.5 74.1507 0.5C72.9568 0.5 71.9889 1.46787 71.9889 2.66171Z" fill="#E7EAF3" stroke="white"/>
<path d="M71.9889 18.6319C71.9889 19.8257 72.9567 20.7936 74.1507 20.7936C75.3446 20.7936 76.3125 19.8257 76.3125 18.6319C76.3125 17.438 75.3446 16.4702 74.1507 16.4702C72.9567 16.4702 71.9889 17.438 71.9889 18.6319Z" fill="#E7EAF3" stroke="white"/>
<path d="M54.1139 2.66171C54.1139 3.85554 55.0817 4.82336 56.2757 4.82336C57.4697 4.82336 58.4375 3.85554 58.4375 2.66171C58.4375 1.46787 57.4696 0.5 56.2757 0.5C55.0818 0.5 54.1139 1.46787 54.1139 2.66171Z" fill="#E7EAF3" stroke="white"/>
<path d="M54.1139 18.6319C54.1139 19.8257 55.0817 20.7936 56.2757 20.7936C57.4696 20.7936 58.4375 19.8257 58.4375 18.6319C58.4375 17.438 57.4696 16.4702 56.2757 16.4702C55.0817 16.4702 54.1139 17.438 54.1139 18.6319Z" fill="#E7EAF3" stroke="white"/>
<path d="M36.2428 18.6319C36.2428 19.8257 37.2106 20.7936 38.4046 20.7936C39.5986 20.7936 40.5664 19.8257 40.5664 18.6319C40.5664 17.438 39.5986 16.4702 38.4046 16.4702C37.2106 16.4702 36.2428 17.438 36.2428 18.6319Z" fill="#E7EAF3" stroke="white"/>
<path d="M89.86 49.0508C89.86 50.2446 90.8279 51.2125 92.0218 51.2125C93.2158 51.2125 94.1836 50.2446 94.1836 49.0508C94.1836 47.857 93.2158 46.8892 92.0218 46.8892C90.8279 46.8892 89.86 47.857 89.86 49.0508Z" fill="#E7EAF3" stroke="white"/>
</svg>
