<svg width="120" height="120" viewBox="0 0 120 120" fill="none" xmlns="http://www.w3.org/2000/svg">
<path d="M22.4739 13.8641C22.9639 13.4641 23.4639 13.0841 23.9639 12.7041L107.254 95.9941C106.874 96.4941 106.484 96.9941 106.094 97.4841L22.4739 13.8641Z" fill="white"/>
<path d="M42.8255 3.16424C43.5155 2.96424 44.2155 2.77424 44.9055 2.59424L117.355 75.0442C117.175 75.7442 116.985 76.4342 116.785 77.1242L42.8255 3.16424Z" fill="white"/>
<path d="M28.5233 9.56422C29.0733 9.22422 29.6333 8.89422 30.1833 8.57422L111.363 89.7542C111.043 90.3142 110.713 90.8642 110.373 91.4142L28.5233 9.56422Z" fill="white"/>
<path d="M35.2834 5.97408C35.8934 5.69408 36.5135 5.42407 37.1335 5.17407L114.773 82.8141C114.513 83.4341 114.253 84.0541 113.973 84.6641L35.2834 5.97408Z" fill="white"/>
<path d="M51.3136 1.31417C52.1036 1.20417 52.8936 1.10417 53.6836 1.02417L118.934 66.2742C118.854 67.0642 118.754 67.8542 118.644 68.6442L51.3136 1.31417Z" fill="white"/>
<path d="M17.7227 18.1341C17.9427 17.9141 18.1726 17.6941 18.3926 17.4841L102.473 101.564C102.253 101.784 102.043 102.014 101.823 102.234C101.603 102.454 101.373 102.674 101.153 102.884L17.0727 18.8041C17.2827 18.5741 17.5027 18.3541 17.7227 18.1341Z" fill="white"/>
<path d="M61.0744 0.724121C62.0044 0.744121 62.9244 0.784118 63.8544 0.854118L119.104 56.1041C119.164 57.0341 119.214 57.9541 119.234 58.8841L61.0744 0.724121Z" fill="white"/>
<path d="M117.785 47.0941L72.8552 2.16406C74.0552 2.43406 75.2451 2.74406 76.4251 3.08406L116.865 43.5241C117.215 44.7041 117.515 45.8941 117.785 47.0941Z" fill="white"/>
<path d="M0.444855 64.2641C0.384853 63.3341 0.33485 62.4141 0.31485 61.4841L58.4648 119.634C57.5348 119.614 56.6148 119.574 55.6848 119.504L0.444855 64.2641Z" fill="white"/>
<path d="M0.62439 54.0841C0.704391 53.2941 0.804398 52.5041 0.914398 51.7141L68.2344 119.034C67.4444 119.144 66.6544 119.244 65.8644 119.324L0.62439 54.0841Z" fill="white"/>
<path d="M89.9756 8.93408C94.2056 11.4341 98.1856 14.4941 101.826 18.1241C105.456 21.7541 108.526 25.7441 111.016 29.9741L89.9756 8.93408Z" fill="white"/>
<path d="M2.67358 76.8342C2.33358 75.6542 2.0236 74.4642 1.7536 73.2642L46.6836 118.194C45.4836 117.924 44.2936 117.614 43.1136 117.274L2.67358 76.8342Z" fill="white"/>
<path d="M29.5625 111.424C25.3325 108.924 21.3525 105.864 17.7125 102.234C14.0825 98.604 11.0125 94.614 8.52249 90.384L29.5625 111.424Z" fill="white"/>
<path d="M8.1756 30.5941C8.4956 30.0341 8.82562 29.4841 9.16562 28.9341L91.0156 110.784C90.4656 111.124 89.9056 111.454 89.3556 111.774L8.1756 30.5941Z" fill="white"/>
<path d="M12.2942 24.374C12.6742 23.874 13.0642 23.374 13.4542 22.884L97.0742 106.504C96.5842 106.904 96.0842 107.284 95.5842 107.664L12.2942 24.374Z" fill="white"/>
<path d="M2.19266 45.3041C2.37266 44.6041 2.56267 43.9141 2.76266 43.2241L76.7227 117.184C76.0327 117.384 75.3426 117.574 74.6426 117.754L2.19266 45.3041Z" fill="white"/>
<path d="M4.76392 37.5441C5.02392 36.9241 5.28391 36.3041 5.5639 35.6941L84.2539 114.384C83.6439 114.664 83.0239 114.924 82.4039 115.184L4.76392 37.5441Z" fill="white"/>
</svg>
