<svg width="603" height="202" viewBox="0 0 603 202" fill="none" xmlns="http://www.w3.org/2000/svg">
<path d="M284.542 186.561C284.06 186.612 283.615 186.839 283.291 187.199C282.967 187.559 282.787 188.026 282.787 188.511C282.787 188.995 282.967 189.462 283.291 189.823C283.615 190.183 284.06 190.41 284.542 190.461C285.024 190.41 285.47 190.183 285.794 189.823C286.118 189.462 286.297 188.995 286.297 188.511C286.297 188.026 286.118 187.559 285.794 187.199C285.47 186.839 285.024 186.612 284.542 186.561Z" fill="#868686"/>
<path d="M391.99 171.983C391.476 171.983 390.983 172.187 390.619 172.551C390.255 172.914 390.051 173.408 390.051 173.922C390.051 174.436 390.255 174.93 390.619 175.293C390.983 175.657 391.476 175.861 391.99 175.861C392.505 175.861 392.998 175.657 393.362 175.293C393.725 174.93 393.93 174.436 393.93 173.922C393.93 173.408 393.725 172.914 393.362 172.551C392.998 172.187 392.505 171.983 391.99 171.983Z" fill="#868686"/>
<path d="M235.819 151.587C235.455 151.587 235.105 151.731 234.848 151.989C234.59 152.246 234.446 152.595 234.446 152.96C234.446 153.324 234.59 153.673 234.848 153.93C235.105 154.188 235.455 154.332 235.819 154.332C236.183 154.332 236.532 154.188 236.789 153.93C237.047 153.673 237.191 153.324 237.191 152.96C237.191 152.595 237.047 152.246 236.789 151.989C236.532 151.731 236.183 151.587 235.819 151.587Z" fill="#868686"/>
<path d="M46.4084 -1.53577C46.0443 -1.53577 45.6951 -1.39116 45.4377 -1.13371C45.1802 -0.876259 45.0356 -0.52704 45.0356 -0.162949C45.0356 0.201142 45.1802 0.550294 45.4377 0.807746C45.6951 1.0652 46.0443 1.20987 46.4084 1.20987C46.7725 1.20987 47.1217 1.0652 47.3791 0.807746C47.6366 0.550294 47.7812 0.201142 47.7812 -0.162949C47.7812 -0.52704 47.6366 -0.876259 47.3791 -1.13371C47.1217 -1.39116 46.7725 -1.53577 46.4084 -1.53577Z" fill="#868686"/>
<path d="M547.808 65.6228C547.326 65.6738 546.88 65.9012 546.556 66.2613C546.232 66.6214 546.053 67.0886 546.053 67.573C546.053 68.0574 546.232 68.5247 546.556 68.8847C546.88 69.2448 547.326 69.4723 547.808 69.5233C548.289 69.4723 548.735 69.2448 549.059 68.8847C549.383 68.5247 549.562 68.0574 549.562 67.573C549.562 67.0886 549.383 66.6214 549.059 66.2613C548.735 65.9012 548.289 65.6738 547.808 65.6228Z" fill="#868686"/>
<path d="M600.48 162.155C599.998 162.206 599.552 162.434 599.228 162.794C598.904 163.154 598.725 163.621 598.725 164.105C598.725 164.59 598.904 165.057 599.228 165.417C599.552 165.777 599.998 166.005 600.48 166.056C600.961 166.005 601.407 165.777 601.731 165.417C602.055 165.057 602.234 164.59 602.234 164.105C602.234 163.621 602.055 163.154 601.731 162.794C601.407 162.434 600.961 162.206 600.48 162.155Z" fill="#868686"/>
<path d="M133.725 149.255C133.361 149.255 133.012 149.4 132.754 149.657C132.497 149.915 132.352 150.264 132.352 150.628C132.352 150.992 132.497 151.341 132.754 151.599C133.012 151.856 133.361 152.001 133.725 152.001C134.089 152.001 134.438 151.856 134.696 151.599C134.953 151.341 135.098 150.992 135.098 150.628C135.098 150.264 134.953 149.915 134.696 149.657C134.438 149.4 134.089 149.255 133.725 149.255Z" fill="#868686"/>
<path d="M46.8898 76.9103C46.4081 76.9613 45.9623 77.1888 45.6383 77.5489C45.3143 77.909 45.1351 78.3762 45.1351 78.8606C45.1351 79.345 45.3143 79.8123 45.6383 80.1723C45.9623 80.5324 46.4081 80.7599 46.8898 80.8109C47.3715 80.7599 47.8173 80.5324 48.1413 80.1723C48.4652 79.8123 48.6445 79.345 48.6445 78.8606C48.6445 78.3762 48.4652 77.909 48.1413 77.5489C47.8173 77.1888 47.3715 76.9613 46.8898 76.9103Z" fill="#868686"/>
</svg>
