<svg width="143" height="113" viewBox="0 0 143 113" fill="none" xmlns="http://www.w3.org/2000/svg">
<path d="M69.9408 99.235C93.4902 99.235 112.581 80.1444 112.581 56.595C112.581 33.0455 93.4902 13.955 69.9408 13.955C46.3914 13.955 27.3008 33.0455 27.3008 56.595C27.3008 80.1444 46.3914 99.235 69.9408 99.235Z" fill="#FCE7E9"/>
<path d="M57.4405 76.8649C61.2844 76.8649 64.4005 73.7488 64.4005 69.9049C64.4005 66.061 61.2844 62.9449 57.4405 62.9449C53.5966 62.9449 50.4805 66.061 50.4805 69.9049C50.4805 73.7488 53.5966 76.8649 57.4405 76.8649Z" fill="white"/>
<path d="M54.5309 49.835C54.5211 50.6239 54.2781 51.3923 53.8327 52.0435C53.3872 52.6947 52.7591 53.1995 52.0273 53.4946C51.2956 53.7897 50.493 53.8619 49.7204 53.7019C48.9478 53.542 48.2397 53.1571 47.6853 52.5958C47.1309 52.0344 46.7549 51.3217 46.6045 50.5471C46.4542 49.7726 46.5363 48.9709 46.8404 48.2429C47.1446 47.5149 47.6573 46.8931 48.3139 46.4558C48.9706 46.0184 49.742 45.785 50.5309 45.785C51.0605 45.7849 51.5847 45.89 52.0733 46.0942C52.5619 46.2983 53.0051 46.5974 53.3772 46.9742C53.7493 47.3509 54.0429 47.7978 54.2409 48.2889C54.439 48.78 54.5376 49.3055 54.5309 49.835Z" fill="white"/>
<path d="M28.5713 66.965C28.7613 67.705 -7.92874 102.905 1.57126 110.405C11.0713 117.905 50.8113 98.665 84.7213 71.275C118.631 43.885 149.621 10.615 141.141 1.81495C132.661 -6.98505 90.2813 19.0749 90.2813 19.0749L95.3413 22.305C95.3413 22.305 120.971 5.86496 129.071 12.245C137.171 18.625 114.071 43.555 81.4613 67.355C48.8513 91.155 17.3413 107.875 12.4613 101.355C7.58126 94.8349 30.6513 73.0749 30.6513 73.0749L28.5713 66.965Z" fill="#FCE7E9"/>
</svg>
