<svg width="99" height="83" viewBox="0 0 99 83" fill="none" xmlns="http://www.w3.org/2000/svg">
<path d="M48.3191 4.92896L49.8312 7.97893L53.2065 8.46813L50.7628 10.8416L51.341 14.1936L48.3191 12.6112L45.2995 14.1936L45.8754 10.8416L43.4316 8.46813L46.8093 7.97893L48.3191 4.92896Z" fill="#C6C6C6"/>
<path d="M48.2365 62.2651L48.0703 16.4501C48.0703 16.4501 56.7872 15.8087 59.9308 0.179688C59.9308 0.179688 60.6236 18.8048 60.5698 20.3029C60.516 21.8033 48.2365 62.2651 48.2365 62.2651Z" fill="#C6C6C6"/>
<path d="M47.1228 21.3118C47.1228 21.3118 41.6478 20.1391 37.8652 4.5498C37.8652 4.5498 38.3825 23.7391 38.4153 25.2863C38.4481 26.8312 47.7384 62.5296 47.7384 62.5296L47.1228 21.3118Z" fill="#C6C6C6"/>
<path d="M56.3471 64.8678L47.7005 66.8855L39.6133 64.8678L42.3847 60.5164H53.4657L56.3471 64.8678Z" fill="#C6C6C6"/>
<path d="M35.6419 80.0542C36.7069 79.1764 37.9171 78.5257 39.1553 78.0155C39.6164 77.8259 40.0893 77.6526 40.5715 77.5005C39.3051 76.8287 38.3805 75.8222 37.4302 74.7291C37.0768 74.4154 34.4434 71.2227 34.4715 71.2203C36.11 70.8552 37.5402 70.5626 39.2232 70.8575C40.2765 71.0377 41.1707 71.4591 42.0789 72.0279C42.8256 72.4937 43.577 73.0578 44.4337 73.643C45.0212 74.0432 45.6345 74.4411 46.3039 74.6518C46.971 74.8625 47.7107 74.8672 48.3076 74.495C48.3825 74.4482 48.4621 74.3943 48.5487 74.4201C48.6212 74.4411 48.6797 74.516 48.7242 74.5933C49.5552 76.0141 48.6844 78.823 47.8816 79.6844C45.7328 82.093 43.5793 83.1791 40.4778 82.8959C37.7579 82.6103 36.0305 82.5167 33.4884 82.9989C33.2497 83.0457 34.1766 81.5617 34.2468 81.4657C34.6798 80.9484 35.1316 80.4755 35.6419 80.0542Z" fill="#C6C6C6"/>
<path d="M23.075 74.8861C24.2126 74.4296 25.4251 74.219 26.6259 74.137C27.0729 74.1066 27.5247 74.0972 27.9811 74.1043C27.0378 73.1422 26.462 71.9836 25.8839 70.736C25.6521 70.3568 24.0628 66.738 24.0862 66.7427C25.624 66.9253 26.9559 67.1055 28.365 67.8756C29.2475 68.3531 29.931 68.9921 30.5864 69.7599C31.1247 70.3895 31.6444 71.1058 32.2436 71.8689C32.6556 72.3909 33.0886 72.9175 33.6129 73.2944C34.1349 73.6712 34.7669 73.8889 35.3638 73.7391C35.4387 73.7204 35.5206 73.697 35.5885 73.7438C35.647 73.7836 35.6775 73.8655 35.6962 73.9451C36.0637 75.4151 34.6569 77.6083 33.7674 78.1303C31.3588 79.6143 29.2568 79.9538 26.6329 78.8045C24.339 77.7628 22.8479 77.1683 20.5049 76.8382C20.2825 76.8078 21.4412 75.7755 21.5254 75.7123C22.024 75.387 22.5296 75.1061 23.075 74.8861Z" fill="#C6C6C6"/>
<path d="M13.1253 66.4663C14.2372 66.4148 15.3654 66.6044 16.4515 66.9064C16.8565 67.0188 17.2614 67.1498 17.6664 67.2973C17.0437 66.1503 16.7886 64.9378 16.5475 63.6387C16.4258 63.2315 15.7985 59.484 15.8148 59.491C17.1491 60.1464 18.3077 60.7339 19.3985 61.8668C20.082 62.5737 20.5501 63.3555 20.9621 64.245C21.3015 64.973 21.6011 65.7712 21.9616 66.6325C22.2074 67.2224 22.4719 67.8216 22.8511 68.3155C23.2279 68.8094 23.7359 69.1933 24.2976 69.2424C24.3679 69.2495 24.4451 69.2518 24.4943 69.315C24.5364 69.3665 24.5458 69.4484 24.5434 69.5257C24.527 70.9325 22.7785 72.4399 21.875 72.6342C19.4102 73.217 17.4768 72.887 15.4099 71.0612C13.6099 69.432 12.4161 68.4372 10.4101 67.4096C10.2205 67.3137 11.4751 66.7519 11.5641 66.7215C12.079 66.5834 12.5917 66.4897 13.1253 66.4663Z" fill="#C6C6C6"/>
<path d="M6.13948 55.699C7.1296 56.015 8.08228 56.5534 8.97878 57.1784C9.31116 57.4101 9.64354 57.6606 9.97125 57.9251C9.66461 56.6845 9.70206 55.5024 9.7676 54.2431C9.74888 53.8358 9.99465 50.2077 10.0087 50.2171C11.0456 51.261 11.9445 52.1786 12.6748 53.5666C13.1336 54.4327 13.384 55.2941 13.5619 56.2327C13.7094 57.0005 13.8054 57.8197 13.9411 58.7092C14.0348 59.3201 14.1401 59.9428 14.3695 60.5069C14.5989 61.071 14.9664 61.5766 15.4579 61.799C15.5188 61.8271 15.5867 61.8551 15.6171 61.9254C15.6428 61.9862 15.6335 62.0611 15.6147 62.129C15.2894 63.3836 13.4004 64.1818 12.5531 64.0695C10.2311 63.8143 8.59022 62.9085 7.15769 60.5982C5.92179 58.5477 5.08381 57.2603 3.55298 55.671C3.40785 55.5211 4.62971 55.4205 4.71397 55.4205C5.19382 55.465 5.66431 55.5492 6.13948 55.699Z" fill="#C6C6C6"/>
<path d="M2.46811 43.4851C3.23587 44.1101 3.92873 44.9294 4.56072 45.8095C4.7948 46.1372 5.02653 46.4789 5.2489 46.8324C5.25826 45.5848 5.55553 44.501 5.8926 43.3494C5.96516 42.9678 6.99976 39.6557 7.01381 39.6651C7.65049 40.9969 8.21694 42.1626 8.5423 43.6981C8.74829 44.6578 8.77871 45.5426 8.72956 46.4672C8.68976 47.2256 8.59848 48.0121 8.52592 48.8758C8.47676 49.468 8.43463 50.0743 8.51421 50.6688C8.5938 51.261 8.80915 51.8462 9.19537 52.209C9.24452 52.2535 9.29836 52.3026 9.31006 52.3776C9.31942 52.4407 9.29601 52.5063 9.26559 52.5625C8.71083 53.5994 6.87336 53.7071 6.1571 53.3279C4.17919 52.3331 2.94797 50.9661 2.2317 48.3632C1.6278 46.0623 1.20646 44.5853 0.286555 42.5933C0.197608 42.4061 1.25562 42.7197 1.32584 42.7501C1.72142 42.9514 2.10062 43.1855 2.46811 43.4851Z" fill="#C6C6C6"/>
<path d="M2.46277 30.7143C2.91219 31.5733 3.25628 32.5915 3.54887 33.6449C3.65654 34.0358 3.75953 34.4384 3.85316 34.8504C4.17852 33.6683 4.70284 32.732 5.28334 31.7465C5.43783 31.4118 7.17933 28.5655 7.19338 28.5725C7.33382 30.08 7.48597 31.4001 7.36425 32.9848C7.28935 33.9749 7.09741 34.8293 6.83291 35.6907C6.61522 36.3976 6.35072 37.1115 6.08387 37.9027C5.9013 38.4434 5.7234 39.0028 5.65318 39.5856C5.58296 40.1685 5.62977 40.7888 5.87321 41.2593C5.90364 41.3178 5.93875 41.381 5.93173 41.4559C5.92471 41.5191 5.88959 41.5729 5.8498 41.6127C5.14056 42.3945 3.55121 41.8749 3.03625 41.2803C1.59904 39.6816 0.899161 37.9893 0.976405 35.2834C1.07472 32.8982 1.12855 31.3463 0.95534 29.1249C0.938955 28.9143 1.69735 29.572 1.74651 29.6258C2.00633 29.9512 2.24742 30.3047 2.46277 30.7143Z" fill="#C6C6C6"/>
<path d="M6.47314 18.2709C6.50591 19.268 6.41696 20.3869 6.29056 21.5198C6.24375 21.9411 6.18992 22.3718 6.1314 22.8072C6.77042 21.7539 7.4937 21.0049 8.28253 20.216C8.50958 19.9422 10.8737 17.6623 10.8901 17.667C10.4383 19.2283 10.0966 20.5976 9.48098 22.1308C9.09944 23.0881 8.68045 23.8676 8.20528 24.626C7.81672 25.2486 7.39305 25.8595 6.94831 26.5383C6.64401 27.0041 6.33972 27.4887 6.11735 28.0317C5.89498 28.5748 5.75688 29.1904 5.8271 29.7264C5.83646 29.7943 5.84582 29.8669 5.82008 29.9347C5.79901 29.9933 5.75454 30.0331 5.7124 30.0588C4.92358 30.5691 3.77896 29.5321 3.53552 28.7854C2.84033 26.7584 2.79118 24.8905 3.73683 22.2712C4.60524 19.9703 5.19511 18.4582 5.90435 16.204C5.97223 15.991 6.30226 16.8875 6.32333 16.9554C6.40292 17.365 6.45676 17.7934 6.47314 18.2709Z" fill="#C6C6C6"/>
<path d="M14.8519 7.02588C14.372 8.0441 13.7611 9.15361 13.1455 10.2608C12.9161 10.6727 12.682 11.0917 12.4433 11.5154C13.3936 10.6446 14.2854 10.0993 15.2545 9.52812C15.5448 9.32214 18.4496 7.66021 18.4707 7.66255C17.326 9.13955 16.4155 10.4504 15.2615 11.8361C14.5453 12.7021 13.8969 13.3693 13.2227 13.9942C12.6703 14.5069 12.0992 14.9937 11.493 15.5391C11.0763 15.9136 10.6573 16.3022 10.2781 16.7773C9.90126 17.2502 9.56653 17.8213 9.42375 18.3808C9.40502 18.451 9.38864 18.5282 9.34182 18.5867C9.30437 18.6382 9.25521 18.664 9.21308 18.6757C8.42191 18.9285 7.91398 17.5241 8.01463 16.7025C8.25806 14.4577 8.97901 12.5851 10.875 10.2444C12.5814 8.19859 13.7681 6.84331 15.4979 4.77411C15.6618 4.57748 15.4347 5.57697 15.416 5.65188C15.2615 6.08959 15.0813 6.53901 14.8519 7.02588Z" fill="#C6C6C6"/>
<path d="M62.798 80.0542C61.733 79.1764 60.5228 78.5257 59.2846 78.0155C58.8235 77.8259 58.3506 77.6526 57.8684 77.5005C59.1348 76.8287 60.0594 75.8222 61.0097 74.7291C61.3632 74.4154 63.9965 71.2227 63.9684 71.2203C62.3299 70.8552 60.8997 70.5626 59.2167 70.8575C58.1634 71.0377 57.2692 71.4591 56.361 72.0279C55.6143 72.4937 54.8629 73.0578 54.0062 73.643C53.4187 74.0432 52.8055 74.4411 52.136 74.6518C51.4689 74.8625 50.7292 74.8672 50.1323 74.495C50.0574 74.4482 49.9779 74.3943 49.8912 74.4201C49.8187 74.4411 49.7602 74.516 49.7157 74.5933C48.8847 76.0141 49.7555 78.823 50.5583 79.6844C52.7071 82.093 54.8606 83.1791 57.9621 82.8959C60.682 82.6103 62.4094 82.5167 64.9515 82.9989C65.1902 83.0457 64.2633 81.5617 64.1931 81.4657C63.7601 80.9484 63.3083 80.4755 62.798 80.0542Z" fill="#C6C6C6"/>
<path d="M75.3647 74.8861C74.2271 74.4296 73.0146 74.219 71.8138 74.137C71.3668 74.1066 70.915 74.0972 70.4586 74.1043C71.4019 73.1422 71.9777 71.9836 72.5559 70.736C72.7876 70.3568 74.3769 66.738 74.3535 66.7427C72.8157 66.9253 71.4838 67.1055 70.0747 67.8756C69.1922 68.3531 68.5087 68.9921 67.8533 69.7599C67.315 70.3895 66.7953 71.1058 66.1961 71.8689C65.7841 72.3909 65.3511 72.9175 64.8268 73.2944C64.3048 73.6712 63.6728 73.8889 63.0759 73.7391C63.001 73.7204 62.9191 73.697 62.8512 73.7438C62.7927 73.7836 62.7622 73.8655 62.7435 73.9451C62.376 75.4151 63.7828 77.6083 64.6723 78.1303C67.0809 79.6143 69.1829 79.9538 71.8068 78.8045C74.1007 77.7628 75.5918 77.1683 77.9348 76.8382C78.1572 76.8078 76.9986 75.7755 76.9143 75.7123C76.4157 75.387 75.9101 75.1061 75.3647 74.8861Z" fill="#C6C6C6"/>
<path d="M85.3149 66.4663C84.203 66.4148 83.0748 66.6044 81.9887 66.9064C81.5838 67.0188 81.1788 67.1498 80.7739 67.2973C81.3965 66.1503 81.6516 64.9378 81.8927 63.6387C82.0145 63.2315 82.6418 59.484 82.6254 59.491C81.2888 60.1464 80.1325 60.7339 79.0417 61.8668C78.3582 62.5737 77.8901 63.3555 77.4781 64.245C77.1387 64.973 76.8391 65.7712 76.4786 66.6325C76.2329 67.2224 75.9684 67.8216 75.5892 68.3155C75.2123 68.8094 74.7044 69.1933 74.1426 69.2424C74.0724 69.2495 73.9951 69.2518 73.946 69.315C73.9038 69.3665 73.8945 69.4484 73.8968 69.5257C73.9132 70.9325 75.6617 72.4399 76.5653 72.6342C79.03 73.217 80.9635 72.887 83.0303 71.0612C84.8304 69.432 86.0241 68.4372 88.0301 67.4096C88.2197 67.3137 86.9651 66.7519 86.8762 66.7215C86.3589 66.5834 85.8486 66.4897 85.3149 66.4663Z" fill="#C6C6C6"/>
<path d="M92.3 55.699C91.3099 56.015 90.3572 56.5534 89.4607 57.1784C89.1283 57.4101 88.796 57.6606 88.4683 57.9251C88.7749 56.6845 88.7374 55.5024 88.6719 54.2431C88.6906 53.8358 88.4449 50.2077 88.4308 50.2171C87.3962 51.261 86.495 52.1786 85.7647 53.5666C85.3059 54.4327 85.0555 55.2941 84.8776 56.2327C84.7301 57.0005 84.6341 57.8197 84.4984 58.7092C84.4048 59.3201 84.2994 59.9428 84.07 60.5069C83.8406 61.071 83.4731 61.5766 82.9816 61.799C82.9207 61.8271 82.8529 61.8551 82.8224 61.9254C82.7967 61.9862 82.806 62.0611 82.8248 62.129C83.1501 63.3836 85.0391 64.1818 85.8864 64.0695C88.2084 63.8143 89.8493 62.9085 91.2818 60.5982C92.5177 58.5477 93.3557 57.2603 94.8865 55.671C95.0317 55.5211 93.8098 55.4205 93.7255 55.4205C93.2434 55.465 92.7752 55.5492 92.3 55.699Z" fill="#C6C6C6"/>
<path d="M95.969 43.4851C95.2013 44.1101 94.5084 44.9294 93.8764 45.8095C93.6423 46.1372 93.4106 46.4789 93.1882 46.8324C93.1789 45.5848 92.8816 44.501 92.5445 43.3494C92.472 42.9678 91.4374 39.6557 91.4233 39.6651C90.7867 40.9969 90.2202 42.1626 89.8948 43.6981C89.6889 44.6578 89.6584 45.5426 89.7076 46.4672C89.7474 47.2256 89.8387 48.0121 89.9112 48.8758C89.9604 49.468 90.0025 50.0743 89.9229 50.6688C89.8433 51.261 89.628 51.8462 89.2418 52.209C89.1926 52.2535 89.1388 52.3026 89.1271 52.3776C89.1177 52.4407 89.1411 52.5063 89.1716 52.5625C89.7263 53.5994 91.5638 53.7071 92.28 53.3279C94.258 52.3331 95.4892 50.9661 96.2054 48.3632C96.8094 46.0623 97.2307 44.5853 98.1506 42.5933C98.2395 42.4061 97.1815 42.7197 97.1113 42.7501C96.7181 42.9514 96.3389 43.1855 95.969 43.4851Z" fill="#C6C6C6"/>
<path d="M95.9746 30.7143C95.5252 31.5733 95.1811 32.5915 94.8885 33.6449C94.7808 34.0358 94.6778 34.4384 94.5842 34.8504C94.2588 33.6683 93.7345 32.732 93.154 31.7465C92.9995 31.4118 91.258 28.5655 91.244 28.5725C91.1012 30.08 90.9491 31.4001 91.0731 32.9848C91.148 33.9749 91.3399 34.8293 91.6045 35.6907C91.8221 36.3976 92.0866 37.1115 92.3535 37.9027C92.5361 38.4434 92.714 39.0028 92.7842 39.5856C92.8544 40.1685 92.8076 40.7888 92.5642 41.2593C92.5337 41.3178 92.4986 41.381 92.5056 41.4559C92.5127 41.5191 92.5478 41.5729 92.5876 41.6127C93.2968 42.3945 94.8862 41.8749 95.4011 41.2803C96.8383 39.6816 97.5382 37.9893 97.461 35.2834C97.3626 32.8982 97.3088 31.3463 97.482 29.1249C97.4984 28.9143 96.74 29.572 96.6909 29.6258C96.431 29.9512 96.1899 30.3047 95.9746 30.7143Z" fill="#C6C6C6"/>
<path d="M91.9638 18.2709C91.9311 19.268 92.02 20.3869 92.1464 21.5198C92.1932 21.9411 92.2471 22.3718 92.3056 22.8072C91.6666 21.7539 90.9433 21.0049 90.1544 20.216C89.9274 19.9422 87.5633 17.6623 87.5469 17.667C87.9986 19.2283 88.3404 20.5976 88.956 22.1308C89.3375 23.0881 89.7565 23.8676 90.2317 24.626C90.6202 25.2486 91.0439 25.8595 91.4887 26.5383C91.7929 27.0041 92.0973 27.4887 92.3196 28.0317C92.542 28.5748 92.6801 29.1904 92.6099 29.7264C92.6005 29.7943 92.5911 29.8669 92.6169 29.9347C92.638 29.9933 92.6824 30.0331 92.7246 30.0588C93.5134 30.5691 94.658 29.5321 94.9014 28.7854C95.5966 26.7584 95.6458 24.8905 94.7001 22.2712C93.8317 19.9703 93.2419 18.4582 92.5326 16.204C92.4647 15.991 92.1347 16.8875 92.1136 16.9554C92.0341 17.365 91.9802 17.7934 91.9638 18.2709Z" fill="#C6C6C6"/>
<path d="M83.5875 7.02588C84.0674 8.0441 84.6783 9.15361 85.2939 10.2608C85.5233 10.6727 85.7574 11.0917 85.9961 11.5154C85.0458 10.6446 84.154 10.0993 83.1849 9.52812C82.8947 9.32214 79.9898 7.66021 79.9688 7.66255C81.1134 9.13955 82.0239 10.4504 83.1779 11.8361C83.8942 12.7021 84.5425 13.3693 85.2167 13.9942C85.7691 14.5069 86.3402 14.9937 86.9465 15.5391C87.3631 15.9136 87.7821 16.3022 88.1613 16.7773C88.5382 17.2502 88.8729 17.8213 89.0157 18.3808C89.0344 18.451 89.0508 18.5282 89.0976 18.5867C89.135 18.6382 89.1842 18.664 89.2263 18.6757C90.0175 18.9285 90.5254 17.5241 90.4248 16.7025C90.1813 14.4577 89.4604 12.5851 87.5644 10.2444C85.858 8.19859 84.6713 6.84331 82.9415 4.77411C82.7776 4.57748 83.0047 5.57697 83.0234 5.65188C83.1802 6.08959 83.3605 6.53901 83.5875 7.02588Z" fill="#C6C6C6"/>
</svg>
