<svg width="96" height="83" viewBox="0 0 96 83" fill="none" xmlns="http://www.w3.org/2000/svg">
<path d="M66.8046 22.4656C64.1934 21.4547 61.5555 22.5304 60.5312 25.0252C60.3882 25.3724 60.289 25.731 60.2318 26.0877C60.2509 24.9223 60.247 23.8942 60.2356 23.0931V21.4298C60.2356 21.3268 60.1593 21.2391 60.0563 21.2219C52.0663 19.9612 43.9619 19.9612 35.97 21.2219C35.8708 21.2372 35.7964 21.3211 35.7926 21.4222C35.7907 21.4489 35.7087 23.5013 35.7602 26.3394C35.7144 25.8988 35.6038 25.4563 35.4283 25.0272C34.4059 22.5342 31.7661 21.4585 29.1549 22.4675C25.92 23.7187 26.5952 28.2525 26.8794 29.6125C27.4707 32.4392 29.2236 34.9989 32.3956 37.6711C32.6931 37.921 33.0002 38.1709 33.334 38.4341C33.5781 38.6267 33.828 38.8099 34.1046 39.0101C35.0258 39.6796 35.8975 40.3129 36.3057 41.2971C36.5536 41.8922 36.5059 42.6055 36.1779 43.2064C35.7907 43.9178 35.0315 44.2421 34.3315 43.996C33.9005 43.8434 33.0231 43.2979 33.231 42.6628C33.2958 42.4625 33.2806 42.2508 33.1833 42.0638C33.0879 41.8769 32.9239 41.7377 32.7255 41.6728C32.5253 41.608 32.3135 41.6232 32.1247 41.7186C31.9359 41.814 31.7947 41.9761 31.7299 42.1764C31.2397 43.6737 32.4337 44.9955 33.8051 45.4761C34.1351 45.5925 34.4765 45.6516 34.8198 45.6516C35.9604 45.6516 36.9866 45.0164 37.5645 43.954C38.0357 43.09 38.1577 42.0772 37.9174 41.1597C38.0338 41.4249 38.152 41.6766 38.276 41.9074C40.1605 45.4075 43.2676 47.9939 45.6385 49.5961C45.5126 49.7296 45.4363 49.907 45.4363 50.0996V50.8492C45.4363 51.2555 45.7682 51.5854 46.1763 51.5854H46.4319V58.3681L45.2131 60.4566H43.8608C43.8036 60.4566 43.7502 60.4795 43.7101 60.5196L41.0245 63.2376C40.9864 63.2777 40.9635 63.3291 40.9635 63.3864V67.6036H39.8496C39.7332 67.6036 39.6379 67.697 39.6379 67.8134V68.8644C39.6379 68.9807 39.7332 69.0742 39.8496 69.0742H56.1386C56.2549 69.0742 56.3503 68.9807 56.3503 68.8644V67.8134C56.3503 67.697 56.2549 67.6036 56.1386 67.6036H55.0247V63.3425C55.0247 63.2853 55.0018 63.23 54.9598 63.1918L52.1731 60.5177C52.1331 60.4795 52.0816 60.4585 52.0263 60.4585H50.775L49.5543 58.3509V51.5854H49.6134C50.0216 51.5854 50.3535 51.2555 50.3535 50.8492V50.0996C50.3535 49.947 50.3058 49.802 50.2219 49.6819C52.2475 48.3276 55.7056 45.6287 57.7102 41.9074C57.8132 41.7167 57.9105 41.5126 58.004 41.3028C57.8132 42.1802 57.9468 43.1339 58.3931 43.9521C58.9729 45.0145 59.9991 45.6497 61.1378 45.6497C61.4811 45.6497 61.8225 45.5906 62.1525 45.4742C63.5239 44.9917 64.7179 43.6717 64.2277 42.1745C64.1629 41.9742 64.0217 41.812 63.8329 41.7167C63.6441 41.6213 63.4324 41.6061 63.234 41.6709C63.0337 41.7358 62.8697 41.875 62.7743 42.0619C62.6789 42.2488 62.6618 42.4625 62.7266 42.6608C62.9345 43.2941 62.0571 43.8415 61.6261 43.9941C60.9261 44.2402 60.165 43.9159 59.7778 43.2044C59.4498 42.6036 59.4021 41.8884 59.65 41.2952C60.0601 40.3129 60.9299 39.6796 61.8511 39.0082C62.1296 38.806 62.3776 38.6248 62.6217 38.4322C62.9574 38.169 63.2645 37.9191 63.5602 37.6692C66.7321 34.997 68.485 32.4354 69.0763 29.6106C69.3643 28.2506 70.0414 23.7168 66.8046 22.4656ZM35.022 37.7303C34.7817 37.5548 34.5413 37.3812 34.3144 37.2C33.9844 36.9406 33.6907 36.7003 33.4141 36.4695C31.4056 34.7776 30.0285 33.1545 29.2064 31.5103C28.762 30.0207 28.7181 28.4604 29.0824 27.1138C29.3151 26.2555 29.9427 24.8097 31.5334 24.7735C32.6035 24.7391 33.622 25.4678 33.9005 26.4463C33.9443 26.5969 33.9615 26.7572 33.973 26.9517C33.9977 27.3523 33.9653 27.6994 33.868 28.0675C33.5915 28.5177 33.1547 28.8533 32.6016 29.0365C32.1896 29.1738 31.9664 29.6201 32.1037 30.0302C32.1705 30.2286 32.3116 30.3907 32.5005 30.4841C32.6893 30.5776 32.9029 30.5929 33.1032 30.5261C34.158 30.1733 34.982 29.4504 35.4245 28.491C35.6286 28.0465 35.7468 27.5602 35.7773 27.0585C35.7964 27.8291 35.8269 28.6435 35.8708 29.4847C36.1187 34.1959 36.6929 37.8237 37.5817 40.3071C36.9675 39.1474 35.9452 38.4017 35.022 37.7303ZM60.207 27.3084C60.2566 27.7223 60.3653 28.1228 60.537 28.4948C60.9776 29.4542 61.8035 30.1771 62.8582 30.5299C63.0585 30.5967 63.2721 30.5814 63.461 30.488C63.6498 30.3945 63.7909 30.2343 63.8577 30.034C63.9969 29.6239 63.7738 29.1776 63.3599 29.0384C62.8067 28.8534 62.37 28.5196 62.0934 28.0694C61.9942 27.6994 61.9618 27.3542 61.9885 26.9536C61.9999 26.7591 62.0171 26.5988 62.061 26.4482C62.3394 25.4697 63.358 24.7449 64.428 24.7735C66.0207 24.8097 66.6482 26.2555 66.879 27.1138C67.2433 28.4604 67.1994 30.0207 66.755 31.5103C65.9329 33.1545 64.5558 34.7776 62.5473 36.4695C62.2746 36.6984 61.9808 36.9387 61.649 37.2C61.4163 37.3831 61.174 37.5586 60.9261 37.7398C60.0506 38.3769 59.074 39.0883 58.4522 40.1755C59.6825 36.6183 60.0925 31.373 60.207 27.3084Z" fill="#C6C6C6"/>
<path d="M74.7744 2.25688C76.8935 4.18905 77.273 7.22178 77.273 7.22178C77.273 7.22178 74.2193 7.12068 72.1002 5.18851C69.9811 3.25634 69.6016 0.223633 69.6016 0.223633C69.6016 0.223633 72.6553 0.324707 74.7744 2.25688Z" fill="#C6C6C6"/>
<path d="M59.8729 73.4616C58.0495 75.8019 57.9388 78.5657 57.9636 78.5733C57.956 78.6077 61.7898 77.5357 63.5122 74.955C65.2326 72.4068 64.3953 69.7651 64.4201 69.7727C64.4086 69.7994 61.6945 71.1441 59.8729 73.4616Z" fill="#C6C6C6"/>
<path d="M62.5591 81.5659C59.1945 80.9937 57.9375 78.4493 57.9395 78.4722C57.9795 78.4836 61.5864 77.4441 64.6935 77.8084C67.8311 78.1899 69.6755 80.1392 69.6755 80.1602C69.7194 80.1717 65.9619 82.1496 62.5591 81.5659Z" fill="#C6C6C6"/>
<path d="M66.5257 70.5391C65.2726 73.1045 65.7227 75.7882 65.7456 75.7939C65.7418 75.8302 69.1121 74.1555 70.247 71.3708C71.3857 68.6165 70.0906 66.2018 70.1135 66.2056C70.1078 66.2304 67.7788 67.9947 66.5257 70.5391Z" fill="#C6C6C6"/>
<path d="M70.6375 77.913C67.3664 77.9225 65.7012 75.6756 65.7031 75.6985C65.7394 75.7042 68.9018 74.0982 71.9174 73.9285C74.9634 73.7682 77.0978 75.3399 77.0997 75.3609C77.1417 75.3628 73.943 77.9111 70.6375 77.913Z" fill="#C6C6C6"/>
<path d="M72.2701 66.5851C71.5587 69.2821 72.5067 71.7999 72.5276 71.7999C72.5295 71.8342 75.4154 69.6465 75.9933 66.7511C76.577 63.8881 74.8909 61.7671 74.9119 61.7671C74.9099 61.7938 72.9854 63.9091 72.2701 66.5851Z" fill="#C6C6C6"/>
<path d="M77.592 73.0222C74.4696 73.5887 72.463 71.6946 72.4688 71.7156C72.5031 71.7156 75.202 69.627 78.0726 68.9442C80.9718 68.2671 83.3236 69.4229 83.3294 69.442C83.3675 69.4382 80.7487 72.4576 77.592 73.0222Z" fill="#C6C6C6"/>
<path d="M77.0664 61.7633C76.868 64.5042 78.247 66.7797 78.268 66.7778C78.2738 66.8122 80.6561 64.1933 80.7057 61.2789C80.7648 58.393 78.7544 56.623 78.7754 56.6191C78.7754 56.6478 77.2705 59.0434 77.0664 61.7633Z" fill="#C6C6C6"/>
<path d="M83.3795 67.0909C80.4612 68.1781 78.1876 66.6884 78.1934 66.7075C78.2239 66.7018 80.4422 64.2127 83.1125 63.0472C85.8076 61.8838 88.3044 62.5952 88.312 62.6143C88.3482 62.6047 86.3283 65.9999 83.3795 67.0909Z" fill="#C6C6C6"/>
<path d="M80.8689 56.2396C81.1512 58.9443 82.8983 60.9146 82.9155 60.9088C82.925 60.9413 84.7847 57.9791 84.3365 55.1257C83.8997 52.3009 81.6375 50.9256 81.6566 50.9199C81.6623 50.9447 80.5961 53.5521 80.8689 56.2396Z" fill="#C6C6C6"/>
<path d="M87.9515 60.3175C85.2964 61.8873 82.8245 60.8344 82.834 60.8516C82.8626 60.8421 84.5831 58.0325 86.994 56.4246C89.4278 54.8148 91.9932 55.0665 92.0028 55.0837C92.0352 55.0704 90.6352 58.7401 87.9515 60.3175Z" fill="#C6C6C6"/>
<path d="M83.6459 50.1741C84.3784 52.77 86.4231 54.3817 86.4383 54.3741C86.4517 54.4046 87.7697 51.1831 86.8541 48.467C85.9558 45.7776 83.5105 44.8296 83.5258 44.8201C83.5372 44.8449 82.9269 47.5953 83.6459 50.1741Z" fill="#C6C6C6"/>
<path d="M91.263 52.9035C88.9303 54.9082 86.3362 54.315 86.3477 54.3321C86.3725 54.3188 87.5799 51.2708 89.6722 49.2662C91.7875 47.2558 94.3434 47.0441 94.3549 47.0593C94.3835 47.0402 93.6224 50.8874 91.263 52.9035Z" fill="#C6C6C6"/>
<path d="M85.347 43.733C86.4971 46.1515 88.7669 47.3665 88.7821 47.3551C88.8012 47.3837 89.5546 43.9886 88.2061 41.4785C86.8767 38.9912 84.3227 38.4953 84.338 38.4839C84.3532 38.5068 84.214 41.3297 85.347 43.733Z" fill="#C6C6C6"/>
<path d="M93.2653 45.051C91.314 47.4372 88.6742 47.317 88.6876 47.3304C88.7085 47.3132 89.3856 44.1088 91.1004 41.7589C92.8361 39.3995 95.3023 38.73 95.3176 38.7434C95.3443 38.7224 95.2432 42.6497 93.2653 45.051Z" fill="#C6C6C6"/>
<path d="M85.9412 37.0818C87.4728 39.2639 89.899 40.0497 89.9124 40.0383C89.9353 40.0631 90.1069 36.5821 88.3579 34.339C86.6336 32.115 84.0453 32.0807 84.0586 32.0654C84.0796 32.0864 84.4287 34.9131 85.9412 37.0818Z" fill="#C6C6C6"/>
<path d="M93.9135 36.9598C92.4048 39.6645 89.7974 40.0192 89.8145 40.0307C89.8317 40.0097 89.9595 36.7309 91.2374 34.0969C92.5345 31.4494 94.829 30.3412 94.8462 30.3527C94.871 30.326 95.447 34.2361 93.9135 36.9598Z" fill="#C6C6C6"/>
<path d="M85.3836 30.3853C87.2624 32.2774 89.7706 32.6188 89.782 32.6036C89.8106 32.6245 89.3776 29.1436 87.2643 27.2228C85.1776 25.3174 82.6351 25.7408 82.6465 25.7255C82.6713 25.7446 83.5258 28.5046 85.3836 30.3853Z" fill="#C6C6C6"/>
<path d="M93.1616 28.8328C92.1564 31.7892 89.6635 32.6055 89.6826 32.6151C89.6978 32.5922 89.2572 29.3191 90.0373 26.4657C90.8327 23.597 92.8717 22.0788 92.8908 22.0883C92.9118 22.0597 94.1897 25.8554 93.1616 28.8328Z" fill="#C6C6C6"/>
<path d="M83.6311 23.8105C85.8208 25.3669 88.3328 25.2562 88.3424 25.241C88.3748 25.2581 87.32 21.863 84.8786 20.3123C82.4676 18.7731 80.0491 19.6428 80.0586 19.6257C80.0872 19.639 81.4682 22.2617 83.6311 23.8105Z" fill="#C6C6C6"/>
<path d="M90.9633 20.873C90.5265 24.0049 88.2281 25.2638 88.251 25.2695C88.2625 25.2447 87.2401 22.0594 87.4556 19.061C87.6864 16.0454 89.384 14.159 89.4069 14.1648C89.424 14.1323 91.4192 17.7163 90.9633 20.873Z" fill="#C6C6C6"/>
<path d="M80.6506 17.5254C83.113 18.706 85.5526 18.1491 85.5602 18.1319C85.5983 18.1453 83.8989 14.9237 81.1675 13.7812C78.4686 12.6463 76.2541 13.9414 76.2617 13.9223C76.2961 13.9338 78.2168 16.3485 80.6506 17.5254Z" fill="#C6C6C6"/>
<path d="M87.2708 13.2832C87.4673 16.5086 85.4493 18.1737 85.4741 18.1776C85.4817 18.1509 83.8586 15.1334 83.4485 12.0721C83.0498 8.99165 84.3201 6.78861 84.3449 6.79052C84.3583 6.7581 87.0935 10.0293 87.2708 13.2832Z" fill="#C6C6C6"/>
<path d="M76.3933 11.6986C79.0903 12.4711 81.3773 11.4831 81.3811 11.466C81.423 11.4736 79.0617 8.51333 76.0786 7.81523C73.1317 7.11904 71.2052 8.80327 71.211 8.7842C71.2491 8.78801 73.7287 10.9243 76.3933 11.6986Z" fill="#C6C6C6"/>
<path d="M82.0347 6.26838C82.9292 9.49756 81.2774 11.527 81.306 11.527C81.3099 11.5003 79.0687 8.7327 77.9662 5.69425C76.8733 2.63483 77.6248 0.181935 77.6534 0.180028C77.663 0.143788 81.1554 3.00867 82.0347 6.26838Z" fill="#C6C6C6"/>
<path d="M47.1797 79.4218L47.2331 78.8305C52.137 79.2749 57.0256 78.7275 61.7616 77.2073C66.3774 75.7253 70.6499 73.3849 74.4628 70.253C82.3746 63.7527 87.4768 54.4752 88.8291 44.1296C89.9373 35.6589 89.3689 28.1095 87.1392 21.6931C84.7454 14.8018 80.4844 9.41154 74.4704 5.66737L74.7851 5.16382C80.9154 8.98048 85.2604 14.4775 87.7 21.4986C89.9602 28.0027 90.5362 35.6437 89.4166 44.2078C88.0433 54.7022 82.8667 64.1151 74.8366 70.7127C70.9666 73.8942 66.6273 76.2689 61.939 77.7738C57.1305 79.3187 52.1618 79.8738 47.1797 79.4218Z" fill="#C6C6C6"/>
<path d="M21.1881 2.25688C19.069 4.18905 18.6895 7.22178 18.6895 7.22178C18.6895 7.22178 21.7432 7.12068 23.8623 5.18851C25.9813 3.25634 26.3609 0.223633 26.3609 0.223633C26.3609 0.223633 23.3072 0.324707 21.1881 2.25688Z" fill="#C6C6C6"/>
<path d="M36.0868 73.4616C37.9102 75.8019 38.0209 78.5657 37.9961 78.5733C38.0037 78.6077 34.1699 77.5357 32.4475 74.955C30.7271 72.4068 31.5644 69.7651 31.5396 69.7727C31.5492 69.7994 34.2653 71.1441 36.0868 73.4616Z" fill="#C6C6C6"/>
<path d="M33.4 81.5659C36.7646 80.9937 38.0216 78.4493 38.0197 78.4722C37.9796 78.4836 34.3728 77.4441 31.2656 77.8084C28.128 78.1899 26.2836 80.1392 26.2836 80.1602C26.2397 80.1717 29.9972 82.1496 33.4 81.5659Z" fill="#C6C6C6"/>
<path d="M29.4346 70.5389C30.6877 73.1043 30.2376 75.788 30.2147 75.7937C30.2185 75.8299 26.8482 74.1553 25.7133 71.3705C24.5746 68.6163 25.8697 66.2015 25.8468 66.2053C25.8506 66.2301 28.1795 67.9944 29.4346 70.5389Z" fill="#C6C6C6"/>
<path d="M25.3239 77.9127C28.5951 77.9223 30.2602 75.6754 30.2583 75.6983C30.2221 75.704 27.0596 74.098 24.0441 73.9282C20.998 73.768 18.8636 75.3397 18.8617 75.3607C18.8198 75.3626 22.0184 77.9108 25.3239 77.9127Z" fill="#C6C6C6"/>
<path d="M23.6898 66.5849C24.4013 69.2819 23.4533 71.7997 23.4323 71.7997C23.4304 71.834 20.5446 69.6462 19.9666 66.7508C19.383 63.8878 21.0691 61.7668 21.0481 61.7668C21.0481 61.7935 22.9746 63.9088 23.6898 66.5849Z" fill="#C6C6C6"/>
<path d="M18.3687 73.0222C21.491 73.5887 23.4976 71.6946 23.4919 71.7156C23.4575 71.7156 20.7586 69.627 17.888 68.9442C14.9888 68.2671 12.637 69.4229 12.6313 69.442C12.5931 69.4382 15.2119 72.4576 18.3687 73.0222Z" fill="#C6C6C6"/>
<path d="M18.8945 61.7631C19.0928 64.504 17.7138 66.7795 17.6928 66.7776C17.6871 66.8119 15.3048 64.1931 15.2552 61.2786C15.1961 58.3928 17.2064 56.6227 17.1854 56.6189C17.1854 56.6475 18.6885 59.0432 18.8945 61.7631Z" fill="#C6C6C6"/>
<path d="M12.5814 67.0904C15.4997 68.1776 17.7733 66.6879 17.7675 66.707C17.737 66.7013 15.5187 64.2122 12.8484 63.0468C10.1533 61.8833 7.65655 62.5947 7.64892 62.6138C7.61268 62.6042 9.63259 65.9994 12.5814 67.0904Z" fill="#C6C6C6"/>
<path d="M15.092 56.2396C14.8097 58.9443 13.0626 60.9146 13.0454 60.9088C13.0359 60.9413 11.1762 57.9791 11.6244 55.1257C12.0612 52.3009 14.3233 50.9256 14.3043 50.9199C14.2985 50.9447 15.3667 53.5521 15.092 56.2396Z" fill="#C6C6C6"/>
<path d="M8.0108 60.3175C10.6659 61.8873 13.1378 60.8344 13.1283 60.8516C13.0997 60.8421 11.3792 58.0325 8.9683 56.4246C6.53449 54.8148 3.96907 55.0665 3.95954 55.0837C3.92711 55.0704 5.32712 58.7401 8.0108 60.3175Z" fill="#C6C6C6"/>
<path d="M12.3187 50.1741C11.5863 52.77 9.54155 54.3817 9.52629 54.3741C9.51294 54.4046 8.19494 51.1831 9.11048 48.467C10.0089 45.7776 12.4541 44.8296 12.4389 44.8201C12.4255 44.8449 13.0378 47.5953 12.3187 50.1741Z" fill="#C6C6C6"/>
<path d="M4.70015 52.9035C7.03287 54.9082 9.6269 54.315 9.61546 54.3321C9.59066 54.3188 8.38329 51.2708 6.2909 49.2662C4.17563 47.2558 1.61974 47.0441 1.6083 47.0593C1.57778 47.0402 2.33882 50.8874 4.70015 52.9035Z" fill="#C6C6C6"/>
<path d="M10.6113 43.733C9.46115 46.1515 7.19138 47.3665 7.17612 47.3551C7.15705 47.3837 6.40363 43.9886 7.75215 41.4785C9.08159 38.9912 11.6356 38.4953 11.6203 38.4839C11.605 38.5068 11.7462 41.3297 10.6113 43.733Z" fill="#C6C6C6"/>
<path d="M2.69609 45.0508C4.64733 47.4369 7.28905 47.3168 7.27379 47.3301C7.25281 47.313 6.57569 44.1086 4.86096 41.7587C3.12525 39.3993 0.659013 38.7298 0.643754 38.7431C0.617051 38.7221 0.718142 42.6494 2.69609 45.0508Z" fill="#C6C6C6"/>
<path d="M10.0194 37.0818C8.48777 39.2639 6.06159 40.0497 6.04823 40.0383C6.02535 40.0631 5.85368 36.5821 7.60274 34.339C9.32892 32.115 11.9153 32.0807 11.902 32.0654C11.8829 32.0864 11.5319 34.9131 10.0194 37.0818Z" fill="#C6C6C6"/>
<path d="M2.0492 36.9598C3.55794 39.6645 6.16532 40.0192 6.14815 40.0307C6.13099 40.0097 6.00319 36.7309 4.72525 34.0969C3.42824 31.4494 1.13366 30.3412 1.1165 30.3527C1.0917 30.326 0.515674 34.2361 2.0492 36.9598Z" fill="#C6C6C6"/>
<path d="M10.5794 30.3853C8.70062 32.2774 6.19243 32.6188 6.18098 32.6036C6.15237 32.6245 6.58535 29.1436 8.69872 27.2228C10.7854 25.3174 13.3279 25.7408 13.3165 25.7255C13.2917 25.7446 12.4353 28.5046 10.5794 30.3853Z" fill="#C6C6C6"/>
<path d="M2.79913 28.8325C3.80431 31.789 6.29725 32.6053 6.27818 32.6148C6.26292 32.592 6.70352 29.3189 5.92341 26.4655C5.12803 23.5968 3.08905 22.0785 3.06997 22.0881C3.04899 22.0594 1.77296 25.8551 2.79913 28.8325Z" fill="#C6C6C6"/>
<path d="M12.3291 23.8105C10.1395 25.3669 7.62745 25.2562 7.61791 25.241C7.58549 25.2581 8.64026 21.863 11.0817 20.3123C13.4926 18.7731 15.9112 19.6428 15.9016 19.6257C15.8711 19.639 14.4921 22.2617 12.3291 23.8105Z" fill="#C6C6C6"/>
<path d="M4.99543 20.873C5.43222 24.0049 7.73061 25.2638 7.70772 25.2695C7.69627 25.2447 8.71863 22.0594 8.50309 19.061C8.2723 16.0454 6.57474 14.159 6.55185 14.1648C6.53468 14.1323 4.53957 17.7163 4.99543 20.873Z" fill="#C6C6C6"/>
<path d="M15.3106 17.5254C12.8482 18.706 10.4086 18.1491 10.401 18.1319C10.3629 18.1453 12.0623 14.9237 14.7937 13.7812C17.4926 12.6463 19.7071 13.9414 19.6995 13.9223C19.6651 13.9338 17.7444 16.3485 15.3106 17.5254Z" fill="#C6C6C6"/>
<path d="M8.6912 13.2832C8.49474 16.5086 10.5127 18.1737 10.488 18.1776C10.4803 18.1509 12.1035 15.1334 12.5136 12.0721C12.9122 8.99165 11.6419 6.78861 11.6171 6.79052C11.6019 6.7581 8.86859 10.0293 8.6912 13.2832Z" fill="#C6C6C6"/>
<path d="M19.5684 11.6984C16.8714 12.4709 14.5844 11.4829 14.5806 11.4657C14.5387 11.4733 16.9 8.51309 19.8831 7.81499C22.83 7.1188 24.7565 8.80302 24.7508 8.78395C24.7126 8.78777 22.233 10.924 19.5684 11.6984Z" fill="#C6C6C6"/>
<path d="M13.9241 6.26813C13.0295 9.49732 14.6813 11.5268 14.6527 11.5268C14.6489 11.5001 16.8901 8.73246 17.9925 5.69401C19.0855 2.63458 18.3339 0.181691 18.3053 0.179783C18.2958 0.143543 14.8015 3.00843 13.9241 6.26813Z" fill="#C6C6C6"/>
<path d="M48.782 79.4218L48.7286 78.8305C43.8247 79.2749 38.9361 78.7275 34.2001 77.2073C29.5843 75.7253 25.3118 73.3849 21.4989 70.253C13.5871 63.7527 8.48491 54.4752 7.13258 44.1296C6.0244 35.6589 6.59279 28.1095 8.82252 21.6931C11.2163 14.8018 15.4773 9.41154 21.4913 5.66737L21.1766 5.16382C15.0463 8.98048 10.7013 14.4775 8.26175 21.4986C6.00151 28.0027 5.42548 35.6437 6.54511 44.2078C7.91842 54.7022 13.095 64.1151 21.1251 70.7127C24.9951 73.8942 29.3344 76.2689 34.0228 77.7738C38.8312 79.3187 43.798 79.8738 48.782 79.4218Z" fill="#C6C6C6"/>
<path d="M47.8063 76.3948L43.3145 79.6964L47.8063 83L52.2963 79.6964L47.8063 76.3948Z" fill="#C6C6C6"/>
</svg>
