<svg width="86" height="84" viewBox="0 0 86 84" fill="none" xmlns="http://www.w3.org/2000/svg">
<path d="M43.3081 22.7122L48.0589 33.4874L59.7665 32.2139L52.8098 41.7175L59.7665 51.2193L48.0589 49.9458L43.3081 60.7229L38.5572 49.9458L26.8496 51.2193L33.8063 41.7175L26.8496 32.2139L38.5572 33.4874L43.3081 22.7122Z" fill="#C6C6C6"/>
<path d="M3.08765 56.2045C3.08024 56.2045 3.07467 56.2045 3.06726 56.2027C2.98014 56.1916 2.87077 56.1267 2.85223 55.9765C2.60941 54.0006 2.31097 52.577 1.89947 50.6065L1.74561 49.8707C1.24513 47.3089 1.37118 45.1865 2.17936 42.5414C2.38512 41.8537 3.0654 40.7489 3.75495 40.5506C3.99964 40.4801 4.22763 40.5283 4.41114 40.6896C4.48714 40.7545 4.5409 40.8471 4.56129 40.9528C4.58353 41.0677 4.5687 41.1808 4.55387 41.2716C4.47046 41.85 4.51124 42.5247 4.6688 43.1809C4.81709 43.7963 5.04694 44.345 5.2527 44.8102C5.42138 45.1939 5.59006 45.5535 5.75318 45.9057C5.91074 46.2449 6.06459 46.5749 6.21102 46.9085C6.63736 47.8706 6.94136 48.7103 7.19531 49.6315C7.63462 51.2034 7.84964 52.5899 8.0795 54.0562L8.111 54.2564C8.12398 54.3435 8.08506 54.4306 8.01091 54.4788C7.95901 54.5122 7.89599 54.5233 7.83667 54.5085C7.64204 54.4621 5.78655 52.1636 5.57708 51.8967L5.57523 51.8985C5.13592 51.348 4.70773 50.7919 4.32588 50.1135C4.32773 50.2358 4.32773 50.3545 4.32773 50.4731C4.32959 51.8911 4.261 52.9718 4.11456 53.8745C4.03856 54.3361 3.93105 54.7846 3.78276 55.2462C3.78276 55.2499 3.78091 55.2518 3.77905 55.2555C3.77905 55.261 3.42501 56.2045 3.08765 56.2045ZM3.96627 40.9658C3.94032 40.9658 3.91066 40.9713 3.88101 40.9787C3.43057 41.1085 2.8059 42.0168 2.61126 42.6693C1.8142 45.2736 1.69556 47.2663 2.18678 49.7798L2.34063 50.512C2.71507 52.3063 2.99682 53.6502 3.22852 55.3704C3.29155 55.2499 3.3453 55.1405 3.36384 55.0942C3.50472 54.6586 3.60667 54.2341 3.67896 53.7967C3.82169 52.918 3.88657 51.8615 3.88657 50.4675C3.88657 50.0338 3.87915 49.5759 3.86617 49.1051C3.86247 48.9976 3.93661 48.9031 4.04227 48.879C4.14978 48.8549 4.25544 48.9123 4.29622 49.0106C4.75036 50.0931 5.30645 50.829 5.93298 51.6112C5.93854 51.6186 5.94596 51.6279 5.95152 51.6372C6.05903 51.8188 6.97287 52.8976 7.55677 53.5724C7.35843 52.3175 7.14711 51.0978 6.76897 49.7465C6.52058 48.8474 6.224 48.0263 5.80693 47.0846C5.6605 46.7528 5.5085 46.4247 5.3528 46.0892C5.18782 45.7352 5.01914 45.3719 4.84861 44.9863C4.63544 44.5025 4.39632 43.9334 4.23876 43.281C4.06822 42.571 4.02373 41.837 4.11456 41.2105C4.12383 41.1419 4.13495 41.0751 4.12754 41.0362C4.07193 40.988 4.02374 40.9658 3.96627 40.9658ZM3.5733 55.1721H3.57515H3.5733Z" fill="#C6C6C6"/>
<path d="M8.74018 67.1649C8.64379 67.1649 8.55667 67.1074 8.51403 67.0092C7.73736 65.2612 7.05336 64.0637 6.10986 62.4047L5.85406 61.9561C4.7048 59.8727 4.28959 57.9949 4.41935 55.474C4.44715 54.8437 4.82344 53.7019 5.42587 53.2904C5.64645 53.1384 5.88372 53.0995 6.10801 53.1755C6.20625 53.207 6.28781 53.2737 6.34157 53.3664C6.39718 53.4628 6.41015 53.5684 6.42127 53.6537C6.48244 54.1634 6.6882 54.714 7.00146 55.2108C7.29434 55.6779 7.64282 56.0542 7.97277 56.3989C8.21559 56.651 8.45286 56.8901 8.68642 57.1219C8.94407 57.3795 9.19431 57.6297 9.439 57.8856C10.1007 58.5788 10.6123 59.2109 11.098 59.9375C11.9433 61.1943 12.5216 62.3806 13.1333 63.6374L13.1889 63.7505C13.2352 63.845 13.2093 63.9581 13.1277 64.023C12.9924 64.1323 12.9924 64.1323 11.5874 63.3427C11.1128 63.0757 10.3028 62.616 10.1174 62.477C9.5187 62.1193 8.96261 61.7689 8.41949 61.2981C8.45471 61.413 8.48808 61.5261 8.52145 61.6392C8.88847 62.8904 9.10164 63.8728 9.19432 64.7292C9.24066 65.1685 9.25178 65.606 9.22768 66.0694C9.22768 66.0731 9.22768 66.0768 9.22768 66.0805C9.22583 66.0898 9.11461 67.1093 8.78096 67.163C8.76613 67.163 8.75315 67.1649 8.74018 67.1649ZM5.89113 53.5814C5.84109 53.5814 5.7688 53.5962 5.67797 53.6574C5.26275 53.941 4.89388 54.8938 4.86607 55.4925C4.73817 57.9578 5.12373 59.7058 6.24332 61.7337L6.49727 62.1804C7.36292 63.6986 8.00984 64.8348 8.71052 66.3585C8.74203 66.2195 8.76984 66.0898 8.77725 66.036C8.79949 65.6004 8.79022 65.187 8.74574 64.7755C8.65676 63.9451 8.4473 62.9886 8.08955 61.7634C7.97833 61.3834 7.85414 60.983 7.72067 60.5789C7.68731 60.4788 7.72994 60.3676 7.82077 60.3157C7.9116 60.2638 8.02838 60.2805 8.10067 60.3583C8.81432 61.1461 9.54651 61.6132 10.3584 62.0989C10.3677 62.1044 10.3769 62.11 10.3844 62.1174C10.5271 62.2342 11.7338 62.9163 12.4808 63.3278C11.947 62.2398 11.4409 61.2555 10.7236 60.1878C10.2527 59.4834 9.75597 58.868 9.11276 58.1951C8.86993 57.9412 8.6234 57.6928 8.36945 57.4388C8.13589 57.2053 7.89492 56.9643 7.65024 56.7103C7.30361 56.3489 6.93844 55.9541 6.62147 55.4499C6.27298 54.8975 6.04499 54.2821 5.9764 53.7186C5.97084 53.6704 5.96342 53.6074 5.9523 53.5888C5.93562 53.5851 5.91523 53.5814 5.89113 53.5814ZM9.00154 66.0564H9.00339H9.00154Z" fill="#C6C6C6"/>
<path d="M16.937 75.2218C16.8666 75.2218 16.7962 75.1903 16.7443 75.1291C15.4801 73.6629 14.5032 72.7676 13.0259 71.4126L12.8887 71.2865C11.2464 69.7424 10.3659 68.1854 9.85059 65.9128C9.70045 65.2733 9.81351 64.2334 10.2232 63.707C10.3974 63.4809 10.6199 63.3604 10.8645 63.3548C10.9646 63.353 11.0666 63.3863 11.1444 63.4531C11.2297 63.5253 11.2723 63.6236 11.3038 63.694C11.4892 64.1167 11.821 64.53 12.2436 64.8692C12.6403 65.1881 13.0685 65.4142 13.4726 65.6181C13.7432 65.7553 14.0083 65.8813 14.266 66.0074C14.6089 66.1723 14.9333 66.3299 15.2577 66.4986C16.0714 66.9212 16.7257 67.3401 17.3801 67.8554C18.5442 68.7693 19.3876 69.6794 20.3644 70.7323C20.446 70.8194 20.4571 70.9714 20.3718 71.0567C20.2736 71.1568 20.2717 71.1568 18.7481 70.8472C18.2235 70.7397 17.3263 70.5543 17.115 70.4858C16.4421 70.3338 15.8137 70.1799 15.1705 69.913C15.2317 70.0057 15.2929 70.0965 15.3522 70.1873C16.0251 71.2161 16.4848 72.0539 16.7999 72.825C16.9593 73.2162 17.0835 73.6203 17.1817 74.0559C17.1817 74.0596 17.1836 74.0633 17.1836 74.067C17.1854 74.0763 17.343 75.0568 17.0409 75.2014C17.0056 75.2144 16.9704 75.2218 16.937 75.2218ZM10.8571 63.8015C10.7533 63.809 10.6625 63.8683 10.5754 63.9795C10.264 64.3799 10.1639 65.2919 10.2862 65.809C10.7885 68.0186 11.6023 69.4607 13.1927 70.9566L13.328 71.0808C14.6904 72.3301 15.6302 73.1921 16.761 74.4655C16.7554 74.3265 16.748 74.1949 16.7406 74.1411C16.6497 73.7333 16.533 73.357 16.3847 72.99C16.0807 72.2467 15.6339 71.433 14.9778 70.4283C14.7701 70.1132 14.5496 69.7888 14.3197 69.4644C14.2585 69.3791 14.266 69.2624 14.3364 69.1845C14.4068 69.1066 14.5218 69.0881 14.6126 69.1382C15.4931 69.6312 16.3161 69.8407 17.2244 70.0464C17.2336 70.0483 17.2429 70.052 17.2522 70.0539C17.4208 70.115 18.761 70.3912 19.5878 70.5543C18.7962 69.7072 18.0566 68.9546 17.1002 68.2058C16.4681 67.7071 15.836 67.3012 15.0482 66.8934C14.7294 66.7266 14.4068 66.5727 14.0676 66.4078C13.8081 66.2817 13.5412 66.1538 13.2687 66.0166C12.8424 65.8016 12.3901 65.5625 11.96 65.2177C11.4836 64.834 11.1036 64.3613 10.8942 63.8831C10.8831 63.8534 10.8682 63.8201 10.8571 63.8015Z" fill="#C6C6C6"/>
<path d="M26.9384 80.5424C26.8883 80.5424 26.8383 80.5275 26.7901 80.496C25.1163 79.3876 23.904 78.7907 22.067 77.8898C20.0818 76.8889 18.8287 75.6803 17.7388 73.7191C17.4366 73.1853 17.2698 72.2029 17.5071 71.5949C17.6146 71.3187 17.7981 71.1315 18.0391 71.0536C18.1355 71.0202 18.2374 71.0221 18.3319 71.0629C18.4357 71.1074 18.5043 71.1871 18.5544 71.2464C18.838 71.5763 19.2625 71.8618 19.7555 72.0546C20.2152 72.2344 20.6879 72.3233 21.1309 72.3993C21.4016 72.4457 21.6648 72.4865 21.9206 72.5272C22.3191 72.5884 22.6954 72.6477 23.0773 72.72C23.967 72.8887 24.7085 73.1019 25.4759 73.4114C26.8735 73.9712 27.969 74.6441 29.1275 75.3559C29.1794 75.3874 29.2165 75.4393 29.2295 75.4986C29.2425 75.5579 29.2313 75.621 29.1961 75.671C29.1257 75.7767 29.1257 75.7767 27.5872 75.886C27.0514 75.925 26.1413 75.9861 25.9207 75.9787C25.233 76.0176 24.5861 76.0399 23.9003 75.9657C23.9818 76.0343 24.0615 76.1011 24.1412 76.1696C25.0421 76.9426 25.7261 77.634 26.2321 78.2809C26.4898 78.6127 26.7159 78.9631 26.9254 79.3542C26.9273 79.3579 26.9291 79.3598 26.931 79.3635C26.9347 79.3727 27.3443 80.268 27.0941 80.4849C27.0496 80.5238 26.994 80.5424 26.9384 80.5424ZM27.0385 80.1216C27.0385 80.1234 27.0385 80.1234 27.0385 80.1216C27.0385 80.1234 27.0385 80.1234 27.0385 80.1216ZM18.1651 71.4836C18.0576 71.5244 17.9797 71.6134 17.9241 71.7561C17.7425 72.2251 17.8834 73.0629 18.1299 73.5004C19.1865 75.4022 20.3468 76.52 22.2672 77.4894C23.9058 78.2939 25.1274 78.8926 26.6307 79.8565C26.5899 79.7268 26.5473 79.6044 26.5269 79.5562C26.3322 79.1911 26.1191 78.8648 25.88 78.5553C25.3943 77.9306 24.7307 77.2614 23.8521 76.507C23.5703 76.266 23.2719 76.0195 22.966 75.7785C22.8845 75.7136 22.8585 75.6006 22.903 75.506C22.9475 75.4115 23.0513 75.3596 23.1551 75.3837C24.1264 75.6043 24.9772 75.5802 25.9096 75.5283C25.917 75.5283 25.9263 75.5283 25.9356 75.5283C26.1172 75.5357 27.4759 75.4449 28.3156 75.38C27.3777 74.8109 26.4416 74.2771 25.3109 73.8248C24.5694 73.5264 23.8558 73.3206 22.9957 73.1575C22.6213 73.087 22.2487 73.0277 21.8538 72.9666C21.5943 72.9258 21.3293 72.885 21.0568 72.8387C20.5897 72.7589 20.091 72.6663 19.5924 72.4698C19.0326 72.251 18.5433 71.9211 18.2189 71.5411C18.2003 71.5226 18.1799 71.4966 18.1651 71.4836Z" fill="#C6C6C6"/>
<path d="M38.0071 83.1278C37.9774 83.1278 37.9459 83.1222 37.9144 83.113C36.0441 82.4661 34.7632 82.1954 32.6593 81.7709C30.4776 81.3094 28.9502 80.4753 27.382 78.8904C26.9501 78.4603 26.5312 77.5687 26.5942 76.9274C26.6239 76.6345 26.7518 76.4047 26.9631 76.2638C27.0484 76.2063 27.1485 76.1822 27.2467 76.1952C27.3579 76.21 27.445 76.2675 27.5081 76.3101C27.8695 76.5492 28.3552 76.7105 28.8816 76.7643C29.371 76.8162 29.8511 76.7772 30.2996 76.7346C30.5573 76.7105 30.8075 76.6827 31.0522 76.6568C31.4693 76.6123 31.8623 76.5696 32.2626 76.54C33.1654 76.4732 33.9365 76.4918 34.7632 76.5974C36.2776 76.7884 37.564 77.1869 38.8097 77.5706C38.869 77.5891 38.9191 77.6318 38.9469 77.6892C38.9747 77.7448 38.9765 77.8116 38.9524 77.869C38.9079 77.9803 38.9079 77.9803 37.4565 78.4622C36.9486 78.6309 36.0793 78.9163 35.8717 78.9627C35.2192 79.1703 34.6038 79.3519 33.9253 79.452C34.0217 79.4965 34.1144 79.541 34.209 79.5855C35.2822 80.1027 36.1256 80.5994 36.7892 81.1018C37.1266 81.3576 37.438 81.6393 37.7438 81.9656C37.7457 81.9674 37.7475 81.9711 37.7513 81.973C37.7568 81.9804 38.3889 82.7497 38.2054 83.0184C38.1609 83.0907 38.0868 83.1278 38.0071 83.1278ZM27.2022 76.6438C27.1095 76.7124 27.0576 76.818 27.0428 76.97C26.9927 77.4612 27.3486 78.2212 27.7008 78.5716C29.2227 80.1101 30.6389 80.8831 32.7501 81.3298C34.6334 81.7098 35.931 81.9823 37.5881 82.5272C37.5158 82.4142 37.4435 82.3104 37.412 82.2696C37.1247 81.9637 36.8337 81.7005 36.5186 81.4614C35.8791 80.9757 35.0598 80.4956 34.0143 79.9915C33.677 79.8283 33.3248 79.6671 32.9652 79.5132C32.8688 79.4706 32.815 79.3686 32.8336 79.2648C32.8539 79.161 32.9411 79.085 33.0467 79.0832C34.0421 79.0517 34.8262 78.8255 35.7456 78.5326C35.753 78.5308 35.7623 78.5289 35.7697 78.5271C35.944 78.4919 37.2285 78.0692 38.0237 77.8005C36.9968 77.4909 35.9217 77.198 34.7057 77.0442C33.9087 76.9404 33.1654 76.9237 32.2941 76.9886C31.9012 77.0164 31.5101 77.059 31.0986 77.1035C30.852 77.1294 30.5999 77.1572 30.3404 77.1813C29.8677 77.2277 29.3635 77.2666 28.8316 77.211C28.2347 77.1498 27.6767 76.9626 27.2634 76.6883C27.2467 76.6716 27.2207 76.653 27.2022 76.6438Z" fill="#C6C6C6"/>
<path d="M49.3971 82.9778C49.3878 82.9778 49.3785 82.9778 49.3693 82.9759C47.3729 82.7924 46.0012 82.8387 43.927 82.9277C41.6971 83 39.9973 82.5644 38.0602 81.4151C37.5227 81.1019 36.8776 80.3363 36.7775 79.7005C36.733 79.4151 36.796 79.1667 36.9629 78.9813C37.0296 78.9053 37.1204 78.8553 37.2205 78.8442C37.3318 78.8293 37.43 78.8645 37.5023 78.8886C37.9175 79.0314 38.4291 79.0684 38.9537 78.9924C39.4375 78.9239 39.8749 78.7774 40.318 78.6199C40.5534 78.5364 40.7832 78.4512 41.0057 78.3696C41.4023 78.2232 41.7786 78.086 42.1642 77.96C43.0206 77.6801 43.7713 77.5114 44.5999 77.4187C46.1106 77.2445 47.4637 77.3223 48.7743 77.3983C48.8354 77.402 48.8929 77.4298 48.9337 77.478C48.9726 77.5262 48.9911 77.5874 48.9856 77.6486C48.9707 77.7709 48.9707 77.7709 47.6917 78.5846C47.245 78.8682 46.4813 79.3502 46.2922 79.4466C45.7176 79.8006 45.1726 80.1232 44.5443 80.3827C44.6499 80.4031 44.7556 80.4253 44.8594 80.4457C46.0327 80.6904 46.9818 80.9703 47.7585 81.3002C48.1533 81.4689 48.5296 81.6672 48.9114 81.9082C48.9151 81.9101 48.917 81.9119 48.9207 81.9138C48.9281 81.9193 49.7493 82.5032 49.6325 82.8202C49.5954 82.9166 49.5046 82.9778 49.3971 82.9778ZM37.2854 79.2927C37.2168 79.378 37.1964 79.4874 37.2187 79.6319C37.2947 80.1213 37.8452 80.7738 38.2864 81.0296C40.1697 82.1455 41.7453 82.5533 43.9085 82.481C45.8177 82.3976 47.1393 82.3531 48.8966 82.4865C48.7965 82.3957 48.702 82.3142 48.6612 82.2826C48.3034 82.0565 47.9494 81.8693 47.5805 81.7117C46.8298 81.3929 45.9085 81.1223 44.7648 80.8832C44.3978 80.8072 44.0123 80.7349 43.623 80.67C43.5192 80.6533 43.4413 80.5662 43.4358 80.4605C43.4302 80.3567 43.497 80.2603 43.5989 80.2325C44.5535 79.9637 45.2505 79.5597 46.0624 79.0573C46.0698 79.0536 46.0772 79.0499 46.0846 79.0462C46.244 78.9702 47.3711 78.2584 48.0699 77.808C46.9892 77.7524 45.8659 77.7227 44.6499 77.8636C43.8529 77.9544 43.1299 78.1157 42.3032 78.3863C41.9232 78.5105 41.5525 78.6477 41.1595 78.7922C40.9334 78.8757 40.7035 78.9591 40.4663 79.0443C40.0195 79.2019 39.5394 79.3632 39.0167 79.4392C38.4235 79.5244 37.8359 79.4818 37.3633 79.3168C37.3373 79.3076 37.3058 79.2964 37.2854 79.2927Z" fill="#C6C6C6"/>
<path d="M52.2096 81.8049C51.1975 81.8049 50.1835 81.6381 49.0565 81.3007C48.4448 81.1228 47.6144 80.5296 47.3568 79.9327C47.2437 79.6732 47.2437 79.423 47.3531 79.208C47.4124 79.0893 47.505 79.0337 47.5699 79.0096C47.6737 78.9707 47.7794 78.98 47.8554 78.9874C48.2928 79.0282 48.7989 78.941 49.2864 78.7427C49.735 78.561 50.1187 78.3145 50.5061 78.0587C50.7137 77.9197 50.9139 77.7844 51.1104 77.6491C51.4551 77.4136 51.7795 77.1912 52.1188 76.978C52.8713 76.5017 53.5553 76.1606 54.332 75.8696C55.7241 75.345 57.0068 75.0966 58.3637 74.8334C58.423 74.8204 58.486 74.8352 58.536 74.8705C58.5861 74.9057 58.6195 74.9594 58.6287 75.0187C58.6491 75.1429 58.6491 75.1429 57.6241 76.2459C57.2682 76.6296 56.6583 77.282 56.4989 77.4211C56.0373 77.903 55.5943 78.3479 55.0568 78.7483C55.168 78.7427 55.2774 78.7371 55.3886 78.7334C56.5916 78.6871 57.5833 78.7279 58.4211 78.8576C58.8475 78.9244 59.2645 79.0245 59.6983 79.1653C59.702 79.1672 59.7038 79.1672 59.7075 79.169C59.7168 79.1727 60.6677 79.5361 60.6344 79.8716C60.6251 79.9642 60.5547 80.0681 60.4193 80.0884C58.4526 80.3999 57.194 80.7576 55.1402 81.3637C54.1021 81.6585 53.1568 81.8049 52.2096 81.8049ZM47.7442 79.4304C47.7052 79.5231 47.7127 79.6287 47.7683 79.7566C47.9648 80.2089 48.6895 80.7279 49.1844 80.8725C51.3069 81.5046 52.9418 81.5232 55.0141 80.9356C56.8455 80.3961 58.1153 80.0328 59.8336 79.7325C59.7113 79.6677 59.5982 79.6121 59.5518 79.5917C59.144 79.4601 58.7529 79.3655 58.3525 79.3044C57.5444 79.1802 56.5805 79.1412 55.4071 79.1857C55.0234 79.2005 54.6323 79.2246 54.2449 79.2543C54.1448 79.2617 54.0447 79.1968 54.0132 79.0967C53.9817 78.9966 54.0243 78.8891 54.1151 78.8354C54.9659 78.3479 55.5554 77.7621 56.1838 77.1059C56.1893 77.1004 56.1968 77.093 56.2042 77.0874C56.3376 76.9762 57.2404 76.0086 57.7964 75.4043C56.6954 75.623 55.6258 75.864 54.4914 76.2922C53.7444 76.5721 53.0863 76.902 52.3597 77.3599C52.0279 77.5693 51.7054 77.7881 51.3643 78.0216C51.166 78.157 50.9658 78.2941 50.7563 78.4331C50.3652 78.6927 49.9444 78.9633 49.4569 79.1598C48.9045 79.3841 48.3244 79.4804 47.8239 79.436C47.7961 79.4323 47.7646 79.4304 47.7442 79.4304Z" fill="#C6C6C6"/>
<path d="M60.2559 78.5575C60.0631 78.5575 59.8667 78.5538 59.6646 78.5445C59.0233 78.5223 58.0631 78.1534 57.6553 77.6363C57.481 77.4157 57.4143 77.1747 57.4625 76.9411C57.4829 76.8373 57.5385 76.7502 57.6238 76.6909C57.7146 76.6279 57.8184 76.6112 57.8925 76.5982C58.3281 76.5296 58.7934 76.322 59.2105 76.0106C59.5979 75.7233 59.9149 75.3767 60.2059 75.0467C60.3764 74.8539 60.5395 74.663 60.6989 74.4777C60.9622 74.1718 61.2105 73.8808 61.4756 73.5953C62.0762 72.9428 62.6453 72.4368 63.3163 71.9548C64.4859 71.1096 65.587 70.5572 66.8623 69.9158L66.929 69.8825C66.9846 69.8547 67.0514 69.851 67.1088 69.8732C67.1681 69.8955 67.2145 69.9418 67.2367 70.0011C67.2812 70.1142 67.2812 70.1142 66.5935 71.4544C66.3544 71.9215 65.941 72.7167 65.8205 72.8965C65.5036 73.486 65.194 74.0346 64.7788 74.5666C64.8882 74.5314 64.9957 74.498 65.1013 74.4647C66.2562 74.1069 67.2237 73.8863 68.0597 73.79C68.4898 73.7418 68.9198 73.7269 69.3721 73.7492C69.3758 73.7492 69.3795 73.7492 69.3832 73.7492C69.3944 73.751 70.4064 73.8493 70.4639 74.1829C70.4824 74.2941 70.425 74.3979 70.3156 74.448C68.4601 75.3007 67.3053 76.0069 65.5592 77.0783C63.8316 78.1126 62.2579 78.5575 60.2559 78.5575ZM57.9018 77.0542C57.8907 77.1524 57.9259 77.2507 58.0112 77.3582C58.3207 77.753 59.166 78.0793 59.685 78.096C61.9131 78.1868 63.4942 77.792 65.333 76.6946C66.8845 75.7437 68.0431 75.0337 69.6687 74.2589C69.5315 74.2293 69.4036 74.2033 69.3517 74.1959C68.9254 74.1774 68.5213 74.1885 68.1191 74.2348C67.3127 74.3275 66.3711 74.5425 65.2422 74.891C64.89 75.0004 64.5174 75.1227 64.1374 75.2562C64.0392 75.2914 63.9298 75.2525 63.8742 75.1635C63.8186 75.0745 63.8316 74.9596 63.9057 74.8854C64.599 74.1903 65.0105 73.4711 65.4405 72.6704C65.4443 72.6629 65.4498 72.6537 65.4554 72.6463C65.5573 72.5035 66.1709 71.3172 66.5435 70.5795C65.5036 71.1059 64.5656 71.6082 63.5869 72.3145C62.94 72.7797 62.3932 73.2672 61.813 73.8956C61.5535 74.1755 61.3069 74.4628 61.0474 74.7668C60.8862 74.954 60.723 75.145 60.5506 75.3396C60.2429 75.6881 59.9093 76.0532 59.4867 76.3684C59.0121 76.7224 58.4764 76.9597 57.9778 77.0375C57.95 77.0449 57.9203 77.0486 57.9018 77.0542Z" fill="#C6C6C6"/>
<path d="M68.5655 73.2108C68.015 73.2108 67.3922 73.0792 67.014 72.8011C66.7823 72.6325 66.6526 72.4137 66.6359 72.1728C66.6285 72.069 66.6581 71.9689 66.723 71.8892C66.7953 71.802 66.8917 71.7576 66.9621 71.726C67.3606 71.5444 67.7536 71.2181 68.0706 70.8011C68.3672 70.4155 68.5803 69.9892 68.7713 69.5869C68.888 69.3404 68.9993 69.1013 69.1068 68.8659C69.2736 68.5026 69.4312 68.1578 69.6054 67.813C70.0076 67.0067 70.4173 66.3468 70.9345 65.6758C71.7927 64.5525 72.6583 63.7072 73.6593 62.7266L73.841 62.5487C73.8892 62.5005 73.9577 62.4782 74.0245 62.4857C74.0931 62.4931 74.1524 62.532 74.1876 62.5895C74.2469 62.684 74.2469 62.684 73.9503 64.2058C73.8465 64.7415 73.663 65.6572 73.5981 65.8667C73.4517 66.5451 73.3034 67.1791 73.0439 67.826C73.1384 67.7611 73.2311 67.6962 73.3238 67.6351C74.3655 66.9288 75.2108 66.4395 75.9838 66.0965C76.3805 65.9204 76.7883 65.7777 77.2331 65.6609C77.2368 65.6591 77.2405 65.6591 77.2442 65.6591C77.2554 65.6572 78.2471 65.4533 78.4009 65.7555C78.4528 65.8556 78.4287 65.9742 78.3397 66.0558C76.855 67.4089 75.9615 68.408 74.6102 69.9187L74.4749 70.0707C72.9549 71.7279 71.4238 72.6176 69.1865 73.1478C69.0085 73.1886 68.7935 73.2108 68.5655 73.2108ZM67.0863 72.1654C67.1011 72.2673 67.1642 72.3563 67.2791 72.4415C67.6869 72.74 68.584 72.8308 69.0827 72.7103C71.2551 72.195 72.6732 71.3701 74.1431 69.7686L74.2766 69.6185C75.4777 68.2746 76.3749 67.2717 77.6687 66.0632C77.5278 66.0743 77.3944 66.0891 77.3406 66.0984C76.9236 66.2096 76.5399 66.3431 76.1673 66.5099C75.4203 66.8417 74.5972 67.3181 73.5777 68.0095C73.2626 68.2227 72.9382 68.4507 72.612 68.6898C72.5267 68.7528 72.41 68.7472 72.3321 68.6768C72.2524 68.6082 72.232 68.4933 72.2839 68.4006C72.7659 67.5164 72.9679 66.6841 73.1662 65.7647C73.1681 65.7555 73.1699 65.7462 73.1737 65.7369C73.2348 65.5645 73.5036 64.2021 73.6612 63.3587C72.8029 64.2003 72.0411 64.9714 71.2922 65.952C70.7936 66.6007 70.3969 67.2365 70.0076 68.0169C69.8371 68.3561 69.6814 68.6972 69.5164 69.0568C69.4071 69.2941 69.2958 69.535 69.1791 69.7834C68.977 70.2079 68.7509 70.6583 68.4283 71.0791C68.0669 71.5518 67.6127 71.9281 67.153 72.1375C67.1327 72.1413 67.1048 72.1542 67.0863 72.1654Z" fill="#C6C6C6"/>
<path d="M75.3321 65.5081C75.1096 65.5081 74.8983 65.4803 74.7185 65.4154C74.4442 65.3171 74.2551 65.1373 74.1735 64.9001C74.1383 64.8037 74.1402 64.6999 74.1791 64.6053C74.2217 64.5015 74.2996 64.4311 74.357 64.3792C74.6963 64.0733 74.9873 63.6248 75.1819 63.1094C75.3636 62.6275 75.4525 62.1344 75.5267 61.671C75.5749 61.3763 75.6157 61.089 75.6583 60.8072C75.7176 60.3994 75.7751 60.0139 75.8437 59.6209C76.0105 58.6774 76.2218 57.8766 76.5314 57.0258C77.0226 55.6615 77.612 54.49 78.2367 53.2499L78.4499 52.8273C78.4832 52.7587 78.55 52.7142 78.626 52.705C78.702 52.6976 78.7761 52.7272 78.8243 52.7865C78.9392 52.9274 79.1209 56.0082 79.1357 56.3325H79.1376C79.1839 57.0777 79.2154 57.7784 79.145 58.5254C79.2136 58.4327 79.2822 58.3419 79.3507 58.2511C80.1626 57.1741 80.8355 56.3919 81.4676 55.7857C81.7975 55.4688 82.1479 55.1814 82.539 54.909C82.5427 54.9071 82.5464 54.9034 82.5501 54.9015C82.5872 54.8793 83.438 54.3584 83.6845 54.592C83.7476 54.6513 83.7958 54.7681 83.7253 54.8997C82.7318 56.7237 82.1516 58.0323 81.3471 59.8433L81.1284 60.3364C80.1163 62.5348 78.93 63.8694 76.8965 65.1003C76.5036 65.3338 75.8826 65.5081 75.3321 65.5081ZM74.6017 64.7647C74.6425 64.8685 74.7296 64.9427 74.8705 64.9927C75.3506 65.1651 76.2125 64.9872 76.6611 64.711C78.6111 63.5302 79.7474 62.2512 80.7169 60.1455L80.9338 59.6561C81.6752 57.986 82.2276 56.7422 83.0858 55.1277C82.9561 55.187 82.8356 55.2463 82.7855 55.276C82.4167 55.5355 82.0867 55.8061 81.7753 56.1045C81.1617 56.694 80.5037 57.4596 79.7066 58.518C79.4638 58.8405 79.2154 59.1797 78.967 59.5282C78.9059 59.6153 78.7909 59.645 78.6946 59.6042C78.5982 59.5616 78.5426 59.4578 78.5648 59.3521C78.7854 58.29 78.752 57.3669 78.689 56.3585C78.689 56.3492 78.689 56.34 78.689 56.3307C78.7001 56.1305 78.5833 54.6494 78.5018 53.7208C77.9142 54.8904 77.4026 55.934 76.954 57.1778C76.6537 58.0045 76.4461 58.7812 76.2867 59.6988C76.2181 60.0862 76.1625 60.468 76.1032 60.8721C76.0605 61.1557 76.0198 61.4449 75.9716 61.7415C75.8937 62.2271 75.7992 62.7461 75.6027 63.267C75.384 63.8491 75.0503 64.3588 74.6666 64.7054C74.6425 64.7258 74.6147 64.7499 74.6017 64.7647Z" fill="#C6C6C6"/>
<path d="M80.1265 55.4701C80.108 55.4701 80.0913 55.4701 80.0728 55.4683C79.7855 55.4553 79.5575 55.333 79.4166 55.1161C79.3592 55.0327 79.3332 54.9307 79.3443 54.8269C79.3554 54.7139 79.4073 54.623 79.4481 54.5489C79.6909 54.1133 79.8448 53.5405 79.8893 52.9288C79.9301 52.3579 79.8782 51.8074 79.8207 51.292C79.7836 50.9658 79.7447 50.6507 79.7058 50.3393C79.6502 49.8851 79.5964 49.4569 79.5538 49.0139C79.45 47.9555 79.4277 47.025 79.4833 45.9981C79.5668 44.3984 79.7762 43.0044 80.019 41.3936L80.121 40.7096C80.134 40.6262 80.1933 40.5558 80.273 40.5298C80.3546 40.5039 80.4417 40.5243 80.5028 40.5854C80.6252 40.7078 81.6762 44.011 81.7726 44.3224C82.0247 45.1046 82.249 45.8442 82.3898 46.6598C82.4288 46.5393 82.4658 46.4188 82.5048 46.3002C82.9886 44.8062 83.3945 43.7403 83.819 42.8469C84.0433 42.3779 84.2935 41.933 84.5845 41.4882C84.5864 41.4844 84.5901 41.4807 84.592 41.477C84.6606 41.3844 85.2722 40.5706 85.5837 40.7041C85.6671 40.7393 85.7523 40.8375 85.7245 40.9932C85.313 43.2973 85.124 44.947 84.883 47.0342L84.7847 47.8813C84.4381 50.5858 83.68 52.4098 82.0821 54.3932C81.6632 54.9233 80.7864 55.4701 80.1265 55.4701ZM80.4324 41.6661C80.2044 43.1805 80.0098 44.5114 79.9319 46.024C79.8763 47.0287 79.8986 47.9388 80.0005 48.9731C80.0431 49.4106 80.0969 49.8369 80.1525 50.2855C80.1914 50.5988 80.2304 50.9158 80.2674 51.2439C80.3267 51.7796 80.3805 52.3542 80.3379 52.9622C80.2897 53.6387 80.1154 54.2764 79.8466 54.7602C79.8225 54.8028 79.7947 54.8529 79.7929 54.8751C79.8337 54.9307 79.906 55.0123 80.095 55.0216C80.1062 55.0216 80.1173 55.0216 80.1303 55.0216C80.6307 55.0216 81.3944 54.5415 81.7374 54.1133C83.0238 52.5173 83.958 50.8398 84.3436 47.8276L84.4418 46.9823C84.6624 45.0601 84.8422 43.5086 85.1888 41.477C85.0832 41.5901 84.9905 41.6976 84.959 41.7384C84.6809 42.1647 84.4418 42.5892 84.2286 43.0378C83.8116 43.9127 83.4131 44.9619 82.9348 46.4374C82.7939 46.8748 82.6512 47.3308 82.514 47.7942C82.4825 47.898 82.3806 47.9648 82.2749 47.9536C82.1674 47.9407 82.084 47.8554 82.0766 47.746C81.9895 46.5263 81.6966 45.5346 81.3518 44.4577C81.3499 44.4503 81.3481 44.4429 81.3462 44.4336C81.2943 44.2093 80.7716 42.6578 80.4324 41.6661Z" fill="#C6C6C6"/>
<path d="M82.6396 42.9183C82.4765 42.9183 82.3263 42.8609 82.1984 42.7478C82.1224 42.6829 82.0687 42.5902 82.0483 42.4846C82.026 42.3697 82.0409 42.2566 82.0538 42.1658C82.1372 41.5856 82.0965 40.9108 81.9389 40.2565C81.7906 39.6411 81.5608 39.0924 81.355 38.6272C81.1863 38.2453 81.0195 37.8839 80.8564 37.5335C80.6988 37.1943 80.545 36.8625 80.3967 36.5288C79.9703 35.5668 79.6664 34.7271 79.4124 33.8059C78.9731 32.2358 78.7581 30.8512 78.5301 29.3868L78.4986 29.1829C78.4856 29.0958 78.5245 29.0068 78.5987 28.9586C78.6487 28.9252 78.7136 28.9141 78.771 28.9289C78.9657 28.9753 80.8193 31.2738 81.0288 31.5389L81.0306 31.537C81.4699 32.0857 81.8981 32.6436 82.28 33.3221C82.2781 33.2016 82.2781 33.0811 82.2781 32.9624C82.2781 31.5444 82.3449 30.4637 82.4913 29.561C82.5673 29.0976 82.6748 28.649 82.8231 28.1893C82.8231 28.1856 82.8249 28.1838 82.8268 28.1801C82.8305 28.1708 83.1957 27.1791 83.5423 27.2273C83.6294 27.2384 83.7388 27.3033 83.7573 27.4534C84.0002 29.4313 84.2986 30.8549 84.7101 32.8253L84.8639 33.5612C85.3644 36.1229 85.2384 38.2453 84.4302 40.8905C84.2244 41.5782 83.5442 42.6829 82.8546 42.8813C82.7823 42.9091 82.71 42.9183 82.6396 42.9183ZM79.0584 29.8595C79.2567 31.1144 79.468 32.3341 79.8462 33.6854C80.0945 34.5862 80.3911 35.4055 80.8082 36.3472C80.9546 36.679 81.1066 37.0071 81.2642 37.3444C81.4292 37.6985 81.5978 38.0618 81.7665 38.4455C81.9797 38.9293 82.2188 39.5002 82.3764 40.1509C82.5469 40.8589 82.5914 41.5948 82.5006 42.2195C82.4913 42.2881 82.4802 42.3548 82.4876 42.3938C82.5617 42.4679 82.6322 42.4809 82.7304 42.4531C83.1809 42.3233 83.8055 41.415 84.0002 40.7626C84.7972 38.1582 84.9158 36.1655 84.4246 33.652L84.2726 32.9198C83.8982 31.1255 83.6165 29.7816 83.3847 28.0596C83.3217 28.1801 83.268 28.2894 83.2494 28.3358C83.1086 28.7695 83.0066 29.194 82.9343 29.6333C82.7916 30.5101 82.7267 31.5685 82.7267 32.9624C82.7267 33.398 82.7341 33.8559 82.7471 34.3249C82.7508 34.4324 82.6767 34.5269 82.571 34.551C82.4635 34.5751 82.3578 34.5176 82.317 34.4194C81.8611 33.3369 81.3068 32.601 80.6803 31.8188C80.6729 31.8113 80.6673 31.8021 80.6618 31.7928C80.5561 31.613 79.6441 30.5342 79.0584 29.8595Z" fill="#C6C6C6"/>
<path d="M80.7205 30.2989C80.6445 30.2989 80.5685 30.2859 80.4944 30.2618C80.3961 30.2303 80.3146 30.1635 80.2608 30.0709C80.2034 29.9726 80.1922 29.8651 80.1811 29.7798C80.12 29.2719 79.9142 28.7233 79.6009 28.2265C79.3062 27.7575 78.9596 27.3831 78.6296 27.0383C78.3849 26.7844 78.1477 26.5471 77.9141 26.3135C77.6583 26.0577 77.4081 25.8075 77.1634 25.5498C76.5017 24.8566 75.99 24.2226 75.5044 23.496C74.661 22.2411 74.0826 21.0566 73.4709 19.8017L73.4135 19.6831C73.3671 19.5885 73.3931 19.4755 73.4747 19.4106C73.6081 19.2994 73.6118 19.3012 75.015 20.089C75.4896 20.3559 76.2996 20.8156 76.485 20.9547C77.0837 21.3124 77.6398 21.6628 78.1829 22.1336C78.1477 22.0187 78.1143 21.9037 78.0809 21.7925C77.7139 20.5413 77.5008 19.5589 77.4081 18.7025C77.3617 18.2632 77.3506 17.8257 77.3747 17.3623C77.3747 17.3586 77.3747 17.3549 77.3747 17.3512C77.3766 17.3419 77.4878 16.3224 77.8214 16.2687C77.9345 16.2501 78.0383 16.3113 78.0865 16.4207C78.8632 18.1686 79.5472 19.3679 80.4925 21.027L80.7465 21.4737C81.8957 23.5572 82.3109 25.4349 82.1812 27.9559C82.1515 28.5861 81.7771 29.7279 81.1747 30.1394C81.0282 30.2488 80.8744 30.2989 80.7205 30.2989ZM74.1197 20.1075C74.6536 21.1956 75.1596 22.1799 75.877 23.2476C76.3478 23.952 76.8446 24.5674 77.4878 25.2403C77.7288 25.4942 77.9771 25.7408 78.2311 25.9947C78.4665 26.2301 78.7056 26.4692 78.9522 26.725C79.284 27.0698 79.664 27.4813 79.9809 27.9837C80.3294 28.536 80.5574 29.1514 80.626 29.715C80.6316 29.7613 80.639 29.8243 80.6501 29.8447C80.6946 29.854 80.7873 29.8688 80.9244 29.7743C81.3396 29.4907 81.7085 28.5379 81.7363 27.9392C81.8642 25.4738 81.4787 23.7259 80.3591 21.698L80.107 21.2531C79.2413 19.7331 78.5944 18.5968 77.8919 17.0731C77.8604 17.2122 77.8326 17.3419 77.8251 17.3957C77.8029 17.8313 77.8122 18.2446 77.8567 18.6562C77.9456 19.4866 78.1551 20.4431 78.5128 21.6683C78.6241 22.0465 78.7483 22.445 78.8817 22.8546C78.9151 22.9547 78.8725 23.066 78.7816 23.1179C78.6908 23.1716 78.574 23.1531 78.5036 23.0752C77.7899 22.2874 77.0596 21.8203 76.2459 21.3347C76.2366 21.3291 76.2273 21.3235 76.2199 21.3161C76.0716 21.203 74.8667 20.5191 74.1197 20.1075Z" fill="#C6C6C6"/>
<path d="M75.7314 20.0824C75.6331 20.0824 75.5404 20.0491 75.4663 19.9842C75.3792 19.9082 75.3365 19.8099 75.305 19.7376C75.1215 19.3187 74.7897 18.9054 74.3671 18.5661C73.9704 18.2473 73.5422 18.0212 73.1381 17.8173C72.8675 17.682 72.6043 17.5541 72.3485 17.4299C72.0055 17.263 71.6812 17.1055 71.3549 16.9368C70.543 16.516 69.8887 16.0971 69.2325 15.5799C68.0666 14.6642 67.2213 13.7541 66.2444 12.6994C66.1629 12.6123 66.1555 12.4658 66.2389 12.3806C66.339 12.2786 66.339 12.2786 67.8627 12.5882C68.3872 12.6957 69.2844 12.881 69.4957 12.9515C70.1686 13.1035 70.797 13.2573 71.4402 13.5243C71.379 13.4316 71.3178 13.3407 71.2585 13.2499C70.5856 12.223 70.1259 11.3852 69.8108 10.6122C69.6514 10.2192 69.5272 9.81697 69.429 9.38137C69.429 9.37766 69.4271 9.37395 69.4271 9.37025C69.4253 9.36098 69.2696 8.37855 69.5699 8.23582C69.6718 8.18763 69.7867 8.21543 69.8664 8.3044C71.1288 9.76878 72.1038 10.6641 73.5811 12.0172L73.7239 12.1489C75.3662 13.6929 76.2448 15.2481 76.762 17.5225C76.9121 18.1621 76.799 19.2019 76.3894 19.7284C76.2151 19.9527 75.9927 20.075 75.748 20.0806C75.7406 20.0824 75.7351 20.0824 75.7314 20.0824ZM67.0211 12.8792C67.8108 13.7244 68.5522 14.4789 69.5087 15.2277C70.1408 15.7282 70.7729 16.1323 71.5607 16.5401C71.8813 16.7069 72.2039 16.8627 72.5431 17.0276C72.8026 17.1537 73.0677 17.2816 73.3402 17.4187C73.7665 17.6338 74.2188 17.8729 74.6488 18.2177C75.1271 18.6014 75.5052 19.074 75.7147 19.5523C75.7258 19.5782 75.7406 19.6135 75.7517 19.632C75.8555 19.6246 75.9482 19.5653 76.0335 19.454C76.3449 19.0537 76.445 18.1417 76.3227 17.6245C75.8203 15.415 75.0047 13.9728 73.4162 12.4788L73.2753 12.3509C71.9147 11.1034 70.9768 10.2433 69.8479 8.96986C69.8535 9.10888 69.8609 9.24049 69.8683 9.29425C69.9591 9.70205 70.0759 10.0783 70.2242 10.4454C70.5282 11.1905 70.9749 12.0043 71.6311 13.0052C71.8424 13.3259 72.063 13.6522 72.2891 13.9691C72.3503 14.0544 72.3429 14.1712 72.2725 14.249C72.202 14.3269 72.0871 14.3454 71.9963 14.2954C71.1158 13.8023 70.2928 13.5928 69.3826 13.3871C69.3734 13.3852 69.3641 13.3815 69.3548 13.3797C69.1861 13.3185 67.846 13.0405 67.0211 12.8792Z" fill="#C6C6C6"/>
<path d="M68.4213 12.4059C68.3676 12.4059 68.3157 12.3948 68.2638 12.3744C68.16 12.3299 68.0914 12.252 68.0432 12.1946C67.7577 11.8628 67.3333 11.5773 66.8402 11.3845C66.3805 11.2047 65.9097 11.1157 65.4648 11.0397C65.1942 10.9934 64.9328 10.9526 64.6751 10.9137C64.2766 10.8507 63.8985 10.7932 63.5185 10.7209C62.6269 10.5522 61.8873 10.3391 61.1199 10.0295C59.7259 9.46971 58.6286 8.79869 57.4682 8.0869C57.4163 8.05538 57.3792 8.00348 57.3663 7.94231C57.3533 7.883 57.3663 7.81997 57.4015 7.76807C57.4738 7.66427 57.4738 7.66427 59.0086 7.5549C59.5443 7.51598 60.4581 7.45481 60.675 7.46222C61.3627 7.42515 62.0096 7.40105 62.6955 7.4752C62.6139 7.40661 62.5342 7.33988 62.4545 7.2713C61.5536 6.49647 60.8696 5.80692 60.3654 5.16C60.1078 4.83005 59.8816 4.47786 59.6722 4.08674C59.6703 4.08304 59.6685 4.08118 59.6666 4.07748C59.6629 4.06821 59.2533 3.1729 59.5035 2.95603C59.5888 2.88188 59.7074 2.87817 59.8075 2.94305C61.4813 4.05338 62.6955 4.6484 64.5306 5.54927C66.5158 6.55023 67.7689 7.7588 68.8588 9.71995C69.161 10.2557 69.3278 11.2381 69.0905 11.8461C68.983 12.1223 68.7995 12.3095 68.5585 12.3873C68.5122 12.3985 68.4677 12.4059 68.4213 12.4059ZM58.282 8.05353C59.2217 8.6226 60.1578 9.15645 61.2867 9.60873C62.0263 9.90717 62.7399 10.1129 63.6019 10.276C63.9763 10.3465 64.3489 10.4058 64.7456 10.467C65.0051 10.5077 65.2683 10.5485 65.5408 10.5949C66.0079 10.6746 66.5065 10.7691 67.0052 10.9637C67.565 11.1825 68.0543 11.5124 68.3806 11.8924C68.3991 11.9128 68.4195 11.9369 68.4325 11.9499C68.54 11.9091 68.6178 11.8201 68.6734 11.6774C68.8551 11.2084 68.7142 10.3706 68.4677 9.93312C67.4111 8.03129 66.2507 6.91354 64.3304 5.94409C62.6917 5.13961 61.4702 4.54089 59.9669 3.57699C60.0077 3.7086 60.0503 3.82909 60.0707 3.87728C60.2672 4.24245 60.4785 4.57054 60.7176 4.87825C61.2033 5.50107 61.8669 6.17209 62.7455 6.92652C63.0273 7.16749 63.3238 7.41217 63.6315 7.655C63.7131 7.71988 63.7391 7.83295 63.6946 7.92748C63.6501 8.02202 63.5444 8.07392 63.4425 8.04982C62.4712 7.82924 61.6203 7.85334 60.688 7.90524C60.6787 7.90524 60.6713 7.90524 60.662 7.90524C60.4822 7.89412 59.1216 7.98865 58.282 8.05353Z" fill="#C6C6C6"/>
<path d="M59.4049 7.24394C59.3883 7.24394 59.3697 7.24208 59.353 7.24023C59.2418 7.2254 59.1547 7.16794 59.0917 7.12716C58.7302 6.88619 58.2446 6.72677 57.7163 6.67116C57.2269 6.61926 56.7468 6.65819 56.2982 6.70082C56.0424 6.72492 55.7922 6.75272 55.5494 6.77867C55.1323 6.82316 54.7375 6.8658 54.3352 6.89545C53.4325 6.96218 52.6614 6.94365 51.8347 6.83799C50.324 6.64707 49.0357 6.25039 47.7882 5.86483C47.7289 5.84629 47.6788 5.80366 47.6529 5.74805C47.6269 5.69244 47.6232 5.62756 47.6455 5.56825C47.69 5.45518 47.6899 5.45518 49.1432 4.97138C49.6511 4.8027 50.5186 4.51724 50.7281 4.47089C51.3805 4.26329 51.996 4.08163 52.6744 3.98153C52.578 3.93705 52.4835 3.89256 52.3908 3.84807C51.3175 3.33091 50.4741 2.83413 49.8105 2.32994C49.4732 2.07414 49.1617 1.79239 48.8559 1.46615C48.854 1.46429 48.8503 1.46059 48.8485 1.45873C48.8429 1.45132 48.209 0.685765 48.3943 0.413281C48.4592 0.320599 48.5723 0.283526 48.6854 0.324306C50.5557 0.971226 51.8365 1.24186 53.9404 1.66634C56.1221 2.1279 57.6495 2.96203 59.2177 4.54689C59.6496 4.97694 60.0685 5.86854 60.0055 6.5099C59.9759 6.80277 59.848 7.03262 59.6348 7.17165C59.5662 7.21984 59.4865 7.24394 59.4049 7.24394ZM57.2158 6.19849C57.3956 6.19849 57.5773 6.2059 57.7626 6.22629C58.3595 6.28931 58.9174 6.47468 59.3308 6.74902C59.353 6.76385 59.379 6.78053 59.3975 6.7898C59.4902 6.72121 59.5421 6.61555 59.5569 6.46356C59.607 5.97234 59.2511 5.21235 58.8989 4.86201C57.3771 3.32349 55.9609 2.55053 53.8496 2.1038C51.9663 1.7238 50.6687 1.45132 49.0116 0.906348C49.0839 1.01942 49.1562 1.12322 49.1877 1.164C49.4732 1.468 49.766 1.73307 50.0811 1.97219C50.7207 2.45784 51.5381 2.93794 52.5854 3.44213C52.9209 3.60339 53.2731 3.76466 53.6346 3.92036C53.731 3.963 53.7847 4.06495 53.7662 4.16875C53.7458 4.27256 53.6587 4.3467 53.553 4.35041C52.5595 4.38192 51.742 4.61919 50.8541 4.90094C50.8467 4.90279 50.8374 4.90465 50.83 4.9065C50.6558 4.94172 49.3712 5.36435 48.576 5.63313C49.6029 5.94268 50.6799 6.23556 51.894 6.38941C52.6911 6.49136 53.4344 6.5099 54.3056 6.44502C54.7004 6.41721 55.0915 6.37458 55.5049 6.33009C55.7496 6.30414 55.9998 6.27634 56.2593 6.25224C56.5615 6.22629 56.8821 6.19849 57.2158 6.19849Z" fill="#C6C6C6"/>
<path d="M40.0679 6.12125C39.2949 6.12125 38.5553 6.07862 37.8287 6.03598C37.7675 6.03227 37.7101 6.00447 37.6711 5.95813C37.6322 5.91179 37.6118 5.85062 37.6192 5.78945C37.6322 5.66525 37.6322 5.66525 38.9131 4.84965C39.3598 4.56605 40.1235 4.0841 40.3126 3.98957C40.8872 3.63552 41.434 3.31299 42.0605 3.05348C41.9549 3.03309 41.8492 3.01084 41.7454 2.99045C40.5702 2.74577 39.623 2.46588 38.8463 2.13593C38.4515 1.96725 38.0752 1.76891 37.6934 1.52608C37.6897 1.52423 37.6878 1.52237 37.6841 1.52052C37.6767 1.51496 36.8555 0.931063 36.9723 0.615944C37.0112 0.510287 37.115 0.450971 37.2337 0.458385C39.2282 0.641895 40.6017 0.595554 42.676 0.50658C44.9059 0.430581 46.6057 0.869893 48.5427 2.01915C49.0803 2.33241 49.7253 3.09797 49.8254 3.73376C49.8699 4.01922 49.805 4.26761 49.6401 4.45298C49.5715 4.53083 49.4825 4.57902 49.3824 4.59014C49.2731 4.60497 49.173 4.56975 49.1025 4.54566C48.6873 4.40293 48.1757 4.36585 47.6511 4.44185C47.1655 4.51044 46.7299 4.65688 46.2868 4.81443C46.0533 4.89785 45.8271 4.98126 45.6047 5.06282C45.2043 5.20926 44.828 5.34828 44.4388 5.47618C43.5842 5.75608 42.8335 5.92476 42.0031 6.01745C41.3302 6.09344 40.6889 6.12125 40.0679 6.12125ZM38.5312 5.62633C39.6397 5.68379 40.7278 5.7116 41.953 5.57072C42.7519 5.47989 43.4749 5.31862 44.2997 5.04799C44.6816 4.9238 45.0542 4.78663 45.4508 4.64019C45.6751 4.55863 45.9013 4.47522 46.1367 4.38995C46.5834 4.23239 47.0617 4.07113 47.5862 3.99513C48.1794 3.90986 48.767 3.95249 49.2397 4.11747C49.2656 4.12673 49.2953 4.136 49.3157 4.14156C49.3843 4.0563 49.4047 3.94693 49.3824 3.80235C49.3064 3.31299 48.7559 2.66051 48.3147 2.40471C46.4333 1.28881 44.8577 0.882868 42.6945 0.95516C40.7834 1.03857 39.4636 1.08306 37.7064 0.949599C37.8064 1.04043 37.901 1.12199 37.9418 1.1535C38.2995 1.37964 38.6536 1.56686 39.0224 1.72442C39.7713 2.04325 40.6926 2.31388 41.8381 2.553C42.2088 2.629 42.5925 2.70129 42.9799 2.76616C43.0837 2.78285 43.1616 2.86997 43.1672 2.97563C43.1727 3.08128 43.106 3.17582 43.004 3.20362C42.0513 3.4724 41.3525 3.87649 40.5387 4.37883C40.5313 4.38254 40.5239 4.38624 40.5165 4.38995C40.3589 4.4641 39.23 5.17589 38.5312 5.62633Z" fill="#C6C6C6"/>
<path d="M28.1978 8.6035C28.1514 8.6035 28.107 8.58867 28.0699 8.56272C28.0198 8.5275 27.9865 8.47374 27.9772 8.41443C27.9568 8.29023 27.9568 8.29023 28.9819 7.18732C29.3378 6.80361 29.9476 6.15113 30.107 6.01211C30.5686 5.53016 31.0097 5.08529 31.5492 4.68491C31.4379 4.69047 31.3286 4.69603 31.2174 4.69973C30.0143 4.74608 29.0208 4.7053 28.1848 4.57554C27.7603 4.51066 27.3433 4.40871 26.9076 4.26784C26.9039 4.26598 26.9021 4.26598 26.8984 4.26413C26.8891 4.26042 25.9382 3.89711 25.9716 3.5616C25.9808 3.46892 26.0513 3.36512 26.1866 3.34473C28.1533 3.03331 29.4119 2.67556 31.4657 2.06942C33.603 1.46328 35.3639 1.48182 37.5457 2.13245C38.1574 2.3104 38.9878 2.90171 39.2455 3.50043C39.3567 3.75994 39.3585 4.01018 39.2492 4.2252C39.2028 4.31789 39.1268 4.38832 39.0323 4.42354C38.9285 4.46247 38.8247 4.4532 38.7487 4.44764C38.3075 4.40686 37.8033 4.49398 37.3158 4.69047C36.8654 4.87212 36.4817 5.11866 36.0961 5.37446C35.8885 5.51348 35.6902 5.6488 35.4937 5.78226C35.1489 6.01767 34.8227 6.24011 34.4835 6.45513C33.7309 6.93151 33.0469 7.27258 32.2702 7.56361C30.88 8.08819 29.5973 8.33657 28.2386 8.59979C28.2256 8.60164 28.2108 8.6035 28.1978 8.6035ZM32.3796 4.18072C32.4778 4.18072 32.565 4.24374 32.5928 4.33828C32.6243 4.43837 32.5816 4.54588 32.4908 4.59964C31.64 5.089 31.0505 5.6729 30.4221 6.32908C30.4166 6.33464 30.4092 6.34206 30.4018 6.34762C30.2683 6.45884 29.3656 7.42458 28.8095 8.03072C29.9105 7.81199 30.9801 7.57102 32.1145 7.14283C32.8615 6.86293 33.5196 6.53484 34.2462 6.07513C34.578 5.86567 34.9005 5.64509 35.2435 5.41153C35.4399 5.27622 35.642 5.13905 35.8496 5.00002C36.2389 4.74051 36.6615 4.46988 37.149 4.2734C37.7014 4.04911 38.2816 3.95272 38.7821 3.99721C38.808 3.99906 38.8377 4.00277 38.8581 4.00277C38.897 3.91009 38.8896 3.80257 38.834 3.67653C38.6375 3.22424 37.9127 2.70522 37.4178 2.56064C35.2954 1.92669 33.6604 1.91001 31.5881 2.49761C29.7567 3.03702 28.4869 3.40033 26.7686 3.69877C26.891 3.76365 27.004 3.81926 27.0504 3.83965C27.4582 3.97125 27.8512 4.06579 28.2497 4.12696C29.0579 4.25115 30.0218 4.29008 31.1951 4.24559C31.5844 4.23076 31.9755 4.20667 32.3573 4.17701C32.3666 4.18072 32.3722 4.18072 32.3796 4.18072Z" fill="#C6C6C6"/>
<path d="M19.5671 13.5759C19.5393 13.5759 19.5134 13.5703 19.4874 13.5611C19.4281 13.5388 19.3818 13.4925 19.3595 13.4332C19.315 13.3201 19.315 13.3201 20.0027 11.9799C20.2437 11.5128 20.6552 10.7176 20.7757 10.5378C21.0927 9.94649 21.4022 9.39781 21.8175 8.86767C21.7099 8.90289 21.6024 8.93626 21.4949 8.96962C20.3216 9.33293 19.3818 9.5461 18.5365 9.64434C18.1065 9.69254 17.6764 9.70552 17.2241 9.68513C17.2204 9.68513 17.2167 9.68513 17.213 9.68513C17.2019 9.68513 16.188 9.58317 16.1323 9.25137C16.1138 9.14016 16.1713 9.03635 16.2806 8.9863C18.1361 8.13363 19.2909 7.42739 21.0371 6.35599C22.937 5.22156 24.6443 4.79708 26.9335 4.88976C27.5749 4.91201 28.535 5.28273 28.9428 5.7999C29.1171 6.02048 29.1838 6.26146 29.1356 6.49501C29.1152 6.59882 29.0596 6.68594 28.9762 6.7434C28.8854 6.80828 28.7797 6.82496 28.7037 6.83608C28.2718 6.90467 27.8066 7.11228 27.3876 7.42369C27.0002 7.711 26.6962 8.0428 26.3922 8.38758C26.2236 8.58036 26.0604 8.76757 25.9029 8.95294C25.6378 9.26064 25.3876 9.55166 25.1225 9.83898C24.5219 10.4915 23.9547 10.9975 23.2818 11.4794C22.1122 12.3247 21.0111 12.8771 19.7358 13.5184L19.6709 13.5518C19.6357 13.5685 19.6024 13.5759 19.5671 13.5759ZM22.5404 8.16329C22.6164 8.16329 22.6887 8.20221 22.7294 8.26709C22.785 8.35607 22.7721 8.47099 22.6979 8.54514C22.0047 9.2384 21.5932 9.95946 21.1631 10.7602C21.1594 10.7676 21.1538 10.7769 21.1483 10.7843C21.0463 10.9271 20.4328 12.1134 20.0602 12.8511C21.1001 12.3247 22.038 11.8224 23.0149 11.1161C23.6637 10.6509 24.2105 10.1634 24.7888 9.53498C25.0483 9.25323 25.2967 8.96591 25.5581 8.66006C25.7175 8.4747 25.8806 8.28378 26.0512 8.091C26.3589 7.74251 26.6944 7.37549 27.1151 7.06408C27.5897 6.71004 28.1254 6.47277 28.624 6.39492C28.6481 6.39121 28.6759 6.3875 28.6963 6.38194C28.7093 6.28555 28.6722 6.18546 28.5869 6.07795C28.2774 5.68312 27.434 5.35688 26.915 5.3402C24.6887 5.24937 23.1057 5.64419 21.2669 6.74155C19.7154 7.69246 18.5588 8.40241 16.9313 9.17723C17.0684 9.20689 17.1963 9.23284 17.2482 9.24025C17.6764 9.25879 18.0787 9.24767 18.4809 9.20133C19.2965 9.10864 20.2103 8.89918 21.3577 8.54514C21.7136 8.43392 22.0862 8.31158 22.4625 8.17997C22.4903 8.167 22.5163 8.16329 22.5404 8.16329Z" fill="#C6C6C6"/>
<path d="M12.6033 20.9525C12.594 20.9525 12.5847 20.9525 12.5755 20.9507C12.5069 20.9433 12.4476 20.9043 12.4123 20.845C12.3067 20.6726 12.9295 17.8903 13.0018 17.5808C13.1482 16.8986 13.2984 16.261 13.5579 15.6104C13.4633 15.6752 13.3707 15.7401 13.278 15.8013C12.2344 16.5075 11.3891 16.9969 10.618 17.3398C10.2195 17.5159 9.81168 17.6586 9.36866 17.7773C9.36496 17.7791 9.36125 17.7791 9.35754 17.7791C9.34642 17.781 8.35472 17.9849 8.20087 17.6827C8.14897 17.5826 8.17307 17.464 8.26204 17.3824C9.74866 16.0274 10.644 15.0265 11.9971 13.512L12.1269 13.3675C13.6469 11.7103 15.178 10.8206 17.4153 10.2904C18.0344 10.1384 19.0558 10.2404 19.5896 10.6333C19.8213 10.802 19.9511 11.0207 19.9659 11.2617C19.9733 11.3655 19.9437 11.4656 19.8788 11.5453C19.8065 11.6343 19.7083 11.6769 19.6378 11.7103C19.2411 11.8901 18.8482 12.2182 18.5293 12.6353C18.2309 13.0227 18.0196 13.4472 17.8287 13.8494C17.7119 14.0959 17.6007 14.3351 17.4932 14.5705C17.3263 14.9338 17.1688 15.2767 16.9945 15.6233C16.5923 16.4315 16.1826 17.0914 15.6655 17.7606C14.8054 18.8839 13.9397 19.731 12.9369 20.7116L12.7571 20.8877C12.7182 20.9284 12.6626 20.9525 12.6033 20.9525ZM14.1251 14.7058C14.1789 14.7058 14.2308 14.7243 14.2734 14.7614C14.3531 14.83 14.3735 14.9449 14.3216 15.0376C13.8396 15.9218 13.6376 16.7559 13.4392 17.6735C13.4374 17.6827 13.4355 17.692 13.4318 17.7013C13.3707 17.8736 13.1019 19.2361 12.9443 20.0795C13.8026 19.2379 14.5644 18.4668 15.3133 17.4862C15.8119 16.8393 16.2086 16.2017 16.5979 15.4213C16.7684 15.0821 16.9241 14.741 17.0891 14.3814C17.1984 14.1441 17.3096 13.9013 17.4283 13.6548C17.6303 13.2303 17.8546 12.7817 18.179 12.3591C18.5423 11.8864 18.9946 11.5101 19.4543 11.3006C19.4747 11.2914 19.5025 11.2784 19.521 11.2691C19.5062 11.1672 19.4432 11.0782 19.3283 10.9929C18.9205 10.6927 18.0233 10.6018 17.5247 10.7242C15.3522 11.2376 13.9342 12.0625 12.4624 13.6659L12.3345 13.8086C11.1315 15.1544 10.2325 16.159 8.93491 17.3713C9.07764 17.3602 9.20925 17.3454 9.26486 17.3361C9.68007 17.2249 10.0656 17.0914 10.4382 16.9246C11.1852 16.5928 12.0064 16.1164 13.0277 15.425C13.3373 15.2137 13.6635 14.9857 13.9935 14.7447C14.0324 14.7206 14.0788 14.7058 14.1251 14.7058ZM9.31306 17.5585H9.31491H9.31306Z" fill="#C6C6C6"/>
<path d="M7.94942 30.7324C7.88268 30.7324 7.81781 30.7027 7.77517 30.6508C7.66025 30.5099 7.47859 27.4292 7.46376 27.1066H7.46191C7.41557 26.3615 7.38406 25.6608 7.4545 24.9138C7.38591 25.0065 7.31733 25.0973 7.24874 25.1881C6.43685 26.2632 5.76398 27.0473 5.13189 27.6535C4.80009 27.9723 4.44975 28.2596 4.06049 28.5302C4.05678 28.5321 4.05307 28.5358 4.04937 28.5377C4.0401 28.5432 3.16147 29.0808 2.91493 28.8472C2.85191 28.7879 2.80372 28.6711 2.87601 28.5395C3.86771 26.7174 4.4479 25.4087 5.25237 23.5977L5.47296 23.1028C6.48504 20.9044 7.67137 19.5697 9.70481 18.3389C10.2516 18.0034 11.2563 17.794 11.881 18.0183C12.1553 18.1165 12.3444 18.2963 12.426 18.5336C12.4612 18.63 12.4593 18.7338 12.4204 18.8283C12.3778 18.934 12.2981 19.0044 12.2406 19.0544C11.9014 19.3603 11.6122 19.807 11.4176 20.3242C11.2359 20.808 11.1469 21.2992 11.0728 21.7626C11.0246 22.0573 10.9838 22.3428 10.943 22.6227C10.8837 23.0305 10.8263 23.4179 10.7558 23.8109C10.5909 24.7544 10.3777 25.5551 10.0681 26.4078C9.57691 27.7721 8.9856 28.9455 8.36278 30.1855L8.15146 30.6063C8.1181 30.6749 8.05137 30.7212 7.97537 30.7287C7.9661 30.7324 7.95868 30.7324 7.94942 30.7324ZM7.8141 23.8127C7.84376 23.8127 7.87527 23.8183 7.90307 23.8313C7.99946 23.8739 8.05507 23.9777 8.03283 24.0834C7.81225 25.1436 7.84561 26.0668 7.90864 27.077C7.90864 27.0863 7.90864 27.0955 7.90864 27.1048C7.89751 27.305 8.01429 28.786 8.09585 29.7147C8.68346 28.5451 9.19692 27.5015 9.6455 26.2577C9.94579 25.4291 10.1534 24.6524 10.3147 23.7367C10.3832 23.3493 10.4389 22.9656 10.5 22.5597C10.5408 22.2761 10.5834 21.9887 10.6316 21.6922C10.7095 21.2065 10.8022 20.6893 11.0005 20.1666C11.2192 19.5846 11.551 19.0748 11.9366 18.7282C11.9588 18.7078 11.9866 18.6837 11.9996 18.667C11.9588 18.5632 11.8717 18.4891 11.7308 18.439C11.2507 18.2666 10.3888 18.4446 9.94023 18.7208C8.31459 19.7051 7.00221 20.858 5.88447 23.2863L5.66574 23.7794C4.92428 25.4476 4.3719 26.6914 3.51366 28.3041C3.64342 28.2448 3.7639 28.1836 3.81395 28.1558C4.18097 27.8981 4.51092 27.6275 4.82418 27.3272C5.43774 26.7378 6.09578 25.9704 6.89285 24.9138C7.14123 24.5857 7.38962 24.2446 7.63244 23.9036C7.67508 23.8461 7.74367 23.8127 7.8141 23.8127ZM3.93443 28.3467H3.93629H3.93443Z" fill="#C6C6C6"/>
<path d="M6.25757 42.9174C6.19825 42.9174 6.14079 42.8933 6.09815 42.8506C5.98508 42.7357 4.92481 39.4251 4.82842 39.1137C4.57632 38.3315 4.35203 37.5919 4.21115 36.7763C4.17223 36.8986 4.13515 37.0172 4.09623 37.1359C3.61243 38.6318 3.20648 39.6976 2.782 40.5892C2.55771 41.0582 2.30747 41.5031 2.01644 41.9479C2.01459 41.9516 2.01088 41.9553 2.00903 41.959C1.89596 42.111 1.31947 42.8599 1.01733 42.7302C0.933917 42.6949 0.848654 42.5967 0.876458 42.441C1.28797 40.1351 1.47889 38.4853 1.71801 36.3944L1.8144 35.5529C2.16103 32.8484 2.91916 31.0244 4.517 29.0429C4.9489 28.4979 5.8646 27.9307 6.5282 27.9678C6.81551 27.9808 7.04351 28.1031 7.18439 28.32C7.24185 28.4052 7.2678 28.5053 7.25668 28.6091C7.24556 28.7222 7.19551 28.813 7.15473 28.8853C6.9119 29.3228 6.7562 29.8956 6.71356 30.5073C6.67278 31.08 6.72468 31.6287 6.78215 32.144C6.81922 32.4703 6.85815 32.7872 6.89707 33.1005C6.95268 33.5528 7.00644 33.981 7.04907 34.4222C7.15288 35.4806 7.17512 36.4111 7.11766 37.438C7.03424 39.0396 6.82478 40.4317 6.58196 42.0443L6.48 42.7283C6.46703 42.8117 6.40772 42.8822 6.32801 42.9081C6.30391 42.9137 6.27981 42.9174 6.25757 42.9174ZM6.47259 28.4145C5.97211 28.4145 5.20841 28.8946 4.86549 29.3228C3.57906 30.9188 2.64483 32.5963 2.25927 35.6085L2.16288 36.4482C1.9423 38.3723 1.7625 39.9256 1.41587 41.959C1.51967 41.846 1.61235 41.7403 1.64572 41.6977C1.92376 41.2713 2.16288 40.8469 2.37605 40.3983C2.79127 39.5234 3.19165 38.4761 3.66989 36.9987C3.81262 36.5538 3.9535 36.0997 4.09067 35.6418C4.12218 35.538 4.22598 35.4732 4.32979 35.4824C4.4373 35.4954 4.52071 35.5825 4.52812 35.69C4.61524 36.9116 4.90812 37.9014 5.2529 38.9784C5.25475 38.9858 5.2566 38.9932 5.25846 39.0025C5.3048 39.2268 5.82567 40.7801 6.16674 41.7718C6.39474 40.2574 6.58937 38.9265 6.66722 37.4139C6.72283 36.4093 6.70059 35.4991 6.59864 34.4648C6.55601 34.0273 6.5041 33.6047 6.44664 33.1543C6.40771 32.841 6.36879 32.5222 6.33171 32.1922C6.2724 31.6565 6.21864 31.0838 6.26128 30.4739C6.30947 29.7973 6.48371 29.1597 6.75249 28.6759C6.77659 28.6314 6.80439 28.5832 6.80625 28.561C6.76547 28.5053 6.69132 28.4238 6.5041 28.4145C6.49483 28.4145 6.48371 28.4145 6.47259 28.4145ZM1.82738 41.8256H1.82923H1.82738Z" fill="#C6C6C6"/>
</svg>
