<svg width="30" height="27" viewBox="0 0 30 27" fill="none" xmlns="http://www.w3.org/2000/svg">
<path d="M10.0301 23.7968H8.71927V25.5319H20.8965V23.7968H19.5857L19.1727 21.6953H10.4431L10.0301 23.7968Z" fill="white"/>
<path d="M10.9266 9.30112L11.3311 7.15686H6.58371L6.98813 9.30112H10.9266Z" fill="white"/>
<path d="M0 17.8776H29.6137V19.9601H0V17.8776Z" fill="white"/>
<path d="M29.6137 0H0V16.1425H29.6137V0ZM7.96613 13.8515H6.23098V12.1163H7.96613V13.8515ZM11.6832 13.8515H9.94808V12.1163H11.6832V13.8515ZM4.3394 4.62033H3.33595V2.88515H5.77787L6.25638 5.42175H13.4239L12.3648 11.0364H5.54941L4.3394 4.62033ZM26.2609 12.5673H17.4103V10.8321H26.2609V12.5673ZM26.2609 9.09675H17.4103V7.36155H26.2609V9.09675ZM17.4103 5.62616V3.89098H26.2609V5.62616H17.4103Z" fill="white"/>
</svg>
