<svg width="30" height="30" viewBox="0 0 30 30" fill="none" xmlns="http://www.w3.org/2000/svg">
<path d="M29.3969 21.3036L28.8329 21.0216L16.1206 27.3777C15.3909 27.7474 14.4919 27.7474 13.7623 27.3777L1.04994 21.0216L0.485859 21.3036C0.188086 21.4525 0 21.7568 0 22.0897C0 22.4227 0.188086 22.727 0.485859 22.8758L14.5484 29.9071C14.7958 30.0308 15.0871 30.0308 15.3344 29.9071L29.3969 22.8758C29.6947 22.727 29.8828 22.4227 29.8828 22.0897C29.8828 21.7568 29.6947 21.4525 29.3969 21.3036Z" fill="white"/>
<path d="M29.3969 17.202L28.8329 16.92L16.1206 23.2761C15.3909 23.6457 14.4919 23.6457 13.7623 23.2761L1.04994 16.92L0.485859 17.202C0.188086 17.3508 0 17.6552 0 17.9881C0 18.321 0.188086 18.6254 0.485859 18.7742L14.5484 25.8054C14.7958 25.9292 15.0871 25.9292 15.3344 25.8054L29.3969 18.7742C29.6947 18.6254 29.8828 18.321 29.8828 17.9881C29.8828 17.6552 29.6947 17.3508 29.3969 17.202Z" fill="white"/>
<path d="M7.21213 10.3429L8.96992 13.3876C9.21262 13.8079 9.75015 13.952 10.1706 13.7092L10.8943 13.2913C11.3332 13.6241 11.8046 13.8983 12.3047 14.1116V14.9414C12.3047 15.4268 12.6982 15.8203 13.1836 15.8203H16.6992C17.1846 15.8203 17.5781 15.4268 17.5781 14.9414V14.1116C18.0782 13.8983 18.5496 13.6241 18.9885 13.2913L19.7122 13.7092C20.1325 13.9519 20.6701 13.8079 20.9128 13.3876L22.6706 10.3429C22.9133 9.92257 22.7693 9.38505 22.3489 9.14235L21.6283 8.72618C21.6625 8.4525 21.6797 8.17965 21.6797 7.91017C21.6797 7.64062 21.6625 7.36781 21.6283 7.09412L22.349 6.67799C22.7693 6.43529 22.9134 5.89775 22.6707 5.4774L20.9128 2.43275C20.6701 2.0124 20.1326 1.86832 19.7123 2.11108L18.9885 2.52891C18.5497 2.19621 18.0782 1.92194 17.5781 1.7086V0.87891C17.5781 0.393515 17.1846 0 16.6992 0H13.1836C12.6982 0 12.3047 0.393515 12.3047 0.87891V1.7086C11.8046 1.92194 11.3331 2.19621 10.8943 2.52891L10.1706 2.11102C9.75022 1.86832 9.2127 2.01235 8.97 2.43269L7.21219 5.47735C6.96949 5.89769 7.11352 6.43523 7.5339 6.67793L8.25457 7.09406C8.22037 7.36781 8.20312 7.64062 8.20312 7.91017C8.20312 8.17965 8.22037 8.4525 8.2545 8.72618L7.53382 9.14235C7.11346 9.38505 6.96943 9.92257 7.21213 10.3429ZM14.9414 5.27344C16.3953 5.27344 17.5781 6.45627 17.5781 7.91017C17.5781 9.36405 16.3953 10.5469 14.9414 10.5469C13.4875 10.5469 12.3047 9.36405 12.3047 7.91017C12.3047 6.45627 13.4875 5.27344 14.9414 5.27344Z" fill="white"/>
<path d="M0.485859 14.6729L14.5484 21.7041C14.7958 21.8279 15.0871 21.8279 15.3344 21.7041L29.3969 14.6729C29.6947 14.5241 29.8828 14.2197 29.8828 13.8868C29.8828 13.5539 29.6947 13.2495 29.3969 13.1007L24.4453 10.6249C24.3872 10.8292 24.3039 11.0297 24.1931 11.2218L22.4352 14.2665C21.9658 15.0797 21.0904 15.585 20.1509 15.585C20.1509 15.585 20.1509 15.585 20.1508 15.585C19.8568 15.585 19.5652 15.5354 19.2888 15.4397C19.0552 16.6562 17.9828 17.5782 16.6992 17.5782H13.1836C11.9 17.5782 10.8277 16.6562 10.5941 15.4397C10.3176 15.5354 10.026 15.585 9.73192 15.585C8.7924 15.585 7.91708 15.0797 7.44756 14.2664L5.68981 11.222C5.57988 11.0316 5.49521 10.8315 5.43621 10.6256L0.485859 13.1007C0.188086 13.2495 0 13.5539 0 13.8868C0 14.2197 0.188086 14.5241 0.485859 14.6729Z" fill="white"/>
</svg>
