<svg width="30" height="30" viewBox="0 0 30 30" fill="none" xmlns="http://www.w3.org/2000/svg">
<path d="M5.27344 10.6641C3.33451 10.6641 1.75781 9.08737 1.75781 7.14844C1.75781 5.20951 3.33451 3.63281 5.27344 3.63281C7.21236 3.63281 8.7891 5.20951 8.7891 7.14844C8.7891 9.08737 7.21236 10.6641 5.27344 10.6641Z" fill="white"/>
<path d="M24.7266 10.6641C22.7876 10.6641 21.2109 9.08737 21.2109 7.14844C21.2109 5.20951 22.7876 3.63281 24.7266 3.63281C26.6655 3.63281 28.2422 5.20951 28.2422 7.14844C28.2422 9.08737 26.6655 10.6641 24.7266 10.6641Z" fill="white"/>
<path d="M15 8.7891C12.577 8.7891 10.6055 6.81756 10.6055 4.39453C10.6055 1.9715 12.577 0 15 0C17.423 0 19.3946 1.9715 19.3946 4.39453C19.3946 6.81756 17.423 8.7891 15 8.7891Z" fill="white"/>
<path d="M15.8789 8.87769V14.9412C15.8789 15.427 15.4858 15.8201 15 15.8201C14.5142 15.8201 14.1211 15.427 14.1211 14.9412V8.87769C11.1475 9.30879 8.84767 11.8501 8.84767 14.9412V20.2146C8.84767 20.7005 9.24075 21.0935 9.7266 21.0935H11.6956L12.3667 29.1947C12.4045 29.6496 12.7855 29.9998 13.2421 29.9998H16.7578C17.2144 29.9998 17.5955 29.6496 17.6332 29.1947L18.3044 21.0935H20.2734C20.7592 21.0935 21.1523 20.7005 21.1523 20.2146V14.9412C21.1523 11.8501 18.8525 9.30879 15.8789 8.87769Z" fill="white"/>
<path d="M7.03125 20.3321V15.0586C7.03125 13.7412 7.38574 12.5169 7.95765 11.4233C7.16848 10.9523 6.25746 10.6641 5.27344 10.6641C2.36549 10.6641 0 13.0295 0 15.9375V20.3321C0 20.8179 0.393106 21.2109 0.87891 21.2109H1.84108L2.641 29.2086C2.68565 29.6576 3.06416 30 3.51562 30H7.03125C7.48271 30 7.8612 29.6576 7.9059 29.2086L8.55547 22.7139C7.65817 22.2929 7.03125 21.3872 7.03125 20.3321Z" fill="white"/>
<path d="M29.9993 15.9375C29.9993 13.0295 27.6338 10.6641 24.7259 10.6641C23.7419 10.6641 22.8309 10.9523 22.0417 11.4233C22.6136 12.5169 22.9681 13.7412 22.9681 15.0586V20.3321C22.9681 21.3872 22.3412 22.2929 21.4438 22.7139L22.0935 29.2086C22.1381 29.6576 22.5166 30 22.9681 30H26.4837C26.9352 30 27.3137 29.6576 27.3583 29.2086L28.1583 21.2109H29.1204C29.6062 21.2109 29.9993 20.8179 29.9993 20.3321V15.9375Z" fill="white"/>
</svg>
