<svg width="25" height="30" viewBox="0 0 25 30" fill="none" xmlns="http://www.w3.org/2000/svg">
<mask id="mask0" style="mask-type:alpha" maskUnits="userSpaceOnUse" x="0" y="0" width="25" height="30">
<path d="M12.2354 11.6197C14.7855 11.6197 16.6334 13.4777 16.6334 16.0406V18.3109H16.8324C17.8336 18.3109 18.4144 18.4159 18.7811 18.6125C19.1434 18.8049 19.4394 19.102 19.6303 19.4651C19.8253 19.8336 19.9294 20.1979 19.9294 21.2042V26.5893C19.9294 27.5947 19.8253 27.9591 19.6303 28.3276C19.4389 28.6906 19.1431 28.9878 18.7811 29.181C18.4144 29.3768 18.0517 29.4817 17.0514 29.4817H7.42036C6.42002 29.4817 6.05655 29.3768 5.69061 29.181C5.32863 28.9878 5.03284 28.6906 4.84142 28.3276C4.64647 27.9591 4.54156 27.5947 4.54156 26.5893V21.2042C4.54156 20.1979 4.64647 19.8336 4.84142 19.4651C5.03236 19.102 5.32828 18.8049 5.69061 18.6125C6.05655 18.4159 6.42002 18.3109 7.42036 18.3109H7.84251V16.0406C7.84251 13.4777 9.68622 11.6197 12.2354 11.6197ZM12.2354 13.8545C11.0211 13.8545 10.0373 14.8707 10.0373 16.1249V18.3059H14.4344V16.1249C14.4344 14.8707 13.4498 13.8545 12.2354 13.8545ZM20.8785 8.44052C20.9994 8.56123 21.0954 8.70466 21.1609 8.86252C21.2264 9.02037 21.2601 9.18959 21.2601 9.36045C21.2601 9.53137 21.2264 9.70059 21.1609 9.85845C21.0954 10.0163 20.9994 10.1597 20.8785 10.2804C20.6335 10.524 20.3021 10.6607 19.9566 10.6607C19.6111 10.6607 19.2797 10.524 19.0347 10.2804C15.3439 6.59648 9.35993 6.59648 5.66748 10.2804C5.42272 10.5242 5.0914 10.661 4.74601 10.661C4.40063 10.661 4.0693 10.5242 3.82455 10.2804C3.70358 10.1597 3.60761 10.0163 3.54213 9.85845C3.47666 9.70059 3.44296 9.53137 3.44296 9.36045C3.44296 9.18959 3.47666 9.02037 3.54213 8.86252C3.60761 8.70466 3.70358 8.56123 3.82455 8.44052C8.53472 3.74037 16.1691 3.74037 20.8785 8.44052ZM23.9539 5.3696C24.1929 5.614 24.3268 5.9423 24.3268 6.28419C24.3268 6.62608 24.1929 6.95437 23.9539 7.1988C23.8363 7.31866 23.696 7.41387 23.5412 7.47887C23.3864 7.54387 23.2201 7.57737 23.0523 7.57737C22.8844 7.57737 22.7181 7.54387 22.5633 7.47887C22.4085 7.41387 22.2682 7.31866 22.1506 7.1988C20.8581 5.87967 19.3155 4.83174 17.613 4.11634C15.9106 3.40094 14.0825 3.03245 12.2359 3.03245C10.3892 3.03245 8.56115 3.40094 6.85871 4.11634C5.15626 4.83174 3.61361 5.87967 2.32112 7.1988C2.20361 7.31866 2.06338 7.41387 1.90864 7.47887C1.75389 7.5438 1.58774 7.5773 1.41989 7.5773C1.25206 7.5773 1.0859 7.5438 0.931156 7.47887C0.776406 7.41387 0.636178 7.31866 0.518667 7.1988C0.279224 6.95458 0.145096 6.6262 0.145096 6.28419C0.145096 5.94217 0.279224 5.61379 0.518667 5.3696C2.04602 3.81035 3.86911 2.57162 5.88117 1.72596C7.89322 0.880289 10.0538 0.444702 12.2363 0.444702C14.4188 0.444702 16.5794 0.880289 18.5914 1.72596C20.6034 2.57162 22.4266 3.81035 23.9539 5.3696Z" fill="white"/>
</mask>
<g mask="url(#mask0)">
<path fill-rule="evenodd" clip-rule="evenodd" d="M0.125565 29.5353H24.4117V0.387512H0.125565V29.5353Z" fill="#FFFFFE"/>
</g>
</svg>
