<svg width="78" height="84" viewBox="0 0 78 84" fill="none" xmlns="http://www.w3.org/2000/svg">
<path d="M37.0906 72.2884H9C5.68629 72.2884 3 69.6021 3 66.2884V9.00001C3 5.6863 5.68629 3 9 3H65.1812C68.495 3 71.1813 5.68629 71.1813 9V37.6442" stroke="#9558EC" stroke-width="6"/>
<line x1="3.92578" y1="28.4312" x2="70.5924" y2="28.4312" stroke="#9558EC" stroke-width="5"/>
<ellipse cx="15.5009" cy="15.7029" rx="3.40906" ry="3.46442" fill="#9558EC"/>
<ellipse cx="24.5907" cy="15.7029" rx="3.40906" ry="3.46442" fill="#9558EC"/>
<line x1="25.8496" y1="28.6089" x2="25.8496" y2="72.0754" stroke="#9558EC" stroke-width="5"/>
<line x1="48.6816" y1="16.6672" x2="61.8633" y2="16.6672" stroke="#9558EC" stroke-width="5" stroke-linecap="round"/>
<path fill-rule="evenodd" clip-rule="evenodd" d="M52.4645 51.8597L77.2879 66.9308C78.5138 67.7241 78.0541 69.6278 76.675 69.7864L64.2633 71.8488L58.134 83.2711C57.5211 84.3816 55.6824 84.223 55.5291 82.7952L50.166 53.4461C50.0128 52.177 51.3919 51.2251 52.4645 51.8597Z" fill="#9558EC"/>
<path fill-rule="evenodd" clip-rule="evenodd" d="M43.1174 38.3752L47.7143 45.0382C48.4805 46.3074 46.6417 47.7352 45.7223 46.466L41.2786 39.803C40.3592 38.5338 42.3513 37.106 43.1174 38.3752Z" fill="#9558EC"/>
<path fill-rule="evenodd" clip-rule="evenodd" d="M54.6111 36.7886L53.2321 44.7208C52.9256 46.3073 50.7804 45.8313 50.9336 44.4035L52.3127 36.3127C52.6191 34.7263 54.9176 35.2022 54.6111 36.7886Z" fill="#9558EC"/>
<path fill-rule="evenodd" clip-rule="evenodd" d="M63.8023 43.9273L57.5198 48.6866C56.1407 49.4799 54.9149 47.5761 56.1407 46.6243L62.5764 42.0236C63.8023 41.0717 65.1813 43.1341 63.8023 43.9273Z" fill="#9558EC"/>
<path fill-rule="evenodd" clip-rule="evenodd" d="M36.2229 48.053L43.8845 49.4808C45.4168 49.6394 44.9571 52.0191 43.578 51.7018L35.7632 50.4326C34.2309 50.1153 34.6906 47.7357 36.2229 48.053Z" fill="#9558EC"/>
<path fill-rule="evenodd" clip-rule="evenodd" d="M37.755 59.9495L44.1907 55.1902C45.4166 54.397 46.7957 56.3007 45.5698 57.2526L39.1341 61.8533C37.9083 62.8051 36.5292 60.7428 37.755 59.9495Z" fill="#9558EC"/>
</svg>
