<svg width="122" height="36" viewBox="0 0 122 36" fill="none" xmlns="http://www.w3.org/2000/svg">
<path d="M0.492188 7.22308H4.70906V16.5604H13.5645V7.22308H17.7814V30.1749H13.5645V20.5966H4.70906V30.1749H0.492188V7.22308ZM31.1549 22.705C31.1549 24.6328 29.5886 26.199 27.6609 26.199C25.7332 26.199 24.1669 24.6328 24.1669 22.705V12.8255H20.191V22.705C20.191 26.8014 23.5645 30.1749 27.6609 30.1749C31.7573 30.1749 35.1308 26.8014 35.1308 22.705V12.8255H31.1549V22.705ZM46.2754 12.8857C44.2874 12.8857 42.9019 13.4882 41.5766 14.7532V7.22308H37.6007V21.2593C37.6007 26.5002 41.3959 30.1147 45.673 30.1147C50.432 30.1147 54.5887 26.44 54.5887 21.5002C54.5887 16.6809 50.7332 12.8857 46.2754 12.8857ZM46.3959 26.44C43.685 26.44 41.5766 24.1508 41.5766 21.5002C41.5766 18.8496 43.6248 16.5604 46.3959 16.5604C48.685 16.5604 50.7935 18.8496 50.7935 21.5002C50.7332 24.2111 48.685 26.44 46.3959 26.44ZM61.3357 13.9098C61.3357 11.9219 62.661 11.2592 64.167 11.2592C65.3718 11.2592 66.9381 12.1629 67.9622 13.2472L70.5525 10.1749C69.2272 8.4279 66.5766 7.22308 64.408 7.22308C60.0706 7.22308 56.9381 9.75321 56.9381 13.9098C56.9381 21.6809 66.5164 19.2111 66.5164 23.5484C66.5164 24.8737 65.1911 26.0785 63.6851 26.0785C61.3357 26.0785 60.5525 24.934 59.4682 23.7291L56.5766 26.7412C58.4441 29.0303 60.7332 30.1749 63.5043 30.1749C67.6007 30.1749 70.9742 27.6448 70.9742 23.6087C70.8537 14.9942 61.3357 17.6448 61.3357 13.9098ZM81.3959 12.705C77.1188 12.705 73.3236 16.3195 73.3236 21.5605V35.6569H77.2995V28.0665C78.6248 29.3918 80.0104 29.934 81.9983 29.934C86.4562 29.934 90.3116 26.199 90.3116 21.3195C90.3116 16.3797 86.155 12.705 81.3959 12.705ZM82.1188 26.2593C79.408 26.2593 77.2995 23.9701 77.2995 21.3195C77.2995 18.6689 79.3477 16.3797 82.1188 16.3797C84.408 16.3797 86.5164 18.6689 86.5164 21.3195C86.5164 23.9701 84.408 26.2593 82.1188 26.2593ZM119.83 26.44C117.48 26.44 116.818 25.4159 116.818 23.8496V16.9219H120.492V13.4279H116.757V8.78935L112.721 10.5966V24.693C112.721 28.3075 115.191 30.1147 118.625 30.1147C119.107 30.1147 119.83 30.0544 120.251 29.9942L121.215 26.3797C120.794 26.44 120.251 26.44 119.83 26.44Z" fill="black"/>
<path d="M109.228 17.1628C108.445 15.8375 107.36 14.7531 106.035 13.97C105.011 13.3676 103.987 13.0062 102.782 12.8254V8.60856C103.987 8.12663 104.71 6.98205 104.71 5.71699C104.71 3.97 103.324 2.52421 101.517 2.52421C99.7698 2.52421 98.324 3.97 98.324 5.71699C98.324 6.98205 98.9867 8.12663 100.191 8.60856V12.8254C99.2276 12.9459 98.2638 13.2471 97.3602 13.7291C95.5529 12.3435 89.5288 7.82543 86.0348 5.11458C86.0951 4.81337 86.1553 4.51217 86.1553 4.21096C86.1553 2.28325 84.5891 0.656738 82.6011 0.656738C80.6131 0.656738 79.0469 2.22301 79.0469 4.21096C79.0469 6.13868 80.6131 7.76518 82.6011 7.76518C83.2638 7.76518 83.8662 7.58446 84.4083 7.22301L85.1312 7.76518L95.2517 15.0544C94.7096 15.5363 94.2276 16.0785 93.8059 16.7411C93.0228 18.0062 92.4806 19.452 92.4806 20.958V21.2592C92.4806 22.3435 92.6614 23.3676 93.0228 24.3315C93.324 25.1749 93.8059 25.958 94.3481 26.6206L90.9746 29.9941C89.9505 29.6327 88.8662 29.8737 88.083 30.5965C87.5409 31.0785 87.2999 31.8014 87.2999 32.5243C87.2999 33.2472 87.6011 33.9098 88.083 34.452C88.565 34.9941 89.2879 35.2351 90.0108 35.2351C90.7336 35.2351 91.4565 34.9339 91.9385 34.452C92.4806 33.9701 92.7216 33.2472 92.7216 32.5243C92.7216 32.2231 92.6614 31.9821 92.6011 31.6809L96.0951 28.1869C96.577 28.4881 97.059 28.7893 97.6614 29.0303C98.7457 29.5122 99.9505 29.8134 101.276 29.8134H101.517C102.963 29.8134 104.348 29.452 105.673 28.7893C107.059 28.0664 108.083 27.0423 108.926 25.717C109.71 24.3917 110.192 23.0062 110.192 21.3797V21.3194C110.372 19.8736 110.011 18.4279 109.228 17.1628ZM105.011 24.452C104.047 25.4761 102.963 26.1387 101.758 26.1387H101.577C100.854 26.1387 100.191 25.958 99.5288 25.5965C98.7457 25.2351 98.2035 24.6327 97.7216 23.97C97.2397 23.3074 96.9987 22.5242 96.9987 21.7411V21.5001C96.9987 20.717 97.1192 19.9941 97.5409 19.2712C97.9626 18.4881 98.5047 17.8857 99.2276 17.464C99.9505 16.9821 100.734 16.7411 101.577 16.7411H101.637C102.42 16.7411 103.143 16.9218 103.806 17.223C104.529 17.5845 105.071 18.1266 105.553 18.7893C105.975 19.452 106.216 20.1748 106.336 20.958C106.336 21.1387 106.336 21.3194 106.336 21.4399C106.216 22.5242 105.794 23.5483 105.011 24.452Z" fill="black"/>
</svg>
