<svg width="156" height="36" viewBox="0 0 156 36" fill="none" xmlns="http://www.w3.org/2000/svg">
<path d="M116.576 10.202C114.636 10.202 112.773 10.9781 111.376 12.4526V4.92486C111.376 4.69204 111.144 4.45923 110.911 4.45923H108.272C108.039 4.45923 107.807 4.69204 107.807 4.92486V25.1798C107.807 25.4127 108.039 25.6455 108.272 25.6455H110.911C111.144 25.6455 111.376 25.4127 111.376 25.1798V23.783C112.773 25.1798 114.558 26.0335 116.576 26.0335C120.689 26.0335 124.026 22.4637 124.026 18.1178C124.026 13.7719 120.689 10.202 116.576 10.202ZM115.955 22.8517C113.472 22.8517 111.454 20.7563 111.376 18.1954V18.0402C111.454 15.4792 113.394 13.3838 115.955 13.3838C118.439 13.3838 120.534 15.4792 120.534 18.1178C120.534 20.7563 118.439 22.8517 115.955 22.8517Z" fill="black"/>
<path d="M133.728 10.2019C129.305 10.2019 125.657 13.7717 125.657 18.1176C125.657 22.4635 129.227 26.0334 133.728 26.0334C138.229 26.0334 141.722 22.5412 141.722 18.1176C141.722 13.6941 138.152 10.2019 133.728 10.2019ZM133.651 22.8516C131.167 22.8516 129.072 20.7562 129.072 18.1176C129.072 15.4791 131.09 13.3837 133.651 13.3837C136.212 13.3837 138.229 15.4791 138.229 18.1176C138.229 20.7562 136.212 22.8516 133.651 22.8516Z" fill="black"/>
<path d="M84.4472 10.5899H81.8087C81.5758 10.5899 81.343 10.8227 81.343 11.0556V12.4525C79.9461 11.0556 78.1612 10.2019 76.1435 10.2019C72.0304 10.2019 68.6934 13.7717 68.6934 18.1176C68.6934 22.4635 72.0304 26.0334 76.1435 26.0334C78.0836 26.0334 79.9461 25.2573 81.343 23.7828V25.1797C81.343 25.4125 81.5758 25.6454 81.8087 25.6454H84.4472C84.6801 25.6454 84.9129 25.4125 84.9129 25.1797V11.0556C84.9129 10.8227 84.6801 10.5899 84.4472 10.5899ZM76.8419 22.8516C74.3585 22.8516 72.2632 20.7562 72.2632 18.1176C72.2632 15.4791 74.2809 13.3837 76.8419 13.3837C79.4029 13.3837 81.343 15.4791 81.4206 18.04V18.1953C81.343 20.8338 79.3253 22.8516 76.8419 22.8516Z" fill="black"/>
<path d="M97.6405 10.2019C95.7004 10.2019 93.8378 10.978 92.4409 12.4525V11.0556C92.4409 10.8227 92.2081 10.5899 91.9753 10.5899H89.3367C89.1039 10.5899 88.8711 10.8227 88.8711 11.0556V31.3106C88.8711 31.5434 89.1039 31.7762 89.3367 31.7762H91.9753C92.2081 31.7762 92.4409 31.5434 92.4409 31.3106V23.7828C93.8378 25.1797 95.6228 26.0334 97.6405 26.0334C101.754 26.0334 105.091 22.4635 105.091 18.1176C105.091 13.7717 101.754 10.2019 97.6405 10.2019ZM97.0197 22.8516C94.5363 22.8516 92.5185 20.7562 92.4409 18.1953V18.04C92.5185 15.4791 94.4587 13.3837 97.0197 13.3837C99.503 13.3837 101.598 15.4791 101.598 18.1176C101.598 20.7562 99.5806 22.8516 97.0197 22.8516Z" fill="black"/>
<path d="M60.8563 10.2019C58.9162 10.2019 57.1313 11.366 56.2776 13.1509C55.3463 11.2884 53.4062 10.2019 51.3109 10.2019C49.6811 10.2019 48.2066 10.978 47.1978 12.2972V11.0556C47.1978 10.8227 46.965 10.5899 46.7321 10.5899H44.0936C43.8607 10.5899 43.6279 10.8227 43.6279 11.0556V25.2573C43.6279 25.4902 43.8607 25.723 44.0936 25.723H46.7321C46.965 25.723 47.1978 25.4902 47.1978 25.2573V16.7208C47.2754 14.8582 48.5947 13.3061 50.2244 13.3061C51.9317 13.3061 53.3286 14.703 53.3286 16.5655V25.2573C53.3286 25.4902 53.5614 25.723 53.7942 25.723H56.4328C56.6656 25.723 56.8984 25.4902 56.8984 25.2573V16.4103C57.1313 14.703 58.3729 13.3061 59.925 13.3061C61.6324 13.3061 63.0293 14.703 63.0293 16.5655V25.2573C63.0293 25.4902 63.2621 25.723 63.4949 25.723H66.1335C66.3663 25.723 66.5991 25.4902 66.5991 25.2573V15.4791C66.4439 12.5301 63.9605 10.2019 60.8563 10.2019Z" fill="black"/>
<path d="M155.923 25.0246L151.344 18.0402L155.845 11.1333C156 10.9781 155.923 10.6677 155.69 10.5901C155.612 10.5125 155.535 10.5125 155.457 10.5125H152.43C152.197 10.5125 151.965 10.6677 151.887 10.8229L149.248 15.324L146.61 10.9005C146.455 10.6677 146.299 10.5901 146.067 10.5901H143.04C142.807 10.5901 142.652 10.7453 142.652 10.9781C142.652 11.0557 142.652 11.1333 142.73 11.2109L147.231 18.1178L142.652 25.1023C142.497 25.2575 142.574 25.5679 142.807 25.6455C142.885 25.7231 142.962 25.7231 143.04 25.7231H146.067C146.299 25.7231 146.532 25.5679 146.61 25.4127L149.326 20.9116L152.042 25.4127C152.197 25.6455 152.353 25.7231 152.586 25.7231H155.612C155.845 25.7231 156 25.5679 156 25.3351C156 25.1799 156 25.1023 155.923 25.0246Z" fill="black"/>
<path d="M18.0183 0.656738C8.31763 0.656738 0.479492 8.49488 0.479492 18.1179C0.479492 27.741 8.31763 35.6567 18.0183 35.6567C27.719 35.6567 35.5571 27.8186 35.5571 18.1179C35.5571 8.41727 27.6414 0.656738 18.0183 0.656738ZM26.3221 22.4638C20.2689 28.4394 9.63692 26.4993 9.63692 26.4993C9.63692 26.4993 7.69679 15.8674 13.6724 9.81417C17.0094 6.47714 22.5194 6.63235 26.0116 10.1246C29.5039 13.6168 29.5815 19.1268 26.3221 22.4638Z" fill="black"/>
<path d="M19.9593 10.9004L18.252 14.3926L14.7598 16.0999L18.252 17.8073L19.9593 21.3771L21.6666 17.8073L25.2365 16.0999L21.6666 14.3926L19.9593 10.9004Z" fill="black"/>
</svg>
