<svg width="124" height="36" viewBox="0 0 124 36" fill="none" xmlns="http://www.w3.org/2000/svg">
<mask id="mask0" mask-type="alpha" maskUnits="userSpaceOnUse" x="4" y="1" width="27" height="35">
<path d="M4.67969 35.6568H30.6832V1.70435H4.67969V35.6568Z" fill="white"/>
</mask>
<g mask="url(#mask0)">
<path d="M22.7353 3.7992C22.2424 2.19708 20.517 1.3344 18.9149 1.82736C17.3128 2.32032 16.4501 4.04567 16.9431 5.64779L24.7688 29.7411C25.3234 31.22 26.9255 32.0827 28.466 31.5897C30.0681 31.0968 31.054 29.433 30.5611 27.8309C30.4994 27.8309 22.7353 3.7992 22.7353 3.7992Z" fill="black"/>
</g>
<mask id="mask1" mask-type="alpha" maskUnits="userSpaceOnUse" x="4" y="1" width="27" height="35">
<path d="M4.67969 35.6568H30.6832V1.70435H4.67969V35.6568Z" fill="white"/>
</mask>
<g mask="url(#mask1)">
<path d="M10.5947 7.74317C10.0401 6.14105 8.37641 5.27837 6.77429 5.77133C5.17218 6.26429 4.3095 7.98964 4.80246 9.59176L12.6282 33.6851C13.1827 35.164 14.7849 36.0266 16.3254 35.5337C17.9275 35.0407 18.9134 33.377 18.4204 31.7749C18.3588 31.7749 10.5947 7.74317 10.5947 7.74317Z" fill="black"/>
</g>
<path d="M32.5939 23.7025C34.196 23.2095 35.0587 21.4842 34.5658 19.8821C34.0728 18.28 32.3475 17.4173 30.7453 17.9102L6.59039 25.7976C5.11151 26.3522 4.24884 27.9543 4.74179 29.4948C5.23475 31.0969 6.89849 32.0828 8.5006 31.5898C8.56222 31.5282 32.5939 23.7025 32.5939 23.7025Z" fill="black"/>
<path d="M11.6435 30.5425C13.184 30.0495 15.2175 29.3717 17.3742 28.6939C16.8812 27.1534 16.2034 25.1199 15.5256 22.9633L9.79492 24.8119L11.6435 30.5425Z" fill="black"/>
<path d="M23.7822 26.5986C25.9389 25.9208 27.9723 25.243 29.5128 24.75C29.0199 23.2096 28.3421 21.1761 27.6642 19.0194L21.9336 20.868L23.7822 26.5986Z" fill="black"/>
<path d="M28.6496 11.5636C30.2517 11.0706 31.1144 9.34528 30.6214 7.74316C30.1285 6.14105 28.4031 5.27837 26.801 5.77133L2.64605 13.6587C1.16718 14.2132 0.3045 15.8154 0.797458 17.3559C1.29042 18.958 2.95415 19.9439 4.55626 19.4509C4.61788 19.3893 28.6496 11.5636 28.6496 11.5636Z" fill="black"/>
<path d="M7.6982 18.4032C9.2387 17.9102 11.2722 17.2324 13.4288 16.5546C12.751 14.3979 12.0732 12.3645 11.5802 10.824L5.84961 12.6726L7.6982 18.4032Z" fill="black"/>
<path d="M19.8379 14.4597C21.9945 13.7819 24.028 13.1041 25.5685 12.6111C24.8907 10.4544 24.2129 8.42099 23.7199 6.88049L17.9893 8.72909L19.8379 14.4597Z" fill="black"/>
<path d="M56.9957 10.0845C58.0432 10.5774 58.1665 10.8855 57.3038 12.4877C56.4411 14.0898 56.2562 14.213 55.2087 13.7817C53.9147 13.2271 52.1893 12.7958 51.1418 12.7958C49.3548 12.7958 48.1841 13.412 48.1841 14.3979C48.1841 17.6021 58.4129 15.8767 58.4129 22.7165C58.4129 26.1673 55.4552 28.4472 51.0802 28.4472C48.7386 28.4472 45.9041 27.6461 43.9323 26.6602C42.9464 26.1673 42.8848 25.8592 43.7474 24.257C44.4869 22.8398 44.7333 22.6549 45.7809 23.0863C47.4446 23.8257 49.6013 24.3803 51.0186 24.3803C52.6207 24.3803 53.7298 23.7025 53.7298 22.7782C53.7298 19.6972 43.3161 21.1761 43.3161 14.5211C43.3161 11.0088 46.2122 8.66724 50.6488 8.66724C52.6207 8.66724 55.2087 9.28343 56.9957 10.0845Z" fill="black"/>
<path d="M65.2514 2.01237V27.3997C65.2514 27.7694 64.82 28.2008 64.2655 28.2008H61.6158C61.0612 28.2008 60.6299 27.7694 60.6299 27.3997V2.01237C60.6299 0.779978 60.9996 0.656738 62.9714 0.656738C65.1281 0.656738 65.2514 0.779978 65.2514 2.01237Z" fill="black"/>
<path d="M71.9064 22.655C71.9064 23.949 73.0155 24.8117 74.6792 24.8117C76.7127 24.8117 78.4997 23.8257 79.6088 22.2236V20.4983C78.5613 20.0669 77.2673 19.8821 76.0965 19.8821C73.5701 19.8821 71.9064 21.0528 71.9064 22.655ZM84.2303 16.3081V27.2764C84.2303 27.831 83.799 28.2624 83.2444 28.2624H80.5947C79.9785 28.2624 79.5472 27.831 79.6088 27.2148L79.6704 26.0441C78.2532 27.6462 76.1581 28.4472 74.1247 28.4472C70.1194 28.4472 67.4697 26.1673 67.4697 22.7166C67.4697 19.081 70.4891 16.6162 75.049 16.5546C76.7743 16.5546 78.3148 16.8627 79.6088 17.4173V16.1849C79.6088 14.1514 78.0067 12.9807 75.3571 12.9807C74.1247 12.9807 72.5226 13.4736 71.2902 14.213C70.3659 14.7676 70.1194 14.706 69.0718 13.1655C68.0859 11.625 68.0859 11.3169 69.0718 10.7007C70.9204 9.52995 73.4468 8.72889 75.7884 8.72889C80.9645 8.66727 84.2303 11.5018 84.2303 16.3081Z" fill="black"/>
<path d="M102.346 10.1461C103.332 10.7007 103.332 11.0088 102.285 12.6725C101.299 14.213 101.114 14.3363 100.066 13.7817C99.2652 13.3503 97.9711 12.9806 96.862 12.9806C93.5345 12.9806 91.2546 15.1989 91.2546 18.5264C91.2546 21.9771 93.4729 24.3187 96.862 24.3187C98.0328 24.3187 99.45 23.8873 100.436 23.3327C101.422 22.7782 101.607 22.8398 102.654 24.3187C103.579 25.7359 103.579 26.044 102.716 26.5986C101.237 27.6461 98.8338 28.4472 96.8004 28.4472C90.5768 28.4472 86.4482 24.5035 86.4482 18.5264C86.4482 12.6109 90.5768 8.66724 96.862 8.66724C98.7722 8.66724 100.991 9.34505 102.346 10.1461Z" fill="black"/>
<path d="M122.618 25.7976C123.42 26.7835 123.111 27.1532 121.14 27.8311C119.168 28.5705 118.921 28.5089 118.182 27.5846L112.636 20.1902L110.171 22.5934V27.3997C110.171 27.7694 109.74 28.2008 109.185 28.2008H106.536C105.981 28.2008 105.55 27.7694 105.55 27.3997V2.01237C105.55 0.779978 105.92 0.656738 107.891 0.656738C110.11 0.656738 110.233 0.841598 110.233 2.01237V16.493L117.812 9.22189C118.675 8.42083 119.106 8.48245 120.585 9.46837C122.249 10.5159 122.372 10.824 121.571 11.6251L115.902 17.1092L122.618 25.7976Z" fill="black"/>
</svg>
