<svg width="113" height="36" viewBox="0 0 113 36" fill="none" xmlns="http://www.w3.org/2000/svg">
<path d="M59.4768 9.43487C59.4768 10.6728 58.464 11.7419 57.1697 11.7419C55.8755 11.7419 54.8627 10.7291 54.8627 9.43487C54.8627 8.14066 55.8193 7.1278 57.1697 7.1278C58.5202 7.24034 59.4768 8.2532 59.4768 9.43487ZM50.0797 14.049C50.0797 14.2741 50.0797 14.6117 50.0797 14.6117C50.0797 14.6117 49.0106 13.205 46.7035 13.205C42.8771 13.205 39.8948 16.131 39.8948 20.1262C39.8948 24.1214 42.8209 27.0474 46.7035 27.0474C49.0668 27.0474 50.0797 25.5844 50.0797 25.5844V26.2034C50.0797 26.4847 50.3048 26.7098 50.5861 26.7098H53.3996V13.5426C53.3996 13.5426 50.8112 13.5426 50.5861 13.5426C50.3048 13.5426 50.0797 13.8239 50.0797 14.049ZM50.0797 22.4895C49.5733 23.2773 48.5041 23.9526 47.2662 23.9526C45.0154 23.9526 43.3273 22.5458 43.3273 20.1825C43.3273 17.8191 45.0717 16.4124 47.2662 16.4124C48.5041 16.4124 49.6295 17.0876 50.0797 17.8754V22.4895ZM55.5379 13.5426H58.9141V26.7098H55.5379V13.5426ZM105.787 13.205C103.48 13.205 102.411 14.6117 102.411 14.6117V7.24034H99.0347V26.7661C99.0347 26.7661 101.623 26.7661 101.848 26.7661C102.13 26.7661 102.355 26.541 102.355 26.2596V25.6407C102.355 25.6407 103.424 27.1037 105.731 27.1037C109.557 27.1037 112.54 24.1776 112.54 20.1825C112.596 16.131 109.613 13.205 105.787 13.205ZM105.224 23.8963C103.93 23.8963 102.917 23.221 102.411 22.4333V17.7066C102.917 17.0313 104.043 16.2436 105.224 16.2436C107.475 16.2436 109.163 17.6503 109.163 20.0137C109.163 22.377 107.475 23.8963 105.224 23.8963ZM97.2903 18.9445V26.8223H93.9141V19.3384C93.9141 17.1439 93.2389 16.2998 91.3257 16.2998C90.3128 16.2998 89.2437 16.8063 88.5685 17.594V26.7661H85.1923V13.5426H87.837C88.1183 13.5426 88.3434 13.7677 88.3434 14.049V14.6117C89.3 13.5989 90.6505 13.205 91.9447 13.205C93.4077 13.205 94.6456 13.5989 95.6022 14.4429C96.8402 15.4558 97.2903 16.6937 97.2903 18.9445ZM77.0331 13.205C74.726 13.205 73.6569 14.6117 73.6569 14.6117V7.24034H70.2807V26.7661C70.2807 26.7661 72.8691 26.7661 73.0942 26.7661C73.3755 26.7661 73.6006 26.541 73.6006 26.2596V25.6407C73.6006 25.6407 74.6697 27.1037 76.9768 27.1037C80.8032 27.1037 83.7855 24.1776 83.7855 20.1825C83.8418 16.131 80.8595 13.205 77.0331 13.205ZM76.4704 23.8963C75.1762 23.8963 74.1633 23.221 73.6569 22.4333V17.7066C74.1633 17.0313 75.2887 16.2436 76.4704 16.2436C78.7212 16.2436 80.4093 17.6503 80.4093 20.0137C80.4093 22.377 78.7212 23.8963 76.4704 23.8963ZM67.3546 13.205C68.3675 13.205 68.8739 13.3738 68.8739 13.3738V16.4686C68.8739 16.4686 66.0604 15.512 64.316 17.5378V26.7661H60.9398V13.5426C60.9398 13.5426 63.5283 13.5426 63.7533 13.5426C64.0347 13.5426 64.2598 13.7677 64.2598 14.049V14.6117C64.935 13.8802 66.3418 13.205 67.3546 13.205ZM32.4109 25.5844C32.2421 25.1905 32.0733 24.6841 31.9045 24.3464C31.6231 23.7275 31.3418 23.1085 31.1167 22.5458L31.0604 22.4895C28.6408 17.2564 26.0524 11.9108 23.2951 6.62137L23.1826 6.39629C22.9013 5.88986 22.6199 5.32716 22.3386 4.76446C22.0009 4.14548 21.6633 3.47024 21.1006 2.85127C19.9752 1.44452 18.3434 0.656738 16.6553 0.656738C14.9109 0.656738 13.3353 1.44452 12.1537 2.73873C11.591 3.41397 11.1971 4.03294 10.8594 4.70819C10.5781 5.27089 10.2967 5.83359 10.0154 6.34002L9.90286 6.5651C7.20189 11.7982 4.5572 17.1439 2.13758 22.4333L2.08131 22.4895C1.85623 23.0522 1.57488 23.6712 1.29353 24.2902C1.12472 24.6841 0.955909 25.078 0.787099 25.5281C0.336938 26.8223 0.168128 28.0603 0.393208 29.2982C0.787099 31.9429 2.53147 34.1374 4.95109 35.094C5.85141 35.4879 6.808 35.6567 7.76459 35.6567C8.04594 35.6567 8.38356 35.6005 8.66491 35.6005C9.84659 35.4879 11.0283 35.094 12.1537 34.4188C13.6167 33.631 14.9672 32.4493 16.4865 30.7612C18.0058 32.4493 19.4125 33.5747 20.8193 34.4188C22.0009 35.094 23.1826 35.4879 24.308 35.6005C24.5894 35.6567 24.927 35.6567 25.2083 35.6567C26.1649 35.6567 27.1778 35.4879 28.0218 35.094C30.4977 34.1374 32.1858 31.8866 32.5797 29.2982C32.9736 28.0603 32.8611 26.8786 32.4109 25.5844ZM16.599 27.385C14.6858 25.0217 13.5041 22.7709 13.054 20.8577C12.8852 20.0699 12.8289 19.3384 12.9414 18.7194C12.9977 18.1567 13.2228 17.6503 13.5041 17.2564C14.1794 16.2998 15.3048 15.7371 16.599 15.7371C17.8932 15.7371 19.0749 16.2998 19.6939 17.2564C19.9752 17.6503 20.2003 18.1567 20.2566 18.7194C20.3691 19.3384 20.3128 20.0699 20.144 20.8577C19.6939 22.7146 18.4559 24.9654 16.599 27.385ZM30.554 29.0169C30.3289 30.8175 29.091 32.3931 27.3466 33.1246C26.5025 33.4622 25.6022 33.5747 24.7019 33.4622C23.8016 33.3497 22.9575 33.0683 22.0572 32.5619C20.8193 31.8866 19.525 30.7612 18.062 29.1857C20.3691 26.3722 21.7758 23.7275 22.2823 21.4204C22.5074 20.3513 22.5636 19.3384 22.4511 18.4381C22.3385 17.5378 22.0009 16.75 21.4945 16.0747C20.4254 14.4992 18.5685 13.5989 16.5427 13.5989C14.517 13.5989 12.6601 14.5555 11.591 16.0747C11.0845 16.75 10.8032 17.594 10.6344 18.4381C10.5218 19.3384 10.5218 20.3513 10.8032 21.4204C11.3096 23.7275 12.7726 26.3722 15.0234 29.1857C13.5604 30.8175 12.2662 31.8866 11.0283 32.5619C10.1279 33.0683 9.22762 33.3497 8.38356 33.4622C7.42697 33.5747 6.52665 33.4059 5.73887 33.1246C3.99449 32.4493 2.81282 30.8175 2.53147 29.0169C2.41893 28.1165 2.4752 27.2725 2.86909 26.2596C2.98163 25.922 3.15044 25.5844 3.31925 25.1342C3.54433 24.5715 3.82568 23.9526 4.10704 23.3899L4.16331 23.3336C6.58292 18.1005 9.17134 12.7548 11.8723 7.57796L11.9848 7.35288C12.2662 6.84645 12.5476 6.28375 12.8289 5.72105C13.1103 5.15835 13.4479 4.65192 13.7855 4.20175C14.517 3.3577 15.5299 2.90754 16.599 2.90754C17.6681 2.90754 18.681 3.3577 19.4125 4.20175C19.8064 4.65192 20.0877 5.15835 20.3691 5.72105C20.6504 6.22748 20.9318 6.79018 21.2131 7.35288L21.3257 7.57796C23.9704 12.8111 26.5588 18.1567 28.9784 23.3336V23.3899C29.2598 23.9526 29.4849 24.5715 29.7662 25.1342C29.935 25.5281 30.1038 25.922 30.2164 26.2596C30.6103 27.2162 30.7228 28.1165 30.554 29.0169Z" fill="black"/>
</svg>
