<svg width="85" height="36" viewBox="0 0 85 36" fill="none" xmlns="http://www.w3.org/2000/svg">
<path d="M84.5941 18.6567C84.5941 12.7094 81.6994 7.97253 76.1731 7.97253C70.6467 7.97253 67.2783 12.6567 67.2783 18.6041C67.2783 25.6041 71.2257 29.1304 76.9099 29.1304C79.6994 29.1304 81.752 28.4989 83.3309 27.6041V22.9725C81.752 23.762 79.9099 24.2357 77.6467 24.2357C75.3836 24.2357 73.3836 23.4462 73.1204 20.7094H84.4888C84.5415 20.4462 84.5941 19.2357 84.5941 18.6567ZM73.0678 16.4462C73.0678 13.8146 74.6994 12.7094 76.1204 12.7094C77.5415 12.7094 79.0678 13.8146 79.0678 16.4462H73.0678Z" fill="black"/>
<path d="M58.2783 8.02515C56.0152 8.02515 54.5415 9.07778 53.6994 9.81462L53.3836 8.39357H48.2783V35.5515L54.1204 34.3409V27.762C54.9625 28.3409 56.1731 29.2357 58.2257 29.2357C62.3836 29.2357 66.1731 25.8673 66.1731 18.4988C66.2257 11.7094 62.3836 8.02515 58.2783 8.02515ZM56.9099 24.0251C55.5415 24.0251 54.6994 23.5515 54.1731 22.9199V14.2883C54.752 13.6041 55.5941 13.1304 56.9625 13.1304C59.0678 13.1304 60.5415 15.4988 60.5415 18.5515C60.4888 21.7094 59.0152 24.0251 56.9099 24.0251Z" fill="black"/>
<path d="M40.2783 6.65674L46.1204 5.39358V0.656738L40.2783 1.86726V6.65674Z" fill="black"/>
<path d="M46.1204 8.39355H40.2783V28.762H46.1204V8.39355Z" fill="black"/>
<path d="M34.0148 10.1303L33.6464 8.3935H28.5938V28.7619H34.4359V14.9724C35.8043 13.183 38.1201 13.4988 38.8569 13.7619V8.3935C38.1201 8.13034 35.4359 7.60402 34.0148 10.1303Z" fill="black"/>
<path d="M22.3834 3.34094L16.6992 4.55147V23.183C16.6992 26.6041 19.2782 29.1831 22.7518 29.1831C24.6466 29.1831 26.0676 28.8146 26.8045 28.3936V23.6567C26.0676 23.9725 22.3834 25.0252 22.3834 21.6041V13.3409H26.8045V8.39357H22.3834V3.34094Z" fill="black"/>
<path d="M6.64679 14.3409C6.64679 13.4462 7.38364 13.0778 8.64679 13.0778C10.4363 13.0778 12.6468 13.6041 14.4363 14.5515V9.07778C12.4889 8.2883 10.5942 8.02515 8.64679 8.02515C3.90995 8.02515 0.804688 10.4988 0.804688 14.6041C0.804688 21.0251 9.64679 20.0251 9.64679 22.762C9.64679 23.8146 8.69943 24.183 7.43627 24.183C5.4889 24.183 3.01521 23.3936 1.06785 22.3409V27.8673C3.22574 28.8146 5.43627 29.183 7.43627 29.183C12.2784 29.183 15.5942 26.762 15.5942 22.6041C15.5415 15.7094 6.64679 16.9199 6.64679 14.3409Z" fill="black"/>
</svg>
