<svg width="136" height="36" viewBox="0 0 136 36" fill="none" xmlns="http://www.w3.org/2000/svg">
<path d="M20.3038 3.27168C20.3038 4.67973 19.0969 5.88662 17.6889 5.88662C16.2808 5.88662 15.0739 4.67973 15.0739 3.27168C15.0739 1.86363 16.2808 0.656738 17.6889 0.656738C19.0969 0.656738 20.3038 1.86363 20.3038 3.27168ZM17.6889 8.03222C16.1467 8.03222 14.9398 9.23911 14.9398 10.7813C14.9398 12.3234 16.1467 13.5303 17.6889 13.5303C19.231 13.5303 20.4379 12.3234 20.4379 10.7813C20.4379 9.17206 19.231 8.03222 17.6889 8.03222ZM17.6889 15.3406C16.1467 15.3406 14.8728 16.6146 14.8728 18.1567C14.8728 19.6989 16.1467 20.9728 17.6889 20.9728C19.231 20.9728 20.505 19.6989 20.505 18.1567C20.572 16.6816 19.231 15.3406 17.6889 15.3406ZM17.6889 22.8502C16.1467 22.8502 14.9398 24.0571 14.9398 25.5993C14.9398 27.1414 16.1467 28.3483 17.6889 28.3483C19.231 28.3483 20.4379 27.1414 20.4379 25.5993C20.4379 24.1242 19.231 22.8502 17.6889 22.8502ZM17.6889 30.4269C16.2808 30.4269 15.0739 31.6337 15.0739 33.0418C15.0739 34.4498 16.2808 35.6567 17.6889 35.6567C19.0969 35.6567 20.3038 34.4498 20.3038 33.0418C20.3038 31.6337 19.0969 30.4269 17.6889 30.4269ZM24.9303 7.62992C23.254 7.62992 21.846 9.03796 21.846 10.7142C21.846 12.3905 23.254 13.7985 24.9303 13.7985C26.6065 13.7985 28.0145 12.3905 28.0145 10.7142C28.0145 9.03796 26.6065 7.62992 24.9303 7.62992ZM24.9303 15.0054C23.1199 15.0054 21.7119 16.4134 21.7119 18.2238C21.7119 20.0341 23.1199 21.4422 24.9303 21.4422C26.7406 21.4422 28.1486 20.0341 28.1486 18.2238C28.1486 16.4134 26.7406 15.0054 24.9303 15.0054ZM24.9303 22.4479C23.254 22.4479 21.846 23.856 21.846 25.5322C21.846 27.2085 23.254 28.6165 24.9303 28.6165C26.6065 28.6165 28.0145 27.2085 28.0145 25.5322C28.0145 23.923 26.6065 22.4479 24.9303 22.4479ZM32.4398 14.6701C30.5624 14.6701 28.8862 16.2123 28.8862 18.2238C28.8862 20.1012 30.4283 21.7774 32.4398 21.7774C34.4513 21.7774 35.9935 20.2353 35.9935 18.2238C35.8594 16.2123 34.3172 14.6701 32.4398 14.6701ZM10.3804 8.36747C9.1065 8.36747 8.0337 9.44026 8.0337 10.7142C8.0337 11.9882 9.1065 13.061 10.3804 13.061C11.6544 13.061 12.7272 11.9882 12.7272 10.7142C12.7272 9.44026 11.6544 8.36747 10.3804 8.36747ZM10.3804 15.7429C8.9724 15.7429 7.8996 16.8157 7.8996 18.2238C7.8996 19.6318 8.9724 20.7046 10.3804 20.7046C11.7885 20.7046 12.8613 19.6318 12.8613 18.2238C12.8613 16.8157 11.7885 15.7429 10.3804 15.7429ZM10.3804 23.1855C9.1065 23.1855 8.0337 24.2583 8.0337 25.5322C8.0337 26.8062 9.1065 27.879 10.3804 27.879C11.6544 27.879 12.7272 26.8062 12.7272 25.5322C12.7272 24.2583 11.6544 23.1855 10.3804 23.1855ZM3.00497 16.0782C1.79807 16.0782 0.859375 17.0169 0.859375 18.2238C0.859375 19.4307 1.79807 20.3694 3.00497 20.3694C4.21186 20.3694 5.15056 19.4307 5.15056 18.2238C5.15056 17.0169 4.21186 16.0782 3.00497 16.0782Z" fill="black"/>
<path d="M62.7447 13.597C62.4765 13.597 62.2754 13.8652 62.2754 14.0664V32.7062C62.2754 32.9744 62.5436 33.1756 62.7447 33.1756H65.0244C65.2926 33.1756 65.4938 32.9074 65.4938 32.7062V14.0664C65.4938 13.7982 65.2256 13.597 65.0244 13.597H62.7447Z" fill="black"/>
<path d="M63.9532 5.75244C62.7463 5.75244 61.8076 6.69114 61.8076 7.89803C61.8076 9.10493 62.7463 10.0436 63.9532 10.0436C65.1601 10.0436 66.0988 9.10493 66.0988 7.89803C66.0988 6.69114 65.1601 5.75244 63.9532 5.75244Z" fill="black"/>
<path d="M110.552 13.597C110.284 13.597 110.083 13.8652 110.083 14.0664V32.7062C110.083 32.9744 110.351 33.1756 110.552 33.1756H112.832C113.1 33.1756 113.301 32.9074 113.301 32.7062V14.0664C113.301 13.7982 113.033 13.597 112.832 13.597H110.552Z" fill="black"/>
<path d="M111.625 5.75244C110.418 5.75244 109.479 6.69114 109.479 7.89803C109.479 9.10493 110.418 10.0436 111.625 10.0436C112.832 10.0436 113.771 9.10493 113.771 7.89803C113.771 6.69114 112.832 5.75244 111.625 5.75244Z" fill="black"/>
<path d="M134.154 31.3655C134.288 31.2314 134.288 31.0973 134.288 31.0302C134.288 30.8961 134.288 30.8961 134.288 30.8961C134.288 30.8961 134.288 30.762 134.154 30.762C134.154 30.762 134.019 30.6279 133.885 30.6279C133.751 30.6279 133.751 30.6279 133.617 30.6279H133.014V32.3042H133.282V31.7007H133.617L134.086 32.3042H134.355L133.751 31.5666C134.019 31.6337 134.154 31.4996 134.154 31.3655ZM133.349 31.4996V30.8961H133.818C133.952 30.8961 134.086 30.8961 134.154 31.0302C134.288 31.0302 134.288 31.1643 134.288 31.2984C134.288 31.4325 134.288 31.5666 134.154 31.5666C134.019 31.5666 133.885 31.7007 133.818 31.7007H133.349V31.4996Z" fill="black"/>
<path d="M133.685 29.9572C132.88 29.9572 132.143 30.6947 132.143 31.4993C132.143 32.3039 132.88 33.0414 133.685 33.0414C134.489 33.0414 135.227 32.3039 135.227 31.4993C135.227 30.6947 134.489 29.9572 133.685 29.9572ZM133.685 32.9073C132.88 32.9073 132.277 32.3039 132.277 31.4993C132.277 30.6947 132.88 30.0913 133.685 30.0913C134.489 30.0913 135.093 30.6947 135.093 31.4993C135.093 32.3039 134.422 32.9073 133.685 32.9073Z" fill="black"/>
<path d="M81.2521 16.6815C81.5202 16.6815 81.7214 16.4133 81.7214 16.2121V13.9325C81.7214 13.6643 81.4532 13.4631 81.2521 13.4631H76.4915V6.35582C76.4915 6.08762 76.2233 5.88647 76.0222 5.88647H73.7425C73.4743 5.88647 73.2731 6.15467 73.2731 6.35582V13.4631H70.9264C70.6582 13.4631 70.457 13.7313 70.457 13.9325V16.2121C70.457 16.4803 70.7252 16.6815 70.9264 16.6815H73.2731V27.4765C73.2731 30.829 75.5528 32.9075 78.7042 32.9075H81.0509C81.3191 32.9075 81.5203 32.6393 81.5203 32.4382V30.1585C81.5203 29.8903 81.252 29.6892 81.0509 29.6892H79.0394C77.4973 29.6892 76.4245 28.6164 76.4245 26.9401V16.5474H81.185L81.2521 16.6815Z" fill="black"/>
<path d="M128.454 16.6815C128.722 16.6815 128.924 16.4133 128.924 16.2121V13.9325C128.924 13.6643 128.655 13.4631 128.454 13.4631H123.694V6.35582C123.694 6.08762 123.425 5.88647 123.224 5.88647H120.945C120.676 5.88647 120.475 6.15467 120.475 6.35582V13.4631H118.129C117.86 13.4631 117.659 13.7313 117.659 13.9325V16.2121C117.659 16.4803 117.927 16.6815 118.129 16.6815H120.475V27.4765C120.475 30.829 122.755 32.9075 125.906 32.9075H128.253C128.521 32.9075 128.722 32.6393 128.722 32.4382V30.1585C128.722 29.8903 128.454 29.6892 128.253 29.6892H126.242C124.699 29.6892 123.627 28.6164 123.627 26.9401V16.5474H128.521L128.454 16.6815Z" fill="black"/>
<path d="M48.6651 16.6813V32.5721C48.6651 32.8403 48.9333 33.0415 49.1344 33.0415H51.4141C51.6823 33.0415 51.8834 32.7733 51.8834 32.5721V16.6813H57.1133C57.3815 16.6813 57.5827 16.4131 57.5827 16.212V13.9323C57.5827 13.6641 57.3145 13.4629 57.1133 13.4629H51.8834V9.30584C51.8834 7.6296 53.0903 6.48975 54.4984 6.48975H57.1133C57.3815 6.48975 57.5827 6.22155 57.5827 6.0204V3.74071C57.5827 3.47251 57.3145 3.27136 57.1133 3.27136H54.6325C51.28 3.27136 48.7321 6.02041 48.7321 9.17175V13.4629H46.3854C46.1172 13.4629 45.916 13.7311 45.916 13.9323V16.212C45.916 16.4802 46.1842 16.6813 46.3854 16.6813H48.6651Z" fill="black"/>
<path d="M102.976 15.8096C101.166 13.9322 98.6848 12.8594 96.0699 12.8594C93.589 12.8594 91.1082 13.9322 89.566 15.4744V3.60656C89.566 3.33836 89.2979 3.13721 89.0967 3.13721H86.817C86.5488 3.13721 86.3477 3.40541 86.3477 3.60656V23.1851C86.3477 30.4265 91.2423 33.6449 95.9358 33.6449C100.696 33.6449 105.524 30.4265 105.524 23.1851C105.725 20.302 104.786 17.7541 102.976 15.8096ZM96.0699 30.6276C91.3093 30.6276 89.566 26.8058 89.566 23.2521C89.566 18.8939 92.181 16.0108 96.0699 16.0108C99.9588 16.0108 102.574 18.961 102.574 23.2521C102.507 26.8728 100.83 30.6276 96.0699 30.6276Z" fill="black"/>
</svg>
