<svg width="59" height="63" viewBox="0 0 59 63" fill="none" xmlns="http://www.w3.org/2000/svg">
<path d="M27.9339 53.5577H8.27149C4.95778 53.5577 2.27148 50.8714 2.27148 47.5577V8.23292C2.27148 4.91921 4.95778 2.23291 8.27148 2.23291H47.5962C50.9099 2.23291 53.5962 4.9192 53.5962 8.23291V27.8953" stroke="#EC595A" stroke-width="3"/>
<line x1="3.47656" y1="21.2627" x2="52.3084" y2="21.2627" stroke="#EC595A" stroke-width="3"/>
<circle cx="11.6815" cy="11.6424" r="2.56624" fill="#EC595A"/>
<ellipse cx="18.5242" cy="11.6424" rx="2.56624" ry="2.56624" fill="#EC595A"/>
<line x1="19.1689" y1="20.271" x2="19.1689" y2="53.5586" stroke="#EC595A" stroke-width="3"/>
<line x1="36.2764" y1="12.7085" x2="46.963" y2="12.7085" stroke="#EC595A" stroke-width="3" stroke-linecap="round"/>
<path fill-rule="evenodd" clip-rule="evenodd" d="M39.5076 38.4255L58.1939 49.5893C59.1167 50.1769 58.7707 51.587 57.7325 51.7046L48.3894 53.2322L43.7755 61.6932C43.3141 62.5158 41.9299 62.3983 41.8146 61.3407L37.7774 39.6006C37.662 38.6605 38.7002 37.9554 39.5076 38.4255Z" fill="#EC595A"/>
<path fill-rule="evenodd" clip-rule="evenodd" d="M32.4703 28.4367L35.9307 33.3722C36.5074 34.3124 35.1233 35.37 34.4312 34.4299L31.0861 29.4943C30.394 28.5542 31.8935 27.4965 32.4703 28.4367Z" fill="#EC595A"/>
<path fill-rule="evenodd" clip-rule="evenodd" d="M41.1229 27.2617L40.0847 33.1374C39.854 34.3126 38.2392 33.96 38.3545 32.9024L39.3927 26.9092C39.6233 25.7341 41.3536 26.0866 41.1229 27.2617Z" fill="#EC595A"/>
<path fill-rule="evenodd" clip-rule="evenodd" d="M48.0442 32.5494L43.315 36.0748C42.2768 36.6624 41.3541 35.2522 42.2768 34.5472L47.1214 31.1393C48.0442 30.4342 49.0824 31.9619 48.0442 32.5494Z" fill="#EC595A"/>
<path fill-rule="evenodd" clip-rule="evenodd" d="M27.2809 35.6055L33.0483 36.6631C34.2018 36.7806 33.8558 38.5433 32.8176 38.3083L26.9349 37.3682C25.7814 37.1332 26.1275 35.3705 27.2809 35.6055Z" fill="#EC595A"/>
<path fill-rule="evenodd" clip-rule="evenodd" d="M28.4348 44.4177L33.2794 40.8923C34.2022 40.3047 35.2403 41.7149 34.3175 42.4199L29.4729 45.8278C28.5501 46.5329 27.512 45.0052 28.4348 44.4177Z" fill="#EC595A"/>
</svg>
