<svg width="35" height="40" viewBox="0 0 35 40" fill="none" xmlns="http://www.w3.org/2000/svg">
<path d="M7.02267 0H28.1143C32.0486 0 35.1428 2.74328 34.9949 6.11074V26.5568C34.9949 29.919 31.9066 32.6623 28.1083 32.6623H23.47L26.0021 39.8903L13.7732 32.6623H7.02859C3.09426 32.6623 8.39761e-06 29.919 8.39761e-06 26.4309V6.11598C-0.00588256 2.74328 3.08834 0 7.02267 0ZM15.2167 22.4393C14.5009 22.0878 13.927 21.579 13.4951 20.9076C13.0632 20.2362 12.8502 19.4285 12.8502 18.4896V7.59515C12.8502 7.4273 12.8088 7.29617 12.7201 7.21224C12.6372 7.12307 12.4952 7.08111 12.2941 7.08111H9.15254C9.08154 7.08111 9.01055 7.0916 8.94547 7.11783C8.88039 7.14406 8.82123 7.18077 8.77981 7.23322C8.67924 7.33288 8.62599 7.46402 8.63191 7.60039V18.4476C8.63191 20.1838 9.03421 21.6367 9.83883 22.8169C10.6434 23.9919 11.7202 24.8678 13.081 25.4448C14.4358 26.0218 15.9504 26.305 17.6188 26.305C19.2931 26.305 20.8076 26.0218 22.1625 25.4605C23.5173 24.8993 24.5941 24.0338 25.3987 22.8589C26.2033 21.6839 26.6056 20.2258 26.6056 18.4843V7.60564C26.6056 7.53745 26.5938 7.46926 26.5642 7.40107C26.5346 7.33813 26.4932 7.27519 26.4399 7.22798C26.3275 7.12832 26.1796 7.07587 25.9903 7.07587H22.9967C22.8192 7.07587 22.6713 7.12307 22.5648 7.22273C22.4524 7.32239 22.3991 7.44828 22.3991 7.60564V18.4896C22.3991 19.3655 22.1861 20.1471 21.7602 20.8237C21.3342 21.5056 20.7603 22.0301 20.0326 22.4025C19.3049 22.775 18.5003 22.9585 17.6247 22.9585C16.7313 22.9638 15.9326 22.7907 15.2167 22.4393Z" fill="#315CFD"/>
</svg>
