<svg width="46" height="40" viewBox="0 0 46 40" fill="none" xmlns="http://www.w3.org/2000/svg">
<path fill-rule="evenodd" clip-rule="evenodd" d="M9.92637 1.31688L22.7482 0L35.5709 1.31688L45.4982 14.2632L22.7491 40L0 14.2632L9.92637 1.31688Z" fill="#FDB300"/>
<path fill-rule="evenodd" clip-rule="evenodd" d="M9.21485 14.4189L22.7491 40L0 14.4189H9.21485Z" fill="#EA6C00"/>
<path fill-rule="evenodd" clip-rule="evenodd" d="M36.286 14.4189L22.7509 40L45.5 14.4189H36.286Z" fill="#EA6C00"/>
<path fill-rule="evenodd" clip-rule="evenodd" d="M9.00842 14.4189H36.0231L22.5157 40L9.00842 14.4189Z" fill="#FDAD00"/>
<path fill-rule="evenodd" clip-rule="evenodd" d="M22.2789 0L9.70649 1.33096L9.00842 14.4189L22.2789 0Z" fill="#FDD231"/>
<path fill-rule="evenodd" clip-rule="evenodd" d="M22.7456 0L35.3179 1.33096L36.016 14.4189L22.7456 0Z" fill="#FDD231"/>
<path fill-rule="evenodd" clip-rule="evenodd" d="M45.5 14.4189L35.5467 1.39517L36.2609 14.4189H45.5Z" fill="#FDAD00"/>
<path fill-rule="evenodd" clip-rule="evenodd" d="M0 14.4189L9.9524 1.39517L9.23818 14.4189H0Z" fill="#FDAD00"/>
<path fill-rule="evenodd" clip-rule="evenodd" d="M22.5157 0L9.00842 14.4189H36.0231L22.5157 0Z" fill="#FEEEB7"/>
</svg>
