<svg width="42" height="41" viewBox="0 0 42 41" fill="none" xmlns="http://www.w3.org/2000/svg">
<path d="M8.04638 0.886231H34.2596C35.204 0.885761 36.1393 1.07339 37.0118 1.43839C37.8844 1.80339 38.6772 2.3386 39.3448 3.01338C40.0124 3.68817 40.5417 4.4893 40.9025 5.37093C41.2633 6.25256 41.4484 7.1974 41.4473 8.15138V33.6211C41.4484 34.5751 41.2633 35.5199 40.9025 36.4015C40.5417 37.2832 40.0124 38.0843 39.3448 38.7591C38.6772 39.4339 37.8844 39.9691 37.0118 40.3341C36.1393 40.6991 35.204 40.8867 34.2596 40.8862H8.0452C7.10076 40.8867 6.16549 40.6991 5.29291 40.3341C4.42034 39.9691 3.62757 39.4339 2.95997 38.7591C2.29237 38.0843 1.76304 37.2832 1.40226 36.4015C1.04148 35.5199 0.856341 34.5751 0.857427 33.6211V8.15138C0.856341 7.1974 1.04148 6.25256 1.40226 5.37093C1.76304 4.4893 2.29237 3.68817 2.95997 3.01338C3.62757 2.3386 4.42034 1.80339 5.29291 1.43839C6.16549 1.07339 7.10076 0.885761 8.0452 0.886231H8.04638Z" fill="#470137"/>
<path d="M22.2139 11.399L17.137 19.8607L22.5526 28.8348C22.5868 28.9028 22.6033 28.9719 22.5868 29.0398C22.5691 29.1089 22.5018 29.0577 22.4004 29.0744H18.5233C18.2519 29.0744 18.0667 29.0577 17.9487 28.8861C17.5924 28.1686 17.2207 27.4679 16.8656 26.7492C16.4944 26.0245 16.1104 25.3066 15.714 24.5956C15.3082 23.8603 14.9023 23.1262 14.4964 22.373H14.4622C14.107 23.1083 13.7177 23.8436 13.3283 24.5778C12.939 25.3131 12.5496 26.0484 12.178 26.7671C11.7886 27.4845 11.3992 28.2199 11.0099 28.9206C10.9426 29.0911 10.8069 29.109 10.6205 29.109H6.89804C6.82961 29.109 6.78005 29.1423 6.78005 29.0577C6.77239 29.0257 6.77137 28.9925 6.77706 28.9601C6.78274 28.9277 6.79501 28.8968 6.81309 28.8694L12.0753 20.1515L6.94878 11.3823C6.89804 11.3132 6.88034 11.2452 6.91456 11.2107C6.94878 11.1594 7.01603 11.1427 7.08328 11.1427H10.9249C11.0099 11.1427 11.0948 11.1594 11.1621 11.1773C11.2293 11.2107 11.2801 11.2619 11.332 11.331C11.6529 12.0664 12.0258 12.8005 12.4139 13.5359C12.821 14.2712 13.2103 14.9898 13.6327 15.7073C14.0386 16.4247 14.4115 17.1422 14.7666 17.8775H14.8008C15.156 17.1267 15.5288 16.3902 15.9005 15.6727C16.2733 14.9553 16.6626 14.2366 17.0508 13.5192C17.4402 12.8005 17.813 12.0652 18.1847 11.3644C18.2024 11.2965 18.2354 11.2285 18.2873 11.194C18.3546 11.1594 18.4218 11.1427 18.5068 11.1594H22.0771C22.0971 11.1549 22.1177 11.1543 22.1379 11.1578C22.1581 11.1613 22.1775 11.1689 22.1948 11.1799C22.2121 11.191 22.2271 11.2054 22.2389 11.2223C22.2507 11.2393 22.259 11.2584 22.2635 11.2786C22.28 11.2965 22.247 11.3644 22.2128 11.399H22.2139ZM30.0329 29.4343C28.7784 29.455 27.5351 29.1919 26.3942 28.6644C25.3326 28.163 24.4429 27.3535 23.8386 26.3392C23.2133 25.2964 22.9077 23.9974 22.9077 22.4421C22.8904 21.1768 23.2121 19.9303 23.8386 18.8345C24.4807 17.7212 25.4106 16.8053 26.5287 16.1852C27.7145 15.5178 29.1362 15.1936 30.8117 15.1936C30.8954 15.1936 31.0134 15.1936 31.1656 15.2115C31.319 15.2282 31.4877 15.2282 31.6907 15.2449V9.84369C31.6907 9.72451 31.7414 9.65539 31.8606 9.65539H35.2952C35.3801 9.6387 35.4485 9.70664 35.4651 9.77457V26.083C35.4651 26.3905 35.4816 26.7325 35.4981 27.1079C35.5335 27.4679 35.5488 27.8099 35.5665 28.0995C35.5665 28.2187 35.5158 28.3224 35.3966 28.3736C34.5176 28.749 33.5867 29.0231 32.6381 29.1936C31.7756 29.3485 30.9119 29.4331 30.0329 29.4331V29.4343ZM31.6907 26.0139V18.4937C31.5385 18.4579 31.3862 18.4246 31.234 18.4079C31.0476 18.39 30.8612 18.3733 30.676 18.3733C30.0152 18.3733 29.3545 18.5104 28.7634 18.8179C28.1848 19.1086 27.6893 19.5439 27.324 20.0823C26.9523 20.6306 26.7659 21.3647 26.7659 22.2538C26.7512 22.8536 26.8489 23.4508 27.0538 24.0141C27.2237 24.4765 27.4773 24.8864 27.816 25.2285C28.1369 25.536 28.5262 25.7755 28.9663 25.9114C29.4229 26.0663 29.8973 26.1342 30.3704 26.1342C30.6252 26.1342 30.8612 26.1176 31.0818 26.0997C31.3013 26.1176 31.4877 26.083 31.6907 26.0151V26.0139Z" fill="#FF61F6"/>
</svg>
