<svg width="40" height="40" viewBox="0 0 40 40" fill="none" xmlns="http://www.w3.org/2000/svg">
<g clip-path="url(#clip0)">
<path d="M25.9322 2.47469C25.3244 0.6036 23.3147 -0.420304 21.4439 0.18782C19.5729 0.795631 18.549 2.80531 19.1571 4.67609L28.3675 33.0143C29 34.7623 30.8881 35.7445 32.7006 35.2229C34.5912 34.6787 35.7435 32.6707 35.1402 30.814L25.9322 2.47469Z" fill="#DFA22F"/>
<path d="M11.66 7.11188C11.0519 5.24094 9.04238 4.21704 7.1716 4.82485C5.30035 5.43282 4.27628 7.44234 4.88456 9.31343L14.0952 37.6518C14.7275 39.3996 16.6158 40.382 18.4283 39.8599C20.3188 39.316 21.4711 37.3081 20.8678 35.451L11.66 7.11188Z" fill="#3CB187"/>
<path d="M37.5255 25.9445C39.3966 25.3367 40.4202 23.3273 39.8124 21.4561C39.2046 19.5853 37.1949 18.5612 35.3241 19.1692L6.98584 28.3799C5.23787 29.0121 4.25568 30.9002 4.77724 32.7127C5.32146 34.6032 7.32943 35.7556 9.18615 35.1524L37.5255 25.9446" fill="#CE1E5B"/>
<path d="M12.8919 33.9484L19.6649 31.7478L17.4639 24.9741L10.6904 27.1756L12.8919 33.9485" fill="#392538"/>
<path d="M27.1636 29.3111C29.7243 28.4794 32.1043 27.7059 33.9368 27.1105L31.7355 20.3355L24.962 22.537L27.1636 29.3111Z" fill="#BB242A"/>
<path d="M32.8876 11.6729C34.7586 11.065 35.7825 9.0555 35.1747 7.18424C34.5668 5.31346 32.5572 4.28955 30.6861 4.89736L2.34763 14.1083C0.599816 14.7402 -0.382528 16.6285 0.139503 18.441C0.683409 20.3313 2.69138 21.4838 4.54841 20.8805L32.8876 11.6727" fill="#72C5CD"/>
<path d="M8.25346 19.6771C10.098 19.0777 12.4761 18.3049 15.0276 17.4761C14.1958 14.9152 13.4224 12.5352 12.8269 10.7023L6.05188 12.9042L8.25346 19.6771" fill="#248C73"/>
<path d="M22.525 15.0401L29.2994 12.8388C28.5657 10.5804 27.8319 8.32207 27.098 6.06375L20.3235 8.26564L22.525 15.0401Z" fill="#62803A"/>
</g>
<defs>
<clipPath id="clip0">
<rect width="40" height="40" fill="white"/>
</clipPath>
</defs>
</svg>
