<svg width="40" height="40" viewBox="0 0 40 40" fill="none" xmlns="http://www.w3.org/2000/svg">
<path d="M11.9714 18.6247C11.4309 18.0492 10.5887 18.0842 10.2308 18.8213L1.40102 36.4385C1.05009 37.1404 1.56938 37.9617 2.34149 37.9617H14.6245C15.0316 37.9687 15.3966 37.737 15.5651 37.372C18.2252 31.9114 16.6249 23.594 11.9714 18.6247Z" fill="#094AA5"/>
<path d="M19.9271 2.60077C11.343 16.1751 19.3304 27.0683 24.4893 37.379C24.6648 37.737 25.0298 37.9687 25.4298 37.9687H37.6567C38.4429 37.9687 38.9481 37.1405 38.5973 36.4455C38.5973 36.4455 22.138 3.41491 21.7238 2.59374C21.352 1.84968 20.4044 1.83569 19.9271 2.60077Z" fill="#2681FF"/>
</svg>
