<svg width="55" height="40" viewBox="0 0 55 40" fill="none" xmlns="http://www.w3.org/2000/svg">
<g clip-path="url(#clip0)">
<path d="M0.372803 1.2374H33.3728V34.2374H0.372803V1.2374Z" fill="url(#paint0_radial)"/>
<path d="M1.37445 1.27434H31.6189V31.4549H1.37445V1.27434ZM0 32.8646H33V-0.135391H0V32.8646ZM21.6145 11.6305C21.6145 11.5153 21.6542 11.461 21.7797 11.461H23.9405C24.0529 11.461 24.1057 11.5017 24.1057 11.6305V22.7592C24.1057 22.8745 24.0793 22.9287 23.9405 22.9287H21.8062C21.6674 22.9287 21.6278 22.8609 21.6278 22.7457V11.6305H21.6145ZM21.4626 8.42468C21.4626 7.52326 22.0837 6.98784 22.8634 6.98784C23.7026 6.98784 24.2643 7.56393 24.2643 8.42468C24.2643 9.35321 23.6762 9.86153 22.837 9.86153C22.0441 9.86831 21.4626 9.35999 21.4626 8.42468ZM15.2775 16.2663C14.8943 14.7007 13.9824 11.2916 13.6388 9.63787H13.6123C13.3216 11.2848 12.5947 14.0772 12.0198 16.2663H15.2775ZM11.4581 18.5504L10.3744 22.7796C10.348 22.8948 10.3084 22.9219 10.1696 22.9219H8.14758C8.00881 22.9219 7.98238 22.8812 8.00881 22.7118L11.9141 8.69579C11.9802 8.44501 12.0264 8.21458 12.0529 7.52327C12.0529 7.4216 12.0925 7.38093 12.1652 7.38093H15.0529C15.152 7.38093 15.1916 7.40805 15.2181 7.52327L19.5925 22.7389C19.6189 22.8541 19.5925 22.9219 19.4802 22.9219H17.2004C17.0881 22.9219 17.022 22.8948 16.9956 22.7931L15.8656 18.5504H11.4581V18.5504Z" fill="#FF7F18"/>
</g>
<g clip-path="url(#clip1)">
<path d="M20.3728 7.2572H53.3728V40.2572H20.3728V7.2572Z" fill="url(#paint1_radial)"/>
<path d="M22.3756 8.295H52.6311V38.4738H22.3756V8.295ZM21 39.8844H54V6.8844H21V39.8844ZM43.2535 20.4276C42.1689 20.4276 41.7986 20.9904 41.7986 21.4584C41.7986 21.967 42.0433 22.3197 43.5048 23.0928C45.6607 24.1643 46.3353 25.1951 46.3353 26.7007C46.3353 28.959 44.6555 30.1729 42.3872 30.1729C41.1902 30.1729 40.1585 29.922 39.5699 29.5694C39.4707 29.5287 39.4575 29.4541 39.4575 29.3456V27.2636C39.4575 27.1211 39.5236 27.0805 39.6228 27.1483C40.4892 27.7247 41.4812 27.9824 42.3872 27.9824C43.4717 27.9824 43.9281 27.5145 43.9281 26.8838C43.9281 26.3752 43.6106 25.9276 42.2218 25.1883C40.2709 24.2321 39.4575 23.2623 39.4575 21.6347C39.4575 19.8172 40.8463 18.3049 43.2535 18.3049C44.4373 18.3049 45.2639 18.488 45.7136 18.6982C45.8261 18.766 45.8525 18.8813 45.8525 18.983V20.9158C45.8525 21.0311 45.7864 21.0989 45.6475 21.0583C45.0391 20.6649 44.1463 20.4276 43.2535 20.4276ZM31.4291 22.1027C31.7465 22.1298 31.9912 22.1298 32.5401 22.1298C34.1471 22.1298 35.6615 21.5533 35.6615 19.3086C35.6615 17.5182 34.577 16.6162 32.7451 16.6162C32.1962 16.6162 31.6737 16.6433 31.4224 16.6569L31.4291 22.1027ZM28.9756 14.6156C28.9756 14.5139 29.1673 14.4461 29.2798 14.4461C30.1593 14.4054 31.4687 14.3782 32.8244 14.3782C36.6337 14.3782 38.1216 16.5213 38.1216 19.2543C38.1216 22.8351 35.5888 24.3745 32.4806 24.3745C31.9581 24.3745 31.7796 24.3474 31.4092 24.3474V29.7592C31.4092 29.8745 31.3695 29.9288 31.2439 29.9288H29.1409C29.0285 29.9288 28.9756 29.8881 28.9756 29.7592V14.6156Z" fill="#31C5F0"/>
</g>
<defs>
<radialGradient id="paint0_radial" cx="0" cy="0" r="1" gradientUnits="userSpaceOnUse" gradientTransform="translate(11.2524 8.63888) scale(25.0811 24.9592)">
<stop stop-color="#423325" stop-opacity="0.98"/>
<stop offset="1" stop-color="#1C0A00"/>
</radialGradient>
<radialGradient id="paint1_radial" cx="0" cy="0" r="1" gradientUnits="userSpaceOnUse" gradientTransform="translate(31.2493 14.661) scale(25.0763 24.9604)">
<stop stop-color="#34364E" stop-opacity="0.98"/>
<stop offset="1" stop-color="#0C0824"/>
</radialGradient>
<clipPath id="clip0">
<rect width="33" height="33" fill="white"/>
</clipPath>
<clipPath id="clip1">
<rect width="33" height="33" fill="white" transform="translate(21 7)"/>
</clipPath>
</defs>
</svg>
