<svg width="72" height="72" viewBox="0 0 72 72" fill="none" xmlns="http://www.w3.org/2000/svg">
<circle cx="36" cy="36" r="35.25" stroke="#EC595A" stroke-width="1.5"/>
<path d="M48.3936 33.421C48.3838 33.3997 48.3739 33.3783 48.3641 33.3569C47.6562 31.8315 47.3114 30.1629 47.3107 28.4812L47.3093 24.9527C47.3093 19.9267 44.0305 15.6671 39.4954 14.1944C34.3978 15.1621 30.5432 19.6401 30.5432 25.0192L30.5418 28.457C30.5411 30.0954 30.2052 31.7212 29.5155 33.2074C29.5058 33.2282 29.4962 33.249 29.4867 33.2698C27.9644 36.602 30.0711 40.5064 33.7004 41.0053C34.0526 41.0537 34.4124 41.0787 34.7779 41.0787H45.2138C48.2157 39.9929 49.7879 36.4732 48.3936 33.421Z" fill="#E7A561"/>
<path d="M33.0675 25.2524H35.2149V30.3053H33.0675C31.6719 30.3053 30.5407 29.1738 30.541 27.7782C30.5414 26.3832 31.6724 25.2524 33.0675 25.2524Z" fill="#FFCBBE"/>
<path d="M53.6392 33.2699C53.6297 33.2491 53.62 33.2283 53.6104 33.2074C52.9207 31.7212 52.5848 30.0955 52.5842 28.457L52.5828 25.0192C52.5827 18.9335 47.6491 14 41.5634 14C40.54 14 39.5495 14.1401 38.6094 14.401C43.2606 15.6923 46.6746 19.9568 46.6746 25.0192L46.676 28.457C46.6767 30.0955 47.0126 31.7212 47.7023 33.2074C47.7119 33.2282 47.7215 33.2491 47.731 33.2699C49.2533 36.6021 47.1466 40.5065 43.5173 41.0053C43.1651 41.0537 42.8053 41.0787 42.4398 41.0787H48.3479C48.7134 41.0787 49.0732 41.0537 49.4254 41.0053C53.0548 40.5065 55.1614 36.6022 53.6392 33.2699Z" fill="#E49542"/>
<path d="M41.5616 45.7102C44.1711 45.7102 46.5037 44.531 48.0595 42.6775C48.5872 42.0488 48.2381 41.083 47.432 40.9278C46.4169 40.7325 45.6833 39.8442 45.6833 38.8105V32.8882H37.4398V38.8106C37.4398 39.8443 36.7062 40.7326 35.6911 40.9279C34.885 41.0831 34.5359 42.0489 35.0636 42.6776C36.6194 44.531 38.952 45.7102 41.5616 45.7102Z" fill="#FFCBBE"/>
<path d="M33.5488 46.7795V57.5403L34.2791 58.3193H48.8455L49.5758 57.5403V46.7795C49.5758 46.0292 49.5129 45.2828 49.3915 44.5471C48.4062 43.8182 47.3127 43.2207 46.1338 42.7836C44.9384 43.9055 43.3311 44.5933 41.5622 44.5933C38.9634 44.5933 36.7126 43.1097 35.6061 40.9442L34.7796 41.1033C33.9701 42.8842 33.5488 44.8192 33.5488 46.7795Z" fill="#F9F6F9"/>
<path d="M47.5636 41.0376L47.5191 40.9442C47.0743 41.8145 46.4444 42.5744 45.6816 43.1724C46.7632 43.5535 47.7725 44.0741 48.6909 44.7104C48.4958 43.4414 48.1178 42.2037 47.5636 41.0376Z" fill="#DDDAEC"/>
<path d="M23.0781 53.872V56.2067C23.0781 57.3734 24.024 58.3193 25.1907 58.3193H28.4778V57.9861H29.8154V58.3193H34.2792V46.8787C34.2792 44.8119 34.763 42.7739 35.6919 40.9278L33.4063 41.3677C27.411 42.521 23.0781 47.7671 23.0781 53.872Z" fill="#9BC4F9"/>
<path d="M48.5566 43.9776C48.7474 44.8778 48.8458 45.798 48.8458 46.7238V58.3194H53.3095V57.9862H54.6471V58.3194H54.7608V55.1913C54.7608 50.5245 52.3244 46.3415 48.5566 43.9776Z" fill="#9BC4F9"/>
<path d="M49.7175 41.3676L49.6702 41.3585L47.5176 40.9442L47.5621 41.0377C48.1163 42.2037 48.4942 43.4415 48.6894 44.7105C52.0381 47.0307 54.1752 50.8937 54.1752 55.181V57.9861H54.646V58.3193H57.9331C59.0998 58.3193 60.0457 57.3734 60.0457 56.2067V53.8724C60.0456 47.7673 55.7127 42.5212 49.7175 41.3676Z" fill="#7FB2F9"/>
<path d="M29.8161 58.2966V54.3052C29.8161 53.9357 29.5166 53.6364 29.1473 53.6364C28.7779 53.6364 28.4785 53.9358 28.4785 54.3052V58.2966C28.4785 58.3042 28.4794 58.3116 28.4796 58.3193H29.8149C29.8151 58.3116 29.8161 58.3043 29.8161 58.2966Z" fill="#61A2F9"/>
<path d="M53.9774 53.6364C53.6079 53.6364 53.3086 53.9358 53.3086 54.3052V58.3193H54.6462V54.3052C54.6461 53.9358 54.3467 53.6364 53.9774 53.6364Z" fill="#61A2F9"/>
<path d="M48.0605 31.1543H50.7639C51.911 31.1543 52.8411 30.2244 52.8411 29.0773V26.4805C52.8411 25.3334 51.9111 24.4034 50.7639 24.4034H48.0605V31.1543Z" fill="#365E7D"/>
<path d="M48.2244 33.0419C47.6111 31.6031 47.3114 30.0479 47.3108 28.4813L47.3094 24.9528C47.3094 23.5868 47.067 22.2775 46.6232 21.0653C46.2436 20.9321 45.8357 20.8589 45.4106 20.8589C44.4297 20.8589 43.4898 21.2524 42.8015 21.9513C42.0089 22.756 40.9267 23.209 39.7974 23.209H36.4987C35.1478 23.209 34.0527 24.3041 34.0527 25.655V29.6884C34.1146 33.7843 37.4522 37.086 41.5628 37.086C44.46 37.086 46.9715 35.4445 48.2244 33.0419Z" fill="#FFDDCE"/>
<path d="M49.072 24.521C49.072 22.6548 47.6757 21.1158 45.8711 20.8888C46.3874 22.1646 46.6733 23.5584 46.6733 25.0193L46.6746 28.457C46.6753 30.0955 47.0112 31.7213 47.7009 33.2074C47.7105 33.2282 47.7201 33.2491 47.7296 33.2699C47.7847 33.3904 47.8345 33.5118 47.8801 33.6337C48.6144 32.4927 49.05 31.1411 49.072 29.6884V24.521Z" fill="#FFCBBE"/>
<path d="M50.7634 31.1543H50.041V33.1477C50.041 33.6741 49.6128 34.1023 49.0863 34.1023H46.4988C46.1402 34.1023 45.8496 34.3929 45.8496 34.7515C45.8496 35.1101 46.1402 35.4007 46.4988 35.4007H49.0863C50.3287 35.4007 51.3394 34.39 51.3394 33.1477V31.0728C51.1564 31.1255 50.9633 31.1543 50.7634 31.1543Z" fill="#F9F6F9"/>
<path d="M45.897 36.1534H43.8686C43.0944 36.1534 42.4668 35.5258 42.4668 34.7516C42.4668 33.9774 43.0944 33.3499 43.8686 33.3499H45.897C46.6712 33.3499 47.2988 33.9774 47.2988 34.7516C47.2988 35.5257 46.6712 36.1534 45.897 36.1534Z" fill="#475959"/>
<path d="M12 21.7201C12 17.8302 15.1815 14.6832 19.0843 14.7394C22.8649 14.7938 25.939 17.8942 25.9628 21.6751C25.9763 23.7924 25.0468 25.6927 23.5699 26.9817C23.414 27.1177 23.4365 27.3659 23.6145 27.4713L24.93 28.2496C25.1427 28.3755 25.0534 28.7015 24.8063 28.7015L18.8493 28.7C15.0546 28.6295 12 25.5317 12 21.7201Z" fill="#7ACAA6"/>
<path d="M24.931 28.2497L23.6155 27.4713C23.4384 27.3666 23.4138 27.1187 23.5688 26.9835C25.0626 25.6808 25.9969 23.7528 25.9631 21.6073C25.9045 17.8962 22.9008 14.8498 19.1907 14.7417C18.6646 14.7264 18.1511 14.7694 17.6562 14.8645C20.8631 15.4793 23.3071 18.306 23.3283 21.675C23.3386 23.3066 22.7891 24.8093 21.8606 26.0027C21.3 26.7233 21.4822 27.7683 22.268 28.2333L22.2955 28.2496C22.5058 28.3741 22.4205 28.6938 22.1796 28.7007L24.8072 28.7014C25.0544 28.7015 25.1437 28.3755 24.931 28.2497Z" fill="#57BE92"/>
<path d="M16.3463 22.3789C16.7102 22.3789 17.0051 22.0839 17.0051 21.7201C17.0051 21.3562 16.7102 21.0612 16.3463 21.0612C15.9825 21.0612 15.6875 21.3562 15.6875 21.7201C15.6875 22.0839 15.9825 22.3789 16.3463 22.3789Z" fill="white"/>
<path d="M18.983 22.3789C19.3469 22.3789 19.6419 22.0839 19.6419 21.7201C19.6419 21.3562 19.3469 21.0612 18.983 21.0612C18.6192 21.0612 18.3242 21.3562 18.3242 21.7201C18.3242 22.0839 18.6192 22.3789 18.983 22.3789Z" fill="white"/>
<path d="M21.6178 22.3789C21.9817 22.3789 22.2766 22.0839 22.2766 21.7201C22.2766 21.3562 21.9817 21.0612 21.6178 21.0612C21.2539 21.0612 20.959 21.3562 20.959 21.7201C20.959 22.0839 21.2539 22.3789 21.6178 22.3789Z" fill="white"/>
</svg>
