<svg width="72" height="72" viewBox="0 0 72 72" fill="none" xmlns="http://www.w3.org/2000/svg">
<circle cx="36" cy="36" r="35.25" stroke="#EC595A" stroke-width="1.5"/>
<path d="M48.4531 58C54.278 58 59 53.278 59 47.4531C59 41.6282 54.278 36.9062 48.4531 36.9062C42.6282 36.9062 37.9062 41.6282 37.9062 47.4531C37.9062 53.278 42.6282 58 48.4531 58Z" fill="#F79CAF"/>
<path d="M35.0938 18.8008V28.293C35.0938 31.4913 32.4913 34.0938 29.293 34.0938H19.8008C16.6024 34.0938 14 31.4913 14 28.293V18.8008C14 15.6024 16.6024 13 19.8008 13H29.293C32.4913 13 35.0938 15.6024 35.0938 18.8008Z" fill="#ACEBE2"/>
<path d="M59 18.8008V28.293C59 31.4913 56.3976 34.0938 53.1992 34.0938H43.707C40.5087 34.0938 37.9062 31.4913 37.9062 28.293V18.8008C37.9062 15.6024 40.5087 13 43.707 13H53.1992C56.3976 13 59 15.6024 59 18.8008Z" fill="#ACEBE2"/>
<path d="M35.0938 42.707V52.1992C35.0938 55.3976 32.4913 58 29.293 58H19.8008C16.6024 58 14 55.3976 14 52.1992V42.707C14 39.5087 16.6024 36.9062 19.8008 36.9062H29.293C32.4913 36.9062 35.0938 39.5087 35.0938 42.707Z" fill="#ACEBE2"/>
<path d="M59 47.4531C59 53.2688 54.2688 58 48.4531 58C47.9768 58 47.5065 57.9684 47.0469 57.906C52.2008 57.2169 56.1875 52.7916 56.1875 47.4531C56.1875 42.1146 52.2008 37.6894 47.0469 37.0003C47.5065 36.9379 47.9768 36.9062 48.4531 36.9062C54.2688 36.9062 59 41.6374 59 47.4531Z" fill="#E3889B"/>
<path d="M35.0938 18.8008V28.293C35.0938 31.4913 32.4913 34.0938 29.293 34.0938H26.4805C29.6788 34.0938 32.2812 31.4913 32.2812 28.293V18.8008C32.2812 15.6024 29.6788 13 26.4805 13H29.293C32.4913 13 35.0938 15.6024 35.0938 18.8008Z" fill="#98D7CE"/>
<path d="M59 18.8008V28.293C59 31.4913 56.3976 34.0938 53.1992 34.0938H50.3867C53.5851 34.0938 56.1875 31.4913 56.1875 28.293V18.8008C56.1875 15.6024 53.5851 13 50.3867 13H53.1992C56.3976 13 59 15.6024 59 18.8008Z" fill="#98D7CE"/>
<path d="M35.0938 42.707V52.1992C35.0938 55.3976 32.4913 58 29.293 58H26.4805C29.6788 58 32.2812 55.3976 32.2812 52.1992V42.707C32.2812 39.5087 29.6788 36.9062 26.4805 36.9062H29.293C32.4913 36.9062 35.0938 39.5087 35.0938 42.707Z" fill="#98D7CE"/>
</svg>
