<svg width="80" height="65" viewBox="0 0 80 65" fill="none" xmlns="http://www.w3.org/2000/svg">
<path d="M76.143 11.3338H76.643V10.8338V4.64285C76.643 3.51335 75.7249 2.59523 74.5954 2.59523H4.64285C3.51338 2.59523 2.59523 3.51332 2.59523 4.64269V10.8338V11.3338H3.09523H76.143ZM3.09523 13.4289H2.59523V13.9288V60.357C2.59523 61.4865 3.51335 62.4046 4.64285 62.4046H74.5954C75.7249 62.4046 76.643 61.4865 76.6428 60.357V13.9288V13.4289H76.1428H3.09523ZM4.64285 0.499998H74.5954C76.8793 0.499998 78.7382 2.35879 78.7382 4.64269V60.3572C78.7382 62.6411 76.8793 64.5 74.5954 64.5H4.64285C2.35892 64.5 0.499998 62.6411 0.499998 60.3572V4.64285C0.499998 2.35892 2.35892 0.499998 4.64285 0.499998Z" fill="#616161" stroke="#616161" stroke-width="0.999996"/>
<path d="M73.3219 6.96522C73.3219 7.54383 72.8529 8.01285 72.2743 8.01285C71.6954 8.01285 71.2261 7.54357 71.2261 6.96522C71.2261 6.38642 71.6948 5.9176 72.2732 5.9176H72.2743C72.8529 5.9176 73.3219 6.38661 73.3219 6.96522Z" fill="#616161" stroke="#616161" stroke-width="0.999996"/>
<path d="M67.9132 6.96522C67.9132 7.54383 67.4442 8.01285 66.8656 8.01285C66.2868 8.01285 65.8174 7.54357 65.8174 6.96522C65.8174 6.38642 66.2861 5.9176 66.8645 5.9176H66.8656C67.4442 5.9176 67.9132 6.38661 67.9132 6.96522Z" fill="#616161" stroke="#616161" stroke-width="0.999996"/>
<path d="M62.487 6.96522C62.487 7.54383 62.018 8.01285 61.4394 8.01285C60.8605 8.01285 60.3911 7.54357 60.3911 6.96522C60.3911 6.38642 60.8599 5.9176 61.4383 5.9176H61.4394C62.018 5.9176 62.487 6.38661 62.487 6.96522Z" fill="#616161" stroke="#616161" stroke-width="0.999996"/>
<path d="M66.5836 30.7708L66.23 30.4173L63.5285 27.7157L63.1749 27.3622L63.5285 27.0086L66.3466 24.1907L66.3466 24.1907C67.2867 23.2508 68.8153 23.2507 69.7553 24.1907L66.5836 30.7708ZM66.5836 30.7708L66.9371 30.4173M66.5836 30.7708L66.9371 30.4173M66.9371 30.4173L69.7552 27.5992M66.9371 30.4173L69.7552 27.5992M69.7552 27.5992C70.2083 27.1461 70.4571 26.5389 70.4571 25.8951C70.4571 25.2514 70.2087 24.6439 69.7553 24.1907L69.7552 27.5992ZM42.0035 45.7267L41.6137 45.5968L42.0035 45.7267C42.0549 45.5724 42.1415 45.4322 42.2566 45.3172L64.8648 22.7089C64.8648 22.7089 64.8649 22.7089 64.8649 22.7089C66.6215 20.9527 69.4803 20.9526 71.2367 22.7089C72.9932 24.4653 72.9932 27.3243 71.2367 29.0808L48.6285 51.6889C48.5134 51.8039 48.3733 51.8906 48.2189 51.942L48.3713 52.3992L48.2189 51.942L40.8834 54.3874C40.0874 54.6526 39.2932 53.8574 39.5582 53.0623L39.1092 52.9126L39.5582 53.0623L42.0035 45.7267ZM49.4903 47.1568L49.8439 47.5104L50.1974 47.1568L64.7483 32.6059L65.1019 32.2524L64.7483 31.8988L62.0468 29.1973L61.6933 28.8437L61.3397 29.1973L46.7887 43.7482L46.4351 44.1017L46.7887 44.4553L49.4903 47.1568ZM42.5249 50.7883L42.2086 51.737L43.1574 51.4207L47.21 50.0697L47.3219 50.0323L47.4054 49.9489L48.0088 49.3455L48.3624 48.9919L48.0088 48.6383L45.3071 45.9368L44.9536 45.5833L44.6 45.9368L43.9966 46.5402L43.9131 46.6237L43.8758 46.7357L42.5249 50.7883Z" fill="#616161" stroke="#616161" stroke-width="0.999996"/>
<path d="M6.68652 41.012C6.68652 40.4334 7.15553 39.9644 7.73414 39.9644H21.5087C22.0874 39.9644 22.5564 40.4334 22.5564 41.012C22.5564 41.5906 22.0874 42.0596 21.5087 42.0596H7.73414C7.15553 42.0596 6.68652 41.5906 6.68652 41.012Z" fill="#616161" stroke="#616161" stroke-width="0.999996"/>
<path d="M7.73414 46.1548H32.8059C33.3845 46.1548 33.8535 46.6238 33.8535 47.2024C33.8535 47.781 33.3845 48.25 32.8059 48.25H7.73414C7.15553 48.25 6.68652 47.781 6.68652 47.2024C6.68652 46.6238 7.15553 46.1548 7.73414 46.1548Z" fill="#616161" stroke="#616161" stroke-width="0.999996"/>
<path d="M7.73414 52.3455H28.1629C28.7415 52.3455 29.2105 52.8145 29.2105 53.3931C29.2105 53.9717 28.7415 54.4407 28.1629 54.4407H7.73414C7.15553 54.4407 6.68652 53.9717 6.68652 53.3931C6.68652 52.8145 7.15553 52.3455 7.73414 52.3455Z" fill="#616161" stroke="#616161" stroke-width="0.999996"/>
</svg>
