<svg width="64" height="67" viewBox="0 0 64 67" fill="none" xmlns="http://www.w3.org/2000/svg">
<path d="M29.801 57.602H8C4.68629 57.602 2 54.9157 2 51.602V8C2 4.68629 4.68629 2 8 2H51.602C54.9157 2 57.602 4.68629 57.602 8V29.801" stroke="#616161" stroke-width="3"/>
<line x1="2.8125" y1="22.4376" x2="56.4377" y2="22.4376" stroke="#616161" stroke-width="3"/>
<circle cx="12.1942" cy="12.1938" r="1.5" fill="#616161" stroke="#616161" stroke-width="2.5602"/>
<circle cx="19.6068" cy="12.1938" r="1.5" fill="#616161" stroke="#616161" stroke-width="2.5602"/>
<line x1="20.5625" y1="21.5001" x2="20.5625" y2="57.2502" stroke="#616161" stroke-width="3"/>
<line x1="38.7153" y1="13.4739" x2="50.5425" y2="13.4739" stroke="#616161" stroke-width="3" stroke-linecap="round"/>
<path d="M51.718 55.7688L50.9942 55.8872L50.6431 56.531L46.1339 64.8L42.0448 42.7806L61.192 54.2197L51.718 55.7688Z" fill="#616161" stroke="#616161" stroke-width="3"/>
<mask id="path-8-inside-1_2347_29152" fill="white">
<path fill-rule="evenodd" clip-rule="evenodd" d="M34.7158 30.3876L38.4646 35.7345C39.0894 36.753 37.5899 37.8987 36.8401 36.8803L33.2162 31.5334C32.4665 30.5149 34.091 29.3691 34.7158 30.3876Z"/>
</mask>
<path fill-rule="evenodd" clip-rule="evenodd" d="M34.7158 30.3876L38.4646 35.7345C39.0894 36.753 37.5899 37.8987 36.8401 36.8803L33.2162 31.5334C32.4665 30.5149 34.091 29.3691 34.7158 30.3876Z" fill="#616161"/>
<path d="M34.7158 30.3876L32.1586 31.9564L32.2066 32.0346L32.2594 32.1098L34.7158 30.3876ZM38.4646 35.7345L41.0217 34.1657L40.9737 34.0875L40.921 34.0123L38.4646 35.7345ZM36.8401 36.8803L34.3567 38.5634L34.3895 38.6117L34.4242 38.6588L36.8401 36.8803ZM33.2162 31.5334L35.6996 29.8503L35.6668 29.8019L35.6322 29.7548L33.2162 31.5334ZM32.2594 32.1098L36.0082 37.4567L40.921 34.0123L37.1722 28.6654L32.2594 32.1098ZM35.9074 37.3033C35.6175 36.8307 35.5378 36.235 35.6868 35.6923C35.8193 35.2097 36.1003 34.8672 36.3934 34.6522C36.6855 34.438 37.1525 34.2344 37.7498 34.2847C38.427 34.3417 38.9617 34.7019 39.256 35.1017L34.4242 38.6588C35.0934 39.5678 36.0967 40.1667 37.2464 40.2635C38.3162 40.3536 39.2596 39.9909 39.9422 39.4902C41.2537 38.5282 42.3523 36.3346 41.0217 34.1657L35.9074 37.3033ZM39.3235 35.1972L35.6996 29.8503L30.7329 33.2165L34.3567 38.5634L39.3235 35.1972ZM35.6322 29.7548C35.9587 30.1984 36.118 30.8413 35.9627 31.485C35.8288 32.0402 35.5109 32.4059 35.2249 32.6156C34.945 32.821 34.4754 33.0367 33.8522 32.9824C33.1135 32.9181 32.4893 32.4954 32.1586 31.9564L37.2729 28.8188C36.6298 27.7706 35.5682 27.1092 34.3727 27.0051C33.2926 26.911 32.3466 27.2858 31.6762 27.7776C30.9997 28.2739 30.3772 29.0532 30.13 30.0779C29.8615 31.1911 30.0989 32.3591 30.8003 33.3119L35.6322 29.7548Z" fill="#616161" mask="url(#path-8-inside-1_2347_29152)"/>
<mask id="path-10-inside-2_2347_29152" fill="white">
<path fill-rule="evenodd" clip-rule="evenodd" d="M44.0899 29.1144L42.9653 35.4798C42.7153 36.7529 40.9659 36.3709 41.0909 35.2252L42.2155 28.7325C42.4654 27.4595 44.3398 27.8414 44.0899 29.1144Z"/>
</mask>
<path fill-rule="evenodd" clip-rule="evenodd" d="M44.0899 29.1144L42.9653 35.4798C42.7153 36.7529 40.9659 36.3709 41.0909 35.2252L42.2155 28.7325C42.4654 27.4595 44.3398 27.8414 44.0899 29.1144Z" fill="#616161"/>
<path d="M44.0899 29.1144L41.1461 28.5365L41.1406 28.5645L41.1357 28.5925L44.0899 29.1144ZM42.9653 35.4798L45.9091 36.0577L45.9146 36.0298L45.9195 36.0018L42.9653 35.4798ZM41.0909 35.2252L38.1349 34.7132L38.1188 34.8061L38.1085 34.8999L41.0909 35.2252ZM42.2155 28.7325L39.2717 28.1546L39.2652 28.1875L39.2595 28.2205L42.2155 28.7325ZM41.1357 28.5925L40.011 34.9578L45.9195 36.0018L47.0441 29.6364L41.1357 28.5925ZM40.0214 34.9019C40.1008 34.4977 40.3743 33.9659 40.9404 33.6062C41.4566 33.2781 41.997 33.2329 42.4065 33.3048C42.8112 33.3759 43.2431 33.5857 43.5826 33.9855C43.9595 34.4293 44.1323 35.0083 44.0732 35.5504L38.1085 34.8999C37.8402 37.3602 39.6919 38.9198 41.3685 39.2143C42.2309 39.3658 43.2477 39.2489 44.1584 38.6702C45.1188 38.0599 45.7048 37.0984 45.9091 36.0577L40.0214 34.9019ZM44.0468 35.7372L45.1715 29.2446L39.2595 28.2205L38.1349 34.7132L44.0468 35.7372ZM45.1593 29.3104C45.0684 29.7737 44.7562 30.3127 44.1846 30.6532C43.6737 30.9577 43.1468 30.9909 42.7412 30.9083C42.3351 30.8255 41.8728 30.591 41.5274 30.125C41.1416 29.6045 41.0552 28.9993 41.1461 28.5365L47.0337 29.6924C47.2495 28.593 47.0226 27.4628 46.3478 26.5523C45.7135 25.6965 44.8137 25.2073 43.9391 25.0291C43.0649 24.851 42.0382 24.9478 41.1133 25.499C40.1278 26.0862 39.4876 27.0548 39.2717 28.1546L45.1593 29.3104Z" fill="#616161" mask="url(#path-10-inside-2_2347_29152)"/>
<mask id="path-12-inside-3_2347_29152" fill="white">
<path fill-rule="evenodd" clip-rule="evenodd" d="M51.5838 34.8428L46.4605 38.662C45.3358 39.2985 44.3361 37.7708 45.3358 37.007L50.5841 33.3151C51.5838 32.5513 52.7085 34.2062 51.5838 34.8428Z"/>
</mask>
<path fill-rule="evenodd" clip-rule="evenodd" d="M51.5838 34.8428L46.4605 38.662C45.3358 39.2985 44.3361 37.7708 45.3358 37.007L50.5841 33.3151C51.5838 32.5513 52.7085 34.2062 51.5838 34.8428Z" fill="#616161"/>
<path d="M51.5838 34.8428L50.1061 32.232L49.942 32.3248L49.7908 32.4375L51.5838 34.8428ZM46.4605 38.662L47.9381 41.2728L48.1023 41.1799L48.2534 41.0672L46.4605 38.662ZM45.3358 37.007L43.6098 34.5533L43.5614 34.5873L43.5144 34.6232L45.3358 37.007ZM50.5841 33.3151L52.3102 35.7688L52.3586 35.7348L52.4056 35.6989L50.5841 33.3151ZM49.7908 32.4375L44.6675 36.2567L48.2534 41.0672L53.3768 37.248L49.7908 32.4375ZM44.9828 36.0512C45.3567 35.8395 45.9008 35.7299 46.4728 35.8889C46.9949 36.0339 47.37 36.3545 47.5967 36.6942C47.8226 37.0325 47.9752 37.5008 47.9097 38.0397C47.8375 38.6328 47.5235 39.1109 47.1572 39.3908L43.5144 34.6232C41.5707 36.1083 41.5987 38.5155 42.6063 40.0251C43.6285 41.5567 45.8342 42.4636 47.9381 41.2728L44.9828 36.0512ZM47.0619 39.4607L52.3102 35.7688L48.8581 30.8614L43.6098 34.5533L47.0619 39.4607ZM52.4056 35.6989C51.9582 36.0407 51.2807 36.2262 50.5857 36.0507C49.9876 35.8997 49.6003 35.5412 49.3854 35.2193C49.1702 34.897 48.9794 34.3872 49.0801 33.7559C49.1966 33.0251 49.6488 32.4908 50.1061 32.232L53.0615 37.4536C54.0812 36.8765 54.8146 35.8966 55.0053 34.7004C55.1801 33.6035 54.8565 32.6085 54.3758 31.8883C53.8954 31.1685 53.1098 30.4998 52.0547 30.2333C50.9029 29.9425 49.71 30.2076 48.7627 30.9313L52.4056 35.6989Z" fill="#616161" mask="url(#path-12-inside-3_2347_29152)"/>
<mask id="path-14-inside-4_2347_29152" fill="white">
<path fill-rule="evenodd" clip-rule="evenodd" d="M29.0932 38.1537L35.3412 39.2994C36.5908 39.4268 36.2159 41.3364 35.0913 41.0817L28.7183 40.0633C27.4687 39.8087 27.8436 37.8991 29.0932 38.1537Z"/>
</mask>
<path fill-rule="evenodd" clip-rule="evenodd" d="M29.0932 38.1537L35.3412 39.2994C36.5908 39.4268 36.2159 41.3364 35.0913 41.0817L28.7183 40.0633C27.4687 39.8087 27.8436 37.8991 29.0932 38.1537Z" fill="#616161"/>
<path d="M29.0932 38.1537L28.4942 41.0933L28.5231 41.0992L28.5521 41.1045L29.0932 38.1537ZM35.3412 39.2994L34.8001 42.2502L34.9179 42.2719L35.0371 42.284L35.3412 39.2994ZM35.0913 41.0817L35.7537 38.1558L35.6598 38.1345L35.5647 38.1193L35.0913 41.0817ZM28.7183 40.0633L28.1193 43.0029L28.1819 43.0156L28.2449 43.0257L28.7183 40.0633ZM28.5521 41.1045L34.8001 42.2502L35.8823 36.3486L29.6343 35.2029L28.5521 41.1045ZM35.0371 42.284C34.5025 42.2295 33.8623 41.9146 33.4578 41.2801C33.1107 40.7357 33.0874 40.1954 33.1486 39.8332C33.2096 39.4729 33.4001 39.0082 33.8568 38.6265C34.3938 38.1778 35.1139 38.011 35.7537 38.1558L34.4289 44.0077C35.6309 44.2798 36.8197 43.9698 37.7042 43.2306C38.5085 42.5586 38.9254 41.6563 39.0645 40.8344C39.2039 40.0107 39.1103 38.9851 38.5171 38.0547C37.8666 37.0344 36.8047 36.433 35.6453 36.3149L35.0371 42.284ZM35.5647 38.1193L29.1917 37.1009L28.2449 43.0257L34.6179 44.0442L35.5647 38.1193ZM29.3173 37.1237C29.8199 37.2261 30.3531 37.5662 30.6757 38.128C30.96 38.6232 30.986 39.1201 30.9123 39.4954C30.8388 39.8701 30.625 40.3297 30.1609 40.6867C29.6335 41.0924 28.9977 41.1959 28.4942 41.0933L29.6921 35.2141C28.5639 34.9842 27.4126 35.2309 26.5025 35.931C25.6558 36.5824 25.192 37.4875 25.0247 38.3396C24.8573 39.1923 24.9458 40.1985 25.4723 41.1154C26.0369 42.0989 26.9919 42.7732 28.1193 43.0029L29.3173 37.1237Z" fill="#616161" mask="url(#path-14-inside-4_2347_29152)"/>
<mask id="path-16-inside-5_2347_29152" fill="white">
<path fill-rule="evenodd" clip-rule="evenodd" d="M30.3432 47.7003L35.5915 43.8811C36.5912 43.2446 37.7158 44.7722 36.7162 45.5361L31.4678 49.228C30.4681 49.9918 29.3435 48.3368 30.3432 47.7003Z"/>
</mask>
<path fill-rule="evenodd" clip-rule="evenodd" d="M30.3432 47.7003L35.5915 43.8811C36.5912 43.2446 37.7158 44.7722 36.7162 45.5361L31.4678 49.228C30.4681 49.9918 29.3435 48.3368 30.3432 47.7003Z" fill="#616161"/>
<path d="M30.3432 47.7003L31.9545 50.2309L32.033 50.1808L32.1084 50.126L30.3432 47.7003ZM35.5915 43.8811L33.9802 41.3505L33.9016 41.4006L33.8263 41.4554L35.5915 43.8811ZM36.7162 45.5361L38.4422 47.9898L38.4906 47.9558L38.5376 47.9199L36.7162 45.5361ZM31.4678 49.228L29.7418 46.7743L29.6934 46.8083L29.6464 46.8442L31.4678 49.228ZM32.1084 50.126L37.3567 46.3068L33.8263 41.4554L28.578 45.2746L32.1084 50.126ZM37.2028 46.4116C36.7155 46.722 36.0854 46.8136 35.5075 46.6489C34.9989 46.504 34.6569 46.2025 34.4537 45.9149C34.2495 45.6259 34.0672 45.1822 34.1126 44.6232C34.164 43.9892 34.4917 43.4602 34.8947 43.1523L38.5376 47.9199C39.4404 47.23 40.0024 46.2237 40.0929 45.1083C40.1773 44.0679 39.8389 43.1388 39.3535 42.452C38.4254 41.1387 36.2009 39.9365 33.9802 41.3505L37.2028 46.4116ZM34.9901 43.0824L29.7418 46.7743L33.1939 51.6817L38.4422 47.9898L34.9901 43.0824ZM29.6464 46.8442C30.0972 46.4998 30.773 46.3193 31.4584 46.4909C32.0427 46.6372 32.4083 46.9786 32.6057 47.2579C32.8016 47.5351 32.9951 47.9812 32.9461 48.5658C32.8881 49.2566 32.5029 49.8816 31.9545 50.2309L28.7319 45.1697C27.6836 45.8372 27.0641 46.9079 26.9671 48.0642C26.879 49.1141 27.2287 50.0456 27.7058 50.7207C28.1843 51.3978 28.956 52.0495 30.0011 52.3112C31.1473 52.5982 32.3386 52.3381 33.2892 51.6118L29.6464 46.8442Z" fill="#616161" mask="url(#path-16-inside-5_2347_29152)"/>
</svg>
