<svg width="44" height="66" viewBox="0 0 44 66" fill="none" xmlns="http://www.w3.org/2000/svg">
<path d="M22.1275 0.0979004C15.116 0.0979004 9.41016 6.02986 9.41016 13.3197V32.5979C9.41016 39.8892 15.116 45.8197 22.1275 45.8197C29.1391 45.8197 34.8449 39.8892 34.8449 32.5979V13.3197C34.8449 6.02986 29.1391 0.0979004 22.1275 0.0979004ZM22.1275 42.9937C17.131 42.9937 12.9979 39.0753 12.338 34.0109H31.9157C31.2572 39.0767 27.1241 42.9937 22.1275 42.9937ZM32.0189 31.1849H12.2362V13.3197C12.2362 7.58703 16.6732 2.92399 22.1275 2.92399C27.5819 2.92399 32.0189 7.58703 32.0189 13.3197V31.1849Z" fill="#616161"/>
<path d="M41.9094 25.5327C41.1294 25.5327 40.4964 26.1658 40.4964 26.9458V32.5979C40.4964 42.7266 32.2555 50.9675 22.1268 50.9675C11.9981 50.9675 3.75724 42.7266 3.75724 32.5979V26.9458C3.75724 26.1658 3.1242 25.5327 2.3442 25.5327C1.5642 25.5327 0.931152 26.1658 0.931152 26.9458V32.5979C0.931152 43.8076 9.68496 52.9896 20.7138 53.7215V62.2718H13.6485C12.8685 62.2718 12.2355 62.9049 12.2355 63.6849C12.2355 64.4649 12.8685 65.0979 13.6485 65.0979H30.6051C31.3851 65.0979 32.0181 64.4649 32.0181 63.6849C32.0181 62.9049 31.3851 62.2718 30.6051 62.2718H23.5398V53.7215C34.5687 52.9896 43.3225 43.8076 43.3225 32.5979V26.9458C43.3225 26.1658 42.6894 25.5327 41.9094 25.5327Z" fill="#616161"/>
</svg>
