<svg width="51" height="65" viewBox="0 0 51 65" fill="none" xmlns="http://www.w3.org/2000/svg">
<path fill-rule="evenodd" clip-rule="evenodd" d="M38.8199 13.6985C38.8199 21.2641 32.6865 27.3975 25.1208 27.3975C17.5592 27.389 11.4309 21.2607 11.4224 13.6991C11.4224 6.13343 17.5552 0 25.1208 0C32.6865 0 38.8199 6.13286 38.8199 13.6985ZM35.9181 13.6991C35.9181 7.73565 31.0843 2.90179 25.1208 2.90179C19.1608 2.90859 14.331 7.73848 14.3242 13.6991C14.3242 19.6619 19.158 24.4957 25.1208 24.4957C31.0843 24.4957 35.9181 19.6619 35.9181 13.6991Z" fill="#616161"/>
<path fill-rule="evenodd" clip-rule="evenodd" d="M2.11038e-06 57.7021C-0.00566545 43.6284 11.4048 32.2174 25.4791 32.223C39.5533 32.2174 50.9644 43.6284 50.9581 57.7021V63.5493C50.9581 64.3507 50.3086 65.0002 49.5072 65.0002H1.4509C0.649504 65.0002 2.11038e-06 64.3507 2.11038e-06 63.5493V57.7021ZM14.174 38.102C7.18023 42.148 2.88139 49.6224 2.90179 57.7021V62.0984H48.0563V57.7021C48.0773 49.6224 43.7785 42.148 36.7847 38.102C29.7904 34.0565 21.1678 34.0565 14.174 38.102Z" fill="#616161"/>
</svg>
