<svg width="185" height="40" viewBox="0 0 185 40" fill="none" xmlns="http://www.w3.org/2000/svg">
<path d="M58.5133 28.249H43.8678V7.33103H48.0543V24.0625H58.5133V28.249ZM74.9968 28.249H74.0341L72.4878 26.1047C72.1086 26.4451 71.705 26.766 71.2771 27.0675C70.8589 27.3592 70.4165 27.6169 69.9497 27.8406C69.4829 28.0545 69.0015 28.2247 68.5056 28.3511C68.0193 28.4776 67.5233 28.5408 67.0177 28.5408C65.9188 28.5408 64.8831 28.356 63.9106 27.9865C62.9478 27.6169 62.1018 27.0821 61.3724 26.3819C60.6528 25.672 60.0839 24.8065 59.6657 23.7854C59.2476 22.7642 59.0385 21.6021 59.0385 20.299C59.0385 19.0834 59.2476 17.9699 59.6657 16.9586C60.0839 15.9375 60.6528 15.0622 61.3724 14.3329C62.1018 13.6035 62.9478 13.0395 63.9106 12.6408C64.8831 12.2323 65.9188 12.0281 67.0177 12.0281C67.5233 12.0281 68.0242 12.0913 68.5201 12.2177C69.0161 12.3442 69.4975 12.5192 69.9643 12.7429C70.4311 12.9665 70.8735 13.2291 71.2917 13.5306C71.7196 13.832 72.1183 14.1578 72.4878 14.5079L74.0341 12.6553H74.9968V28.249ZM70.9854 20.299C70.9854 19.7544 70.8784 19.2293 70.6645 18.7236C70.4602 18.2082 70.1782 17.756 69.8184 17.367C69.4586 16.9683 69.0356 16.6522 68.5493 16.4188C68.0728 16.1757 67.5622 16.0542 67.0177 16.0542C66.4731 16.0542 65.9577 16.1465 65.4714 16.3313C64.9949 16.5161 64.5767 16.7884 64.2169 17.1482C63.8668 17.508 63.5897 17.9553 63.3855 18.4902C63.1812 19.0153 63.0791 19.6183 63.0791 20.299C63.0791 20.9798 63.1812 21.5876 63.3855 22.1224C63.5897 22.6476 63.8668 23.09 64.2169 23.4498C64.5767 23.8097 64.9949 24.082 65.4714 24.2667C65.9577 24.4515 66.4731 24.5439 67.0177 24.5439C67.5622 24.5439 68.0728 24.4272 68.5493 24.1938C69.0356 23.9507 69.4586 23.6346 69.8184 23.2456C70.1782 22.8469 70.4602 22.3947 70.6645 21.889C70.8784 21.3736 70.9854 20.8436 70.9854 20.299ZM82.0279 28.249H78.0456V12.6262H79.0083L80.3212 14.1432C80.963 13.5597 81.6875 13.1124 82.4946 12.8012C83.3115 12.4803 84.1624 12.3198 85.0474 12.3198C86.0004 12.3198 86.9 12.5046 87.746 12.8742C88.5921 13.234 89.3312 13.7348 89.9633 14.3766C90.5954 15.0087 91.0913 15.7527 91.4512 16.6085C91.8207 17.4545 92.0055 18.3589 92.0055 19.3217V28.249H88.0232V19.3217C88.0232 18.9132 87.9454 18.5291 87.7898 18.1693C87.6342 17.7998 87.4202 17.4788 87.1479 17.2065C86.8757 16.9342 86.5596 16.7203 86.1998 16.5647C85.84 16.4091 85.4558 16.3313 85.0474 16.3313C84.6292 16.3313 84.2354 16.4091 83.8658 16.5647C83.4963 16.7203 83.1754 16.9342 82.9031 17.2065C82.6308 17.4788 82.4168 17.7998 82.2612 18.1693C82.1057 18.5291 82.0279 18.9132 82.0279 19.3217V28.249ZM109.948 28.249H108.985L107.439 26.1047C107.059 26.4451 106.656 26.766 106.228 27.0675C105.81 27.3592 105.367 27.6169 104.901 27.8406C104.434 28.0545 103.952 28.2247 103.456 28.3511C102.97 28.4776 102.474 28.5408 101.969 28.5408C100.87 28.5408 99.8339 28.3365 98.8614 27.9281C97.8987 27.5099 97.0526 26.9362 96.3233 26.2068C95.6036 25.4677 95.0347 24.5974 94.6166 23.5957C94.1984 22.5843 93.9893 21.4854 93.9893 20.299C93.9893 19.1223 94.1984 18.0283 94.6166 17.0169C95.0347 16.0055 95.6036 15.1303 96.3233 14.3912C97.0526 13.6521 97.8987 13.0735 98.8614 12.6553C99.8339 12.2372 100.87 12.0281 101.969 12.0281C102.319 12.0281 102.678 12.0573 103.048 12.1156C103.427 12.174 103.792 12.2712 104.142 12.4074C104.502 12.5338 104.837 12.704 105.149 12.9179C105.46 13.1319 105.722 13.3944 105.936 13.7056V6.41204H109.948V28.249ZM105.936 20.299C105.936 19.7544 105.829 19.2293 105.615 18.7236C105.411 18.2082 105.129 17.756 104.769 17.367C104.409 16.9683 103.986 16.6522 103.5 16.4188C103.024 16.1757 102.513 16.0542 101.969 16.0542C101.424 16.0542 100.909 16.1514 100.422 16.3459C99.9458 16.5404 99.5276 16.8224 99.1678 17.192C98.8177 17.5518 98.5405 17.9942 98.3363 18.5194C98.1321 19.0445 98.03 19.6377 98.03 20.299C98.03 20.8728 98.1321 21.4174 98.3363 21.9328C98.5405 22.4482 98.8177 22.9004 99.1678 23.2894C99.5276 23.6784 99.9458 23.9847 100.422 24.2084C100.909 24.432 101.424 24.5439 101.969 24.5439C102.513 24.5439 103.024 24.4272 103.5 24.1938C103.986 23.9507 104.409 23.6346 104.769 23.2456C105.129 22.8469 105.411 22.3947 105.615 21.889C105.829 21.3736 105.936 20.8436 105.936 20.299ZM117.008 34.2006H112.996V12.6262H113.959L115.549 14.5079C115.909 14.1675 116.303 13.8466 116.731 13.5452C117.159 13.2437 117.601 12.986 118.058 12.772C118.525 12.5484 119.006 12.3733 119.502 12.2469C119.998 12.1205 120.499 12.0573 121.005 12.0573C122.104 12.0573 123.134 12.2566 124.097 12.6553C125.07 13.0443 125.916 13.5986 126.635 14.3183C127.365 15.0379 127.939 15.9083 128.357 16.9294C128.775 17.9408 128.984 19.064 128.984 20.299C128.984 21.5827 128.775 22.7399 128.357 23.7708C127.939 24.7919 127.365 25.6622 126.635 26.3819C125.916 27.0918 125.07 27.6364 124.097 28.0156C123.134 28.3949 122.104 28.5845 121.005 28.5845C120.655 28.5845 120.305 28.5456 119.954 28.4678C119.614 28.39 119.274 28.2879 118.933 28.1615C118.603 28.0254 118.272 27.8746 117.941 27.7093C117.621 27.544 117.309 27.3738 117.008 27.1987V34.2006ZM124.987 20.299C124.987 19.6377 124.88 19.0445 124.666 18.5194C124.462 17.9942 124.18 17.5518 123.82 17.192C123.46 16.8224 123.037 16.5404 122.551 16.3459C122.065 16.1514 121.549 16.0542 121.005 16.0542C120.46 16.0542 119.945 16.1514 119.459 16.3459C118.982 16.5404 118.564 16.8224 118.204 17.192C117.844 17.5518 117.557 17.9942 117.343 18.5194C117.139 19.0445 117.037 19.6377 117.037 20.299C117.037 20.9311 117.139 21.5098 117.343 22.0349C117.557 22.56 117.844 23.0074 118.204 23.3769C118.564 23.7465 118.982 24.0333 119.459 24.2376C119.945 24.4418 120.46 24.5439 121.005 24.5439C121.549 24.5439 122.065 24.4418 122.551 24.2376C123.037 24.0333 123.46 23.7465 123.82 23.3769C124.18 23.0074 124.462 22.56 124.666 22.0349C124.88 21.5098 124.987 20.9311 124.987 20.299ZM146.328 28.249H145.365L143.819 26.1047C143.44 26.4451 143.036 26.766 142.608 27.0675C142.19 27.3592 141.748 27.6169 141.281 27.8406C140.814 28.0545 140.333 28.2247 139.837 28.3511C139.351 28.4776 138.855 28.5408 138.349 28.5408C137.25 28.5408 136.214 28.356 135.242 27.9865C134.279 27.6169 133.433 27.0821 132.704 26.3819C131.984 25.672 131.415 24.8065 130.997 23.7854C130.579 22.7642 130.37 21.6021 130.37 20.299C130.37 19.0834 130.579 17.9699 130.997 16.9586C131.415 15.9375 131.984 15.0622 132.704 14.3329C133.433 13.6035 134.279 13.0395 135.242 12.6408C136.214 12.2323 137.25 12.0281 138.349 12.0281C138.855 12.0281 139.355 12.0913 139.851 12.2177C140.347 12.3442 140.829 12.5192 141.296 12.7429C141.762 12.9665 142.205 13.2291 142.623 13.5306C143.051 13.832 143.45 14.1578 143.819 14.5079L145.365 12.6553H146.328V28.249ZM142.317 20.299C142.317 19.7544 142.21 19.2293 141.996 18.7236C141.791 18.2082 141.509 17.756 141.15 17.367C140.79 16.9683 140.367 16.6522 139.881 16.4188C139.404 16.1757 138.893 16.0542 138.349 16.0542C137.804 16.0542 137.289 16.1465 136.803 16.3313C136.326 16.5161 135.908 16.7884 135.548 17.1482C135.198 17.508 134.921 17.9553 134.717 18.4902C134.512 19.0153 134.41 19.6183 134.41 20.299C134.41 20.9798 134.512 21.5876 134.717 22.1224C134.921 22.6476 135.198 23.09 135.548 23.4498C135.908 23.8097 136.326 24.082 136.803 24.2667C137.289 24.4515 137.804 24.5439 138.349 24.5439C138.893 24.5439 139.404 24.4272 139.881 24.1938C140.367 23.9507 140.79 23.6346 141.15 23.2456C141.509 22.8469 141.791 22.3947 141.996 21.889C142.21 21.3736 142.317 20.8436 142.317 20.299ZM160.492 20.299C160.492 19.7544 160.385 19.2293 160.171 18.7236C159.967 18.2082 159.685 17.756 159.325 17.367C158.965 16.9683 158.542 16.6522 158.056 16.4188C157.58 16.1757 157.069 16.0542 156.525 16.0542C155.98 16.0542 155.465 16.1465 154.978 16.3313C154.502 16.5161 154.084 16.7884 153.724 17.1482C153.374 17.508 153.097 17.9553 152.892 18.4902C152.688 19.0153 152.586 19.6183 152.586 20.299C152.586 20.9506 152.688 21.5389 152.892 22.0641C153.097 22.5795 153.374 23.022 153.724 23.3915C154.084 23.761 154.502 24.0479 154.978 24.2521C155.465 24.4466 155.98 24.5439 156.525 24.5439C157.069 24.5439 157.58 24.4272 158.056 24.1938C158.542 23.9507 158.965 23.6346 159.325 23.2456C159.685 22.8469 159.967 22.3947 160.171 21.889C160.385 21.3736 160.492 20.8436 160.492 20.299ZM164.504 26.2798C164.504 27.3787 164.295 28.4095 163.876 29.3722C163.458 30.335 162.885 31.1762 162.155 31.8958C161.436 32.6154 160.589 33.1843 159.617 33.6025C158.654 34.0207 157.623 34.2298 156.525 34.2298L154.526 34.2006V30.2183L156.495 30.2475C157.118 30.2475 157.648 30.1648 158.085 29.9995C158.523 29.8439 158.892 29.6251 159.194 29.3431C159.495 29.0708 159.734 28.7547 159.909 28.3949C160.094 28.0351 160.239 27.6558 160.346 27.2571C160.191 27.5099 159.967 27.719 159.675 27.8843C159.384 28.0399 159.058 28.1664 158.698 28.2636C158.348 28.3706 157.978 28.4435 157.589 28.4824C157.21 28.5213 156.855 28.5408 156.525 28.5408C155.426 28.5408 154.39 28.3511 153.417 27.9719C152.455 27.5926 151.609 27.0529 150.879 26.3527C150.16 25.6428 149.591 24.7773 149.173 23.7562C148.754 22.7351 148.545 21.5827 148.545 20.299C148.545 19.1223 148.754 18.0283 149.173 17.0169C149.591 16.0055 150.16 15.1303 150.879 14.3912C151.609 13.6521 152.455 13.0735 153.417 12.6553C154.39 12.2372 155.426 12.0281 156.525 12.0281C157.03 12.0281 157.531 12.0913 158.027 12.2177C158.523 12.3442 159.004 12.5192 159.471 12.7429C159.938 12.9665 160.38 13.2291 160.799 13.5306C161.226 13.832 161.625 14.1578 161.995 14.5079L163.541 12.6553H164.504V26.2798ZM171.316 34.2006V30.1891L173.533 30.2183C173.922 30.2183 174.297 30.1551 174.656 30.0287C175.016 29.9022 175.347 29.7272 175.648 29.5035C175.959 29.2798 176.232 29.0124 176.465 28.7012C176.699 28.3998 176.888 28.0691 177.034 27.7093C176.596 27.8941 176.149 28.0788 175.692 28.2636C175.245 28.4484 174.793 28.5408 174.335 28.5408C173.373 28.5408 172.468 28.3706 171.622 28.0302C170.776 27.6898 170.032 27.2085 169.39 26.5861C168.758 25.954 168.257 25.1906 167.888 24.2959C167.528 23.3915 167.348 22.3801 167.348 21.2618V12.6262H171.316V21.2618C171.316 21.8161 171.394 22.3023 171.549 22.7205C171.715 23.1289 171.933 23.4742 172.206 23.7562C172.478 24.0285 172.794 24.2327 173.154 24.3688C173.523 24.505 173.917 24.5731 174.335 24.5731C174.744 24.5731 175.128 24.4807 175.488 24.2959C175.857 24.1014 176.178 23.8486 176.451 23.5374C176.723 23.2262 176.937 22.8761 177.092 22.4871C177.248 22.0884 177.326 21.6799 177.326 21.2618V12.6262H181.337V26.2798C181.328 27.3787 181.114 28.4095 180.695 29.3722C180.277 30.335 179.704 31.1762 178.974 31.8958C178.255 32.6154 177.413 33.1843 176.451 33.6025C175.488 34.0207 174.457 34.2298 173.358 34.2298L171.316 34.2006Z" fill="white"/>
<path d="M58.5133 28.249V28.6527H58.9171V28.249H58.5133ZM43.8678 28.249H43.4641V28.6527H43.8678V28.249ZM43.8678 7.33103V6.92732H43.4641V7.33103H43.8678ZM48.0543 7.33103H48.4581V6.92732H48.0543V7.33103ZM48.0543 24.0625H47.6506V24.4662H48.0543V24.0625ZM58.5133 24.0625H58.9171V23.6588H58.5133V24.0625ZM58.5133 27.8453H43.8678V28.6527H58.5133V27.8453ZM44.2715 28.249V7.33103H43.4641V28.249H44.2715ZM43.8678 7.73474H48.0543V6.92732H43.8678V7.73474ZM47.6506 7.33103V24.0625H48.4581V7.33103H47.6506ZM48.0543 24.4662H58.5133V23.6588H48.0543V24.4662ZM58.1096 24.0625V28.249H58.9171V24.0625H58.1096ZM74.9968 28.249V28.6527H75.4006V28.249H74.9968ZM74.0341 28.249L73.7066 28.4851L73.8275 28.6527H74.0341V28.249ZM72.4878 26.1047L72.8153 25.8686L72.5525 25.5042L72.2182 25.8043L72.4878 26.1047ZM71.2771 27.0675L71.5081 27.3986L71.5096 27.3975L71.2771 27.0675ZM69.9497 27.8406L70.1179 28.2076L70.1241 28.2047L69.9497 27.8406ZM68.5056 28.3511L68.4058 27.9599L68.404 27.9604L68.5056 28.3511ZM63.9106 27.9865L63.7659 28.3634L63.7672 28.3638L63.9106 27.9865ZM61.3724 26.3819L61.0889 26.6693L61.0928 26.6731L61.3724 26.3819ZM59.6657 16.9586L60.0388 17.1128L60.0393 17.1116L59.6657 16.9586ZM61.3724 14.3329L61.087 14.0474L61.0851 14.0493L61.3724 14.3329ZM63.9106 12.6408L64.0651 13.0137L64.0669 13.013L63.9106 12.6408ZM68.5201 12.2177L68.6199 11.8265L68.5201 12.2177ZM71.2917 13.5306L71.0556 13.8581L71.0592 13.8606L71.2917 13.5306ZM72.4878 14.5079L72.2102 14.801L72.5223 15.0967L72.7978 14.7666L72.4878 14.5079ZM74.0341 12.6553V12.2516H73.8452L73.7241 12.3967L74.0341 12.6553ZM74.9968 12.6553H75.4006V12.2516H74.9968V12.6553ZM70.6645 18.7236L70.289 18.8724L70.2926 18.8809L70.6645 18.7236ZM69.8184 17.367L69.5187 17.6375L69.522 17.6411L69.8184 17.367ZM68.5493 16.4188L68.3658 16.7785L68.3746 16.7828L68.5493 16.4188ZM65.4714 16.3313L65.328 15.9539L65.3255 15.9549L65.4714 16.3313ZM64.2169 17.1482L63.9314 16.8627L63.9276 16.8667L64.2169 17.1482ZM63.3855 18.4902L63.7617 18.6365L63.7626 18.6342L63.3855 18.4902ZM63.3855 22.1224L63.0083 22.2664L63.0092 22.2687L63.3855 22.1224ZM64.2169 23.4498L63.9275 23.7314L63.9315 23.7353L64.2169 23.4498ZM65.4714 24.2667L65.3255 24.6431L65.328 24.6441L65.4714 24.2667ZM68.5493 24.1938L68.7269 24.5564L68.7299 24.5549L68.5493 24.1938ZM69.8184 23.2456L70.1148 23.5198L70.1181 23.5161L69.8184 23.2456ZM70.6645 21.889L70.2916 21.7342L70.2901 21.7378L70.6645 21.889ZM74.9968 27.8453H74.0341V28.6527H74.9968V27.8453ZM74.3615 28.0129L72.8153 25.8686L72.1604 26.3408L73.7066 28.4851L74.3615 28.0129ZM72.2182 25.8043C71.851 26.1338 71.4599 26.4448 71.0446 26.7374L71.5096 27.3975C71.9501 27.0871 72.3661 26.7564 72.7575 26.4052L72.2182 25.8043ZM71.0461 26.7364C70.6461 27.0154 70.2226 27.2621 69.7752 27.4765L70.1241 28.2047C70.6103 27.9717 71.0717 27.703 71.5081 27.3986L71.0461 26.7364ZM69.7815 27.4736C69.3367 27.6775 68.8782 27.8395 68.4058 27.9599L68.6053 28.7423C69.1248 28.6099 69.6291 28.4316 70.1179 28.2076L69.7815 27.4736ZM68.404 27.9604C67.9511 28.0782 67.4893 28.1371 67.0177 28.1371V28.9445C67.5574 28.9445 68.0875 28.877 68.6071 28.7419L68.404 27.9604ZM67.0177 28.1371C65.965 28.1371 64.9781 27.9602 64.054 27.6091L63.7672 28.3638C64.788 28.7517 65.8725 28.9445 67.0177 28.9445V28.1371ZM64.0553 27.6096C63.1417 27.2589 62.3418 26.7528 61.652 26.0906L61.0928 26.6731C61.8618 27.4113 62.754 27.9749 63.7659 28.3634L64.0553 27.6096ZM61.6559 26.0945C60.9785 25.4262 60.4387 24.6077 60.0393 23.6324L59.2921 23.9383C59.729 25.0052 60.3271 25.9177 61.0889 26.6693L61.6559 26.0945ZM60.0393 23.6324C59.6443 22.6678 59.4422 21.559 59.4422 20.299H58.6348C58.6348 21.6453 58.8508 22.8607 59.2921 23.9383L60.0393 23.6324ZM59.4422 20.299C59.4422 19.1305 59.643 18.0701 60.0388 17.1128L59.2927 16.8043C58.8521 17.8697 58.6348 19.0364 58.6348 20.299H59.4422ZM60.0393 17.1116C60.4391 16.1354 60.9799 15.3055 61.6598 14.6164L61.0851 14.0493C60.3257 14.819 59.7287 15.7395 59.2921 16.8056L60.0393 17.1116ZM61.6579 14.6183C62.3494 13.9269 63.1508 13.3924 64.0651 13.0137L63.7561 12.2678C62.7449 12.6866 61.8542 13.2802 61.087 14.0474L61.6579 14.6183ZM64.0669 13.013C64.9878 12.6262 65.9702 12.4318 67.0177 12.4318V11.6244C65.8674 11.6244 64.7783 11.8384 63.7543 12.2685L64.0669 13.013ZM67.0177 12.4318C67.4893 12.4318 67.9566 12.4907 68.4204 12.6089L68.6199 11.8265C68.0917 11.6919 67.5574 11.6244 67.0177 11.6244V12.4318ZM68.4204 12.6089C68.8904 12.7287 69.3467 12.8946 69.7898 13.1069L70.1387 12.3788C69.6482 12.1438 69.1419 11.9596 68.6199 11.8265L68.4204 12.6089ZM69.7898 13.1069C70.2351 13.3203 70.6569 13.5706 71.0556 13.8581L71.5278 13.2031C71.0901 12.8876 70.627 12.6128 70.1387 12.3788L69.7898 13.1069ZM71.0592 13.8606C71.4716 14.1512 71.8552 14.4647 72.2102 14.801L72.7655 14.2148C72.3814 13.851 71.9676 13.5129 71.5242 13.2005L71.0592 13.8606ZM72.7978 14.7666L74.344 12.914L73.7241 12.3967L72.1779 14.2492L72.7978 14.7666ZM74.0341 13.0591H74.9968V12.2516H74.0341V13.0591ZM74.5931 12.6553V28.249H75.4006V12.6553H74.5931ZM71.3891 20.299C71.3891 19.6999 71.2711 19.1213 71.0363 18.5663L70.2926 18.8809C70.4857 19.3372 70.5817 19.8089 70.5817 20.299H71.3891ZM71.0398 18.5749C70.8181 18.0153 70.51 17.5201 70.1148 17.0929L69.522 17.6411C69.8465 17.9919 70.1024 18.4011 70.2891 18.8723L71.0398 18.5749ZM70.1181 17.0965C69.7229 16.6586 69.2574 16.3109 68.724 16.0549L68.3746 16.7828C68.8137 16.9935 69.1942 17.2779 69.5187 17.6375L70.1181 17.0965ZM68.7328 16.0592C68.1984 15.7866 67.6248 15.6504 67.0177 15.6504V16.4579C67.4997 16.4579 67.9472 16.5648 68.3658 16.7784L68.7328 16.0592ZM67.0177 15.6504C66.4264 15.6504 65.8622 15.7509 65.328 15.9539L65.6148 16.7087C66.0531 16.5421 66.5197 16.4579 67.0177 16.4579V15.6504ZM65.3255 15.9549C64.7969 16.1599 64.3311 16.463 63.9315 16.8627L64.5024 17.4337C64.8223 17.1137 65.1929 16.8723 65.6174 16.7077L65.3255 15.9549ZM63.9276 16.8667C63.5341 17.271 63.2294 17.7672 63.0083 18.3462L63.7626 18.6342C63.95 18.1435 64.1995 17.745 64.5063 17.4297L63.9276 16.8667ZM63.0092 18.3439C62.7835 18.9243 62.6754 19.5784 62.6754 20.299H63.4828C63.4828 19.6582 63.579 19.1064 63.7617 18.6365L63.0092 18.3439ZM62.6754 20.299C62.6754 21.0199 62.7836 21.6778 63.0083 22.2664L63.7626 21.9784C63.5789 21.4973 63.4828 20.9396 63.4828 20.299H62.6754ZM63.0092 22.2687C63.2306 22.8381 63.5354 23.3283 63.9276 23.7314L64.5063 23.1683C64.1983 22.8518 63.9487 22.457 63.7617 21.9761L63.0092 22.2687ZM63.9315 23.7353C64.3311 24.135 64.7969 24.4382 65.3255 24.6431L65.6174 23.8903C65.1929 23.7257 64.8223 23.4843 64.5024 23.1644L63.9315 23.7353ZM65.328 24.6441C65.8622 24.8471 66.4264 24.9476 67.0177 24.9476V24.1402C66.5197 24.1402 66.0531 24.0559 65.6148 23.8893L65.328 24.6441ZM67.0177 24.9476C67.6221 24.9476 68.1936 24.8175 68.7269 24.5563L68.3717 23.8312C67.952 24.0368 67.5024 24.1402 67.0177 24.1402V24.9476ZM68.7299 24.5549C69.2585 24.2906 69.721 23.9454 70.1148 23.5198L69.522 22.9715C69.1961 23.3238 68.8126 23.6108 68.3688 23.8327L68.7299 24.5549ZM70.1181 23.5161C70.5101 23.0817 70.8171 22.589 71.0388 22.0402L70.2901 21.7378C70.1033 22.2004 69.8463 22.6121 69.5187 22.9752L70.1181 23.5161ZM71.0373 22.0438C71.2711 21.4806 71.3891 20.8981 71.3891 20.299H70.5817C70.5817 20.7892 70.4857 21.2667 70.2916 21.7342L71.0373 22.0438ZM82.0279 28.249V28.6527H82.4316V28.249H82.0279ZM78.0456 28.249H77.6418V28.6527H78.0456V28.249ZM78.0456 12.6262V12.2225H77.6418V12.6262H78.0456ZM79.0083 12.6262L79.3136 12.362L79.1928 12.2225H79.0083V12.6262ZM80.3212 14.1432L80.0159 14.4074L80.2866 14.7202L80.5927 14.442L80.3212 14.1432ZM82.4946 12.8012L82.6399 13.1779L82.6423 13.177L82.4946 12.8012ZM87.746 12.8742L87.5844 13.2441L87.588 13.2457L87.746 12.8742ZM89.9633 14.3766L89.6756 14.6599L89.6778 14.6621L89.9633 14.3766ZM91.4512 16.6085L91.079 16.765L91.0812 16.7701L91.4512 16.6085ZM92.0055 28.249V28.6527H92.4092V28.249H92.0055ZM88.0232 28.249H87.6195V28.6527H88.0232V28.249ZM87.7898 18.1693L87.4177 18.326L87.4192 18.3295L87.7898 18.1693ZM83.8658 16.5647L83.7092 16.1926L83.8658 16.5647ZM82.2612 18.1693L82.6318 18.3295L82.6333 18.326L82.2612 18.1693ZM82.0279 27.8453H78.0456V28.6527H82.0279V27.8453ZM78.4493 28.249V12.6262H77.6418V28.249H78.4493ZM78.0456 13.0299H79.0083V12.2225H78.0456V13.0299ZM78.703 12.8903L80.0159 14.4074L80.6264 13.8791L79.3136 12.362L78.703 12.8903ZM80.5927 14.442C81.1977 13.8919 81.8794 13.4711 82.6399 13.1779L82.3494 12.4245C81.4956 12.7537 80.7283 13.2275 80.0496 13.8445L80.5927 14.442ZM82.6423 13.177C83.4117 12.8747 84.2125 12.7235 85.0474 12.7235V11.9161C84.1124 11.9161 83.2113 12.0859 82.347 12.4255L82.6423 13.177ZM85.0474 12.7235C85.9466 12.7235 86.791 12.8976 87.5844 13.2441L87.9076 12.5042C87.0089 12.1117 86.0542 11.9161 85.0474 11.9161V12.7235ZM87.588 13.2457C88.3865 13.5853 89.0813 14.0565 89.6756 14.6599L90.2509 14.0934C89.581 13.4131 88.7976 12.8827 87.904 12.5026L87.588 13.2457ZM89.6778 14.6621C90.2715 15.2558 90.7387 15.9555 91.079 16.7649L91.8233 16.452C91.444 15.5499 90.9192 14.7617 90.2487 14.0912L89.6778 14.6621ZM91.0812 16.7701C91.4275 17.563 91.6018 18.4121 91.6018 19.3217H92.4092C92.4092 18.3057 92.2139 17.3461 91.8211 16.4469L91.0812 16.7701ZM91.6018 19.3217V28.249H92.4092V19.3217H91.6018ZM92.0055 27.8453H88.0232V28.6527H92.0055V27.8453ZM88.4269 28.249V19.3217H87.6195V28.249H88.4269ZM88.4269 19.3217C88.4269 18.8605 88.3387 18.4216 88.1603 18.0091L87.4192 18.3295C87.552 18.6366 87.6195 18.966 87.6195 19.3217H88.4269ZM88.1619 18.0126C87.9868 17.597 87.7442 17.2318 87.4334 16.9211L86.8625 17.492C87.0963 17.7259 87.2815 18.0025 87.4177 18.326L88.1619 18.0126ZM87.4334 16.9211C87.1245 16.6121 86.7657 16.3696 86.36 16.1942L86.0395 16.9353C86.3535 17.071 86.6269 17.2564 86.8625 17.492L87.4334 16.9211ZM86.36 16.1942C85.9475 16.0158 85.5086 15.9276 85.0474 15.9276V16.735C85.4031 16.735 85.7324 16.8024 86.0395 16.9353L86.36 16.1942ZM85.0474 15.9276C84.5778 15.9276 84.1304 16.0153 83.7092 16.1926L84.0225 16.9368C84.3403 16.803 84.6807 16.735 85.0474 16.735V15.9276ZM83.7092 16.1926C83.2935 16.3676 82.9284 16.6103 82.6176 16.9211L83.1885 17.492C83.4224 17.2582 83.6991 17.073 84.0225 16.9368L83.7092 16.1926ZM82.6176 16.9211C82.3069 17.2318 82.0642 17.597 81.8892 18.0126L82.6333 18.326C82.7695 18.0025 82.9547 17.7259 83.1885 17.492L82.6176 16.9211ZM81.8907 18.0091C81.7123 18.4216 81.6241 18.8605 81.6241 19.3217H82.4316C82.4316 18.966 82.499 18.6366 82.6318 18.3295L81.8907 18.0091ZM81.6241 19.3217V28.249H82.4316V19.3217H81.6241ZM109.948 28.249V28.6527H110.351V28.249H109.948ZM108.985 28.249L108.657 28.4851L108.778 28.6527H108.985V28.249ZM107.439 26.1047L107.766 25.8686L107.503 25.5042L107.169 25.8043L107.439 26.1047ZM106.228 27.0675L106.459 27.3986L106.46 27.3975L106.228 27.0675ZM104.901 27.8406L105.069 28.2076L105.075 28.2047L104.901 27.8406ZM103.456 28.3511L103.357 27.9599L103.355 27.9604L103.456 28.3511ZM98.8614 27.9281L98.7006 28.2984L98.7051 28.3003L98.8614 27.9281ZM96.3233 26.2068L96.034 26.4885L96.0378 26.4923L96.3233 26.2068ZM94.6166 23.5957L94.2435 23.75L94.244 23.7512L94.6166 23.5957ZM96.3233 14.3912L96.0359 14.1076L96.034 14.1096L96.3233 14.3912ZM98.8614 12.6553L98.702 12.2845L98.7006 12.2851L98.8614 12.6553ZM103.048 12.1156L102.985 12.5144L102.987 12.5146L103.048 12.1156ZM104.142 12.4074L103.996 12.7838L104.008 12.7882L104.142 12.4074ZM105.936 13.7056L105.604 13.9343L106.34 15.0054V13.7056H105.936ZM105.936 6.41204V6.00833H105.533V6.41204H105.936ZM109.948 6.41204H110.351V6.00833H109.948V6.41204ZM105.615 18.7236L105.24 18.8724L105.243 18.8809L105.615 18.7236ZM104.769 17.367L104.47 17.6375L104.473 17.6411L104.769 17.367ZM103.5 16.4188L103.317 16.7785L103.325 16.7828L103.5 16.4188ZM100.422 16.3459L100.272 15.9711L100.27 15.9721L100.422 16.3459ZM99.1678 17.192L98.8785 16.9103L98.8784 16.9104L99.1678 17.192ZM99.1678 23.2894L98.8677 23.5595L98.8714 23.5635L99.1678 23.2894ZM100.422 24.2084L100.251 24.5738L100.254 24.5751L100.422 24.2084ZM103.5 24.1938L103.678 24.5564L103.681 24.5549L103.5 24.1938ZM104.769 23.2456L105.066 23.5198L105.069 23.5161L104.769 23.2456ZM105.615 21.889L105.242 21.7342L105.241 21.7378L105.615 21.889ZM109.948 27.8453H108.985V28.6527H109.948V27.8453ZM109.312 28.0129L107.766 25.8686L107.111 26.3408L108.657 28.4851L109.312 28.0129ZM107.169 25.8043C106.802 26.1338 106.411 26.4448 105.995 26.7374L106.46 27.3975C106.901 27.0871 107.317 26.7564 107.708 26.4052L107.169 25.8043ZM105.997 26.7364C105.597 27.0154 105.173 27.2621 104.726 27.4765L105.075 28.2047C105.561 27.9717 106.023 27.703 106.459 27.3986L105.997 26.7364ZM104.732 27.4736C104.288 27.6775 103.829 27.8395 103.357 27.9599L103.556 28.7423C104.076 28.6099 104.58 28.4316 105.069 28.2076L104.732 27.4736ZM103.355 27.9604C102.902 28.0782 102.44 28.1371 101.969 28.1371V28.9445C102.508 28.9445 103.038 28.877 103.558 28.7419L103.355 27.9604ZM101.969 28.1371C100.921 28.1371 99.9387 27.9427 99.0178 27.5559L98.7051 28.3003C99.7292 28.7304 100.818 28.9445 101.969 28.9445V28.1371ZM99.0223 27.5578C98.1052 27.1595 97.3016 26.6142 96.6087 25.9214L96.0378 26.4923C96.8037 27.2581 97.6922 27.8604 98.7006 28.2984L99.0223 27.5578ZM96.6125 25.9252C95.9302 25.2244 95.3887 24.3974 94.9891 23.4402L94.244 23.7512C94.6807 24.7973 95.2771 25.7111 96.034 26.4885L96.6125 25.9252ZM94.9897 23.4415C94.5934 22.483 94.393 21.437 94.393 20.299H93.5856C93.5856 21.5339 93.8035 22.6857 94.2435 23.75L94.9897 23.4415ZM94.393 20.299C94.393 19.1712 94.5932 18.13 94.9897 17.1712L94.2435 16.8627C93.8036 17.9265 93.5856 19.0734 93.5856 20.299H94.393ZM94.9897 17.1712C95.3894 16.2043 95.9308 15.373 96.6125 14.6729L96.034 14.1096C95.2765 14.8876 94.6801 15.8068 94.2435 16.8627L94.9897 17.1712ZM96.6106 14.6748C97.3033 13.9728 98.1063 13.4235 99.0223 13.0256L98.7006 12.2851C97.6911 12.7235 96.8019 13.3314 96.0359 14.1076L96.6106 14.6748ZM99.0209 13.0262C99.9411 12.6305 100.922 12.4318 101.969 12.4318V11.6244C100.817 11.6244 99.7267 11.8438 98.702 12.2845L99.0209 13.0262ZM101.969 12.4318C102.296 12.4318 102.635 12.4591 102.985 12.5144L103.111 11.7168C102.722 11.6554 102.341 11.6244 101.969 11.6244V12.4318ZM102.987 12.5146C103.337 12.5686 103.674 12.6584 103.996 12.7836L104.288 12.0311C103.91 11.8841 103.517 11.7793 103.109 11.7166L102.987 12.5146ZM104.008 12.7882C104.335 12.903 104.638 13.057 104.92 13.2506L105.377 12.5852C105.036 12.3509 104.669 12.1646 104.276 12.0265L104.008 12.7882ZM104.92 13.2506C105.19 13.4365 105.418 13.6639 105.604 13.9343L106.269 13.4769C106.027 13.125 105.729 12.8272 105.377 12.5852L104.92 13.2506ZM106.34 13.7056V6.41204H105.533V13.7056H106.34ZM105.936 6.81575H109.948V6.00833H105.936V6.81575ZM109.544 6.41204V28.249H110.351V6.41204H109.544ZM106.34 20.299C106.34 19.6999 106.222 19.1213 105.987 18.5663L105.243 18.8809C105.437 19.3372 105.533 19.8089 105.533 20.299H106.34ZM105.991 18.5749C105.769 18.0153 105.461 17.5201 105.066 17.0929L104.473 17.6411C104.797 17.9919 105.053 18.4011 105.24 18.8723L105.991 18.5749ZM105.069 17.0965C104.674 16.6586 104.208 16.3109 103.675 16.0549L103.325 16.7828C103.765 16.9935 104.145 17.2779 104.47 17.6375L105.069 17.0965ZM103.684 16.0592C103.149 15.7866 102.576 15.6504 101.969 15.6504V16.4579C102.451 16.4579 102.898 16.5648 103.317 16.7784L103.684 16.0592ZM101.969 15.6504C101.375 15.6504 100.808 15.7567 100.272 15.9711L100.572 16.7207C101.009 16.5461 101.473 16.4579 101.969 16.4579V15.6504ZM100.27 15.9721C99.7417 16.1876 99.277 16.5011 98.8785 16.9103L99.457 17.4736C99.7782 17.1437 100.15 16.8931 100.575 16.7197L100.27 15.9721ZM98.8784 16.9104C98.4862 17.3135 98.1815 17.8037 97.96 18.3731L98.7126 18.6657C98.8996 18.1848 99.1491 17.79 99.4571 17.4735L98.8784 16.9104ZM97.96 18.3731C97.7348 18.9522 97.6263 19.5962 97.6263 20.299H98.4337C98.4337 19.6793 98.5293 19.1369 98.7126 18.6657L97.96 18.3731ZM97.6263 20.299C97.6263 20.9219 97.7374 21.5171 97.961 22.0815L98.7116 21.7841C98.5268 21.3176 98.4337 20.8237 98.4337 20.299H97.6263ZM97.961 22.0815C98.1818 22.6388 98.4836 23.1327 98.8677 23.5595L99.4678 23.0193C99.1517 22.6681 98.8992 22.2576 98.7116 21.7841L97.961 22.0815ZM98.8714 23.5635C99.2663 23.9905 99.7268 24.3279 100.251 24.5738L100.594 23.8429C100.165 23.6415 99.7889 23.3663 99.4641 23.0153L98.8714 23.5635ZM100.254 24.5751C100.794 24.8236 101.367 24.9476 101.969 24.9476V24.1402C101.481 24.1402 101.023 24.0405 100.591 23.8416L100.254 24.5751ZM101.969 24.9476C102.573 24.9476 103.144 24.8175 103.678 24.5563L103.323 23.8312C102.903 24.0368 102.453 24.1402 101.969 24.1402V24.9476ZM103.681 24.5549C104.209 24.2906 104.672 23.9454 105.066 23.5198L104.473 22.9715C104.147 23.3238 103.763 23.6108 103.32 23.8327L103.681 24.5549ZM105.069 23.5161C105.461 23.0817 105.768 22.589 105.99 22.0402L105.241 21.7378C105.054 22.2004 104.797 22.6121 104.47 22.9752L105.069 23.5161ZM105.988 22.0438C106.222 21.4806 106.34 20.8981 106.34 20.299H105.533C105.533 20.7892 105.437 21.2667 105.242 21.7342L105.988 22.0438ZM117.008 34.2006V34.6043H117.412V34.2006H117.008ZM112.996 34.2006H112.593V34.6043H112.996V34.2006ZM112.996 12.6262V12.2225H112.593V12.6262H112.996ZM113.959 12.6262L114.268 12.3656L114.147 12.2225H113.959V12.6262ZM115.549 14.5079L115.241 14.7685L115.516 15.0946L115.827 14.8012L115.549 14.5079ZM116.731 13.5452L116.963 13.8752L116.731 13.5452ZM118.058 12.772L118.229 13.1377L118.233 13.1361L118.058 12.772ZM119.502 12.2469L119.403 11.8557L119.502 12.2469ZM124.097 12.6553L123.943 13.0284L123.947 13.0302L124.097 12.6553ZM126.635 14.3183L126.35 14.6038L126.352 14.6057L126.635 14.3183ZM128.357 16.9294L127.983 17.0824L127.984 17.0836L128.357 16.9294ZM128.357 23.7708L128.73 23.9238L128.731 23.9225L128.357 23.7708ZM126.635 26.3819L126.919 26.6693L126.919 26.6692L126.635 26.3819ZM124.097 28.0156L123.951 27.6395L123.949 27.64L124.097 28.0156ZM119.954 28.4678L119.865 28.8614L119.867 28.8619L119.954 28.4678ZM118.933 28.1615L118.78 28.535L118.793 28.5399L118.933 28.1615ZM117.941 27.7093L117.757 28.0682L117.761 28.0704L117.941 27.7093ZM117.008 27.1987L117.211 26.8496L116.604 26.4975V27.1987H117.008ZM124.666 18.5194L124.29 18.6657L124.292 18.6717L124.666 18.5194ZM123.82 17.192L123.531 17.4736L123.535 17.4774L123.82 17.192ZM119.459 16.3459L119.309 15.9711L119.306 15.9721L119.459 16.3459ZM118.204 17.192L118.49 17.4774L118.493 17.4736L118.204 17.192ZM117.343 18.5194L116.969 18.367L116.967 18.3731L117.343 18.5194ZM117.343 22.0349L116.967 22.1812L116.97 22.1872L117.343 22.0349ZM119.459 24.2376L119.299 24.6086L119.302 24.6098L119.459 24.2376ZM124.666 22.0349L124.292 21.8826L124.29 21.8886L124.666 22.0349ZM117.008 33.7969H112.996V34.6043H117.008V33.7969ZM113.4 34.2006V12.6262H112.593V34.2006H113.4ZM112.996 13.0299H113.959V12.2225H112.996V13.0299ZM113.651 12.8867L115.241 14.7685L115.858 14.2474L114.268 12.3656L113.651 12.8867ZM115.827 14.8012C116.172 14.4749 116.55 14.1661 116.963 13.8752L116.498 13.2151C116.055 13.5271 115.646 13.8602 115.272 14.2146L115.827 14.8012ZM116.963 13.8752C117.372 13.5869 117.794 13.3412 118.229 13.1377L117.887 12.4064C117.408 12.6308 116.945 12.9005 116.498 13.2151L116.963 13.8752ZM118.233 13.1361C118.676 12.9238 119.132 12.7579 119.602 12.6381L119.403 11.8557C118.881 11.9888 118.374 12.1729 117.884 12.408L118.233 13.1361ZM119.602 12.6381C120.066 12.5199 120.533 12.461 121.005 12.461V11.6536C120.465 11.6536 119.931 11.7211 119.403 11.8557L119.602 12.6381ZM121.005 12.461C122.054 12.461 123.032 12.651 123.943 13.0283L124.252 12.2824C123.237 11.8623 122.154 11.6536 121.005 11.6536V12.461ZM123.947 13.0302C124.871 13.3995 125.67 13.9239 126.35 14.6037L126.921 14.0328C126.161 13.2734 125.269 12.6892 124.247 12.2805L123.947 13.0302ZM126.352 14.6057C127.04 15.2842 127.584 16.1078 127.983 17.0824L128.73 16.7764C128.293 15.7088 127.69 14.7917 126.919 14.0309L126.352 14.6057ZM127.984 17.0836C128.379 18.0402 128.58 19.1101 128.58 20.299H129.388C129.388 19.0178 129.171 17.8413 128.73 16.7751L127.984 17.0836ZM128.58 20.299C128.58 21.5386 128.378 22.6432 127.983 23.619L128.731 23.9225C129.171 22.8367 129.388 21.6268 129.388 20.299H128.58ZM127.983 23.6178C127.584 24.5924 127.04 25.416 126.352 26.0945L126.919 26.6692C127.69 25.9085 128.293 24.9914 128.73 23.9238L127.983 23.6178ZM126.352 26.0945C125.673 26.7645 124.874 27.2795 123.951 27.6395L124.244 28.3917C125.266 27.9932 126.159 27.419 126.919 26.6693L126.352 26.0945ZM123.949 27.64C123.037 27.9996 122.056 28.1808 121.005 28.1808V28.9882C122.151 28.9882 123.232 28.7902 124.245 28.3912L123.949 27.64ZM121.005 28.1808C120.685 28.1808 120.364 28.1453 120.042 28.0737L119.867 28.8619C120.245 28.946 120.624 28.9882 121.005 28.9882V28.1808ZM120.044 28.0743C119.722 28.0006 119.398 27.9036 119.074 27.7831L118.793 28.5399C119.149 28.6723 119.506 28.7795 119.865 28.8614L120.044 28.0743ZM119.087 27.7882C118.766 27.6559 118.444 27.5093 118.122 27.3482L117.761 28.0704C118.1 28.24 118.44 28.3948 118.78 28.5348L119.087 27.7882ZM118.126 27.3504C117.811 27.1881 117.506 27.0211 117.211 26.8496L116.805 27.5479C117.113 27.7264 117.43 27.8999 117.757 28.0682L118.126 27.3504ZM116.604 27.1987V34.2006H117.412V27.1987H116.604ZM125.391 20.299C125.391 19.5941 125.277 18.9479 125.04 18.3671L124.292 18.6717C124.484 19.1411 124.583 19.6814 124.583 20.299H125.391ZM125.042 18.3731C124.82 17.8014 124.509 17.3099 124.106 16.9065L123.535 17.4774C123.851 17.7936 124.104 18.1871 124.29 18.6657L125.042 18.3731ZM124.109 16.9103C123.709 16.4997 123.239 16.1862 122.701 15.9711L122.401 16.7207C122.836 16.8946 123.211 17.1452 123.531 17.4736L124.109 16.9103ZM122.701 15.9711C122.165 15.7567 121.599 15.6504 121.005 15.6504V16.4579C121.5 16.4579 121.964 16.5461 122.401 16.7207L122.701 15.9711ZM121.005 15.6504C120.411 15.6504 119.844 15.7567 119.309 15.9711L119.608 16.7207C120.045 16.5461 120.509 16.4579 121.005 16.4579V15.6504ZM119.306 15.9721C118.778 16.1876 118.313 16.5011 117.915 16.9103L118.493 17.4736C118.814 17.1437 119.186 16.8931 119.611 16.7197L119.306 15.9721ZM117.919 16.9065C117.517 17.3085 117.201 17.7978 116.97 18.3671L117.717 18.6717C117.913 18.1907 118.172 17.7951 118.489 17.4774L117.919 16.9065ZM116.967 18.3731C116.742 18.9522 116.633 19.5962 116.633 20.299H117.441C117.441 19.6793 117.536 19.1369 117.72 18.6657L116.967 18.3731ZM116.633 20.299C116.633 20.9751 116.743 21.6041 116.967 22.1812L117.72 21.8886C117.536 21.4154 117.441 20.8871 117.441 20.299H116.633ZM116.97 22.1872C117.201 22.7557 117.515 23.2482 117.915 23.6585L118.493 23.0953C118.173 22.7665 117.914 22.3644 117.717 21.8826L116.97 22.1872ZM117.915 23.6585C118.312 24.0664 118.774 24.3836 119.299 24.6086L119.618 23.8665C119.19 23.6831 118.816 23.4265 118.493 23.0953L117.915 23.6585ZM119.302 24.6098C119.84 24.8355 120.408 24.9476 121.005 24.9476V24.1402C120.512 24.1402 120.05 24.0481 119.615 23.8653L119.302 24.6098ZM121.005 24.9476C121.601 24.9476 122.17 24.8355 122.707 24.6098L122.395 23.8653C121.96 24.0481 121.497 24.1402 121.005 24.1402V24.9476ZM122.707 24.6098C123.242 24.3851 123.711 24.0678 124.109 23.6585L123.531 23.0953C123.21 23.4251 122.832 23.6816 122.395 23.8653L122.707 24.6098ZM124.109 23.6585C124.51 23.2467 124.82 22.7521 125.042 22.1812L124.29 21.8886C124.103 22.3679 123.849 22.768 123.531 23.0953L124.109 23.6585ZM125.04 22.1872C125.276 21.6085 125.391 20.9774 125.391 20.299H124.583C124.583 20.8849 124.484 21.4111 124.292 21.8826L125.04 22.1872ZM146.328 28.249V28.6527H146.732V28.249H146.328ZM145.365 28.249L145.038 28.4851L145.159 28.6527H145.365V28.249ZM143.819 26.1047L144.147 25.8686L143.884 25.5042L143.549 25.8043L143.819 26.1047ZM142.608 27.0675L142.839 27.3986L142.841 27.3975L142.608 27.0675ZM141.281 27.8406L141.449 28.2076L141.455 28.2047L141.281 27.8406ZM139.837 28.3511L139.737 27.9599L139.735 27.9604L139.837 28.3511ZM135.242 27.9865L135.097 28.3634L135.098 28.3638L135.242 27.9865ZM132.704 26.3819L132.42 26.6693L132.424 26.6731L132.704 26.3819ZM130.997 16.9586L131.37 17.1128L131.371 17.1116L130.997 16.9586ZM132.704 14.3329L132.418 14.0474L132.416 14.0493L132.704 14.3329ZM135.242 12.6408L135.396 13.0137L135.398 13.013L135.242 12.6408ZM139.851 12.2177L139.951 11.8265L139.851 12.2177ZM142.623 13.5306L142.387 13.8581L142.39 13.8606L142.623 13.5306ZM143.819 14.5079L143.541 14.801L143.854 15.0967L144.129 14.7666L143.819 14.5079ZM145.365 12.6553V12.2516H145.176L145.055 12.3967L145.365 12.6553ZM146.328 12.6553H146.732V12.2516H146.328V12.6553ZM141.996 18.7236L141.62 18.8724L141.624 18.8809L141.996 18.7236ZM141.15 17.367L140.85 17.6375L140.853 17.6411L141.15 17.367ZM139.881 16.4188L139.697 16.7785L139.706 16.7828L139.881 16.4188ZM136.803 16.3313L136.659 15.9539L136.657 15.9549L136.803 16.3313ZM135.548 17.1482L135.263 16.8627L135.259 16.8667L135.548 17.1482ZM134.717 18.4902L135.093 18.6365L135.094 18.6342L134.717 18.4902ZM134.717 22.1224L134.34 22.2664L134.34 22.2687L134.717 22.1224ZM135.548 23.4498L135.259 23.7314L135.263 23.7353L135.548 23.4498ZM136.803 24.2667L136.657 24.6431L136.659 24.6441L136.803 24.2667ZM139.881 24.1938L140.058 24.5564L140.061 24.5549L139.881 24.1938ZM141.15 23.2456L141.446 23.5198L141.449 23.5161L141.15 23.2456ZM141.996 21.889L141.623 21.7342L141.621 21.7378L141.996 21.889ZM146.328 27.8453H145.365V28.6527H146.328V27.8453ZM145.693 28.0129L144.147 25.8686L143.492 26.3408L145.038 28.4851L145.693 28.0129ZM143.549 25.8043C143.182 26.1338 142.791 26.4448 142.376 26.7374L142.841 27.3975C143.281 27.0871 143.697 26.7564 144.089 26.4052L143.549 25.8043ZM142.377 26.7364C141.977 27.0154 141.554 27.2621 141.106 27.4765L141.455 28.2047C141.942 27.9717 142.403 27.703 142.839 27.3986L142.377 26.7364ZM141.113 27.4736C140.668 27.6775 140.209 27.8395 139.737 27.9599L139.937 28.7423C140.456 28.6099 140.96 28.4316 141.449 28.2076L141.113 27.4736ZM139.735 27.9604C139.282 28.0782 138.821 28.1371 138.349 28.1371V28.9445C138.889 28.9445 139.419 28.877 139.938 28.7419L139.735 27.9604ZM138.349 28.1371C137.296 28.1371 136.309 27.9602 135.385 27.6091L135.098 28.3638C136.119 28.7517 137.204 28.9445 138.349 28.9445V28.1371ZM135.387 27.6096C134.473 27.2589 133.673 26.7528 132.983 26.0906L132.424 26.6731C133.193 27.4113 134.085 27.9749 135.097 28.3634L135.387 27.6096ZM132.987 26.0945C132.31 25.4262 131.77 24.6077 131.371 23.6324L130.623 23.9383C131.06 25.0052 131.658 25.9177 132.42 26.6693L132.987 26.0945ZM131.371 23.6324C130.976 22.6678 130.773 21.559 130.773 20.299H129.966C129.966 21.6453 130.182 22.8607 130.623 23.9383L131.371 23.6324ZM130.773 20.299C130.773 19.1305 130.974 18.0701 131.37 17.1128L130.624 16.8043C130.183 17.8697 129.966 19.0364 129.966 20.299H130.773ZM131.371 17.1116C131.77 16.1354 132.311 15.3055 132.991 14.6164L132.416 14.0493C131.657 14.819 131.06 15.7395 130.623 16.8056L131.371 17.1116ZM132.989 14.6183C133.681 13.9269 134.482 13.3924 135.396 13.0137L135.087 12.2678C134.076 12.6866 133.185 13.2802 132.418 14.0474L132.989 14.6183ZM135.398 13.013C136.319 12.6262 137.301 12.4318 138.349 12.4318V11.6244C137.199 11.6244 136.11 11.8384 135.086 12.2685L135.398 13.013ZM138.349 12.4318C138.821 12.4318 139.288 12.4907 139.752 12.6089L139.951 11.8265C139.423 11.6919 138.889 11.6244 138.349 11.6244V12.4318ZM139.752 12.6089C140.222 12.7287 140.678 12.8946 141.121 13.1069L141.47 12.3788C140.979 12.1438 140.473 11.9596 139.951 11.8265L139.752 12.6089ZM141.121 13.1069C141.566 13.3203 141.988 13.5706 142.387 13.8581L142.859 13.2031C142.421 12.8876 141.958 12.6128 141.47 12.3788L141.121 13.1069ZM142.39 13.8606C142.803 14.1512 143.186 14.4647 143.541 14.801L144.097 14.2148C143.713 13.851 143.299 13.5129 142.855 13.2005L142.39 13.8606ZM144.129 14.7666L145.675 12.914L145.055 12.3967L143.509 14.2492L144.129 14.7666ZM145.365 13.0591H146.328V12.2516H145.365V13.0591ZM145.924 12.6553V28.249H146.732V12.6553H145.924ZM142.72 20.299C142.72 19.6999 142.602 19.1213 142.368 18.5663L141.624 18.8809C141.817 19.3372 141.913 19.8089 141.913 20.299H142.72ZM142.371 18.5749C142.149 18.0153 141.841 17.5201 141.446 17.0929L140.853 17.6411C141.178 17.9919 141.434 18.4011 141.62 18.8723L142.371 18.5749ZM141.449 17.0965C141.054 16.6586 140.589 16.3109 140.055 16.0549L139.706 16.7828C140.145 16.9935 140.525 17.2779 140.85 17.6375L141.449 17.0965ZM140.064 16.0592C139.53 15.7866 138.956 15.6504 138.349 15.6504V16.4579C138.831 16.4579 139.278 16.5648 139.697 16.7784L140.064 16.0592ZM138.349 15.6504C137.758 15.6504 137.193 15.7509 136.659 15.9539L136.946 16.7087C137.384 16.5421 137.851 16.4579 138.349 16.4579V15.6504ZM136.657 15.9549C136.128 16.1599 135.662 16.463 135.263 16.8627L135.834 17.4337C136.154 17.1137 136.524 16.8723 136.949 16.7077L136.657 15.9549ZM135.259 16.8667C134.865 17.271 134.561 17.7672 134.34 18.3462L135.094 18.6342C135.281 18.1435 135.531 17.745 135.838 17.4297L135.259 16.8667ZM134.34 18.3439C134.115 18.9243 134.007 19.5784 134.007 20.299H134.814C134.814 19.6582 134.91 19.1064 135.093 18.6365L134.34 18.3439ZM134.007 20.299C134.007 21.0199 134.115 21.6778 134.34 22.2664L135.094 21.9784C134.91 21.4973 134.814 20.9396 134.814 20.299H134.007ZM134.34 22.2687C134.562 22.8381 134.867 23.3283 135.259 23.7314L135.838 23.1683C135.53 22.8518 135.28 22.457 135.093 21.9761L134.34 22.2687ZM135.263 23.7353C135.662 24.135 136.128 24.4382 136.657 24.6431L136.949 23.8903C136.524 23.7257 136.154 23.4843 135.834 23.1644L135.263 23.7353ZM136.659 24.6441C137.193 24.8471 137.758 24.9476 138.349 24.9476V24.1402C137.851 24.1402 137.384 24.0559 136.946 23.8893L136.659 24.6441ZM138.349 24.9476C138.953 24.9476 139.525 24.8175 140.058 24.5563L139.703 23.8312C139.283 24.0368 138.834 24.1402 138.349 24.1402V24.9476ZM140.061 24.5549C140.59 24.2906 141.052 23.9454 141.446 23.5198L140.853 22.9715C140.527 23.3238 140.144 23.6108 139.7 23.8327L140.061 24.5549ZM141.449 23.5161C141.841 23.0817 142.148 22.589 142.37 22.0402L141.621 21.7378C141.435 22.2004 141.178 22.6121 140.85 22.9752L141.449 23.5161ZM142.369 22.0438C142.602 21.4806 142.72 20.8981 142.72 20.299H141.913C141.913 20.7892 141.817 21.2667 141.623 21.7342L142.369 22.0438ZM160.171 18.7236L159.796 18.8724L159.799 18.8809L160.171 18.7236ZM159.325 17.367L159.026 17.6375L159.029 17.6411L159.325 17.367ZM158.056 16.4188L157.873 16.7785L157.881 16.7828L158.056 16.4188ZM154.978 16.3313L154.835 15.9539L154.832 15.9549L154.978 16.3313ZM153.724 17.1482L153.438 16.8627L153.434 16.8667L153.724 17.1482ZM152.892 18.4902L153.269 18.6365L153.269 18.6342L152.892 18.4902ZM152.892 22.0641L152.516 22.2104L152.517 22.2128L152.892 22.0641ZM153.724 23.3915L153.431 23.6692L153.435 23.6731L153.724 23.3915ZM154.978 24.2521L154.819 24.6233L154.828 24.627L154.978 24.2521ZM158.056 24.1938L158.234 24.5564L158.237 24.5549L158.056 24.1938ZM159.325 23.2456L159.622 23.5198L159.625 23.5161L159.325 23.2456ZM160.171 21.889L159.798 21.7342L159.797 21.7378L160.171 21.889ZM163.876 29.3722L164.247 29.5331L163.876 29.3722ZM162.155 31.8958L161.872 31.6084L161.87 31.6103L162.155 31.8958ZM159.617 33.6025L159.458 33.2316L159.456 33.2322L159.617 33.6025ZM156.525 34.2298L156.519 34.6335H156.525V34.2298ZM154.526 34.2006H154.122V34.5984L154.52 34.6043L154.526 34.2006ZM154.526 30.2183L154.532 29.8146L154.122 29.8086V30.2183H154.526ZM156.495 30.2475L156.489 30.6512H156.495V30.2475ZM158.085 29.9995L157.95 29.619L157.943 29.6218L158.085 29.9995ZM159.194 29.3431L158.923 29.0434L158.918 29.0482L159.194 29.3431ZM159.909 28.3949L159.55 28.2104L159.546 28.2183L159.909 28.3949ZM160.346 27.2571L160.736 27.3617L160.003 27.0455L160.346 27.2571ZM159.675 27.8843L159.865 28.2407L159.874 28.2356L159.675 27.8843ZM158.698 28.2636L158.593 27.8737L158.58 27.8775L158.698 28.2636ZM157.589 28.4824L157.549 28.0807L157.548 28.0808L157.589 28.4824ZM153.417 27.9719L153.269 28.3475L153.271 28.348L153.417 27.9719ZM150.879 26.3527L150.596 26.6401L150.6 26.6439L150.879 26.3527ZM150.879 14.3912L150.592 14.1076L150.59 14.1096L150.879 14.3912ZM153.417 12.6553L153.258 12.2845L153.257 12.2851L153.417 12.6553ZM158.027 12.2177L158.127 11.8265L158.027 12.2177ZM160.799 13.5306L160.562 13.8581L160.566 13.8606L160.799 13.5306ZM161.995 14.5079L161.717 14.801L162.029 15.0967L162.305 14.7666L161.995 14.5079ZM163.541 12.6553V12.2516H163.352L163.231 12.3967L163.541 12.6553ZM164.504 12.6553H164.907V12.2516H164.504V12.6553ZM160.896 20.299C160.896 19.6999 160.778 19.1213 160.543 18.5663L159.799 18.8809C159.993 19.3372 160.089 19.8089 160.089 20.299H160.896ZM160.547 18.5749C160.325 18.0153 160.017 17.5201 159.622 17.0929L159.029 17.6411C159.353 17.9919 159.609 18.4011 159.796 18.8723L160.547 18.5749ZM159.625 17.0965C159.23 16.6586 158.764 16.3109 158.231 16.0549L157.881 16.7828C158.321 16.9935 158.701 17.2779 159.026 17.6375L159.625 17.0965ZM158.24 16.0592C157.705 15.7866 157.132 15.6504 156.525 15.6504V16.4579C157.007 16.4579 157.454 16.5648 157.873 16.7784L158.24 16.0592ZM156.525 15.6504C155.933 15.6504 155.369 15.7509 154.835 15.9539L155.122 16.7087C155.56 16.5421 156.027 16.4579 156.525 16.4579V15.6504ZM154.832 15.9549C154.304 16.1599 153.838 16.463 153.438 16.8627L154.009 17.4337C154.329 17.1137 154.7 16.8723 155.124 16.7077L154.832 15.9549ZM153.434 16.8667C153.041 17.271 152.736 17.7672 152.515 18.3462L153.269 18.6342C153.457 18.1435 153.706 17.745 154.013 17.4297L153.434 16.8667ZM152.516 18.3439C152.29 18.9243 152.182 19.5784 152.182 20.299H152.99C152.99 19.6582 153.086 19.1064 153.269 18.6365L152.516 18.3439ZM152.182 20.299C152.182 20.9929 152.291 21.6319 152.516 22.2104L153.269 21.9177C153.085 21.4459 152.99 20.9082 152.99 20.299H152.182ZM152.517 22.2128C152.738 22.7717 153.042 23.2591 153.431 23.6691L154.017 23.1138C153.705 22.7849 153.455 22.3872 153.268 21.9154L152.517 22.2128ZM153.435 23.6731C153.832 24.081 154.294 24.3982 154.819 24.6232L155.137 23.8811C154.709 23.6977 154.336 23.4411 154.013 23.1099L153.435 23.6731ZM154.828 24.627C155.364 24.8413 155.931 24.9476 156.525 24.9476V24.1402C156.029 24.1402 155.565 24.052 155.128 23.8773L154.828 24.627ZM156.525 24.9476C157.129 24.9476 157.7 24.8175 158.234 24.5563L157.879 23.8312C157.459 24.0368 157.009 24.1402 156.525 24.1402V24.9476ZM158.237 24.5549C158.765 24.2906 159.228 23.9454 159.622 23.5198L159.029 22.9715C158.703 23.3238 158.319 23.6108 157.876 23.8327L158.237 24.5549ZM159.625 23.5161C160.017 23.0817 160.324 22.589 160.546 22.0402L159.797 21.7378C159.61 22.2004 159.353 22.6121 159.026 22.9752L159.625 23.5161ZM160.544 22.0438C160.778 21.4806 160.896 20.8981 160.896 20.299H160.089C160.089 20.7892 159.993 21.2667 159.798 21.7342L160.544 22.0438ZM164.1 26.2798C164.1 27.326 163.901 28.3018 163.506 29.2114L164.247 29.5331C164.688 28.5172 164.907 27.4313 164.907 26.2798H164.1ZM163.506 29.2114C163.108 30.128 162.563 30.9259 161.872 31.6084L162.439 32.1832C163.206 31.4264 163.809 30.542 164.247 29.5331L163.506 29.2114ZM161.87 31.6103C161.188 32.2923 160.385 32.8329 159.458 33.2316L159.776 33.9734C160.794 33.5358 161.683 32.9386 162.441 32.1813L161.87 31.6103ZM159.456 33.2322C158.547 33.6273 157.571 33.8261 156.525 33.8261V34.6335C157.676 34.6335 158.762 34.414 159.778 33.9728L159.456 33.2322ZM156.53 33.8261L154.532 33.7969L154.52 34.6043L156.519 34.6334L156.53 33.8261ZM154.93 34.2006V30.2183H154.122V34.2006H154.93ZM154.52 30.622L156.489 30.6511L156.501 29.8438L154.532 29.8146L154.52 30.622ZM156.495 30.6512C157.151 30.6512 157.732 30.5643 158.228 30.3771L157.943 29.6218C157.563 29.7653 157.084 29.8438 156.495 29.8438V30.6512ZM158.221 30.3799C158.704 30.208 159.123 29.9622 159.47 29.6379L158.918 29.0482C158.662 29.2879 158.342 29.4798 157.95 29.6191L158.221 30.3799ZM159.465 29.6427C159.804 29.3362 160.074 28.9786 160.272 28.5715L159.546 28.2183C159.394 28.5308 159.187 28.8053 158.923 29.0435L159.465 29.6427ZM160.268 28.5793C160.466 28.1935 160.622 27.7875 160.736 27.3617L159.956 27.1525C159.857 27.5242 159.721 27.8766 159.55 28.2105L160.268 28.5793ZM160.003 27.0455C159.887 27.2332 159.717 27.397 159.476 27.5331L159.874 28.2356C160.218 28.0411 160.494 27.7867 160.69 27.4687L160.003 27.0455ZM159.485 27.5281C159.224 27.6677 158.927 27.7836 158.593 27.8739L158.803 28.6533C159.189 28.5491 159.544 28.4122 159.865 28.2406L159.485 27.5281ZM158.58 27.8775C158.257 27.9762 157.914 28.0443 157.549 28.0807L157.63 28.8841C158.043 28.8428 158.439 28.7649 158.816 28.6497L158.58 27.8775ZM157.548 28.0808C157.181 28.1185 156.84 28.1371 156.525 28.1371V28.9445C156.871 28.9445 157.24 28.9241 157.631 28.884L157.548 28.0808ZM156.525 28.1371C155.473 28.1371 154.487 27.9558 153.564 27.5957L153.271 28.348C154.292 28.7464 155.378 28.9445 156.525 28.9445V28.1371ZM153.565 27.5963C152.65 27.2358 151.849 26.7243 151.159 26.0615L150.6 26.6439C151.368 27.3814 152.259 27.9494 153.269 28.3475L153.565 27.5963ZM151.163 26.0653C150.485 25.397 149.946 24.5785 149.546 23.6032L148.799 23.9092C149.236 24.976 149.834 25.8885 150.596 26.6401L151.163 26.0653ZM149.546 23.6032C149.151 22.6379 148.949 21.5387 148.949 20.299H148.142C148.142 21.6267 148.358 22.8323 148.799 23.9092L149.546 23.6032ZM148.949 20.299C148.949 19.1712 149.149 18.13 149.546 17.1712L148.799 16.8627C148.36 17.9265 148.142 19.0734 148.142 20.299H148.949ZM149.546 17.1712C149.945 16.2043 150.487 15.373 151.169 14.6729L150.59 14.1096C149.832 14.8876 149.236 15.8068 148.799 16.8627L149.546 17.1712ZM151.167 14.6748C151.859 13.9728 152.662 13.4235 153.578 13.0256L153.257 12.2851C152.247 12.7235 151.358 13.3314 150.592 14.1076L151.167 14.6748ZM153.577 13.0262C154.497 12.6305 155.478 12.4318 156.525 12.4318V11.6244C155.373 11.6244 154.283 11.8438 153.258 12.2845L153.577 13.0262ZM156.525 12.4318C156.996 12.4318 157.463 12.4907 157.927 12.6089L158.127 11.8265C157.599 11.6919 157.064 11.6244 156.525 11.6244V12.4318ZM157.927 12.6089C158.397 12.7287 158.854 12.8946 159.297 13.1069L159.646 12.3788C159.155 12.1438 158.649 11.9596 158.127 11.8265L157.927 12.6089ZM159.297 13.1069C159.742 13.3203 160.164 13.5706 160.562 13.8581L161.035 13.2031C160.597 12.8876 160.134 12.6128 159.646 12.3788L159.297 13.1069ZM160.566 13.8606C160.978 14.1512 161.362 14.4647 161.717 14.801L162.272 14.2148C161.888 13.851 161.474 13.5129 161.031 13.2005L160.566 13.8606ZM162.305 14.7666L163.851 12.914L163.231 12.3967L161.685 14.2492L162.305 14.7666ZM163.541 13.0591H164.504V12.2516H163.541V13.0591ZM164.1 12.6553V26.2798H164.907V12.6553H164.1ZM171.316 34.2006H170.912V34.5986L171.31 34.6043L171.316 34.2006ZM171.316 30.1891L171.321 29.7854L170.912 29.7801V30.1891H171.316ZM173.533 30.2183L173.528 30.622H173.533V30.2183ZM175.648 29.5035L175.413 29.1757L175.408 29.1793L175.648 29.5035ZM176.465 28.7012L176.146 28.4541L176.142 28.459L176.465 28.7012ZM177.034 27.7093L177.408 27.861L177.774 26.9587L176.877 27.3374L177.034 27.7093ZM175.692 28.2636L175.541 27.8893L175.538 27.8905L175.692 28.2636ZM169.39 26.5861L169.105 26.8716L169.109 26.8759L169.39 26.5861ZM167.888 24.2959L167.513 24.4452L167.515 24.45L167.888 24.2959ZM167.348 12.6262V12.2225H166.944V12.6262H167.348ZM171.316 12.6262H171.72V12.2225H171.316V12.6262ZM171.549 22.7205L171.171 22.8613L171.175 22.872L171.549 22.7205ZM172.206 23.7562L171.915 24.0366L171.92 24.0416L172.206 23.7562ZM173.154 24.3688L173.011 24.7464L173.014 24.7477L173.154 24.3688ZM175.488 24.2959L175.672 24.655L175.676 24.6532L175.488 24.2959ZM177.092 22.4871L177.467 22.637L177.468 22.6339L177.092 22.4871ZM177.326 12.6262V12.2225H176.922V12.6262H177.326ZM181.337 12.6262H181.741V12.2225H181.337V12.6262ZM181.337 26.2798L181.741 26.2833V26.2798H181.337ZM180.695 29.3722L180.325 29.2114L180.695 29.3722ZM178.974 31.8958L178.691 31.6084L178.689 31.6103L178.974 31.8958ZM173.358 34.2298L173.352 34.6335H173.358V34.2298ZM171.72 34.2006V30.1891H170.912V34.2006H171.72ZM171.311 30.5928L173.528 30.622L173.538 29.8146L171.321 29.7854L171.311 30.5928ZM173.533 30.622C173.967 30.622 174.387 30.5514 174.79 30.4095L174.523 29.6478C174.207 29.7588 173.877 29.8146 173.533 29.8146V30.622ZM174.79 30.4095C175.188 30.2699 175.554 30.0759 175.889 29.8277L175.408 29.1793C175.139 29.3784 174.845 29.5346 174.523 29.6478L174.79 30.4095ZM175.884 29.8313C176.229 29.5834 176.531 29.2869 176.788 28.9435L176.142 28.459C175.933 28.7379 175.69 28.9763 175.413 29.1757L175.884 29.8313ZM176.784 28.9484C177.041 28.6172 177.249 28.2543 177.408 27.861L176.66 27.5576C176.528 27.8839 176.356 28.1823 176.146 28.4541L176.784 28.9484ZM176.877 27.3374C176.441 27.5213 175.996 27.7053 175.541 27.8893L175.843 28.6379C176.302 28.4524 176.752 28.2668 177.191 28.0812L176.877 27.3374ZM175.538 27.8905C175.137 28.0563 174.737 28.1371 174.335 28.1371V28.9445C174.848 28.9445 175.353 28.8405 175.846 28.6367L175.538 27.8905ZM174.335 28.1371C173.421 28.1371 172.568 27.9757 171.773 27.6557L171.472 28.4048C172.368 28.7654 173.324 28.9445 174.335 28.9445V28.1371ZM171.773 27.6557C170.974 27.3344 170.275 26.8815 169.671 26.2963L169.109 26.8759C169.789 27.5355 170.578 28.0453 171.472 28.4048L171.773 27.6557ZM169.676 26.3006C169.084 25.7091 168.612 24.9914 168.261 24.1418L167.515 24.45C167.903 25.3897 168.432 26.1988 169.105 26.8716L169.676 26.3006ZM168.263 24.1467C167.925 23.2963 167.752 22.3365 167.752 21.2618H166.944C166.944 22.4237 167.131 23.4867 167.513 24.4451L168.263 24.1467ZM167.752 21.2618V12.6262H166.944V21.2618H167.752ZM167.348 13.0299H171.316V12.2225H167.348V13.0299ZM170.912 12.6262V21.2618H171.72V12.6262H170.912ZM170.912 21.2618C170.912 21.8529 170.995 22.3886 171.171 22.8613L171.928 22.5797C171.792 22.216 171.72 21.7792 171.72 21.2618H170.912ZM171.175 22.872C171.357 23.3224 171.603 23.713 171.915 24.0366L172.496 23.4758C172.264 23.2353 172.072 22.9354 171.924 22.569L171.175 22.872ZM171.92 24.0416C172.233 24.3544 172.598 24.59 173.011 24.7464L173.297 23.9913C172.991 23.8754 172.723 23.7026 172.491 23.4707L171.92 24.0416ZM173.014 24.7477C173.431 24.9013 173.873 24.9768 174.335 24.9768V24.1693C173.962 24.1693 173.616 24.1087 173.293 23.99L173.014 24.7477ZM174.335 24.9768C174.807 24.9768 175.255 24.8694 175.672 24.655L175.303 23.9368C175.001 24.0919 174.68 24.1693 174.335 24.1693V24.9768ZM175.676 24.6532C176.089 24.4358 176.449 24.1521 176.754 23.8032L176.147 23.2715C175.907 23.545 175.626 23.767 175.3 23.9387L175.676 24.6532ZM176.754 23.8032C177.057 23.4572 177.295 23.0678 177.467 22.637L176.718 22.3372C176.579 22.6843 176.389 22.9951 176.147 23.2715L176.754 23.8032ZM177.468 22.6339C177.642 22.1895 177.73 21.7313 177.73 21.2618H176.922C176.922 21.6285 176.854 21.9873 176.716 22.3403L177.468 22.6339ZM177.73 21.2618V12.6262H176.922V21.2618H177.73ZM177.326 13.0299H181.337V12.2225H177.326V13.0299ZM180.934 12.6262V26.2798H181.741V12.6262H180.934ZM180.934 26.2762C180.924 27.3235 180.721 28.3006 180.325 29.2114L181.066 29.5331C181.506 28.5183 181.731 27.4338 181.741 26.2833L180.934 26.2762ZM180.325 29.2114C179.927 30.128 179.382 30.9259 178.691 31.6084L179.258 32.1832C180.025 31.4264 180.628 30.542 181.066 29.5331L180.325 29.2114ZM178.689 31.6103C178.006 32.293 177.207 32.8336 176.29 33.2322L176.611 33.9728C177.619 33.5351 178.503 32.9379 179.26 32.1813L178.689 31.6103ZM176.29 33.2322C175.38 33.6273 174.404 33.8261 173.358 33.8261V34.6335C174.51 34.6335 175.596 34.414 176.611 33.9728L176.29 33.2322ZM173.364 33.8261L171.322 33.7969L171.31 34.6043L173.352 34.6334L173.364 33.8261Z" fill="white"/>
<path d="M16.9277 34.249H7.92773C4.61403 34.249 1.92773 31.5627 1.92773 28.249V10.249C1.92773 6.93531 4.61403 4.24902 7.92773 4.24902H25.9277C29.2414 4.24902 31.9277 6.93532 31.9277 10.249V19.249" stroke="white" stroke-width="3"/>
<line x1="2.92773" y1="14.749" x2="30.9277" y2="14.749" stroke="white" stroke-width="3"/>
<circle cx="7.42773" cy="9.74902" r="1" fill="white" stroke="white"/>
<circle cx="11.4277" cy="9.74902" r="1" fill="white" stroke="white"/>
<line x1="12.4277" y1="14.249" x2="12.4277" y2="34.249" stroke="white" stroke-width="3"/>
<line x1="22.4277" y1="9.74902" x2="27.4277" y2="9.74902" stroke="white" stroke-width="3" stroke-linecap="round"/>
<path d="M34.2897 32.6688L34.2775 32.6702L34.2653 32.6722L28.8041 33.5651L28.5628 33.6046L28.4458 33.8192L25.751 38.761C25.731 38.795 25.6793 38.8281 25.6085 38.8181C25.5781 38.8139 25.5627 38.803 25.5574 38.7978L25.5572 38.7976C25.5551 38.7957 25.5432 38.7848 25.5388 38.7439L25.5367 38.7252L25.5333 38.7068L23.1772 26.0195C23.1733 25.957 23.2026 25.8951 23.2662 25.8518C23.3323 25.8069 23.394 25.809 23.4401 25.8351L34.3515 32.3539C34.391 32.3802 34.4088 32.4082 34.4181 32.433C34.4291 32.4621 34.4323 32.4993 34.4232 32.5389C34.4047 32.62 34.3528 32.6617 34.2897 32.6688Z" fill="white" stroke="white"/>
<path d="M19.1719 19.8856C19.1751 19.8815 19.1793 19.8771 19.1842 19.8727L21.1804 22.7198C21.1813 22.7217 21.1819 22.7231 21.1822 22.7241C21.1815 22.7269 21.179 22.7334 21.1726 22.7424C21.166 22.7516 21.157 22.7609 21.1464 22.7687C21.1413 22.7724 21.1366 22.7753 21.1324 22.7775L19.1845 19.9034L19.179 19.8953L19.1732 19.8875C19.1727 19.8868 19.1723 19.8862 19.1719 19.8856Z" fill="white" stroke="white"/>
<path d="M24.1456 18.7823L24.1455 18.7823L24.1439 18.7916L23.5381 22.2202C23.5363 22.2289 23.5343 22.2358 23.5326 22.241C23.5262 22.2397 23.5203 22.2374 23.5155 22.2348C23.5155 22.2347 23.5154 22.2347 23.5153 22.2346L24.1163 18.765C24.1178 18.7583 24.1193 18.7531 24.1206 18.749C24.1239 18.7491 24.1277 18.7495 24.1319 18.7504C24.1388 18.7518 24.1445 18.754 24.1486 18.7562C24.1486 18.7615 24.148 18.7701 24.1456 18.7823Z" fill="white" stroke="white"/>
<path d="M25.6088 23.5391L27.9373 21.9012L25.6513 23.6053C25.6392 23.6104 25.6319 23.6116 25.6292 23.612C25.6269 23.6123 25.6257 23.6122 25.6254 23.6122L25.6246 23.6121C25.6235 23.6118 25.6118 23.6073 25.6001 23.5898C25.5897 23.5742 25.5889 23.5628 25.5889 23.5602C25.5889 23.5601 25.589 23.56 25.5891 23.5599C25.5897 23.5588 25.5943 23.5511 25.6088 23.5391Z" fill="white" stroke="white"/>
<path d="M16.4459 24.2457L16.4459 24.2458L16.4556 24.2475L18.5807 24.6372L16.4364 24.2946C16.4332 24.2938 16.4305 24.293 16.4283 24.2923C16.4274 24.2851 16.4274 24.2753 16.4296 24.2642C16.4312 24.2561 16.4335 24.2492 16.4359 24.244C16.4388 24.2443 16.4421 24.2449 16.4459 24.2457Z" fill="white" stroke="white"/>
<path d="M17.5281 29.3139C17.5262 29.3112 17.5244 29.3084 17.5228 29.3057L20.3224 27.2684C20.3237 27.2692 20.3251 27.2702 20.3265 27.2713C20.3349 27.2774 20.3441 27.2866 20.3523 27.2981C20.3604 27.3096 20.3653 27.3205 20.3678 27.3287C20.368 27.3296 20.3683 27.3304 20.3685 27.3312C20.3666 27.3331 20.3642 27.3353 20.361 27.3379L17.5401 29.3223L17.5367 29.3247C17.5338 29.3215 17.531 29.318 17.5281 29.3139Z" fill="white" stroke="white"/>
</svg>
