<svg width="185" height="40" viewBox="0 0 185 40" fill="none" xmlns="http://www.w3.org/2000/svg">
<path d="M58.5856 28H43.9401V7.082H48.1266V23.8135H58.5856V28ZM75.0691 28H74.1064L72.5601 25.8557C72.1808 26.1961 71.7773 26.517 71.3494 26.8184C70.9312 27.1102 70.4887 27.3679 70.0219 27.5916C69.5552 27.8055 69.0738 27.9757 68.5778 28.1021C68.0916 28.2285 67.5956 28.2917 67.0899 28.2917C65.991 28.2917 64.9553 28.107 63.9829 27.7374C63.0201 27.3679 62.1741 26.833 61.4447 26.1328C60.7251 25.4229 60.1562 24.5574 59.738 23.5363C59.3198 22.5152 59.1107 21.3531 59.1107 20.05C59.1107 18.8344 59.3198 17.7209 59.738 16.7095C60.1562 15.6884 60.7251 14.8132 61.4447 14.0838C62.1741 13.3545 63.0201 12.7904 63.9829 12.3917C64.9553 11.9833 65.991 11.7791 67.0899 11.7791C67.5956 11.7791 68.0964 11.8423 68.5924 11.9687C69.0884 12.0951 69.5697 12.2702 70.0365 12.4938C70.5033 12.7175 70.9458 12.9801 71.364 13.2815C71.7919 13.583 72.1906 13.9088 72.5601 14.2589L74.1064 12.4063H75.0691V28ZM71.0576 20.05C71.0576 19.5054 70.9507 18.9803 70.7367 18.4746C70.5325 17.9592 70.2505 17.507 69.8907 17.118C69.5308 16.7193 69.1078 16.4032 68.6216 16.1698C68.1451 15.9267 67.6345 15.8051 67.0899 15.8051C66.5453 15.8051 66.0299 15.8975 65.5437 16.0823C65.0672 16.2671 64.649 16.5394 64.2892 16.8992C63.9391 17.259 63.6619 17.7063 63.4577 18.2412C63.2535 18.7663 63.1514 19.3693 63.1514 20.05C63.1514 20.7307 63.2535 21.3385 63.4577 21.8734C63.6619 22.3985 63.9391 22.841 64.2892 23.2008C64.649 23.5606 65.0672 23.8329 65.5437 24.0177C66.0299 24.2025 66.5453 24.2949 67.0899 24.2949C67.6345 24.2949 68.1451 24.1782 68.6216 23.9448C69.1078 23.7016 69.5308 23.3856 69.8907 22.9966C70.2505 22.5979 70.5325 22.1457 70.7367 21.64C70.9507 21.1246 71.0576 20.5946 71.0576 20.05ZM82.1001 28H78.1178V12.3771H79.0806L80.3934 13.8942C81.0353 13.3107 81.7598 12.8634 82.5669 12.5522C83.3838 12.2313 84.2347 12.0708 85.1197 12.0708C86.0727 12.0708 86.9722 12.2556 87.8183 12.6251C88.6643 12.9849 89.4034 13.4858 90.0355 14.1276C90.6676 14.7597 91.1636 15.5037 91.5234 16.3594C91.893 17.2055 92.0777 18.1099 92.0777 19.0727V28H88.0954V19.0727C88.0954 18.6642 88.0176 18.2801 87.862 17.9203C87.7065 17.5507 87.4925 17.2298 87.2202 16.9575C86.9479 16.6852 86.6319 16.4713 86.272 16.3157C85.9122 16.1601 85.5281 16.0823 85.1197 16.0823C84.7015 16.0823 84.3076 16.1601 83.9381 16.3157C83.5686 16.4713 83.2476 16.6852 82.9753 16.9575C82.7031 17.2298 82.4891 17.5507 82.3335 17.9203C82.1779 18.2801 82.1001 18.6642 82.1001 19.0727V28ZM110.02 28H109.057L107.511 25.8557C107.132 26.1961 106.728 26.517 106.3 26.8184C105.882 27.1102 105.44 27.3679 104.973 27.5916C104.506 27.8055 104.025 27.9757 103.529 28.1021C103.042 28.2285 102.546 28.2917 102.041 28.2917C100.942 28.2917 99.9062 28.0875 98.9337 27.6791C97.971 27.2609 97.1249 26.6872 96.3955 25.9578C95.6759 25.2187 95.107 24.3483 94.6888 23.3467C94.2707 22.3353 94.0616 21.2364 94.0616 20.05C94.0616 18.8733 94.2707 17.7793 94.6888 16.7679C95.107 15.7565 95.6759 14.8813 96.3955 14.1422C97.1249 13.4031 97.971 12.8245 98.9337 12.4063C99.9062 11.9882 100.942 11.7791 102.041 11.7791C102.391 11.7791 102.751 11.8082 103.12 11.8666C103.499 11.9249 103.864 12.0222 104.214 12.1583C104.574 12.2848 104.91 12.4549 105.221 12.6689C105.532 12.8828 105.795 13.1454 106.008 13.4566V6.16301H110.02V28ZM106.008 20.05C106.008 19.5054 105.902 18.9803 105.688 18.4746C105.483 17.9592 105.201 17.507 104.842 17.118C104.482 16.7193 104.059 16.4032 103.572 16.1698C103.096 15.9267 102.585 15.8051 102.041 15.8051C101.496 15.8051 100.981 15.9024 100.495 16.0969C100.018 16.2914 99.5999 16.5734 99.24 16.9429C98.8899 17.3027 98.6128 17.7452 98.4086 18.2704C98.2044 18.7955 98.1022 19.3887 98.1022 20.05C98.1022 20.6238 98.2044 21.1683 98.4086 21.6838C98.6128 22.1992 98.8899 22.6514 99.24 23.0404C99.5999 23.4294 100.018 23.7357 100.495 23.9594C100.981 24.183 101.496 24.2949 102.041 24.2949C102.585 24.2949 103.096 24.1782 103.572 23.9448C104.059 23.7016 104.482 23.3856 104.842 22.9966C105.201 22.5979 105.483 22.1457 105.688 21.64C105.902 21.1246 106.008 20.5946 106.008 20.05ZM117.08 33.9516H113.069V12.3771H114.031L115.621 14.2589C115.981 13.9185 116.375 13.5976 116.803 13.2961C117.231 12.9947 117.673 12.737 118.13 12.523C118.597 12.2993 119.079 12.1243 119.575 11.9979C120.071 11.8715 120.571 11.8082 121.077 11.8082C122.176 11.8082 123.207 12.0076 124.17 12.4063C125.142 12.7953 125.988 13.3496 126.708 14.0693C127.437 14.7889 128.011 15.6593 128.429 16.6804C128.847 17.6917 129.056 18.8149 129.056 20.05C129.056 21.3337 128.847 22.4909 128.429 23.5217C128.011 24.5428 127.437 25.4132 126.708 26.1328C125.988 26.8428 125.142 27.3873 124.17 27.7666C123.207 28.1459 122.176 28.3355 121.077 28.3355C120.727 28.3355 120.377 28.2966 120.027 28.2188C119.686 28.141 119.346 28.0389 119.006 27.9125C118.675 27.7763 118.344 27.6256 118.014 27.4603C117.693 27.295 117.382 27.1248 117.08 26.9497V33.9516ZM125.059 20.05C125.059 19.3887 124.952 18.7955 124.738 18.2704C124.534 17.7452 124.252 17.3027 123.892 16.9429C123.533 16.5734 123.11 16.2914 122.623 16.0969C122.137 15.9024 121.622 15.8051 121.077 15.8051C120.532 15.8051 120.017 15.9024 119.531 16.0969C119.054 16.2914 118.636 16.5734 118.276 16.9429C117.916 17.3027 117.63 17.7452 117.416 18.2704C117.211 18.7955 117.109 19.3887 117.109 20.05C117.109 20.6821 117.211 21.2607 117.416 21.7859C117.63 22.311 117.916 22.7583 118.276 23.1279C118.636 23.4974 119.054 23.7843 119.531 23.9885C120.017 24.1927 120.532 24.2949 121.077 24.2949C121.622 24.2949 122.137 24.1927 122.623 23.9885C123.11 23.7843 123.533 23.4974 123.892 23.1279C124.252 22.7583 124.534 22.311 124.738 21.7859C124.952 21.2607 125.059 20.6821 125.059 20.05ZM146.4 28H145.438L143.891 25.8557C143.512 26.1961 143.109 26.517 142.681 26.8184C142.262 27.1102 141.82 27.3679 141.353 27.5916C140.886 27.8055 140.405 27.9757 139.909 28.1021C139.423 28.2285 138.927 28.2917 138.421 28.2917C137.322 28.2917 136.287 28.107 135.314 27.7374C134.351 27.3679 133.505 26.833 132.776 26.1328C132.056 25.4229 131.487 24.5574 131.069 23.5363C130.651 22.5152 130.442 21.3531 130.442 20.05C130.442 18.8344 130.651 17.7209 131.069 16.7095C131.487 15.6884 132.056 14.8132 132.776 14.0838C133.505 13.3545 134.351 12.7904 135.314 12.3917C136.287 11.9833 137.322 11.7791 138.421 11.7791C138.927 11.7791 139.428 11.8423 139.924 11.9687C140.42 12.0951 140.901 12.2702 141.368 12.4938C141.835 12.7175 142.277 12.9801 142.695 13.2815C143.123 13.583 143.522 13.9088 143.891 14.2589L145.438 12.4063H146.4V28ZM142.389 20.05C142.389 19.5054 142.282 18.9803 142.068 18.4746C141.864 17.9592 141.582 17.507 141.222 17.118C140.862 16.7193 140.439 16.4032 139.953 16.1698C139.476 15.9267 138.966 15.8051 138.421 15.8051C137.877 15.8051 137.361 15.8975 136.875 16.0823C136.398 16.2671 135.98 16.5394 135.62 16.8992C135.27 17.259 134.993 17.7063 134.789 18.2412C134.585 18.7663 134.483 19.3693 134.483 20.05C134.483 20.7307 134.585 21.3385 134.789 21.8734C134.993 22.3985 135.27 22.841 135.62 23.2008C135.98 23.5606 136.398 23.8329 136.875 24.0177C137.361 24.2025 137.877 24.2949 138.421 24.2949C138.966 24.2949 139.476 24.1782 139.953 23.9448C140.439 23.7016 140.862 23.3856 141.222 22.9966C141.582 22.5979 141.864 22.1457 142.068 21.64C142.282 21.1246 142.389 20.5946 142.389 20.05ZM160.564 20.05C160.564 19.5054 160.458 18.9803 160.244 18.4746C160.039 17.9592 159.757 17.507 159.398 17.118C159.038 16.7193 158.615 16.4032 158.128 16.1698C157.652 15.9267 157.141 15.8051 156.597 15.8051C156.052 15.8051 155.537 15.8975 155.051 16.0823C154.574 16.2671 154.156 16.5394 153.796 16.8992C153.446 17.259 153.169 17.7063 152.965 18.2412C152.76 18.7663 152.658 19.3693 152.658 20.05C152.658 20.7016 152.76 21.2899 152.965 21.815C153.169 22.3305 153.446 22.7729 153.796 23.1425C154.156 23.512 154.574 23.7989 155.051 24.0031C155.537 24.1976 156.052 24.2949 156.597 24.2949C157.141 24.2949 157.652 24.1782 158.128 23.9448C158.615 23.7016 159.038 23.3856 159.398 22.9966C159.757 22.5979 160.039 22.1457 160.244 21.64C160.458 21.1246 160.564 20.5946 160.564 20.05ZM164.576 26.0307C164.576 27.1296 164.367 28.1605 163.949 29.1232C163.531 30.086 162.957 30.9272 162.227 31.6468C161.508 32.3664 160.662 32.9353 159.689 33.3535C158.727 33.7717 157.696 33.9807 156.597 33.9807L154.598 33.9516V29.9693L156.568 29.9984C157.19 29.9984 157.72 29.9158 158.158 29.7505C158.595 29.5949 158.965 29.3761 159.266 29.094C159.568 28.8217 159.806 28.5057 159.981 28.1459C160.166 27.7861 160.312 27.4068 160.419 27.0081C160.263 27.2609 160.039 27.47 159.748 27.6353C159.456 27.7909 159.13 27.9173 158.77 28.0146C158.42 28.1216 158.051 28.1945 157.662 28.2334C157.282 28.2723 156.927 28.2917 156.597 28.2917C155.498 28.2917 154.462 28.1021 153.49 27.7228C152.527 27.3436 151.681 26.8039 150.952 26.1037C150.232 25.3938 149.663 24.5283 149.245 23.5072C148.827 22.4861 148.618 21.3337 148.618 20.05C148.618 18.8733 148.827 17.7793 149.245 16.7679C149.663 15.7565 150.232 14.8813 150.952 14.1422C151.681 13.4031 152.527 12.8245 153.49 12.4063C154.462 11.9882 155.498 11.7791 156.597 11.7791C157.102 11.7791 157.603 11.8423 158.099 11.9687C158.595 12.0951 159.077 12.2702 159.543 12.4938C160.01 12.7175 160.453 12.9801 160.871 13.2815C161.299 13.583 161.697 13.9088 162.067 14.2589L163.613 12.4063H164.576V26.0307ZM171.388 33.9516V29.9401L173.605 29.9693C173.994 29.9693 174.369 29.9061 174.729 29.7796C175.088 29.6532 175.419 29.4782 175.721 29.2545C176.032 29.0308 176.304 28.7634 176.537 28.4522C176.771 28.1507 176.96 27.8201 177.106 27.4603C176.669 27.645 176.221 27.8298 175.764 28.0146C175.317 28.1994 174.865 28.2917 174.408 28.2917C173.445 28.2917 172.541 28.1216 171.694 27.7812C170.848 27.4408 170.104 26.9594 169.463 26.3371C168.831 25.705 168.33 24.9416 167.96 24.0469C167.6 23.1425 167.42 22.1311 167.42 21.0127V12.3771H171.388V21.0127C171.388 21.5671 171.466 22.0533 171.622 22.4715C171.787 22.8799 172.006 23.2251 172.278 23.5072C172.55 23.7794 172.866 23.9837 173.226 24.1198C173.596 24.256 173.99 24.324 174.408 24.324C174.816 24.324 175.2 24.2316 175.56 24.0469C175.93 23.8524 176.251 23.5995 176.523 23.2883C176.795 22.9772 177.009 22.6271 177.165 22.2381C177.32 21.8394 177.398 21.4309 177.398 21.0127V12.3771H181.41V26.0307C181.4 27.1296 181.186 28.1605 180.768 29.1232C180.35 30.086 179.776 30.9272 179.046 31.6468C178.327 32.3664 177.486 32.9353 176.523 33.3535C175.56 33.7717 174.529 33.9807 173.43 33.9807L171.388 33.9516Z" fill="#453B56"/>
<path d="M17 34H8C4.68629 34 2 31.3137 2 28V10C2 6.68629 4.68629 4 8 4H26C29.3137 4 32 6.68629 32 10V19" stroke="#EC595A" stroke-width="3"/>
<line x1="3" y1="14.5" x2="31" y2="14.5" stroke="#EC595A" stroke-width="3"/>
<circle cx="7.5" cy="9.5" r="1.5" fill="#EC595A"/>
<circle cx="11.5" cy="9.5" r="1.5" fill="#EC595A"/>
<line x1="12.5" y1="14" x2="12.5" y2="34" stroke="#EC595A" stroke-width="3"/>
<line x1="22.5" y1="9.5" x2="27.5" y2="9.5" stroke="#EC595A" stroke-width="3" stroke-linecap="round"/>
<path fill-rule="evenodd" clip-rule="evenodd" d="M23.765 25.155L34.6874 31.6804C35.2268 32.0238 35.0245 32.8481 34.4177 32.9167L28.9565 33.8097L26.2597 38.7553C25.99 39.2361 25.1809 39.1674 25.1135 38.5492L22.7537 25.8418C22.6863 25.2923 23.2931 24.8802 23.765 25.155Z" fill="#EC595A"/>
<path fill-rule="evenodd" clip-rule="evenodd" d="M19.6519 19.3165L21.6746 22.2014C22.0117 22.7509 21.2026 23.3691 20.7981 22.8196L18.8428 19.9347C18.4383 19.3852 19.3148 18.767 19.6519 19.3165Z" fill="#EC595A"/>
<path fill-rule="evenodd" clip-rule="evenodd" d="M24.709 18.6296L24.1022 22.064C23.9673 22.7509 23.0234 22.5449 23.0908 21.9267L23.6976 18.4236C23.8325 17.7367 24.8438 17.9427 24.709 18.6296Z" fill="#EC595A"/>
<path fill-rule="evenodd" clip-rule="evenodd" d="M28.754 21.7205L25.9897 23.7811C25.3829 24.1245 24.8435 23.3003 25.3829 22.8882L28.2146 20.8962C28.754 20.4841 29.3608 21.377 28.754 21.7205Z" fill="#EC595A"/>
<path fill-rule="evenodd" clip-rule="evenodd" d="M16.618 23.5067L19.9891 24.1249C20.6633 24.1935 20.4611 25.2239 19.8543 25.0865L16.4157 24.537C15.7415 24.3996 15.9438 23.3693 16.618 23.5067Z" fill="#EC595A"/>
<path fill-rule="evenodd" clip-rule="evenodd" d="M17.2927 28.6576L20.1244 26.597C20.6638 26.2535 21.2706 27.0778 20.7312 27.4899L17.8995 29.4819C17.3601 29.894 16.7533 29.0011 17.2927 28.6576Z" fill="#EC595A"/>
</svg>
