<svg width="185" height="40" viewBox="0 0 185 40" fill="none" xmlns="http://www.w3.org/2000/svg">
<path d="M58.8825 28.2314H44.237V7.31345H48.4235V24.0449H58.8825V28.2314ZM75.366 28.2314H74.4032L72.857 26.0871C72.4777 26.4275 72.0741 26.7484 71.6463 27.0499C71.2281 27.3416 70.7856 27.5993 70.3188 27.823C69.852 28.0369 69.3707 28.2071 68.8747 28.3336C68.3885 28.46 67.8925 28.5232 67.3868 28.5232C66.2879 28.5232 65.2522 28.3384 64.2797 27.9689C63.317 27.5993 62.4709 27.0645 61.7416 26.3643C61.0219 25.6544 60.453 24.7889 60.0349 23.7678C59.6167 22.7467 59.4076 21.5846 59.4076 20.2814C59.4076 19.0658 59.6167 17.9524 60.0349 16.941C60.453 15.9199 61.0219 15.0446 61.7416 14.3153C62.4709 13.5859 63.317 13.0219 64.2797 12.6232C65.2522 12.2147 66.2879 12.0105 67.3868 12.0105C67.8925 12.0105 68.3933 12.0737 68.8893 12.2002C69.3852 12.3266 69.8666 12.5016 70.3334 12.7253C70.8002 12.949 71.2427 13.2115 71.6608 13.513C72.0887 13.8145 72.4874 14.1402 72.857 14.4903L74.4032 12.6378H75.366V28.2314ZM71.3545 20.2814C71.3545 19.7369 71.2475 19.2117 71.0336 18.706C70.8294 18.1906 70.5474 17.7384 70.1875 17.3494C69.8277 16.9507 69.4047 16.6346 68.9185 16.4013C68.4419 16.1581 67.9314 16.0366 67.3868 16.0366C66.8422 16.0366 66.3268 16.129 65.8406 16.3137C65.364 16.4985 64.9459 16.7708 64.5861 17.1306C64.236 17.4904 63.9588 17.9378 63.7546 18.4726C63.5504 18.9978 63.4483 19.6007 63.4483 20.2814C63.4483 20.9622 63.5504 21.57 63.7546 22.1048C63.9588 22.63 64.236 23.0725 64.5861 23.4323C64.9459 23.7921 65.364 24.0644 65.8406 24.2491C66.3268 24.4339 66.8422 24.5263 67.3868 24.5263C67.9314 24.5263 68.4419 24.4096 68.9185 24.1762C69.4047 23.9331 69.8277 23.617 70.1875 23.228C70.5474 22.8293 70.8294 22.3771 71.0336 21.8714C71.2475 21.356 71.3545 20.826 71.3545 20.2814ZM82.397 28.2314H78.4147V12.6086H79.3775L80.6903 14.1257C81.3321 13.5422 82.0566 13.0948 82.8638 12.7836C83.6807 12.4627 84.5316 12.3023 85.4165 12.3023C86.3696 12.3023 87.2691 12.487 88.1152 12.8566C88.9612 13.2164 89.7003 13.7172 90.3324 14.3591C90.9645 14.9912 91.4605 15.7351 91.8203 16.5909C92.1898 17.4369 92.3746 18.3413 92.3746 19.3041V28.2314H88.3923V19.3041C88.3923 18.8957 88.3145 18.5115 88.1589 18.1517C88.0033 17.7822 87.7894 17.4613 87.5171 17.189C87.2448 16.9167 86.9287 16.7027 86.5689 16.5471C86.2091 16.3915 85.825 16.3137 85.4165 16.3137C84.9984 16.3137 84.6045 16.3915 84.235 16.5471C83.8654 16.7027 83.5445 16.9167 83.2722 17.189C82.9999 17.4613 82.786 17.7822 82.6304 18.1517C82.4748 18.5115 82.397 18.8957 82.397 19.3041V28.2314ZM110.317 28.2314H109.354L107.808 26.0871C107.429 26.4275 107.025 26.7484 106.597 27.0499C106.179 27.3416 105.736 27.5993 105.27 27.823C104.803 28.0369 104.322 28.2071 103.826 28.3336C103.339 28.46 102.843 28.5232 102.338 28.5232C101.239 28.5232 100.203 28.319 99.2306 27.9105C98.2678 27.4924 97.4218 26.9186 96.6924 26.1892C95.9728 25.4502 95.4039 24.5798 94.9857 23.5781C94.5676 22.5668 94.3585 21.4679 94.3585 20.2814C94.3585 19.1047 94.5676 18.0107 94.9857 16.9993C95.4039 15.988 95.9728 15.1127 96.6924 14.3736C97.4218 13.6346 98.2678 13.0559 99.2306 12.6378C100.203 12.2196 101.239 12.0105 102.338 12.0105C102.688 12.0105 103.048 12.0397 103.417 12.098C103.796 12.1564 104.161 12.2536 104.511 12.3898C104.871 12.5162 105.206 12.6864 105.518 12.9003C105.829 13.1143 106.091 13.3768 106.305 13.688V6.39446H110.317V28.2314ZM106.305 20.2814C106.305 19.7369 106.198 19.2117 105.984 18.706C105.78 18.1906 105.498 17.7384 105.138 17.3494C104.779 16.9507 104.356 16.6346 103.869 16.4013C103.393 16.1581 102.882 16.0366 102.338 16.0366C101.793 16.0366 101.278 16.1338 100.791 16.3283C100.315 16.5228 99.8967 16.8048 99.5369 17.1744C99.1868 17.5342 98.9097 17.9767 98.7054 18.5018C98.5012 19.0269 98.3991 19.6202 98.3991 20.2814C98.3991 20.8552 98.5012 21.3998 98.7054 21.9152C98.9097 22.4306 99.1868 22.8828 99.5369 23.2718C99.8967 23.6608 100.315 23.9671 100.791 24.1908C101.278 24.4145 101.793 24.5263 102.338 24.5263C102.882 24.5263 103.393 24.4096 103.869 24.1762C104.356 23.9331 104.779 23.617 105.138 23.228C105.498 22.8293 105.78 22.3771 105.984 21.8714C106.198 21.356 106.305 20.826 106.305 20.2814ZM117.377 34.183H113.366V12.6086H114.328L115.918 14.4903C116.278 14.15 116.672 13.8291 117.1 13.5276C117.528 13.2261 117.97 12.9684 118.427 12.7545C118.894 12.5308 119.375 12.3557 119.871 12.2293C120.367 12.1029 120.868 12.0397 121.374 12.0397C122.473 12.0397 123.504 12.239 124.466 12.6378C125.439 13.0268 126.285 13.5811 127.005 14.3007C127.734 15.0203 128.308 15.8907 128.726 16.9118C129.144 17.9232 129.353 19.0464 129.353 20.2814C129.353 21.5651 129.144 22.7224 128.726 23.7532C128.308 24.7743 127.734 25.6447 127.005 26.3643C126.285 27.0742 125.439 27.6188 124.466 27.9981C123.504 28.3773 122.473 28.567 121.374 28.567C121.024 28.567 120.674 28.5281 120.324 28.4503C119.983 28.3725 119.643 28.2703 119.303 28.1439C118.972 28.0078 118.641 27.857 118.311 27.6917C117.99 27.5264 117.678 27.3562 117.377 27.1812V34.183ZM125.356 20.2814C125.356 19.6202 125.249 19.0269 125.035 18.5018C124.831 17.9767 124.549 17.5342 124.189 17.1744C123.829 16.8048 123.406 16.5228 122.92 16.3283C122.434 16.1338 121.918 16.0366 121.374 16.0366C120.829 16.0366 120.314 16.1338 119.828 16.3283C119.351 16.5228 118.933 16.8048 118.573 17.1744C118.213 17.5342 117.926 17.9767 117.713 18.5018C117.508 19.0269 117.406 19.6202 117.406 20.2814C117.406 20.9136 117.508 21.4922 117.713 22.0173C117.926 22.5425 118.213 22.9898 118.573 23.3593C118.933 23.7289 119.351 24.0158 119.828 24.22C120.314 24.4242 120.829 24.5263 121.374 24.5263C121.918 24.5263 122.434 24.4242 122.92 24.22C123.406 24.0158 123.829 23.7289 124.189 23.3593C124.549 22.9898 124.831 22.5425 125.035 22.0173C125.249 21.4922 125.356 20.9136 125.356 20.2814ZM146.697 28.2314H145.734L144.188 26.0871C143.809 26.4275 143.405 26.7484 142.977 27.0499C142.559 27.3416 142.117 27.5993 141.65 27.823C141.183 28.0369 140.702 28.2071 140.206 28.3336C139.72 28.46 139.224 28.5232 138.718 28.5232C137.619 28.5232 136.583 28.3384 135.611 27.9689C134.648 27.5993 133.802 27.0645 133.073 26.3643C132.353 25.6544 131.784 24.7889 131.366 23.7678C130.948 22.7467 130.739 21.5846 130.739 20.2814C130.739 19.0658 130.948 17.9524 131.366 16.941C131.784 15.9199 132.353 15.0446 133.073 14.3153C133.802 13.5859 134.648 13.0219 135.611 12.6232C136.583 12.2147 137.619 12.0105 138.718 12.0105C139.224 12.0105 139.725 12.0737 140.221 12.2002C140.716 12.3266 141.198 12.5016 141.665 12.7253C142.131 12.949 142.574 13.2115 142.992 13.513C143.42 13.8145 143.819 14.1402 144.188 14.4903L145.734 12.6378H146.697V28.2314ZM142.686 20.2814C142.686 19.7369 142.579 19.2117 142.365 18.706C142.161 18.1906 141.879 17.7384 141.519 17.3494C141.159 16.9507 140.736 16.6346 140.25 16.4013C139.773 16.1581 139.263 16.0366 138.718 16.0366C138.173 16.0366 137.658 16.129 137.172 16.3137C136.695 16.4985 136.277 16.7708 135.917 17.1306C135.567 17.4904 135.29 17.9378 135.086 18.4726C134.882 18.9978 134.78 19.6007 134.78 20.2814C134.78 20.9622 134.882 21.57 135.086 22.1048C135.29 22.63 135.567 23.0725 135.917 23.4323C136.277 23.7921 136.695 24.0644 137.172 24.2491C137.658 24.4339 138.173 24.5263 138.718 24.5263C139.263 24.5263 139.773 24.4096 140.25 24.1762C140.736 23.9331 141.159 23.617 141.519 23.228C141.879 22.8293 142.161 22.3771 142.365 21.8714C142.579 21.356 142.686 20.826 142.686 20.2814ZM160.861 20.2814C160.861 19.7369 160.754 19.2117 160.54 18.706C160.336 18.1906 160.054 17.7384 159.694 17.3494C159.335 16.9507 158.912 16.6346 158.425 16.4013C157.949 16.1581 157.438 16.0366 156.894 16.0366C156.349 16.0366 155.834 16.129 155.347 16.3137C154.871 16.4985 154.453 16.7708 154.093 17.1306C153.743 17.4904 153.466 17.9378 153.261 18.4726C153.057 18.9978 152.955 19.6007 152.955 20.2814C152.955 20.933 153.057 21.5213 153.261 22.0465C153.466 22.5619 153.743 23.0044 154.093 23.3739C154.453 23.7435 154.871 24.0303 155.347 24.2346C155.834 24.4291 156.349 24.5263 156.894 24.5263C157.438 24.5263 157.949 24.4096 158.425 24.1762C158.912 23.9331 159.335 23.617 159.694 23.228C160.054 22.8293 160.336 22.3771 160.54 21.8714C160.754 21.356 160.861 20.826 160.861 20.2814ZM164.873 26.2622C164.873 27.3611 164.664 28.3919 164.246 29.3547C163.827 30.3174 163.254 31.1586 162.524 31.8782C161.805 32.5979 160.959 33.1668 159.986 33.5849C159.023 34.0031 157.993 34.2122 156.894 34.2122L154.895 34.183V30.2007L156.864 30.2299C157.487 30.2299 158.017 30.1472 158.454 29.9819C158.892 29.8263 159.262 29.6075 159.563 29.3255C159.865 29.0532 160.103 28.7371 160.278 28.3773C160.463 28.0175 160.609 27.6382 160.715 27.2395C160.56 27.4924 160.336 27.7014 160.044 27.8668C159.753 28.0224 159.427 28.1488 159.067 28.246C158.717 28.353 158.348 28.4259 157.959 28.4648C157.579 28.5037 157.224 28.5232 156.894 28.5232C155.795 28.5232 154.759 28.3336 153.787 27.9543C152.824 27.575 151.978 27.0353 151.248 26.3351C150.529 25.6252 149.96 24.7597 149.542 23.7386C149.124 22.7175 148.914 21.5651 148.914 20.2814C148.914 19.1047 149.124 18.0107 149.542 16.9993C149.96 15.988 150.529 15.1127 151.248 14.3736C151.978 13.6346 152.824 13.0559 153.787 12.6378C154.759 12.2196 155.795 12.0105 156.894 12.0105C157.399 12.0105 157.9 12.0737 158.396 12.2002C158.892 12.3266 159.373 12.5016 159.84 12.7253C160.307 12.949 160.75 13.2115 161.168 13.513C161.596 13.8145 161.994 14.1402 162.364 14.4903L163.91 12.6378H164.873V26.2622ZM171.685 34.183V30.1715L173.902 30.2007C174.291 30.2007 174.666 30.1375 175.025 30.0111C175.385 29.8847 175.716 29.7096 176.017 29.4859C176.329 29.2623 176.601 28.9948 176.834 28.6836C177.068 28.3822 177.257 28.0515 177.403 27.6917C176.966 27.8765 176.518 28.0613 176.061 28.246C175.614 28.4308 175.162 28.5232 174.705 28.5232C173.742 28.5232 172.837 28.353 171.991 28.0126C171.145 27.6723 170.401 27.1909 169.76 26.5685C169.127 25.9364 168.627 25.173 168.257 24.2783C167.897 23.3739 167.717 22.3625 167.717 21.2442V12.6086H171.685V21.2442C171.685 21.7985 171.763 22.2847 171.918 22.7029C172.084 23.1114 172.303 23.4566 172.575 23.7386C172.847 24.0109 173.163 24.2151 173.523 24.3513C173.893 24.4874 174.286 24.5555 174.705 24.5555C175.113 24.5555 175.497 24.4631 175.857 24.2783C176.227 24.0838 176.547 23.831 176.82 23.5198C177.092 23.2086 177.306 22.8585 177.462 22.4695C177.617 22.0708 177.695 21.6624 177.695 21.2442V12.6086H181.706V26.2622C181.697 27.3611 181.483 28.3919 181.065 29.3547C180.646 30.3174 180.073 31.1586 179.343 31.8782C178.624 32.5979 177.782 33.1668 176.82 33.5849C175.857 34.0031 174.826 34.2122 173.727 34.2122L171.685 34.183Z" fill="#171717"/>
<path d="M17.2969 34.2314H8.29687C4.98317 34.2314 2.29688 31.5452 2.29688 28.2314V10.2314C2.29688 6.91774 4.98317 4.23145 8.29688 4.23145H26.2969C29.6106 4.23145 32.2969 6.91774 32.2969 10.2314V19.2314" stroke="#356EEF" stroke-width="3"/>
<line x1="3.29688" y1="14.7314" x2="31.2969" y2="14.7314" stroke="#356EEF" stroke-width="3"/>
<circle cx="7.79688" cy="9.73145" r="1.5" fill="#356EEF"/>
<circle cx="11.7969" cy="9.73145" r="1.5" fill="#356EEF"/>
<line x1="12.7969" y1="14.2314" x2="12.7969" y2="34.2314" stroke="#356EEF" stroke-width="3"/>
<line x1="22.7969" y1="9.73145" x2="27.7969" y2="9.73145" stroke="#356EEF" stroke-width="3" stroke-linecap="round"/>
<path fill-rule="evenodd" clip-rule="evenodd" d="M24.0614 25.3863L34.9838 31.9117C35.5232 32.2551 35.3209 33.0794 34.7141 33.1481L29.2529 34.041L26.556 38.9866C26.2864 39.4674 25.4773 39.3987 25.4099 38.7805L23.0501 26.0732C22.9827 25.5237 23.5895 25.1115 24.0614 25.3863Z" fill="#356EEF"/>
<path fill-rule="evenodd" clip-rule="evenodd" d="M19.9488 19.5481L21.9714 22.433C22.3086 22.9825 21.4995 23.6007 21.095 23.0512L19.1397 20.1663C18.7352 19.6168 19.6117 18.9986 19.9488 19.5481Z" fill="#356EEF"/>
<path fill-rule="evenodd" clip-rule="evenodd" d="M25.0063 18.8611L24.3995 22.2955C24.2647 22.9824 23.3208 22.7763 23.3882 22.1581L23.995 18.655C24.1299 17.9681 25.1412 18.1742 25.0063 18.8611Z" fill="#356EEF"/>
<path fill-rule="evenodd" clip-rule="evenodd" d="M29.0509 21.9523L26.2866 24.0129C25.6798 24.3564 25.1404 23.5321 25.6798 23.12L28.5115 21.128C29.0509 20.7159 29.6577 21.6088 29.0509 21.9523Z" fill="#356EEF"/>
<path fill-rule="evenodd" clip-rule="evenodd" d="M16.9149 23.7382L20.286 24.3564C20.9602 24.425 20.758 25.4554 20.1512 25.318L16.7126 24.7685C16.0384 24.6311 16.2407 23.6008 16.9149 23.7382Z" fill="#356EEF"/>
<path fill-rule="evenodd" clip-rule="evenodd" d="M17.5891 28.8894L20.4208 26.8288C20.9602 26.4854 21.567 27.3096 21.0276 27.7217L18.1959 29.7137C17.6565 30.1258 17.0497 29.2329 17.5891 28.8894Z" fill="#356EEF"/>
</svg>
