<svg width="185" height="40" viewBox="0 0 185 40" fill="none" xmlns="http://www.w3.org/2000/svg">
<path d="M58.152 28H43.5065V7.082H47.693V23.8135H58.152V28ZM74.6355 28H73.6728L72.1265 25.8557C71.7473 26.1961 71.3437 26.517 70.9158 26.8184C70.4976 27.1102 70.0551 27.3679 69.5884 27.5916C69.1216 27.8055 68.6402 27.9757 68.1442 28.1021C67.658 28.2285 67.162 28.2917 66.6563 28.2917C65.5574 28.2917 64.5217 28.107 63.5493 27.7374C62.5865 27.3679 61.7405 26.833 61.0111 26.1328C60.2915 25.4229 59.7226 24.5574 59.3044 23.5363C58.8862 22.5152 58.6772 21.3531 58.6772 20.05C58.6772 18.8344 58.8862 17.7209 59.3044 16.7095C59.7226 15.6884 60.2915 14.8132 61.0111 14.0838C61.7405 13.3545 62.5865 12.7904 63.5493 12.3917C64.5217 11.9833 65.5574 11.7791 66.6563 11.7791C67.162 11.7791 67.6628 11.8423 68.1588 11.9687C68.6548 12.0951 69.1362 12.2702 69.6029 12.4938C70.0697 12.7175 70.5122 12.9801 70.9304 13.2815C71.3583 13.583 71.757 13.9088 72.1265 14.2589L73.6728 12.4063H74.6355V28ZM70.624 20.05C70.624 19.5054 70.5171 18.9803 70.3031 18.4746C70.0989 17.9592 69.8169 17.507 69.4571 17.118C69.0973 16.7193 68.6742 16.4032 68.188 16.1698C67.7115 15.9267 67.2009 15.8051 66.6563 15.8051C66.1117 15.8051 65.5963 15.8975 65.1101 16.0823C64.6336 16.2671 64.2154 16.5394 63.8556 16.8992C63.5055 17.259 63.2283 17.7063 63.0241 18.2412C62.8199 18.7663 62.7178 19.3693 62.7178 20.05C62.7178 20.7307 62.8199 21.3385 63.0241 21.8734C63.2283 22.3985 63.5055 22.841 63.8556 23.2008C64.2154 23.5606 64.6336 23.8329 65.1101 24.0177C65.5963 24.2025 66.1117 24.2949 66.6563 24.2949C67.2009 24.2949 67.7115 24.1782 68.188 23.9448C68.6742 23.7016 69.0973 23.3856 69.4571 22.9966C69.8169 22.5979 70.0989 22.1457 70.3031 21.64C70.5171 21.1246 70.624 20.5946 70.624 20.05ZM81.6665 28H77.6842V12.3771H78.647L79.9598 13.8942C80.6017 13.3107 81.3262 12.8634 82.1333 12.5522C82.9502 12.2313 83.8011 12.0708 84.6861 12.0708C85.6391 12.0708 86.5386 12.2556 87.3847 12.6251C88.2307 12.9849 88.9698 13.4858 89.6019 14.1276C90.2341 14.7597 90.73 15.5037 91.0898 16.3594C91.4594 17.2055 91.6441 18.1099 91.6441 19.0727V28H87.6619V19.0727C87.6619 18.6642 87.5841 18.2801 87.4285 17.9203C87.2729 17.5507 87.0589 17.2298 86.7866 16.9575C86.5143 16.6852 86.1983 16.4713 85.8385 16.3157C85.4786 16.1601 85.0945 16.0823 84.6861 16.0823C84.2679 16.0823 83.874 16.1601 83.5045 16.3157C83.135 16.4713 82.814 16.6852 82.5418 16.9575C82.2695 17.2298 82.0555 17.5507 81.8999 17.9203C81.7443 18.2801 81.6665 18.6642 81.6665 19.0727V28ZM109.586 28H108.624L107.077 25.8557C106.698 26.1961 106.295 26.517 105.867 26.8184C105.448 27.1102 105.006 27.3679 104.539 27.5916C104.072 27.8055 103.591 27.9757 103.095 28.1021C102.609 28.2285 102.113 28.2917 101.607 28.2917C100.508 28.2917 99.4726 28.0875 98.5001 27.6791C97.5374 27.2609 96.6913 26.6872 95.9619 25.9578C95.2423 25.2187 94.6734 24.3483 94.2553 23.3467C93.8371 22.3353 93.628 21.2364 93.628 20.05C93.628 18.8733 93.8371 17.7793 94.2553 16.7679C94.6734 15.7565 95.2423 14.8813 95.9619 14.1422C96.6913 13.4031 97.5374 12.8245 98.5001 12.4063C99.4726 11.9882 100.508 11.7791 101.607 11.7791C101.957 11.7791 102.317 11.8082 102.687 11.8666C103.066 11.9249 103.431 12.0222 103.781 12.1583C104.14 12.2848 104.476 12.4549 104.787 12.6689C105.098 12.8828 105.361 13.1454 105.575 13.4566V6.16301H109.586V28ZM105.575 20.05C105.575 19.5054 105.468 18.9803 105.254 18.4746C105.05 17.9592 104.768 17.507 104.408 17.118C104.048 16.7193 103.625 16.4032 103.139 16.1698C102.662 15.9267 102.152 15.8051 101.607 15.8051C101.063 15.8051 100.547 15.9024 100.061 16.0969C99.5844 16.2914 99.1663 16.5734 98.8064 16.9429C98.4564 17.3027 98.1792 17.7452 97.975 18.2704C97.7708 18.7955 97.6686 19.3887 97.6686 20.05C97.6686 20.6238 97.7708 21.1683 97.975 21.6838C98.1792 22.1992 98.4564 22.6514 98.8064 23.0404C99.1663 23.4294 99.5844 23.7357 100.061 23.9594C100.547 24.183 101.063 24.2949 101.607 24.2949C102.152 24.2949 102.662 24.1782 103.139 23.9448C103.625 23.7016 104.048 23.3856 104.408 22.9966C104.768 22.5979 105.05 22.1457 105.254 21.64C105.468 21.1246 105.575 20.5946 105.575 20.05ZM116.647 33.9516H112.635V12.3771H113.598L115.188 14.2589C115.548 13.9185 115.942 13.5976 116.369 13.2961C116.797 12.9947 117.24 12.737 117.697 12.523C118.164 12.2993 118.645 12.1243 119.141 11.9979C119.637 11.8715 120.138 11.8082 120.643 11.8082C121.742 11.8082 122.773 12.0076 123.736 12.4063C124.708 12.7953 125.554 13.3496 126.274 14.0693C127.003 14.7889 127.577 15.6593 127.995 16.6804C128.414 17.6917 128.623 18.8149 128.623 20.05C128.623 21.3337 128.414 22.4909 127.995 23.5217C127.577 24.5428 127.003 25.4132 126.274 26.1328C125.554 26.8428 124.708 27.3873 123.736 27.7666C122.773 28.1459 121.742 28.3355 120.643 28.3355C120.293 28.3355 119.943 28.2966 119.593 28.2188C119.253 28.141 118.912 28.0389 118.572 27.9125C118.241 27.7763 117.911 27.6256 117.58 27.4603C117.259 27.295 116.948 27.1248 116.647 26.9497V33.9516ZM124.626 20.05C124.626 19.3887 124.519 18.7955 124.305 18.2704C124.101 17.7452 123.819 17.3027 123.459 16.9429C123.099 16.5734 122.676 16.2914 122.19 16.0969C121.703 15.9024 121.188 15.8051 120.643 15.8051C120.099 15.8051 119.583 15.9024 119.097 16.0969C118.621 16.2914 118.203 16.5734 117.843 16.9429C117.483 17.3027 117.196 17.7452 116.982 18.2704C116.778 18.7955 116.676 19.3887 116.676 20.05C116.676 20.6821 116.778 21.2607 116.982 21.7859C117.196 22.311 117.483 22.7583 117.843 23.1279C118.203 23.4974 118.621 23.7843 119.097 23.9885C119.583 24.1927 120.099 24.2949 120.643 24.2949C121.188 24.2949 121.703 24.1927 122.19 23.9885C122.676 23.7843 123.099 23.4974 123.459 23.1279C123.819 22.7583 124.101 22.311 124.305 21.7859C124.519 21.2607 124.626 20.6821 124.626 20.05ZM145.967 28H145.004L143.458 25.8557C143.078 26.1961 142.675 26.517 142.247 26.8184C141.829 27.1102 141.386 27.3679 140.92 27.5916C140.453 27.8055 139.971 27.9757 139.475 28.1021C138.989 28.2285 138.493 28.2917 137.988 28.2917C136.889 28.2917 135.853 28.107 134.881 27.7374C133.918 27.3679 133.072 26.833 132.342 26.1328C131.623 25.4229 131.054 24.5574 130.636 23.5363C130.217 22.5152 130.008 21.3531 130.008 20.05C130.008 18.8344 130.217 17.7209 130.636 16.7095C131.054 15.6884 131.623 14.8132 132.342 14.0838C133.072 13.3545 133.918 12.7904 134.881 12.3917C135.853 11.9833 136.889 11.7791 137.988 11.7791C138.493 11.7791 138.994 11.8423 139.49 11.9687C139.986 12.0951 140.467 12.2702 140.934 12.4938C141.401 12.7175 141.843 12.9801 142.262 13.2815C142.69 13.583 143.088 13.9088 143.458 14.2589L145.004 12.4063H145.967V28ZM141.955 20.05C141.955 19.5054 141.848 18.9803 141.634 18.4746C141.43 17.9592 141.148 17.507 140.788 17.118C140.428 16.7193 140.005 16.4032 139.519 16.1698C139.043 15.9267 138.532 15.8051 137.988 15.8051C137.443 15.8051 136.928 15.8975 136.441 16.0823C135.965 16.2671 135.547 16.5394 135.187 16.8992C134.837 17.259 134.56 17.7063 134.355 18.2412C134.151 18.7663 134.049 19.3693 134.049 20.05C134.049 20.7307 134.151 21.3385 134.355 21.8734C134.56 22.3985 134.837 22.841 135.187 23.2008C135.547 23.5606 135.965 23.8329 136.441 24.0177C136.928 24.2025 137.443 24.2949 137.988 24.2949C138.532 24.2949 139.043 24.1782 139.519 23.9448C140.005 23.7016 140.428 23.3856 140.788 22.9966C141.148 22.5979 141.43 22.1457 141.634 21.64C141.848 21.1246 141.955 20.5946 141.955 20.05ZM160.131 20.05C160.131 19.5054 160.024 18.9803 159.81 18.4746C159.606 17.9592 159.324 17.507 158.964 17.118C158.604 16.7193 158.181 16.4032 157.695 16.1698C157.218 15.9267 156.708 15.8051 156.163 15.8051C155.619 15.8051 155.103 15.8975 154.617 16.0823C154.14 16.2671 153.722 16.5394 153.362 16.8992C153.012 17.259 152.735 17.7063 152.531 18.2412C152.327 18.7663 152.225 19.3693 152.225 20.05C152.225 20.7016 152.327 21.2899 152.531 21.815C152.735 22.3305 153.012 22.7729 153.362 23.1425C153.722 23.512 154.14 23.7989 154.617 24.0031C155.103 24.1976 155.619 24.2949 156.163 24.2949C156.708 24.2949 157.218 24.1782 157.695 23.9448C158.181 23.7016 158.604 23.3856 158.964 22.9966C159.324 22.5979 159.606 22.1457 159.81 21.64C160.024 21.1246 160.131 20.5946 160.131 20.05ZM164.142 26.0307C164.142 27.1296 163.933 28.1605 163.515 29.1232C163.097 30.086 162.523 30.9272 161.794 31.6468C161.074 32.3664 160.228 32.9353 159.256 33.3535C158.293 33.7717 157.262 33.9807 156.163 33.9807L154.165 33.9516V29.9693L156.134 29.9984C156.756 29.9984 157.286 29.9158 157.724 29.7505C158.162 29.5949 158.531 29.3761 158.833 29.094C159.134 28.8217 159.372 28.5057 159.547 28.1459C159.732 27.7861 159.878 27.4068 159.985 27.0081C159.829 27.2609 159.606 27.47 159.314 27.6353C159.022 27.7909 158.696 27.9173 158.337 28.0146C157.987 28.1216 157.617 28.1945 157.228 28.2334C156.849 28.2723 156.494 28.2917 156.163 28.2917C155.064 28.2917 154.029 28.1021 153.056 27.7228C152.093 27.3436 151.247 26.8039 150.518 26.1037C149.798 25.3938 149.229 24.5283 148.811 23.5072C148.393 22.4861 148.184 21.3337 148.184 20.05C148.184 18.8733 148.393 17.7793 148.811 16.7679C149.229 15.7565 149.798 14.8813 150.518 14.1422C151.247 13.4031 152.093 12.8245 153.056 12.4063C154.029 11.9882 155.064 11.7791 156.163 11.7791C156.669 11.7791 157.17 11.8423 157.666 11.9687C158.162 12.0951 158.643 12.2702 159.11 12.4938C159.577 12.7175 160.019 12.9801 160.437 13.2815C160.865 13.583 161.264 13.9088 161.633 14.2589L163.18 12.4063H164.142V26.0307ZM170.955 33.9516V29.9401L173.172 29.9693C173.561 29.9693 173.935 29.9061 174.295 29.7796C174.655 29.6532 174.985 29.4782 175.287 29.2545C175.598 29.0308 175.87 28.7634 176.104 28.4522C176.337 28.1507 176.527 27.8201 176.673 27.4603C176.235 27.645 175.788 27.8298 175.331 28.0146C174.883 28.1994 174.431 28.2917 173.974 28.2917C173.011 28.2917 172.107 28.1216 171.261 27.7812C170.415 27.4408 169.671 26.9594 169.029 26.3371C168.397 25.705 167.896 24.9416 167.527 24.0469C167.167 23.1425 166.987 22.1311 166.987 21.0127V12.3771H170.955V21.0127C170.955 21.5671 171.032 22.0533 171.188 22.4715C171.353 22.8799 171.572 23.2251 171.844 23.5072C172.117 23.7794 172.433 23.9837 172.793 24.1198C173.162 24.256 173.556 24.324 173.974 24.324C174.383 24.324 174.767 24.2316 175.126 24.0469C175.496 23.8524 175.817 23.5995 176.089 23.2883C176.362 22.9772 176.575 22.6271 176.731 22.2381C176.887 21.8394 176.964 21.4309 176.964 21.0127V12.3771H180.976V26.0307C180.966 27.1296 180.752 28.1605 180.334 29.1232C179.916 30.086 179.342 30.9272 178.613 31.6468C177.893 32.3664 177.052 32.9353 176.089 33.3535C175.126 33.7717 174.096 33.9807 172.997 33.9807L170.955 33.9516Z" fill="#171717"/>
<path d="M16.5664 34H7.56641C4.2527 34 1.56641 31.3137 1.56641 28V10C1.56641 6.68629 4.2527 4 7.56641 4H25.5664C28.8801 4 31.5664 6.68629 31.5664 10V19" stroke="#473D8D" stroke-width="3"/>
<line x1="2.56641" y1="14.5" x2="30.5664" y2="14.5" stroke="#473D8D" stroke-width="3"/>
<circle cx="7.06641" cy="9.5" r="1.5" fill="#473D8D"/>
<circle cx="11.0664" cy="9.5" r="1.5" fill="#473D8D"/>
<line x1="12.0664" y1="14" x2="12.0664" y2="34" stroke="#473D8D" stroke-width="3"/>
<line x1="22.0664" y1="9.5" x2="27.0664" y2="9.5" stroke="#473D8D" stroke-width="3" stroke-linecap="round"/>
<path fill-rule="evenodd" clip-rule="evenodd" d="M23.3314 25.155L34.2538 31.6804C34.7932 32.0238 34.591 32.8481 33.9842 32.9167L28.523 33.8097L25.8261 38.7553C25.5564 39.2361 24.7473 39.1674 24.6799 38.5492L22.3201 25.8418C22.2527 25.2923 22.8595 24.8802 23.3314 25.155Z" fill="#473D8D"/>
<path fill-rule="evenodd" clip-rule="evenodd" d="M19.2183 19.3165L21.241 22.2014C21.5781 22.7509 20.769 23.3691 20.3645 22.8196L18.4092 19.9347C18.0047 19.3852 18.8812 18.767 19.2183 19.3165Z" fill="#473D8D"/>
<path fill-rule="evenodd" clip-rule="evenodd" d="M24.2754 18.6296L23.6686 22.064C23.5337 22.7509 22.5898 22.5449 22.6573 21.9267L23.2641 18.4236C23.3989 17.7367 24.4102 17.9427 24.2754 18.6296Z" fill="#473D8D"/>
<path fill-rule="evenodd" clip-rule="evenodd" d="M28.3204 21.7205L25.5561 23.7811C24.9493 24.1245 24.4099 23.3003 24.9493 22.8882L27.781 20.8962C28.3204 20.4841 28.9272 21.377 28.3204 21.7205Z" fill="#473D8D"/>
<path fill-rule="evenodd" clip-rule="evenodd" d="M16.1844 23.5067L19.5555 24.1249C20.2298 24.1935 20.0275 25.2239 19.4207 25.0865L15.9822 24.537C15.3079 24.3996 15.5102 23.3693 16.1844 23.5067Z" fill="#473D8D"/>
<path fill-rule="evenodd" clip-rule="evenodd" d="M16.8591 28.6576L19.6908 26.597C20.2302 26.2535 20.837 27.0778 20.2976 27.4899L17.4659 29.4819C16.9265 29.894 16.3197 29.0011 16.8591 28.6576Z" fill="#473D8D"/>
</svg>
