<svg width="185" height="40" viewBox="0 0 185 40" fill="none" xmlns="http://www.w3.org/2000/svg">
<path d="M58.6354 28.5626H43.9899V7.64463H48.1764V24.3761H58.6354V28.5626ZM75.1189 28.5626H74.1562L72.6099 26.4183C72.2307 26.7587 71.8271 27.0796 71.3992 27.3811C70.981 27.6728 70.5385 27.9305 70.0718 28.1542C69.605 28.3681 69.1236 28.5383 68.6276 28.6647C68.1414 28.7912 67.6454 28.8544 67.1397 28.8544C66.0408 28.8544 65.0051 28.6696 64.0327 28.3001C63.0699 27.9305 62.2239 27.3956 61.4945 26.6955C60.7749 25.9856 60.206 25.1201 59.7878 24.0989C59.3696 23.0778 59.1606 21.9157 59.1606 20.6126C59.1606 19.397 59.3696 18.2835 59.7878 17.2722C60.206 16.2511 60.7749 15.3758 61.4945 14.6465C62.2239 13.9171 63.0699 13.3531 64.0327 12.9544C65.0051 12.5459 66.0408 12.3417 67.1397 12.3417C67.6454 12.3417 68.1462 12.4049 68.6422 12.5313C69.1382 12.6577 69.6195 12.8328 70.0863 13.0565C70.5531 13.2801 70.9956 13.5427 71.4138 13.8442C71.8417 14.1456 72.2404 14.4714 72.6099 14.8215L74.1562 12.9689H75.1189V28.5626ZM71.1074 20.6126C71.1074 20.068 71.0005 19.5429 70.7865 19.0372C70.5823 18.5218 70.3003 18.0696 69.9405 17.6806C69.5807 17.2819 69.1576 16.9658 68.6714 16.7324C68.1949 16.4893 67.6843 16.3678 67.1397 16.3678C66.5951 16.3678 66.0797 16.4601 65.5935 16.6449C65.117 16.8297 64.6988 17.102 64.339 17.4618C63.9889 17.8216 63.7117 18.2689 63.5075 18.8038C63.3033 19.3289 63.2012 19.9319 63.2012 20.6126C63.2012 21.2934 63.3033 21.9011 63.5075 22.436C63.7117 22.9612 63.9889 23.4036 64.339 23.7634C64.6988 24.1233 65.117 24.3956 65.5935 24.5803C66.0797 24.7651 66.5951 24.8575 67.1397 24.8575C67.6843 24.8575 68.1949 24.7408 68.6714 24.5074C69.1576 24.2643 69.5807 23.9482 69.9405 23.5592C70.3003 23.1605 70.5823 22.7083 70.7865 22.2026C71.0005 21.6872 71.1074 21.1572 71.1074 20.6126ZM82.1499 28.5626H78.1676V12.9398H79.1304L80.4432 14.4568C81.0851 13.8733 81.8096 13.426 82.6167 13.1148C83.4336 12.7939 84.2845 12.6334 85.1695 12.6334C86.1225 12.6334 87.022 12.8182 87.8681 13.1877C88.7141 13.5476 89.4532 14.0484 90.0853 14.6902C90.7175 15.3223 91.2134 16.0663 91.5732 16.9221C91.9428 17.7681 92.1275 18.6725 92.1275 19.6353V28.5626H88.1452V19.6353C88.1452 19.2268 88.0675 18.8427 87.9119 18.4829C87.7563 18.1133 87.5423 17.7924 87.27 17.5201C86.9977 17.2478 86.6817 17.0339 86.3219 16.8783C85.962 16.7227 85.5779 16.6449 85.1695 16.6449C84.7513 16.6449 84.3574 16.7227 83.9879 16.8783C83.6184 17.0339 83.2974 17.2478 83.0252 17.5201C82.7529 17.7924 82.5389 18.1133 82.3833 18.4829C82.2277 18.8427 82.1499 19.2268 82.1499 19.6353V28.5626ZM110.07 28.5626H109.107L107.561 26.4183C107.182 26.7587 106.778 27.0796 106.35 27.3811C105.932 27.6728 105.489 27.9305 105.023 28.1542C104.556 28.3681 104.074 28.5383 103.578 28.6647C103.092 28.7912 102.596 28.8544 102.091 28.8544C100.992 28.8544 99.956 28.6501 98.9835 28.2417C98.0208 27.8235 97.1747 27.2498 96.4453 26.5204C95.7257 25.7813 95.1568 24.911 94.7386 23.9093C94.3205 22.8979 94.1114 21.799 94.1114 20.6126C94.1114 19.4359 94.3205 18.3419 94.7386 17.3305C95.1568 16.3191 95.7257 15.4439 96.4453 14.7048C97.1747 13.9657 98.0208 13.3871 98.9835 12.9689C99.956 12.5508 100.992 12.3417 102.091 12.3417C102.441 12.3417 102.8 12.3709 103.17 12.4292C103.549 12.4876 103.914 12.5848 104.264 12.721C104.624 12.8474 104.959 13.0176 105.271 13.2315C105.582 13.4455 105.844 13.708 106.058 14.0192V6.72563H110.07V28.5626ZM106.058 20.6126C106.058 20.068 105.951 19.5429 105.737 19.0372C105.533 18.5218 105.251 18.0696 104.891 17.6806C104.532 17.2819 104.108 16.9658 103.622 16.7324C103.146 16.4893 102.635 16.3678 102.091 16.3678C101.546 16.3678 101.031 16.465 100.544 16.6595C100.068 16.854 99.6497 17.136 99.2898 17.5056C98.9398 17.8654 98.6626 18.3078 98.4584 18.833C98.2542 19.3581 98.152 19.9513 98.152 20.6126C98.152 21.1864 98.2542 21.731 98.4584 22.2464C98.6626 22.7618 98.9398 23.214 99.2898 23.603C99.6497 23.992 100.068 24.2983 100.544 24.522C101.031 24.7456 101.546 24.8575 102.091 24.8575C102.635 24.8575 103.146 24.7408 103.622 24.5074C104.108 24.2643 104.532 23.9482 104.891 23.5592C105.251 23.1605 105.533 22.7083 105.737 22.2026C105.951 21.6872 106.058 21.1572 106.058 20.6126ZM117.13 34.5142H113.118V12.9398H114.081L115.671 14.8215C116.031 14.4811 116.425 14.1602 116.853 13.8588C117.281 13.5573 117.723 13.2996 118.18 13.0856C118.647 12.862 119.128 12.6869 119.624 12.5605C120.12 12.4341 120.621 12.3709 121.127 12.3709C122.226 12.3709 123.257 12.5702 124.219 12.9689C125.192 13.3579 126.038 13.9122 126.757 14.6319C127.487 15.3515 128.061 16.2219 128.479 17.243C128.897 18.2544 129.106 19.3776 129.106 20.6126C129.106 21.8963 128.897 23.0535 128.479 24.0844C128.061 25.1055 127.487 25.9758 126.757 26.6955C126.038 27.4054 125.192 27.95 124.219 28.3292C123.257 28.7085 122.226 28.8981 121.127 28.8981C120.777 28.8981 120.427 28.8592 120.077 28.7814C119.736 28.7036 119.396 28.6015 119.055 28.4751C118.725 28.339 118.394 28.1882 118.064 28.0229C117.743 27.8576 117.431 27.6874 117.13 27.5123V34.5142ZM125.109 20.6126C125.109 19.9513 125.002 19.3581 124.788 18.833C124.584 18.3078 124.302 17.8654 123.942 17.5056C123.582 17.136 123.159 16.854 122.673 16.6595C122.187 16.465 121.671 16.3678 121.127 16.3678C120.582 16.3678 120.067 16.465 119.581 16.6595C119.104 16.854 118.686 17.136 118.326 17.5056C117.966 17.8654 117.679 18.3078 117.465 18.833C117.261 19.3581 117.159 19.9513 117.159 20.6126C117.159 21.2447 117.261 21.8234 117.465 22.3485C117.679 22.8736 117.966 23.321 118.326 23.6905C118.686 24.0601 119.104 24.3469 119.581 24.5512C120.067 24.7554 120.582 24.8575 121.127 24.8575C121.671 24.8575 122.187 24.7554 122.673 24.5512C123.159 24.3469 123.582 24.0601 123.942 23.6905C124.302 23.321 124.584 22.8736 124.788 22.3485C125.002 21.8234 125.109 21.2447 125.109 20.6126ZM146.45 28.5626H145.487L143.941 26.4183C143.562 26.7587 143.158 27.0796 142.73 27.3811C142.312 27.6728 141.87 27.9305 141.403 28.1542C140.936 28.3681 140.455 28.5383 139.959 28.6647C139.473 28.7912 138.977 28.8544 138.471 28.8544C137.372 28.8544 136.336 28.6696 135.364 28.3001C134.401 27.9305 133.555 27.3956 132.826 26.6955C132.106 25.9856 131.537 25.1201 131.119 24.0989C130.701 23.0778 130.492 21.9157 130.492 20.6126C130.492 19.397 130.701 18.2835 131.119 17.2722C131.537 16.2511 132.106 15.3758 132.826 14.6465C133.555 13.9171 134.401 13.3531 135.364 12.9544C136.336 12.5459 137.372 12.3417 138.471 12.3417C138.977 12.3417 139.477 12.4049 139.973 12.5313C140.469 12.6577 140.951 12.8328 141.418 13.0565C141.884 13.2801 142.327 13.5427 142.745 13.8442C143.173 14.1456 143.572 14.4714 143.941 14.8215L145.487 12.9689H146.45V28.5626ZM142.439 20.6126C142.439 20.068 142.332 19.5429 142.118 19.0372C141.914 18.5218 141.632 18.0696 141.272 17.6806C140.912 17.2819 140.489 16.9658 140.003 16.7324C139.526 16.4893 139.016 16.3678 138.471 16.3678C137.926 16.3678 137.411 16.4601 136.925 16.6449C136.448 16.8297 136.03 17.102 135.67 17.4618C135.32 17.8216 135.043 18.2689 134.839 18.8038C134.635 19.3289 134.532 19.9319 134.532 20.6126C134.532 21.2934 134.635 21.9011 134.839 22.436C135.043 22.9612 135.32 23.4036 135.67 23.7634C136.03 24.1233 136.448 24.3956 136.925 24.5803C137.411 24.7651 137.926 24.8575 138.471 24.8575C139.016 24.8575 139.526 24.7408 140.003 24.5074C140.489 24.2643 140.912 23.9482 141.272 23.5592C141.632 23.1605 141.914 22.7083 142.118 22.2026C142.332 21.6872 142.439 21.1572 142.439 20.6126ZM160.614 20.6126C160.614 20.068 160.507 19.5429 160.293 19.0372C160.089 18.5218 159.807 18.0696 159.447 17.6806C159.087 17.2819 158.664 16.9658 158.178 16.7324C157.702 16.4893 157.191 16.3678 156.647 16.3678C156.102 16.3678 155.587 16.4601 155.1 16.6449C154.624 16.8297 154.206 17.102 153.846 17.4618C153.496 17.8216 153.219 18.2689 153.014 18.8038C152.81 19.3289 152.708 19.9319 152.708 20.6126C152.708 21.2642 152.81 21.8525 153.014 22.3777C153.219 22.8931 153.496 23.3356 153.846 23.7051C154.206 24.0746 154.624 24.3615 155.1 24.5657C155.587 24.7602 156.102 24.8575 156.647 24.8575C157.191 24.8575 157.702 24.7408 158.178 24.5074C158.664 24.2643 159.087 23.9482 159.447 23.5592C159.807 23.1605 160.089 22.7083 160.293 22.2026C160.507 21.6872 160.614 21.1572 160.614 20.6126ZM164.626 26.5934C164.626 27.6923 164.417 28.7231 163.999 29.6858C163.58 30.6486 163.007 31.4898 162.277 32.2094C161.558 32.929 160.712 33.4979 159.739 33.9161C158.776 34.3343 157.745 34.5434 156.647 34.5434L154.648 34.5142V30.5319L156.617 30.5611C157.24 30.5611 157.77 30.4784 158.207 30.3131C158.645 30.1575 159.015 29.9387 159.316 29.6567C159.617 29.3844 159.856 29.0683 160.031 28.7085C160.216 28.3487 160.361 27.9694 160.468 27.5707C160.313 27.8235 160.089 28.0326 159.797 28.1979C159.506 28.3535 159.18 28.48 158.82 28.5772C158.47 28.6842 158.1 28.7571 157.711 28.796C157.332 28.8349 156.977 28.8544 156.647 28.8544C155.548 28.8544 154.512 28.6647 153.54 28.2855C152.577 27.9062 151.731 27.3665 151.001 26.6663C150.282 25.9564 149.713 25.0909 149.295 24.0698C148.876 23.0487 148.667 21.8963 148.667 20.6126C148.667 19.4359 148.876 18.3419 149.295 17.3305C149.713 16.3191 150.282 15.4439 151.001 14.7048C151.731 13.9657 152.577 13.3871 153.54 12.9689C154.512 12.5508 155.548 12.3417 156.647 12.3417C157.152 12.3417 157.653 12.4049 158.149 12.5313C158.645 12.6577 159.126 12.8328 159.593 13.0565C160.06 13.2801 160.502 13.5427 160.921 13.8442C161.349 14.1456 161.747 14.4714 162.117 14.8215L163.663 12.9689H164.626V26.5934ZM171.438 34.5142V30.5027L173.655 30.5319C174.044 30.5319 174.419 30.4687 174.778 30.3423C175.138 30.2158 175.469 30.0408 175.77 29.8171C176.082 29.5934 176.354 29.326 176.587 29.0148C176.821 28.7134 177.01 28.3827 177.156 28.0229C176.719 28.2077 176.271 28.3924 175.814 28.5772C175.367 28.762 174.915 28.8544 174.458 28.8544C173.495 28.8544 172.59 28.6842 171.744 28.3438C170.898 28.0034 170.154 27.5221 169.512 26.8997C168.88 26.2676 168.38 25.5042 168.01 24.6095C167.65 23.7051 167.47 22.6937 167.47 21.5754V12.9398H171.438V21.5754C171.438 22.1297 171.516 22.6159 171.671 23.0341C171.837 23.4425 172.055 23.7878 172.328 24.0698C172.6 24.3421 172.916 24.5463 173.276 24.6824C173.645 24.8186 174.039 24.8867 174.458 24.8867C174.866 24.8867 175.25 24.7943 175.61 24.6095C175.979 24.415 176.3 24.1622 176.573 23.851C176.845 23.5398 177.059 23.1897 177.214 22.8007C177.37 22.402 177.448 21.9935 177.448 21.5754V12.9398H181.459V26.5934C181.45 27.6923 181.236 28.7231 180.818 29.6858C180.399 30.6486 179.826 31.4898 179.096 32.2094C178.377 32.929 177.535 33.4979 176.573 33.9161C175.61 34.3343 174.579 34.5434 173.48 34.5434L171.438 34.5142Z" fill="#030303"/>
<path d="M17.0498 34.5626H8.0498C4.7361 34.5626 2.0498 31.8763 2.0498 28.5626V10.5626C2.0498 7.24891 4.7361 4.56262 8.0498 4.56262H26.0498C29.3635 4.56262 32.0498 7.24891 32.0498 10.5626V19.5626" stroke="#FFC600" stroke-width="3"/>
<line x1="3.0498" y1="15.0626" x2="31.0498" y2="15.0626" stroke="#FFC600" stroke-width="3"/>
<circle cx="7.5498" cy="10.0626" r="1.5" fill="#FFC600"/>
<circle cx="11.5498" cy="10.0626" r="1.5" fill="#FFC600"/>
<line x1="12.5498" y1="14.5626" x2="12.5498" y2="34.5626" stroke="#FFC600" stroke-width="3"/>
<line x1="22.5498" y1="10.0626" x2="27.5498" y2="10.0626" stroke="#FFC600" stroke-width="3" stroke-linecap="round"/>
<path fill-rule="evenodd" clip-rule="evenodd" d="M23.8153 25.7176L34.7377 32.243C35.2771 32.5864 35.0748 33.4107 34.468 33.4794L29.0068 34.3723L26.3099 39.3179C26.0403 39.7987 25.2312 39.73 25.1638 39.1118L22.804 26.4045C22.7366 25.855 23.3434 25.4428 23.8153 25.7176Z" fill="#FFC600"/>
<path fill-rule="evenodd" clip-rule="evenodd" d="M19.7017 19.8791L21.7244 22.764C22.0615 23.3135 21.2524 23.9317 20.8479 23.3822L18.8926 20.4973C18.4881 19.9478 19.3646 19.3296 19.7017 19.8791Z" fill="#FFC600"/>
<path fill-rule="evenodd" clip-rule="evenodd" d="M24.7583 19.1922L24.1515 22.6267C24.0167 23.3135 23.0727 23.1075 23.1402 22.4893L23.747 18.9862C23.8818 18.2993 24.8931 18.5054 24.7583 19.1922Z" fill="#FFC600"/>
<path fill-rule="evenodd" clip-rule="evenodd" d="M28.8038 22.2831L26.0395 24.3437C25.4327 24.6872 24.8933 23.8629 25.4327 23.4508L28.2644 21.4588C28.8038 21.0467 29.4106 21.9396 28.8038 22.2831Z" fill="#FFC600"/>
<path fill-rule="evenodd" clip-rule="evenodd" d="M16.6678 24.0693L20.0389 24.6875C20.7132 24.7562 20.5109 25.7865 19.9041 25.6491L16.4656 25.0996C15.7913 24.9622 15.9936 23.9319 16.6678 24.0693Z" fill="#FFC600"/>
<path fill-rule="evenodd" clip-rule="evenodd" d="M17.343 29.2203L20.1747 27.1596C20.7141 26.8162 21.3209 27.6404 20.7815 28.0526L17.9498 30.0445C17.4104 30.4567 16.8036 29.5637 17.343 29.2203Z" fill="#FFC600"/>
</svg>
