<svg width="30" height="33" viewBox="0 0 30 33" fill="none" xmlns="http://www.w3.org/2000/svg">
<g clip-path="url(#clip0_403_2)">
<path d="M14.0908 27.3482H3.33333C1.95262 27.3482 0.833328 26.2289 0.833328 24.8482V3.33331C0.833328 1.9526 1.95262 0.833313 3.33333 0.833313H24.8482C26.229 0.833313 27.3482 1.9526 27.3482 3.33331V14.0908" stroke="#EC595A" stroke-width="3"/>
<path d="M1.71712 10.8143H26.4644" stroke="#EC595A" stroke-width="3"/>
<path d="M5.69446 7.02014C6.42665 7.02014 7.0202 6.42659 7.0202 5.6944C7.0202 4.96221 6.42665 4.36865 5.69446 4.36865C4.96227 4.36865 4.36871 4.96221 4.36871 5.6944C4.36871 6.42659 4.96227 7.02014 5.69446 7.02014Z" fill="#EC595A"/>
<path d="M9.22971 7.02014C9.9619 7.02014 10.5555 6.42659 10.5555 5.6944C10.5555 4.96221 9.9619 4.36865 9.22971 4.36865C8.49752 4.36865 7.90396 4.96221 7.90396 5.6944C7.90396 6.42659 8.49752 7.02014 9.22971 7.02014Z" fill="#EC595A"/>
<path d="M9.41284 9.67163V27.3483" stroke="#EC595A" stroke-width="3"/>
<path d="M18.2511 6.39514H24.0718" stroke="#EC595A" stroke-width="3" stroke-linecap="round"/>
<path fill-rule="evenodd" clip-rule="evenodd" d="M20.07 19.5308L29.7235 25.2981C30.2003 25.6016 30.0215 26.3301 29.4852 26.3908L24.6584 27.1801L22.2748 31.5511C22.0364 31.9761 21.3213 31.9154 21.2618 31.369L19.1761 20.1378C19.1165 19.6522 19.6528 19.2879 20.07 19.5308Z" fill="#EC595A"/>
<path fill-rule="evenodd" clip-rule="evenodd" d="M16.4346 14.3705L18.2223 16.9203C18.5203 17.406 17.8052 17.9523 17.4477 17.4667L15.7195 14.9169C15.362 14.4313 16.1367 13.8848 16.4346 14.3705Z" fill="#EC595A"/>
<path fill-rule="evenodd" clip-rule="evenodd" d="M20.9042 13.7635L20.3679 16.7989C20.2487 17.406 19.4145 17.2239 19.4741 16.6775L20.0104 13.5813C20.1295 12.9742 21.0234 13.1563 20.9042 13.7635Z" fill="#EC595A"/>
<path fill-rule="evenodd" clip-rule="evenodd" d="M24.4793 16.4952L22.0361 18.3165C21.4998 18.6201 21.0231 17.8916 21.4998 17.5273L24.0026 15.7667C24.4793 15.4025 25.0156 16.1917 24.4793 16.4952Z" fill="#EC595A"/>
<path fill-rule="evenodd" clip-rule="evenodd" d="M13.7532 18.0739L16.7327 18.6203C17.3286 18.681 17.1498 19.5916 16.6135 19.4702L13.5745 18.9845C12.9785 18.8631 13.1573 17.9525 13.7532 18.0739Z" fill="#EC595A"/>
<path fill-rule="evenodd" clip-rule="evenodd" d="M14.3495 22.6265L16.8522 20.8052C17.329 20.5017 17.8653 21.2302 17.3886 21.5944L14.8858 23.355C14.4091 23.7193 13.8727 22.9301 14.3495 22.6265Z" fill="#EC595A"/>
</g>
<defs>
<clipPath id="clip0_403_2">
<rect width="30" height="32.0833" fill="white"/>
</clipPath>
</defs>
</svg>
