<svg width="150" height="231" viewBox="0 0 150 231" fill="none" xmlns="http://www.w3.org/2000/svg">
<path d="M10.002 163.545C24.3193 156.797 78.2146 174.488 78.2146 174.488L74.8404 181.966C74.7493 181.966 -8.51026 172.3 10.002 163.545Z" fill="#171717" stroke="#171717" stroke-linecap="round" stroke-linejoin="round"/>
<path d="M74.6581 182.604C69.916 180.963 65.2652 179.139 60.7967 176.95C46.3882 169.837 18.1182 157.526 7.81335 163.819C-6.23042 172.482 3.1625 196.283 34.989 212.06C66.9067 227.836 90.5257 228.11 98.0948 220.723C104.934 213.975 92.2584 188.714 74.6581 182.604Z" fill="#171717" stroke="#171717" stroke-linecap="round" stroke-linejoin="round"/>
<path d="M81.68 25.5696C81.68 25.5696 80.2209 30.95 80.768 32.865C81.4064 34.7801 83.6862 36.9687 83.2302 39.2486C82.7743 41.5284 80.2209 44.173 80.4945 45.9969C80.768 47.8207 83.6862 48.6415 83.6862 48.6415C83.6862 48.6415 87.8811 56.7577 89.0666 59.5847C90.2521 62.4117 91.2552 61.5909 93.991 61.4085C96.818 61.2262 103.475 57.4872 107.396 54.2955C111.409 51.1949 108.4 38.6102 103.019 29.3997C97.6388 20.2803 87.2427 18.2741 84.5069 20.098C81.8623 21.7394 81.68 25.5696 81.68 25.5696Z" fill="white"/>
<path d="M97.73 23.381C95.9973 27.4847 93.6263 34.5978 95.1765 40.0694C97.6388 48.3679 99.8274 52.8364 96.4533 58.5816C95.8149 59.5847 95.2677 60.4966 94.6294 61.2262C97.73 60.5878 103.749 57.1225 107.396 54.2955C111.409 51.1949 108.4 38.6103 103.019 29.3997C101.742 27.0287 99.9186 24.9313 97.73 23.381Z" fill="#FFC7B6"/>
<path opacity="0.5" d="M97.73 23.381C95.9973 27.4847 93.6263 34.5978 95.1765 40.0694C97.6388 48.3679 99.8274 52.8364 96.4533 58.5816C95.8149 59.5847 95.2677 60.4966 94.6294 61.2262C97.73 60.5878 103.749 57.1225 107.396 54.2955C111.409 51.1949 108.4 38.6103 103.019 29.3997C101.742 27.0287 99.9186 24.9313 97.73 23.381Z" fill="white"/>
<path d="M84.1422 34.5065C84.1422 34.5065 84.6894 31.6795 87.6988 34.2329" stroke="#171717" stroke-linecap="round" stroke-linejoin="round"/>
<path d="M86.6045 39.3398C86.8781 40.3429 86.7869 41.1636 86.3309 41.346C85.8749 41.5284 85.2366 40.7988 84.963 39.8869C84.6894 38.8838 84.7806 38.0631 85.2366 37.8807C85.6925 37.6983 86.3309 38.4278 86.6045 39.3398Z" fill="#171717"/>
<path d="M81.68 25.5696C81.68 25.5696 80.2209 30.95 80.768 32.865C81.4064 34.7801 83.6862 36.9687 83.2302 39.2486C82.7743 41.5284 80.2209 44.173 80.4945 45.9969C80.768 47.8207 83.6862 48.6415 83.6862 48.6415C83.6862 48.6415 87.8811 56.7577 89.0666 59.5847C90.2521 62.4117 91.2552 61.5909 93.991 61.4085C96.818 61.2262 103.475 57.4872 107.396 54.2955C111.409 51.1949 108.4 38.6102 103.019 29.3997C97.6388 20.2803 87.2427 18.2741 84.5069 20.098C81.8623 21.7394 81.68 25.5696 81.68 25.5696Z" stroke="#171717" stroke-linecap="round" stroke-linejoin="round"/>
<path d="M83.5951 148.042C83.5951 148.042 78.0323 142.844 76.2996 142.662C74.5669 142.479 72.1047 143.391 71.4663 143.3C70.828 143.209 69.3689 142.662 68.2746 143.209C67.4538 143.665 66.6331 144.303 65.9947 144.942C64.8092 145.306 63.7149 145.854 62.6206 146.401C60.7967 147.313 56.3283 151.872 55.5987 152.967C54.8692 153.97 55.4163 154.699 56.6018 154.152C57.6961 153.605 63.8061 149.592 63.8061 149.592C63.8061 149.592 68.9129 152.602 70.0984 154.061C71.5575 155.885 73.4726 157.253 75.57 157.891C77.6675 158.438 79.7649 158.894 81.9536 159.077C81.9536 159.077 86.1485 155.338 85.7837 152.237C85.6925 150.687 84.963 149.136 83.5951 148.042Z" fill="white" stroke="#171717" stroke-linecap="round" stroke-linejoin="round"/>
<path d="M122.717 76.8202C121.258 77.4585 119.89 78.1881 118.522 79.1912C116.06 80.8327 113.598 84.4804 112.777 92.3231C111.956 100.166 112.047 118.678 111.956 126.521C111.774 144.759 87.79 144.577 83.5951 146.218C79.4002 147.86 75.4789 152.419 77.4851 156.432C79.2178 159.988 84.1422 160.353 88.0635 160.171C93.3528 159.897 120.893 158.438 124.906 155.155C130.833 150.413 129.465 143.847 130.195 136.369C132.566 113.571 132.84 90.0432 132.84 90.0432C132.931 83.8421 128.736 78.3705 122.717 76.8202Z" fill="white" stroke="#171717" stroke-linecap="round" stroke-linejoin="round"/>
<path d="M101.378 59.5846C101.378 59.5846 105.39 60.8613 104.752 64.2355C104.114 67.6096 103.475 70.7102 103.475 70.7102C103.475 70.7102 125.362 71.3486 125.088 70.0719C124.814 68.7952 118.613 47.8207 118.613 47.8207C118.613 47.8207 106.849 47.2735 101.378 59.5846Z" fill="white"/>
<path d="M120.893 57.1223L104.752 64.2354L104.478 65.8769C104.478 65.8769 117.975 64.053 121.896 60.3141L120.893 57.1223Z" fill="#FFC7B6"/>
<path opacity="0.5" d="M120.893 57.1223L104.752 64.2354L104.478 65.8769C104.478 65.8769 117.975 64.053 121.896 60.3141L120.893 57.1223Z" fill="white"/>
<path d="M101.378 59.5846C101.378 59.5846 105.39 60.8613 104.752 64.2355C104.114 67.6096 103.475 70.7102 103.475 70.7102C103.475 70.7102 125.362 71.3486 125.088 70.0719C124.814 68.7952 118.613 47.8207 118.613 47.8207C118.613 47.8207 106.849 47.2735 101.378 59.5846Z" stroke="#171717" stroke-linecap="round" stroke-linejoin="round"/>
<path d="M80.9504 74.4492C74.5669 78.4617 76.4819 82.9301 78.0322 90.5904C81.4976 107.826 86.1484 141.111 84.4158 149.501C82.3183 159.35 76.4819 165.551 68.4569 165.551C64.718 165.551 63.8061 169.108 59.7936 167.375C51.1302 163.636 44.6555 166.372 41.5549 168.925C28.8791 179.413 44.9291 216.528 63.4413 225.465C80.0385 233.399 97.8212 228.201 106.576 224.645C109.676 223.368 113.05 224.006 116.333 224.827C133.569 229.204 147.43 214.34 148.981 201.117C151.352 180.689 144.968 179.777 141.776 157.253C141.412 154.882 141.503 152.419 141.503 149.866C141.412 134.272 147.704 119.772 146.154 96.1532C145.515 86.8515 144.056 74.8139 137.855 71.4398C111.591 57.0312 81.1328 74.358 80.9504 74.4492Z" fill="#FFC7B6"/>
<path opacity="0.2" d="M98.0948 121.596C96.7269 129.621 95.4502 137.737 94.0823 145.762C93.5351 148.954 92.8968 152.419 90.8905 154.973C88.8843 157.526 84.9629 158.985 82.2271 157.161C81.9536 153.514 85.0541 150.687 87.334 147.86C93.3527 140.199 94.0823 129.803 94.3559 120.046C94.6295 111.018 93.9911 93.9645 103.475 88.8577C102.563 99.8009 99.8275 110.835 98.0948 121.596Z" fill="#171717"/>
<path opacity="0.2" d="M104.296 159.168C104.478 159.35 104.569 159.533 104.752 159.715C103.931 160.718 102.563 160.9 101.378 161.174C100.101 161.356 98.7331 161.63 98.0036 162.633C97.274 163.636 97.8212 165.551 99.0979 165.46C97.4564 165.551 85.6013 165.186 87.6075 161.174C88.5195 159.168 101.743 159.441 104.296 159.168Z" fill="#171717"/>
<path opacity="0.2" d="M80.2209 179.595C80.8592 180.142 81.4976 180.963 81.0416 181.693C80.5856 182.422 79.4913 182.149 78.7618 181.693C75.4788 179.777 72.3782 176.495 71.3751 172.756C74.2021 172.847 78.1234 177.771 80.2209 179.595Z" fill="#171717"/>
<path opacity="0.2" d="M67.8185 176.586C67.8185 178.866 68.4568 181.145 69.6424 183.06C68.4568 181.51 67.2713 179.96 66.177 178.41C70.1895 186.891 76.8466 194.186 85.054 198.837C81.6799 196.922 79.0353 193.548 78.0321 189.809C78.3969 191.085 81.4063 189.626 80.8591 187.894C80.4032 186.343 78.3969 186.891 77.2114 186.343C73.1077 184.611 70.2807 180.142 67.8185 176.586Z" fill="#171717"/>
<g opacity="0.2">
<path opacity="0.2" d="M37.4512 182.513C45.5674 197.287 60.4319 208.503 74.4757 217.896C91.1641 228.931 107.579 222.912 122.717 219.811C119.434 221.726 120.255 223.368 123.538 224.006C128.645 223.915 133.295 221.088 137.308 217.987C141.412 214.887 144.786 210.145 148.981 202.211C147.066 214.978 131.745 228.019 118.613 225.283C114.054 224.28 110.223 223.915 107.214 224.827C103.658 225.921 102.928 226.104 96.4533 227.927C84.8717 231.21 68.5481 230.937 57.7873 222.365C51.039 216.984 46.2969 210.054 42.8316 202.393C40.0046 196.192 38.2719 189.535 37.4512 182.696V182.513Z" fill="#171717"/>
</g>
<path opacity="0.2" d="M142.78 130.259C142.688 135.822 141.32 141.203 141.047 146.674C141.32 142.023 139.953 137.008 139.953 132.357C139.953 128.8 139.314 121.505 141.412 118.587C142.597 122.234 142.871 126.52 142.78 130.259Z" fill="#171717"/>
<path d="M80.9504 74.4492C74.5669 78.4617 76.4819 82.9301 78.0322 90.5904C81.4976 107.826 86.1484 141.111 84.4158 149.501C82.3183 159.35 76.4819 165.551 68.4569 165.551C64.718 165.551 63.8061 169.108 59.7936 167.375C51.1302 163.636 44.6555 166.372 41.5549 168.925C28.8791 179.413 44.9291 216.528 63.4413 225.465C80.0385 233.399 97.8212 228.201 106.576 224.645C109.676 223.368 113.05 224.006 116.333 224.827C133.569 229.204 147.43 214.34 148.981 201.117C151.352 180.689 144.968 179.777 141.776 157.253C141.412 154.882 141.503 152.419 141.503 149.866C141.412 134.272 147.704 119.772 146.154 96.1532C145.515 86.8515 144.056 74.8139 137.855 71.4398C111.591 57.0312 81.1328 74.358 80.9504 74.4492Z" stroke="#171717" stroke-linecap="round" stroke-linejoin="round"/>
<path d="M48.5768 147.404C48.5768 147.404 42.1021 143.3 40.4606 143.391C38.7279 143.574 36.5393 144.85 35.8097 144.942C35.1714 145.033 33.6211 144.759 32.618 145.489C31.8884 146.127 31.2501 146.857 30.7029 147.677C29.6086 148.316 28.6055 148.954 27.6935 149.684C26.0521 150.96 22.4955 156.25 21.9484 157.344C21.4012 158.438 22.1307 159.077 23.1339 158.347C23.8634 157.8 26.964 154.882 28.5143 153.423C29.0614 152.875 29.8822 152.693 30.6117 152.967C32.3444 153.605 35.445 154.882 36.4481 155.794C38.1808 157.344 40.2782 158.256 42.558 158.621C44.7467 158.803 46.8441 158.803 49.0328 158.621C49.0328 158.621 52.4981 154.152 51.5862 151.234C51.1302 149.592 50.0359 148.225 48.5768 147.404Z" fill="white"/>
<path d="M90.3433 128.162C87.9723 134.454 84.2334 140.473 78.853 144.486C74.8405 147.495 70.0072 149.319 65.174 150.869C60.7967 152.328 56.3282 153.696 51.8597 154.973C50.4006 155.338 48.7592 155.702 47.5737 154.882C46.4793 154.152 46.2058 152.602 46.4793 151.325C46.7529 150.048 47.5737 148.954 48.3944 147.86C46.2969 148.498 44.4731 150.14 43.7435 152.237C43.3788 153.331 43.1964 154.699 42.1933 155.429C41.0989 156.25 39.2751 155.702 38.5455 154.517C37.816 153.331 37.9072 151.781 38.5455 150.504C39.1839 149.228 40.187 148.225 41.0989 147.221C40.0958 146.948 39.0927 147.86 38.5455 148.772C37.9984 149.684 37.5424 150.869 36.5393 151.234C35.3537 151.781 33.9859 150.96 32.7091 150.687C30.4293 150.14 27.9671 151.143 26.1432 152.784C24.3194 154.426 23.3162 156.614 22.4043 158.803C23.4074 156.341 25.5961 154.517 28.1495 153.879C30.7029 153.331 33.5299 154.061 35.4449 155.794C36.3569 156.614 37.0864 157.709 38.1807 158.256C39.2751 158.803 40.4606 158.803 41.7373 158.803C53.6836 158.803 65.5387 156.979 77.0291 153.514C81.8623 152.055 86.9692 150.048 89.8874 145.854C92.1672 142.662 92.8967 138.558 93.4439 134.637C93.9911 130.533 94.3558 126.338 94.5382 122.143C94.7206 118.404 95.2678 114.118 94.6294 110.379C93.2615 116.398 92.4408 122.326 90.3433 128.162Z" fill="#FFC7B6"/>
<path opacity="0.5" d="M90.3433 128.162C87.9723 134.454 84.2334 140.473 78.853 144.486C74.8405 147.495 70.0072 149.319 65.174 150.869C60.7967 152.328 56.3282 153.696 51.8597 154.973C50.4006 155.338 48.7592 155.702 47.5737 154.882C46.4793 154.152 46.2058 152.602 46.4793 151.325C46.7529 150.048 47.5737 148.954 48.3944 147.86C46.2969 148.498 44.4731 150.14 43.7435 152.237C43.3788 153.331 43.1964 154.699 42.1933 155.429C41.0989 156.25 39.2751 155.702 38.5455 154.517C37.816 153.331 37.9072 151.781 38.5455 150.504C39.1839 149.228 40.187 148.225 41.0989 147.221C40.0958 146.948 39.0927 147.86 38.5455 148.772C37.9984 149.684 37.5424 150.869 36.5393 151.234C35.3537 151.781 33.9859 150.96 32.7091 150.687C30.4293 150.14 27.9671 151.143 26.1432 152.784C24.3194 154.426 23.3162 156.614 22.4043 158.803C23.4074 156.341 25.5961 154.517 28.1495 153.879C30.7029 153.331 33.5299 154.061 35.4449 155.794C36.3569 156.614 37.0864 157.709 38.1807 158.256C39.2751 158.803 40.4606 158.803 41.7373 158.803C53.6836 158.803 65.5387 156.979 77.0291 153.514C81.8623 152.055 86.9692 150.048 89.8874 145.854C92.1672 142.662 92.8967 138.558 93.4439 134.637C93.9911 130.533 94.3558 126.338 94.5382 122.143C94.7206 118.404 95.2678 114.118 94.6294 110.379C93.2615 116.398 92.4408 122.326 90.3433 128.162Z" fill="white"/>
<path d="M48.5768 147.404C48.5768 147.404 42.1021 143.3 40.4606 143.391C38.7279 143.574 36.5393 144.85 35.8097 144.942C35.1714 145.033 33.6211 144.759 32.618 145.489C31.8884 146.127 31.2501 146.857 30.7029 147.677C29.6086 148.316 28.6055 148.954 27.6935 149.684C26.0521 150.96 22.4955 156.25 21.9484 157.344C21.4012 158.438 22.1307 159.077 23.1339 158.347C23.8634 157.8 26.964 154.882 28.5143 153.423C29.0614 152.875 29.8822 152.693 30.6117 152.967C32.3444 153.605 35.445 154.882 36.4481 155.794C38.1808 157.344 40.2782 158.256 42.558 158.621C44.7467 158.803 46.8441 158.803 49.0328 158.621C49.0328 158.621 52.4981 154.152 51.5862 151.234C51.1302 149.592 50.0359 148.225 48.5768 147.404Z" stroke="#171717" stroke-linecap="round" stroke-linejoin="round"/>
<path d="M94.7206 92.779C94.2647 86.5779 88.5195 74.4492 82.4095 73.446C81.0416 74.1756 79.6737 75.0875 78.397 76.0906C76.026 77.9145 75.3876 81.6534 75.114 89.5873C74.9317 97.4299 76.3908 115.486 75.3876 132.175C75.3876 132.448 52.1333 145.033 48.1208 147.039C44.1083 148.954 41.4637 152.693 43.7435 156.523C45.7498 159.989 50.1271 159.168 54.0484 158.712C59.3376 157.982 84.1422 152.875 88.6107 148.225C97.73 138.923 94.7206 92.779 94.7206 92.779Z" fill="white"/>
<path d="M90.3433 128.162C87.9723 134.454 84.2334 140.473 78.853 144.486C74.8405 147.495 70.0072 149.319 65.174 150.869C60.7967 152.328 56.3282 153.696 51.8597 154.973C50.4006 155.338 48.7592 155.702 47.5737 154.882C46.4793 154.152 46.2058 152.602 46.4793 151.325C46.7529 150.048 47.5737 148.954 48.3944 147.86C46.2969 148.498 44.4731 150.14 43.7435 152.237C43.3788 153.331 43.1964 154.699 42.1933 155.429C41.0989 156.25 39.2751 155.702 38.5455 154.517C37.816 153.331 37.9072 151.781 38.5455 150.504C39.1839 149.228 40.187 148.225 41.0989 147.221C40.0958 146.948 39.0927 147.86 38.5455 148.772C37.9984 149.684 37.5424 150.869 36.5393 151.234C35.3537 151.781 33.9859 150.96 32.7091 150.687C30.4293 150.14 27.9671 151.143 26.1432 152.784C24.3194 154.426 23.3162 156.614 22.4043 158.803C23.4074 156.341 25.5961 154.517 28.1495 153.879C30.7029 153.331 33.5299 154.061 35.4449 155.794C36.3569 156.614 37.0864 157.709 38.1807 158.256C39.2751 158.803 40.4606 158.803 41.7373 158.803C53.6836 158.803 65.5387 156.979 77.0291 153.514C81.8623 152.055 86.9692 150.048 89.8874 145.854C92.1672 142.662 92.8967 138.558 93.4439 134.637C93.9911 130.533 94.3558 126.338 94.5382 122.143C94.7206 118.404 95.2678 114.118 94.6294 110.379C93.2615 116.398 92.4408 122.326 90.3433 128.162Z" fill="#FFC7B6"/>
<path opacity="0.5" d="M90.3433 128.162C87.9723 134.454 84.2334 140.473 78.853 144.486C74.8405 147.495 70.0072 149.319 65.174 150.869C60.7967 152.328 56.3282 153.696 51.8597 154.973C50.4006 155.338 48.7592 155.702 47.5737 154.882C46.4793 154.152 46.2058 152.602 46.4793 151.325C46.7529 150.048 47.5737 148.954 48.3944 147.86C46.2969 148.498 44.4731 150.14 43.7435 152.237C43.3788 153.331 43.1964 154.699 42.1933 155.429C41.0989 156.25 39.2751 155.702 38.5455 154.517C37.816 153.331 37.9072 151.781 38.5455 150.504C39.1839 149.228 40.187 148.225 41.0989 147.221C40.0958 146.948 39.0927 147.86 38.5455 148.772C37.9984 149.684 37.5424 150.869 36.5393 151.234C35.3537 151.781 33.9859 150.96 32.7091 150.687C30.4293 150.14 27.9671 151.143 26.1432 152.784C24.3194 154.426 23.3162 156.614 22.4043 158.803C23.4074 156.341 25.5961 154.517 28.1495 153.879C30.7029 153.331 33.5299 154.061 35.4449 155.794C36.3569 156.614 37.0864 157.709 38.1807 158.256C39.2751 158.803 40.4606 158.803 41.7373 158.803C53.6836 158.803 65.5387 156.979 77.0291 153.514C81.8623 152.055 86.9692 150.048 89.8874 145.854C92.1672 142.662 92.8967 138.558 93.4439 134.637C93.9911 130.533 94.3558 126.338 94.5382 122.143C94.7206 118.404 95.2678 114.118 94.6294 110.379C93.2615 116.398 92.4408 122.326 90.3433 128.162Z" fill="white"/>
<path d="M94.7206 92.779C94.2647 86.5779 88.5195 74.4492 82.4095 73.446C81.0416 74.1756 79.6737 75.0875 78.397 76.0906C76.026 77.9145 75.3876 81.6534 75.114 89.5873C74.9317 97.4299 76.3908 115.486 75.3876 132.175C75.3876 132.448 52.1333 145.033 48.1208 147.039C44.1083 148.954 41.4637 152.693 43.7435 156.523C45.7498 159.989 50.1271 159.168 54.0484 158.712C59.3376 157.982 84.1422 152.875 88.6107 148.225C97.73 138.923 94.7206 92.779 94.7206 92.779Z" stroke="#171717" stroke-linecap="round" stroke-linejoin="round"/>
<path d="M139.588 38.7926C143.509 31.1323 140.044 21.2835 134.937 14.3528C126.547 2.9536 108.764 -0.420546 95.4503 1.40332C89.1579 2.22406 82.9568 5.32463 79.6738 10.705C76.3908 16.0854 77.2116 24.1105 82.4096 27.7582C87.2428 31.1323 94.9031 30.5852 97.9125 35.7832C101.013 41.2548 95.815 47.8207 95.7238 54.2043C95.6326 58.2168 97.7301 61.9557 97.7301 65.9682C97.7301 65.877 128.553 60.5878 139.588 38.7926Z" fill="#171717" stroke="#171717" stroke-linecap="round" stroke-linejoin="round"/>
<path d="M49.9447 146.218C49.9447 146.218 50.0359 147.13 46.297 144.668C42.7404 142.388 33.4387 150.869 37.0864 156.614L37.36 157.618C37.7248 158.985 40.3694 158.074 41.6461 158.53C43.7435 159.259 45.0203 159.168 46.7529 158.985C49.5799 158.803 41.8285 154.152 49.9447 146.218Z" fill="white"/>
<path d="M90.3433 128.162C87.9723 134.454 84.2334 140.473 78.8529 144.486C74.8404 147.495 70.0072 149.319 65.174 150.869C60.7967 152.328 56.3282 153.696 51.8597 154.973C50.4006 155.338 48.7592 155.702 47.5736 154.882C46.4793 154.152 46.2058 152.602 46.4793 151.325C46.7529 150.048 47.5736 148.954 48.3944 147.86C46.2969 148.498 44.4731 150.14 43.7435 152.237C43.3788 153.331 43.1964 154.699 42.1933 155.429C41.0989 156.25 39.2751 155.702 38.5455 154.517C37.816 153.331 37.9072 151.781 38.5455 150.504C39.1839 149.228 40.187 148.225 41.0989 147.221C40.0958 146.948 39.0927 147.86 38.5455 148.772C37.9984 149.684 37.5424 150.869 36.5393 151.234C35.3537 151.781 33.9858 150.96 32.7091 150.687C30.4293 150.14 27.9671 151.143 26.1432 152.784C24.3194 154.426 23.3162 156.614 22.4043 158.803C23.4074 156.341 25.5961 154.517 28.1495 153.879C30.7029 153.331 33.5299 154.061 35.4449 155.794C36.3569 156.614 37.0864 157.709 38.1807 158.256C39.2751 158.803 40.4606 158.803 41.7373 158.803C53.6836 158.803 65.5387 156.979 77.0291 153.514C81.8623 152.055 86.9691 150.048 89.8873 145.854C92.1672 142.662 92.8967 138.558 93.4439 134.637C93.991 130.533 94.3558 126.338 94.5382 122.143C94.7206 118.404 95.2677 114.118 94.6294 110.379C93.2615 116.398 92.4407 122.326 90.3433 128.162Z" fill="#FFC7B6"/>
<path opacity="0.5" d="M90.3433 128.162C87.9723 134.454 84.2334 140.473 78.8529 144.486C74.8404 147.495 70.0072 149.319 65.174 150.869C60.7967 152.328 56.3282 153.696 51.8597 154.973C50.4006 155.338 48.7592 155.702 47.5736 154.882C46.4793 154.152 46.2058 152.602 46.4793 151.325C46.7529 150.048 47.5736 148.954 48.3944 147.86C46.2969 148.498 44.4731 150.14 43.7435 152.237C43.3788 153.331 43.1964 154.699 42.1933 155.429C41.0989 156.25 39.2751 155.702 38.5455 154.517C37.816 153.331 37.9072 151.781 38.5455 150.504C39.1839 149.228 40.187 148.225 41.0989 147.221C40.0958 146.948 39.0927 147.86 38.5455 148.772C37.9984 149.684 37.5424 150.869 36.5393 151.234C35.3537 151.781 33.9858 150.96 32.7091 150.687C30.4293 150.14 27.9671 151.143 26.1432 152.784C24.3194 154.426 23.3162 156.614 22.4043 158.803C23.4074 156.341 25.5961 154.517 28.1495 153.879C30.7029 153.331 33.5299 154.061 35.4449 155.794C36.3569 156.614 37.0864 157.709 38.1807 158.256C39.2751 158.803 40.4606 158.803 41.7373 158.803C53.6836 158.803 65.5387 156.979 77.0291 153.514C81.8623 152.055 86.9691 150.048 89.8873 145.854C92.1672 142.662 92.8967 138.558 93.4439 134.637C93.991 130.533 94.3558 126.338 94.5382 122.143C94.7206 118.404 95.2677 114.118 94.6294 110.379C93.2615 116.398 92.4407 122.326 90.3433 128.162Z" fill="white"/>
<path d="M49.9447 146.218C49.9447 146.218 50.0359 147.13 46.297 144.668C42.7404 142.388 33.4387 150.869 37.0864 156.614L37.36 157.618C37.7248 158.985 40.3694 158.074 41.6461 158.53C43.7435 159.259 45.0203 159.168 46.7529 158.985C49.5799 158.803 41.8285 154.152 49.9447 146.218Z" stroke="#171717" stroke-linecap="round" stroke-linejoin="round"/>
<path d="M91.0729 5.8717C88.4283 9.15466 88.6107 13.9879 90.0698 18.0004C91.5289 22.0129 94.1734 25.3871 96.0885 29.2172C98.0036 33.0473 100.283 36.9686 98.7331 40.8899C101.104 32.409 101.378 23.3808 99.5539 14.8087" stroke="#5D5D66" stroke-linecap="round" stroke-linejoin="round"/>
<path d="M102.928 3.22717C116.881 16.6326 121.075 29.7644 121.714 41.8019" stroke="#5D5D66" stroke-linecap="round" stroke-linejoin="round"/>
<path d="M95.8149 9.88428C99.1891 18.3653 100.283 27.7582 98.9155 36.7864" stroke="#5D5D66" stroke-linecap="round" stroke-linejoin="round"/>
<path d="M83.595 8.88123C81.5888 10.7051 80.2209 13.3497 79.8561 15.9943" stroke="#5D5D66" stroke-linecap="round" stroke-linejoin="round"/>
<path d="M87.0604 7.78687C85.6012 10.8874 85.51 14.5351 86.7868 17.7269" stroke="#5D5D66" stroke-linecap="round" stroke-linejoin="round"/>
<path d="M117.154 7.42212C124.267 11.617 129.192 19.4596 129.83 27.667" stroke="#5D5D66" stroke-linecap="round" stroke-linejoin="round"/>
<path d="M127.277 9.79309C128.918 10.8874 130.286 12.3465 131.198 14.0791" stroke="#5D5D66" stroke-linecap="round" stroke-linejoin="round"/>
<path d="M64.9916 172.3C67.1802 183.334 74.3845 193.274 84.1422 198.837" stroke="#171717" stroke-linecap="round" stroke-linejoin="round"/>
<path d="M70.1896 168.926C70.2808 174.853 74.658 180.507 80.4032 182.149" stroke="#171717" stroke-linecap="round" stroke-linejoin="round"/>
<path d="M105.208 158.894C100.01 159.533 94.8118 160.262 89.6138 160.9C88.8843 160.992 87.9723 161.174 87.6075 161.904C87.334 162.542 87.6987 163.271 88.1547 163.636C88.7019 164.092 89.3402 164.183 89.9786 164.366C96.7269 165.916 103.658 166.828 110.588 167.01" stroke="#171717" stroke-linecap="round" stroke-linejoin="round"/>
<path d="M104.022 225.648C108.856 223.459 114.51 221.544 119.799 220.906" stroke="#171717" stroke-linecap="round" stroke-linejoin="round"/>
<path d="M49.0327 146.857C47.9384 147.221 46.9353 147.951 46.1146 148.772C45.2938 149.592 44.5643 150.596 43.8347 151.416C43.6523 151.599 43.5612 151.69 43.3788 151.781C43.1964 151.872 42.9228 151.872 42.8316 151.69C42.6492 151.508 42.7404 151.234 42.8316 150.96C43.1964 149.866 43.9259 148.772 44.8379 148.042" fill="white"/>
<path d="M49.0327 146.857C47.9384 147.221 46.9353 147.951 46.1146 148.772C45.2938 149.592 44.5643 150.596 43.8347 151.416C43.6523 151.599 43.5612 151.69 43.3788 151.781C43.1964 151.872 42.9228 151.872 42.8316 151.69C42.6492 151.508 42.7404 151.234 42.8316 150.96C43.1964 149.866 43.9259 148.772 44.8379 148.042" stroke="#171717" stroke-linecap="round" stroke-linejoin="round"/>
<path d="M100.192 91.1376C98.5508 96.9739 96.8181 102.901 95.1766 108.738Z" fill="white"/>
<path d="M100.192 91.1376C98.5508 96.9739 96.8181 102.901 95.1766 108.738" stroke="#171717" stroke-linecap="round" stroke-linejoin="round"/>
<path d="M141.594 116.489C139.497 132.631 140.864 152.328 143.691 167.375" stroke="#171717" stroke-linecap="round" stroke-linejoin="round"/>
<path d="M142.415 110.653C142.324 111.565 142.232 112.386 142.141 113.298" stroke="#171717" stroke-linecap="round" stroke-linejoin="round"/>
</svg>
