<svg width="109" height="233" viewBox="0 0 109 233" fill="none" xmlns="http://www.w3.org/2000/svg">
<path d="M97.1463 49.1026C97.1463 60.3194 88.3917 69.5299 77.3573 70.1682C76.9013 70.1682 20.7262 70.1682 20.1791 70.1682C9.23588 69.3475 0.57251 60.2282 0.57251 49.1026C0.57251 38.0682 9.05349 29.0401 19.8143 28.0369C20.7262 12.1693 33.8581 -0.506592 49.9993 -0.506592C66.2317 -0.506592 79.4547 12.2605 80.1843 28.3105C89.8508 30.4079 97.1463 38.8889 97.1463 49.1026Z" fill="white" stroke="#171717" stroke-miterlimit="10"/>
<path d="M26.4714 19.6471C30.5751 9.98061 40.1504 3.14111 51.3672 3.14111" stroke="#171717" stroke-miterlimit="10" stroke-linecap="round" stroke-linejoin="round"/>
<path d="M24.4652 28.5841C24.5564 27.0338 24.7388 25.3923 25.1036 23.9332" stroke="#171717" stroke-miterlimit="10" stroke-linecap="round" stroke-linejoin="round"/>
<path d="M49.9081 173.126C51.276 176.317 52.7351 179.327 54.1942 182.336" stroke="#171717" stroke-miterlimit="10" stroke-linecap="round" stroke-linejoin="round"/>
<path d="M19.7231 83.6649C19.7231 83.6649 30.5752 126.526 46.2604 164.553" stroke="#171717" stroke-miterlimit="10" stroke-linecap="round" stroke-linejoin="round"/>
<path d="M81.1875 115.583C81.2787 117.224 81.2787 118.409 81.3699 119.869" stroke="#171717" stroke-miterlimit="10" stroke-linecap="round" stroke-linejoin="round"/>
<path d="M81.1875 76.187C81.0963 76.9166 80.5492 96.0672 80.9139 111.388" stroke="#171717" stroke-miterlimit="10" stroke-linecap="round" stroke-linejoin="round"/>
<path d="M107.634 202.672L88.2094 232.219L51.0025 204.678L69.5147 203.949L68.3292 201.031C50.7289 158.17 37.8706 113.576 30.1192 67.8884L26.3802 46.002L72.0681 45.546L71.8857 52.4767C71.7945 103.271 77.9045 153.884 90.1244 203.219L107.634 202.672Z" fill="#FFC7B6" stroke="#171717" stroke-miterlimit="10"/>
<path d="M46.8076 47.4611H63.7696L63.8608 53.3886C63.952 65.0614 64.6815 76.6429 66.0494 88.2245L40.5153 89.5012L39.1474 81.9321C37.8707 74.5455 37.1411 67.0676 36.9587 59.5898L46.8076 47.4611Z" fill="white" stroke="#171717" stroke-miterlimit="10" stroke-linecap="round" stroke-linejoin="round"/>
<path d="M47.9019 59.4074L36.9587 59.4986L46.8076 47.4611L47.9019 59.4074Z" fill="white" stroke="#171717" stroke-miterlimit="10" stroke-linecap="round" stroke-linejoin="round"/>
<path d="M75.1687 218.266C73.1625 218.266 71.521 217.628 71.4298 217.537C71.3386 217.537 68.8764 216.533 68.0557 213.615C67.9645 213.433 67.9645 213.25 67.9645 213.068C67.6909 211.791 67.8733 210.332 68.3292 208.691C69.2412 205.955 71.3386 204.496 74.5304 204.496C75.5335 204.496 76.719 204.678 77.9045 204.952C77.9957 204.952 77.9957 204.952 78.0869 204.952L68.1469 176.591C68.0557 176.317 68.0557 176.044 68.238 175.77C68.4204 175.588 68.6028 175.405 68.8764 175.405C69.3324 175.405 69.7883 175.679 69.9707 176.135L70.2443 176.864C71.7946 178.597 73.8008 179.874 75.9895 180.239C77.9957 180.603 80.002 181.698 81.6435 183.248C82.6466 184.16 83.3761 185.254 83.7409 186.44L86.2943 193.644C86.3855 193.826 86.3855 194.1 86.2943 194.282C86.2031 194.465 86.0207 194.556 85.8383 194.647H85.7472H85.5648C85.2912 194.647 85.1088 194.556 84.9264 194.373C83.3761 192.367 81.1875 190.999 78.8165 190.543C77.4486 190.27 76.0807 189.631 74.804 188.628L81.4611 207.597C82.829 211.518 81.1875 214.801 81.1875 214.892C79.9108 217.081 77.8133 218.266 75.1687 218.266Z" fill="white"/>
<path d="M68.9676 176.044C69.2411 176.044 69.5147 176.226 69.6059 176.5L69.8795 177.229C71.4298 179.053 73.6184 180.421 75.8983 180.877C77.8133 181.242 79.7284 182.245 81.2787 183.704C82.1906 184.525 82.9202 185.619 83.1937 186.713L85.7471 194.009C85.8383 194.191 85.7471 194.374 85.5648 194.374H85.4736C85.3824 194.374 85.2 194.282 85.1088 194.191C83.5585 192.185 81.1875 190.726 78.8164 190.27C76.8102 189.905 75.2599 188.811 73.7096 187.26L80.9139 207.87C82.1906 211.518 80.7315 214.71 80.7315 214.801C79.2724 217.263 77.0838 217.901 75.1687 217.901C73.2537 217.901 71.6122 217.263 71.6122 217.263C71.6122 217.263 69.2411 216.351 68.5116 213.707C68.5116 213.524 68.4204 213.342 68.4204 213.159C68.238 212.065 68.238 210.697 68.7852 208.964C69.7883 205.864 72.2505 205.134 74.6215 205.134C75.8071 205.134 76.9926 205.317 77.8133 205.59C77.9957 205.59 78.1781 205.681 78.3605 205.681H78.4517C78.6341 205.681 78.7253 205.773 78.8164 205.773L68.6028 176.591C68.5116 176.317 68.694 176.044 68.9676 176.044ZM68.9676 175.132C68.5116 175.132 68.1468 175.314 67.8732 175.679C67.5997 176.044 67.5997 176.408 67.6909 176.864L77.3573 204.405C76.3542 204.222 75.4423 204.131 74.5304 204.131C71.1562 204.131 68.7852 205.681 67.8732 208.6C67.3261 210.241 67.2349 211.791 67.4173 213.159C67.4173 213.433 67.5085 213.615 67.5085 213.798C68.3292 216.898 71.065 217.993 71.1562 217.993C71.2474 217.993 72.9801 218.722 75.0775 218.722C77.9045 218.722 80.0932 217.537 81.3699 215.166C81.3699 215.166 83.1025 211.609 81.6434 207.505L75.4423 189.905C76.4454 190.543 77.4486 190.908 78.4517 191.091C80.6403 191.547 82.7378 192.823 84.1969 194.738V194.829H84.2881C84.5616 195.103 84.8352 195.194 85.2 195.285L85.4736 195.377L85.656 195.285C85.9295 195.194 86.2031 195.012 86.3855 194.738C86.5679 194.465 86.5679 194.1 86.4767 193.826L83.9233 186.531C83.5585 185.345 82.829 184.16 81.7346 183.157C80.0932 181.606 77.9957 180.512 75.8983 180.056C73.892 179.691 71.9769 178.506 70.5178 176.864L70.3355 176.226C70.2443 175.588 69.6059 175.132 68.9676 175.132Z" fill="#171717"/>
<path d="M31.8518 143.397C41.7919 141.299 46.7164 140.205 56.5653 138.016C53.4647 124.611 51.0025 111.023 49.1786 97.4351C38.2354 99.8061 32.6726 100.992 21.7294 103.363C24.5564 116.768 27.9305 130.173 31.8518 143.397Z" fill="white" stroke="#171717" stroke-miterlimit="10" stroke-linecap="round" stroke-linejoin="round"/>
<path d="M52.0968 129.444C44.0717 131.177 40.0592 132.089 32.0342 133.821C29.6632 125.158 28.6601 120.872 26.745 112.117C35.226 110.293 39.5121 109.381 47.9931 107.557C49.361 116.312 50.1817 120.689 52.0968 129.444Z" fill="#171717" stroke="#171717" stroke-miterlimit="10" stroke-linecap="round" stroke-linejoin="round"/>
<path d="M43.5246 119.595C41.9743 124.611 41.2447 127.073 39.8768 132.088C44.8013 130.994 47.1723 130.538 52.0967 129.444C48.5402 125.523 46.8075 123.607 43.5246 119.595Z" fill="white" stroke="#171717" stroke-miterlimit="10" stroke-linecap="round" stroke-linejoin="round"/>
<path d="M36.2291 118.501C34.4052 124.611 33.5845 127.711 31.943 133.73C37.8706 132.453 40.8799 131.815 46.8075 130.538C42.5214 125.796 40.424 123.334 36.2291 118.501Z" fill="white" stroke="#171717" stroke-miterlimit="10" stroke-linecap="round" stroke-linejoin="round"/>
<path d="M47.3547 113.667C47.5371 114.853 46.8076 116.039 45.7133 116.312C44.6189 116.586 43.4334 115.765 43.251 114.579C42.9774 113.394 43.7982 112.117 44.8925 111.935C45.9868 111.57 47.0812 112.391 47.3547 113.667Z" fill="white" stroke="#171717" stroke-miterlimit="10" stroke-linecap="round" stroke-linejoin="round"/>
<path d="M66.87 169.387C78.0868 170.207 83.7408 170.663 94.9576 171.575C90.4891 158.626 88.5741 144.856 89.3948 131.177C78.4516 128.532 72.98 127.164 62.0368 124.519C60.6689 139.658 62.4016 154.978 66.87 169.387Z" fill="white" stroke="#171717" stroke-miterlimit="10" stroke-linecap="round" stroke-linejoin="round"/>
<path d="M87.2974 151.057C88.1181 157.167 84.3792 161.453 78.2692 160.814C72.1593 160.085 65.8669 154.248 65.1374 147.591C64.4079 140.934 69.3323 136.557 75.4422 137.742C81.461 139.019 86.4766 144.947 87.2974 151.057Z" fill="#171717" stroke="#171717" stroke-miterlimit="10" stroke-linecap="round" stroke-linejoin="round"/>
<path d="M82.6465 150.327C78.178 147.227 75.9893 145.676 71.7032 142.393C71.9768 147.409 72.3416 149.962 73.2535 154.978C76.9925 153.063 78.8163 152.151 82.6465 150.327Z" fill="white" stroke="#171717" stroke-miterlimit="10" stroke-linecap="round" stroke-linejoin="round"/>
</svg>
