<svg width="108" height="51" viewBox="0 0 108 51" fill="none" xmlns="http://www.w3.org/2000/svg">
<path d="M65.8473 0.662231H0.735229L12.7728 49.6331H77.8848L65.8473 0.662231Z" fill="#171717" stroke="#171717" stroke-linecap="round" stroke-linejoin="round"/>
<path d="M62.7467 3.48926H5.20361L15.8732 46.7149H73.4163L62.7467 3.48926Z" fill="white" stroke="#171717" stroke-linecap="round" stroke-linejoin="round"/>
<path d="M62.7466 3.48926H5.20361L6.20673 7.5018H63.7498L62.7466 3.48926Z" fill="#FFC7B6" stroke="#171717" stroke-linecap="round" stroke-linejoin="round"/>
<path d="M106.975 45.2559H11.6783V49.6331H106.975V45.2559Z" fill="white" stroke="#171717" stroke-linecap="round" stroke-linejoin="round"/>
<path d="M107.067 45.2559H54.9041V49.6331H107.067V45.2559Z" fill="#171717" stroke="#171717" stroke-linecap="round" stroke-linejoin="round"/>
<path d="M56.1808 23.5518L56.8192 26.2875H13.7759L13.1376 23.5518H56.1808Z" fill="#FFC7B6"/>
<path d="M66.0297 27.6553H13.6847L12.408 22.1838H64.753L66.0297 27.6553ZM14.2318 27.017H65.3001L64.297 22.8222H13.2287L14.2318 27.017Z" fill="#171717"/>
<path d="M41.4075 19.7216H35.0239L33.3824 13.3381H35.2063L35.3887 13.8853H34.112L35.3887 19.1744H40.6779L39.4012 13.8853H38.0333L37.9421 13.3381H39.766L41.4075 19.7216Z" fill="#FFC7B6" stroke="#FFC7B6" stroke-width="0.2" stroke-miterlimit="10"/>
<path d="M37.6685 16.5299H37.1213L35.571 10.4199H36.1182L37.6685 16.5299Z" fill="#FFC7B6" stroke="#FFC7B6" stroke-width="0.2" stroke-miterlimit="10"/>
<path d="M37.4861 16.8034L35.2063 15.8003L35.2975 15.2532L37.3037 16.1651L38.7628 15.162L39.1276 15.6179L37.4861 16.8034Z" fill="#FFC7B6" stroke="#FFC7B6" stroke-width="0.2" stroke-miterlimit="10"/>
</svg>
