<svg width="107" height="138" viewBox="0 0 107 138" fill="none" xmlns="http://www.w3.org/2000/svg">
<path d="M45.9496 72.1522C45.8584 72.2434 46.5879 72.9729 44.2169 73.0641C38.4717 73.3377 28.2581 72.9729 24.428 67.7749C18.9564 60.297 31.541 60.9354 30.2643 56.8317C28.9876 52.728 15.491 56.1022 12.8464 50.2658C10.2018 44.4294 20.0507 45.5237 19.5947 42.5144C19.1387 39.505 8.83389 43.4263 5.36854 37.2251C1.90319 31.024 10.9313 34.3069 9.47224 31.7535C8.01315 29.2001 -3.47722 18.4393 1.17364 16.0683C5.8245 13.6972 16.5853 24.8228 20.1419 26.0995C23.6984 27.2851 24.5191 16.2507 29.17 19.8984C33.8209 23.5461 30.8115 40.2345 36.2831 42.2408C40.2956 43.791 38.107 37.7723 43.1226 38.0459C49.9621 38.2283 52.2419 61.4826 45.9496 72.1522Z" fill="#FFC7B6"/>
<g opacity="0.1">
<path opacity="0.1" d="M45.9496 72.1522C45.8584 72.2434 46.5879 72.9729 44.2169 73.0641C38.4717 73.3377 28.2581 72.9729 24.428 67.7749C18.9564 60.297 31.541 60.9354 30.2643 56.8317C28.9876 52.728 15.491 56.1022 12.8464 50.2658C10.2018 44.4294 20.0507 45.5237 19.5947 42.5144C19.1387 39.505 8.83389 43.4263 5.36854 37.2251C1.90319 31.024 10.9313 34.3069 9.47224 31.7535C8.01315 29.2001 -3.47722 18.4393 1.17364 16.0683C5.8245 13.6972 16.5853 24.8228 20.1419 26.0995C23.6984 27.2851 24.5191 16.2507 29.17 19.8984C33.8209 23.5461 30.8115 40.2345 36.2831 42.2408C40.2956 43.791 38.107 37.7723 43.1226 38.0459C49.9621 38.2283 52.2419 61.4826 45.9496 72.1522Z" fill="#171717"/>
</g>
<path d="M62.9116 73.1552C67.5624 74.0672 76.317 71.2402 80.2383 67.5924C84.1596 63.9447 74.7667 64.9478 76.317 61.7561C77.8673 58.5643 88.3545 63.124 91.2727 58.6555C94.1909 54.187 86.0747 53.8222 86.8042 51.4512C87.5338 49.0802 95.7412 51.0864 99.2977 46.4356C102.854 41.7847 95.1028 43.335 96.6531 41.4199C98.2034 39.5049 108.873 32.3006 105.408 29.7472C101.942 27.1938 91.7287 34.854 88.7193 35.4012C85.7099 35.9483 86.1659 29.3824 81.971 31.7534C77.6849 34.1245 77.9585 48.0771 73.3076 48.989C69.8423 49.7185 72.3045 43.791 68.292 44.7029C61.2701 46.162 60.9965 72.6993 62.9116 73.1552Z" fill="#FFC7B6"/>
<path d="M92.7318 37.7722C92.7318 37.7722 65.2826 56.2845 57.6223 90.026" stroke="#171717" stroke-miterlimit="10" stroke-linecap="round" stroke-linejoin="round"/>
<path d="M91.3639 48.4418C86.0747 47.3475 81.6062 48.533 81.2415 48.533" stroke="#171717" stroke-miterlimit="10" stroke-linecap="round" stroke-linejoin="round"/>
<path d="M84.8891 34.6716C84.8891 34.6716 78.1408 41.8759 77.2289 52.1808" stroke="#171717" stroke-miterlimit="10" stroke-linecap="round" stroke-linejoin="round"/>
<path d="M72.7604 57.3789C72.7604 57.3789 77.3201 54.187 82.7917 56.7405" stroke="#171717" stroke-miterlimit="10" stroke-linecap="round" stroke-linejoin="round"/>
<path d="M66.8328 66.0421C66.8328 66.0421 65.1001 60.5705 67.1064 53.3662" stroke="#171717" stroke-miterlimit="10" stroke-linecap="round" stroke-linejoin="round"/>
<path d="M55.3425 70.6018C60.9053 69.0515 68.8391 61.1177 71.0277 55.099C73.3076 48.8978 63.6411 55.1902 63.5499 50.9041C63.4587 46.618 77.4113 45.7061 78.1408 39.3225C78.8704 32.939 69.8422 37.0427 69.3863 33.9421C68.9303 30.9327 78.7792 28.6529 80.1471 21.631C81.515 14.6091 73.9459 20.5367 74.4931 17.7097C75.1314 14.7915 82.7005 1.02132 77.5937 0.200578C72.4868 -0.711355 65.6473 13.3324 62.638 15.5211C59.6286 17.7097 56.6192 10.4142 53.245 15.3387C49.9621 20.2631 57.8959 35.2188 53.3362 38.7754C49.9621 41.5112 49.4149 33.6685 45.5848 36.8603C38.7453 42.2407 53.0626 71.149 55.3425 70.6018Z" fill="#FFC7B6"/>
<g opacity="0.2">
<path opacity="0.2" d="M55.3425 70.6018C60.9053 69.0515 68.8391 61.1177 71.0277 55.099C73.3076 48.8978 63.6411 55.1902 63.5499 50.9041C63.4587 46.618 77.4113 45.7061 78.1408 39.3225C78.8704 32.939 69.8422 37.0427 69.3863 33.9421C68.9303 30.9327 78.7792 28.6529 80.1471 21.631C81.515 14.6091 73.9459 20.5367 74.4931 17.7097C75.1314 14.7915 82.7005 1.02132 77.5937 0.200578C72.4868 -0.711355 65.6473 13.3324 62.638 15.5211C59.6286 17.7097 56.6192 10.4142 53.245 15.3387C49.9621 20.2631 57.8959 35.2188 53.3362 38.7754C49.9621 41.5112 49.4149 33.6685 45.5848 36.8603C38.7453 42.2407 53.0626 71.149 55.3425 70.6018Z" fill="white"/>
</g>
<path d="M59.5375 136.808C59.2639 136.9 48.6854 136.9 48.4119 136.808C40.6604 135.076 13.3024 126.139 38.0158 96.9568H69.5687C94.2821 126.139 67.1977 135.167 59.5375 136.808Z" fill="white" stroke="#171717" stroke-miterlimit="10"/>
<path d="M23.0601 37.9547C23.0601 37.9547 45.4024 53.184 50.3269 92.2148" stroke="#171717" stroke-miterlimit="10" stroke-linecap="round" stroke-linejoin="round"/>
<path d="M19.6859 42.6968C25.0663 41.5112 28.3493 42.6056 28.3493 42.6056" stroke="#171717" stroke-miterlimit="10" stroke-linecap="round" stroke-linejoin="round"/>
<path d="M25.7959 26.6467C25.7959 26.6467 32.5442 35.5837 32.5442 47.3476" stroke="#171717" stroke-miterlimit="10" stroke-linecap="round" stroke-linejoin="round"/>
<path d="M39.1101 57.1965C39.1101 57.1965 34.2768 52.6369 27.8933 55.0079" stroke="#171717" stroke-miterlimit="10" stroke-linecap="round" stroke-linejoin="round"/>
<path d="M42.6666 64.1272C42.6666 64.1272 45.22 58.1996 43.8521 49.8098" stroke="#171717" stroke-miterlimit="10" stroke-linecap="round" stroke-linejoin="round"/>
<path d="M68.2919 20.2632C68.2919 20.2632 49.5973 46.4357 55.7985 93.9474" stroke="#171717" stroke-miterlimit="10" stroke-linecap="round" stroke-linejoin="round"/>
<path d="M79.2352 24.0021C69.4775 24.0021 64.2794 27.741 64.0059 28.0145" stroke="#171717" stroke-miterlimit="10" stroke-linecap="round" stroke-linejoin="round"/>
<path d="M60.9965 35.2189C58.4431 27.741 58.6255 20.2632 59.3551 15.0652" stroke="#171717" stroke-miterlimit="10" stroke-linecap="round" stroke-linejoin="round"/>
<path d="M57.0752 49.6275C57.0752 49.6275 60.9965 42.2409 69.3863 42.1497" stroke="#171717" stroke-miterlimit="10" stroke-linecap="round" stroke-linejoin="round"/>
<path d="M55.6161 59.2027C55.6161 59.2027 50.4181 53.3664 48.7766 42.9703" stroke="#171717" stroke-miterlimit="10" stroke-linecap="round" stroke-linejoin="round"/>
<path d="M37.3775 97.0479H70.4807L72.4869 87.655H35.28L37.3775 97.0479Z" fill="white" stroke="#171717" stroke-miterlimit="10"/>
<path d="M72.4868 108.721C74.0371 112.004 74.6755 115.651 74.4019 119.299C74.2195 121.852 73.2164 124.679 70.9365 125.774" stroke="#171717" stroke-linecap="round" stroke-linejoin="round"/>
<path d="M68.7479 103.158C69.5687 103.979 70.2982 104.982 70.9365 105.985" stroke="#171717" stroke-linecap="round" stroke-linejoin="round"/>
</svg>
