<svg width="41" height="51" viewBox="0 0 41 51" fill="none" xmlns="http://www.w3.org/2000/svg">
<path d="M30.6636 18.9028H9.83167C9.25671 18.9028 8.79004 19.3695 8.79004 19.9445V36.61C8.79004 39.1265 10.5816 41.2284 12.9564 41.7138V47.026C12.9564 48.7488 14.3584 50.1508 16.0812 50.1508C17.8041 50.1508 19.206 48.7488 19.206 47.026V41.818H21.2892V47.026C21.2892 48.7488 22.6911 50.1508 24.414 50.1508C26.1368 50.1508 27.5387 48.7488 27.5387 47.026V41.7138C29.9136 41.2306 31.7051 39.1265 31.7051 36.61V19.9445C31.7051 19.3674 31.2386 18.9028 30.6636 18.9028Z" fill="#616161"/>
<path d="M25.6992 5.70133L27.4553 1.60366C27.6824 1.0745 27.4366 0.464192 26.9074 0.23706C26.3845 0.00787637 25.7658 0.253758 25.5408 0.784971L23.7847 4.88469C22.6702 4.52221 21.4828 4.32017 20.2495 4.32017C19.0163 4.32017 17.8289 4.52221 16.7143 4.88469L14.9542 0.784971C14.7292 0.253758 14.1105 0.00582571 13.5876 0.23706C13.0584 0.464095 12.8147 1.07655 13.0418 1.60366L14.7979 5.70133C11.2211 7.64289 8.79004 11.4322 8.79004 15.7777C8.79004 16.3526 9.25671 16.8193 9.83166 16.8193H30.6635C31.2385 16.8193 31.7051 16.3526 31.7051 15.7777C31.705 11.4322 29.274 7.64289 25.6992 5.70133ZM16.0811 12.6529C15.5062 12.6529 15.0395 12.1862 15.0395 11.6113C15.0395 11.0363 15.5062 10.5696 16.0811 10.5696C16.6561 10.5696 17.1228 11.0363 17.1228 11.6113C17.1228 12.1862 16.6561 12.6529 16.0811 12.6529ZM24.4139 12.6529C23.839 12.6529 23.3723 12.1862 23.3723 11.6113C23.3723 11.0363 23.839 10.5696 24.4139 10.5696C24.9889 10.5696 25.4556 11.0363 25.4556 11.6113C25.4556 12.1862 24.9889 12.6529 24.4139 12.6529Z" fill="#616161"/>
<path d="M36.9129 18.9028C35.19 18.9028 33.7881 20.3048 33.7881 22.0276V32.4436C33.7881 34.1664 35.19 35.5684 36.9129 35.5684C38.6357 35.5684 40.0377 34.1664 40.0377 32.4436V22.0276C40.0377 20.3049 38.6357 18.9028 36.9129 18.9028Z" fill="#616161"/>
<path d="M3.58181 18.9028C1.85898 18.9028 0.457031 20.3048 0.457031 22.0276V32.4436C0.457031 34.1664 1.85898 35.5684 3.58181 35.5684C5.30464 35.5684 6.7066 34.1664 6.7066 32.4436V22.0276C6.7066 20.3049 5.30464 18.9028 3.58181 18.9028Z" fill="#616161"/>
</svg>
