<svg width="42" height="51" viewBox="0 0 42 51" fill="none" xmlns="http://www.w3.org/2000/svg">
<path d="M14.0423 50.1506C6.60078 50.1077 0.445312 34.9171 0.445312 27.1809C0.445312 14.5437 9.92529 11.7771 13.5788 11.7771C15.2253 11.7771 16.9834 12.4237 18.5341 12.9959C19.6185 13.395 20.7399 13.807 21.3637 13.807C21.737 13.807 22.6168 13.4565 23.3936 13.149C25.0501 12.4896 27.1114 11.6699 29.5118 11.6699C29.5161 11.6699 29.5219 11.6699 29.5261 11.6699C31.3185 11.6699 36.753 12.0633 40.0203 16.9699L40.7856 18.12L39.6842 18.9512C38.1106 20.1385 35.2396 22.3043 35.2396 26.5944C35.2396 31.6756 38.4911 33.6297 40.0532 34.5695C40.7428 34.9844 41.4565 35.4121 41.4565 36.3477C41.4565 36.9585 36.5813 50.0748 29.5018 50.0748C27.7694 50.0748 26.5449 49.5541 25.4648 49.0949C24.372 48.63 23.4292 48.2295 21.8714 48.2295C21.0817 48.2295 20.0832 48.6028 19.0261 48.9991C17.5814 49.5383 15.9463 50.1506 14.0909 50.1506H14.0423Z" fill="#616161"/>
<path d="M30.2616 0.150391C30.446 6.79844 25.6916 11.4105 20.9427 11.1213C20.1602 5.81592 25.691 0.150391 30.2616 0.150391Z" fill="#616161"/>
</svg>
