<svg width="25" height="46" viewBox="0 0 25 46" fill="none" xmlns="http://www.w3.org/2000/svg">
<path d="M22.8289 11.1073H19.1567V2.20031C19.1567 1.33739 18.4574 0.638184 17.5945 0.638184C16.7316 0.638184 16.0324 1.33739 16.0324 2.20031V11.1073H8.6875V2.20031C8.6875 1.33739 7.98851 0.638184 7.12538 0.638184C6.26267 0.638184 5.56326 1.33739 5.56326 2.20031V11.1073H1.89123C1.02831 11.1073 0.329102 11.8065 0.329102 12.6695V23.1382C0.329102 29.2423 4.90008 34.2955 10.7985 35.0643V44.0761C10.7985 44.939 11.4975 45.6382 12.3606 45.6382C13.2233 45.6382 13.9227 44.939 13.9227 44.0761V35.0643C19.8204 34.2957 24.3912 29.2423 24.3912 23.1382V12.6695C24.391 11.8065 23.6918 11.1073 22.8289 11.1073ZM21.2668 23.138C21.2668 28.0491 17.2713 32.0446 12.3604 32.0446C7.44885 32.0446 3.45314 28.0491 3.45314 23.138V14.2316H21.2666V23.138H21.2668Z" fill="#616161"/>
</svg>
