<svg width="49" height="46" viewBox="0 0 49 46" fill="none" xmlns="http://www.w3.org/2000/svg">
<path d="M39.6516 12.3913C39.1311 9.29781 37.5994 6.47467 35.2568 4.33229C32.6539 1.94964 29.2701 0.638184 25.7462 0.638184C23.0232 0.638184 20.3702 1.41905 18.0977 2.89069C16.2056 4.11205 14.6338 5.76388 13.5226 7.70604C13.0421 7.61594 12.5415 7.56589 12.0409 7.56589C7.78621 7.56589 4.32236 11.0297 4.32236 15.2845C4.32236 15.8351 4.38243 16.3657 4.48254 16.8863C1.72948 18.8885 0.0576172 22.1121 0.0576172 25.5459C0.0576172 28.319 1.08876 31.012 2.97086 33.1443C4.90301 35.3268 7.45584 36.6182 10.1789 36.7684C10.2089 36.7684 10.2289 36.7684 10.259 36.7684H18.8685C19.6194 36.7684 20.22 36.1677 20.22 35.4169C20.22 34.666 19.6194 34.0654 18.8685 34.0654H10.299C6.20445 33.8151 2.76062 29.9207 2.76062 25.5359C2.76062 22.7027 4.28231 20.0598 6.73504 18.6282C7.30568 18.2978 7.54594 17.6071 7.3257 16.9864C7.12548 16.4458 7.02536 15.8751 7.02536 15.2645C7.02536 12.5014 9.27787 10.2489 12.0409 10.2489C12.6316 10.2489 13.2122 10.349 13.7528 10.5492C14.4136 10.7895 15.1444 10.4891 15.4447 9.85844C17.3168 5.88402 21.3613 3.32117 25.7562 3.32117C31.6628 3.32117 36.5382 7.74609 37.0988 13.6126C37.1589 14.2233 37.6194 14.7138 38.2201 14.8139C42.675 15.5748 46.0387 19.6894 46.0387 24.3846C46.0387 29.3601 42.1244 33.6849 37.299 34.0553H29.9208C29.17 34.0553 28.5693 34.656 28.5693 35.4069C28.5693 36.1577 29.17 36.7584 29.9208 36.7584H37.3491C37.3791 36.7584 37.4091 36.7584 37.4492 36.7584C40.5026 36.5381 43.3558 35.1366 45.4781 32.7939C47.5905 30.4714 48.7418 27.488 48.7418 24.3846C48.7317 18.7683 44.8975 13.7728 39.6516 12.3913Z" fill="#616161"/>
<path d="M32.5144 26.8275C33.045 26.2969 33.045 25.4459 32.5144 24.9153L25.3565 17.7574C25.1062 17.5071 24.7558 17.3569 24.4054 17.3569C24.055 17.3569 23.7046 17.4971 23.4543 17.7574L16.2964 24.9153C15.7658 25.4459 15.7658 26.2969 16.2964 26.8275C16.5567 27.0878 16.9071 27.2279 17.2474 27.2279C17.5878 27.2279 17.9382 27.0978 18.1985 26.8275L23.0539 21.9721V44.2869C23.0539 45.0377 23.6546 45.6384 24.4054 45.6384C25.1562 45.6384 25.7569 45.0377 25.7569 44.2869V21.9721L30.6123 26.8275C31.1329 27.3581 31.9838 27.3581 32.5144 26.8275Z" fill="#616161"/>
</svg>
