<svg width="46" height="46" viewBox="0 0 46 46" fill="none" xmlns="http://www.w3.org/2000/svg">
<path d="M40.2569 24.4565H44.4932C45.2212 24.4565 45.8115 23.8663 45.8115 23.1382V10.4292C45.8115 9.70111 45.2212 9.11084 44.4932 9.11084H33.1025V6.19287C33.1025 3.12997 30.6107 0.638184 27.5479 0.638184C24.485 0.638184 21.9932 3.13006 21.9932 6.19287V9.11084H10.6025C9.87445 9.11084 9.28418 9.70111 9.28418 10.4292V21.8198H6.36621C3.3034 21.8198 0.811523 24.3117 0.811523 27.3745C0.811523 30.4373 3.3034 32.9292 6.36621 32.9292H9.28418V44.3198C9.28418 45.0479 9.87445 45.6382 10.6025 45.6382H23.3115C24.0396 45.6382 24.6299 45.0479 24.6299 44.3198V40.0835C24.6299 38.4745 25.9389 37.1655 27.5479 37.1655C29.1568 37.1655 30.4658 38.4746 30.4658 40.0835V44.3198C30.4658 45.0479 31.0561 45.6382 31.7842 45.6382H44.4932C45.2212 45.6382 45.8115 45.0479 45.8115 44.3198V31.6108C45.8115 30.8828 45.2212 30.2925 44.4932 30.2925H40.2569C38.6478 30.2925 37.3389 28.9834 37.3389 27.3745C37.3389 25.7656 38.6478 24.4565 40.2569 24.4565ZM40.2569 32.9292H43.1748V43.0015H33.1025V40.0835C33.1025 37.0206 30.6107 34.5288 27.5479 34.5288C24.485 34.5288 21.9932 37.0206 21.9932 40.0835V43.0015H11.9209V31.6108C11.9209 30.8828 11.3306 30.2925 10.6025 30.2925H6.36621C4.7572 30.2925 3.44824 28.9834 3.44824 27.3745C3.44824 25.7656 4.75729 24.4565 6.36621 24.4565H10.6025C11.3306 24.4565 11.9209 23.8663 11.9209 23.1382V11.7476H23.3115C24.0396 11.7476 24.6299 11.1573 24.6299 10.4292V6.19287C24.6299 4.58386 25.9389 3.2749 27.5479 3.2749C29.1568 3.2749 30.4658 4.58395 30.4658 6.19287V10.4292C30.4658 11.1573 31.0561 11.7476 31.7842 11.7476H43.1748V21.8198H40.2569C37.1939 21.8198 34.7021 24.3117 34.7021 27.3745C34.7021 30.4373 37.1939 32.9292 40.2569 32.9292Z" fill="#616161"/>
</svg>
