<svg width="95" height="85" viewBox="0 0 95 85" fill="none" xmlns="http://www.w3.org/2000/svg">
<path d="M0.235817 43.5273C0.235817 63.5859 17.2378 84.2939 37.2964 84.2939C57.3549 84.2939 78.4336 68.7744 78.4336 48.7158C78.4336 28.6573 70.3261 0.537109 50.2675 0.537109C30.209 0.537109 0.235817 23.4688 0.235817 43.5273Z" fill="#35CEF0"/>
<path opacity="0.3" d="M94.4322 41.3037C94.4322 21.2452 77.4302 0.537117 57.3716 0.537117C37.3131 0.537117 16.2344 16.0567 16.2344 36.1152C16.2344 56.1738 24.3419 84.2939 44.4004 84.2939C64.459 84.2939 94.4322 61.3623 94.4322 41.3037Z" fill="#35CEF0"/>
<path d="M34.9445 33.4577C34.3078 33.9082 33.7622 34.4753 33.3365 35.1289C33.2862 35.206 33.2516 35.2922 33.2347 35.3827C33.2177 35.4732 33.2187 35.5661 33.2377 35.6562C33.2566 35.7463 33.2931 35.8317 33.3451 35.9077C33.3971 35.9836 33.4635 36.0486 33.5406 36.0989C33.6177 36.1492 33.704 36.1838 33.7944 36.2008C33.8849 36.2178 33.9778 36.2167 34.0679 36.1978C34.158 36.1788 34.2434 36.1423 34.3194 36.0904C34.3954 36.0384 34.4604 35.9719 34.5107 35.8949C34.84 35.3888 35.2623 34.9497 35.7551 34.6009C35.9054 34.4929 36.0069 34.3298 36.0374 34.1472C36.0679 33.9646 36.0249 33.7774 35.9179 33.6264C35.8109 33.4754 35.6485 33.3729 35.4661 33.3412C35.2837 33.3095 35.0962 33.3512 34.9445 33.4572V33.4577Z" fill="white"/>
<path d="M22.2501 63.513H17.1125V31.4046C17.1125 31.3929 17.1142 31.3821 17.1142 31.3707C17.1142 25.8274 21.3906 21.3176 26.647 21.3176C31.7001 21.3176 35.8455 25.4863 36.1585 30.7336C34.6567 30.9121 33.2723 31.6347 32.2672 32.7648C31.2621 33.8949 30.7059 35.3541 30.7038 36.8665V37.9616C30.7038 38.1475 30.7777 38.3258 30.9091 38.4572C31.0405 38.5887 31.2188 38.6625 31.4047 38.6625H34.5237C34.8335 39.784 35.8353 40.6123 37.0087 40.6123C38.182 40.6123 39.1837 39.7844 39.4933 38.6625H42.3564C42.5423 38.6625 42.7206 38.5887 42.852 38.4572C42.9835 38.3258 43.0573 38.1475 43.0573 37.9616V36.8665C43.0553 35.3473 42.4942 33.882 41.4811 32.7499C40.468 31.6179 39.0737 30.8983 37.564 30.7284C37.245 24.7097 32.4708 19.9155 26.6471 19.9155C20.6378 19.9155 15.7458 25.0204 15.7131 31.3076C15.7119 31.3239 15.7106 31.3401 15.7106 31.3566V63.5127H11.2986C11.1127 63.5127 10.9344 63.5866 10.8029 63.718C10.6715 63.8495 10.5977 64.0277 10.5977 64.2136C10.5977 64.3995 10.6715 64.5778 10.8029 64.7092C10.9344 64.8407 11.1127 64.9145 11.2986 64.9145H22.2501C22.436 64.9145 22.6143 64.8407 22.7457 64.7092C22.8772 64.5778 22.951 64.3995 22.951 64.2136C22.951 64.0277 22.8772 63.8495 22.7457 63.718C22.6143 63.5866 22.436 63.5127 22.2501 63.5127V63.513ZM37.0085 39.2107C36.8143 39.2076 36.6239 39.1558 36.4549 39.0601C36.2858 38.9644 36.1435 38.8277 36.0409 38.6628H37.976C37.8734 38.8277 37.7311 38.9643 37.5621 39.0601C37.3931 39.1558 37.2028 39.2076 37.0085 39.2107ZM41.6554 36.8665V37.2607H32.1056V36.8665C32.1056 35.6001 32.6087 34.3856 33.5041 33.4901C34.3996 32.5946 35.6141 32.0916 36.8805 32.0916C38.1469 32.0916 39.3614 32.5946 40.2569 33.4901C41.1523 34.3856 41.6554 35.6001 41.6554 36.8665Z" fill="white"/>
<path d="M64.7613 52.684V48.0464C64.7543 47.2642 64.4374 46.5167 63.88 45.9679C63.3227 45.4191 62.5704 45.1138 61.7882 45.119H48.9624C48.5719 45.117 48.1849 45.1927 47.8239 45.3417C47.4629 45.4906 47.1352 45.7099 46.8597 45.9867C46.802 46.0451 46.7477 46.1051 46.6955 46.167C46.4145 45.8377 46.0653 45.5735 45.6721 45.3925C45.2789 45.2115 44.8511 45.1182 44.4182 45.119H31.5195C30.7374 45.1138 29.9851 45.4191 29.4277 45.9679C28.8703 46.5167 28.5533 47.2642 28.5463 48.0464V52.6973C27.7073 52.7716 26.9261 53.1555 26.3548 53.7744C25.7835 54.3933 25.4631 55.2027 25.4561 56.045V64.2148C25.4561 64.4007 25.5299 64.5789 25.6613 64.7104C25.7928 64.8418 25.9711 64.9157 26.157 64.9157H31.5912C31.777 64.9157 31.9553 64.8418 32.0868 64.7104C32.2182 64.5789 32.2921 64.4007 32.2921 64.2148V63.2811L61.2356 63.2899V64.2148C61.2356 64.4007 61.3095 64.5789 61.4409 64.7104C61.5724 64.8418 61.7506 64.9157 61.9365 64.9157H67.3706C67.5565 64.9157 67.7348 64.8418 67.8662 64.7104C67.9977 64.5789 68.0715 64.4007 68.0715 64.2148V56.0446C68.0636 55.1644 67.7138 54.3218 67.0961 53.6948C66.4785 53.0677 65.6412 52.7053 64.7613 52.684ZM47.8526 46.9756C47.9982 46.8299 48.1713 46.7146 48.3618 46.6364C48.5523 46.5582 48.7565 46.5187 48.9624 46.5201H61.7882C62.1987 46.5146 62.5946 46.6721 62.8892 46.9581C63.1838 47.2441 63.3529 47.6352 63.3595 48.0457V52.932C62.7357 53.1801 62.2002 53.6089 61.8218 54.1634C61.4433 54.718 61.2392 55.3729 61.2356 56.0443V56.3188L47.395 56.3153L47.3967 48.1162C47.3933 47.9054 47.4319 47.696 47.5101 47.5002C47.5884 47.3043 47.7048 47.126 47.8526 46.9756ZM31.5195 46.5201H44.418C44.8286 46.5146 45.2247 46.6722 45.5192 46.9583C45.8138 47.2445 45.9829 47.6358 45.9893 48.0464L45.9924 56.3149L32.2921 56.3112V56.0447C32.2877 55.3335 32.0587 54.6418 31.6377 54.0685C31.2168 53.4952 30.6254 53.0696 29.9481 52.8525V48.0464C29.9547 47.6358 30.1238 47.2446 30.4184 46.9585C30.713 46.6725 31.109 46.5149 31.5195 46.5204V46.5201ZM30.8903 63.5132H26.8579V56.0446C26.8723 55.5195 27.091 55.0206 27.4676 54.6543C27.8441 54.288 28.3487 54.083 28.8741 54.083C29.3994 54.083 29.904 54.288 30.2806 54.6543C30.6571 55.0206 30.8758 55.5195 30.8903 56.0446V63.5132ZM32.2921 61.8786V57.7129L46.693 57.7168H46.694L61.2355 57.7209V61.8878L32.2921 61.8786ZM66.6697 63.5135H62.6374V56.0446C62.6513 55.5191 62.8698 55.0198 63.2464 54.653C63.623 54.2862 64.1279 54.0809 64.6536 54.0809C65.1793 54.0809 65.6842 54.2862 66.0608 54.653C66.4374 55.0198 66.6559 55.5191 66.6697 56.0446V63.5135Z" fill="white"/>
</svg>
