<svg width="70" height="80" viewBox="0 0 70 80" fill="none" xmlns="http://www.w3.org/2000/svg">
<path d="M0.244675 56.0562C0.244675 75.215 29.5954 79.0043 48.7542 79.0043C67.9131 79.0043 69.0889 67.0722 69.0889 47.9133C69.0889 28.7545 56.4166 0.537354 37.2577 0.537354C18.0989 0.537354 0.244675 36.8974 0.244675 56.0562Z" fill="#F05635"/>
<path opacity="0.3" d="M69.0893 23.4853C69.0893 4.32645 39.7386 0.537193 20.5798 0.537193C1.42091 0.537193 0.245117 12.4693 0.245117 31.6282C0.245117 50.787 12.9174 79.0042 32.0763 79.0042C51.2351 79.0042 69.0893 42.6441 69.0893 23.4853Z" fill="#F05635"/>
<path d="M55.4195 38.5936C53.7626 37.4149 51.6267 37.1103 49.7061 37.7781L49.3411 37.905C49.1973 36.9108 48.3397 36.1443 47.3062 36.1443H40.6926C40.3139 36.1443 40.0071 36.4511 40.0071 36.8298C40.0071 37.2084 40.3139 37.5153 40.6926 37.5153H47.3062C47.6842 37.5153 47.9917 37.8227 47.9917 38.2008V42.9508C47.9917 50.832 41.58 57.2437 33.6988 57.2437H30.7822C27.0402 57.2437 23.5021 55.8074 20.8196 53.1995C20.5481 52.9355 20.1141 52.9419 19.8502 53.2131C19.5864 53.4846 19.5925 53.9186 19.8638 54.1825C21.1929 55.4746 22.714 56.5032 24.3604 57.2436H11.955C11.5764 57.2436 11.2695 57.5504 11.2695 57.9291C11.2695 60.3229 13.2171 62.2705 15.611 62.2705H42.4795C42.8581 62.2705 43.1649 61.9637 43.1649 61.585C43.1649 61.2064 42.8581 60.8995 42.4795 60.8995H15.611C14.2089 60.8995 13.0306 59.9231 12.7203 58.6146H51.7614C51.6364 59.1461 51.3659 59.6342 50.9697 60.0303C50.41 60.5909 49.6644 60.8995 48.87 60.8995H45.4673C45.0886 60.8995 44.7818 61.2064 44.7818 61.585C44.7818 61.9637 45.0886 62.2705 45.4673 62.2705H48.87C50.0309 62.2705 51.1212 61.819 51.9395 60.9995C52.7597 60.1792 53.2114 59.0888 53.2114 57.9291C53.2114 57.5504 52.9046 57.2436 52.5259 57.2436H40.1052C42.3464 56.2351 44.3088 54.7142 45.8436 52.8315C47.1114 53.6302 48.5983 54.0647 50.0976 54.0647C51.4391 54.0647 52.7704 53.7211 53.9477 53.071C56.4877 51.6688 58.0657 48.9958 58.0657 46.0949V43.7211C58.0657 41.6875 57.0763 39.7706 55.4195 38.5936ZM49.3627 42.9508V42.5359L51.146 41.9153C51.7372 41.709 52.3699 41.7994 52.8817 42.163C53.3927 42.5267 53.6858 43.0945 53.6858 43.7212V46.095C53.6858 47.4012 52.9754 48.605 51.8321 49.2365C50.653 49.8869 49.2205 49.8209 48.1115 49.0838C48.9165 47.1991 49.3627 45.1261 49.3627 42.9508ZM56.6947 46.0949C56.6947 48.4966 55.3882 50.7098 53.285 51.8707C52.31 52.4091 51.2078 52.6938 50.0975 52.6938C48.8725 52.6938 47.6988 52.3612 46.6657 51.7287C46.972 51.2777 47.2549 50.8099 47.5136 50.3271C48.3024 50.809 49.1974 51.0549 50.0975 51.0548C50.9187 51.0548 51.7438 50.8509 52.4945 50.4368C54.0749 49.5638 55.0567 47.9002 55.0567 46.0949V43.7211C55.0567 42.6451 54.5536 41.67 53.6761 41.0455C52.7972 40.4211 51.7105 40.2662 50.6948 40.6207L49.3627 41.0843V39.349L50.1564 39.0731C51.6586 38.5506 53.329 38.789 54.6252 39.7109C55.921 40.6316 56.6947 42.1307 56.6947 43.7211V46.0949Z" fill="white"/>
<path d="M16.0837 48.3798C16.4263 49.3066 16.8607 50.2076 17.3749 51.0579C17.5038 51.271 17.7302 51.3888 17.9622 51.3888C18.083 51.3888 18.2054 51.3568 18.3162 51.2898C18.6402 51.0938 18.7441 50.6724 18.5481 50.3485C18.0787 49.5723 17.6822 48.75 17.3697 47.9046C17.1558 47.326 16.9782 46.7258 16.8414 46.1197C16.607 45.0857 16.4882 44.0196 16.4882 42.9508V38.2008C16.4882 37.8227 16.7956 37.5153 17.1737 37.5153H37.7055C38.0841 37.5153 38.391 37.2084 38.391 36.8298C38.391 36.4511 38.0841 36.1443 37.7055 36.1443H17.1737C16.0398 36.1443 15.1172 37.0669 15.1172 38.2008V42.9508C15.1172 44.1214 15.2475 45.2896 15.5042 46.4222C15.6542 47.0863 15.849 47.7449 16.0837 48.3798Z" fill="white"/>
<path d="M31.3586 32.5463C31.146 32.8595 31.2274 33.2858 31.5406 33.4985C31.6585 33.5785 31.7925 33.6169 31.9251 33.6169C32.1445 33.6169 32.3602 33.5117 32.4928 33.3164C35.5548 28.807 33.8229 26.5744 32.4311 24.7807C31.1 23.0648 30.0486 21.7096 32.4804 18.3588C32.7029 18.0523 32.6347 17.6238 32.3283 17.4014C32.0218 17.1788 31.5933 17.2471 31.3709 17.5535C28.3346 21.7369 29.9355 23.8004 31.3479 25.621C32.6966 27.3593 33.8612 28.8605 31.3586 32.5463Z" fill="white"/>
<path d="M24.1212 29.5579C23.8816 29.8511 23.925 30.283 24.2183 30.5225C24.3457 30.6266 24.499 30.6772 24.6516 30.6772C24.8503 30.6772 25.0473 30.5913 25.1829 30.4255C27.5959 27.4725 26.1687 25.9442 25.1267 24.828C24.1602 23.7929 23.5768 23.1682 25.1683 21.3461C25.4174 21.061 25.3882 20.628 25.103 20.3789C24.818 20.1299 24.3849 20.1591 24.1358 20.4443C21.7297 23.1987 23.1139 24.6812 24.1246 25.7637C25.1191 26.829 25.7762 27.5327 24.1212 29.5579Z" fill="white"/>
<path d="M38.6681 29.5579C38.4285 29.8511 38.4719 30.283 38.7651 30.5225C38.8925 30.6266 39.0459 30.6772 39.1985 30.6772C39.3972 30.6772 39.5942 30.5913 39.7298 30.4255C42.1428 27.4725 40.7157 25.9441 39.6736 24.828C38.7071 23.7929 38.1238 23.1681 39.7152 21.3461C39.9643 21.061 39.935 20.628 39.6499 20.3789C39.3649 20.1299 38.9318 20.1591 38.6827 20.4443C36.2766 23.1987 37.6608 24.6811 38.6715 25.7637C39.666 26.829 40.3232 27.5327 38.6681 29.5579Z" fill="white"/>
</svg>
