<svg width="100" height="81" viewBox="0 0 100 81" fill="none" xmlns="http://www.w3.org/2000/svg">
<path d="M0.238831 22.7839C0.238831 41.9428 22.8031 80.6624 41.9619 80.6624C61.1208 80.6624 89.7578 60.8831 89.7578 41.7243C89.7578 22.5655 73.5101 0.662354 54.3513 0.662354C35.1925 0.662354 0.238831 3.62509 0.238831 22.7839Z" fill="#418BFA"/>
<path opacity="0.2" d="M99.7592 22.7839C99.7592 41.9428 77.195 80.6624 58.0361 80.6624C38.8773 80.6624 10.2402 60.8831 10.2402 41.7243C10.2402 22.5655 26.4879 0.662354 45.6467 0.662354C64.8056 0.662354 99.7592 3.62509 99.7592 22.7839Z" fill="#418BFA"/>
<path d="M67.9983 25.6624H21.9981C21.4461 25.6624 20.998 26.1104 20.998 26.6624C20.998 27.2144 21.4461 27.6624 21.9981 27.6624H67.9984C68.5504 27.6624 68.9984 27.2144 68.9984 26.6624C68.9984 26.1104 68.5503 25.6624 67.9983 25.6624Z" fill="white"/>
<path d="M67.9983 39.6626H21.9981C21.4461 39.6626 20.998 40.1106 20.998 40.6626C20.998 41.2147 21.4461 41.6627 21.9981 41.6627H67.9984C68.5504 41.6627 68.9984 41.2147 68.9984 40.6626C68.9984 40.1106 68.5503 39.6626 67.9983 39.6626Z" fill="white"/>
<path d="M67.9983 53.6626H21.9981C21.4461 53.6626 20.998 54.1105 20.998 54.6625C20.998 55.2145 21.4461 55.6626 21.9981 55.6626H67.9984C68.5504 55.6626 68.9984 55.2145 68.9984 54.6625C68.9984 54.1105 68.5503 53.6626 67.9983 53.6626Z" fill="white"/>
</svg>
