<svg width="96" height="85" viewBox="0 0 96 85" fill="none" xmlns="http://www.w3.org/2000/svg">
<path d="M0.903786 43.6526C0.903786 63.7111 17.9058 84.4192 37.9643 84.4192C58.0229 84.4192 79.1016 68.8996 79.1016 48.8411C79.1016 28.7825 70.9941 0.662354 50.9355 0.662354C30.877 0.662354 0.903786 23.594 0.903786 43.6526Z" fill="#35CEF0"/>
<path opacity="0.3" d="M95.0991 41.429C95.0991 21.3704 78.0972 0.662361 58.0386 0.662361C37.98 0.662361 16.9014 16.1819 16.9014 36.2405C16.9014 56.299 25.0089 84.4192 45.0674 84.4192C65.126 84.4192 95.0991 61.4875 95.0991 41.429Z" fill="#35CEF0"/>
<path d="M30.4821 49.3435C27.0192 49.3435 24.2031 52.1596 24.2031 55.6225C24.2031 59.0853 27.0192 61.9014 30.4821 61.9014C33.9449 61.9014 36.761 59.0853 36.761 55.6225C36.761 52.1596 33.9448 49.3435 30.4821 49.3435ZM30.4821 59.8084C28.1735 59.8084 26.2962 57.931 26.2962 55.6225C26.2962 53.3138 28.1736 51.4365 30.4821 51.4365C32.7906 51.4365 34.668 53.314 34.668 55.6225C34.668 57.931 32.7906 59.8084 30.4821 59.8084Z" fill="white"/>
<path d="M66.0631 49.3435C62.6003 49.3435 59.7842 52.1596 59.7842 55.6225C59.7842 59.0853 62.6003 61.9014 66.0631 61.9014C69.526 61.9014 72.3421 59.0853 72.3421 55.6225C72.3421 52.1596 69.526 49.3435 66.0631 49.3435ZM66.0631 59.8084C63.7545 59.8084 61.8772 57.931 61.8772 55.6225C61.8772 53.3138 63.7546 51.4365 66.0631 51.4365C68.3718 51.4365 70.2491 53.314 70.2491 55.6225C70.2491 57.931 68.3718 59.8084 66.0631 59.8084Z" fill="white"/>
<path d="M78.454 43.5444L69.0356 28.8935C68.8431 28.5941 68.5113 28.4131 68.1554 28.4131H56.6441C56.0654 28.4131 55.5977 28.8819 55.5977 29.4595V55.6218C55.5977 56.2005 56.0654 56.6683 56.6441 56.6683H60.83V54.5752H57.6906V30.5061H67.5841L76.5274 44.4182V54.5755H71.2949V56.6684H77.5739C78.1526 56.6684 78.6203 56.2006 78.6203 55.6219V44.1105C78.6204 43.9106 78.5629 43.7128 78.454 43.5444Z" fill="white"/>
<path d="M61.8771 42.0171V34.6917H70.2491V32.5986H60.8306C60.2519 32.5986 59.7842 33.0675 59.7842 33.6451V43.0635C59.7842 43.6423 60.2519 44.11 60.8306 44.11H76.528V42.017H61.8771V42.0171Z" fill="white"/>
<path d="M56.6452 21.0874H16.8785C16.3009 21.0874 15.832 21.5562 15.832 22.1339V55.6217C15.832 56.2004 16.3009 56.6681 16.8785 56.6681H25.2505V54.5751H17.9251V23.1803H55.5988V54.5751H35.7153V56.6681H56.6452C57.224 56.6681 57.6917 56.2004 57.6917 55.6217V22.1339C57.6917 21.5562 57.224 21.0874 56.6452 21.0874Z" fill="white"/>
<path d="M23.1588 50.3894H16.8799V52.4824H23.1588V50.3894Z" fill="white"/>
<path d="M55.599 50.3894H37.8086V52.4824H55.599V50.3894Z" fill="white"/>
<path d="M77.5756 50.3894H73.3896V52.4824H77.5756V50.3894Z" fill="white"/>
<path d="M56.6468 25.2734H20.0195V27.3665H56.6468V25.2734Z" fill="white"/>
<path d="M31.5276 54.5754H29.4346V56.6685H31.5276V54.5754Z" fill="white"/>
<path d="M67.1126 54.5754H65.0195V56.6685H67.1126V54.5754Z" fill="white"/>
<path d="M34.6705 16.9011H20.0195V18.9941H34.6705V16.9011Z" fill="white"/>
<path d="M17.9251 16.9011H15.832V18.9941H17.9251V16.9011Z" fill="white"/>
</svg>
