<svg width="98" height="102" viewBox="0 0 98 102" fill="none" xmlns="http://www.w3.org/2000/svg">
<path d="M15.9785 66.4981C22.7378 83.8428 44.4175 96.0198 61.7621 89.2605C79.1068 82.5013 92.1038 61.9785 85.3446 44.6339C78.5853 27.2892 40.9639 11.5055 23.6193 18.2648C6.27469 25.024 9.21931 49.1535 15.9785 66.4981Z" fill="#F0BB35"/>
<path opacity="0.3" d="M82.0234 66.4981C75.2642 83.8428 53.5844 96.0198 36.2398 89.2605C18.8952 82.5013 5.89816 61.9785 12.6574 44.6339C19.4166 27.2892 57.038 11.5055 74.3826 18.2648C91.7273 25.024 88.7826 49.1535 82.0234 66.4981Z" fill="#F0BB35"/>
<path d="M73.5581 40.8516C73.5466 40.8395 73.5348 40.8277 73.5227 40.8163L63.2738 31.7072C63.1803 31.622 63.0712 31.5558 62.9523 31.5124L55.5384 28.8625C55.0327 28.6788 54.4738 28.94 54.2902 29.4458C54.2571 29.537 54.2378 29.6326 54.233 29.7295C54.233 29.9439 53.9115 34.8832 48.9721 34.9611C44.0036 34.8832 43.6918 29.9439 43.6821 29.7295C43.6533 29.1922 43.1945 28.78 42.6572 28.8088C42.5649 28.8138 42.4736 28.8318 42.3863 28.8625L34.9822 31.5416C34.8633 31.5851 34.7542 31.6512 34.6607 31.7364L24.48 40.8163C24.0899 41.1868 24.0741 41.8035 24.4447 42.1936C24.4561 42.2056 24.4679 42.2175 24.48 42.2289L32.5856 50.4222V72.8295C32.5856 73.3675 33.0218 73.8037 33.5598 73.8037H64.4429C64.9809 73.8037 65.4171 73.3675 65.4171 72.8295V50.4222L73.5227 42.2289C73.9128 41.8583 73.9286 41.2418 73.5581 40.8516ZM65.3879 47.6456V43.1252C65.3879 42.5872 64.9517 42.151 64.4137 42.151C63.8757 42.151 63.4394 42.5872 63.4394 43.1252V71.8065H34.4951V43.1252C34.4951 42.5872 34.0589 42.151 33.5208 42.151C32.9828 42.151 32.5466 42.5872 32.5466 43.1252V47.6554L26.5551 41.5859L35.8298 33.2855L41.9284 31.0837C42.684 34.9765 46.4522 37.5198 50.3449 36.7643C53.2198 36.2063 55.4676 33.9585 56.0256 31.0837L62.1242 33.2855L71.3697 41.5859L65.3879 47.6456Z" fill="white"/>
</svg>
