<svg width="86" height="81" viewBox="0 0 86 81" fill="none" xmlns="http://www.w3.org/2000/svg">
<path d="M0.655403 41.5991C0.655403 60.7579 16.8948 80.5371 36.0536 80.5371C55.2125 80.5371 75.3457 65.7137 75.3457 46.5548C75.3457 27.396 67.6019 0.537109 48.443 0.537109C29.2842 0.537109 0.655403 22.4402 0.655403 41.5991Z" fill="#7141FA"/>
<path opacity="0.3" d="M85.3456 39.4752C85.3456 20.3163 69.1062 0.537109 49.9473 0.537109C30.7885 0.537109 10.6553 15.3606 10.6553 34.5194C10.6553 53.6783 18.3991 80.5371 37.558 80.5371C56.7168 80.5371 85.3456 58.634 85.3456 39.4752Z" fill="#7141FA"/>
<path d="M63.7613 28.7332L55.1076 18.3487C54.9432 18.1523 54.7001 18.0381 54.443 18.0381H21.5587C21.3017 18.0381 21.0585 18.1515 20.8941 18.3487L12.2403 28.7332C12.0248 28.9911 11.9781 29.3502 12.1209 29.6539C12.2637 29.9576 12.5691 30.1524 12.9049 30.1524H63.0966C63.4324 30.1524 63.7378 29.9576 63.8806 29.6539C64.0227 29.3511 63.9768 28.9919 63.7613 28.7332ZM14.7526 28.4217L21.9637 19.768H54.0371L61.2483 28.4217H14.7526Z" fill="white"/>
<path d="M38.8008 18.571C38.6667 18.2474 38.3509 18.0371 38.0012 18.0371H21.5591C21.2493 18.0371 20.9637 18.2024 20.8089 18.4716C20.654 18.7407 20.6548 19.0704 20.8115 19.3386L26.8691 29.7231C27.0041 29.9541 27.2386 30.1108 27.5051 30.1454C27.5424 30.1498 27.5796 30.1523 27.6159 30.1523C27.8444 30.1523 28.065 30.0623 28.2286 29.8988L38.6131 19.5143C38.8606 19.2668 38.935 18.8946 38.8008 18.571ZM27.7976 27.8816L23.0649 19.7679H35.9113L27.7976 27.8816Z" fill="white"/>
<path d="M63.871 28.9032C63.7255 28.608 63.4244 28.4211 63.0956 28.4211H12.9039C12.575 28.4211 12.2747 28.608 12.1285 28.9032C11.983 29.1983 12.0168 29.5505 12.2167 29.8118L37.3126 62.6961C37.4762 62.9107 37.7306 63.037 38.0006 63.037C38.2705 63.037 38.525 62.9107 38.6868 62.6961L63.7827 29.8118C63.9826 29.5505 64.0163 29.1983 63.871 28.9032ZM38.0006 60.7455L14.6536 30.1528H61.3475L38.0006 60.7455Z" fill="white"/>
<path d="M38.8273 61.9103L28.4428 29.0261C28.3286 28.6661 27.9954 28.4211 27.6172 28.4211H12.9058C12.5769 28.4211 12.2767 28.608 12.1304 28.9032C11.985 29.1983 12.0188 29.5505 12.2187 29.8118L37.3146 62.6961C37.4824 62.9167 37.7395 63.037 38.0025 63.037C38.1375 63.037 38.2742 63.0059 38.4006 62.9383C38.7737 62.7455 38.9536 62.311 38.8273 61.9103ZM14.6547 30.1528H26.9829L35.6851 57.7099L14.6547 30.1528Z" fill="white"/>
<path d="M55.1947 18.4716C55.0407 18.2024 54.7543 18.0371 54.4445 18.0371H38.0023C37.6527 18.0371 37.3368 18.2474 37.2027 18.571C37.0685 18.8946 37.1429 19.2668 37.3905 19.5143L47.775 29.8988C47.9376 30.0623 48.1583 30.1523 48.3868 30.1523C48.424 30.1523 48.4612 30.1497 48.4985 30.1454C48.7641 30.1108 48.9995 29.9551 49.1345 29.7231L55.1921 19.3386C55.3479 19.0704 55.3488 18.7407 55.1947 18.4716ZM48.2051 27.8816L40.0913 19.7679H52.9377L48.2051 27.8816Z" fill="white"/>
<path d="M63.8718 28.9046C63.7264 28.6095 63.4253 28.4226 63.0964 28.4226H48.385C48.0068 28.4226 47.6728 28.6675 47.5594 29.0275L37.1749 61.9118C37.0486 62.3116 37.2286 62.746 37.6015 62.9399C37.7279 63.0056 37.8646 63.0368 37.9996 63.0368C38.2618 63.0368 38.5188 62.9166 38.6876 62.6976L63.7835 29.8134C63.9834 29.5518 64.0171 29.1996 63.8718 28.9046ZM40.3163 57.7094L49.0185 30.1524H61.3467L40.3163 57.7094Z" fill="white"/>
</svg>
