<svg width="97" height="101" viewBox="0 0 97 101" fill="none" xmlns="http://www.w3.org/2000/svg">
<path d="M15.3096 65.6576C22.0688 83.0022 43.7486 95.1792 61.0932 88.4199C78.4378 81.6607 91.4349 61.1379 84.6756 43.7933C77.9164 26.4487 40.295 10.665 22.9504 17.4242C5.60574 24.1834 8.55036 48.3129 15.3096 65.6576Z" fill="#FF7337"/>
<path opacity="0.3" d="M81.3545 65.6576C74.5952 83.0022 52.9155 95.1792 35.5709 88.4199C18.2262 81.6607 5.22921 61.1379 11.9885 43.7933C18.7477 26.4487 56.3691 10.665 73.7137 17.4242C91.0583 24.1834 88.1137 48.3129 81.3545 65.6576Z" fill="#FF7337"/>
<path d="M62.2877 35.7895C63.0981 35.7895 63.7551 35.1325 63.7551 34.3221C63.7551 33.5117 63.0981 32.8547 62.2877 32.8547C61.4773 32.8547 60.8203 33.5117 60.8203 34.3221C60.8203 35.1325 61.4773 35.7895 62.2877 35.7895Z" fill="white"/>
<path d="M73.0166 33.8327C70.7506 33.8327 68.8054 33.9922 66.9268 32.1135L64.4955 29.6823C63.3944 28.5815 61.9018 27.9631 60.3449 27.9631H53.5191H53.478C51.9184 27.9631 50.4229 28.5812 49.3181 29.6822L49.2823 29.7179L44.7024 34.2976C43.7475 35.2524 43.2112 36.5475 43.2112 37.8979V39.435C43.2112 42.2203 45.4218 45.0935 48.1771 45.5043C48.4828 45.5498 48.7842 45.5718 49.0808 45.5718V45.9626C44.2592 48.7414 34.3662 54.3449 32.4074 56.289C30.7589 57.9381 29.5155 60.5453 29.5155 63.1805C29.5155 64.3568 29.6694 65.5531 30.3533 67.1084L24.6242 67.0936C23.0035 67.0936 21.6895 68.4076 21.6895 70.0284C21.6895 71.6491 23.0035 72.9631 24.6242 72.9631H49.0517C50.5051 72.9631 51.5126 71.4023 50.81 70.1301C50.1842 68.9975 49.1955 68.0941 48.0008 67.5756C48.6728 66.2408 49.063 65.1361 50.7488 65.1361H52.9938V71.0066C52.9938 72.0871 53.8698 72.9631 54.9503 72.9631H62.2294C63.7298 72.9631 64.6994 71.3268 63.9419 70.0312C63.0401 68.4881 61.4476 67.3982 59.5879 67.1666L60.023 63.6857C62.375 62.242 64.1079 59.8433 64.5847 57.0665C65.2515 53.181 63.5974 49.6718 60.8198 47.5727V43.6152H66.6893C68.8417 43.6152 71.5085 42.1051 72.6158 40.2595C73.0825 39.482 74.9807 36.6626 74.9759 35.7823C74.9707 34.7658 74.1572 33.8327 73.0166 33.8327ZM49.0722 43.5944C46.6801 43.5944 45.1677 41.5681 45.1677 39.4847V37.8984C45.1677 37.0851 45.4782 36.2886 46.0858 35.6812L50.6657 31.1016C51.2804 30.487 52.1054 30.078 52.9938 29.9691V39.7023C52.9938 41.7951 51.3085 43.5944 49.0722 43.5944ZM24.6242 71.0066C24.085 71.0066 23.646 70.5677 23.646 70.0284C23.646 69.489 24.085 69.0501 24.619 69.0501C31.7043 69.0684 29.9473 69.0638 31.5345 69.0679C32.2592 70.0195 32.3771 70.1805 33.4868 71.0066H24.6242ZM70.9383 39.253C70.1443 40.5761 68.2322 41.6588 66.6894 41.6588H61.6992C60.4258 41.6588 59.35 40.8385 58.9446 39.7023H56.9068C57.1572 40.9308 57.8794 41.9801 58.8634 42.6867V48.5466C61.6816 50.677 63.2798 53.1036 62.6564 56.7356C62.1612 59.6197 60.4166 61.1484 58.1984 62.5101C57.7283 66.2704 57.586 67.4075 57.4036 68.8664C59.3768 69.1121 61.1542 69.1159 62.2294 71.0067C58.1382 71.0067 59.0324 71.0067 54.9503 71.0067C54.9503 66.3162 54.9503 65.9381 54.9503 61.2241H52.9938V63.1797C52.4756 63.1797 52.0632 63.1797 50.7488 63.1797C50.145 63.1797 49.5819 63.3399 49.0479 63.5655C49.1439 60.9068 48.1819 58.2303 46.2148 56.263L44.8314 57.6464C47.7322 60.5486 47.5547 64.7942 45.9014 67.3841L45.3148 68.5437C46.8367 69.2037 48.2955 69.6158 49.0515 71.0067H39.2923C34.9574 71.0028 31.5339 67.5112 31.4825 63.2861C31.4409 60.9453 32.5028 58.524 34.6523 56.9228C36.8057 55.3189 48.7106 48.434 51.0373 47.0933C51.0373 46.5612 51.0383 45.7184 51.0358 45.2128C53.311 44.4045 54.9503 42.2547 54.9503 39.7023V29.9197H60.3456C61.3835 29.9197 62.3785 30.3319 63.1122 31.0657L65.5431 33.4968C66.9363 34.8901 68.7683 35.6671 70.7238 35.7546C70.9306 36.4659 71.4116 37.0528 72.0498 37.4004L70.9383 39.253Z" fill="white"/>
</svg>
