<svg width="86" height="81" viewBox="0 0 86 81" fill="none" xmlns="http://www.w3.org/2000/svg">
<path d="M0.322395 41.7243C0.322395 60.8831 16.5618 80.6624 35.7206 80.6624C54.8795 80.6624 75.0127 65.8389 75.0127 46.6801C75.0127 27.5212 67.2689 0.662354 48.11 0.662354C28.9512 0.662354 0.322395 22.5655 0.322395 41.7243Z" fill="#41D9FA"/>
<path d="M0.322395 41.7243C0.322395 60.8831 16.5618 80.6624 35.7206 80.6624C54.8795 80.6624 75.0127 65.8389 75.0127 46.6801C75.0127 27.5212 67.2689 0.662354 48.11 0.662354C28.9512 0.662354 0.322395 22.5655 0.322395 41.7243Z" fill="#FA419A"/>
<path opacity="0.3" d="M85.0126 39.6004C85.0126 20.4416 68.7732 0.662354 49.6143 0.662354C30.4555 0.662354 10.3223 15.4858 10.3223 34.6447C10.3223 53.8035 18.0661 80.6624 37.225 80.6624C56.3838 80.6624 85.0126 58.7593 85.0126 39.6004Z" fill="#FA419A"/>
<path d="M34.9154 28.3641C35.1505 28.3641 35.3721 28.2531 35.5126 28.0646C35.6534 27.8761 35.6971 27.6327 35.6301 27.407C35.0959 25.5827 34.1726 23.896 32.9233 22.4636C31.9167 21.3926 30.4185 20.9341 28.985 21.2583C28.787 21.334 28.6309 21.4905 28.5552 21.6885C28.5141 21.7998 28.4835 21.9148 28.4642 22.032C28.4413 22.171 28.4289 22.3115 28.4268 22.4523V22.4643C28.4359 23.6529 28.9148 24.7897 29.7594 25.6264C31.1918 26.8746 32.8774 27.7975 34.7007 28.3314C34.7705 28.3521 34.8426 28.3634 34.9154 28.3641ZM30.8162 24.571C30.5204 24.2748 30.2882 23.9207 30.1335 23.5313V23.524C30.1008 23.4414 30.0724 23.3585 30.048 23.2788C30.0353 23.2355 30.0262 23.1947 30.0152 23.1521C30.004 23.1095 29.9941 23.0775 29.9869 23.0404C29.9792 23.0029 29.9778 22.988 29.9727 22.9614C29.9508 22.8501 29.9356 22.7376 29.9272 22.6244C30.6623 22.6801 31.3526 22.9975 31.8738 23.5189C32.6147 24.3567 33.2119 25.3112 33.6409 26.3444C32.6067 25.9139 31.6507 25.3145 30.8126 24.571H30.8162Z" fill="white"/>
<path d="M57.7903 28.8786H46.2858C46.7833 28.5387 47.2505 28.1563 47.6818 27.7359C50.3478 25.0619 50.4352 21.0075 48.732 19.3044C47.0289 17.6013 42.976 17.6871 40.299 20.3561C39.2044 21.5476 38.315 22.9122 37.6672 24.3948C37.0194 22.9111 36.1293 21.5457 35.0335 20.3539C32.3595 17.6879 28.3055 17.6005 26.602 19.3037C24.8981 21.0068 24.9862 25.0612 27.6526 27.7359C28.0842 28.1563 28.5515 28.5387 29.0486 28.8786H17.5441C17.1325 28.8786 16.7988 29.2123 16.7988 29.6239V37.0769C16.7988 37.4885 17.1325 37.8222 17.5441 37.8222H19.0347V59.4359C19.0373 61.4927 20.7044 63.1598 22.7612 63.1624H52.5732C54.6304 63.1598 56.2975 61.4927 56.2997 59.4359V37.8222H57.7903C58.2019 37.8222 58.5356 37.4885 58.5356 37.0769V29.6239C58.5356 29.2123 58.2019 28.8786 57.7903 28.8786ZM41.3537 21.4093C43.4957 19.2738 46.6199 19.2986 47.6789 20.3575C48.7379 21.4165 48.7633 24.5393 46.6279 26.682C45.65 27.586 44.5336 28.3273 43.321 28.8786H38.8674C38.8674 28.863 38.8674 28.8459 38.8674 28.8302C38.8674 28.6603 38.8547 28.4881 38.8383 28.3149C38.8321 28.2578 38.8255 28.201 38.819 28.1428C38.8019 27.9998 38.7808 27.8571 38.7553 27.7152C38.7473 27.6653 38.7389 27.6151 38.7302 27.566C38.6945 27.3804 38.6556 27.1977 38.6108 27.0212C38.605 26.9957 38.5981 26.9735 38.5923 26.9466C38.5526 26.7923 38.5118 26.6486 38.47 26.4997C38.4642 26.4793 38.4587 26.4571 38.4529 26.4368C39.0635 24.5793 40.0512 22.8675 41.3537 21.4093ZM40.6484 36.3316H34.686V30.3692H40.6484V36.3316ZM28.7072 26.6828C26.5714 24.54 26.5965 21.4173 27.6559 20.3575C28.7149 19.2978 31.8376 19.2731 33.9789 21.4071C35.3349 22.9261 36.3513 24.7173 36.9601 26.6606C37.0442 26.9222 37.1089 27.1733 37.1701 27.4171C37.1872 27.487 37.2014 27.5547 37.2163 27.6235C37.2567 27.8054 37.2891 27.979 37.3135 28.1453C37.3215 28.2017 37.332 28.26 37.3386 28.3149C37.3622 28.5009 37.375 28.6883 37.3768 28.8757H32.0134C30.8016 28.3255 29.6854 27.5853 28.7072 26.6828ZM18.2894 30.3692H33.1954V36.3316H18.2894V30.3692ZM20.5253 59.4359V37.8222H34.686V61.6718H22.7612C21.5265 61.6718 20.5253 60.6706 20.5253 59.4359ZM36.1766 61.6718V37.8222H39.1578V61.6718H36.1766ZM54.8091 59.4359C54.8091 60.6706 53.8083 61.6718 52.5732 61.6718H40.6484V37.8222H54.8091V59.4359ZM57.045 36.3316H42.139V30.3692H57.045V36.3316Z" fill="white"/>
<path d="M40.4133 28.3665C40.485 28.3665 40.5563 28.3563 40.6251 28.3359C42.4505 27.8024 44.138 26.8777 45.57 25.6258C46.6305 24.6116 47.0875 23.1195 46.7775 21.6853C46.7025 21.4881 46.5464 21.3323 46.3492 21.257C44.915 20.9469 43.4229 21.404 42.4087 22.4645C41.1572 23.8965 40.2325 25.584 39.6986 27.4094C39.632 27.635 39.6753 27.8788 39.8161 28.067C39.957 28.2555 40.1782 28.3665 40.4133 28.3665ZM43.4626 23.5184C43.9844 22.9972 44.6755 22.6803 45.4106 22.6239C45.3549 23.3593 45.0376 24.0508 44.5165 24.5726C43.678 25.3187 42.7205 25.9191 41.6841 26.3496C42.115 25.3132 42.7162 24.3565 43.4626 23.5184Z" fill="white"/>
</svg>
