<svg width="27" height="26" viewBox="0 0 27 26" fill="none" xmlns="http://www.w3.org/2000/svg">
<path d="M20.7162 4.3544C20.7277 4.35523 20.7391 4.35606 20.7507 4.35606C20.7704 4.35606 20.7902 4.3544 20.8095 4.3517C21.3265 4.36229 21.7403 4.78398 21.741 5.30102C21.741 5.53596 21.9314 5.72645 22.1664 5.72645C22.4013 5.72645 22.5918 5.53596 22.5918 5.30102C22.5908 4.45535 22.0021 3.72373 21.1761 3.54176V3.13295C21.1761 2.89801 20.9857 2.70752 20.7507 2.70752C20.5158 2.70752 20.3253 2.89801 20.3253 3.13295V3.56108C19.452 3.79457 18.887 4.6394 19.0047 5.53575C19.1225 6.4321 19.8866 7.10224 20.7906 7.10224C21.3155 7.10224 21.741 7.52787 21.741 8.05281C21.741 8.57753 21.3155 9.00317 20.7906 9.00317C20.2657 9.00317 19.8402 8.57753 19.8402 8.05281C19.8402 7.81786 19.6497 7.62738 19.4148 7.62738C19.1799 7.62738 18.9894 7.81786 18.9894 8.05281C18.9904 8.86794 19.538 9.58107 20.3253 9.79275V10.2589C20.3253 10.4938 20.5158 10.6843 20.7507 10.6843C20.9857 10.6843 21.1761 10.4938 21.1761 10.2589V9.81227C22.0746 9.61555 22.6805 8.77342 22.5814 7.859C22.4825 6.94457 21.7104 6.25159 20.7906 6.25179C20.2802 6.252 19.8608 5.84901 19.8406 5.33903C19.8207 4.82906 20.2073 4.39428 20.7162 4.3546V4.3544Z" fill="#4F4F4F"/>
<path d="M20.8146 0.627441C18.1974 0.627441 15.9639 2.33518 15.1272 4.62187H4.56811C4.33421 4.62187 4.14434 4.83271 4.14268 5.06641L4.04214 19.9905H1.03235C0.797408 19.9905 0.595703 20.1606 0.595703 20.396V22.2899C0.601104 24.0728 2.00535 25.5375 3.78642 25.6181V25.6274H16.9216V25.615C17.0279 25.6189 17.0717 25.6274 17.139 25.6274H17.1482C18.9916 25.6245 20.4845 24.1293 20.4845 22.2859V12.7104C20.5909 12.7162 20.7035 12.7194 20.8136 12.7194C24.1441 12.7194 26.8543 10.0039 26.8543 6.67319C26.8543 3.34267 24.1453 0.627441 20.8146 0.627441ZM3.94824 24.7766H3.94554C2.56934 24.7747 1.45279 23.6619 1.44656 22.2855V20.8414H13.784V22.2795C13.7846 23.1673 14.1392 24.0184 14.7691 24.6443C14.8137 24.6889 14.8692 24.7234 14.9159 24.7766H3.94824ZM19.6337 22.2855C19.6339 23.6594 18.5215 24.7739 17.1478 24.7766H17.1397C15.7603 24.7741 14.6417 23.659 14.6349 22.2799V20.396C14.6384 20.2871 14.5969 20.1818 14.5198 20.105C14.4427 20.0281 14.3374 19.9868 14.2288 19.9905H4.893L4.99063 5.47272H14.891C14.8156 5.86222 14.7765 6.25773 14.7745 6.65429C14.7736 7.49289 14.9485 8.32215 15.288 9.08887H11.2697C11.0345 9.08887 10.8442 9.27936 10.8442 9.5143C10.8442 9.74925 11.0345 9.93973 11.2697 9.93973H15.7495C16.6272 11.3199 18.0302 12.2821 19.6337 12.6041V22.2855ZM20.8146 11.8687C17.9488 11.8687 15.6253 9.54546 15.6255 6.67942C15.6255 3.81338 17.9488 1.49014 20.8148 1.49014C23.6806 1.49014 26.0039 3.81359 26.0039 6.67942C26.0008 9.54401 23.6794 11.8656 20.8146 11.8687Z" fill="#4F4F4F"/>
<path d="M8.53842 11.9199C7.78748 11.9199 7.17676 12.5113 7.17676 13.2384C7.17676 13.9654 7.78748 14.5568 8.53842 14.5568C9.28936 14.5568 9.9003 13.9654 9.9003 13.2384C9.9003 12.5113 9.28936 11.9199 8.53842 11.9199ZM8.53842 13.706C8.25653 13.706 8.02762 13.4962 8.02762 13.2384C8.02762 12.9804 8.25674 12.7708 8.53842 12.7708C8.8201 12.7708 9.04944 12.9806 9.04944 13.2384C9.04944 13.4962 8.8201 13.706 8.53842 13.706Z" fill="#4F4F4F"/>
<path d="M10.8438 13.237C10.8438 13.4719 11.034 13.6624 11.2692 13.6624H16.941C17.176 13.6624 17.3664 13.4719 17.3664 13.237C17.3664 13.002 17.176 12.8115 16.941 12.8115H11.2692C11.034 12.8115 10.8438 13.002 10.8438 13.237Z" fill="#4F4F4F"/>
<path d="M8.53842 8.22217C7.78748 8.22217 7.17676 8.81378 7.17676 9.54083C7.17676 10.2679 7.78748 10.8593 8.53842 10.8593C9.28936 10.8593 9.9003 10.2679 9.9003 9.54083C9.9003 8.81378 9.28936 8.22217 8.53842 8.22217ZM8.53842 10.0084C8.25653 10.0084 8.02762 9.79862 8.02762 9.54083C8.02762 9.28304 8.25674 9.07303 8.53842 9.07303C8.8201 9.07303 9.04944 9.28283 9.04944 9.54083C9.04944 9.79862 8.8201 10.0086 8.53842 10.0086V10.0084Z" fill="#4F4F4F"/>
<path d="M8.53842 15.6182C7.78748 15.6182 7.17676 16.2096 7.17676 16.9366C7.17676 17.6637 7.78748 18.2551 8.53842 18.2551C9.28936 18.2551 9.9003 17.6637 9.9003 16.9366C9.9003 16.2096 9.28936 15.6182 8.53842 15.6182ZM8.53842 17.4042C8.25653 17.4042 8.02762 17.1946 8.02762 16.9366C8.02762 16.6788 8.25674 16.469 8.53842 16.469C8.8201 16.469 9.04944 16.6788 9.04944 16.9366C9.04944 17.1944 8.8201 17.4042 8.53842 17.4042Z" fill="#4F4F4F"/>
<path d="M16.941 16.5337H11.2692C11.034 16.5337 10.8438 16.7242 10.8438 16.9591C10.8438 17.1941 11.034 17.3846 11.2692 17.3846H16.941C17.176 17.3846 17.3664 17.1941 17.3664 16.9591C17.3664 16.7242 17.176 16.5337 16.941 16.5337Z" fill="#4F4F4F"/>
</svg>
