<svg width="26" height="26" viewBox="0 0 26 26" fill="none" xmlns="http://www.w3.org/2000/svg">
<path d="M24.6751 18.6897H23.2741C22.0111 18.6897 20.9835 19.7173 20.9835 20.9803V23.3369C20.9835 24.1074 20.3569 24.7343 19.5867 24.7343H18.4322C17.4513 24.7343 16.6468 23.9666 16.5868 23.0006L17.6445 22.7712C18.8614 22.507 19.6672 21.3756 19.5184 20.1371L18.1354 9.08563C18.9693 8.86456 19.7243 8.39514 20.2936 7.73495C20.9658 6.95562 21.336 5.95896 21.336 4.92867C21.336 2.55698 19.4067 0.627441 17.0354 0.627441H14.4745C14.2279 0.627441 14.028 0.827379 14.028 1.074C14.028 1.32062 14.2279 1.52055 14.4745 1.52055H17.0354C18.9144 1.52055 20.4429 3.04944 20.4429 4.92867C20.4429 6.61457 19.2353 8.02991 17.5714 8.2941C17.3956 8.32202 17.2153 8.33619 17.0354 8.33619H6.33412C5.97127 8.33619 5.64678 8.11994 5.50733 7.78526L3.1357 2.09048C3.08188 1.96145 3.09545 1.82064 3.17309 1.70418C3.25085 1.58754 3.37583 1.52061 3.51605 1.52061H12.3906C12.6373 1.52061 12.8372 1.32068 12.8372 1.07406C12.8372 0.827439 12.6373 0.627501 12.3906 0.627501H3.51605C3.07848 0.627501 2.67247 0.844884 2.4299 1.20898C2.26158 1.46155 2.189 1.75949 2.21645 2.05291H1.33983C1.09065 2.05291 0.859336 2.17675 0.720963 2.38419C0.58259 2.59169 0.557226 2.85302 0.653027 3.0832L2.42788 7.34394C2.54285 7.62337 2.81269 7.80396 3.11534 7.80396H4.54759L4.68287 8.12875C4.96146 8.79734 5.60956 9.22936 6.33405 9.22936H10.3301C10.5009 9.74076 10.5879 10.2791 10.5812 10.8034C10.5801 10.8853 10.5772 10.9673 10.5742 11.0495C10.5625 11.373 10.5504 11.7076 10.6398 12.0558C10.888 13.0252 11.7823 13.571 12.5364 13.7585C12.8173 13.8284 13.1124 13.8662 13.4442 13.8741L13.5057 14.3617C13.5342 14.5874 13.7265 14.7524 13.9482 14.7524C13.9668 14.7524 13.9856 14.7512 14.0046 14.7489C14.2492 14.718 14.4226 14.4947 14.3918 14.25L13.7592 9.22936C13.7592 9.22936 17.1802 9.22686 17.2525 9.22323L18.6319 20.2459C18.7252 21.0222 18.2192 21.7326 17.4551 21.8985L13.787 22.6939C13.513 22.7531 13.2315 22.6864 13.0136 22.5107C12.796 22.335 12.671 22.0739 12.671 21.7943V21.2471C12.671 20.817 12.9761 20.4386 13.3965 20.3474L13.6729 20.2873C14.4898 20.1107 15.0302 19.3517 14.9295 18.5196L14.6545 16.3363C14.6236 16.0916 14.4007 15.9185 14.1556 15.949C13.9109 15.9799 13.7375 16.2032 13.7683 16.4479L14.0432 18.629C14.0878 18.9982 13.8475 19.3358 13.4837 19.4144L13.207 19.4746C12.379 19.6542 11.778 20.3997 11.778 21.247V21.7942C11.778 22.3453 12.024 22.8597 12.453 23.2058C12.7796 23.4692 13.1792 23.6084 13.589 23.6084C13.7177 23.6084 13.8475 23.5947 13.9762 23.5667L15.7074 23.1913C15.8602 24.5598 17.0237 25.6274 18.4323 25.6274H19.5868C20.8495 25.6274 21.8768 24.5999 21.8768 23.3369V20.9803C21.8768 20.2098 22.5036 19.5829 23.2742 19.5829H24.6752C24.9219 19.5829 25.1217 19.3829 25.1217 19.1363C25.1217 18.8897 24.9217 18.6897 24.6751 18.6897ZM3.21495 6.91078L1.56347 2.94596H2.52451L4.1757 6.91078H3.21495ZM13.331 12.9754C13.1208 12.9635 12.9306 12.9363 12.7521 12.8918C12.1186 12.7342 11.6292 12.3191 11.5049 11.8339C11.4475 11.6106 11.4568 11.3537 11.4667 11.0817C11.4699 10.9925 11.4731 10.9034 11.4742 10.8148C11.481 10.2878 11.4089 9.74939 11.2644 9.22936H12.859L13.331 12.9754Z" fill="#4F4F4F"/>
</svg>
