<svg width="25" height="26" viewBox="0 0 25 26" fill="none" xmlns="http://www.w3.org/2000/svg">
<path d="M23.0469 8.43994H21.4844V4.53369C21.4844 4.10293 21.1339 3.75244 20.7031 3.75244H19.1406V1.79932C19.1406 1.15317 18.6149 0.627441 17.9688 0.627441H7.03125C6.38511 0.627441 5.85938 1.15317 5.85938 1.79932V3.75244H4.29688C3.86611 3.75244 3.51562 4.10293 3.51562 4.53369V8.43994H1.95312C0.876172 8.43994 0 9.31611 0 10.3931V18.9868C0 20.0638 0.876172 20.9399 1.95312 20.9399H5.85938V24.4556C5.85938 25.1017 6.38511 25.6274 7.03125 25.6274H17.9688C18.6149 25.6274 19.1406 25.1017 19.1406 24.4556V20.9399H23.0469C24.1238 20.9399 25 20.0638 25 18.9868V10.3931C25 9.31611 24.1238 8.43994 23.0469 8.43994ZM20.7031 4.53369V8.43994H19.1406V4.53369H20.7031ZM6.64062 1.79932C6.64062 1.58394 6.81587 1.40869 7.03125 1.40869H17.9688C18.1841 1.40869 18.3594 1.58394 18.3594 1.79932V8.43994H6.64062C6.64062 8.36011 6.64062 2.08198 6.64062 1.79932ZM4.29688 4.53369H5.85938V8.43994H4.29688V4.53369ZM18.3594 24.4556C18.3594 24.6709 18.1841 24.8462 17.9688 24.8462H7.03125C6.81587 24.8462 6.64062 24.6709 6.64062 24.4556V17.8149H18.3594V24.4556ZM24.2188 18.9868C24.2188 19.633 23.693 20.1587 23.0469 20.1587H19.1406V17.8149H19.9219C20.1376 17.8149 20.3125 17.64 20.3125 17.4243C20.3125 17.2086 20.1376 17.0337 19.9219 17.0337C18.5226 17.0337 5.7186 17.0337 5.07812 17.0337C4.8624 17.0337 4.6875 17.2086 4.6875 17.4243C4.6875 17.64 4.8624 17.8149 5.07812 17.8149H5.85938V20.1587H1.95312C1.30698 20.1587 0.78125 19.633 0.78125 18.9868V10.3931C0.78125 9.74692 1.30698 9.22119 1.95312 9.22119H23.0469C23.693 9.22119 24.2188 9.74692 24.2188 10.3931V18.9868Z" fill="#4F4F4F"/>
<path d="M22.2656 10.0024C21.6195 10.0024 21.0938 10.5282 21.0938 11.1743C21.0938 11.8205 21.6195 12.3462 22.2656 12.3462C22.9118 12.3462 23.4375 11.8205 23.4375 11.1743C23.4375 10.5282 22.9118 10.0024 22.2656 10.0024ZM22.2656 11.5649C22.0502 11.5649 21.875 11.3897 21.875 11.1743C21.875 10.9589 22.0502 10.7837 22.2656 10.7837C22.481 10.7837 22.6562 10.9589 22.6562 11.1743C22.6562 11.3897 22.481 11.5649 22.2656 11.5649Z" fill="#4F4F4F"/>
<path d="M19.1406 10.0024C18.4945 10.0024 17.9688 10.5282 17.9688 11.1743C17.9688 11.8205 18.4945 12.3462 19.1406 12.3462C19.7868 12.3462 20.3125 11.8205 20.3125 11.1743C20.3125 10.5282 19.7868 10.0024 19.1406 10.0024ZM19.1406 11.5649C18.9252 11.5649 18.75 11.3897 18.75 11.1743C18.75 10.9589 18.9252 10.7837 19.1406 10.7837C19.356 10.7837 19.5312 10.9589 19.5312 11.1743C19.5312 11.3897 19.356 11.5649 19.1406 11.5649Z" fill="#4F4F4F"/>
<path d="M16.7969 18.9868H8.59375C8.37803 18.9868 8.20312 19.1617 8.20312 19.3774C8.20312 19.5932 8.37803 19.7681 8.59375 19.7681H16.7969C17.0126 19.7681 17.1875 19.5932 17.1875 19.3774C17.1875 19.1617 17.0126 18.9868 16.7969 18.9868Z" fill="#4F4F4F"/>
<path d="M16.7969 20.9399H8.59375C8.37803 20.9399 8.20312 21.1148 8.20312 21.3306C8.20312 21.5463 8.37803 21.7212 8.59375 21.7212H16.7969C17.0126 21.7212 17.1875 21.5463 17.1875 21.3306C17.1875 21.1148 17.0126 20.9399 16.7969 20.9399Z" fill="#4F4F4F"/>
<path d="M16.7969 22.8931H8.59375C8.37803 22.8931 8.20312 23.068 8.20312 23.2837C8.20312 23.4994 8.37803 23.6743 8.59375 23.6743H16.7969C17.0126 23.6743 17.1875 23.4994 17.1875 23.2837C17.1875 23.068 17.0126 22.8931 16.7969 22.8931Z" fill="#4F4F4F"/>
</svg>
