<svg width="28" height="26" viewBox="0 0 28 26" fill="none" xmlns="http://www.w3.org/2000/svg">
<path d="M25.3906 21.2212H1.95312C1.43531 21.2206 0.93889 21.0146 0.572742 20.6484C0.206594 20.2823 0.000620257 19.7859 0 19.2681V5.20557H0.78125V19.2681C0.78125 19.5789 0.904715 19.8769 1.12448 20.0967C1.34425 20.3165 1.64232 20.4399 1.95312 20.4399H25.3906C25.7014 20.4399 25.9995 20.3165 26.2193 20.0967C26.439 19.8769 26.5625 19.5789 26.5625 19.2681V2.08057C26.5625 1.76977 26.439 1.47169 26.2193 1.25193C25.9995 1.03216 25.7014 0.908691 25.3906 0.908691H1.95312C1.64232 0.908691 1.34425 1.03216 1.12448 1.25193C0.904715 1.47169 0.78125 1.76977 0.78125 2.08057V3.64307H0V2.08057C0.000620257 1.56276 0.206594 1.06633 0.572742 0.700183C0.93889 0.334036 1.43531 0.128062 1.95312 0.127441H25.3906C25.9084 0.128062 26.4049 0.334036 26.771 0.700183C27.1372 1.06633 27.3431 1.56276 27.3437 2.08057V19.2681C27.3431 19.7859 27.1372 20.2823 26.771 20.6484C26.4049 21.0146 25.9084 21.2206 25.3906 21.2212Z" fill="#4F4F4F"/>
<path d="M19.5312 25.1274H7.8125C7.7089 25.1274 7.60954 25.0863 7.53629 25.013C7.46303 24.9398 7.42188 24.8404 7.42188 24.7368C7.42188 22.7837 9.48008 22.7837 10.1562 22.7837H17.1875C17.8637 22.7837 19.9219 22.7837 19.9219 24.7368C19.9219 24.8404 19.8807 24.9398 19.8075 25.013C19.7342 25.0863 19.6348 25.1274 19.5312 25.1274ZM8.25039 24.3462H19.0934C18.957 23.8653 18.4855 23.5649 17.1875 23.5649H10.1562C8.8582 23.5649 8.38672 23.8653 8.25039 24.3462Z" fill="#4F4F4F"/>
<path d="M16.7969 23.5649H10.5469C10.4433 23.5649 10.3439 23.5238 10.2707 23.4505C10.1974 23.3773 10.1562 23.2779 10.1562 23.1743V20.8306C10.1562 20.727 10.1974 20.6276 10.2707 20.5544C10.3439 20.4811 10.4433 20.4399 10.5469 20.4399H16.7969C16.9005 20.4399 16.9998 20.4811 17.0731 20.5544C17.1463 20.6276 17.1875 20.727 17.1875 20.8306V23.1743C17.1875 23.2779 17.1463 23.3773 17.0731 23.4505C16.9998 23.5238 16.9005 23.5649 16.7969 23.5649ZM10.9375 22.7837H16.4062V21.2212H10.9375V22.7837Z" fill="#4F4F4F"/>
<path d="M0.390625 17.3149H26.9531V18.0962H0.390625V17.3149Z" fill="#4F4F4F"/>
<path d="M12.1094 18.8774H15.2344V19.6587H12.1094V18.8774Z" fill="#4F4F4F"/>
</svg>
