<svg width="29" height="26" viewBox="0 0 29 26" fill="none" xmlns="http://www.w3.org/2000/svg">
<path fill-rule="evenodd" clip-rule="evenodd" d="M0 3.07436C0 1.45966 1.28492 0.12793 2.89773 0.12793H23.3523C24.9651 0.12793 26.25 1.45966 26.25 3.07436V9.50293C26.25 9.84806 25.9701 10.1279 25.625 10.1279C25.2799 10.1279 25 9.84806 25 9.50293V3.07436C25 2.12489 24.2499 1.37793 23.3523 1.37793H2.89773C2.00014 1.37793 1.25 2.12489 1.25 3.07436V14.6816C1.25 15.6309 2.00014 16.3779 2.89773 16.3779H11.875C12.2201 16.3779 12.5 16.6578 12.5 17.0029C12.5 17.3481 12.2201 17.6279 11.875 17.6279H2.89773C1.28492 17.6279 0 16.2962 0 14.6816V3.07436Z" fill="#4F4F4F"/>
<path fill-rule="evenodd" clip-rule="evenodd" d="M0 4.50293C0 4.15775 0.279822 3.87793 0.625 3.87793H25.625C25.9701 3.87793 26.25 4.15775 26.25 4.50293C26.25 4.8481 25.9701 5.12793 25.625 5.12793H0.625C0.279822 5.12793 0 4.8481 0 4.50293Z" fill="#4F4F4F"/>
<path fill-rule="evenodd" clip-rule="evenodd" d="M2.5 10.7529C2.5 10.4078 2.77983 10.1279 3.125 10.1279H5.625C5.97018 10.1279 6.25 10.4078 6.25 10.7529C6.25 11.0981 5.97018 11.3779 5.625 11.3779H3.125C2.77983 11.3779 2.5 11.0981 2.5 10.7529Z" fill="#4F4F4F"/>
<path fill-rule="evenodd" clip-rule="evenodd" d="M2.5 13.8779C2.5 13.5328 2.77983 13.2529 3.125 13.2529H8.125C8.47018 13.2529 8.75 13.5328 8.75 13.8779C8.75 14.2231 8.47018 14.5029 8.125 14.5029H3.125C2.77983 14.5029 2.5 14.2231 2.5 13.8779Z" fill="#4F4F4F"/>
<path fill-rule="evenodd" clip-rule="evenodd" d="M21.875 12.6279C18.7684 12.6279 16.25 15.1463 16.25 18.2529C16.25 21.3596 18.7684 23.8779 21.875 23.8779C24.9816 23.8779 27.5 21.3596 27.5 18.2529C27.5 15.1463 24.9816 12.6279 21.875 12.6279ZM15 18.2529C15 14.4559 18.078 11.3779 21.875 11.3779C25.672 11.3779 28.75 14.4559 28.75 18.2529C28.75 22.0499 25.672 25.1279 21.875 25.1279C18.078 25.1279 15 22.0499 15 18.2529Z" fill="#4F4F4F"/>
<path fill-rule="evenodd" clip-rule="evenodd" d="M23.933 17.1859C24.1771 16.9419 24.5729 16.9419 24.817 17.1859C25.061 17.4301 25.061 17.8258 24.817 18.0699L22.317 20.5699C22.0729 20.8139 21.6771 20.8139 21.433 20.5699L19.558 18.6949C19.314 18.4508 19.314 18.0551 19.558 17.8109C19.8021 17.5669 20.1979 17.5669 20.442 17.8109L21.875 19.2441L23.933 17.1859Z" fill="#4F4F4F"/>
</svg>
