<svg width="224" height="217" viewBox="0 0 224 217" fill="none" xmlns="http://www.w3.org/2000/svg">
<path d="M52.6071 211.028L49.7661 216.291C49.7661 216.291 39.9364 203.024 41.0444 183.854C41.9677 167.966 54.4111 158.25 59.7308 150.743C65.6116 142.433 64.5534 130.813 61.9042 122.106C59.2479 113.398 54.1341 95.9546 55.4552 85.7129H56.9609C56.9609 85.7129 55.6469 93.1065 61.7124 113.775C67.7779 134.443 66.0733 146.197 61.336 152.263C56.5987 158.328 47.3371 167.902 45.4123 174.514C43.5231 180.999 39.5387 187.547 43.1396 197.775C46.7405 208.002 52.8912 212.242 52.8912 212.242" fill="#455A64"/>
<path d="M24.0896 195.253L20.098 199.344C20.098 199.344 13.6988 184.791 19.2813 167.582C23.912 153.32 38.2447 147.567 45.1625 142.049C52.8118 135.94 54.5235 125.081 54.005 116.473C53.4865 107.865 52.6271 90.6768 56.3204 81.6709L57.7764 82.0473C57.7764 82.0473 54.7649 88.4608 55.7806 108.823C56.7962 129.186 52.3785 139.477 46.3628 143.831C40.347 148.178 29.1323 154.599 25.709 160.146C22.3566 165.586 16.9517 170.565 18.0383 180.792C19.1179 191.02 24.0754 196.425 24.0754 196.425" fill="#E0E0E0"/>
<path d="M86.4571 0.000976562L129.505 64.8105C129.505 64.8105 89.8095 58.113 55.8457 86.5723C55.8457 86.5723 45.5614 45.4422 8.2595 34.4406L86.4571 0.000976562Z" fill="#356EEF"/>
<path d="M29.608 25.0303C29.608 25.0374 29.6932 25.0729 29.8708 25.1368C30.0625 25.2007 30.3253 25.2931 30.6592 25.4067C31.0143 25.5274 31.4404 25.6695 31.9447 25.8328C32.449 26.0175 33.0171 26.259 33.6635 26.5218C36.2132 27.6013 39.871 29.4125 43.6921 32.6299C47.5345 35.7975 51.4976 40.3431 54.8429 46.0605C56.5333 48.9086 58.0532 52.0479 59.4097 55.4002C60.745 58.7526 61.9311 62.3322 62.7408 66.0751L62.8118 66.4019L63.0533 66.1746C63.5647 65.6916 64.1186 65.1731 64.6726 64.6476C70.5463 59.2852 77.4002 55.7482 83.8279 53.3689C90.2911 50.9896 96.4062 49.7467 101.555 49.0151C106.719 48.2978 110.938 48.0989 113.85 48.0492C115.306 48.0279 116.435 48.0421 117.202 48.0563C117.571 48.0634 117.863 48.0705 118.076 48.0776C118.275 48.0847 118.374 48.0847 118.374 48.0776C118.374 48.0705 118.275 48.0563 118.076 48.0421C117.863 48.0279 117.571 48.0066 117.202 47.9853C116.435 47.9498 115.299 47.9072 113.843 47.9143C110.924 47.9214 106.691 48.0776 101.513 48.7666C96.3423 49.4626 90.2058 50.6913 83.7071 53.0564C77.2368 55.4286 70.3404 58.9798 64.417 64.3777C63.8559 64.9032 63.3019 65.4288 62.7834 65.9118L63.0959 66.0112C62.272 62.2256 61.0788 58.646 59.7365 55.2724C58.3728 51.9058 56.8316 48.7595 55.127 45.8972C51.7462 40.1584 47.7334 35.5987 43.8484 32.4381C39.9846 29.2278 36.2843 27.438 33.7061 26.3939C33.0527 26.1454 32.4774 25.911 31.9731 25.7334C31.4617 25.5772 31.0285 25.4493 30.6734 25.3357C30.3324 25.2362 30.0696 25.1581 29.8708 25.1013C29.7074 25.0516 29.6151 25.0303 29.608 25.0303Z" fill="white"/>
<g opacity="0.4">
<g opacity="0.4">
<path opacity="0.4" d="M86.4571 0.000976562L110.662 36.4364C110.662 36.4364 90.0509 32.9988 68.8857 48.0701C68.8857 48.0701 64.7166 28.1337 43.665 18.8508L86.4571 0.000976562Z" fill="white"/>
</g>
</g>
<path d="M122.516 60.0232C122.601 59.9664 114.76 47.7716 105.001 32.7784C95.2355 17.7923 87.2595 5.68264 87.1743 5.73946C87.089 5.79628 94.9301 17.9911 104.689 32.9843C114.448 47.9704 122.431 60.0801 122.516 60.0232Z" fill="#263238"/>
<path d="M55.8449 86.5724C55.9443 86.608 62.4998 67.8434 70.49 44.6682C78.4803 21.4788 84.8795 2.66447 84.7801 2.62896C84.6807 2.59344 78.1251 21.358 70.1349 44.5403C62.1447 67.7155 55.7454 86.5369 55.8449 86.5724Z" fill="#263238"/>
<path d="M17.5832 32.8852C17.6258 32.9775 32.7043 26.2799 51.2558 17.9275C69.8144 9.57504 84.8218 2.72831 84.7792 2.62887C84.7366 2.53654 69.6653 9.23412 51.0995 17.5866C32.548 25.939 17.5406 32.7928 17.5832 32.8852Z" fill="#263238"/>
<path d="M60.3822 73.3971C60.4532 73.4752 65.0272 69.4552 70.6026 64.4196C76.178 59.384 80.6454 55.2433 80.5744 55.1652C80.5033 55.0871 75.9294 59.107 70.354 64.1426C64.7786 69.1783 60.3183 73.3261 60.3822 73.3971Z" fill="#263238"/>
<path d="M3.83421 179.515C3.83421 179.515 3.7632 179.416 3.60695 179.231C3.4436 179.054 3.22341 178.777 2.95352 178.393C2.42794 177.633 1.73191 176.412 1.34128 174.679C0.943542 172.967 0.865414 170.73 1.60406 168.322C2.3143 165.914 3.80581 163.379 5.99335 161.099C8.1809 158.819 11.0716 156.766 14.5447 155.424C16.2777 154.763 18.1456 154.252 20.113 154.003C22.0732 153.755 24.1258 153.769 26.2068 153.989C30.3759 154.38 34.6942 155.516 39.3179 155.58C43.9345 155.687 48.7215 154.174 52.7131 151.347C56.7259 148.542 59.7302 144.529 61.1933 140.147C62.692 135.764 62.7559 131.198 62.2658 127.021C61.7473 122.831 60.7672 118.932 59.8084 115.317C58.8496 111.701 57.8978 108.349 57.2018 105.245C56.4987 102.149 56.0228 99.3077 55.8452 96.7935C55.6677 94.2792 55.7458 92.0988 56.0015 90.3445C56.243 88.5902 56.5839 87.2478 56.8538 86.3529C56.9958 85.9197 57.1024 85.5788 57.1805 85.3373C57.2515 85.11 57.2799 84.9893 57.2799 84.9893C57.2799 84.9893 57.2302 85.1029 57.145 85.3302C57.0597 85.5717 56.939 85.9055 56.7828 86.3316C56.4916 87.2194 56.1222 88.5618 55.8594 90.3232C55.5824 92.0846 55.4901 94.2792 55.6393 96.8077C55.7955 99.3361 56.2572 102.191 56.9461 105.302C57.6279 108.413 58.5655 111.772 59.5172 115.395C60.4618 119.01 61.4277 122.895 61.932 127.057C62.415 131.205 62.3368 135.708 60.8524 140.026C59.4177 144.33 56.456 148.279 52.5 151.042C48.5653 153.819 43.8705 155.317 39.325 155.211C34.7652 155.154 30.4541 154.025 26.2495 153.641C24.1471 153.428 22.0732 153.421 20.0775 153.677C18.0888 153.932 16.1924 154.451 14.4381 155.133C10.9295 156.511 8.01046 158.599 5.8087 160.914C3.60696 163.229 2.11544 165.808 1.41231 168.258C0.687859 170.708 0.787289 172.981 1.20633 174.707C1.62537 176.454 2.34272 177.676 2.89671 178.436C3.4507 179.189 3.83421 179.515 3.83421 179.515Z" fill="#263238"/>
<path d="M84.7803 2.62891C84.7803 2.62891 84.7377 2.84908 84.6666 3.27523C84.5956 3.71558 84.4962 4.35479 84.3612 5.18578C84.0984 6.86195 83.7149 9.34069 83.2604 12.5368C82.3654 18.9219 81.0018 28.1834 80.4123 39.7177C80.1353 45.4849 80.1353 51.8203 80.6609 58.596C81.1794 65.3717 82.2234 72.5664 83.7575 80.0382C83.9564 80.9686 84.1553 81.9132 84.3541 82.8578C84.4607 83.3337 84.5459 83.8024 84.6666 84.2783C84.7874 84.7613 84.9436 85.2229 85.0928 85.6917C85.7178 87.5454 86.4209 89.3992 87.1383 91.26C87.8698 93.1208 88.6085 94.9958 89.3542 96.8922C89.7378 97.8368 90.1213 98.7885 90.5048 99.7403L91.0872 101.175L91.3855 101.899L91.7264 102.603C93.4949 106.36 95.5333 110.096 97.9837 113.625C100.441 117.141 103.289 120.522 106.748 123.285L108.041 124.315L109.397 125.252L110.072 125.721L110.775 126.147L112.189 126.985C114.127 127.994 116.095 128.931 118.147 129.585C122.238 130.962 126.45 131.666 130.605 131.936C132.686 132.092 134.753 132.056 136.791 131.971C138.83 131.829 140.847 131.637 142.821 131.282C146.777 130.622 150.563 129.57 154.157 128.264C155.954 127.61 157.708 126.921 159.412 126.168C161.131 125.465 162.772 124.592 164.334 123.675C167.452 121.822 170.322 119.805 173.234 118.079C176.124 116.324 179.079 114.876 182.048 113.874C185.017 112.873 188.007 112.326 190.876 112.219C196.629 111.942 201.835 112.972 206.111 114.556C210.401 116.14 213.803 118.221 216.395 120.117C218.988 122.028 220.799 123.768 221.978 124.989C222.574 125.593 222.993 126.083 223.285 126.41C223.569 126.737 223.718 126.907 223.718 126.907C223.718 126.907 223.59 126.722 223.32 126.381C223.043 126.048 222.631 125.543 222.042 124.933C220.877 123.697 219.08 121.935 216.488 119.996C213.902 118.072 210.5 115.969 206.189 114.357C201.899 112.745 196.665 111.687 190.869 111.949C187.978 112.049 184.96 112.589 181.963 113.59C178.965 114.591 175.99 116.047 173.085 117.802C170.158 119.535 167.282 121.552 164.178 123.384C162.623 124.293 161.011 125.146 159.292 125.849C157.594 126.595 155.84 127.283 154.05 127.93C150.471 129.222 146.699 130.266 142.772 130.92C140.811 131.275 138.808 131.46 136.777 131.602C134.746 131.687 132.693 131.722 130.633 131.566C126.514 131.296 122.317 130.586 118.275 129.23C116.237 128.59 114.291 127.653 112.373 126.658L110.974 125.827L110.278 125.408L109.61 124.947L108.268 124.016L106.982 122.994C103.559 120.252 100.732 116.907 98.2891 113.412C95.853 109.904 93.8288 106.189 92.0603 102.446L91.7264 101.75L91.4352 101.04L90.8528 99.6124C90.4693 98.6607 90.0858 97.709 89.7022 96.7644C88.9565 94.868 88.2108 92.993 87.4792 91.1392C86.7619 89.2784 86.0587 87.4318 85.4337 85.5852C85.2845 85.1235 85.1283 84.6618 85.0147 84.2002C84.8939 83.7385 84.8087 83.2556 84.7021 82.7868C84.5033 81.8422 84.3044 80.9047 84.1055 79.9742C82.5643 72.5096 81.5061 65.3291 80.9805 58.5747C80.4407 51.8203 80.4265 45.492 80.6893 39.7319C81.2433 28.2118 82.5714 18.9503 83.4166 12.5581C83.8641 9.3691 84.2121 6.89036 84.4536 5.19998C84.5672 4.3619 84.6595 3.72978 84.7234 3.28233C84.759 2.85618 84.7803 2.62891 84.7803 2.62891Z" fill="#263238"/>
</svg>
