<svg width="115" height="147" viewBox="0 0 115 147" fill="none" xmlns="http://www.w3.org/2000/svg">
<g clip-path="url(#clip0_1393_581)">
<path d="M41.8532 0C49.5067 1.6163 56.0023 7.02256 60.0408 13.655C64.0794 20.2595 65.9151 28.0066 66.5647 35.7259C67.8638 50.6349 62.4414 66.993 55.7764 80.425C41.1754 72.1763 34.5104 54.0626 31.7145 44.6713C27.337 29.7901 28.4949 0.30654 41.8532 0Z" fill="#5381F0"/>
<path d="M75.1501 101.604C71.4787 93.773 73.1167 84.0473 78.3979 77.1362C83.6509 70.2251 92.1234 66.0729 100.822 65.0418C104.832 64.5681 109.351 64.8467 112.26 67.6056C114.999 70.1972 115.592 74.4331 114.547 78.028C113.474 81.6228 111.017 84.6325 108.249 87.1963C98.8166 95.9745 88.0566 102.802 75.1501 101.604Z" fill="#5381F0"/>
<path d="M67.2698 138.222C67.0721 138.222 66.8462 134.46 67.0156 128.329C67.1004 125.263 67.637 121.557 68.7384 117.656C69.8398 113.782 70.9695 109.463 72.8617 105.115C76.5048 96.3929 82.1532 89.5655 87.0672 85.7755C89.5242 83.8527 91.7271 82.6265 93.2804 81.8462C94.8619 81.1217 95.7656 80.8151 95.8221 80.9266C95.9633 81.2053 92.4331 82.738 87.8297 86.6951C83.2546 90.6244 77.9734 97.3126 74.4149 105.784C72.6075 109.992 71.4213 114.256 70.2352 118.102C69.0773 121.947 68.4277 125.431 68.2018 128.44C67.7499 134.432 67.5522 138.222 67.2698 138.222Z" fill="#616161"/>
<path d="M42.9828 22.5453C43.0957 22.5174 43.6323 24.2173 44.4796 27.3384C45.3268 30.4317 46.4847 34.9462 47.8968 40.5475C50.6927 51.7223 54.3359 67.1887 57.9791 84.3549C61.594 101.549 64.4464 117.183 66.2539 128.552C67.1576 134.237 67.8354 138.836 68.2308 142.04C68.6544 145.245 68.8239 147.001 68.7109 147.029C68.5979 147.056 68.2026 145.301 67.5812 142.152C66.9317 138.696 66.0844 134.182 65.0677 128.775C62.9496 117.461 59.9277 101.883 56.3128 84.7172C52.5849 67.7182 49.2524 52.3354 46.7107 40.8262C45.5528 35.42 44.5643 30.9612 43.83 27.5056C43.1805 24.3288 42.8698 22.5731 42.9828 22.5453Z" fill="#616161"/>
<path d="M57.5275 110.912C48.8008 94.86 31.7711 83.5181 13.4422 81.5116C8.75413 80.9821 3.1058 81.5395 0.846464 85.6081C-1.41287 89.6767 1.18536 94.7207 4.2637 98.232C16.9724 112.918 39.2269 118.714 57.6404 112.138" fill="#5381F0"/>
<path d="M20.6715 93.0212C20.6998 92.9097 21.6318 93.0491 23.3263 93.3835C25.0208 93.7179 27.3931 94.331 30.3302 95.167C36.1197 96.9783 44.3098 99.8487 51.7656 105.701C55.4653 108.627 58.4871 112.027 60.7182 115.426C62.9493 118.854 64.2484 122.282 65.1804 125.18C65.9994 128.106 66.4795 130.531 66.6207 132.23C66.7901 133.93 66.8466 134.85 66.7337 134.85C66.3948 134.906 65.9994 131.172 64.0507 125.542C63.0058 122.756 61.6502 119.495 59.4191 116.263C57.2162 113.03 54.3073 109.797 50.7207 107.011C43.5473 101.381 35.5831 98.3996 29.963 96.3095C24.2582 94.331 20.6151 93.2999 20.6715 93.0212Z" fill="#616161"/>
</g>
<defs>
<clipPath id="clip0_1393_581">
<rect width="115" height="147" fill="white"/>
</clipPath>
</defs>
</svg>
