<svg width="68" height="51" viewBox="0 0 68 51" fill="none" xmlns="http://www.w3.org/2000/svg">
<path d="M0.613197 37.9657L0.696693 38.5268L0.783524 38.5068C1.37698 41.282 2.74409 43.8325 4.72668 45.8631C6.70926 47.8938 9.22629 49.3216 11.9865 49.9813C14.7468 50.6411 17.6374 50.5058 20.3239 49.5912C23.0105 48.6765 25.3832 47.0199 27.1675 44.813C28.9518 42.606 30.0747 39.939 30.4064 37.1205C30.7381 34.3019 30.2649 31.4471 29.0417 28.8863C27.8185 26.3254 25.8952 24.1632 23.4944 22.6499C21.0935 21.1366 18.3132 20.334 15.4753 20.335C14.7305 20.335 14.0158 20.4485 13.3044 20.552C13.5348 19.7772 13.772 18.989 14.1527 18.281C14.5334 17.2523 15.1279 16.3606 15.7191 15.4622C16.2134 14.4903 17.085 13.8324 17.7263 13.0008C18.3976 12.1926 19.3127 11.6548 20.0374 10.9835C20.7488 10.2822 21.6806 9.93151 22.422 9.43722C23.1969 8.99303 23.8715 8.50208 24.5929 8.26829L26.393 7.52686L27.9761 6.86892L26.3596 0.393066L24.3658 0.874001C23.7279 1.03431 22.9497 1.22134 22.0647 1.4451C21.1596 1.61209 20.1944 2.06964 19.119 2.48712C18.0603 2.96471 16.8279 3.28199 15.6857 4.04679C14.5368 4.77487 13.2109 5.38272 12.042 6.35794C10.9098 7.36321 9.5438 8.2349 8.53518 9.5107C7.43305 10.7063 6.34428 11.9621 5.49931 13.3915C4.52076 14.7542 3.85614 16.2504 3.15478 17.7299C2.52022 19.2094 2.00923 20.7224 1.59176 22.1919C0.800224 25.1376 0.446205 27.9363 0.309273 30.3309C0.195724 32.7289 0.26252 34.7228 0.402786 36.1656C0.449722 36.7681 0.519913 37.3686 0.613197 37.9657ZM37.3509 37.9657L37.4344 38.5268L37.5212 38.5068C38.1147 41.282 39.4818 43.8325 41.4644 45.8631C43.447 47.8938 45.964 49.3216 48.7242 49.9813C51.4845 50.6411 54.3751 50.5058 57.0616 49.5912C59.7482 48.6765 62.1209 47.0199 63.9052 44.813C65.6894 42.606 66.8124 39.939 67.1441 37.1205C67.4757 34.3019 67.0026 31.4471 65.7794 28.8863C64.5562 26.3254 62.6329 24.1632 60.232 22.6499C57.8312 21.1366 55.0509 20.334 52.213 20.335C51.4682 20.335 50.7535 20.4485 50.0421 20.552C50.2725 19.7772 50.5097 18.989 50.8904 18.281C51.2711 17.2523 51.8656 16.3606 52.4568 15.4622C52.951 14.4903 53.8227 13.8324 54.464 13.0008C55.1353 12.1926 56.0504 11.6548 56.7751 10.9835C57.4865 10.2822 58.4183 9.93151 59.1597 9.43722C59.9345 8.99303 60.6092 8.50208 61.3306 8.26829L63.1307 7.52686C64.136 7.11607 64.7104 6.8756 64.7104 6.8756L63.094 0.39975L61.1001 0.880676C60.4622 1.04099 59.6841 1.22802 58.799 1.45179C57.8939 1.61877 56.9287 2.07632 55.8533 2.4938C54.7946 2.97139 53.5622 3.28867 52.42 4.05348C51.2711 4.78155 49.9452 5.38939 48.7763 6.36461C47.6441 7.36989 46.2781 8.24157 45.2695 9.51738C44.1674 10.713 43.0786 11.9688 42.2337 13.3982C41.2551 14.7608 40.5905 16.2571 39.8891 17.7366C39.2546 19.2161 38.7436 20.729 38.3261 22.1986C37.5346 25.1443 37.1806 27.943 37.0436 30.3376C36.9301 32.7356 36.9969 34.7294 37.1371 36.1722C37.187 36.7724 37.2583 37.3706 37.3509 37.9657Z" fill="#F0F0F0"/>
</svg>
