<svg width="114" height="201" viewBox="0 0 114 201" fill="none" xmlns="http://www.w3.org/2000/svg">
<path d="M109.431 16.6639C109.566 17.0545 108.259 43.7596 106.391 46.3733C104.523 48.987 85.6662 57.4957 85.6662 57.4957L80.6235 47.6802L97.0584 38.9016L102.101 15.002L109.431 16.6639Z" fill="#FFBE9D"/>
<path d="M76.5741 46.9217L90.0829 42.6318L93.1299 54.5071L84.3371 58.939L76.5741 46.9217Z" fill="#356EEF"/>
<path d="M81.341 124.933C81.6251 125.359 91.6324 142.838 92.6196 145.792C93.6069 148.754 94.168 194.991 94.168 194.991L82.8964 194.309C82.8964 194.309 78.1023 172.441 77.9603 165.53C77.8182 158.626 77.9603 151.716 77.9603 151.716L62.1716 130.43L81.341 124.933Z" fill="#FFBE9D"/>
<path d="M57.7178 132.673C57.7178 132.673 52.0785 153.391 49.4008 155.933C46.7232 158.469 10.6358 174.542 10.6358 173.974C10.6358 173.412 7.22668 163.775 7.22668 163.775C7.22668 163.775 28.1149 148.739 30.0894 147.609C32.0638 146.48 37.9802 143.803 37.9802 143.803L40.2387 129.285L57.7178 132.673Z" fill="#FFBE9D"/>
<path d="M70.9639 110.394C70.9639 110.82 57.5687 148.321 57.5687 148.321L34.1662 138.626C34.1662 138.626 38.3638 123.363 39.9476 118.782C41.844 113.277 42.5826 106.012 44.6849 103.895C46.7872 101.779 47.9875 99.6904 47.9875 99.6904L70.9639 110.394Z" fill="#455A64"/>
<path d="M79.1183 110.266C78.9834 110.621 92.0234 138.384 92.0234 138.384L68.3653 145.955L61.5399 132.915L65.3254 114.08L79.1183 110.266Z" fill="#455A64"/>
<path d="M34.1733 138.625C34.1662 138.639 34.3296 138.717 34.635 138.852C34.9759 139.001 35.4234 139.193 35.9845 139.435C37.199 139.939 38.8965 140.649 40.9846 141.523C45.2602 143.27 51.1268 145.663 57.6539 148.327L57.8315 148.398L57.8954 148.213C58.0091 147.886 58.1298 147.531 58.2505 147.176C60.5872 140.258 62.7038 134.001 64.2521 129.427C64.9907 127.176 65.5944 125.343 66.0277 124.037C66.2195 123.426 66.3757 122.936 66.4965 122.566C66.5959 122.225 66.6456 122.048 66.6314 122.048C66.6172 122.048 66.5462 122.218 66.4254 122.545C66.2905 122.907 66.1129 123.39 65.8927 123.994C65.4311 125.294 64.7919 127.119 64.0035 129.349C62.4339 133.916 60.2818 140.159 57.9025 147.063C57.7818 147.418 57.661 147.766 57.5474 148.1L57.7889 147.986C51.2476 145.365 45.3668 143.007 41.0769 141.288C38.9746 140.464 37.2558 139.79 36.0342 139.314C35.466 139.101 35.0043 138.923 34.6563 138.795C34.3438 138.667 34.1733 138.618 34.1733 138.625Z" fill="#263238"/>
<path d="M43.3502 115.464C43.3289 115.5 43.9468 115.905 45.0832 116.246C46.2054 116.587 47.8887 116.792 49.6714 116.409C51.4541 116.025 52.8959 115.145 53.7837 114.363C54.6786 113.589 55.0763 112.957 55.0408 112.936C54.9911 112.893 54.5294 113.454 53.6203 114.157C52.7183 114.861 51.312 115.67 49.5932 116.04C47.8815 116.409 46.2622 116.253 45.1542 115.983C44.0249 115.727 43.3715 115.408 43.3502 115.464Z" fill="#263238"/>
<path d="M77.6398 115.769C77.5617 115.818 78.279 116.834 79.6498 117.445C81.0135 118.07 82.2564 117.935 82.2351 117.843C82.2422 117.729 81.0703 117.693 79.799 117.111C78.5205 116.543 77.725 115.691 77.6398 115.769Z" fill="#263238"/>
<path d="M84.7352 6.23802C83.1301 1.43678 77.4481 0.769155 72.9807 0.541877C68.5133 0.321702 63.9819 1.98367 60.7219 5.03771C54.7275 10.6486 53.3993 20.0735 47.1563 25.4074C45.2742 27.0126 42.9943 28.1916 41.4531 30.1306C39.5354 32.5454 39.0525 35.7841 38.8607 38.8594C38.6618 41.9348 38.6689 45.1095 37.5041 47.9647C36.3393 50.8199 33.6191 53.3199 30.5367 53.0998C29.7625 53.0429 28.9954 52.8228 28.2284 52.9151C27.4613 53.0074 26.6587 53.5614 26.6445 54.3356C26.6374 54.8967 27.0352 55.3725 27.44 55.7561C28.6474 56.8996 30.146 57.7447 31.7512 58.1922C32.362 58.3627 33.0438 58.5189 33.3918 59.0445C33.8322 59.705 33.47 60.6638 32.8307 61.1326C32.1915 61.6085 31.3605 61.7221 30.5722 61.8215C36.5027 65.5858 44.4503 66.9708 50.5371 63.4693C54.7559 61.0332 57.4548 56.7007 60.8143 53.1779C67.4976 46.1607 81.7167 48.4974 87.6898 40.8694C94.1885 32.5809 95.6942 8.5321 84.7352 6.23802Z" fill="#263238"/>
<path d="M89.3014 15.9398C89.06 10.6698 83.4775 5.32169 78.2288 5.79045L61.1688 8.73796L61.1759 11.5718L61.6304 46.6436C61.6304 46.6436 62.8946 57.9719 72.4474 57.489C81.0271 57.0557 80.7075 47.993 80.7075 47.9859L80.5584 41.3736C80.5584 41.3736 87.4832 41.2102 89.0244 32.4671C89.7986 28.1133 89.5713 21.7922 89.3014 15.9398Z" fill="#FFBE9D"/>
<path d="M85.4685 23.4175C85.4827 24.0142 84.9855 24.5113 84.3676 24.5326C83.7497 24.5539 83.2383 24.0923 83.2241 23.4957C83.2099 22.8991 83.7071 22.4019 84.325 22.3806C84.9429 22.3593 85.4542 22.8209 85.4685 23.4175Z" fill="#263238"/>
<path d="M87.6769 20.5777C87.5349 20.7197 86.6968 20.0805 85.4823 20.0592C84.2748 20.0237 83.3728 20.6345 83.245 20.4782C83.1811 20.4143 83.3302 20.1515 83.7209 19.8745C84.1044 19.5975 84.7578 19.3418 85.5178 19.356C86.2706 19.3702 86.9027 19.6614 87.2579 19.9526C87.6272 20.2438 87.7479 20.5137 87.6769 20.5777Z" fill="#263238"/>
<path d="M74.9206 22.9611C74.9348 23.5577 74.4376 24.0549 73.8197 24.0762C73.2018 24.0975 72.6904 23.6358 72.6762 23.0392C72.662 22.4426 73.1592 21.9455 73.7771 21.9241C74.395 21.9099 74.9135 22.3716 74.9206 22.9611Z" fill="#263238"/>
<path d="M76.5404 20.5767C76.3983 20.7187 75.5531 20.0795 74.3457 20.0582C73.1383 20.0227 72.2363 20.6335 72.1085 20.4772C72.0445 20.4133 72.1937 20.1505 72.5843 19.8735C72.9678 19.5965 73.6213 19.3409 74.3741 19.3551C75.127 19.3693 75.7591 19.6605 76.1142 19.9517C76.4835 20.2429 76.6043 20.5128 76.5404 20.5767Z" fill="#263238"/>
<path d="M80.0278 29.4335C80.0207 29.3766 80.7806 29.2701 82.0022 29.1565C82.3147 29.1352 82.6059 29.0854 82.6628 28.9079C82.7409 28.7161 82.6201 28.4391 82.4781 28.1266C82.2011 27.4874 81.917 26.8198 81.6116 26.1237C81.2849 25.3922 79.7011 21.2799 79.6869 20.8893C79.8218 20.8466 80.9085 23.1265 82.1017 25.9746C82.3929 26.6777 82.6628 27.3454 82.9256 27.9917C83.0321 28.29 83.231 28.6309 83.0605 29.0215C82.9753 29.2133 82.7409 29.3553 82.542 29.398C82.3432 29.4477 82.1656 29.4477 82.0164 29.4548C80.7948 29.4903 80.0349 29.4903 80.0278 29.4335Z" fill="#263238"/>
<path d="M80.625 41.4209C80.625 41.4209 74.7158 41.6979 68.9344 38.0898C68.9344 38.0898 71.8322 44.2618 80.625 43.5942V41.4209Z" fill="#EB996E"/>
<path d="M76.398 29.4767C76.5969 29.4696 76.5756 30.7835 77.6835 31.7352C78.7915 32.687 80.1907 32.5662 80.1978 32.7509C80.212 32.8361 79.8782 32.9995 79.2887 33.0066C78.7063 33.0137 77.8682 32.8148 77.1864 32.2324C76.5117 31.65 76.2276 30.883 76.192 30.3432C76.1565 29.7892 76.3057 29.4696 76.398 29.4767Z" fill="#263238"/>
<path d="M76.7666 16.4932C76.6174 16.8626 75.5876 16.5713 74.3234 16.6353C73.0591 16.6637 72.008 17.0401 71.8801 16.6779C71.8233 16.5074 72.0364 16.1665 72.4838 15.8398C72.9242 15.5131 73.606 15.229 74.3589 15.2006C75.1188 15.1722 75.7794 15.4065 76.2055 15.6977C76.6316 15.9889 76.8305 16.3157 76.7666 16.4932Z" fill="#263238"/>
<path d="M87.6691 16.5781C87.4631 16.919 86.5682 16.6278 85.517 16.6704C84.4659 16.6704 83.5852 16.9971 83.365 16.6704C83.2656 16.5071 83.3863 16.1733 83.7627 15.8465C84.1321 15.5198 84.7571 15.2286 85.4815 15.2144C86.206 15.2002 86.8452 15.4559 87.2358 15.7684C87.6193 16.0809 87.7614 16.4076 87.6691 16.5781Z" fill="#263238"/>
<path d="M57.5193 14.3622L57.8887 14.3835C57.8176 12.1747 58.0662 10.0084 58.954 8.01265C60.545 4.44013 63.9825 2.08213 67.5977 1.19432C71.2057 0.306522 74.9913 0.718465 78.6277 1.48553C80.3394 1.84775 82.3352 2.58641 82.7684 4.39752C82.9886 5.32794 82.7116 6.30807 82.3423 7.18167C80.6377 11.2656 76.8308 14.2557 72.6759 14.7813C71.7313 14.902 70.7156 14.9233 69.9273 15.4844C68.9542 16.1733 68.3292 17.331 67.9528 18.5455C67.832 19.0214 67.7326 19.5612 67.6616 20.1791C67.4769 21.7629 67.5977 23.3894 67.136 24.9093C66.5678 26.7985 64.7851 28.2758 64.6999 30.2503C64.5649 33.4038 68.7696 35.4351 68.6985 38.5886C68.6701 39.9664 67.8107 41.1596 67.1076 42.3386C66.4045 43.5176 65.8221 44.9736 66.3689 46.2379C66.653 46.8913 67.1999 47.3956 67.555 48.0135C68.7127 50.0234 67.342 52.8289 65.1686 53.6315C62.9953 54.4341 60.4668 53.5605 58.7836 51.9624C57.1003 50.3715 56.1202 48.1768 55.3744 45.9822C51.8516 35.7263 52.6542 24.057 57.5193 14.3622Z" fill="#263238"/>
<path d="M26.729 46.3746C26.7219 46.3746 26.7361 46.4314 26.7787 46.545C26.8071 46.6587 26.871 46.822 26.9917 47.028C27.2119 47.4328 27.6736 47.9868 28.4762 48.3846C29.2645 48.7681 30.3938 49.0238 31.6296 48.7042C32.8654 48.3846 34.0729 47.4328 34.9109 46.0905C35.7703 44.7552 36.2462 43.0364 36.4451 41.2111C36.6652 39.3787 36.6439 37.4113 37.0061 35.4013C37.1908 34.3999 37.4749 33.3914 37.9437 32.4396C38.4124 31.495 39.0943 30.6356 39.975 29.9822C41.7293 28.6327 44.0091 27.9864 46.0617 26.7009C47.0845 26.0546 47.9723 25.2094 48.6683 24.2648C49.3644 23.313 49.8899 22.2761 50.3232 21.232C51.1826 19.1368 51.7082 17.0274 52.3829 15.0955C52.7167 14.1296 53.086 13.1921 53.5264 12.3398C53.9596 11.4804 54.542 10.7347 55.1031 10.0244C56.275 8.63234 57.5392 7.48175 58.7396 6.50872C61.1544 4.55555 63.3632 3.31262 64.94 2.59528C65.7283 2.23305 66.3675 2.00578 66.8008 1.86373C66.9997 1.79981 67.163 1.75009 67.298 1.70747C67.4116 1.67196 67.4684 1.65066 67.4613 1.64355C67.4613 1.64355 66.4954 1.78561 64.8831 2.46744C63.278 3.14927 61.0336 4.37088 58.5762 6.30984C57.3546 7.28287 56.069 8.43347 54.8687 9.83264C54.2863 10.55 53.6897 11.3028 53.2352 12.1906C52.7735 13.0642 52.3971 14.0089 52.0562 14.9819C51.3672 16.9351 50.8346 19.0374 49.9823 21.0971C49.5561 22.1198 49.0448 23.1355 48.3629 24.0517C47.6882 24.9679 46.843 25.7705 45.8558 26.3955C43.8742 27.6384 41.573 28.2918 39.7477 29.6981C38.8315 30.3799 38.0999 31.2961 37.617 32.2834C37.1269 33.2706 36.8428 34.3147 36.6581 35.3374C36.2959 37.39 36.3314 39.3645 36.1255 41.1756C35.9479 42.9867 35.4933 44.6487 34.6766 45.9484C33.8811 47.2553 32.7305 48.1786 31.5657 48.4982C30.3938 48.8178 29.3 48.5976 28.5259 48.2425C27.7446 47.8803 27.2829 47.3618 27.0486 46.9783C26.8071 46.609 26.7574 46.3675 26.729 46.3746Z" fill="#263238"/>
<path d="M51.6737 89.2715C53.357 84.0228 56.1554 69.3279 56.6525 63.1914C57.1497 57.0478 61.127 42.4027 66.5533 42.6797C66.6101 42.6797 66.6598 42.6868 66.7167 42.6868C80.609 43.2194 85.6091 52.7509 86.7881 64.1858L86.7313 71.7712C86.7881 82.2898 84.2383 98.4478 83.8619 104.037C83.4571 110.082 82.0579 113.91 82.0579 113.91C82.0579 113.91 70.0974 115.813 64.0532 113.235C58.0091 110.657 53.2576 111.254 49.7916 108.583C46.3256 105.912 43.5557 102.638 43.5557 102.638C43.5557 102.638 49.9905 94.5273 51.6737 89.2715Z" fill="#356EEF"/>
<g opacity="0.3">
<g opacity="0.3">
<g opacity="0.3">
<path opacity="0.3" d="M64.089 57.6152C71.9443 64.7674 75.0694 76.5361 84.0965 82.1328L86.2344 83.3828C84.2315 86.4084 79.8706 87.5945 76.6106 85.9894C74.4444 84.924 72.9244 82.8998 71.504 80.9467C68.9968 77.5091 66.4968 74.0147 64.9058 70.0729C63.3149 66.131 62.7041 61.6423 64.089 57.6152Z" fill="black"/>
</g>
</g>
</g>
<path d="M65.4387 43.2202C65.7512 43.2131 73.919 43.2202 77.1222 47.5811C79.9489 51.4235 85.2402 64.8116 85.2402 64.8116L68.0169 72.1626C68.0169 72.1626 64.0324 64.1724 62.3705 58.9379C60.5025 53.0074 61.8733 43.3197 65.4387 43.2202Z" fill="#356EEF"/>
<path d="M101.327 65.2793L86.3485 71.6644L82.5558 65.9611L69.9064 71.359C69.9064 71.359 75.2971 84.4345 81.1921 85.4147C87.0871 86.3948 106.732 70.4357 106.732 70.4357L101.327 65.2793Z" fill="#FFBE9D"/>
<path d="M104.651 55.358C104.651 55.358 107.031 54.662 107.13 57.2402C107.13 57.2402 109.609 56.8424 109.609 59.2217C109.609 59.2217 111.889 59.52 111.491 61.6011C111.491 61.6011 113.274 62.7872 112.478 64.8682C111.683 66.9492 106.732 70.4365 106.732 70.4365L101.327 65.2801C101.327 65.2801 101.484 60.6067 101.782 60.0101C102.073 59.4206 104.651 55.358 104.651 55.358Z" fill="#FFBE9D"/>
<path d="M61.7667 57.4954C61.7596 57.5025 61.788 57.5948 61.8591 57.7795C61.9443 57.9926 62.0437 58.2625 62.1787 58.5892C62.4841 59.3278 62.896 60.3506 63.4216 61.6219C64.5225 64.2498 66.0637 67.9147 67.8748 72.2258L67.9387 72.3821L68.095 72.3182C71.1561 71.0184 74.5653 69.5695 78.152 68.0425C80.6592 66.97 83.0882 65.9331 85.3184 64.9743L85.4746 64.9032L85.4107 64.747C83.3368 59.6119 81.3978 55.2511 79.8708 52.2183C79.1037 50.7055 78.4574 49.5194 77.9531 48.7452C77.7188 48.3475 77.4986 48.0634 77.3565 47.8645C77.2145 47.6728 77.1364 47.5733 77.1293 47.5804C77.1009 47.6017 77.3992 48.0066 77.8537 48.8092C78.3225 49.6046 78.9333 50.8049 79.6719 52.3249C81.1421 55.3718 83.0385 59.7469 85.084 64.8819L85.1763 64.6546C82.939 65.6064 80.5171 66.6362 78.0029 67.7087C74.4161 69.2428 71.0141 70.7059 67.96 72.0128L68.1802 72.1051C66.3194 67.8152 64.7355 64.1646 63.6063 61.5509C63.0452 60.2938 62.5977 59.2852 62.2781 58.5537C62.129 58.2341 62.0082 57.9713 61.9159 57.7653C61.8236 57.5806 61.7738 57.4954 61.7667 57.4954Z" fill="#263238"/>
<path d="M61.1708 53.8029C61.2276 53.8029 61.2631 52.8867 61.3981 51.4165C61.5472 49.9747 61.8171 47.8653 63.1453 46.0684C63.7987 45.1806 64.6581 44.5342 65.5459 44.1933C66.4337 43.8524 67.3144 43.7672 68.0388 43.7885C69.5019 43.8453 70.3684 44.2217 70.3826 44.1507C70.3897 44.1294 70.1909 44.0158 69.7931 43.8808C69.3954 43.7459 68.8059 43.5825 68.053 43.5328C67.3002 43.476 66.3769 43.5328 65.4251 43.8808C64.4734 44.2217 63.5359 44.9178 62.847 45.8553C62.1509 46.7928 61.739 47.8369 61.4975 48.8028C61.256 49.7687 61.1708 50.6636 61.1353 51.4094C61.0998 52.1551 61.0998 52.7588 61.114 53.1708C61.1282 53.5756 61.1495 53.8029 61.1708 53.8029Z" fill="#263238"/>
<path d="M81.6456 49.32C81.5887 49.3555 82.2493 50.3001 83.1229 51.9266C83.9965 53.553 85.0334 55.8968 85.7437 58.6241C86.4468 61.3515 86.6883 63.9012 86.7167 65.7479C86.7522 67.5945 86.6315 68.738 86.7025 68.7451C86.7309 68.7451 86.7735 68.461 86.8374 67.9496C86.9085 67.4311 86.9582 66.6783 86.9795 65.7479C87.015 63.887 86.8161 61.2947 86.0988 58.5318C85.3743 55.769 84.2877 53.411 83.3501 51.8058C82.8814 51.0033 82.4694 50.3711 82.1569 49.9521C81.8515 49.526 81.6669 49.3058 81.6456 49.32Z" fill="#263238"/>
<path d="M13.6544 173.407L13.0152 173.776C13.0152 173.776 14.7979 187.164 12.795 188.457L0.656994 166.723L8.05771 162.98C8.35601 167.043 10.0819 170.516 13.6544 173.407Z" fill="#356EEF"/>
<g opacity="0.6">
<g opacity="0.6">
<g opacity="0.6">
<g opacity="0.6">
<g opacity="0.6">
<g opacity="0.6">
<g opacity="0.6">
<g opacity="0.6">
<g opacity="0.6">
<g opacity="0.6">
<g opacity="0.6">
<g opacity="0.6">
<g opacity="0.6">
<g opacity="0.6">
<g opacity="0.6">
<g opacity="0.6">
<g opacity="0.6">
<path opacity="0.6" d="M6.9708 166.466C6.62278 166.111 5.98356 166.082 5.61423 166.416C5.24491 166.75 5.20939 167.396 5.55741 167.758C5.89833 168.121 6.66539 168.177 6.9921 167.801C7.32592 167.425 7.31881 166.665 6.89977 166.395" fill="white"/>
</g>
</g>
</g>
</g>
</g>
</g>
</g>
</g>
</g>
</g>
</g>
</g>
</g>
</g>
</g>
</g>
</g>
<g opacity="0.6">
<g opacity="0.6">
<g opacity="0.6">
<g opacity="0.6">
<g opacity="0.6">
<g opacity="0.6">
<g opacity="0.6">
<g opacity="0.6">
<g opacity="0.6">
<g opacity="0.6">
<g opacity="0.6">
<g opacity="0.6">
<g opacity="0.6">
<g opacity="0.6">
<g opacity="0.6">
<g opacity="0.6">
<path opacity="0.6" d="M0.655783 166.714L2.43139 165.812L13.4117 186.971C13.4117 186.971 13.5325 188.171 12.7867 188.448L0.655783 166.714Z" fill="white"/>
</g>
</g>
</g>
</g>
</g>
</g>
</g>
</g>
</g>
</g>
</g>
</g>
</g>
</g>
</g>
</g>
<path d="M12.9929 173.881C12.8863 173.938 12.5383 173.434 11.9062 173.1C11.2812 172.752 10.6704 172.738 10.6562 172.617C10.6207 172.511 11.3451 172.312 12.1051 172.724C12.8721 173.136 13.0994 173.853 12.9929 173.881Z" fill="#263238"/>
<path d="M13.3198 176.687C13.2274 176.765 12.7942 176.41 12.1408 176.303C11.4944 176.176 10.9546 176.353 10.9049 176.247C10.8339 176.154 11.4163 175.735 12.2189 175.884C13.0286 176.033 13.4192 176.63 13.3198 176.687Z" fill="#263238"/>
<path d="M11.317 179.507C11.2389 179.422 11.6863 178.982 12.425 178.925C13.1565 178.868 13.6679 179.237 13.604 179.337C13.5472 179.443 13.0571 179.294 12.4605 179.351C11.8497 179.387 11.388 179.607 11.317 179.507Z" fill="#263238"/>
<path d="M12.8165 173.348C12.8307 173.363 13.0153 173.192 13.271 172.83C13.5196 172.461 13.8321 171.885 14.0026 171.09C14.0452 170.884 14.0594 170.664 14.031 170.429C14.0026 170.202 13.9031 169.925 13.6545 169.762C13.4131 169.591 13.0792 169.598 12.8165 169.719C12.5466 169.847 12.3548 170.074 12.2199 170.323C11.673 171.331 11.9642 172.738 12.8662 173.64C13.7895 174.542 15.0253 174.826 16.0836 174.84C16.2256 174.84 16.3748 174.826 16.5239 174.762C16.6731 174.698 16.8151 174.556 16.8577 174.385C16.943 174.045 16.7441 173.746 16.531 173.597C16.0836 173.32 15.6645 173.242 15.2668 173.157C14.4642 173.022 13.8108 173.114 13.3775 173.228C12.9443 173.341 12.7312 173.462 12.7383 173.483C12.7454 173.562 13.6972 173.114 15.2171 173.42C15.5793 173.505 16.0196 173.618 16.3535 173.846C16.5097 173.959 16.5949 174.144 16.5523 174.3C16.5168 174.442 16.325 174.506 16.0836 174.506C15.0963 174.478 13.9457 174.187 13.129 173.384C12.3335 172.589 12.0778 171.346 12.5252 170.493C12.6318 170.287 12.7809 170.11 12.9585 170.025C13.1361 169.939 13.3491 169.932 13.4912 170.032C13.7895 170.223 13.8037 170.714 13.7469 171.054C13.4628 172.56 12.7454 173.313 12.8165 173.348Z" fill="#263238"/>
<path d="M94.2101 192.704L94.2314 193.443C94.2314 193.443 106.874 198.194 107.065 200.574L82.1786 201L82.3774 192.711C86.0991 194.366 89.977 194.487 94.2101 192.704Z" fill="#356EEF"/>
<g opacity="0.6">
<g opacity="0.6">
<g opacity="0.6">
<g opacity="0.6">
<g opacity="0.6">
<g opacity="0.6">
<g opacity="0.6">
<g opacity="0.6">
<g opacity="0.6">
<g opacity="0.6">
<g opacity="0.6">
<g opacity="0.6">
<g opacity="0.6">
<g opacity="0.6">
<g opacity="0.6">
<g opacity="0.6">
<g opacity="0.6">
<path opacity="0.6" d="M84.9341 195.318C84.4511 195.46 84.1315 196.007 84.2523 196.49C84.373 196.973 84.927 197.306 85.41 197.179C85.8929 197.044 86.2978 196.404 86.1273 195.936C85.9569 195.467 85.2821 195.112 84.8489 195.353" fill="white"/>
</g>
</g>
</g>
</g>
</g>
</g>
</g>
</g>
</g>
</g>
</g>
</g>
</g>
</g>
</g>
</g>
</g>
<g opacity="0.6">
<g opacity="0.6">
<g opacity="0.6">
<g opacity="0.6">
<g opacity="0.6">
<g opacity="0.6">
<g opacity="0.6">
<g opacity="0.6">
<g opacity="0.6">
<g opacity="0.6">
<g opacity="0.6">
<g opacity="0.6">
<g opacity="0.6">
<g opacity="0.6">
<g opacity="0.6">
<g opacity="0.6">
<path opacity="0.6" d="M82.1714 201L82.2211 199.004L106.057 199.324C106.057 199.324 107.172 199.785 107.058 200.566L82.1714 201Z" fill="white"/>
</g>
</g>
</g>
</g>
</g>
</g>
</g>
</g>
</g>
</g>
</g>
</g>
</g>
</g>
</g>
</g>
<path d="M94.3176 193.514C94.3176 193.634 93.7068 193.698 93.1173 194.103C92.5136 194.487 92.2152 195.019 92.1016 194.977C91.988 194.956 92.1584 194.224 92.8829 193.755C93.6073 193.265 94.346 193.4 94.3176 193.514Z" fill="#263238"/>
<path d="M96.951 194.544C96.9794 194.665 96.461 194.878 96.0561 195.396C95.6371 195.907 95.5448 196.461 95.424 196.461C95.3104 196.483 95.2109 195.772 95.7294 195.133C96.2266 194.494 96.9439 194.43 96.951 194.544Z" fill="#263238"/>
<path d="M98.4863 197.647C98.3798 197.676 98.1951 197.072 98.5005 196.397C98.7988 195.723 99.367 195.453 99.4167 195.552C99.4877 195.652 99.1255 196.014 98.884 196.568C98.6355 197.122 98.607 197.633 98.4863 197.647Z" fill="#263238"/>
<path d="M93.7619 193.414C93.7832 193.407 93.7193 193.166 93.5133 192.768C93.3074 192.377 92.9451 191.823 92.3272 191.305C92.1639 191.17 91.9792 191.049 91.759 190.971C91.546 190.893 91.2548 190.843 90.992 190.985C90.7292 191.12 90.5729 191.418 90.5587 191.702C90.5374 192.001 90.6582 192.285 90.8073 192.512C91.4394 193.471 92.8173 193.883 94.0318 193.514C95.2605 193.13 96.0986 192.171 96.61 191.241C96.6739 191.113 96.7307 190.978 96.7449 190.815C96.7591 190.651 96.7023 190.459 96.5745 190.339C96.3188 190.104 95.9566 190.133 95.7293 190.254C95.2747 190.516 95.0048 190.85 94.7421 191.163C94.252 191.802 94.0176 192.427 93.9111 192.86C93.8045 193.293 93.8116 193.542 93.8329 193.549C93.9111 193.577 93.9608 192.533 94.948 191.333C95.1966 191.056 95.5091 190.722 95.8571 190.538C96.0276 190.452 96.2336 190.467 96.3472 190.573C96.4537 190.673 96.4253 190.871 96.3046 191.077C95.8145 191.93 95.0119 192.81 93.9182 193.151C92.8457 193.478 91.6241 193.116 91.0843 192.313C90.9494 192.121 90.8641 191.908 90.8783 191.71C90.8854 191.511 90.9778 191.326 91.134 191.241C91.4465 191.07 91.8798 191.29 92.1568 191.496C93.3713 192.469 93.698 193.457 93.7619 193.414Z" fill="#263238"/>
<path d="M102.243 4.32737C102.769 4.33448 103.358 4.61857 103.841 5.52768C103.841 5.52768 105.901 4.093 106.931 6.23793C106.931 6.23793 109.111 5.51348 109.658 7.55898C109.658 7.55898 111.782 7.85727 111.973 10.0732C112.165 12.2892 109.218 17.5876 109.218 17.5876L102.108 15.2935C102.108 15.2935 100.219 11.0178 100.226 10.3502C100.233 9.86726 100.531 7.17544 100.688 5.76916C100.78 4.97369 101.433 4.31317 102.243 4.32737Z" fill="#FFBE9D"/>
<path d="M100.915 10.0075C101.107 9.28307 101.377 8.57994 101.725 7.91231C101.838 7.68503 101.973 7.45775 102.194 7.3299C102.407 7.20206 102.669 7.19496 102.918 7.19496C104.232 7.18075 105.546 7.20917 106.86 7.28019C107.052 7.2944 107.279 7.32281 107.371 7.49327C107.485 7.70634 107.293 7.95492 107.108 8.11117C106.256 8.83562 105.177 9.29728 104.069 9.42513C105.219 9.95781 106.455 10.5615 107.044 11.6837C107.371 12.3087 107.471 13.0403 107.378 13.7363C107.286 14.4323 107.016 15.1 106.654 15.7037" fill="#FFBE9D"/>
<path d="M106.639 15.706C106.654 15.7131 106.796 15.5497 106.987 15.1946C107.172 14.8466 107.421 14.2997 107.506 13.5681C107.584 12.8508 107.47 11.8778 106.824 11.0752C106.192 10.2655 105.176 9.73993 104.139 9.26406L104.083 9.60499C104.793 9.52686 105.524 9.31378 106.199 8.94446C106.519 8.774 106.824 8.57513 107.094 8.35496C107.229 8.24842 107.385 8.12058 107.492 7.93592C107.62 7.77256 107.627 7.40323 107.392 7.24698C107.186 7.09783 106.98 7.10493 106.817 7.09073C106.654 7.09073 106.49 7.08363 106.334 7.08363C106.014 7.07653 105.702 7.07652 105.397 7.06942C104.793 7.06232 104.21 7.05522 103.656 7.04811C103.387 7.04811 103.124 7.04812 102.868 7.04102C102.619 7.04812 102.335 7.06943 102.101 7.21858C101.874 7.36773 101.753 7.5879 101.654 7.77256C101.561 7.96433 101.476 8.14189 101.405 8.31234C101.263 8.65326 101.156 8.95156 101.078 9.20015C100.929 9.69731 100.886 9.98141 100.908 9.98851C100.936 9.99562 101.021 9.72573 101.213 9.24987C101.306 9.00839 101.433 8.72428 101.59 8.39757C101.76 8.09217 101.916 7.65182 102.236 7.43875C102.563 7.24698 103.124 7.34641 103.649 7.34641C104.196 7.36062 104.771 7.38193 105.375 7.40324C105.681 7.41034 105.993 7.41744 106.306 7.43164C106.604 7.45295 107.016 7.41744 107.158 7.52397C107.293 7.5879 107.129 7.86489 106.853 8.05666C106.597 8.26263 106.313 8.44729 106.007 8.61064C105.375 8.95156 104.686 9.15753 104.019 9.23566L103.372 9.31379L103.962 9.58367C104.999 10.0524 105.958 10.5425 106.554 11.267C107.158 11.9772 107.293 12.8579 107.25 13.5397C107.201 14.2358 107.002 14.7755 106.853 15.1378C106.718 15.5071 106.618 15.6989 106.639 15.706Z" fill="#EB996E"/>
<path d="M109.203 8.0638C109.154 8.04959 108.969 8.51125 108.784 9.28541C108.692 9.67605 108.607 10.1377 108.543 10.6633C108.514 10.919 108.479 11.2102 108.507 11.5156C108.536 11.8139 108.621 12.169 108.891 12.4247C109.161 12.6875 109.544 12.7585 109.864 12.7017C110.183 12.652 110.475 12.4886 110.673 12.2755C111.078 11.8565 111.22 11.3593 111.313 10.9758C111.469 10.1874 111.568 9.73287 111.533 9.71156C111.476 9.68315 111.277 10.159 111.057 10.9048C110.936 11.267 110.773 11.7073 110.432 12.0341C110.127 12.3537 109.494 12.4957 109.146 12.1548C108.798 11.8068 108.841 11.1889 108.884 10.6917C108.926 10.1803 108.983 9.71156 109.04 9.32802C109.154 8.56096 109.253 8.078 109.203 8.0638Z" fill="#EB996E"/>
<path d="M106.419 8.47408C106.376 8.48118 106.298 8.90023 106.192 9.63178C106.163 9.994 106.142 10.4841 106.426 10.9599C106.568 11.1943 106.802 11.3932 107.101 11.4926C107.392 11.5991 107.783 11.5423 108.031 11.315C108.287 11.102 108.415 10.8321 108.535 10.5977C108.649 10.3633 108.756 10.129 108.841 9.90167C109.018 9.45422 109.153 9.03518 109.246 8.68006C109.43 7.96982 109.459 7.51525 109.409 7.50815C109.352 7.49395 109.231 7.9272 108.99 8.60193C108.869 8.94285 108.713 9.34058 108.521 9.76673C108.315 10.1787 108.123 10.7256 107.79 11.031C107.456 11.3364 106.923 11.1162 106.71 10.7753C106.476 10.4272 106.447 9.994 106.454 9.64599C106.49 8.94285 106.483 8.47408 106.419 8.47408Z" fill="#EB996E"/>
<path d="M103.443 7.23806C103.543 7.25936 103.706 6.93265 103.798 6.4994C103.898 6.07325 103.898 5.70393 103.798 5.68263C103.699 5.66132 103.536 5.98803 103.443 6.42127C103.344 6.84742 103.344 7.21675 103.443 7.23806Z" fill="#EB996E"/>
<path d="M112.471 49.8185C112.485 49.8185 112.513 49.6836 112.563 49.4279C112.613 49.1296 112.684 48.7603 112.762 48.3057C112.925 47.3256 113.152 45.9122 113.394 44.1508C113.856 40.6422 114.353 35.6989 113.65 30.2869C113.323 27.5809 112.606 25.0737 111.846 22.8506C111.079 20.6276 110.248 18.6744 109.544 17.048C108.841 15.4641 108.266 14.1644 107.84 13.2056C107.648 12.7865 107.492 12.4385 107.371 12.1686C107.257 11.9342 107.194 11.8135 107.186 11.8135C107.172 11.8206 107.215 11.9484 107.307 12.197C107.414 12.4811 107.549 12.8362 107.712 13.2624C108.11 14.2283 108.65 15.5423 109.303 17.1474C109.971 18.7881 110.773 20.7412 111.519 22.9572C112.258 25.1731 112.954 27.659 113.28 30.3366C113.976 35.6918 113.529 40.6067 113.131 44.1153C112.918 45.8341 112.748 47.2474 112.62 48.2844C112.57 48.7461 112.52 49.1225 112.485 49.4208C112.471 49.6765 112.456 49.8114 112.471 49.8185Z" fill="#263238"/>
</svg>
