<svg width="160" height="90" viewBox="0 0 160 90" fill="none" xmlns="http://www.w3.org/2000/svg">
<rect width="160" height="90" rx="16" fill="white"/>
<g clip-path="url(#clip0)">
<path d="M73.8155 45.3847C73.8155 49.5488 70.5316 52.6173 66.5015 52.6173C62.4714 52.6173 59.1875 49.5488 59.1875 45.3847C59.1875 41.1912 62.4714 38.1521 66.5015 38.1521C70.5316 38.1521 73.8155 41.1912 73.8155 45.3847ZM70.6138 45.3847C70.6138 42.7825 68.7105 41.0021 66.5015 41.0021C64.2925 41.0021 62.3892 42.7825 62.3892 45.3847C62.3892 47.9608 64.2925 49.7673 66.5015 49.7673C68.7105 49.7673 70.6138 47.9575 70.6138 45.3847Z" fill="#EA4335"/>
<path d="M89.5929 45.3847C89.5929 49.5488 86.309 52.6173 82.2789 52.6173C78.2488 52.6173 74.9648 49.5488 74.9648 45.3847C74.9648 41.1945 78.2488 38.1521 82.2789 38.1521C86.309 38.1521 89.5929 41.1912 89.5929 45.3847ZM86.3911 45.3847C86.3911 42.7825 84.4879 41.0021 82.2789 41.0021C80.0699 41.0021 78.1666 42.7825 78.1666 45.3847C78.1666 47.9608 80.0699 49.7673 82.2789 49.7673C84.4879 49.7673 86.3911 47.9575 86.3911 45.3847Z" fill="#FBBC05"/>
<path d="M104.715 38.5891V51.5738C104.715 56.9151 101.54 59.0967 97.786 59.0967C94.2523 59.0967 92.1255 56.7521 91.3234 54.8347L94.111 53.6836C94.6073 54.8608 95.8236 56.2499 97.7828 56.2499C100.186 56.2499 101.675 54.7793 101.675 52.0108V50.9706H101.563C100.846 51.8478 99.4658 52.6141 97.7236 52.6141C94.0781 52.6141 90.7383 49.4641 90.7383 45.4108C90.7383 41.3282 94.0781 38.1521 97.7236 38.1521C99.4625 38.1521 100.843 38.9184 101.563 39.7695H101.675V38.5923H104.715V38.5891ZM101.902 45.4108C101.902 42.8641 100.189 41.0021 98.0096 41.0021C95.8006 41.0021 93.9499 42.8641 93.9499 45.4108C93.9499 47.9314 95.8006 49.7673 98.0096 49.7673C100.189 49.7673 101.902 47.9314 101.902 45.4108Z" fill="#4285F4"/>
<path d="M109.728 30.9783V52.1739H106.605V30.9783H109.728Z" fill="#34A853"/>
<path d="M121.897 47.7652L124.382 49.4087C123.58 50.5859 121.647 52.6141 118.307 52.6141C114.166 52.6141 111.072 49.4381 111.072 45.3815C111.072 41.0804 114.192 38.1489 117.949 38.1489C121.733 38.1489 123.583 41.1359 124.188 42.75L124.52 43.5718L114.774 47.5761C115.52 49.0272 116.68 49.7674 118.307 49.7674C119.938 49.7674 121.069 48.9718 121.897 47.7652ZM114.248 45.1631L120.763 42.4794C120.405 41.5761 119.326 40.9468 118.058 40.9468C116.43 40.9468 114.166 42.3718 114.248 45.1631Z" fill="#EA4335"/>
<path d="M47.3669 43.5033V40.4348H57.7906C57.8926 40.9696 57.9451 41.6022 57.9451 42.287C57.9451 44.5892 57.3107 47.4359 55.2661 49.4642C53.2773 51.5185 50.7363 52.6142 47.3702 52.6142C41.1311 52.6142 35.8848 47.5729 35.8848 41.3838C35.8848 35.1946 41.1311 30.1533 47.3702 30.1533C50.8218 30.1533 53.2806 31.4968 55.128 33.2479L52.9453 35.4131C51.6206 34.1805 49.8258 33.2218 47.3669 33.2218C42.8109 33.2218 39.2476 36.8642 39.2476 41.3838C39.2476 45.9033 42.8109 49.5457 47.3669 49.5457C50.3221 49.5457 52.0052 48.3685 53.0834 47.299C53.9578 46.4316 54.533 45.1925 54.7599 43.5001L47.3669 43.5033Z" fill="#4285F4"/>
</g>
<defs>
<clipPath id="clip0">
<rect width="89.4118" height="30" fill="white" transform="translate(35.7656 30)"/>
</clipPath>
</defs>
</svg>
