<svg width="160" height="90" viewBox="0 0 160 90" fill="none" xmlns="http://www.w3.org/2000/svg">
<rect width="160" height="90" rx="16" fill="white"/>
<g clip-path="url(#clip0)">
<path d="M59.79 51.2616C59.6379 50.896 59.4953 50.5116 59.3433 50.1835L58.64 48.6178L58.6115 48.5897C56.5206 44.0897 54.2871 39.5147 51.9206 35.0147L51.8256 34.8272C51.588 34.3866 51.3504 33.8991 51.1033 33.4491C50.7991 32.9147 50.5045 32.3428 50.0198 31.7991C49.5473 31.2302 48.9527 30.7718 48.2789 30.457C47.605 30.1423 46.8687 29.979 46.1232 29.979C45.3776 29.979 44.6413 30.1423 43.9674 30.457C43.2936 30.7718 42.699 31.2302 42.2265 31.7991C41.7798 32.3428 41.4472 32.9147 41.143 33.4491C40.9054 33.9366 40.6678 34.4147 40.4207 34.8553L40.3257 35.0428C37.9972 39.5428 35.7257 44.1178 33.6348 48.6178L33.5778 48.6741C33.3687 49.1616 33.1216 49.6678 32.884 50.2116C32.732 50.5397 32.5799 50.896 32.4278 51.2897C32.0173 52.3208 31.8862 53.4396 32.0475 54.5358C32.2087 55.632 32.6568 56.6679 33.3475 57.5414C34.0382 58.4148 34.9477 59.0956 35.9864 59.5167C37.025 59.9378 38.157 60.0847 39.2707 59.9428C40.3385 59.8042 41.3666 59.4534 42.293 58.9116C43.5286 58.2272 44.7166 57.2335 46.0471 55.7991C47.3777 57.2335 48.5942 58.2272 49.8012 58.921C50.9619 59.593 52.2764 59.9639 53.6218 59.9991C55.1799 60.0055 56.6877 59.4556 57.8668 58.451C59.0459 57.4464 59.8168 56.0549 60.0371 54.5335C60.2916 53.4401 60.2055 52.2965 59.79 51.2522V51.2616ZM46.1422 52.8178C44.5075 50.7553 43.443 48.8616 43.0819 47.2397C42.9322 46.6387 42.9 46.0151 42.9868 45.4022C43.0533 44.9241 43.2339 44.5022 43.481 44.146C44.0513 43.3303 45.0492 42.8241 46.1422 42.8241C46.6612 42.8085 47.1761 42.9202 47.6405 43.1493C48.105 43.3783 48.5045 43.7176 48.8033 44.1366C49.0504 44.5116 49.231 44.9241 49.288 45.4022C49.383 45.946 49.345 46.5741 49.193 47.2397C48.8318 48.8335 47.7674 50.746 46.1422 52.8178ZM58.2503 54.2053C58.1423 54.9778 57.831 55.7088 57.3475 56.3257C56.8639 56.9425 56.2249 57.4236 55.4941 57.721C54.7718 58.021 53.9735 58.1053 53.1942 58.021C52.4338 57.9272 51.6735 57.6835 50.8942 57.2335C49.6002 56.4446 48.4367 55.4644 47.4442 54.3272C49.4401 51.8897 50.6471 49.6678 51.1033 47.6897C51.3219 46.7522 51.3504 45.9085 51.2553 45.1303C51.1367 44.3928 50.8578 43.6893 50.438 43.0678C49.9586 42.394 49.3187 41.8467 48.5746 41.474C47.8306 41.1013 47.005 40.9146 46.1707 40.9303C44.4124 40.9303 42.8443 41.7366 41.8939 43.0585C41.466 43.6783 41.1895 44.3875 41.086 45.1303C40.9625 45.9178 40.991 46.7897 41.2381 47.6897C41.6943 49.6678 42.9298 51.9178 44.8971 54.346C43.9215 55.5049 42.7553 56.4937 41.4472 57.271C40.6583 57.721 39.9075 57.9553 39.1472 58.0491C37.9648 58.1985 36.7704 57.8815 35.8236 57.167C34.8768 56.4525 34.2542 55.3983 34.091 54.2335C33.996 53.4835 34.0625 52.7335 34.3667 51.8897C34.4617 51.5897 34.6043 51.2897 34.7563 50.9335C34.9654 50.446 35.2125 49.9397 35.4501 49.4335L35.4881 49.3678C37.541 44.896 39.784 40.3303 42.1124 35.8585L42.2075 35.671C42.4451 35.221 42.6827 34.7428 42.9298 34.2928C43.1769 33.8147 43.443 33.3553 43.7852 32.9803C44.0813 32.6316 44.4514 32.3512 44.8693 32.1587C45.2872 31.9663 45.7427 31.8666 46.2039 31.8666C46.6651 31.8666 47.1207 31.9663 47.5386 32.1587C47.9565 32.3512 48.3266 32.6316 48.6227 32.9803C48.9554 33.3553 49.231 33.8147 49.4781 34.2928C49.7157 34.7428 49.9533 35.2303 50.2004 35.671L50.2954 35.8585C52.6144 40.3303 54.8574 44.896 56.9483 49.3678L56.9768 49.396C57.2239 49.8835 57.433 50.4272 57.6706 50.896C57.8226 51.2616 57.9747 51.5522 58.0697 51.8616C58.2503 52.7053 58.3453 53.4553 58.2503 54.2053ZM71.4799 52.6116C70.7638 52.6219 70.0544 52.4731 69.4045 52.1761C68.7547 51.8791 68.1809 51.4416 67.7258 50.896C66.7033 49.7334 66.1605 48.2345 66.2052 46.696C66.1895 45.124 66.7498 43.5993 67.7829 42.4022C68.2607 41.8497 68.8556 41.4072 69.5255 41.1059C70.1955 40.8046 70.9242 40.6519 71.6605 40.6585C72.3533 40.6398 73.0395 40.7952 73.6546 41.11C74.2698 41.4249 74.7937 41.8889 75.177 42.4585L75.272 40.9866H78.0472V52.3116H75.2625L75.1675 50.6616C74.7723 51.2697 74.226 51.7681 73.5806 52.1094C72.9352 52.4507 72.2121 52.6235 71.4799 52.6116ZM72.2022 49.9116C72.7535 49.9116 73.2382 49.7616 73.6944 49.4897C74.1125 49.1897 74.4547 48.796 74.7208 48.3178C74.9584 47.8397 75.082 47.2678 75.082 46.6303C75.119 46.0767 75.0097 45.523 74.7649 45.0234C74.52 44.5238 74.1478 44.0955 73.6849 43.7803C73.24 43.5069 72.7264 43.362 72.2022 43.362C71.6781 43.362 71.1645 43.5069 70.7196 43.7803C70.3014 44.0803 69.9593 44.4741 69.6932 44.9522C69.4418 45.4795 69.3182 46.0572 69.332 46.6397C69.295 47.1934 69.4042 47.7471 69.6491 48.2467C69.894 48.7462 70.2661 49.1745 70.7291 49.4897C71.1758 49.7616 71.6605 49.9116 72.2022 49.9116ZM82.7992 37.9303C82.7992 38.2585 82.7422 38.5585 82.5901 38.8022C82.4381 39.0366 82.229 39.2522 81.9534 39.4022C81.6778 39.5522 81.3831 39.6085 81.079 39.6085C80.7749 39.6085 80.4707 39.5522 80.1951 39.4022C79.9345 39.2591 79.7153 39.0525 79.5584 38.8022C79.4112 38.5352 79.339 38.2342 79.3493 37.9303C79.3493 37.5928 79.4158 37.2928 79.5584 37.0585C79.7104 36.7772 79.929 36.6085 80.1951 36.4585C80.4707 36.3085 80.7654 36.2428 81.079 36.2428C81.3815 36.236 81.6807 36.3066 81.9472 36.448C82.2138 36.5893 82.4386 36.7964 82.5996 37.0491C82.738 37.3224 82.8065 37.6249 82.7992 37.9303ZM79.5679 52.2741V40.9678H82.5901V52.2928H79.5584L79.5679 52.2741ZM90.6686 43.9303V43.9678C90.526 43.9022 90.3359 43.8741 90.1934 43.846C90.0033 43.8085 89.8512 43.8085 89.6707 43.8085C88.8248 43.8085 88.188 44.0522 87.7698 44.5585C87.3137 45.0741 87.1046 45.796 87.1046 46.7241V52.2835H84.0728V40.9585H86.8575L86.9525 42.6741C87.2566 42.0741 87.6178 41.6241 88.131 41.2866C88.6415 40.9587 89.2425 40.7949 89.8512 40.8178C90.0698 40.8178 90.2789 40.8366 90.4595 40.8741C90.5545 40.9022 90.6115 40.9022 90.6686 40.9303V43.9303ZM91.8851 52.2741V36.3178H94.9074V42.4116C95.3351 41.8678 95.8198 41.446 96.428 41.1178C97.391 40.6521 98.4849 40.52 99.5333 40.7428C100.582 40.9657 101.523 41.5304 102.206 42.346C103.231 43.5109 103.774 45.0136 103.727 46.5553C103.743 48.1273 103.183 49.6521 102.149 50.8491C101.672 51.4016 101.077 51.8441 100.407 52.1454C99.7368 52.4467 99.0081 52.5994 98.2718 52.5928C97.579 52.6115 96.8928 52.4562 96.2777 52.1413C95.6625 51.8264 95.1386 51.3624 94.7553 50.7928L94.6603 52.2647L91.8851 52.2928V52.2741ZM97.7301 49.9116C98.2718 49.9116 98.7565 49.7616 99.2127 49.4897C99.6309 49.1897 99.973 48.796 100.239 48.3178C100.486 47.8397 100.6 47.2678 100.6 46.6303C100.6 46.0022 100.486 45.4303 100.239 44.9522C99.9896 44.4912 99.6389 44.0909 99.2127 43.7803C98.7679 43.5069 98.2542 43.362 97.7301 43.362C97.2059 43.362 96.6923 43.5069 96.2474 43.7803C95.8198 44.0803 95.4871 44.4741 95.2115 44.9522C94.9602 45.4795 94.8365 46.0572 94.8504 46.6397C94.8133 47.1934 94.9226 47.7471 95.1675 48.2467C95.4123 48.7462 95.7845 49.1745 96.2474 49.4897C96.6941 49.7616 97.1788 49.9116 97.7301 49.9116ZM104.868 52.2835V40.9585H107.652L107.747 42.4303C108.097 41.8661 108.594 41.4044 109.185 41.0929C109.777 40.7814 110.442 40.6314 111.112 40.6585C111.878 40.6454 112.631 40.8555 113.277 41.2623C113.922 41.6692 114.432 42.2548 114.742 42.946C115.075 43.6585 115.256 44.5397 115.256 45.5241V52.3116H112.224V45.9178C112.224 45.1303 112.043 44.5116 111.682 44.0522C111.321 43.6022 110.827 43.3585 110.199 43.3585C109.743 43.3585 109.344 43.4522 108.992 43.6585C108.66 43.8741 108.384 44.146 108.175 44.5303C107.964 44.9189 107.859 45.3552 107.871 45.796V52.2835H104.868ZM116.767 52.2835V36.3085H119.798V42.4022C120.209 41.8554 120.743 41.4106 121.359 41.103C121.974 40.7955 122.654 40.6336 123.343 40.6303C124.06 40.62 124.769 40.7689 125.419 41.0659C126.069 41.3629 126.642 41.8004 127.098 42.346C128.115 43.5108 128.654 45.009 128.609 46.546C128.625 48.1181 128.065 49.6431 127.031 50.8397C126.553 51.3923 125.958 51.8348 125.288 52.136C124.618 52.4373 123.89 52.59 123.153 52.5835C122.461 52.6022 121.774 52.4468 121.159 52.1319C120.544 51.817 120.02 51.353 119.637 50.7835L119.551 52.2553L116.767 52.2835ZM122.64 49.9116C123.191 49.9116 123.676 49.7616 124.123 49.4897C124.55 49.1897 124.883 48.796 125.159 48.3178C125.396 47.8397 125.52 47.2678 125.52 46.6303C125.557 46.0767 125.448 45.523 125.203 45.0234C124.958 44.5238 124.586 44.0955 124.123 43.7803C123.678 43.5069 123.164 43.362 122.64 43.362C122.116 43.362 121.602 43.5069 121.158 43.7803C120.739 44.0803 120.397 44.4741 120.131 44.9522C119.866 45.4748 119.741 46.056 119.77 46.6397C119.733 47.1934 119.842 47.7471 120.087 48.2467C120.332 48.7462 120.704 49.1745 121.167 49.4897C121.614 49.7616 122.07 49.9116 122.64 49.9116Z" fill="#FF385C"/>
</g>
<defs>
<clipPath id="clip0">
<rect width="96.9412" height="30" fill="white" transform="translate(32 30)"/>
</clipPath>
</defs>
</svg>
