<svg width="160" height="90" viewBox="0 0 160 90" fill="none" xmlns="http://www.w3.org/2000/svg">
<rect width="160" height="90" rx="16" fill="white"/>
<g clip-path="url(#clip0)">
<path d="M63.118 46.8516L62.4336 48.779H62.3766C62.2625 48.3444 62.0534 47.683 61.7112 46.8894L58.0422 37.7252H54.4492V52.3313H56.8255V43.3182C56.8255 42.7513 56.8255 42.1089 56.8065 41.3153C56.7875 40.9185 56.7495 40.6162 56.7305 40.3894H56.7875C56.9016 40.9563 57.0346 41.372 57.1297 41.6365L61.5401 52.2935H63.2131L67.5855 41.542C67.6805 41.2964 67.7756 40.8051 67.8706 40.3894H67.9277C67.8706 41.4665 67.8326 42.4301 67.8136 43.0159V52.2746H70.342V37.6874H66.8821L63.118 46.8516ZM72.7373 41.8066H75.2087V52.2746H72.7373V41.8066ZM73.992 37.3851C73.5738 37.3851 73.2316 37.5362 72.9464 37.8008C72.6613 38.0653 72.5092 38.4054 72.5092 38.8211C72.5092 39.2179 72.6613 39.558 72.9464 39.8226C73.2316 40.0871 73.5738 40.2194 73.992 40.2194C74.4103 40.2194 74.7715 40.0682 75.0376 39.8226C75.3228 39.558 75.4749 39.2179 75.4749 38.8211C75.4749 38.4243 75.3228 38.0842 75.0376 37.8008C74.7905 37.5362 74.4293 37.3851 73.992 37.3851ZM83.9725 41.7121C83.5163 41.6176 83.041 41.5609 82.5848 41.5609C81.4632 41.5609 80.4366 41.8066 79.5811 42.2979C78.7256 42.7891 78.0413 43.4694 77.604 44.3197C77.1478 45.1888 76.9196 46.1903 76.9196 47.3429C76.9196 48.3444 77.1478 49.2324 77.585 50.0449C78.0223 50.8385 78.6306 51.481 79.448 51.9156C80.2275 52.3502 81.14 52.5769 82.1665 52.5769C83.3452 52.5769 84.3528 52.3313 85.1512 51.8778L85.1702 51.8589V49.5915L85.0752 49.667C84.714 49.9316 84.2957 50.1583 83.8775 50.2906C83.4403 50.4417 83.041 50.5173 82.6988 50.5173C81.7103 50.5173 80.9309 50.2339 80.3796 49.6104C79.8092 49.0057 79.5241 48.1743 79.5241 47.1351C79.5241 46.058 79.8092 45.2077 80.3986 44.5842C80.9879 43.9606 81.7673 43.6394 82.7179 43.6394C83.5163 43.6394 84.3338 43.904 85.0752 44.433L85.1702 44.5086V42.1089L85.1512 42.09C84.828 41.9577 84.4668 41.8066 83.9725 41.7121ZM92.1281 41.6365C91.5197 41.6365 90.9494 41.8255 90.4551 42.2223C90.0369 42.5624 89.7517 43.0537 89.5046 43.6394H89.4856V41.8066H87.0142V52.2746H89.4856V46.9272C89.4856 46.0202 89.6757 45.2644 90.0939 44.7165C90.5122 44.1496 91.0445 43.8662 91.6908 43.8662C91.9189 43.8662 92.1471 43.9229 92.4322 43.9606C92.6984 44.0362 92.8885 44.1118 93.0216 44.2063L93.1166 44.2819V41.8255L93.0596 41.8066C92.8885 41.6932 92.5463 41.6365 92.1281 41.6365ZM98.8578 41.5798C97.1278 41.5798 95.7401 42.09 94.7705 43.0915C93.782 44.0929 93.3067 45.4723 93.3067 47.2106C93.3067 48.8356 93.801 50.1583 94.7515 51.122C95.702 52.0667 96.9948 52.558 98.6106 52.558C100.303 52.558 101.652 52.0479 102.622 51.0275C103.61 50.0072 104.086 48.6467 104.086 46.965C104.086 45.3022 103.629 43.9795 102.698 43.0159C101.804 42.0522 100.493 41.5798 98.8578 41.5798ZM100.835 49.6292C100.379 50.215 99.6562 50.4984 98.7627 50.4984C97.8692 50.4984 97.1468 50.215 96.6336 49.5915C96.1203 49.0057 95.8731 48.1554 95.8731 47.0784C95.8731 45.9635 96.1393 45.1133 96.6336 44.5086C97.1468 43.904 97.8502 43.6016 98.7437 43.6016C99.6182 43.6016 100.303 43.8851 100.797 44.4708C101.291 45.0566 101.557 45.9069 101.557 47.0217C101.519 48.1554 101.31 49.0435 100.835 49.6292ZM109.599 46.1525C108.819 45.8313 108.325 45.5856 108.097 45.3778C107.907 45.1888 107.812 44.9243 107.812 44.5842C107.812 44.3008 107.926 44.0173 108.211 43.8284C108.496 43.6394 108.819 43.5449 109.295 43.5449C109.713 43.5449 110.15 43.6205 110.568 43.7339C110.986 43.8473 111.367 44.0173 111.671 44.2441L111.766 44.3197V42.0144L111.709 41.9955C111.424 41.8822 111.044 41.7688 110.587 41.6743C110.131 41.5987 109.713 41.5609 109.371 41.5609C108.192 41.5609 107.222 41.8444 106.462 42.4679C105.702 43.0537 105.34 43.8473 105.34 44.7731C105.34 45.2644 105.416 45.699 105.588 46.058C105.759 46.417 106.006 46.7572 106.348 47.0406C106.69 47.3051 107.184 47.6074 107.869 47.8909C108.439 48.1365 108.876 48.3255 109.142 48.4766C109.409 48.6278 109.58 48.7979 109.713 48.9301C109.808 49.0813 109.865 49.2702 109.865 49.5159C109.865 50.215 109.333 50.5551 108.249 50.5551C107.831 50.5551 107.394 50.4795 106.88 50.3095C106.367 50.1394 105.892 49.8938 105.492 49.6104L105.397 49.5348V51.9345L105.454 51.9534C105.816 52.1234 106.253 52.2368 106.785 52.3691C107.317 52.4635 107.793 52.5391 108.211 52.5391C109.485 52.5391 110.53 52.2557 111.272 51.6322C112.032 51.0275 112.431 50.2528 112.431 49.2513C112.431 48.5522 112.241 47.9287 111.823 47.4563C111.272 47.0028 110.587 46.5304 109.599 46.1525ZM118.952 41.5798C117.222 41.5798 115.834 42.09 114.865 43.0915C113.895 44.0929 113.401 45.4723 113.401 47.2106C113.401 48.8356 113.895 50.1583 114.846 51.122C115.796 52.0667 117.089 52.558 118.705 52.558C120.397 52.558 121.746 52.0479 122.716 51.0275C123.705 50.0072 124.18 48.6467 124.18 46.965C124.18 45.3022 123.724 43.9795 122.792 43.0159C121.899 42.0522 120.587 41.5798 118.952 41.5798ZM120.91 49.6292C120.454 50.215 119.731 50.4984 118.838 50.4984C117.925 50.4984 117.222 50.215 116.709 49.5915C116.195 49.0057 115.948 48.1554 115.948 47.0784C115.948 45.9635 116.214 45.1133 116.709 44.5086C117.222 43.904 117.925 43.6016 118.819 43.6016C119.674 43.6016 120.378 43.8851 120.872 44.4708C121.366 45.0566 121.632 45.9069 121.632 47.0217C121.632 48.1554 121.385 49.0435 120.91 49.6292ZM137.392 43.8284V41.8066H134.902V38.7077L134.826 38.7266L132.468 39.4258L132.411 39.4447V41.8066H128.685V40.4839C128.685 39.8792 128.837 39.4069 129.104 39.1045C129.37 38.8022 129.769 38.651 130.263 38.651C130.605 38.651 130.967 38.7266 131.366 38.8967L131.461 38.9534V36.8182L131.404 36.7993C131.062 36.6859 130.605 36.6104 130.016 36.6104C129.275 36.6104 128.628 36.7804 128.039 37.0638C127.45 37.3851 127.012 37.8197 126.689 38.4054C126.366 38.9723 126.195 39.6147 126.195 40.3516V41.8066H124.465V43.8095H126.195V52.2746H128.685V43.8284H132.411V49.2136C132.411 51.4243 133.457 52.5391 135.548 52.5391C135.89 52.5391 136.251 52.4824 136.594 52.4258C136.955 52.3502 137.221 52.2557 137.373 52.1801L137.392 52.1612V50.1394L137.297 50.215C137.145 50.3095 137.012 50.3851 136.784 50.4417C136.594 50.4984 136.423 50.5173 136.289 50.5173C135.795 50.5173 135.453 50.404 135.206 50.1205C134.978 49.856 134.864 49.4214 134.864 48.779V43.8284H137.392Z" fill="#737373"/>
<path d="M22.5879 32.8125H34.2413V44.3953H22.5879V32.8125Z" fill="#F25022"/>
<path d="M35.457 32.8125H47.1105V44.3953H35.457V32.8125Z" fill="#7FBA00"/>
<path d="M22.5879 45.6047H34.2413V57.1876H22.5879V45.6047Z" fill="#00A4EF"/>
<path d="M35.457 45.6047H47.1105V57.1876H35.457V45.6047Z" fill="#FFB900"/>
</g>
<defs>
<clipPath id="clip0">
<rect width="114.824" height="24.375" fill="white" transform="translate(22.5879 32.8125)"/>
</clipPath>
</defs>
</svg>
