<svg width="160" height="90" viewBox="0 0 160 90" fill="none" xmlns="http://www.w3.org/2000/svg">
<rect width="160" height="90" rx="16" fill="white"/>
<g clip-path="url(#clip0)">
<path fill-rule="evenodd" clip-rule="evenodd" d="M92.1402 53.461C86.5068 57.725 78.3415 60.0001 71.3114 60.0001C61.4539 60.0001 52.5797 56.256 45.8661 50.0289C45.3386 49.5393 45.8112 48.8719 46.4442 49.2533C53.6895 53.5823 62.6481 56.1867 71.9021 56.1867C78.1432 56.1867 85.0088 54.8607 91.3216 52.109C92.2753 51.693 93.0728 52.7503 92.1402 53.461Z" fill="#FF9900"/>
<path fill-rule="evenodd" clip-rule="evenodd" d="M94.482 50.7093C93.7646 49.7646 89.7221 50.2629 87.9075 50.4839C87.3548 50.5533 87.2704 50.0593 87.7683 49.7039C90.988 47.3769 96.2711 48.0486 96.8872 48.8286C97.5033 49.6129 96.7269 55.0513 93.7013 57.647C93.2371 58.0457 92.794 57.8333 93.0008 57.3047C93.6802 55.5627 95.2035 51.6583 94.482 50.7093Z" fill="#FF9900"/>
<path fill-rule="evenodd" clip-rule="evenodd" d="M88.0339 33.2762V31.0141C88.0339 30.6718 88.2871 30.4421 88.5909 30.4421H98.4525C98.769 30.4421 99.0222 30.6761 99.0222 31.0141V32.9512C99.018 33.2762 98.7522 33.7008 98.2795 34.3725L93.1694 41.8649C95.0683 41.8173 97.0727 42.1076 98.7944 43.1043C99.1826 43.3296 99.2881 43.6589 99.3176 43.9839V46.3976C99.3176 46.727 98.9631 47.1126 98.5918 46.9133C95.5578 45.2796 91.5279 45.102 88.1731 46.9306C87.8313 47.1213 87.4727 46.74 87.4727 46.4106V44.1183C87.4727 43.7499 87.4769 43.1216 87.8356 42.5626L93.7559 33.8438H88.6036C88.2871 33.8438 88.0339 33.6142 88.0339 33.2762Z" fill="black"/>
<path fill-rule="evenodd" clip-rule="evenodd" d="M52.0616 47.3898H49.0613C48.7744 47.3681 48.5465 47.1471 48.5254 46.8654V31.053C48.5254 30.7366 48.7828 30.4853 49.1035 30.4853H51.9012C52.1924 30.4983 52.4245 30.728 52.4456 31.014V33.081H52.5004C53.2305 31.0833 54.6019 30.1516 56.4502 30.1516C58.328 30.1516 59.5011 31.0833 60.345 33.081C61.0708 31.0833 62.7208 30.1516 64.4888 30.1516C65.7463 30.1516 67.122 30.6846 67.9617 31.8806C68.9112 33.211 68.7171 35.1437 68.7171 36.838L68.7129 46.8178C68.7129 47.1341 68.4554 47.3898 68.1347 47.3898H65.1387C64.8391 47.3681 64.5986 47.1211 64.5986 46.8178V38.437C64.5986 37.7697 64.6576 36.1057 64.5142 35.473C64.2905 34.4113 63.6196 34.1123 62.7503 34.1123C62.0245 34.1123 61.2649 34.6107 60.9569 35.408C60.6488 36.2053 60.6784 37.54 60.6784 38.437V46.8178C60.6784 47.1341 60.421 47.3898 60.1003 47.3898H57.1042C56.8004 47.3681 56.5641 47.1211 56.5641 46.8178L56.5599 38.437C56.5599 36.6733 56.8426 34.0777 54.7116 34.0777C52.5553 34.0777 52.6397 36.6083 52.6397 38.437V46.8178C52.6397 47.1341 52.3823 47.3898 52.0616 47.3898" fill="black"/>
<path fill-rule="evenodd" clip-rule="evenodd" d="M107.513 30.1516C111.965 30.1516 114.375 34.0777 114.375 39.0697C114.375 43.8928 111.712 47.7191 107.513 47.7191C103.142 47.7191 100.762 43.7931 100.762 38.9007C100.762 33.978 103.171 30.1516 107.513 30.1516ZM107.539 33.38C105.328 33.38 105.188 36.474 105.188 38.4024C105.188 40.3351 105.159 44.4604 107.513 44.4604C109.838 44.4604 109.948 41.1324 109.948 39.1044C109.948 37.7697 109.893 36.175 109.501 34.9097C109.163 33.809 108.492 33.38 107.539 33.38Z" fill="black"/>
<path fill-rule="evenodd" clip-rule="evenodd" d="M120.147 47.3898H117.16C116.86 47.3681 116.619 47.1211 116.619 46.8178L116.615 31.001C116.641 30.7106 116.89 30.4853 117.193 30.4853H119.974C120.236 30.4983 120.451 30.6803 120.51 30.9273V33.3453H120.565C121.405 31.183 122.582 30.1516 124.654 30.1516C126 30.1516 127.312 30.65 128.156 32.015C128.941 33.2803 128.941 35.408 128.941 36.9377V46.8914C128.907 47.1688 128.658 47.3898 128.363 47.3898H125.354C125.08 47.3681 124.852 47.1601 124.823 46.8914V38.3027C124.823 36.5737 125.017 34.043 122.945 34.043C122.215 34.043 121.544 34.5457 121.211 35.3083C120.789 36.2747 120.734 37.2367 120.734 38.3027V46.8178C120.73 47.1341 120.468 47.3898 120.147 47.3898" fill="black"/>
<path fill-rule="evenodd" clip-rule="evenodd" d="M80.1725 39.8368C80.1725 41.0371 80.202 42.0381 79.6113 43.1041C79.1344 43.9708 78.3749 44.5038 77.5351 44.5038C76.3831 44.5038 75.708 43.6025 75.708 42.2721C75.708 39.6461 77.9993 39.1694 80.1725 39.1694V39.8368ZM83.1981 47.3465C82.9998 47.5285 82.7128 47.5415 82.4892 47.4202C81.4933 46.5708 81.3118 46.1765 80.7675 45.3662C79.1218 47.0908 77.9529 47.6065 75.8219 47.6065C73.2942 47.6065 71.332 46.0075 71.332 42.8051C71.332 40.3048 72.6486 38.6018 74.5306 37.7697C76.1595 37.0331 78.4339 36.9031 80.1725 36.6994V36.3007C80.1725 35.5684 80.2273 34.7017 79.8054 34.069C79.4425 33.5014 78.742 33.2674 78.1217 33.2674C76.9781 33.2674 75.9611 33.8697 75.7122 35.1177C75.6615 35.3951 75.4632 35.6681 75.1889 35.6811L72.2815 35.3604C72.0367 35.3041 71.7624 35.1004 71.8342 34.7147C72.5009 31.092 75.6911 30 78.5437 30C80.0037 30 81.911 30.3987 83.063 31.534C84.5231 32.9337 84.3838 34.8014 84.3838 36.8337V41.6351C84.3838 43.0781 84.9662 43.7108 85.5147 44.4908C85.7046 44.7682 85.7468 45.1018 85.5021 45.3098C84.8902 45.8342 83.8015 46.8092 83.2023 47.3552L83.1981 47.3465" fill="black"/>
<path fill-rule="evenodd" clip-rule="evenodd" d="M40.8405 39.837C40.8405 41.0374 40.87 42.0384 40.2792 43.1044C39.8024 43.9711 39.047 44.5041 38.2031 44.5041C37.0511 44.5041 36.3801 43.6027 36.3801 42.2724C36.3801 39.6463 38.6715 39.1697 40.8405 39.1697V39.837ZM43.866 47.3468C43.6677 47.5288 43.3808 47.5418 43.1571 47.4204C42.1612 46.5711 41.984 46.1767 41.4354 45.3664C39.7897 47.0911 38.6251 47.6068 36.4899 47.6068C33.9664 47.6068 32 46.0077 32 42.8054C32 40.305 33.3208 38.602 35.1986 37.77C36.8274 37.0333 39.1019 36.9033 40.8405 36.6996V36.301C40.8405 35.5686 40.8953 34.702 40.4776 34.0693C40.1104 33.5016 39.4099 33.2676 38.7939 33.2676C37.6503 33.2676 36.6291 33.87 36.3801 35.118C36.3295 35.3953 36.1312 35.6683 35.8611 35.6813L32.9495 35.3606C32.7047 35.3043 32.4346 35.1006 32.5022 34.715C33.1731 31.0923 36.359 30.0002 39.2116 30.0002C40.6717 30.0002 42.579 30.3989 43.731 31.5343C45.1911 32.9339 45.0518 34.8016 45.0518 36.834V41.6354C45.0518 43.0784 45.6341 43.7111 46.1827 44.4911C46.3768 44.7684 46.419 45.1021 46.1743 45.3101C45.5624 45.8344 44.4737 46.8094 43.8745 47.3554L43.866 47.3467" fill="black"/>
</g>
<defs>
<clipPath id="clip0">
<rect width="96.9412" height="30" fill="white" transform="translate(32 30)"/>
</clipPath>
</defs>
</svg>
