<svg width="160" height="90" viewBox="0 0 160 90" fill="none" xmlns="http://www.w3.org/2000/svg">
<rect width="160" height="90" rx="16" fill="white"/>
<g clip-path="url(#clip0)">
<path fill-rule="evenodd" clip-rule="evenodd" d="M115.179 43.9133L109.308 54.0705L104.3 54.0904L115.179 34.9724L126.017 54.0904H120.929L115.179 43.9123V43.9133ZM99.3716 49.6687H104.981L102.377 54.0904H95.0653L95.0852 48.7065V35.0899H99.3925L99.3726 49.6687H99.3716ZM83.9872 35.0909C89.3358 35.1108 93.663 39.3542 93.6431 44.5996C93.6233 49.8261 89.2962 54.0705 83.9465 54.0705C78.6177 54.0505 74.2906 49.8072 74.2906 44.5608C74.3104 39.3343 78.6375 35.0909 83.9872 35.0909ZM83.9673 49.6498C86.8316 49.6498 89.1345 47.3897 89.1345 44.5996C89.1553 41.8105 86.8316 39.5305 83.9872 39.5305C81.1418 39.5106 78.818 41.7906 78.818 44.5807C78.7982 47.3697 81.1219 49.6498 83.9664 49.6498H83.9673ZM66.3177 43.0905C66.2582 42.3036 66.0568 41.2627 65.7563 40.2616C65.138 38.1938 64.063 36.2929 62.6114 34.7004C61.8497 33.8757 60.9889 33.1087 59.7055 32.2052C58.7272 31.7203 57.7653 31.2027 56.8214 30.6533C56.2006 30.2997 55.4587 29.8664 54.4778 29.5526C53.3148 29.2769 52.126 29.1256 50.9312 29.1014C49.7709 29.0615 48.6075 29.1611 47.4858 29.3763C46.3036 29.5725 45.3218 29.8863 44.0195 30.2011C41.074 31.4781 38.7909 33.4035 36.8272 35.9585C29.976 45.5658 36.1667 59.025 47.6058 60.6158C49.4892 60.8718 51.3726 60.7732 53.1548 60.3608L54.4173 60.0271C54.457 60.0072 54.5175 59.9873 54.5572 59.9873L56.0002 59.4374C56.0796 59.3976 56.1401 59.3777 56.2204 59.3388L56.8214 59.0639C57.9746 58.4923 59.0571 57.7869 60.0467 56.9621C59.1459 57.7842 58.1661 58.5146 57.1219 59.1426L57.1814 59.1824C57.3828 59.1227 57.5623 59.0639 57.7626 59.025C57.7626 59.025 57.7626 59.3388 57.7229 59.28C57.4026 59.5161 57.9034 59.3 58.5441 58.9653C59.1858 58.6316 59.8067 58.2182 60.367 57.747C61.1892 57.0597 61.9102 56.3127 62.9317 55.0954C63.9731 53.2676 65.2763 51.6759 65.8773 49.5343C66.0777 48.9645 66.2572 48.2971 66.3782 47.6088C66.4972 46.9215 66.5785 46.2143 66.5785 45.4871C66.5587 44.76 66.4783 44.0129 66.3177 43.0905ZM51.4926 59.2412C54.9985 58.6903 57.9431 56.746 60.3472 54.0934C61.0087 53.1302 61.5294 52.2456 62.1701 51.2834C62.9714 49.3181 62.9119 47.57 63.1718 46.3328C63.4931 44.0916 62.7314 42.2847 62.0907 40.3592C61.1089 38.119 59.8067 36.4496 57.5226 35.1527C51.7524 31.5767 43.8995 32.5777 40.1536 37.9228C40.1338 37.9228 40.0326 38.0603 39.8323 38.3352C40.0931 37.2355 40.7546 36.587 41.4151 35.9575C43.3789 34.3468 45.6629 33.0688 48.2673 32.4413C51.2129 32.1265 54.1367 32.4413 56.7609 33.7183C60.6883 35.9575 63.2928 39.4757 63.9533 43.6394V47.4913C63.1321 53.7985 57.7229 58.5927 51.4926 59.2412ZM65.8972 44.8974C65.7563 35.6636 56.6012 29.4351 47.6861 30.6931C45.0817 31.3406 42.2363 32.6375 40.2131 34.4454C39.2312 35.0929 38.7711 36.2922 37.7892 37.2544C33.8618 43.0118 34.5441 50.3799 39.4316 54.8604C40.0585 55.4829 40.7279 56.0607 41.435 56.5896C37.3489 54.1322 35.5051 50.4178 34.8645 45.9005C34.8645 44.2888 35.1848 42.6971 35.525 41.0864C37.81 34.032 45.0014 28.9042 52.8355 30.2011C54.1377 30.5158 55.4399 30.8495 56.7629 31.1643C58.4053 31.8118 60.0278 32.775 61.33 34.053C62.6322 35.329 63.6141 36.9406 64.596 38.5314C65.2565 39.8094 65.5778 41.4201 65.8982 42.6971C65.9577 43.4242 65.9577 44.1713 65.8982 44.8984L65.8972 44.8974Z" fill="black"/>
<path fill-rule="evenodd" clip-rule="evenodd" d="M57.7632 45.0358C57.7632 49.0052 54.4378 52.2276 50.3308 52.2276C46.2249 52.2276 42.8984 49.0052 42.8984 45.0358C42.8984 41.0673 46.2239 37.845 50.3308 37.845C54.4378 37.845 57.7632 41.0673 57.7632 45.0368V45.0358Z" fill="white"/>
<path fill-rule="evenodd" clip-rule="evenodd" d="M57.8036 43.8176C57.7034 43.2678 57.5428 42.8355 57.3831 42.2268C56.7414 40.8901 55.8002 39.8492 54.5575 38.9646C49.91 35.8807 43.519 38.8471 42.8387 44.1135C42.5788 46.1963 43.3197 48.2004 44.6417 49.7334C44.241 49.32 43.8007 48.8887 43.5002 48.3967L43.4605 48.4365C43.5002 48.554 43.6609 48.6327 43.7005 48.7503C43.7005 48.7503 43.5399 48.7503 43.5805 48.7303C43.4605 48.5939 43.5607 48.81 43.7402 49.1039C43.9009 49.3987 44.1012 49.6746 44.3412 49.9296C44.6824 50.3032 45.0424 50.6369 45.6434 51.0891C46.5261 51.5403 47.3066 52.13 48.3282 52.4049C48.6088 52.4846 48.9292 52.5623 49.2505 52.6211C49.5907 52.6809 49.911 52.7008 50.272 52.7008C50.6122 52.7008 50.9732 52.6609 51.4136 52.5812C51.8677 52.5275 52.3165 52.4359 52.7555 52.3073C53.7359 52.0109 54.6391 51.5007 55.4005 50.8132C55.7814 50.4606 56.3229 50.0083 56.7424 49.4186C57.0836 48.7513 57.1232 48.4166 57.2839 48.1217C57.4436 47.8269 57.6439 47.4932 57.7848 47.041C57.8995 46.5045 57.9666 45.9588 57.9851 45.4104C57.9653 44.8605 57.9256 44.3296 57.8046 43.8186L57.8036 43.8176ZM53.0351 40.1639C53.7165 40.5564 53.8167 40.6152 53.4556 40.3602C53.9773 40.4777 54.2977 40.7726 54.618 41.0674C55.3995 41.9519 56.0402 42.9928 56.3606 44.1911C56.5411 45.5468 56.4002 46.9025 55.82 48.1018C54.7787 49.9286 53.1155 51.1469 51.1319 51.4806C50.9117 51.4806 50.6717 51.4806 50.4506 51.5005C51.0119 51.4019 51.3729 51.0483 52.3944 50.6747C53.4953 50.2823 54.738 48.4554 55.34 47.3936C57.1024 44.5049 55.0187 41.8334 53.0351 40.1639ZM49.2694 51.5194C46.2246 51.2056 43.88 48.7104 43.5597 45.8218C43.8394 47.4334 44.8014 48.6706 46.1036 49.7713C46.5648 50.0661 47.2451 50.4785 47.7063 50.7733C48.4878 51.0682 48.948 51.3829 49.7097 51.5204H49.2694V51.5194ZM57.4624 46.274C57.3236 46.8836 57.1827 47.4723 57.0419 48.0819C56.7414 48.829 56.3011 49.595 55.7 50.2036C55.099 50.8132 54.3373 51.2843 53.5766 51.7366C52.9756 52.0503 52.2139 52.2077 51.5931 52.3641C51.2321 52.4039 50.8116 52.2466 50.4506 52.2276C54.8987 52.1091 57.9434 47.9644 57.2829 43.8575C56.9616 42.6592 56.3209 41.6172 55.5394 40.5763C55.219 40.1241 54.5972 39.8492 54.137 39.3969C51.3521 37.6488 47.6666 38.0024 45.5631 40.3014C45.2681 40.6035 44.9935 40.925 44.7409 41.2636C45.8636 39.6131 47.6666 38.4546 49.8297 38.12C50.5914 38.1 51.3729 38.2385 52.1336 38.376C55.4997 39.3969 58.0039 42.6592 57.4624 46.275V46.274Z" fill="#D7DF23"/>
</g>
<defs>
<clipPath id="clip0">
<rect width="92.2353" height="31.875" fill="white" transform="translate(33.8828 29.0625)"/>
</clipPath>
</defs>
</svg>
