<svg width="51" height="66" viewBox="0 0 51 66" fill="none" xmlns="http://www.w3.org/2000/svg">
<path d="M40.2386 0.685638L4.34449 21.2907C3.27865 21.9086 2.39294 22.7946 1.77525 23.8606C1.15756 24.9266 0.82937 26.1356 0.823242 27.3677V58.3093C0.859045 59.5271 1.21536 60.714 1.85624 61.7503C2.49712 62.7865 3.3999 63.6354 4.47355 64.2114C5.5472 64.7874 6.75376 65.0701 7.97153 65.031C9.18931 64.9919 10.3752 64.6324 11.4097 63.9887L17.6458 60.422L18.2023 61.3421C18.2023 61.3421 18.2705 61.3421 18.3046 61.4216H18.3727C19.395 62.1031 21.2011 63.0686 21.61 63.2731C21.7049 63.3023 21.8075 63.2938 21.8963 63.2494C21.9852 63.205 22.0535 63.128 22.0871 63.0346L24.3589 56.5259L47.2697 43.4291C48.3431 42.8188 49.2355 41.9348 49.856 40.8673C50.4766 39.7998 50.8031 38.5869 50.8023 37.3521V6.3878C50.8251 1.34446 43.385 -1.10907 40.2386 0.685638Z" fill="#37474F"/>
<path opacity="0.2" d="M18.2026 61.3648C18.2026 61.3648 18.2708 61.3648 18.3048 61.4443H18.373C19.3953 62.1259 21.2013 63.0914 21.6103 63.2958C21.5636 63.2861 21.5194 63.267 21.4804 63.2396C21.4413 63.2123 21.4082 63.1773 21.3831 63.1368L19.1113 59.536L19.5543 59.2861L17.6006 60.422L18.2026 61.3648Z" fill="white"/>
<path opacity="0.4" d="M8.69541 27.8902C9.15221 26.9829 9.79463 26.1819 10.581 25.5389C10.8466 25.3201 11.1318 25.1262 11.4329 24.9596L47.327 4.35458C47.6829 4.15174 48.0858 4.04589 48.4955 4.04762C48.9051 4.04936 49.3071 4.15862 49.6613 4.36446C50.0155 4.5703 50.3095 4.86553 50.5138 5.2206C50.7181 5.57568 50.8256 5.97817 50.8255 6.38783C50.8255 1.33313 43.3854 -1.10903 40.239 0.708387L4.34496 21.3134C3.24992 21.942 2.34676 22.8569 1.73242 23.96L8.69541 27.8902Z" fill="white"/>
<path opacity="0.2" d="M7.9117 61.9782V31.0366C7.91328 30.7593 7.93225 30.4823 7.96849 30.2074C8.08223 29.4148 8.32795 28.647 8.69546 27.9356L1.68703 23.9373C1.0972 24.9766 0.784285 26.15 0.77832 27.3449V58.2865C0.814123 59.5044 1.17044 60.6913 1.81132 61.7275C2.45219 62.7637 3.35498 63.6127 4.42864 64.1887C5.50229 64.7647 6.70883 65.0474 7.9266 65.0083C9.14437 64.9692 10.3303 64.6096 11.3648 63.966C11.0136 64.1562 10.6195 64.2533 10.2201 64.2481C9.82075 64.2429 9.42936 64.1355 9.0832 63.9363C8.73705 63.737 8.44765 63.4524 8.24259 63.1097C8.03752 62.7669 7.92361 62.3774 7.9117 61.9782Z" fill="white"/>
<path d="M21.9858 43.7472L22.0085 52.2209L15.2727 56.117L15.25 47.6433L21.9858 43.7472Z" fill="white"/>
<path d="M32.7752 31.2978L32.8093 45.9849L26.0849 49.8696L26.0508 35.1826L32.7752 31.2978Z" fill="white"/>
<path d="M41.8403 12.3966C42.0561 12.2717 42.2265 12.2717 42.3174 12.3966C42.3758 12.4733 42.4138 12.5636 42.4277 12.659C42.4416 12.7543 42.431 12.8517 42.3969 12.9419L40.9429 18.1897C40.8729 18.4769 40.6936 18.7254 40.4431 18.8826L40.25 18.9507C39.9774 18.9507 39.8298 18.7122 39.9433 18.326L40.7839 15.2591L33.0485 25.4821C32.9708 25.5931 32.8701 25.6861 32.7532 25.7547C32.6728 25.808 32.5766 25.8321 32.4806 25.8228L30.4132 25.5389L24.234 34.0694C24.1556 34.1869 24.0505 34.2842 23.9273 34.3534C23.8856 34.3847 23.8377 34.4069 23.7868 34.4186C23.736 34.4303 23.6833 34.4313 23.632 34.4215L21.9622 34.0921L16.3737 42.2137C16.2846 42.3393 16.1729 42.4471 16.0443 42.5318C15.9811 42.5762 15.9057 42.6001 15.8284 42.6001C15.7512 42.6001 15.6758 42.5762 15.6126 42.5318C15.5305 42.3852 15.4963 42.2167 15.5146 42.0497C15.5329 41.8827 15.6029 41.7256 15.7149 41.6003L21.6215 33.0244C21.7097 32.9012 21.8217 32.7969 21.9509 32.7177C22.0413 32.6583 22.1504 32.634 22.2576 32.6495L23.9273 32.9903L30.0952 24.4825C30.1779 24.3656 30.282 24.2654 30.4019 24.1872C30.4861 24.133 30.5862 24.109 30.6859 24.119L32.7532 24.403L39.8752 15.0092L37.3081 16.7244C37.0014 16.9061 36.7629 16.7925 36.7288 16.4858C36.7266 16.2979 36.7712 16.1123 36.8584 15.9457C36.9456 15.7792 37.0728 15.637 37.2286 15.5317L41.8403 12.3966Z" fill="white"/>
<path d="M43.5796 21.6201L43.6364 39.7375L36.9005 43.6336L36.8438 25.5161L43.5796 21.6201Z" fill="white"/>
</svg>
