<svg width="104" height="216" viewBox="0 0 104 216" fill="none" xmlns="http://www.w3.org/2000/svg">
<g opacity="0.2">
<path d="M27.3194 148.577C27.3194 148.931 28.0274 149.994 28.0274 149.994C28.7355 150.702 29.4435 150.702 30.1515 150.348C31.2136 149.994 31.2136 148.223 30.8596 147.161C29.7975 145.037 26.9654 146.807 27.3194 148.577Z" fill="#171717"/>
<path d="M69.8016 139.02L69.0936 140.436C68.7395 141.498 69.4476 141.852 70.1556 142.56C71.2176 143.268 72.6337 142.56 73.3417 141.144C74.0498 139.02 70.8636 137.604 69.8016 139.02Z" fill="#171717"/>
<path d="M86.4424 151.053C86.4424 150.699 86.4424 149.637 86.4424 149.637C86.0884 148.575 85.3803 148.575 84.6723 148.221C83.6103 147.867 82.5482 149.637 82.5482 150.699C82.5482 152.823 85.7344 152.823 86.4424 151.053Z" fill="#171717"/>
<path d="M40.0635 167.339C39.7094 167.339 38.6474 166.985 38.6474 166.985C37.5854 166.985 37.2313 167.693 36.8773 168.401C36.5233 169.463 37.5853 170.525 39.0014 170.879C41.1255 171.587 41.4795 168.401 40.0635 167.339Z" fill="#171717"/>
<path d="M31.569 31.7527C31.569 32.1067 31.923 33.1688 31.923 33.1688C32.277 33.8768 33.339 34.2308 34.0471 34.2308C35.4631 34.2308 35.8171 32.4607 35.4631 31.0447C35.1091 28.9206 31.923 29.9826 31.569 31.7527Z" fill="#171717"/>
<path d="M9.26558 158.138C9.26558 158.492 9.61959 159.554 9.61959 159.554C9.97361 160.262 11.0357 160.262 11.7437 160.262C12.8057 160.262 13.1597 158.492 12.8057 157.076C12.4517 155.306 9.26558 156.368 9.26558 158.138Z" fill="#171717"/>
<path d="M11.3913 211.235C11.3913 211.589 12.0993 212.651 12.0993 212.651C12.8074 213.359 13.5154 213.359 14.2234 213.005C15.2855 212.651 15.6395 210.881 14.9314 209.819C13.8694 207.695 11.0373 209.111 11.3913 211.235Z" fill="#171717"/>
<path d="M27.6719 133.707C27.6719 133.353 27.3179 132.291 27.3179 132.291C26.6098 131.583 25.9018 131.583 25.1938 131.583C24.1317 131.583 23.4237 133.353 23.7777 134.769C24.4857 136.893 27.3179 135.831 27.6719 133.707Z" fill="#171717"/>
<path d="M45.3741 155.3C45.3741 154.946 44.312 154.238 44.312 154.238C43.604 153.53 42.896 153.884 41.8339 154.238C40.7719 154.946 41.1259 156.362 41.8339 157.424C43.604 159.194 46.0821 157.07 45.3741 155.3Z" fill="#171717"/>
<path d="M45.7317 178.669C45.3777 178.669 44.3156 179.023 44.3156 179.023C43.6076 179.377 43.2536 180.439 43.2536 181.147C43.2536 182.209 45.0237 182.917 46.4397 182.563C48.5638 181.855 47.5018 178.669 45.7317 178.669Z" fill="#171717"/>
<path d="M95.2916 78.4835L95.9996 77.0675C96.3536 76.0054 95.6456 75.6514 94.9375 74.9434C93.8755 74.2354 92.4594 75.2974 92.1054 76.3594C90.6894 78.4835 93.8755 79.5456 95.2916 78.4835Z" fill="#171717"/>
<path d="M16.3468 6.61522L17.7629 6.96924C18.8249 6.96924 19.1789 6.61522 19.8869 5.90719C20.595 4.84515 19.5329 3.42909 18.1169 3.07508C15.9928 2.36705 14.9307 5.55318 16.3468 6.61522Z" fill="#171717"/>
<path d="M50.3319 64.3204C49.9779 64.3204 49.2699 65.3824 49.2699 65.3824C48.9158 66.0904 48.9158 66.7985 49.6239 67.5065C50.3319 68.5685 52.102 68.2145 52.81 67.1525C54.5801 65.7364 52.102 63.6123 50.3319 64.3204Z" fill="#171717"/>
<path d="M39.7129 66.4449C39.7129 66.0909 38.6508 65.3828 38.6508 65.3828C37.9428 65.0288 37.2348 65.3828 36.5268 65.7369C35.4647 66.4449 36.1727 68.215 36.8808 68.923C38.2968 70.339 40.4209 67.8609 39.7129 66.4449Z" fill="#171717"/>
<path d="M7.85101 175.483C7.85101 175.837 8.55905 176.899 8.55905 176.899C8.91306 177.607 9.9751 177.607 10.6831 177.607C11.7452 177.607 12.0992 175.837 11.7452 174.421C10.6831 172.296 7.497 173.713 7.85101 175.483Z" fill="#171717"/>
<path d="M92.4612 161.676C92.4612 162.03 93.5232 162.738 93.5232 162.738C94.2312 163.092 94.9393 162.738 95.6473 162.384C97.0633 161.676 96.3553 159.906 95.6473 159.198C93.8772 157.428 91.7531 160.26 92.4612 161.676Z" fill="#171717"/>
<path d="M15.9911 65.3848C15.6371 65.3848 14.929 66.4469 14.929 66.4469C14.575 67.1549 14.575 67.8629 15.283 68.571C15.9911 69.633 17.7611 69.279 18.4692 68.2169C20.2392 66.8009 17.7611 64.6768 15.9911 65.3848Z" fill="#171717"/>
<path d="M47.853 27.8577C48.207 27.8577 49.269 27.5037 49.269 27.5037C50.3311 27.1497 50.3311 26.4417 50.3311 25.3796C50.3311 24.3176 48.915 23.6096 47.4989 23.6096C45.3749 24.3176 46.0829 27.5037 47.853 27.8577Z" fill="#171717"/>
<path d="M55.6423 203.096C55.9964 203.096 56.3504 202.034 56.3504 202.034C56.7044 201.326 56.3504 200.618 55.6423 199.91C54.9343 198.848 53.1642 199.556 52.4562 200.618C51.3942 202.388 54.2263 204.158 55.6423 203.096Z" fill="#171717"/>
<path d="M52.4537 126.982C52.0997 126.982 51.0377 126.628 51.0377 126.628C49.9756 126.628 49.6216 127.336 49.2676 128.044C48.5596 129.106 49.9756 130.522 51.3917 130.877C53.1618 131.231 53.8698 128.044 52.4537 126.982Z" fill="#171717"/>
<path d="M63.783 105.034L63.075 106.45C62.7209 107.512 63.429 107.866 63.783 108.574C64.845 109.282 66.2611 108.574 66.9691 107.512C68.0312 105.388 65.199 103.972 63.783 105.034Z" fill="#171717"/>
<path d="M54.2249 82.7313L52.8089 82.0232C51.7468 81.6692 51.3928 82.3773 50.6848 83.0853C49.9767 84.1473 51.0388 85.5634 52.1008 86.2714C54.2249 87.3335 55.641 84.1473 54.2249 82.7313Z" fill="#171717"/>
<path d="M86.0859 169.467C86.0859 169.113 85.3779 168.05 85.3779 168.05C84.6699 167.342 83.9619 167.342 83.2538 167.696C82.1918 168.05 82.1918 169.821 82.5458 170.883C83.2538 173.007 86.0859 171.237 86.0859 169.467Z" fill="#171717"/>
<path d="M49.2695 113.175C49.6236 113.175 50.6856 112.821 50.6856 112.821C51.7476 112.467 51.7476 111.759 52.1017 111.051C52.4557 109.989 50.6856 109.281 49.2695 109.281C46.7914 109.281 47.4995 112.821 49.2695 113.175Z" fill="#171717"/>
<path d="M79.3616 45.206C79.0076 45.206 77.9455 44.852 77.9455 45.206C76.8835 45.206 76.5295 45.9141 76.1754 46.6221C75.8214 47.6841 77.2375 48.7462 78.2995 49.1002C80.7776 49.4542 80.7776 46.2681 79.3616 45.206Z" fill="#171717"/>
<path d="M60.5964 169.464L59.1803 168.756C58.4723 168.402 57.7642 168.756 57.0562 169.464C55.9942 170.172 57.0562 171.942 58.1183 172.65C59.8883 173.712 61.6584 170.88 60.5964 169.464Z" fill="#171717"/>
<path d="M71.9278 181.855C71.9278 182.209 72.6358 183.271 72.6358 183.271C73.3439 183.979 74.0519 183.979 74.7599 183.625C75.822 183.271 75.822 181.501 75.468 180.439C74.4059 177.961 71.5738 179.731 71.9278 181.855Z" fill="#171717"/>
<path d="M56.3492 53.7014C56.7032 53.7014 57.7652 54.0555 57.7652 54.0555C58.8273 54.0555 59.1813 53.3474 59.5353 52.6394C60.2433 51.5774 58.8273 50.5153 57.4112 50.1613C55.2871 49.0993 54.5791 52.6394 56.3492 53.7014Z" fill="#171717"/>
<path d="M43.2495 141.499L43.6035 140.083C43.6035 139.021 43.2495 138.667 42.5415 137.959C41.4794 137.251 40.0634 138.313 39.7094 139.729C39.0013 141.853 42.1875 142.915 43.2495 141.499Z" fill="#171717"/>
<path d="M46.4386 95.122C46.0846 95.122 45.0225 95.476 45.0225 95.476C43.9605 95.83 43.9605 96.538 43.9605 97.6001C43.9605 98.6621 45.3766 99.3702 46.7926 99.3702C48.9167 98.6621 48.2087 95.476 46.4386 95.122Z" fill="#171717"/>
<path d="M61.6609 75.651C61.6609 76.005 62.7229 76.7131 62.7229 76.7131C63.431 77.0671 64.139 76.7131 64.847 76.359C65.9091 75.651 65.5551 73.8809 64.493 73.1729C63.077 71.4028 60.5988 73.8809 61.6609 75.651Z" fill="#171717"/>
<path d="M1.47621 28.9197C1.47621 29.2737 1.83022 30.3357 1.83022 30.3357C2.18423 31.0438 2.89226 31.3978 3.9543 31.3978C5.37036 31.3978 5.72438 29.6277 5.37036 28.5657C5.01635 26.0876 1.83022 27.1496 1.47621 28.9197Z" fill="#171717"/>
<path d="M17.0571 118.487C16.7031 118.487 15.9951 119.549 15.9951 119.549C15.6411 120.257 15.9951 120.965 16.3491 121.673C17.0571 122.735 18.8272 122.027 19.5352 121.319C21.3053 119.903 18.4732 117.779 17.0571 118.487Z" fill="#171717"/>
<path d="M94.5831 98.661C94.2291 98.661 93.521 99.723 93.521 99.723C92.813 100.431 93.167 101.139 93.521 102.201C94.2291 103.263 95.6451 102.909 96.7072 102.201C98.4773 100.431 96.3532 97.953 94.5831 98.661Z" fill="#171717"/>
<path d="M65.1991 94.0619C65.5531 94.0619 66.2611 92.9998 66.2611 92.9998C66.9692 92.2918 66.6152 91.5838 66.2611 90.5217C65.9071 89.4597 64.1371 89.8137 63.075 90.5217C61.3049 91.9378 63.429 94.4159 65.1991 94.0619Z" fill="#171717"/>
<path d="M40.4189 197.785C40.7729 197.785 41.8349 197.077 41.8349 197.077C42.543 196.369 42.543 195.661 42.543 194.953C42.189 193.891 40.4189 193.537 39.3568 194.245C37.2328 194.953 38.6488 197.785 40.4189 197.785Z" fill="#171717"/>
<path d="M95.6448 137.249L97.0608 137.603C98.1229 137.603 98.4769 136.895 98.8309 136.187C99.5389 135.125 98.1229 133.709 97.0608 133.355C94.9367 132.647 94.2287 135.833 95.6448 137.249Z" fill="#171717"/>
<path d="M-1.3536 119.191C-1.3536 119.545 -0.291555 119.899 0.0624598 119.899C0.770489 120.253 1.47852 119.899 2.18655 119.191C3.24859 118.483 2.54057 116.713 1.47852 116.005C-0.645564 114.589 -2.41564 117.421 -1.3536 119.191Z" fill="#171717"/>
<path d="M71.5729 34.5847L71.2189 36.0008C71.2189 37.0628 71.9269 37.4168 72.635 37.7708C73.697 38.4789 75.1131 37.0628 75.4671 36.0008C76.1751 33.8767 72.989 33.1687 71.5729 34.5847Z" fill="#171717"/>
<path d="M15.9952 32.4625L15.2872 33.8785C14.9332 34.9406 15.6412 35.2946 15.9952 36.0026C17.0573 36.7107 18.4733 36.0026 19.1814 34.9406C20.5974 32.8165 17.4113 31.4004 15.9952 32.4625Z" fill="#171717"/>
<path d="M31.9229 56.1791C31.9229 55.8251 31.5688 54.7631 31.5688 54.7631C31.2148 53.7011 30.1528 53.701 29.4448 53.701C28.3827 53.701 27.6747 55.4711 28.0287 56.5332C28.3827 58.6573 31.5688 57.9492 31.9229 56.1791Z" fill="#171717"/>
<path d="M9.97283 191.413L10.6809 189.997C11.0349 188.935 10.3268 188.581 9.97283 187.873C8.91079 187.165 7.49474 187.873 6.78671 188.935C5.72466 191.059 8.55678 192.829 9.97283 191.413Z" fill="#171717"/>
<path d="M76.5294 86.2702C76.5294 86.6242 77.2374 87.6863 77.2374 87.6863C77.9455 88.3943 78.6535 88.3943 79.3615 88.0403C80.4236 87.6863 80.4236 85.9162 79.7155 84.8542C79.0075 82.3761 76.1754 84.5001 76.5294 86.2702Z" fill="#171717"/>
<path d="M3.95427 73.878L4.66231 72.4619C5.01632 71.3999 4.30829 71.0458 3.95427 70.3378C3.24624 69.6298 1.47617 70.3378 0.768145 71.3999C-0.293899 73.5239 2.53822 75.294 3.95427 73.878Z" fill="#171717"/>
<path d="M67.3237 59.7195C67.3237 60.0735 67.6777 61.1356 68.0317 61.1356C68.3857 61.8436 69.4478 61.8436 70.1558 61.8436C71.2178 61.8436 71.5718 60.0735 71.2178 58.6575C70.5098 56.5334 67.3237 57.5954 67.3237 59.7195Z" fill="#171717"/>
<path d="M19.5328 104.325C19.8868 104.325 20.9489 104.325 20.9489 104.325C22.0109 104.325 22.365 103.617 22.719 102.909C23.073 101.846 21.6569 100.784 20.5949 100.43C18.1168 100.076 17.7628 103.263 19.5328 104.325Z" fill="#171717"/>
<path d="M16.6986 90.8739C17.0526 90.8739 17.7606 90.1658 17.7606 90.1658C18.4686 89.4578 18.1146 88.7498 18.1146 88.0418C17.7606 86.9797 15.9905 86.9797 14.9285 87.6877C12.8044 88.7498 14.9285 91.2279 16.6986 90.8739Z" fill="#171717"/>
<path d="M81.131 98.6599L82.5471 99.3679C83.6091 99.7219 83.9631 99.0139 84.6711 98.3059C85.3792 97.2438 84.3171 95.8278 83.2551 95.4738C80.777 94.4117 79.7149 97.5979 81.131 98.6599Z" fill="#171717"/>
<path d="M5.37175 86.2706L3.9557 85.5626C3.24767 85.2086 2.53964 85.5626 1.83161 86.2706C0.769566 86.9787 1.83161 88.7487 2.89366 89.4568C4.66373 90.5188 6.4338 87.6867 5.37175 86.2706Z" fill="#171717"/>
<path d="M26.9668 162.029C26.9668 161.675 26.6128 160.613 26.6128 160.613C26.2588 159.551 25.5507 159.551 24.8427 159.196C23.7807 159.196 23.0726 160.613 23.0726 162.029C23.4267 164.153 26.6128 163.799 26.9668 162.029Z" fill="#171717"/>
<path d="M8.9107 108.218L9.61873 106.802C9.97274 105.74 9.26472 105.386 8.55669 104.678C7.49464 103.97 6.07858 105.032 5.72457 106.094C4.66252 108.218 7.84865 109.634 8.9107 108.218Z" fill="#171717"/>
<path d="M95.9982 118.129L96.7063 116.713C97.0603 115.65 96.3522 115.296 95.9982 114.588C94.9362 113.88 93.5201 114.588 92.8121 115.65C91.75 117.775 94.5822 119.191 95.9982 118.129Z" fill="#171717"/>
<path d="M-0.291446 163.091L0.416579 161.675C0.770593 160.613 0.0625672 160.259 -0.645462 159.551C-1.70751 158.843 -3.12356 159.551 -3.83159 160.967C-4.89363 163.091 -1.7075 164.507 -0.291446 163.091Z" fill="#171717"/>
<path d="M13.1601 145.038C13.5141 145.038 14.5761 144.684 14.5761 144.684C15.2842 144.33 15.2842 143.268 15.2842 142.56C15.2842 141.498 13.5141 141.144 12.0981 141.498C9.97397 141.852 11.036 144.684 13.1601 145.038Z" fill="#171717"/>
<path d="M27.6751 17.2382L29.0911 17.5922C30.1532 17.5922 30.5072 16.8842 30.8612 16.1761C31.5692 15.1141 30.1532 13.698 29.0911 13.344C26.967 12.99 26.259 16.1761 27.6751 17.2382Z" fill="#171717"/>
<path d="M77.9462 109.281C77.5922 109.281 76.5302 109.989 76.5302 109.989C75.8222 110.697 75.8222 111.405 76.1762 112.113C76.5302 113.175 78.3003 113.529 79.3623 112.821C81.4864 112.113 79.7163 109.281 77.9462 109.281Z" fill="#171717"/>
<path d="M42.8992 44.8496C42.5452 44.8496 41.4832 44.8496 41.4832 44.8496C40.4211 44.8496 40.0671 45.5576 40.0671 46.6197C39.7131 47.6817 41.1291 48.7438 42.5452 48.7438C44.6693 48.7438 44.6693 45.5576 42.8992 44.8496Z" fill="#171717"/>
<path d="M11.7436 21.4871C11.7436 21.8411 12.8056 22.5492 12.8056 22.5492C13.5137 22.9032 14.2217 22.5492 14.9297 22.1952C15.9918 21.4871 15.2837 19.7171 14.2217 19.009C12.8056 17.239 10.6815 19.7171 11.7436 21.4871Z" fill="#171717"/>
<path d="M98.4761 149.638C98.4761 149.992 99.5381 150.7 99.5381 150.7C100.246 151.408 100.954 151.054 102.016 150.7C103.078 149.992 102.724 148.576 102.016 147.514C100.6 145.39 98.1221 147.868 98.4761 149.638Z" fill="#171717"/>
<path d="M46.4373 11.9277L45.0212 11.2197C44.3132 11.2197 43.6051 11.5737 43.2511 12.2817C42.1891 13.3438 43.2511 14.7598 44.6672 15.1138C46.7913 16.1759 47.8533 12.9897 46.4373 11.9277Z" fill="#171717"/>
<path d="M26.9668 180.795C26.9668 180.441 26.6128 179.379 26.6128 179.379C26.2588 178.671 25.5507 178.317 24.4887 178.317C23.4267 178.317 22.7186 180.087 23.0726 181.149C23.4267 183.627 26.6128 182.919 26.9668 180.795Z" fill="#171717"/>
<path d="M78.6514 71.7571C78.6514 71.4031 78.2974 70.3411 78.2974 70.3411C77.9433 69.633 76.8813 69.279 76.1733 69.279C75.1112 69.279 74.4032 71.0491 74.7572 72.4652C75.1112 74.5892 78.2974 73.5272 78.6514 71.7571Z" fill="#171717"/>
<path d="M63.7831 123.797C63.4291 123.797 62.721 124.859 62.721 124.859C62.367 125.567 62.721 126.275 63.075 126.983C63.7831 128.045 65.5531 127.337 66.2612 126.275C68.0312 124.859 65.5531 123.089 63.7831 123.797Z" fill="#171717"/>
<path d="M85.3809 129.107C85.3809 128.753 85.3809 127.691 85.3809 127.691C85.0268 126.629 84.3188 126.629 83.6108 126.275C82.5487 125.921 81.4867 127.691 81.8407 129.107C81.4867 131.585 85.0268 130.877 85.3809 129.107Z" fill="#171717"/>
<path d="M35.8181 122.733C35.4641 122.733 35.1101 123.795 35.1101 124.149C34.7561 124.857 35.1101 125.565 35.8181 126.273C36.5262 127.335 38.2962 126.627 39.0043 125.565C40.0663 123.441 37.2342 121.671 35.8181 122.733Z" fill="#171717"/>
<path d="M2.18474 6.97111L2.89277 5.55506C3.24679 4.49301 2.53876 4.139 2.18474 3.43097C1.47671 2.72294 -0.293357 3.43097 -1.00139 4.49301C-2.41744 6.6171 0.768684 8.03316 2.18474 6.97111Z" fill="#171717"/>
<path d="M29.4432 90.8721C29.0892 90.8721 28.3812 91.9341 28.3812 91.9341C28.0272 92.6421 28.3812 93.3502 28.7352 94.0582C29.4432 95.1202 31.2133 94.4122 31.9213 93.7042C33.6914 92.2881 31.2133 90.164 29.4432 90.8721Z" fill="#171717"/>
<path d="M90.6904 60.7823C90.6904 60.4283 90.6904 59.3662 90.6904 59.3662C90.6904 58.3042 89.6284 57.9502 88.9204 57.9502C87.8583 57.5961 86.7963 59.0122 86.7963 60.4283C86.7963 62.5523 89.9824 62.5523 90.6904 60.7823Z" fill="#171717"/>
<path d="M55.6424 149.641L54.9343 151.057C54.5803 152.119 55.2884 152.473 55.9964 153.181C57.0584 153.889 58.4745 152.827 58.8285 151.765C59.8905 149.641 57.0584 148.225 55.6424 149.641Z" fill="#171717"/>
<path d="M24.134 80.9623L25.5501 81.3163C26.6121 81.3163 26.9662 80.6082 27.3202 79.9002C28.0282 78.8382 26.6121 77.4221 25.5501 77.0681C23.78 76.7141 22.718 79.9002 24.134 80.9623Z" fill="#171717"/>
<path d="M3.60226 48.0367C3.95628 48.0367 5.01833 47.6827 5.01833 47.6827C5.72636 47.3287 6.08037 46.2667 5.72635 45.5586C5.72635 44.4966 3.95628 44.1426 2.54022 44.4966C0.770152 44.8506 1.83219 48.0367 3.60226 48.0367Z" fill="#171717"/>
<path d="M58.1224 39.1841C58.4764 39.1841 59.1844 38.122 59.1844 38.122C59.5384 37.414 59.1844 36.706 58.8304 35.9979C58.1224 34.9359 56.3523 35.6439 55.6443 36.706C53.8742 38.122 56.3523 39.8921 58.1224 39.1841Z" fill="#171717"/>
<path d="M27.3207 206.28C27.6747 206.28 28.7368 205.926 28.7368 205.926C29.4448 205.572 29.7988 204.864 29.7988 203.802C29.7988 202.74 28.0288 202.032 26.9667 202.386C24.8426 202.74 25.5507 205.926 27.3207 206.28Z" fill="#171717"/>
<path d="M99.5402 90.8746L100.956 91.5826C102.018 91.9366 102.372 91.2286 103.08 90.5205C103.788 89.4585 102.726 88.0424 101.664 87.6884C99.5402 86.2724 98.4781 89.4585 99.5402 90.8746Z" fill="#171717"/>
<path d="M8.20215 131.585C8.20215 131.231 7.49412 130.169 7.49412 130.169C7.1401 129.461 6.07806 129.461 5.37003 129.461C4.30799 129.461 3.95397 131.231 4.30799 132.647C5.01602 134.771 8.20215 133.355 8.20215 131.585Z" fill="#171717"/>
<path d="M61.66 23.255C61.66 23.609 61.306 24.6711 61.306 24.6711C61.306 25.7331 62.014 26.0871 62.722 26.4411C63.7841 27.1492 64.8461 25.7331 65.2001 24.3171C65.9082 22.193 62.722 21.4849 61.66 23.255Z" fill="#171717"/>
<path d="M20.9482 48.0355C20.9482 47.6815 20.2402 46.6194 20.2402 46.6194C19.8862 45.9114 18.8242 45.9114 18.1161 45.9114C17.0541 45.9114 16.7001 47.6815 17.0541 49.0975C17.7621 51.2216 20.9482 49.8055 20.9482 48.0355Z" fill="#171717"/>
<path d="M34.0479 111.051C34.0479 110.697 34.0479 109.635 34.0479 109.635C33.6938 108.573 32.9858 108.573 32.2778 108.219C31.2157 107.865 30.1537 109.635 30.5077 111.051C30.5077 113.175 33.6938 112.821 34.0479 111.051Z" fill="#171717"/>
<path d="M68.7383 157.076C68.7383 157.43 68.7383 158.492 68.7383 158.492C68.7383 159.554 69.8003 159.908 70.5083 159.908C71.5704 160.262 72.6324 158.846 72.6324 157.43C72.9864 155.306 69.4463 155.306 68.7383 157.076Z" fill="#171717"/>
<path d="M37.9403 80.6083C37.9403 80.9623 37.9403 82.0244 37.9403 82.0244C37.9403 83.0864 38.6483 83.4404 39.7104 83.7945C40.7724 84.1485 41.8345 82.7324 42.1885 81.3164C42.1885 79.1923 38.6483 78.8383 37.9403 80.6083Z" fill="#171717"/>
<path d="M58.4747 188.933C58.4747 189.287 59.1827 190.349 59.1827 190.349C59.8908 191.057 60.5988 191.057 61.3068 190.703C62.3689 190.349 62.3689 188.579 61.6608 187.517C60.9528 185.392 58.1207 187.163 58.4747 188.933Z" fill="#171717"/>
</g>
</svg>
