<svg width="100" height="385" viewBox="0 0 100 385" fill="none" xmlns="http://www.w3.org/2000/svg">
<g opacity="0.3">
<mask id="mask0_2743_4416" style="mask-type:alpha" maskUnits="userSpaceOnUse" x="0" y="0" width="100" height="385">
<rect x="100" y="0.908325" width="383.878" height="100" transform="rotate(90 100 0.908325)" fill="#C4C4C4"/>
</mask>
<g mask="url(#mask0_2743_4416)">
<path opacity="0.7" d="M204.705 85.4272C205.11 55.9082 134.749 68.0393 118.575 78.1485C93.9081 93.5145 94.7168 116.159 78.542 139.208C55.8973 171.558 44.9794 192.989 41.7444 234.235C40.1269 256.88 33.657 289.229 42.1488 311.47C57.9192 353.12 102.804 394.77 148.902 392.343C217.241 389.108 215.219 291.251 216.836 242.322C218.049 201.481 247.973 118.99 204.705 85.4272Z" fill="#86CDC1"/>
<path d="M95.7562 167.517C95.7562 167.921 94.9475 169.134 94.9475 169.134C94.1388 169.943 93.33 169.943 92.5213 169.539C91.3082 169.134 91.3082 167.112 91.7125 165.899C92.9257 163.473 96.1606 165.495 95.7562 167.517Z" fill="#171717"/>
<path d="M47.232 156.601L48.0408 158.218C48.4451 159.431 47.6364 159.836 46.8277 160.644C45.6146 161.453 43.9971 160.644 43.1883 159.027C42.3796 156.601 46.0189 154.983 47.232 156.601Z" fill="#171717"/>
<path d="M28.2256 170.344C28.2256 169.94 28.2256 168.726 28.2256 168.726C28.63 167.513 29.4387 167.513 30.2474 167.109C31.4605 166.705 32.6736 168.726 32.6736 169.94C32.6736 172.366 29.0343 172.366 28.2256 170.344Z" fill="#171717"/>
<path d="M81.198 188.948C81.6024 188.948 82.8155 188.544 82.8155 188.544C84.0286 188.544 84.433 189.352 84.8373 190.161C85.2417 191.374 84.0286 192.587 82.4111 192.992C79.9849 193.8 79.5805 190.161 81.198 188.948Z" fill="#171717"/>
<path d="M90.9045 34.0768C90.9045 34.4812 90.5001 35.6943 90.5001 35.6943C90.0957 36.5031 88.8826 36.9074 88.0739 36.9074C86.4564 36.9074 86.052 34.8856 86.4564 33.2681C86.8608 30.8419 90.5001 32.055 90.9045 34.0768Z" fill="#171717"/>
<path d="M95.3525 150.534C95.3525 150.13 95.7569 148.917 95.7569 148.917C96.5656 148.108 97.3744 148.108 98.1831 148.108C99.3962 148.108 100.205 150.13 99.8006 151.747C98.9919 154.173 95.7569 152.96 95.3525 150.534Z" fill="#171717"/>
<path d="M75.1328 175.198C75.1328 174.793 76.3459 173.985 76.3459 173.985C77.1547 173.176 77.9634 173.58 79.1765 173.985C80.3896 174.793 79.9853 176.411 79.1765 177.624C77.1547 179.646 74.3241 177.22 75.1328 175.198Z" fill="#171717"/>
<path d="M74.7251 201.886C75.1295 201.886 76.3426 202.291 76.3426 202.291C77.1513 202.695 77.5557 203.908 77.5557 204.717C77.5557 205.93 75.5338 206.739 73.9164 206.334C71.4902 205.526 72.7033 201.886 74.7251 201.886Z" fill="#171717"/>
<path d="M18.1165 87.4532L17.3078 85.8357C16.9034 84.6226 17.7121 84.2182 18.5209 83.4095C19.734 82.6008 21.3514 83.8139 21.7558 85.027C23.3733 87.4532 19.734 88.6663 18.1165 87.4532Z" fill="#171717"/>
<path d="M69.4705 71.2762C69.8749 71.2762 70.6836 72.4893 70.6836 72.4893C71.088 73.298 71.088 74.1068 70.2792 74.9155C69.4705 76.1286 67.4486 75.7242 66.6399 74.5111C64.6181 72.8937 67.4486 70.4674 69.4705 71.2762Z" fill="#171717"/>
<path d="M81.6011 73.7034C81.6011 73.299 82.8142 72.4902 82.8142 72.4902C83.6229 72.0859 84.4317 72.4903 85.2404 72.8946C86.4535 73.7034 85.6448 75.7252 84.836 76.5339C83.2185 78.1514 80.7923 75.3208 81.6011 73.7034Z" fill="#171717"/>
<path d="M21.3495 182.478C21.3495 182.882 20.1364 183.691 20.1364 183.691C19.3277 184.096 18.519 183.691 17.7102 183.287C16.0927 182.478 16.9015 180.456 17.7102 179.648C19.7321 177.626 22.1583 180.861 21.3495 182.478Z" fill="#171717"/>
<path d="M72.3023 29.6273C71.8979 29.6273 70.6848 29.2229 70.6848 29.2229C69.4717 28.8185 69.4717 28.0098 69.4717 26.7967C69.4717 25.5836 71.0892 24.7748 72.7066 24.7748C75.1329 25.5836 74.3241 29.2229 72.3023 29.6273Z" fill="#171717"/>
<path d="M63.4059 229.789C63.0015 229.789 62.5971 228.576 62.5971 228.576C62.1927 227.768 62.5971 226.959 63.4059 226.15C64.2146 224.937 66.2364 225.746 67.0452 226.959C68.2583 228.981 65.0233 231.002 63.4059 229.789Z" fill="#171717"/>
<path d="M67.045 142.849C67.4494 142.849 68.6625 142.444 68.6625 142.444C69.8756 142.444 70.28 143.253 70.6843 144.062C71.4931 145.275 69.8756 146.892 68.2581 147.297C66.2363 147.701 65.4275 144.062 67.045 142.849Z" fill="#171717"/>
<path d="M54.1057 117.781L54.9144 119.399C55.3188 120.612 54.5101 121.016 54.1057 121.825C52.8926 122.634 51.2751 121.825 50.4664 120.612C49.2533 118.186 52.4882 116.568 54.1057 117.781Z" fill="#171717"/>
<path d="M65.0232 92.3048L66.6406 91.496C67.8537 91.0917 68.2581 91.9004 69.0668 92.7092C69.8756 93.9223 68.6625 95.5397 67.4494 96.3485C65.0232 97.5616 63.4057 93.9223 65.0232 92.3048Z" fill="#171717"/>
<path d="M28.6318 191.375C28.6318 190.971 29.4406 189.758 29.4406 189.758C30.2493 188.949 31.0581 188.949 31.8668 189.353C33.0799 189.758 33.0799 191.78 32.6755 192.993C31.8668 195.419 28.6318 193.397 28.6318 191.375Z" fill="#171717"/>
<path d="M70.6847 127.08C70.2804 127.08 69.0673 126.675 69.0673 126.675C67.8541 126.271 67.8541 125.462 67.4498 124.653C67.0454 123.44 69.0673 122.632 70.6847 122.632C73.5153 122.632 72.7066 126.675 70.6847 127.08Z" fill="#171717"/>
<path d="M36.3107 49.4406C36.715 49.4406 37.9281 49.0363 37.9281 49.4406C39.1412 49.4406 39.5456 50.2494 39.95 51.0581C40.3543 52.2712 38.7369 53.4843 37.5238 53.8887C34.6932 54.2931 34.6932 50.6538 36.3107 49.4406Z" fill="#171717"/>
<path d="M57.7451 191.376L59.3626 190.567C60.1714 190.163 60.9801 190.567 61.7888 191.376C63.0019 192.185 61.7888 194.207 60.5757 195.015C58.5539 196.228 56.532 192.994 57.7451 191.376Z" fill="#171717"/>
<path d="M44.8031 205.527C44.8031 205.932 43.9944 207.145 43.9944 207.145C43.1856 207.953 42.3769 207.953 41.5682 207.549C40.3551 207.145 40.3551 205.123 40.7594 203.91C41.9725 201.079 45.2075 203.101 44.8031 205.527Z" fill="#171717"/>
<path d="M62.5966 59.1453C62.1923 59.1453 60.9791 59.5497 60.9791 59.5497C59.766 59.5497 59.3617 58.7409 58.9573 57.9322C58.1486 56.7191 59.766 55.506 61.3835 55.1016C63.8097 53.8885 64.6185 57.9322 62.5966 59.1453Z" fill="#171717"/>
<path d="M77.5606 159.43L77.1562 157.813C77.1562 156.6 77.5606 156.195 78.3694 155.387C79.5825 154.578 81.1999 155.791 81.6043 157.408C82.4131 159.835 78.7737 161.048 77.5606 159.43Z" fill="#171717"/>
<path d="M73.9192 106.456C74.3235 106.456 75.5366 106.861 75.5366 106.861C76.7498 107.265 76.7497 108.074 76.7497 109.287C76.7497 110.5 75.1323 111.309 73.5148 111.309C71.0886 110.5 71.8973 106.861 73.9192 106.456Z" fill="#171717"/>
<path d="M56.53 84.2174C56.53 84.6218 55.3169 85.4305 55.3169 85.4305C54.5082 85.8349 53.6994 85.4305 52.8907 85.0262C51.6776 84.2174 52.0819 82.1956 53.295 81.3868C54.9125 79.365 57.7431 82.1956 56.53 84.2174Z" fill="#171717"/>
<path d="M18.9241 110.501C19.3285 110.501 20.1372 111.714 20.1372 111.714C20.9459 112.523 20.5416 113.332 20.1372 114.545C19.3285 115.758 17.711 115.354 16.4979 114.545C14.476 112.523 16.9023 109.692 18.9241 110.501Z" fill="#171717"/>
<path d="M52.4886 105.245C52.0843 105.245 51.2755 104.032 51.2755 104.032C50.4668 103.223 50.8711 102.415 51.2755 101.201C51.6799 99.9883 53.7017 100.393 54.9148 101.201C56.9367 102.819 54.5105 105.649 52.4886 105.245Z" fill="#171717"/>
<path d="M80.7934 223.723C80.389 223.723 79.1759 222.914 79.1759 222.914C78.3672 222.105 78.3672 221.297 78.3672 220.488C78.7716 219.275 80.7934 218.87 82.0065 219.679C84.4327 220.488 82.8152 223.723 80.7934 223.723Z" fill="#171717"/>
<path d="M17.7105 154.577L16.093 154.981C14.8799 154.981 14.4756 154.173 14.0712 153.364C13.2625 152.151 14.8799 150.533 16.093 150.129C18.5193 149.32 19.328 152.96 17.7105 154.577Z" fill="#171717"/>
<path d="M45.2083 37.3092L45.6127 38.9266C45.6127 40.1397 44.8039 40.5441 43.9952 40.9485C42.7821 41.7572 41.1646 40.1397 40.7602 38.9266C39.9515 36.5004 43.5908 35.6917 45.2083 37.3092Z" fill="#171717"/>
<path d="M90.5 61.9769C90.5 61.5725 90.9044 60.3594 90.9044 60.3594C91.3087 59.1463 92.5218 59.1463 93.3306 59.1463C94.5437 59.1463 95.3524 61.1681 94.9481 62.3813C94.5437 64.8075 90.9044 63.9987 90.5 61.9769Z" fill="#171717"/>
<path d="M39.5467 96.3484C39.5467 96.7528 38.738 97.9659 38.738 97.9659C37.9292 98.7746 37.1205 98.7746 36.3118 98.3703C35.0987 97.9659 35.0987 95.944 35.9074 94.7309C36.7161 91.9004 39.9511 94.3266 39.5467 96.3484Z" fill="#171717"/>
<path d="M50.0606 66.021C50.0606 66.4254 49.6563 67.6385 49.2519 67.6385C48.8475 68.4472 47.6344 68.4472 46.8257 68.4472C45.6126 68.4472 45.2082 66.4254 45.6126 64.8079C46.4213 62.3817 50.0606 63.5948 50.0606 66.021Z" fill="#171717"/>
<path d="M34.2909 110.499L32.6734 111.308C31.4603 111.712 31.056 110.903 30.2472 110.095C29.4385 108.881 30.6516 107.264 31.8647 106.86C34.6953 105.647 35.9084 109.286 34.2909 110.499Z" fill="#171717"/>
<path d="M96.1572 182.882C96.1572 182.477 96.5616 181.264 96.5616 181.264C96.966 180.051 97.7747 180.051 98.5834 179.647C99.7966 179.647 100.605 181.264 100.605 182.882C100.201 185.308 96.5616 184.903 96.1572 182.882Z" fill="#171717"/>
<path d="M17.3076 132.74L16.4989 131.122C16.0945 129.909 16.9032 129.505 17.3076 128.696C18.5207 127.887 20.1382 128.696 20.9469 129.909C22.16 132.335 18.9251 133.953 17.3076 132.74Z" fill="#171717"/>
<path d="M95.3502 17.4966L93.7327 17.901C92.5196 17.901 92.1152 17.0922 91.7108 16.2835C90.9021 15.0704 92.5196 13.4529 93.7327 13.0485C96.1589 12.6442 96.9676 16.2835 95.3502 17.4966Z" fill="#171717"/>
<path d="M37.9284 122.632C38.3328 122.632 39.5459 123.44 39.5459 123.44C40.3546 124.249 40.3546 125.058 39.9503 125.867C39.5459 127.08 37.524 127.484 36.3109 126.675C33.8847 125.867 35.9066 122.632 37.9284 122.632Z" fill="#171717"/>
<path d="M77.9615 49.0369C78.3658 49.0369 79.579 49.0369 79.579 49.0369C80.7921 49.0369 81.1964 49.8457 81.1964 51.0588C81.6008 52.2719 79.9833 53.485 78.3658 53.485C75.9396 53.485 75.9396 49.8457 77.9615 49.0369Z" fill="#171717"/>
<path d="M14.4773 168.729C14.4773 169.134 13.2642 169.942 13.2642 169.942C12.4554 170.751 11.6467 170.347 10.4336 169.942C9.22049 169.134 9.62486 167.516 10.4336 166.303C12.0511 163.877 14.8817 166.707 14.4773 168.729Z" fill="#171717"/>
<path d="M73.9191 11.4291L75.5366 10.6204C76.3453 10.6204 77.1541 11.0247 77.5584 11.8335C78.7715 13.0466 77.5584 14.6641 75.9409 15.0684C73.5147 16.2815 72.3016 12.6422 73.9191 11.4291Z" fill="#171717"/>
<path d="M96.1572 204.314C96.1572 203.91 96.5616 202.697 96.5616 202.697C96.966 201.888 97.7747 201.484 98.9878 201.484C100.201 201.484 101.01 203.506 100.605 204.719C100.201 207.549 96.5616 206.741 96.1572 204.314Z" fill="#171717"/>
<path d="M37.1221 79.7689C37.1221 79.3645 37.5264 78.1514 37.5264 78.1514C37.9308 77.3427 39.1439 76.9383 39.9527 76.9383C41.1658 76.9383 41.9745 78.9601 41.5701 80.5776C41.1658 83.0038 37.5264 81.7907 37.1221 79.7689Z" fill="#171717"/>
<path d="M54.1062 139.211C54.5106 139.211 55.3193 140.425 55.3193 140.425C55.7237 141.233 55.3193 142.042 54.915 142.851C54.1062 144.064 52.0844 143.255 51.2756 142.042C49.2538 140.425 52.0844 138.403 54.1062 139.211Z" fill="#171717"/>
<path d="M29.4365 145.277C29.4365 144.872 29.4365 143.659 29.4365 143.659C29.8409 142.446 30.6496 142.446 31.4584 142.042C32.6715 141.637 33.8846 143.659 33.4802 145.277C33.8846 148.107 29.8409 147.299 29.4365 145.277Z" fill="#171717"/>
<path d="M86.0491 137.997C86.4534 137.997 86.8578 139.21 86.8578 139.615C87.2622 140.423 86.8578 141.232 86.0491 142.041C85.2403 143.254 83.2185 142.445 82.4097 141.232C81.1966 138.806 84.4316 136.784 86.0491 137.997Z" fill="#171717"/>
<path d="M93.3299 101.602C93.7342 101.602 94.543 102.816 94.543 102.816C94.9473 103.624 94.543 104.433 94.1386 105.242C93.3299 106.455 91.308 105.646 90.4993 104.837C88.4774 103.22 91.308 100.794 93.3299 101.602Z" fill="#171717"/>
<path d="M23.3721 67.2329C23.3721 66.8285 23.3721 65.6154 23.3721 65.6154C23.3721 64.4023 24.5852 63.9979 25.3939 63.9979C26.607 63.5935 27.8201 65.211 27.8201 66.8285C27.8201 69.2547 24.1808 69.2547 23.3721 67.2329Z" fill="#171717"/>
<path d="M63.4045 168.731L64.2133 170.348C64.6176 171.562 63.8089 171.966 63.0001 172.775C61.787 173.583 60.1696 172.37 59.7652 171.157C58.5521 168.731 61.787 167.114 63.4045 168.731Z" fill="#171717"/>
<path d="M99.3961 90.2846L97.7786 90.689C96.5655 90.689 96.1611 89.8802 95.7567 89.0715C94.948 87.8584 96.5655 86.2409 97.7786 85.8365C99.8004 85.4322 101.014 89.0715 99.3961 90.2846Z" fill="#171717"/>
<path d="M60.574 42.5651C60.1696 42.5651 59.3609 41.352 59.3609 41.352C58.9565 40.5433 59.3609 39.7345 59.7652 38.9258C60.574 37.7127 62.5958 38.5214 63.4045 39.7345C65.4264 41.352 62.5958 43.3738 60.574 42.5651Z" fill="#171717"/>
<path d="M95.7534 233.427C95.3491 233.427 94.136 233.023 94.136 233.023C93.3272 232.619 92.9229 231.81 92.9229 230.597C92.9229 229.384 94.9447 228.575 96.1578 228.979C98.584 229.384 97.7753 233.023 95.7534 233.427Z" fill="#171717"/>
<path d="M13.2636 101.606L11.6461 102.414C10.433 102.819 10.0286 102.01 9.21987 101.201C8.41113 99.9882 9.62424 98.3707 10.8373 97.9664C13.2636 96.3489 14.4767 99.9882 13.2636 101.606Z" fill="#171717"/>
<path d="M56.5328 24.3688C56.5328 24.7732 56.9372 25.9863 56.9372 25.9863C56.9372 27.1994 56.1285 27.6038 55.3197 28.0081C54.1066 28.8169 52.8935 27.1994 52.4891 25.5819C51.6804 23.1557 55.3197 22.347 56.5328 24.3688Z" fill="#171717"/>
<path d="M88.0693 124.652C88.0693 124.248 88.0693 123.035 88.0693 123.035C88.4737 121.822 89.2824 121.822 90.0912 121.417C91.3043 121.013 92.5174 123.035 92.113 124.652C92.113 127.078 88.4737 126.674 88.0693 124.652Z" fill="#171717"/>
<path d="M48.4461 177.223C48.4461 177.627 48.4461 178.84 48.4461 178.84C48.4461 180.054 47.233 180.458 46.4243 180.458C45.2112 180.862 43.9981 179.245 43.9981 177.627C43.5937 175.201 47.6374 175.201 48.4461 177.223Z" fill="#171717"/>
<path d="M83.6229 89.8783C83.6229 90.2827 83.6229 91.4958 83.6229 91.4958C83.6229 92.7089 82.8142 93.1132 81.6011 93.5176C80.388 93.922 79.1749 92.3045 78.7705 90.687C78.7705 88.2608 82.8142 87.8564 83.6229 89.8783Z" fill="#171717"/>
<path d="M60.1688 213.613C60.1688 214.017 59.36 215.23 59.36 215.23C58.5513 216.039 57.7426 216.039 56.9338 215.634C55.7207 215.23 55.7207 213.208 56.5295 211.995C57.3382 209.569 60.5732 211.591 60.1688 213.613Z" fill="#171717"/>
</g>
</g>
</svg>
