<svg width="51" height="61" viewBox="0 0 51 61" fill="none" xmlns="http://www.w3.org/2000/svg">
<path d="M39.4809 1.13264L3.53005 21.7377C2.46875 22.3608 1.58671 23.2479 0.969691 24.3128C0.352667 25.3776 0.021635 26.584 0.00878906 27.8147V53.9401C0.044592 55.158 0.400915 56.3449 1.04179 57.3811C1.68267 58.4173 2.58545 59.2662 3.65911 59.8422C4.73276 60.4182 5.9393 60.7009 7.15707 60.6618C8.37484 60.6227 9.56078 60.2632 10.5953 59.6195L16.8313 56.0528L17.3993 56.9616C17.3993 56.9616 17.456 56.9616 17.4901 57.0524H17.5583C18.5919 57.734 20.398 58.6995 20.7955 58.9039C20.8905 58.9331 20.993 58.9247 21.0819 58.8802C21.1707 58.8358 21.239 58.7589 21.2726 58.6654L23.5444 52.1567L46.4553 39.06C47.5399 38.4672 48.4485 37.598 49.0889 36.5408C49.7293 35.4835 50.0786 34.2756 50.1015 33.0397V6.83481C50.1015 1.7801 42.6273 -0.66206 39.4809 1.13264Z" fill="#37474F"/>
<path opacity="0.2" d="M17.4451 56.9729C17.4451 56.9729 17.5018 56.9729 17.5359 57.0638H17.6041C18.6377 57.7453 20.4438 58.7108 20.8414 58.9153C20.7947 58.9055 20.7505 58.8864 20.7115 58.8591C20.6724 58.8317 20.6393 58.7967 20.6142 58.7562L18.3424 55.1555L18.7854 54.9056L16.8203 56.0415L17.4451 56.9729Z" fill="white"/>
<path opacity="0.4" d="M7.93617 28.3372C8.38879 27.4304 9.0274 26.6293 9.81038 25.9859C10.076 25.7671 10.3612 25.5731 10.6623 25.4066L46.5564 4.81291C46.9119 4.59528 47.3194 4.47708 47.7362 4.47066C48.153 4.46423 48.5639 4.56982 48.926 4.77639C49.288 4.98296 49.588 5.28294 49.7946 5.64502C50.0012 6.00709 50.1068 6.41798 50.1004 6.83479C50.1004 1.78009 42.6603 -0.662074 39.5139 1.15535L3.52891 21.7376C2.43374 22.3623 1.5333 23.2784 0.927734 24.3843L7.93617 28.3372Z" fill="white"/>
<path opacity="0.2" d="M7.15353 57.5976V31.4722C7.13627 31.1961 7.13627 30.9191 7.15353 30.643C7.27626 29.8511 7.52554 29.084 7.89186 28.3712L0.928873 24.4183C0.32826 25.4537 0.0109132 26.629 0.00878906 27.826V53.9514C0.044592 55.1693 0.400914 56.3562 1.04179 57.3924C1.68267 58.4287 2.58545 59.2776 3.65911 59.8536C4.73276 60.4296 5.9393 60.7123 7.15707 60.6732C8.37484 60.6341 9.56078 60.2746 10.5953 59.6309C10.2415 59.8234 9.84386 59.9209 9.44115 59.9138C9.03845 59.9068 8.64447 59.7953 8.29769 59.5905C7.95091 59.3856 7.66319 59.0943 7.46266 58.745C7.26212 58.3957 7.15561 58.0004 7.15353 57.5976Z" fill="white"/>
<path d="M18.1824 35.1298C19.943 34.1188 21.3743 34.9367 21.3743 36.9585C21.3192 38.0635 21.0034 39.1398 20.4526 40.0993C19.9018 41.0588 19.1316 41.8742 18.2051 42.479C16.4332 43.4899 15.002 42.6721 15.002 40.6502C15.0591 39.5444 15.3771 38.4678 15.9298 37.5084C16.4826 36.5489 17.2545 35.7339 18.1824 35.1298Z" fill="white"/>
<path d="M30.0083 28.3031C31.7689 27.2921 33.2115 28.11 33.2115 30.1319C33.1534 31.2374 32.835 32.3137 32.2824 33.273C31.7297 34.2322 30.9583 35.0475 30.031 35.6523C28.259 36.6632 26.8278 35.8454 26.8164 33.8235C26.8775 32.7173 27.1984 31.6411 27.7529 30.682C28.3075 29.7229 29.0801 28.9079 30.0083 28.3031Z" fill="white"/>
<path d="M41.8432 21.4764C43.5925 20.4654 45.035 21.2833 45.035 23.3052C44.9779 24.4094 44.6599 25.4844 44.1071 26.442C43.5542 27.3996 42.7823 28.2126 41.8546 28.8142C40.094 29.8365 38.6627 29.0187 38.6514 26.9854C38.7107 25.8804 39.0308 24.8051 39.5856 23.8475C40.1404 22.89 40.914 22.0774 41.8432 21.4764Z" fill="white"/>
</svg>
