<svg width="50" height="61" viewBox="0 0 50 61" fill="none" xmlns="http://www.w3.org/2000/svg">
<path d="M10.5371 1.08262L46.1586 21.5286C47.216 22.1418 48.0944 23.0213 48.7062 24.0795C49.3181 25.1378 49.642 26.3378 49.6457 27.5602V53.4812C49.6369 54.7015 49.3005 55.8971 48.6718 56.9431C48.043 57.989 47.145 58.847 46.0714 59.4273C44.9978 60.0076 43.7881 60.289 42.5686 60.2421C41.3491 60.1952 40.1646 59.8217 39.1387 59.1606L32.9595 55.6166L32.3916 56.5253C32.3668 56.5576 32.336 56.5846 32.3007 56.6048H32.2325C31.2102 57.2864 29.4269 58.2405 29.018 58.4563C28.9245 58.4862 28.8231 58.4793 28.7345 58.4371C28.6459 58.3949 28.5767 58.3206 28.5409 58.2292L26.2691 51.766L3.55134 38.7714C2.48945 38.1623 1.6069 37.284 0.992682 36.2251C0.378461 35.1662 0.0542586 33.964 0.0527867 32.7398V6.73935C0.0300689 1.71872 7.41336 -0.700723 10.5371 1.08262Z" fill="#37474F"/>
<path opacity="0.2" d="M32.3922 56.4912C32.3675 56.5235 32.3366 56.5505 32.3013 56.5707H32.2332C31.2109 57.2523 29.4275 58.2064 29.0186 58.4222C29.0652 58.4125 29.1094 58.3934 29.1485 58.366C29.1875 58.3387 29.2206 58.3037 29.2457 58.2632L31.4494 54.6965L31.0178 54.4466L32.9601 55.5825L32.3922 56.4912Z" fill="white"/>
<path opacity="0.4" d="M41.8303 28.0713C41.371 27.1948 40.737 26.4217 39.9675 25.7995C39.7 25.5833 39.415 25.3896 39.1156 25.2202L3.4941 4.77424C3.14434 4.55816 2.7425 4.44105 2.33142 4.43538C1.92033 4.42971 1.51541 4.5357 1.15982 4.74206C0.804236 4.94841 0.511307 5.2474 0.312275 5.60714C0.113242 5.96688 0.0155691 6.37389 0.0296543 6.78477C0.0296543 1.76414 7.41293 -0.655299 10.5366 1.10533L46.1581 21.5513C47.2542 22.1648 48.1676 23.0586 48.8047 24.1411L41.8303 28.0713Z" fill="white"/>
<path opacity="0.2" d="M42.6143 57.116V31.195C42.6127 30.9177 42.5938 30.6407 42.5575 30.3658C42.4411 29.5739 42.1955 28.8064 41.8306 28.094L48.8049 24.1411C49.3871 25.183 49.6958 26.3553 49.7023 27.5488V53.4698C49.6935 54.6901 49.3571 55.8857 48.7283 56.9317C48.0996 57.9776 47.2015 58.8356 46.1279 59.4159C45.0543 59.9962 43.8446 60.2776 42.6251 60.2307C41.4056 60.1838 40.2211 59.8103 39.1953 59.1492C39.5458 59.3545 39.9449 59.4622 40.3511 59.4608C40.7573 59.4595 41.1558 59.3493 41.5049 59.1417C41.8541 58.934 42.1411 58.6366 42.3362 58.2803C42.5314 57.924 42.6274 57.522 42.6143 57.116Z" fill="white"/>
<path d="M15.4332 17.3371C14.8122 16.8939 14.086 16.6209 13.3269 16.5452C12.5677 16.4695 11.8018 16.5937 11.1055 16.9055C8.70879 18.2572 8.69743 22.7099 11.1055 26.8218L12.4913 29.2412L21.1013 44.1555L29.7681 39.2144L31.1653 38.4079C33.5734 37.0562 33.5847 32.6035 31.1653 28.4916C30.1358 26.635 28.6503 25.0713 26.8489 23.948C26.2301 23.5047 25.5058 23.2316 24.7484 23.1558C23.9909 23.0801 23.2269 23.2044 22.5325 23.5164L21.124 24.3001L19.7269 21.9034C18.7069 20.0412 17.2292 18.4697 15.4332 17.3371Z" fill="white"/>
</svg>
