<svg width="90" height="41" viewBox="0 0 90 41" fill="none" xmlns="http://www.w3.org/2000/svg">
<path d="M80.7426 16.3591C79.9089 16.7876 78.9791 16.9945 78.042 16.9601C77.1054 16.9256 76.1934 16.651 75.3929 16.1624C74.5929 15.6738 73.9323 14.9878 73.4734 14.1702C73.0151 13.3526 72.774 12.4308 72.7746 11.4934V5.87265C72.7751 4.90408 72.5323 3.95091 72.0683 3.1007C71.6043 2.25049 70.934 1.53051 70.1191 1.00689C70.9529 0.578415 71.8831 0.371467 72.8197 0.405916C73.7563 0.440365 74.6689 0.715053 75.4689 1.20361C76.2689 1.69217 76.93 2.37819 77.3883 3.19582C77.8471 4.01344 78.0877 4.93522 78.0871 5.87265V11.4952C78.0854 12.2545 78.2334 13.0067 78.5237 13.7084C78.8134 14.4101 79.2397 15.0474 79.7774 15.5835C80.07 15.8764 80.3934 16.1366 80.7426 16.3591Z" fill="#FF671F"/>
<path d="M70.7417 11.3394H66.9857C66.1572 11.3408 65.3394 11.154 64.5943 10.7932C63.8486 10.4324 63.1949 9.90688 62.6817 9.25648C62.1692 8.60602 61.8109 7.84762 61.6337 7.03842C61.4572 6.22928 61.4663 5.39051 61.6611 4.58544C61.856 3.78039 62.2309 3.03007 62.7577 2.39111C63.2846 1.75216 63.9503 1.24127 64.7034 0.897C65.4566 0.552731 66.2783 0.384077 67.1063 0.403767C67.9343 0.423458 68.7474 0.63098 69.4834 1.01067C69.1354 1.23376 68.8126 1.49449 68.5217 1.78814C67.8292 2.48244 67.3246 3.34158 67.0554 4.2847C66.7863 5.22781 66.7617 6.22391 66.9834 7.17916C67.2057 8.13448 67.6669 9.01756 68.3246 9.74534C68.9817 10.4732 69.8137 11.0217 70.7417 11.3394Z" fill="#FF9E1B"/>
<path d="M89.334 11.4935C89.3334 12.4305 89.0923 13.3516 88.6334 14.1687C88.1746 14.9856 87.5134 15.6712 86.714 16.1595C85.914 16.6479 85.0026 16.9227 84.066 16.9576C83.1294 16.9926 82.2003 16.7865 81.366 16.3592C81.7146 16.1359 82.0374 15.8752 82.3294 15.5817C83.022 14.8877 83.5271 14.0289 83.7969 13.0861C84.0666 12.1433 84.0923 11.1474 83.8711 10.192C83.65 9.23661 83.19 8.35306 82.5334 7.62444C81.8769 6.89587 81.0466 6.34604 80.1191 6.02673H83.8751C85.3231 6.03071 86.7106 6.60815 87.7334 7.63272C88.7569 8.65729 89.3323 10.0455 89.334 11.4935Z" fill="#EB3300"/>
<path d="M35.2051 31.3583H35.8323V35.3771H41.1695V31.3583H41.7967V40.1471H41.1695V36.0137H35.8323V40.1565H35.2051V31.3583Z" fill="#EB3300"/>
<path d="M44.0653 37.3942C44.0989 38.0099 44.3628 38.5906 44.8046 39.0208C45.2464 39.4512 45.8338 39.6997 46.4502 39.7171C46.8441 39.7093 47.2307 39.6099 47.5795 39.4267C47.9283 39.2435 48.2297 38.9816 48.4597 38.6618L48.8352 39.026C48.563 39.4067 48.2056 39.7186 47.7915 39.9367C47.3774 40.1548 46.9182 40.2732 46.4502 40.2824C44.8803 40.2824 43.5 38.9021 43.5 37.1425C43.5 35.3828 44.8822 34.0026 46.3883 34.0026C47.8944 34.0026 49.1507 35.2589 49.1507 37.1425V37.3942H44.0653ZM44.0653 36.8307H48.5854C48.5235 35.5162 47.5807 34.5772 46.3883 34.5772C45.1958 34.5772 44.1291 35.6364 44.0653 36.8288V36.8307Z" fill="#EB3300"/>
<path d="M54.7399 36.3893C54.7399 35.3471 54.0112 34.5696 53.0497 34.5696C52.7108 34.581 52.3782 34.6654 52.0749 34.8171C51.7715 34.9688 51.5045 35.1842 51.292 35.4485L50.9164 35.0729C50.9164 35.0729 51.6957 34.0062 53.0516 34.0062C54.3455 34.0062 55.3052 35.0485 55.3052 36.3912V40.1584H54.7418V39.1518C54.495 39.5043 54.1658 39.7913 53.7829 39.9877C53.4 40.184 52.9749 40.2839 52.5446 40.2786C51.3521 40.2786 50.5352 39.4617 50.5352 38.5884C50.5352 37.6494 51.2262 36.9433 52.3549 36.7687L54.7399 36.3893ZM54.7399 37.5161V36.9527L52.4864 37.3283C51.5474 37.4786 51.1042 37.9555 51.1042 38.5847C51.1042 39.1481 51.6676 39.7114 52.5483 39.7114C52.8378 39.7176 53.1256 39.6651 53.3942 39.5571C53.6629 39.4491 53.9069 39.2879 54.1117 39.0832C54.3164 38.8785 54.4776 38.6344 54.5856 38.3658C54.6936 38.0971 54.746 37.8094 54.7399 37.5199V37.5161Z" fill="#EB3300"/>
<path d="M57.9787 40.1565H57.415V31.3583H57.9787V40.1471V40.1565Z" fill="#EB3300"/>
<path d="M60.7152 32.1207H61.2164V34.1302H62.5987V34.6935H61.2164V38.6485C61.2164 39.3396 61.5924 39.7152 62.1558 39.7152C62.4381 39.7097 62.7164 39.6458 62.9724 39.5274V40.0907C62.7164 40.2091 62.4381 40.2731 62.1558 40.2786C61.2164 40.2786 60.6535 39.7152 60.6535 38.6466V34.6935H59.4609V34.1302H60.2775C60.3404 34.1296 60.4027 34.1157 60.4598 34.0894C60.5169 34.0632 60.5684 34.0251 60.6095 33.9778C60.6512 33.9304 60.6821 33.8749 60.7009 33.8147C60.7192 33.7546 60.7249 33.6912 60.7169 33.6287V32.1264L60.7152 32.1207Z" fill="#EB3300"/>
<path d="M65.1416 35.1968C65.3438 34.8284 65.6438 34.5224 66.0078 34.3122C66.3718 34.102 66.7867 33.9955 67.2073 34.0043C68.5896 34.0043 69.6484 35.071 69.6484 36.579V40.1583H69.085V36.5771C69.085 35.3846 68.2684 34.5677 67.2073 34.5677C66.0804 34.5677 65.1416 35.5067 65.1416 36.7649V40.1546H64.5781V31.3583H65.1416V35.1874V35.1968Z" fill="#EB3300"/>
<path d="M1.29115 17.2604C1.29115 14.8848 3.34187 12.8341 6.58134 12.8341C9.92785 12.8341 11.5466 14.8848 11.5466 14.8848L9.61231 16.9374C9.61231 16.9374 8.53254 15.6416 6.80482 15.6416C5.50902 15.6416 4.75408 16.3928 4.75408 17.2604C4.75408 20.0661 12.202 18.4473 12.202 23.8445C12.202 26.5431 10.1513 28.5938 6.47991 28.5938C2.70148 28.5938 0.757812 26.1112 0.757812 26.1112L2.70148 24.1675C3.15007 24.6718 3.69936 25.0763 4.31395 25.3551C4.92852 25.6339 5.59474 25.7808 6.26959 25.7863C7.88836 25.7863 8.75225 24.9224 8.75225 23.8426C8.74848 21.0388 1.29115 22.6595 1.29115 17.2604Z" fill="#EB3300"/>
<path d="M16.8016 28.1659L12.7002 17.6945H15.7237L18.2063 24.7105L20.4467 18.4006C20.5193 18.1961 20.6534 18.0192 20.8306 17.8941C21.0079 17.769 21.2194 17.7019 21.4364 17.7019H23.7162L19.5077 28.917C18.5368 31.5086 17.2411 32.8025 15.4063 32.8025C14.7799 32.8081 14.1579 32.6979 13.5716 32.4777V29.8861C13.9122 30.0335 14.2802 30.1071 14.6513 30.1021C15.0423 30.1175 15.4284 30.0118 15.7568 29.7994C16.0853 29.5869 16.34 29.2781 16.4861 28.9152L16.8016 28.1659Z" fill="#EB3300"/>
<path d="M28.0933 18.9883C28.0933 18.9883 29.1731 17.486 31.1168 17.486C33.4924 17.486 35.2182 19.2137 35.2182 22.1282V28.2822H33.3534C33.075 28.2822 32.808 28.1717 32.6111 27.9748C32.4142 27.7779 32.3036 27.5109 32.3036 27.2325V22.4437C32.3036 21.148 31.4397 20.2841 30.2529 20.2841C28.9571 20.2841 28.0933 21.148 28.0933 22.7667V28.2729H25.1787V17.6925H28.0933V18.9883Z" fill="#EB3300"/>
<path d="M39.8903 23.9534C40.1063 25.0332 41.0772 26.0041 42.6979 26.0041C43.4451 26.004 44.1745 25.7753 44.7881 25.3487C45.0078 25.203 45.2747 25.1462 45.5348 25.1898C45.7949 25.2334 46.0287 25.3741 46.189 25.5834L47.0134 26.6445C46.4173 27.2358 45.7095 27.7026 44.9312 28.0176C44.1529 28.3326 43.3196 28.4896 42.48 28.4793C38.9307 28.4793 36.2134 25.2868 37.0039 21.7356C37.2773 20.5104 37.9655 19.4173 38.9521 18.6412C39.9386 17.8651 41.163 17.4536 42.4181 17.4764C45.4228 17.5008 47.6594 19.76 47.6594 22.7647C47.6676 23.163 47.6317 23.5611 47.5524 23.9516H39.8903V23.9534ZM39.8903 21.9027H44.7486C44.6515 21.3477 44.3582 20.8461 43.9221 20.4893C43.486 20.1325 42.9362 19.9443 42.373 19.959C41.0772 19.959 40.2134 20.8229 39.8903 21.9027Z" fill="#EB3300"/>
<path d="M54.7586 28.4887C51.7352 28.4887 49.1455 25.8971 49.1455 22.9826C49.1455 20.068 51.737 17.4764 54.7586 17.4764C57.7803 17.4764 60.3718 20.0661 60.3718 22.9826C60.3718 25.899 57.7803 28.4887 54.7586 28.4887ZM54.7586 25.7901C56.1615 25.7901 57.3503 24.6032 57.3503 22.9826C57.3503 21.3619 56.1634 20.175 54.7586 20.175C53.354 20.175 52.1671 21.3619 52.1671 22.9826C52.1671 24.6032 53.3558 25.7901 54.7586 25.7901Z" fill="#EB3300"/>
<path d="M67.9331 20.8229C67.9331 20.8229 67.2851 19.9591 66.2057 19.9591C65.3417 19.9591 64.9097 20.391 64.9097 20.8229C64.9097 22.3253 69.768 21.5741 69.768 25.1422C69.768 26.977 68.2657 28.4887 65.5577 28.4887C62.5343 28.4887 61.2383 26.545 61.2383 26.545L62.8571 24.9262C62.8571 24.9262 63.7211 26.1131 65.124 26.1131C66.0949 26.1131 66.5269 25.6812 66.5269 25.1422C66.5269 23.5234 61.6686 24.3215 61.6686 20.8229C61.6686 19.2041 63.396 17.4764 65.7697 17.4764C68.2526 17.4764 69.4394 19.0952 69.4394 19.0952L67.9331 20.8229Z" fill="#EB3300"/>
<path d="M71.9822 26.0155C72.1513 26.02 72.3147 26.0741 72.453 26.1711C72.5913 26.2682 72.6976 26.4038 72.7593 26.5611C72.8205 26.7183 72.8342 26.8903 72.7987 27.0553C72.7627 27.2203 72.6793 27.3711 72.5582 27.4888C72.437 27.6065 72.2839 27.6859 72.1182 27.717C71.9519 27.7481 71.7805 27.7296 71.625 27.6637C71.4696 27.5979 71.337 27.4876 71.2439 27.3468C71.1507 27.2059 71.101 27.0407 71.1016 26.8719C71.1005 26.7571 71.1233 26.6434 71.1673 26.5375C71.2119 26.4316 71.277 26.3358 71.3593 26.2558C71.4416 26.1758 71.5393 26.1133 71.6462 26.0719C71.753 26.0307 71.8673 26.0115 71.9822 26.0155ZM71.9822 27.5479C72.1165 27.5535 72.2496 27.5189 72.3639 27.4484C72.4782 27.3779 72.569 27.2748 72.6245 27.1523C72.6799 27.0298 72.6976 26.8936 72.6747 26.761C72.6525 26.6285 72.5907 26.5058 72.4976 26.4086C72.405 26.3114 72.285 26.2442 72.1536 26.2156C72.0222 26.187 71.8856 26.1983 71.7605 26.2482C71.6359 26.2979 71.5285 26.3839 71.453 26.4951C71.3776 26.6062 71.3365 26.7374 71.3365 26.8719C71.333 26.959 71.3473 27.0459 71.3782 27.1275C71.409 27.209 71.4559 27.2835 71.5165 27.3465C71.5765 27.4095 71.649 27.4599 71.729 27.4945C71.809 27.5291 71.8953 27.5473 71.9822 27.5479ZM71.6405 26.3893H72.0027C72.2433 26.3893 72.3787 26.4644 72.3787 26.6747C72.381 26.7086 72.3759 26.7427 72.3645 26.7746C72.3525 26.8066 72.3342 26.8357 72.3107 26.86C72.2867 26.8843 72.2582 26.9033 72.2262 26.9157C72.1947 26.9281 72.161 26.9337 72.1267 26.932L72.3839 27.3526H72.1833L71.9485 26.9414H71.8285V27.3526H71.6405V26.3911V26.3893ZM71.8285 26.7911H71.997C72.1045 26.7911 72.185 26.7742 72.185 26.6578C72.185 26.5414 72.0742 26.5376 71.9879 26.5376H71.8285V26.7893V26.7911Z" fill="#EB3300"/>
</svg>
