<svg width="50" height="51" viewBox="0 0 50 51" fill="none" xmlns="http://www.w3.org/2000/svg">
<path d="M24.7685 7.38477H6.36328C5.95879 7.38477 5.63086 7.7127 5.63086 8.11719C5.63086 8.52168 5.95879 8.84961 6.36328 8.84961H24.7685C25.173 8.84961 25.501 8.52168 25.501 8.11719C25.501 7.7127 25.173 7.38477 24.7685 7.38477Z" fill="#2A4E96"/>
<path d="M25.501 13.1489C25.501 12.7444 25.173 12.4165 24.7685 12.4165H6.36328C5.95879 12.4165 5.63086 12.7444 5.63086 13.1489C5.63086 13.5534 5.95879 13.8813 6.36328 13.8813H24.7685C25.173 13.8813 25.501 13.5534 25.501 13.1489Z" fill="#2A4E96"/>
<path d="M6.36328 17.4482C5.95879 17.4482 5.63086 17.7762 5.63086 18.1807C5.63086 18.5852 5.95879 18.9131 6.36328 18.9131H15.5659C15.9704 18.9131 16.2983 18.5852 16.2983 18.1807C16.2983 17.7762 15.9704 17.4482 15.5659 17.4482H6.36328Z" fill="#2A4E96"/>
<path d="M13.9059 48.7344H3.23076C2.35449 48.7344 1.6416 48.0215 1.6416 47.1452V3.25322C1.6416 2.37695 2.35449 1.66406 3.23076 1.66406C30.499 1.67187 28.8417 1.64717 29.0858 1.68232V7.80693C29.0858 9.23046 30.2439 10.3886 31.6675 10.3886H37.7921C37.8029 10.464 37.8103 10.5402 37.8103 10.6179V14.864C37.8103 15.2685 38.1383 15.5964 38.5428 15.5964C38.9473 15.5964 39.2752 15.2685 39.2752 14.864V10.6179C39.2752 9.89355 39.0242 9.208 38.5641 8.65947C38.5633 8.65839 38.5623 8.65732 38.5614 8.65625C38.5049 8.58906 31.1082 1.15674 30.8173 0.912207C30.8166 0.911621 30.816 0.911035 30.8153 0.910547C30.2668 0.450293 29.5811 0.199219 28.8566 0.199219H3.23076C1.54678 0.199219 0.176758 1.56924 0.176758 3.25322V47.1451C0.176758 48.8292 1.54678 50.1992 3.23076 50.1992H13.9059C14.3103 50.1992 14.6383 49.8713 14.6383 49.4668C14.6383 49.0623 14.3103 48.7344 13.9059 48.7344ZM30.5507 7.80693V2.6998L36.7745 8.92363H31.6675C31.0517 8.92363 30.5507 8.42265 30.5507 7.80693Z" fill="#2A4E96"/>
<path d="M49.5108 27.5337C49.5028 27.5185 49.4941 27.5035 49.4849 27.4887C48.9206 26.5576 47.8975 25.9342 46.7316 25.9342H44.1645C43.3918 20.2914 38.5405 15.9297 32.6889 15.9297C26.8372 15.9297 21.9859 20.2913 21.2132 25.9342H18.6461C16.8878 25.9342 15.4287 27.3667 15.4287 29.1516V46.9818C15.4287 48.7481 16.8665 50.1991 18.6461 50.1991H46.7315C48.5081 50.1991 49.9488 48.7514 49.9488 46.9818V29.1516C49.9489 28.5619 49.7888 28.0094 49.5108 27.5337ZM48.4841 46.9818C48.4841 47.2442 48.4245 47.4924 48.3207 47.7161L36.7198 37.3636L48.4785 29.0428C48.4871 29.1813 48.4828 40.0006 48.4841 46.9818ZM46.7316 27.399C47.1225 27.399 47.4827 27.5293 47.7746 27.7465L43.8796 30.5027C44.1384 29.5305 44.2727 28.5234 44.2727 27.5136C44.2727 27.4753 44.2717 27.4373 44.2713 27.3991H46.7316V27.399ZM32.6889 17.3945C38.2684 17.3945 42.8078 21.9339 42.8078 27.5135C42.8078 29.0931 42.4539 30.6026 41.7577 32.0041L35.5983 36.3627L35.0738 35.8946C34.4838 35.3681 33.7635 35.0703 33.0261 35.0008C33.2607 34.8787 33.4213 34.6338 33.4213 34.351V33.5612C36.5224 32.9304 37.3633 28.4137 34.0212 27.2322C33.824 27.1625 33.6225 27.0895 33.4213 27.0137V23.7547C33.9134 23.8812 34.2059 24.1288 34.2321 24.1518C34.5297 24.421 34.9892 24.4007 35.2618 24.1051C35.536 23.8077 35.5174 23.3443 35.22 23.0701C35.1801 23.0333 34.5134 22.4326 33.4213 22.2606V21.6087C33.4213 21.2042 33.0933 20.8763 32.6889 20.8763C32.2844 20.8763 31.9564 21.2042 31.9564 21.6087V22.3162C31.8592 22.3382 31.7607 22.3629 31.6601 22.3933C29.5174 23.0387 28.9584 25.9475 30.516 27.1691C30.8821 27.4563 31.3365 27.7194 31.9564 27.9966V32.1527C31.4137 32.1095 31.0637 31.9732 30.4703 31.5851C30.1318 31.3637 29.6778 31.4586 29.4564 31.7971C29.235 32.1356 29.3299 32.5895 29.6684 32.8109C30.5609 33.3948 31.1736 33.5734 31.9564 33.6207V34.3511C31.9564 34.6339 32.117 34.8788 32.3517 35.0009C31.6143 35.0704 30.8939 35.3681 30.3039 35.8947L29.7794 36.3628L23.6199 32.0042C22.9237 30.6028 22.5699 29.0932 22.5699 27.5136C22.57 21.9339 27.1093 17.3945 32.6889 17.3945ZM33.4213 28.5733C33.4587 28.5867 33.4947 28.5998 33.533 28.6134C35.305 29.2397 34.8878 31.4725 33.4213 32.0346V28.5733ZM31.9564 26.364C31.7553 26.2526 31.5733 26.1368 31.42 26.0165C30.8399 25.5616 31.0391 24.2245 31.9564 23.8418V26.364ZM17.057 47.716C16.9532 47.4923 16.8937 47.2441 16.8937 46.9817C16.8949 40.0005 16.8906 29.1812 16.8991 29.0427C18.1119 29.9009 27.2831 36.3906 28.6579 37.3635L17.057 47.716ZM21.1065 27.399C21.1062 27.4372 21.1051 27.4752 21.1051 27.5135C21.1051 28.5234 21.2394 29.5305 21.4981 30.5026L17.6031 27.7464C17.8949 27.5292 18.2552 27.3989 18.6461 27.3989H21.1065V27.399ZM18.6462 48.7343C18.487 48.7343 18.3335 48.711 18.1868 48.6711C19.0225 47.9254 30.6512 37.548 31.2793 36.9875C32.0829 36.2703 33.2949 36.2703 34.0985 36.9875L47.191 48.6711C47.0443 48.711 46.8908 48.7343 46.7317 48.7343H18.6462Z" fill="#FB7448"/>
</svg>
