<svg width="44" height="51" viewBox="0 0 44 51" fill="none" xmlns="http://www.w3.org/2000/svg">
<path d="M29.623 27.5433C29.1916 27.5433 28.8418 27.8931 28.8418 28.3245V42.3867H2.2793V8.01172H10.873C11.3045 8.01172 11.6543 7.66191 11.6543 7.23047C11.6543 6.79902 11.3045 6.44922 10.873 6.44922H2.2793V5.66797C2.2793 3.51406 4.03164 1.76172 6.18555 1.76172H24.9355C25.367 1.76172 25.7168 1.41191 25.7168 0.980469C25.7168 0.549023 25.367 0.199219 24.9355 0.199219H6.18555C3.17012 0.199219 0.716797 2.65254 0.716797 5.66797V44.7305C0.716797 47.7459 3.17012 50.1992 6.18555 50.1992H24.9355C27.951 50.1992 30.4043 47.7459 30.4043 44.7305V28.3245C30.4043 27.8931 30.0545 27.5433 29.623 27.5433ZM24.9355 48.6367H6.18555C4.03164 48.6367 2.2793 46.8844 2.2793 44.7305V43.9492H28.8418V44.7305C28.8418 46.8844 27.0895 48.6367 24.9355 48.6367Z" fill="#2A4E96"/>
<path d="M17.123 45.5117H13.998C13.5666 45.5117 13.2168 45.8615 13.2168 46.293C13.2168 46.7244 13.5666 47.0742 13.998 47.0742H17.123C17.5545 47.0742 17.9043 46.7244 17.9043 46.293C17.9043 45.8615 17.5545 45.5117 17.123 45.5117Z" fill="#2A4E96"/>
<path d="M10.3203 3.55273C10.1748 3.69824 10.0918 3.90039 10.0918 4.10547C10.0918 4.31055 10.1748 4.5127 10.3203 4.6582C10.4658 4.80371 10.667 4.88672 10.873 4.88672C11.0791 4.88672 11.2803 4.80371 11.4258 4.6582C11.5713 4.5127 11.6543 4.31152 11.6543 4.10547C11.6543 3.89941 11.5713 3.69824 11.4258 3.55273C11.2803 3.40723 11.0791 3.32422 10.873 3.32422C10.667 3.32422 10.4658 3.40723 10.3203 3.55273Z" fill="#2A4E96"/>
<path d="M17.9043 13.4805H22.5918C23.0232 13.4805 23.373 13.1307 23.373 12.6992C23.373 12.2678 23.0232 11.918 22.5918 11.918H17.9043C17.4729 11.918 17.123 12.2678 17.123 12.6992C17.123 13.1307 17.4729 13.4805 17.9043 13.4805Z" fill="#FB7448"/>
<path d="M38.2168 11.918H25.7168C25.2854 11.918 24.9355 12.2678 24.9355 12.6992C24.9355 13.1307 25.2854 13.4805 25.7168 13.4805H38.2168C38.6482 13.4805 38.998 13.1307 38.998 12.6992C38.998 12.2678 38.6482 11.918 38.2168 11.918Z" fill="#FB7448"/>
<path d="M38.2168 15.8242H33.5293C33.0979 15.8242 32.748 16.174 32.748 16.6055C32.748 17.0369 33.0979 17.3867 33.5293 17.3867H38.2168C38.6482 17.3867 38.998 17.0369 38.998 16.6055C38.998 16.174 38.6482 15.8242 38.2168 15.8242Z" fill="#FB7448"/>
<path d="M17.9043 17.3867H30.4043C30.8357 17.3867 31.1855 17.0369 31.1855 16.6055C31.1855 16.174 30.8357 15.8242 30.4043 15.8242H17.9043C17.4729 15.8242 17.123 16.174 17.123 16.6055C17.123 17.0369 17.4729 17.3867 17.9043 17.3867Z" fill="#FB7448"/>
<path d="M38.2168 8.01172H17.9043C17.4729 8.01172 17.123 8.36152 17.123 8.79297C17.123 9.22441 17.4729 9.57422 17.9043 9.57422H38.2168C38.6482 9.57422 38.998 9.22441 38.998 8.79297C38.998 8.36152 38.6482 8.01172 38.2168 8.01172Z" fill="#FB7448"/>
<path d="M38.2168 19.7305H17.9043C17.4729 19.7305 17.123 20.0803 17.123 20.5117C17.123 20.9432 17.4729 21.293 17.9043 21.293H38.2168C38.6482 21.293 38.998 20.9432 38.998 20.5117C38.998 20.0803 38.6482 19.7305 38.2168 19.7305Z" fill="#FB7448"/>
<path d="M38.2168 3.32422H17.9043C14.8889 3.32422 12.4355 5.77754 12.4355 8.79297V20.5117C12.4355 23.262 14.4763 25.5446 17.123 25.9248V28.7818C17.123 29.4161 17.5017 29.9827 18.0876 30.2254C18.2821 30.306 18.4855 30.3451 18.6872 30.3451C19.093 30.3451 19.4908 30.1863 19.7904 29.8867L23.6967 25.9805H38.2168C41.2322 25.9805 43.6855 23.5271 43.6855 20.5117V8.79297C43.6855 5.77754 41.2322 3.32422 38.2168 3.32422ZM42.123 20.5117C42.123 22.6656 40.3707 24.418 38.2168 24.418H23.373C23.1658 24.418 22.9671 24.5003 22.8206 24.6468L18.6855 28.7812V25.1992C18.6855 24.7678 18.3357 24.418 17.9043 24.418C15.7504 24.418 13.998 22.6656 13.998 20.5117V8.79297C13.998 6.63906 15.7504 4.88672 17.9043 4.88672H38.2168C40.3707 4.88672 42.123 6.63906 42.123 8.79297V20.5117Z" fill="#FB7448"/>
</svg>
