<svg width="51" height="51" viewBox="0 0 51 51" fill="none" xmlns="http://www.w3.org/2000/svg">
<path d="M41.0593 14.2847C40.3334 6.86853 34.4653 1.00044 27.0491 0.274565C18.472 -0.564976 10.8383 5.70761 9.99872 14.2847C4.66138 14.6418 0.515922 19.0777 0.520512 24.4269C0.525394 30.036 5.07632 34.5791 10.6854 34.5743H11.4667V33.0118H10.6854C5.93929 33.001 2.10057 29.1447 2.11131 24.3986C2.12205 19.6525 5.97836 15.8137 10.7245 15.8245C11.1406 15.8251 11.4841 15.4994 11.5057 15.0839C11.8774 7.89918 17.6189 2.15765 24.8036 1.78597C32.5485 1.38539 39.1516 7.33903 39.5523 15.0839C39.5931 15.5057 39.9487 15.8268 40.3726 15.8245C45.1187 15.8245 48.9662 19.672 48.9662 24.4181C48.9662 29.1643 45.1187 33.0118 40.3726 33.0118H39.5913V34.5743H40.3726C45.7219 34.5788 50.1577 30.4335 50.5148 25.096C50.8892 19.4994 46.6559 14.6591 41.0593 14.2847Z" fill="#2A4E96"/>
<path d="M26.3095 44.0479V32.2307H24.747V44.0478C23.3992 44.3946 22.4033 45.6182 22.4033 47.0743C22.4033 48.8001 23.8024 50.1992 25.5283 50.1992C27.2541 50.1992 28.6532 48.8001 28.6532 47.0743C28.6532 45.6182 27.6574 44.3947 26.3095 44.0479ZM25.5283 48.6368C24.6653 48.6368 23.9658 47.9373 23.9658 47.0743C23.9658 46.2113 24.6653 45.5118 25.5283 45.5118C26.3913 45.5118 27.0908 46.2113 27.0908 47.0743C27.0908 47.9373 26.3912 48.6368 25.5283 48.6368Z" fill="#EC595A"/>
<path d="M14.5908 22.0745C12.8649 22.0745 11.4658 23.4736 11.4658 25.1994C11.4658 26.6556 12.4617 27.8791 13.8095 28.226V32.2306H15.372V28.226C16.7199 27.8791 17.7157 26.6556 17.7157 25.1994C17.7157 23.4736 16.3166 22.0745 14.5908 22.0745ZM14.5908 26.7619C13.7278 26.7619 13.0283 26.0624 13.0283 25.1994C13.0283 24.3364 13.7278 23.6369 14.5908 23.6369C15.4538 23.6369 16.1533 24.3364 16.1533 25.1994C16.1533 26.0624 15.4537 26.7619 14.5908 26.7619Z" fill="#EC595A"/>
<path d="M47.4032 40.0429C45.947 40.0429 44.7235 41.0388 44.3766 42.3866H38.0283C37.9818 42.3912 37.9351 42.3912 37.8886 42.3866C37.4958 42.3481 37.2085 41.9983 37.247 41.6054V36.1367H35.6845V41.6054C35.6833 41.6498 35.6833 41.6942 35.6845 41.7386C35.7214 42.9962 36.7707 43.9859 38.0283 43.9491H44.3766C44.7235 45.297 45.947 46.2928 47.4032 46.2928C49.129 46.2928 50.5281 44.8937 50.5281 43.1679C50.5281 41.442 49.129 40.0429 47.4032 40.0429ZM47.4032 44.7304C46.5402 44.7304 45.8407 44.0309 45.8407 43.1679C45.8407 42.3049 46.5402 41.6054 47.4032 41.6054C48.2661 41.6054 48.9656 42.3049 48.9656 43.1679C48.9656 44.0309 48.266 44.7304 47.4032 44.7304Z" fill="#EC595A"/>
<path d="M15.3719 41.6054V33.793H13.8094V41.596C13.8145 41.6436 13.8148 41.6915 13.8103 41.7391C13.7731 42.1339 13.423 42.4237 13.0282 42.3866H6.67981C6.33294 41.0388 5.10942 40.0429 3.65328 40.0429C1.92742 40.0429 0.52832 41.442 0.52832 43.1679C0.52832 44.8937 1.92742 46.2928 3.65328 46.2928C5.10942 46.2928 6.33294 45.2969 6.67981 43.9491H13.0282C13.0726 43.9504 13.1169 43.9504 13.1614 43.9491C14.419 43.9123 15.4087 42.863 15.3719 41.6054ZM3.65328 44.7303C2.79031 44.7303 2.0908 44.0308 2.0908 43.1679C2.0908 42.3049 2.79031 41.6054 3.65328 41.6054C4.51626 41.6054 5.21576 42.3049 5.21576 43.1679C5.21576 44.0308 4.51616 44.7303 3.65328 44.7303Z" fill="#EC595A"/>
<path d="M36.4658 22.0745C34.7399 22.0745 33.3408 23.4736 33.3408 25.1994C33.3408 26.6556 34.3367 27.8791 35.6845 28.226V34.5743H37.247V28.226C38.5949 27.8791 39.5907 26.6556 39.5907 25.1994C39.5907 23.4736 38.1916 22.0745 36.4658 22.0745ZM36.4658 26.7619C35.6028 26.7619 34.9033 26.0624 34.9033 25.1994C34.9033 24.3364 35.6028 23.6369 36.4658 23.6369C37.3288 23.6369 38.0283 24.3364 38.0283 25.1994C38.0283 26.0624 37.3288 26.7619 36.4658 26.7619Z" fill="#EC595A"/>
<path d="M20.6125 27.7719C20.3074 27.467 19.8129 27.467 19.5078 27.7719L17.1641 30.1157L18.2687 31.2203L19.2789 30.2102V39.2617H20.8414V30.2102L21.8515 31.2203L22.9562 30.1157L20.6125 27.7719Z" fill="#EC595A"/>
<path d="M32.788 38.7095L31.7779 39.7197V30.6682H30.2154V39.7197L29.2053 38.7095L28.1006 39.8142L30.4443 42.1579C30.5908 42.3044 30.7894 42.3868 30.9966 42.3868C31.2039 42.3868 31.4025 42.3044 31.549 42.1579L33.8927 39.8142L32.788 38.7095Z" fill="#EC595A"/>
<path d="M25.5283 17.387C23.8024 17.387 22.4033 18.7861 22.4033 20.5119C22.4033 21.9681 23.3992 23.1916 24.747 23.5385V30.6681H26.3095V23.5385C27.6574 23.1916 28.6532 21.9681 28.6532 20.5119C28.6532 18.7861 27.2541 17.387 25.5283 17.387ZM25.5283 22.0744C24.6653 22.0744 23.9658 21.3749 23.9658 20.5119C23.9658 19.6489 24.6653 18.9494 25.5283 18.9494C26.3913 18.9494 27.0908 19.6489 27.0908 20.5119C27.0908 21.3749 26.3913 22.0744 25.5283 22.0744Z" fill="#EC595A"/>
</svg>
