<svg width="41" height="51" viewBox="0 0 41 51" fill="none" xmlns="http://www.w3.org/2000/svg">
<path d="M40.1614 50.1994H0.896193C0.705646 50.1994 0.522903 50.1237 0.388166 49.9889C0.253429 49.8542 0.177734 49.6715 0.177734 49.4809V37.4316C0.177734 37.2411 0.253429 37.0584 0.388166 36.9236C0.522903 36.7889 0.705646 36.7132 0.896193 36.7132H9.23462V32.8529C9.23462 32.6624 9.31032 32.4796 9.44506 32.3449C9.57979 32.2101 9.76254 32.1345 9.95308 32.1345H19.5855V27.5514C19.5855 27.3609 19.6611 27.1781 19.7959 27.0434C19.9306 26.9086 20.1134 26.8329 20.3039 26.8329H28.9592V22.0085C28.9592 21.818 29.0349 21.6352 29.1696 21.5005C29.3044 21.3657 29.4871 21.29 29.6776 21.29H40.1614C40.3519 21.29 40.5347 21.3657 40.6694 21.5005C40.8042 21.6352 40.8798 21.818 40.8798 22.0085V49.4809C40.8798 49.6715 40.8042 49.8542 40.6694 49.9889C40.5347 50.1237 40.3519 50.1994 40.1614 50.1994ZM1.61465 48.7625H39.4429V22.727H30.3961V27.5514C30.3961 27.742 30.3204 27.9247 30.1857 28.0594C30.0509 28.1942 29.8682 28.2699 29.6776 28.2699H21.0224V32.8529C21.0224 33.0435 20.9467 33.2262 20.8119 33.3609C20.6772 33.4957 20.4945 33.5714 20.3039 33.5714H10.6715V37.4316C10.6715 37.6222 10.5958 37.8049 10.4611 37.9397C10.3264 38.0744 10.1436 38.1501 9.95308 38.1501H1.61465V48.7625Z" fill="#EC595A"/>
<path d="M3.6995 36.4581C3.24811 36.4571 2.80605 36.3296 2.42342 36.0901C2.04079 35.8506 1.73289 35.5088 1.53462 35.1033C1.33635 34.6978 1.25564 34.2448 1.30164 33.7958C1.34764 33.3467 1.5185 32.9196 1.79486 32.5627L6.38294 26.251L7.78465 14.7255L6.6617 15.2205L5.23556 17.7243C4.96624 18.2095 4.5161 18.5687 3.98319 18.7235C3.45028 18.8784 2.87778 18.8163 2.39038 18.551C1.90299 18.2856 1.54019 17.8384 1.38101 17.3068C1.22183 16.7752 1.27917 16.2022 1.54053 15.7127L3.49402 11.9558C3.70533 11.549 4.02641 11.2095 4.42083 10.9759L8.67626 8.45622C9.11028 8.20079 9.59735 8.04885 10.0996 8.01222C10.6019 7.97559 11.1059 8.05524 11.5724 8.245L15.6079 9.89745C16.1971 10.1378 16.7025 10.546 17.0614 11.0714L18.466 13.1219L21.3096 12.2949C21.8441 12.1443 22.4162 12.207 22.9053 12.4699C23.3944 12.7328 23.7623 13.1754 23.9315 13.7043C24.1007 14.2332 24.0579 14.8071 23.8122 15.3051C23.5665 15.803 23.137 16.1861 22.6144 16.3736L18.7605 17.7157C18.3497 17.8572 17.9086 17.8873 17.4823 17.803C17.056 17.7187 16.6597 17.523 16.3336 17.2358L15.6654 16.6466L15.4405 18.8631C16.4889 19.4101 17.3494 20.2584 17.9114 21.2988C18.4734 22.3392 18.7111 23.5239 18.5939 24.7006L18.1003 31.2385C18.0756 31.5608 17.9871 31.875 17.8401 32.1628C17.6931 32.4507 17.4904 32.7065 17.2439 32.9155C16.9973 33.1244 16.7116 33.2823 16.4036 33.3801C16.0955 33.4779 15.7711 33.5135 15.4491 33.485C15.1272 33.4565 14.8141 33.3644 14.528 33.214C14.2419 33.0636 13.9885 32.8579 13.7825 32.6088C13.5764 32.3598 13.4219 32.0723 13.3278 31.7631C13.2336 31.4539 13.2018 31.1291 13.2342 30.8075L13.6652 24.9161C13.6826 24.7482 13.6508 24.5789 13.5739 24.4287C13.497 24.2784 13.3781 24.1537 13.2318 24.0696C13.0854 23.9855 12.9178 23.9457 12.7493 23.9549C12.5808 23.9641 12.4185 24.022 12.2822 24.1215C12.1871 24.1904 12.107 24.2779 12.0467 24.3786C11.9865 24.4794 11.9473 24.5914 11.9316 24.7078L11.5602 27.5507C11.4898 28.0692 11.271 28.5562 10.9301 28.9531L5.55168 35.6053C5.32261 35.8725 5.03851 36.0871 4.71883 36.2342C4.39915 36.3814 4.05144 36.4578 3.6995 36.4581ZM8.65039 12.8388C8.7521 12.8388 8.85266 12.8603 8.94542 12.9021C9.03817 12.9438 9.12101 13.0047 9.18845 13.0809C9.25589 13.157 9.3064 13.2466 9.33663 13.3437C9.36686 13.4408 9.37613 13.5433 9.36382 13.6442L7.78322 26.6081C7.7687 26.7296 7.72318 26.8454 7.65102 26.9443L2.94009 33.4234C2.85655 33.5285 2.79525 33.6495 2.75993 33.7791C2.72461 33.9087 2.71599 34.044 2.73461 34.177C2.75125 34.3061 2.79366 34.4304 2.85932 34.5428C2.92498 34.6551 3.01255 34.753 3.11683 34.8308C3.31627 34.9798 3.56467 35.0477 3.81214 35.0211C4.05962 34.9944 4.28785 34.8751 4.451 34.6871L9.82076 28.0443L9.83657 28.0256C9.99873 27.8386 10.1029 27.6084 10.1362 27.3632L10.5083 24.5202C10.55 24.2122 10.6534 23.9157 10.8124 23.6486C10.9714 23.3815 11.1827 23.1493 11.4336 22.9658C11.6845 22.7823 11.9699 22.6514 12.2726 22.5808C12.5753 22.5103 12.8892 22.5016 13.1954 22.5553C13.7643 22.6578 14.2746 22.9689 14.6264 23.4277C14.9783 23.8865 15.1464 24.46 15.0978 25.0361L14.6668 30.9275C14.6419 31.1896 14.7208 31.451 14.8866 31.6556C15.0524 31.8602 15.2918 31.9916 15.5533 32.0217C15.6865 32.0371 15.8214 32.0257 15.9501 31.9882C16.0788 31.9508 16.1987 31.888 16.3028 31.8035C16.4069 31.719 16.493 31.6146 16.5562 31.4964C16.6193 31.3781 16.6582 31.2484 16.6705 31.115L17.1641 24.577C17.2624 23.6318 17.0579 22.6797 16.5801 21.8582C16.1024 21.0367 15.376 20.3882 14.5058 20.0062L14.4153 19.9688C14.2683 19.9121 14.1441 19.8087 14.0616 19.6745C13.9792 19.5402 13.9432 19.3826 13.9591 19.2259L14.3772 15.1056C14.3906 14.9741 14.44 14.8489 14.5199 14.7437C14.5999 14.6385 14.7073 14.5574 14.8303 14.5093C14.9534 14.4612 15.0873 14.4479 15.2174 14.471C15.3475 14.494 15.4687 14.5525 15.5677 14.64L17.2841 16.1552C17.4194 16.2741 17.5836 16.3551 17.7603 16.3901C17.9369 16.425 18.1196 16.4126 18.29 16.3542L22.1438 15.0122C22.3162 14.9505 22.4579 14.8242 22.5389 14.66C22.62 14.4958 22.634 14.3065 22.578 14.1322C22.522 13.9578 22.4005 13.8121 22.239 13.7257C22.0775 13.6393 21.8888 13.6191 21.7127 13.6694L18.3647 14.6422C18.2198 14.6837 18.0656 14.6787 17.9237 14.6277C17.7819 14.5768 17.6597 14.4826 17.5744 14.3584L15.8759 11.8782C15.6751 11.5848 15.3925 11.3568 15.0634 11.2223L11.0278 9.56983C10.7671 9.46349 10.4853 9.41885 10.2045 9.43942C9.92374 9.45998 9.6515 9.54519 9.40909 9.68838L5.15581 12.2123C4.99217 12.3092 4.859 12.4501 4.77144 12.619L2.81795 16.3751C2.73991 16.5299 2.72517 16.709 2.77684 16.8744C2.82851 17.0399 2.94254 17.1788 3.0948 17.2617C3.24705 17.3446 3.42559 17.365 3.59262 17.3186C3.75966 17.2722 3.90208 17.1626 3.98975 17.0131L5.533 14.3038C5.60935 14.1699 5.72673 14.0641 5.8678 14.002L8.36373 12.9013C8.45397 12.861 8.55156 12.8397 8.65039 12.8388Z" fill="#2A4E96"/>
<path d="M15.1045 9.11612C13.9462 9.11542 12.8336 8.664 12.0023 7.85742C11.171 7.05084 10.6862 5.95241 10.6506 4.79466C10.6149 3.63691 11.0312 2.51072 11.8112 1.6545C12.5913 0.798273 13.674 0.279226 14.8301 0.207233C16.0088 0.136499 17.1674 0.536216 18.0517 1.31869C18.9361 2.10115 19.4739 3.20247 19.5473 4.38101C19.6206 5.55955 19.2235 6.71906 18.443 7.60515C17.6625 8.49123 16.5624 9.03153 15.384 9.1075C15.2906 9.11324 15.1972 9.11612 15.1045 9.11612ZM14.9192 1.64415C14.3226 1.68126 13.7505 1.89444 13.2751 2.25672C12.7997 2.619 12.4425 3.11412 12.2485 3.67945C12.0545 4.24479 12.0326 4.85495 12.1854 5.43277C12.3382 6.01058 12.6589 6.53011 13.107 6.92564C13.5551 7.32117 14.1104 7.57494 14.7027 7.65486C15.2951 7.73477 15.8978 7.63724 16.4347 7.37461C16.9716 7.11197 17.4185 6.69601 17.719 6.17935C18.0195 5.66269 18.16 5.06853 18.1228 4.472C18.1011 4.07494 18.0006 3.68616 17.8272 3.32829C17.6539 2.97041 17.4111 2.65059 17.1129 2.38744C16.8148 2.12428 16.4673 1.92304 16.0907 1.79544C15.7141 1.66783 15.3158 1.61641 14.9192 1.64415Z" fill="#2A4E96"/>
</svg>
