<svg width="52" height="51" viewBox="0 0 52 51" fill="none" xmlns="http://www.w3.org/2000/svg">
<path d="M10.5667 4.2274H15.9227V2.63281C15.9227 1.96326 16.195 1.35496 16.6367 0.913165C17.0756 0.474213 17.6839 0.199219 18.3563 0.199219C19.0258 0.199219 19.6343 0.474311 20.0731 0.913165C20.5148 1.35496 20.7898 1.96326 20.7898 2.63281V4.2274H26.1431V2.63281C26.1431 1.96326 26.4182 1.35496 26.857 0.913165C27.2987 0.474213 27.9071 0.199219 28.5766 0.199219C29.2461 0.199219 29.8545 0.474311 30.2963 0.913165C30.738 1.35496 31.0103 1.96326 31.0103 2.63281V4.2274H36.3662V2.65221C36.3662 1.98276 36.6385 1.37427 37.0801 0.93257C37.519 0.493715 38.1274 0.218721 38.7999 0.218721C39.4693 0.218721 40.0777 0.493715 40.5167 0.93257C40.9585 1.37427 41.2335 1.98276 41.2335 2.65221V4.2274H42.0392C43.1754 4.2274 44.206 4.69125 44.9533 5.43587C45.7005 6.18314 46.1645 7.21383 46.1645 8.34987V16.009C46.1645 16.4147 45.8339 16.7452 45.4283 16.7452C45.0226 16.7452 44.6921 16.4147 44.6921 16.009V13.8893H25.1318C24.7234 13.8893 24.3956 13.5615 24.3956 13.156C24.3956 12.7476 24.7234 12.4198 25.1318 12.4198H44.6921V8.34997C44.6921 7.61936 44.3948 6.95824 43.9141 6.47754C43.4307 5.99419 42.7696 5.69695 42.039 5.69695H41.2333V7.26939C41.2333 7.93885 40.9583 8.54724 40.5165 8.98894C40.0775 9.43064 39.4692 9.70289 38.7997 9.70289C38.1273 9.70289 37.5189 9.43064 37.0799 8.98894C36.6383 8.54724 36.366 7.93885 36.366 7.26939V5.69695H31.0101V7.24989C31.0101 7.91944 30.7378 8.52774 30.2961 8.96954C29.8543 9.40849 29.2459 9.68348 28.5764 9.68348C27.9069 9.68348 27.2985 9.40839 26.8568 8.96954C26.4179 8.52774 26.1429 7.91944 26.1429 7.24989V5.69695H20.7896V7.24989C20.7896 7.91944 20.5146 8.52774 20.0729 8.96954C19.634 9.40849 19.0256 9.68348 18.3561 9.68348C17.6838 9.68348 17.0754 9.40839 16.6365 8.96954C16.1948 8.52774 15.9225 7.91944 15.9225 7.24989V5.69695H10.5667V7.24989C10.5667 7.91944 10.2916 8.52774 9.85277 8.96954C9.41108 9.40849 8.80268 9.68348 8.13313 9.68348C7.46368 9.68348 6.85518 9.40839 6.41348 8.96954C5.97453 8.52774 5.69954 7.91944 5.69954 7.24989V5.69695H4.89112C4.16325 5.69695 3.49929 5.99419 3.01878 6.47754C2.53818 6.95814 2.2381 7.61926 2.2381 8.34997V12.4199H21.8012C22.2068 12.4199 22.5374 12.7477 22.5374 13.1561C22.5374 13.5617 22.2068 13.8894 21.8012 13.8894H2.2382V35.5943C2.2382 35.9999 1.91038 36.3277 1.50485 36.3277C1.09921 36.3277 0.768653 35.9998 0.768653 35.5943V8.34997C0.768555 7.21383 1.2325 6.18314 1.97976 5.43587C2.72703 4.69125 3.75772 4.2274 4.89112 4.2274H5.69954V2.63281C5.69954 1.96326 5.97179 1.35496 6.41348 0.913165C6.85518 0.474213 7.46368 0.199219 8.13313 0.199219C8.80268 0.199219 9.41098 0.474311 9.85277 0.913165C10.2917 1.35496 10.5667 1.96326 10.5667 2.63281V4.2274ZM39.8585 32.7968C39.8585 32.3912 40.1863 32.0635 40.5919 32.0635C41.0002 32.0635 41.3281 32.3913 41.3281 32.7968V39.2697C41.3281 39.4697 41.2502 39.6475 41.1197 39.7809L36.6276 45.0646C36.3664 45.3759 35.9053 45.4147 35.5941 45.1508C35.2858 44.8897 35.2468 44.4286 35.508 44.1174L39.8585 39.003V32.7968ZM35.3776 32.0773C35.0469 32.3162 34.5885 32.2412 34.3525 31.9134C34.1135 31.5855 34.1857 31.1273 34.5163 30.8883C35.3831 30.2577 36.3526 29.7604 37.3972 29.4215C38.4057 29.0936 39.4808 28.9158 40.5921 28.9158C42.0505 28.9158 43.4368 29.2159 44.6925 29.7604V19.3372C44.6925 18.9316 45.023 18.6037 45.4287 18.6037C45.8343 18.6037 46.1649 18.9317 46.1649 19.3372V30.541C46.7982 30.9466 47.3844 31.4189 47.915 31.9495C49.7873 33.8219 50.9457 36.411 50.9457 39.2697C50.9457 42.1283 49.7873 44.7174 47.9148 46.5899C46.0396 48.4651 43.4533 49.6235 40.5919 49.6235C37.7332 49.6235 35.1469 48.4651 33.2717 46.5899C32.5606 45.8786 31.9522 45.0645 31.4716 44.1702H4.59113C3.53829 44.1702 2.58258 43.7424 1.89088 43.0506C1.19918 42.3562 0.768555 41.4032 0.768555 40.3503V38.9225C0.768555 38.5168 1.09921 38.1892 1.50475 38.1892C1.91028 38.1892 2.2381 38.5169 2.2381 38.9225V40.3503C2.2381 40.9948 2.50476 41.5838 2.9299 42.0088C3.35768 42.4366 3.94393 42.7006 4.59113 42.7006H30.8215C30.4437 41.6283 30.2381 40.4727 30.2381 39.2697C30.2381 38.2141 30.3993 37.1916 30.6966 36.225C31.0049 35.2277 31.4578 34.2943 32.03 33.4525C32.2577 33.1163 32.7161 33.0302 33.0494 33.2581C33.3828 33.4859 33.4689 33.9442 33.2411 34.2776C32.7494 35.0027 32.3606 35.8027 32.0965 36.6557C31.8465 37.478 31.7105 38.3559 31.7105 39.2698C31.7105 41.7229 32.7049 43.9453 34.3106 45.5509C35.9191 47.1594 38.1388 48.154 40.5919 48.154C43.0449 48.154 45.2673 47.1594 46.8757 45.5509C48.4815 43.9453 49.4761 41.7229 49.4761 39.2698C49.4761 36.8168 48.4815 34.5943 46.8757 32.9886C45.2673 31.3801 43.0449 30.3856 40.5919 30.3856C39.6335 30.3856 38.7112 30.5385 37.8499 30.8162C36.9554 31.1078 36.122 31.5356 35.3776 32.0773ZM32.1605 17.0091H40.8391C41.2448 17.0091 41.5754 17.337 41.5754 17.7425V26.4212C41.5754 26.8296 41.2448 27.1574 40.8391 27.1574H32.1605C31.7549 27.1574 31.4243 26.8296 31.4243 26.4212V17.7425C31.4244 17.337 31.755 17.0091 32.1605 17.0091ZM40.1058 18.4787H32.8967V25.6878H40.1058V18.4787ZM19.1258 29.4327H27.8045C28.2129 29.4327 28.5407 29.7633 28.5407 30.1689V38.8475C28.5407 39.2531 28.2129 39.5837 27.8045 39.5837H19.1258C18.7202 39.5837 18.3925 39.2531 18.3925 38.8475V30.1689C18.3925 29.7633 18.7203 29.4327 19.1258 29.4327ZM27.0712 30.905H19.8621V38.1141H27.0712V30.905ZM19.1258 17.0091H27.8045C28.2129 17.0091 28.5407 17.337 28.5407 17.7425V26.4212C28.5407 26.8296 28.2129 27.1574 27.8045 27.1574H19.1258C18.7202 27.1574 18.3925 26.8296 18.3925 26.4212V17.7425C18.3925 17.337 18.7203 17.0091 19.1258 17.0091ZM27.0712 18.4787H19.8621V25.6878H27.0712V18.4787ZM6.09125 29.4327H14.7726C15.1782 29.4327 15.506 29.7633 15.506 30.1689V38.8475C15.506 39.2531 15.1782 39.5837 14.7726 39.5837H6.09125C5.68562 39.5837 5.3579 39.2531 5.3579 38.8475V30.1689C5.3579 29.7633 5.68572 29.4327 6.09125 29.4327ZM14.0365 30.905H6.82745V38.1141H14.0365V30.905ZM6.09125 17.0091H14.7726C15.1782 17.0091 15.506 17.337 15.506 17.7425V26.4212C15.506 26.8296 15.1782 27.1574 14.7726 27.1574H6.09125C5.68562 27.1574 5.3579 26.8296 5.3579 26.4212V17.7425C5.3579 17.337 5.68572 17.0091 6.09125 17.0091ZM14.0365 18.4787H6.82745V25.6878H14.0365V18.4787ZM38.8001 1.69101C38.5362 1.69101 38.2944 1.7993 38.1194 1.97433C37.9444 2.14937 37.836 2.38839 37.836 2.65221V4.96085V7.26949C37.836 7.53331 37.9443 7.77499 38.1194 7.95002C38.2944 8.12505 38.5362 8.23344 38.8001 8.23344C39.0639 8.23344 39.3029 8.12515 39.4779 7.95002C39.6529 7.77499 39.7613 7.53331 39.7613 7.26949V4.96085V2.65221C39.7613 2.38839 39.653 2.14937 39.4779 1.97433C39.3029 1.7994 39.064 1.69101 38.8001 1.69101ZM8.81385 1.95218C8.63882 1.77725 8.39715 1.66886 8.13323 1.66886C7.8694 1.66886 7.62763 1.77715 7.4526 1.95218C7.27757 2.12722 7.16928 2.36889 7.16928 2.63281V4.96085V7.24999C7.16928 7.51391 7.27757 7.75558 7.4526 7.93061C7.62763 8.10555 7.8694 8.21394 8.13323 8.21394C8.39715 8.21394 8.63882 8.10565 8.81385 7.93061C8.98888 7.75558 9.09718 7.51391 9.09718 7.24999V4.96085V2.63281C9.09718 2.36879 8.98879 2.12722 8.81385 1.95218ZM18.3564 1.66886C18.0897 1.66886 17.8508 1.77715 17.6758 1.95218C17.5008 2.12722 17.3925 2.36889 17.3925 2.63281V4.96085V7.24999C17.3925 7.51391 17.5008 7.75558 17.6758 7.93061C17.8508 8.10555 18.0898 8.21394 18.3564 8.21394C18.6203 8.21394 18.8592 8.10565 19.0342 7.93061C19.2092 7.75558 19.3176 7.51391 19.3176 7.24999V4.96085V2.63281C19.3176 2.36889 19.2093 2.12722 19.0342 1.95218C18.8592 1.77715 18.6203 1.66886 18.3564 1.66886ZM28.5768 1.66886C28.313 1.66886 28.0712 1.77715 27.8963 1.95218C27.7212 2.12722 27.6128 2.36889 27.6128 2.63281V4.96085V7.24999C27.6128 7.51391 27.7211 7.75558 27.8963 7.93061C28.0712 8.10555 28.313 8.21394 28.5768 8.21394C28.8407 8.21394 29.0824 8.10565 29.2574 7.93061C29.4324 7.75558 29.5408 7.51391 29.5408 7.24999V4.96085V2.63281C29.5408 2.36889 29.4325 2.12722 29.2574 1.95218C29.0824 1.77715 28.8407 1.66886 28.5768 1.66886Z" fill="#2A4E96"/>
<path d="M35.0708 31.3939C36.9999 30.0224 39.3708 29.4192 41.7208 29.7021C44.0707 29.9849 46.2309 31.1335 47.7795 32.9235C49.3281 34.7135 50.1539 37.0164 50.0957 39.3826C50.0375 41.7488 49.0994 44.0083 47.4647 45.72C45.83 47.4317 43.616 48.4727 41.255 48.6397C38.894 48.8066 36.5555 48.0876 34.6962 46.623C32.8368 45.1583 31.5902 43.0533 31.1996 40.7188C30.8089 38.3844 31.3025 35.9882 32.5837 33.998" stroke="#FB7448" stroke-width="2" stroke-linecap="round" stroke-linejoin="round"/>
<path d="M40.4376 33.0054V38.7989C40.4376 39.0223 40.3629 39.2392 40.2253 39.4151L36.2881 44.4482" stroke="#FB7448" stroke-width="2" stroke-linecap="round"/>
</svg>
