<svg width="51" height="51" viewBox="0 0 51 51" fill="none" xmlns="http://www.w3.org/2000/svg">
<path d="M29.6285 9.65339C30.4201 8.65755 30.8968 7.40089 30.8968 6.03255C30.8968 2.81589 28.2801 0.199219 25.0635 0.199219C21.8468 0.199219 19.2301 2.81589 19.2301 6.03255C19.2301 7.40089 19.7068 8.65755 20.4985 9.65339C17.2051 11.3492 15.0635 14.7734 15.0635 18.5326V21.0326C15.0635 21.4926 15.4368 21.8659 15.8968 21.8659H34.2301C34.6901 21.8659 35.0635 21.4926 35.0635 21.0326V18.5326C35.0635 14.7734 32.9218 11.3492 29.6285 9.65339ZM25.0635 1.86589C27.361 1.86589 29.2301 3.73505 29.2301 6.03255C29.2301 7.40589 28.5535 8.61672 27.5251 9.37672C27.4268 9.44922 27.326 9.51672 27.2226 9.57922C27.1226 9.64088 27.0176 9.69505 26.9118 9.74838C26.776 9.81505 26.6393 9.87922 26.4985 9.93005C26.4368 9.95255 26.3718 9.96922 26.3085 9.98922C25.5001 10.2367 24.6285 10.2367 23.8193 9.98922C23.756 9.96922 23.691 9.95339 23.6293 9.93005C23.4876 9.87922 23.3518 9.81505 23.216 9.74838C23.1101 9.69588 23.006 9.64088 22.9051 9.57922C22.8018 9.51672 22.701 9.44922 22.6026 9.37672C21.5735 8.61672 20.8968 7.40589 20.8968 6.03255C20.8968 3.73505 22.766 1.86589 25.0635 1.86589ZM33.3968 20.1992H16.7301V18.5326C16.7301 15.1951 18.7535 12.1701 21.8085 10.8709C22.0451 11.0309 22.2976 11.1684 22.5576 11.2926C22.5593 11.2934 22.5601 11.2942 22.5618 11.2951C23.321 11.6567 24.1676 11.8659 25.0635 11.8659C25.9593 11.8659 26.806 11.6567 27.5651 11.2942C27.5668 11.2934 27.5676 11.2926 27.5693 11.2917C27.8293 11.1676 28.0818 11.0301 28.3185 10.8701C31.3735 12.1701 33.3968 15.1951 33.3968 18.5326V20.1992Z" fill="#2A4E96"/>
<path d="M25.8968 28.1325V23.5325H24.2301V28.1325L20.376 31.215L21.4176 32.5166L25.0635 29.6L28.7093 32.5166L29.751 31.215L25.8968 28.1325Z" fill="#2A4E96"/>
<path d="M25.8971 16.866H24.2305V18.5326H25.8971V16.866Z" fill="#2A4E96"/>
<path d="M25.8971 13.5325H24.2305V15.1991H25.8971V13.5325Z" fill="#2A4E96"/>
<path d="M14.6285 37.9866C15.4201 36.9908 15.8968 35.7341 15.8968 34.3658C15.8968 31.1491 13.2801 28.5325 10.0635 28.5325C6.84681 28.5325 4.23014 31.1491 4.23014 34.3658C4.23014 35.7341 4.70681 36.9908 5.49848 37.9866C2.20514 39.6825 0.0634766 43.1066 0.0634766 46.8658V49.3658C0.0634766 49.8258 0.43681 50.1991 0.89681 50.1991H19.2301C19.6901 50.1991 20.0635 49.8258 20.0635 49.3658V46.8658C20.0635 43.1066 17.9218 39.6825 14.6285 37.9866ZM10.0635 30.1991C12.361 30.1991 14.2301 32.0683 14.2301 34.3658C14.2301 35.7391 13.5535 36.95 12.5251 37.71C12.4268 37.7825 12.326 37.85 12.2226 37.9125C12.1226 37.9741 12.0176 38.0283 11.9118 38.0816C11.776 38.1483 11.6393 38.2125 11.4985 38.2633C11.4368 38.2858 11.3718 38.3025 11.3085 38.3225C10.5001 38.57 9.62848 38.57 8.81931 38.3225C8.75598 38.3025 8.69098 38.2866 8.62931 38.2633C8.48764 38.2125 8.35181 38.1483 8.21598 38.0816C8.11014 38.0291 8.00598 37.9741 7.90514 37.9125C7.80181 37.85 7.70098 37.7825 7.60264 37.71C6.57348 36.95 5.89681 35.7391 5.89681 34.3658C5.89681 32.0683 7.76598 30.1991 10.0635 30.1991ZM18.3968 48.5325H1.73014V46.8658C1.73014 43.5283 3.75348 40.5033 6.80848 39.2041C7.04514 39.3641 7.29764 39.5016 7.55764 39.6258C7.55931 39.6266 7.56014 39.6275 7.56181 39.6283C8.32098 39.99 9.16764 40.1991 10.0635 40.1991C10.9593 40.1991 11.806 39.99 12.5651 39.6275C12.5668 39.6266 12.5676 39.6258 12.5693 39.625C12.8293 39.5008 13.0818 39.3633 13.3185 39.2033C16.3735 40.5033 18.3968 43.5283 18.3968 46.8658V48.5325Z" fill="#FB7448"/>
<path d="M44.6285 37.9866C45.4201 36.9908 45.8968 35.7341 45.8968 34.3658C45.8968 31.1491 43.2801 28.5325 40.0635 28.5325C36.8468 28.5325 34.2301 31.1491 34.2301 34.3658C34.2301 35.7341 34.7068 36.9908 35.4985 37.9866C32.2051 39.6825 30.0635 43.1066 30.0635 46.8658V49.3658C30.0635 49.8258 30.4368 50.1991 30.8968 50.1991H49.2301C49.6901 50.1991 50.0635 49.8258 50.0635 49.3658V46.8658C50.0635 43.1066 47.9218 39.6825 44.6285 37.9866ZM40.0635 30.1991C42.361 30.1991 44.2301 32.0683 44.2301 34.3658C44.2301 35.7391 43.5535 36.95 42.5251 37.71C42.4268 37.7825 42.326 37.85 42.2226 37.9125C42.1226 37.9741 42.0176 38.0283 41.9118 38.0816C41.776 38.1483 41.6393 38.2125 41.4985 38.2633C41.4368 38.2858 41.3718 38.3025 41.3085 38.3225C40.5001 38.57 39.6285 38.57 38.8193 38.3225C38.756 38.3025 38.691 38.2866 38.6293 38.2633C38.4876 38.2125 38.3518 38.1483 38.216 38.0816C38.1101 38.0291 38.006 37.9741 37.9051 37.9125C37.8018 37.85 37.701 37.7825 37.6026 37.71C36.5735 36.95 35.8968 35.7391 35.8968 34.3658C35.8968 32.0683 37.766 30.1991 40.0635 30.1991ZM48.3968 48.5325H31.7301V46.8658C31.7301 43.5283 33.7535 40.5033 36.8085 39.2041C37.0451 39.3641 37.2976 39.5016 37.5576 39.6258C37.5593 39.6266 37.5601 39.6275 37.5618 39.6283C38.321 39.99 39.1676 40.1991 40.0635 40.1991C40.9593 40.1991 41.806 39.99 42.5651 39.6275C42.5668 39.6266 42.5676 39.6258 42.5693 39.625C42.8293 39.5008 43.0818 39.3633 43.3185 39.2033C46.3735 40.5033 48.3968 43.5283 48.3968 46.8658V48.5325Z" fill="#FB7448"/>
<path d="M40.8971 41.866H39.2305V43.5326H40.8971V41.866Z" fill="#FB7448"/>
<path d="M40.8971 45.1992H39.2305V46.8659H40.8971V45.1992Z" fill="#FB7448"/>
<path d="M10.8971 41.866H9.23047V43.5326H10.8971V41.866Z" fill="#FB7448"/>
<path d="M10.8971 45.1992H9.23047V46.8659H10.8971V45.1992Z" fill="#FB7448"/>
</svg>
