<svg width="92" height="290" viewBox="0 0 92 290" fill="none" xmlns="http://www.w3.org/2000/svg">
<g opacity="0.3">
<mask id="mask0_2742_3471" style="mask-type:alpha" maskUnits="userSpaceOnUse" x="0" y="0" width="92" height="290">
<rect width="288.995" height="91.7794" transform="matrix(-4.37114e-08 1 1 4.37114e-08 0.220703 0.446045)" fill="#C4C4C4"/>
</mask>
<g mask="url(#mask0_2742_3471)">
<path d="M6.59257 192.42C6.36693 191.997 6.11279 190.503 6.11279 190.503C6.08429 189.432 6.70423 188.558 7.97262 187.881C9.24101 187.204 11.2148 188.866 11.469 190.36C12.6257 193.546 8.1436 194.308 6.59257 192.42Z" fill="#171717"/>
<path d="M87.7313 18.7386C88.1541 18.5129 89.6767 19.33 89.6767 19.33C90.9735 19.7243 91.002 20.7956 91.0305 21.8668C90.8619 23.5865 88.5223 24.2919 86.9997 23.4748C83.9832 22.9119 85.1661 19.0212 87.7313 18.7386Z" fill="#171717"/>
<path d="M34.5845 92.1898C34.8102 92.6126 35.0643 94.1066 35.0643 94.1066C35.0928 95.1779 34.4729 96.052 33.2045 96.7289C31.9361 97.4058 29.9623 95.7432 29.7081 94.2491C28.5514 91.0639 33.0335 90.3015 34.5845 92.1898Z" fill="#171717"/>
<path d="M73.8427 44.621C73.617 44.1982 72.9401 42.9298 72.9401 42.9298C72.686 41.4358 73.5316 40.9845 74.1515 40.1104C75.1942 39.0107 77.5909 40.4477 78.0707 42.3646C79.8473 44.6757 75.8165 46.2837 73.8427 44.621Z" fill="#171717"/>
<path d="M81.038 170.069C80.8124 169.646 80.9811 167.926 80.9811 167.926C81.3754 166.629 82.221 166.178 83.0665 165.727C84.5606 165.473 86.1116 167.361 85.943 169.081C86.6769 172.491 81.7435 172.408 81.038 170.069Z" fill="#171717"/>
<path d="M53.8181 113.976L55.5663 115.216C56.4404 115.836 56.4689 116.908 56.0746 118.204C55.9059 119.924 53.115 119.784 51.5925 118.967C48.9702 117.107 51.2243 113.188 53.8181 113.976Z" fill="#171717"/>
<path d="M59.1284 160.576C58.9027 160.154 59.297 158.857 59.0714 158.434C59.4657 157.137 60.3113 156.686 61.3825 156.657C62.8766 156.403 64.0048 158.517 63.8361 160.237C64.3444 163.225 59.8338 162.916 59.1284 160.576Z" fill="#171717"/>
<path d="M35.0323 173.439L33.7069 171.973C33.03 170.705 33.2272 170.056 34.2699 168.957C35.087 167.434 37.6808 168.223 38.7805 169.265C40.5572 171.577 37.2033 174.453 35.0323 173.439Z" fill="#171717"/>
<path d="M54.3636 53.9306C54.1379 53.5078 55.1807 52.408 54.955 51.9852C55.575 51.1111 56.6462 51.0826 57.7175 51.0541C59.4371 51.2228 59.7198 53.7881 58.9027 55.3106C57.9169 58.5528 53.9978 56.2987 54.3636 53.9306Z" fill="#171717"/>
<path d="M74.0352 229.213C74.458 228.988 75.952 228.734 75.952 228.734C77.0233 228.705 78.123 229.748 78.5743 230.593C79.4769 232.285 77.5885 233.836 75.6717 234.315C72.9093 235.246 72.1469 230.764 74.0352 229.213Z" fill="#171717"/>
<path d="M65.6608 132.102C65.4352 131.68 65.6038 129.96 65.6038 129.96C65.9981 128.663 66.8437 128.212 67.915 128.183C69.409 127.929 70.5372 130.043 70.3686 131.763C71.1025 135.174 66.5919 134.865 65.6608 132.102Z" fill="#171717"/>
<path d="M34.3115 227.058L35.6369 228.523C36.3139 229.792 36.1167 230.44 35.7224 231.737C34.9053 233.26 32.5372 232.894 31.2118 231.428C29.0123 229.343 32.1406 226.044 34.3115 227.058Z" fill="#171717"/>
<path d="M31.9514 154.438L30.7115 156.186C30.0915 157.06 29.0203 157.089 27.7234 156.694C26.4265 156.3 26.1439 153.735 26.961 152.212C28.8208 149.59 32.3172 152.07 31.9514 154.438Z" fill="#171717"/>
<path d="M79.7626 251.147C79.9882 251.57 80.2424 253.064 80.2424 253.064C80.4965 254.558 79.6509 255.009 78.3825 255.686C77.1141 256.363 75.366 255.123 74.4634 253.432C73.9551 250.444 78.2116 249.259 79.7626 251.147Z" fill="#171717"/>
<path d="M61.3103 97.4833C60.8875 97.709 59.1678 97.5403 59.1678 97.5403C57.8709 97.146 57.8424 96.0748 57.3911 95.2292C57.137 93.7352 59.2509 92.6069 60.9706 92.7756C64.1843 92.6901 63.8755 97.2007 61.3103 97.4833Z" fill="#171717"/>
<path d="M53.0477 181.75C52.8221 181.328 51.7223 180.285 51.7223 180.285C51.0454 179.017 51.6654 178.142 52.2853 177.268C53.328 176.169 55.499 177.183 56.5988 178.226C59.0239 180.734 55.4444 183.188 53.0477 181.75Z" fill="#171717"/>
<path d="M88.3579 147.146C87.9351 147.372 86.8924 148.472 86.8924 148.472C85.624 149.149 84.7499 148.529 83.8758 147.909C82.3533 147.092 83.1419 144.498 84.1846 143.398C86.9186 141.396 89.795 144.75 88.3579 147.146Z" fill="#171717"/>
<path d="M85.2934 64.0429C85.0677 63.6202 85.462 62.3233 85.462 62.3233C85.8563 61.0264 86.9276 60.9979 87.7732 60.5466C89.2672 60.2924 90.3954 62.4064 90.2268 64.1261C90.5094 66.6914 85.9988 66.3826 85.2934 64.0429Z" fill="#171717"/>
<path d="M15.5225 173.526L14.0569 174.851C12.7885 175.528 12.1401 175.331 10.8432 174.937C9.32066 174.12 9.68646 171.751 11.152 170.426C13.2375 168.227 16.5367 171.355 15.5225 173.526Z" fill="#171717"/>
<path d="M42.786 78.0367C42.5603 77.614 42.729 75.8943 42.729 75.8943C42.7005 74.823 43.9689 74.1461 44.8145 73.6948C46.0829 73.0179 47.6339 74.9062 48.1137 76.823C48.622 79.8111 44.337 79.9251 42.786 78.0367Z" fill="#171717"/>
<path d="M51.4736 195.081C51.8964 194.856 53.3904 194.602 53.3904 194.602C54.4617 194.573 55.3358 195.193 56.0127 196.461C56.9153 198.153 55.0269 199.704 53.5329 199.958C50.3477 201.114 49.5853 196.632 51.4736 195.081Z" fill="#171717"/>
<path d="M66.0921 67.7697C66.5149 67.5441 68.2346 67.7128 68.2346 67.7128C69.5314 68.1071 69.9827 68.9526 70.0112 70.0239C70.2654 71.5179 68.1514 72.6462 66.4317 72.4775C63.4436 72.9858 63.7524 68.4752 66.0921 67.7697Z" fill="#171717"/>
<path d="M25.829 133.802L24.5891 135.55C23.5464 136.65 22.6723 136.03 21.601 136.059C20.3041 135.664 20.0215 133.099 20.8386 131.577C22.6984 128.954 26.6176 131.208 25.829 133.802Z" fill="#171717"/>
<path d="M64.9547 210.162L66.1946 208.414C67.2373 207.314 68.1114 207.934 69.1826 207.906C70.7052 208.723 70.7622 210.865 69.9451 212.388C68.3109 215.433 64.5889 212.53 64.9547 210.162Z" fill="#171717"/>
<path d="M21.6504 113.764L23.1159 112.438C24.3843 111.761 25.2584 112.381 26.1325 113.001C27.655 113.818 26.8664 116.412 25.8237 117.512C23.9353 119.063 20.6361 115.935 21.6504 113.764Z" fill="#171717"/>
<path d="M54.2196 233.814L55.5449 235.279C56.2219 236.548 55.6019 237.422 54.982 238.296C54.1649 239.818 51.5711 239.03 50.4714 237.987C48.6947 235.676 52.0486 232.799 54.2196 233.814Z" fill="#171717"/>
<path d="M49.1395 212.082C49.5623 211.856 51.0848 212.673 51.0848 212.673C51.9589 213.293 51.9874 214.365 52.0159 215.436C51.8473 217.155 49.282 217.438 47.7595 216.621C44.7429 216.058 46.3486 211.942 49.1395 212.082Z" fill="#171717"/>
<path d="M59.835 259.608L58.0868 258.369C57.6355 257.523 57.607 256.452 58.227 255.578C58.8184 253.632 61.1866 253.998 62.5119 255.464C65.1342 257.324 62.006 260.623 59.835 259.608Z" fill="#171717"/>
<path d="M84.5203 115.519C84.9431 115.294 86.2399 115.688 86.2399 115.688C87.5368 116.082 87.5653 117.153 88.0166 117.999C88.2708 119.493 86.1568 120.621 84.4371 120.453C81.6462 120.312 81.955 115.802 84.5203 115.519Z" fill="#171717"/>
<path d="M34.5 193.82C34.0772 194.046 32.5547 193.229 32.5547 193.229C31.2578 192.834 31.2293 191.763 31.6236 190.466C31.7923 188.747 34.1319 188.041 35.6544 188.858C38.2482 189.647 36.6425 193.763 34.5 193.82Z" fill="#171717"/>
<path d="M25.7098 209.918L24.47 211.666C23.4272 212.766 22.5531 212.146 21.4819 212.174C20.185 211.78 19.9024 209.215 20.7195 207.692C22.3536 204.647 26.0757 207.55 25.7098 209.918Z" fill="#171717"/>
<path d="M44.0987 143.609C43.8731 143.186 44.6902 141.663 44.6902 141.663C45.3101 140.789 46.1557 140.338 47.4526 140.732C49.1723 140.901 49.8777 143.241 49.0606 144.763C48.4977 147.78 44.3814 146.174 44.0987 143.609Z" fill="#171717"/>
<path d="M79.3836 99.7891C78.9608 100.015 77.4383 99.1977 77.4383 99.1977C76.1414 98.8034 76.1129 97.7321 75.8587 96.2381C75.6046 94.7441 77.7186 93.6158 79.6639 94.2073C82.6805 94.7702 81.9489 99.5065 79.3836 99.7891Z" fill="#171717"/>
<path d="M75.657 185.436C75.8827 185.859 76.1368 187.353 76.1368 187.353C76.1653 188.424 75.1225 189.524 74.0513 189.552C72.7829 190.229 71.2319 188.341 70.7521 186.424C70.0467 184.084 74.5288 183.322 75.657 185.436Z" fill="#171717"/>
<path d="M5.02957 149.792C4.80392 149.37 4.97258 147.65 4.97258 147.65C5.36688 146.353 6.21247 145.902 7.28371 145.873C8.77775 145.619 10.3288 147.507 10.1601 149.227C10.4428 151.792 5.73501 152.132 5.02957 149.792Z" fill="#171717"/>
<path d="M91.1594 83.1846C91.5822 82.9589 92.6249 81.8592 92.6249 81.8592C93.8933 81.1822 94.7674 81.8022 95.6415 82.4221C97.164 83.2392 96.1498 85.4102 94.6842 86.7356C92.8244 89.3579 90.1451 85.3555 91.1594 83.1846Z" fill="#171717"/>
<path d="M83.0654 270.568C83.4882 270.342 84.5309 269.242 84.5309 269.242C85.7993 268.566 86.6734 269.185 87.5475 269.805C89.07 270.623 88.0558 272.793 86.5902 274.119C84.5047 276.318 81.6283 272.964 83.0654 270.568Z" fill="#171717"/>
<path d="M86.7126 206.152C86.2898 206.377 84.5701 206.209 84.5701 206.209C83.4988 206.237 82.8219 204.969 82.3706 204.123C81.6937 202.855 83.582 201.304 85.4988 200.824C88.4869 200.316 88.8265 205.024 86.7126 206.152Z" fill="#171717"/>
</g>
</g>
</svg>
