<svg width="349" height="92" viewBox="0 0 349 92" fill="none" xmlns="http://www.w3.org/2000/svg">
<g opacity="0.3">
<mask id="mask0_2740_2525" style="mask-type:alpha" maskUnits="userSpaceOnUse" x="0" y="0" width="349" height="92">
<rect width="348.539" height="90.7942" transform="matrix(1 0 0 -1 0.000976562 91.3105)" fill="#C4C4C4"/>
</mask>
<g mask="url(#mask0_2740_2525)">
<path opacity="0.7" d="M76.7389 186.377C49.9374 186.744 60.9517 122.861 70.1303 108.176C84.0818 85.7798 104.642 86.5141 125.569 71.8284C154.941 51.2683 174.399 41.3554 211.848 38.4183C232.408 36.9497 261.779 31.0754 281.972 38.7854C319.788 53.104 357.604 93.857 355.401 135.711C352.464 197.759 263.615 195.923 219.191 197.392C182.109 198.493 107.212 225.662 76.7389 186.377Z" fill="#86CDC1"/>
<path d="M151.272 87.4574C151.639 87.4574 152.741 86.7231 152.741 86.7231C153.475 85.9888 153.475 85.2546 153.108 84.5203C152.741 83.4188 150.905 83.4188 149.804 83.786C147.601 84.8874 149.436 87.8246 151.272 87.4574Z" fill="#171717"/>
<path d="M141.361 43.4013L142.829 44.1356C143.931 44.5028 144.298 43.7685 145.032 43.0342C145.766 41.9328 145.032 40.4642 143.564 39.7299C141.361 38.9956 139.892 42.2999 141.361 43.4013Z" fill="#171717"/>
<path d="M153.838 26.1431C153.471 26.1431 152.37 26.1431 152.37 26.1431C151.268 26.5102 151.268 27.2445 150.901 27.9788C150.534 29.0802 152.37 30.1816 153.471 30.1816C155.674 30.1816 155.674 26.8774 153.838 26.1431Z" fill="#171717"/>
<path d="M170.73 74.2405C170.73 74.6077 170.363 75.7091 170.363 75.7091C170.363 76.8105 171.098 77.1777 171.832 77.5448C172.933 77.912 174.035 76.8105 174.402 75.342C175.136 73.1391 171.832 72.7719 170.73 74.2405Z" fill="#171717"/>
<path d="M30.1166 83.0519C30.4837 83.0519 31.5852 82.6847 31.5852 82.6847C32.3194 82.3176 32.6866 81.2161 32.6866 80.4819C32.6866 79.0133 30.8509 78.6461 29.3823 79.0133C27.1794 79.3804 28.2809 82.6847 30.1166 83.0519Z" fill="#171717"/>
<path d="M135.852 87.0913C135.485 87.0913 134.384 87.4585 134.384 87.4585C133.649 88.1927 133.649 88.927 133.649 89.6613C133.649 90.7627 135.485 91.497 136.954 91.1299C139.157 90.3956 138.055 87.4585 135.852 87.0913Z" fill="#171717"/>
<path d="M158.246 68.734C157.879 68.734 157.145 69.8355 157.145 69.8355C156.41 70.5698 156.778 71.3041 157.145 72.4055C157.879 73.5069 159.347 73.1398 160.449 72.4055C162.285 70.5698 160.082 67.9998 158.246 68.734Z" fill="#171717"/>
<path d="M182.478 68.3632C182.478 68.7303 182.845 69.8317 182.845 69.8317C183.212 70.566 184.313 70.9332 185.048 70.9332C186.149 70.9332 186.883 69.0975 186.516 67.6289C185.782 65.426 182.478 66.5274 182.478 68.3632Z" fill="#171717"/>
<path d="M78.5791 16.9648L77.1105 16.2305C76.0091 15.8633 75.642 16.5976 74.9077 17.3319C74.1734 18.4333 75.2748 19.9019 76.3763 20.2691C78.5791 21.7376 79.6805 18.4333 78.5791 16.9648Z" fill="#171717"/>
<path d="M63.891 63.5917C63.891 63.9588 64.9924 64.6931 64.9924 64.6931C65.7267 65.0603 66.461 65.0602 67.1953 64.326C68.2967 63.5917 67.9295 61.756 66.8281 61.0217C65.3595 59.186 63.1567 61.756 63.891 63.5917Z" fill="#171717"/>
<path d="M66.0953 74.6048C65.7282 74.6048 64.9939 75.7063 64.9939 75.7063C64.6267 76.4406 64.9939 77.1748 65.361 77.9091C66.0953 79.0106 67.931 78.2763 68.6653 77.542C70.1339 76.0734 67.5639 73.8705 66.0953 74.6048Z" fill="#171717"/>
<path d="M164.856 19.9007C165.223 19.9007 165.957 18.7993 165.957 18.7993C166.324 18.065 165.957 17.3307 165.59 16.5964C164.856 15.1278 163.02 15.8621 162.286 16.5964C160.45 18.4321 163.387 20.635 164.856 19.9007Z" fill="#171717"/>
<path d="M26.0766 66.1628C26.0766 65.7956 25.7095 64.6942 25.7095 64.6942C25.3423 63.5928 24.608 63.5928 23.5066 63.5928C22.4052 63.5928 21.6709 65.0613 21.6709 66.5299C22.4052 68.7328 25.7095 67.9985 26.0766 66.1628Z" fill="#171717"/>
<path d="M207.812 58.0849C207.812 57.7177 206.711 57.3506 206.711 57.3506C205.976 56.9834 205.242 57.3506 204.508 58.0849C203.406 58.8191 204.141 60.6549 205.242 61.3892C207.078 62.4906 208.913 59.5534 207.812 58.0849Z" fill="#171717"/>
<path d="M128.875 61.3906C128.875 61.7578 128.508 62.8592 128.508 62.8592C128.508 63.9606 129.242 64.3278 129.976 64.6949C131.078 65.4292 132.546 63.9606 132.914 62.492C133.281 60.6563 129.976 59.922 128.875 61.3906Z" fill="#171717"/>
<path d="M106.115 49.6412L107.583 50.3755C108.685 50.7426 109.052 50.0083 109.786 49.6412C110.521 48.5397 109.786 47.0712 108.685 46.3369C106.482 45.2355 105.013 48.1726 106.115 49.6412Z" fill="#171717"/>
<path d="M82.9843 59.5545L82.25 61.0231C81.8829 62.1245 82.6171 62.4917 83.3514 63.226C84.4529 63.9603 85.9214 62.8588 86.6557 61.7574C87.7572 59.5545 84.4529 58.086 82.9843 59.5545Z" fill="#171717"/>
<path d="M172.934 26.5127C172.567 26.5127 171.466 27.247 171.466 27.247C170.731 27.9813 170.731 28.7156 171.099 29.4498C171.466 30.5513 173.301 30.5513 174.403 30.1841C176.606 29.4498 174.77 26.5127 172.934 26.5127Z" fill="#171717"/>
<path d="M114.557 64.6941C114.557 64.327 114.19 63.2255 114.19 63.2255C113.823 62.1241 113.089 62.1241 112.354 61.757C111.253 61.3898 110.519 63.2255 110.519 64.6941C110.519 67.2641 114.19 66.5298 114.557 64.6941Z" fill="#171717"/>
<path d="M44.0655 33.4849C44.0655 33.8521 43.6984 34.9535 44.0655 34.9535C44.0655 36.055 44.7998 36.4221 45.5341 36.7892C46.6355 37.1564 47.737 35.6878 48.1041 34.5864C48.4712 32.0164 45.167 32.0164 44.0655 33.4849Z" fill="#171717"/>
<path d="M172.935 52.9468L172.201 54.4154C171.834 55.1496 172.201 55.8839 172.935 56.6182C173.669 57.7196 175.505 56.6182 176.239 55.5168C177.341 53.6811 174.404 51.8453 172.935 52.9468Z" fill="#171717"/>
<path d="M185.784 41.1952C186.151 41.1952 187.252 40.4609 187.252 40.4609C187.987 39.7266 187.987 38.9924 187.619 38.2581C187.252 37.1566 185.417 37.1566 184.315 37.5238C181.745 38.6252 183.581 41.5624 185.784 41.1952Z" fill="#171717"/>
<path d="M52.8771 57.3502C52.8771 56.983 53.2443 55.8816 53.2443 55.8816C53.2443 54.7802 52.51 54.413 51.7757 54.0459C50.6743 53.3116 49.5728 54.7802 49.2057 56.2488C48.1043 58.4516 51.7757 59.1859 52.8771 57.3502Z" fill="#171717"/>
<path d="M143.93 70.937L142.461 70.5698C141.36 70.5698 140.992 70.937 140.258 71.6713C139.524 72.7727 140.625 74.2413 142.094 74.6084C144.297 75.3427 145.398 72.0384 143.93 70.937Z" fill="#171717"/>
<path d="M95.833 67.6304C95.833 67.9976 96.2001 69.099 96.2001 69.099C96.5673 70.2004 97.3016 70.2004 98.403 70.2004C99.5044 70.2004 100.239 68.7319 100.239 67.2633C99.5044 65.0604 96.2002 65.7947 95.833 67.6304Z" fill="#171717"/>
<path d="M75.641 51.8434C76.0081 51.8434 76.7424 50.7419 76.7424 50.7419C77.1096 50.0076 76.7424 49.2734 76.3753 48.5391C75.641 47.4376 73.8053 47.8048 73.071 48.9062C71.2353 50.3748 73.8053 52.9448 75.641 51.8434Z" fill="#171717"/>
<path d="M99.5055 17.6991C99.5055 18.0662 100.607 18.8005 100.607 18.8005C101.341 19.5348 102.076 19.1677 103.177 18.8005C104.278 18.0662 103.911 16.5977 103.177 15.4962C101.341 13.6605 98.7712 15.8634 99.5055 17.6991Z" fill="#171717"/>
<path d="M94.7328 48.1738C94.7328 47.8067 93.6314 47.0724 93.6314 47.0724C92.8971 46.3381 92.1628 46.7052 91.0614 47.0724C89.9599 47.4395 90.3271 49.2752 91.0614 50.3767C92.5299 52.2124 95.0999 50.0095 94.7328 48.1738Z" fill="#171717"/>
<path d="M202.303 73.8728C202.303 73.5056 201.569 72.4042 201.569 72.4042C200.835 71.6699 200.101 71.6699 199.366 71.6699C198.265 72.0371 197.898 73.8728 198.632 74.9742C199.366 77.1771 202.303 75.7085 202.303 73.8728Z" fill="#171717"/>
<path d="M139.524 16.5976L139.891 15.1291C139.891 14.0276 139.156 13.6605 138.422 13.2933C137.321 12.5591 135.852 14.0276 135.485 15.1291C134.751 17.3319 138.055 18.0662 139.524 16.5976Z" fill="#171717"/>
<path d="M33.0511 41.5626L34.5197 41.9297C35.6212 41.9297 35.9883 41.1954 36.3554 40.4611C37.0897 39.3597 35.6212 37.8911 34.5197 37.524C32.3169 36.7897 31.5826 40.094 33.0511 41.5626Z" fill="#171717"/>
<path d="M55.4479 82.6846C55.0808 82.6846 53.9794 83.0517 53.9794 83.0517C52.8779 83.4189 52.8779 84.5203 52.8779 85.2546C52.8779 86.356 54.7136 87.0903 55.8151 86.7231C58.0179 86.356 57.2837 83.0517 55.4479 82.6846Z" fill="#171717"/>
<path d="M86.655 36.423C87.0222 36.423 88.1236 35.6887 88.1236 35.6887C88.8579 34.9544 88.8579 34.2201 88.4907 33.4858C88.1236 32.3844 86.2879 32.3844 85.1864 33.1187C82.6164 33.853 84.8193 36.7901 86.655 36.423Z" fill="#171717"/>
<path d="M59.1196 45.9692C59.4867 45.9692 60.5881 45.6021 60.5881 45.2349C61.3224 44.8678 61.3224 43.7664 61.3224 43.0321C61.3224 41.9306 59.4867 41.5635 58.0181 41.9306C55.8153 42.6649 56.9167 45.9692 59.1196 45.9692Z" fill="#171717"/>
<path d="M99.5035 31.6514L100.238 30.1828C100.605 29.0814 99.8707 28.7142 99.1364 27.9799C98.0349 27.2457 96.5664 28.3471 96.1992 29.4485C95.0978 32.0185 98.4021 33.12 99.5035 31.6514Z" fill="#171717"/>
<path d="M165.222 87.8223C164.855 87.8223 163.754 88.1894 163.754 88.1894C162.652 88.5566 162.652 89.2908 162.285 90.0251C162.285 91.1266 163.754 91.8608 165.222 91.8608C167.425 91.4937 167.058 88.1894 165.222 87.8223Z" fill="#171717"/>
<path d="M119.697 16.2318L118.228 15.4975C117.126 15.1304 116.759 15.8647 116.025 16.2318C115.291 17.3332 116.025 18.8018 117.126 19.5361C119.329 20.6375 120.798 17.7004 119.697 16.2318Z" fill="#171717"/>
<path d="M15.062 87.0898L15.4292 85.6213C15.4292 84.5198 14.6949 84.1527 13.9606 83.7855C12.8592 83.0512 11.3906 84.5198 11.0234 85.6213C10.6563 87.8241 13.9606 88.5584 15.062 87.0898Z" fill="#171717"/>
<path d="M110.519 34.9538C110.519 35.3209 111.253 36.4224 111.253 36.4224C111.987 37.1567 112.721 37.1567 113.456 36.7895C114.557 36.4224 114.924 34.5867 114.19 33.4852C113.456 31.2824 110.519 33.1181 110.519 34.9538Z" fill="#171717"/>
<path d="M43.6992 71.3018C43.6992 71.6689 43.6992 72.7704 43.6992 72.7704C43.6992 73.8718 44.4335 74.239 45.5349 74.239C46.6364 74.6061 47.7378 73.1375 47.7378 71.6689C47.7378 69.4661 44.4335 69.4661 43.6992 71.3018Z" fill="#171717"/>
<path d="M152.373 13.6615C152.74 13.6615 153.475 12.5601 153.475 12.5601C154.209 11.8258 153.842 11.0915 153.475 9.99007C152.74 8.88864 151.272 9.25578 150.17 9.99007C147.967 11.4586 150.537 14.0287 152.373 13.6615Z" fill="#171717"/>
<path d="M9.55362 67.6316L8.81934 69.1002C8.81934 69.8344 9.18648 70.5687 9.92077 70.9359C11.0222 72.0373 12.4908 70.9359 12.8579 69.4673C13.9593 67.2644 10.6551 66.163 9.55362 67.6316Z" fill="#171717"/>
<path d="M184.682 87.8223C184.315 87.8223 183.214 88.1894 183.214 88.1894C182.479 88.5566 182.112 89.2908 182.112 90.3923C182.112 91.4937 183.948 92.228 185.049 91.8608C187.619 91.4937 186.885 88.1894 184.682 87.8223Z" fill="#171717"/>
<path d="M71.6022 34.2212C71.2351 34.2212 70.1337 34.5883 70.1337 34.5883C69.3994 34.9555 69.0322 36.0569 69.0322 36.7912C69.0322 37.8926 70.8679 38.6269 72.3365 38.2598C74.5394 37.8926 73.438 34.5883 71.6022 34.2212Z" fill="#171717"/>
<path d="M125.572 49.6415C125.572 50.0086 126.674 50.7429 126.674 50.7429C127.408 51.1101 128.142 50.7429 128.877 50.3758C129.978 49.6415 129.244 47.8058 128.142 47.0715C126.674 45.2358 124.838 47.8058 125.572 49.6415Z" fill="#171717"/>
<path d="M131.079 27.2432C130.712 27.2432 129.611 27.2432 129.611 27.2432C128.509 27.6103 128.509 28.3446 128.142 29.0789C127.775 30.1803 129.611 31.2817 131.079 30.9146C133.649 31.2817 132.915 27.6103 131.079 27.2432Z" fill="#171717"/>
<path d="M124.47 78.6436C124.47 79.0108 125.571 79.3779 125.938 79.3779C126.673 79.745 127.407 79.3779 128.141 78.6436C129.243 77.9093 128.508 76.0736 127.407 75.3393C125.204 74.2379 123.368 77.175 124.47 78.6436Z" fill="#171717"/>
<path d="M91.4251 85.2548C91.4251 85.6219 92.5266 86.3562 92.5266 86.3562C93.2609 86.7233 93.9952 86.3562 94.7294 85.989C95.8309 85.2548 95.0966 83.419 94.3623 82.6848C92.8937 80.849 90.6909 83.419 91.4251 85.2548Z" fill="#171717"/>
<path d="M60.2198 21.7363C59.8527 21.7363 58.7512 21.7363 58.7512 21.7363C57.6498 21.7363 57.2826 22.8378 57.2826 23.572C56.9155 24.6735 58.3841 25.7749 59.8526 25.7749C62.0555 25.7749 62.0555 22.4706 60.2198 21.7363Z" fill="#171717"/>
<path d="M152.374 58.0845L153.843 58.8188C154.944 59.186 155.311 58.4517 156.046 57.7174C156.78 56.616 155.679 55.1474 154.577 54.7802C152.374 53.6788 150.906 56.616 152.374 58.0845Z" fill="#171717"/>
<path d="M81.1499 90.7617L81.517 89.2931C81.517 88.1917 80.7828 87.8246 80.0485 87.4574C78.947 86.7231 77.4785 88.1917 77.1113 89.2931C76.7442 91.1288 80.0485 92.2303 81.1499 90.7617Z" fill="#171717"/>
<path d="M37.8228 55.5133C37.8228 55.1461 36.7213 54.4118 36.7213 54.4118C35.9871 54.0447 35.2528 54.4118 34.5185 54.779C33.4171 55.5133 34.1513 57.349 35.2528 58.0833C36.7213 59.919 38.5571 57.349 37.8228 55.5133Z" fill="#171717"/>
<path d="M211.116 87.4558C211.116 87.0886 210.748 85.9872 210.748 85.9872C210.381 85.2529 209.647 84.8857 208.546 84.8857C207.444 84.8857 206.71 86.7215 207.077 87.8229C207.444 90.0258 210.748 89.2915 211.116 87.4558Z" fill="#171717"/>
<path d="M91.4281 12.5591L92.1624 11.0905C92.5295 9.98909 91.7952 9.62195 91.0609 8.88766C89.9595 8.15337 88.4909 9.2548 88.1238 10.3562C86.6552 12.5591 89.9595 13.6605 91.4281 12.5591Z" fill="#171717"/>
<path d="M21.3022 51.8447C21.6693 51.8447 22.7707 52.2118 22.7707 52.2118C23.8722 52.2118 24.2393 51.4776 24.6064 50.7433C25.3407 49.6418 23.8722 48.5404 22.4036 48.1733C20.2007 47.439 19.4664 50.7433 21.3022 51.8447Z" fill="#171717"/>
<path d="M112.354 80.479C111.987 80.479 110.885 80.479 110.885 80.479C109.784 80.8461 109.784 81.5804 109.417 82.3147C109.049 83.4162 110.885 84.5176 112.354 84.1504C114.557 84.1504 114.19 80.8461 112.354 80.479Z" fill="#171717"/>
<path d="M160.085 44.5023C160.452 44.5023 161.554 44.5023 161.554 44.5023C162.655 44.5023 163.022 43.4009 163.022 42.6666C163.389 41.5652 161.921 40.4637 160.452 40.4637C158.249 40.0966 158.249 43.768 160.085 44.5023Z" fill="#171717"/>
<path d="M80.7808 76.4414C81.148 76.4414 82.2494 76.4414 82.2494 76.4414C83.3508 76.4414 83.718 75.7071 84.0851 74.6057C84.4523 73.5042 82.9837 72.4028 81.5151 72.0356C79.3123 72.0356 78.9451 75.7071 80.7808 76.4414Z" fill="#171717"/>
<path d="M193.125 55.1456C193.492 55.1456 194.593 54.4114 194.593 54.4114C195.328 53.6771 195.328 52.9428 194.96 52.2085C194.593 51.1071 192.758 51.1071 191.656 51.8413C189.453 52.5756 191.289 55.5128 193.125 55.1456Z" fill="#171717"/>
</g>
</g>
</svg>
