<svg width="148" height="142" viewBox="0 0 148 142" fill="none" xmlns="http://www.w3.org/2000/svg">
<g opacity="0.3">
<path d="M101.716 52.2639C101.958 52.2639 102.682 51.7808 102.682 51.7808C103.166 51.2978 103.166 50.8147 102.924 50.3316C102.682 49.607 101.475 49.607 100.75 49.8486C99.301 50.5732 100.509 52.5054 101.716 52.2639Z" fill="#171717"/>
<path d="M84.5664 95.7394C84.5664 95.4979 83.8418 95.2564 83.8418 95.2564C83.3588 95.0148 82.8757 95.2564 82.3926 95.7394C81.668 96.2225 82.1511 97.4302 82.8757 97.9133C84.0834 98.6379 85.291 96.9471 84.5664 95.7394Z" fill="#171717"/>
<path d="M144.951 99.8462C144.71 99.8462 143.985 100.088 143.985 100.088C143.261 100.329 143.261 100.812 143.261 101.537C143.261 102.262 144.468 102.745 145.193 102.503C146.642 102.02 146.159 99.8462 144.951 99.8462Z" fill="#171717"/>
<path d="M0.754883 81.7295C0.754883 81.971 0.996417 82.6956 0.996417 82.6956C1.23795 83.1787 1.72102 83.4202 2.44562 83.4202C3.17022 83.4202 3.65329 82.2126 3.41176 81.488C3.17022 79.7972 0.996417 80.5218 0.754883 81.7295Z" fill="#171717"/>
<path d="M78.0451 139.699C78.2866 139.699 78.7697 138.975 78.7697 138.975C79.2528 138.492 79.0112 138.008 78.7697 137.525C78.2866 136.801 77.079 137.042 76.5959 137.767C75.3882 138.733 76.8374 140.182 78.0451 139.699Z" fill="#171717"/>
<path d="M36.9853 119.652C36.9853 119.411 36.7438 118.686 36.7438 118.686C36.5023 118.203 36.0192 117.961 35.2946 117.961C34.57 117.961 34.0869 119.169 34.3285 119.894C34.57 121.584 36.7438 120.86 36.9853 119.652Z" fill="#171717"/>
<path d="M95.1955 23.2801L96.1617 23.7632C96.8863 24.0047 97.1278 23.5216 97.6109 23.0386C98.0939 22.314 97.6109 21.3478 96.6448 20.8647C95.1955 20.3817 94.2294 22.5555 95.1955 23.2801Z" fill="#171717"/>
<path d="M56.5501 80.28C56.5501 80.5216 57.2747 81.0046 57.2747 81.0046C57.7577 81.4877 58.2408 81.2462 58.7239 80.7631C59.4485 80.28 59.2069 79.0724 58.4823 78.5893C57.5162 77.3816 56.067 79.0724 56.5501 80.28Z" fill="#171717"/>
<path d="M65.7285 131.487C65.7285 131.729 65.7285 132.453 65.7285 132.453C65.97 133.178 66.4531 133.178 66.9362 133.419C67.6608 133.661 68.3854 132.453 68.1439 131.487C68.3854 130.038 66.2116 130.279 65.7285 131.487Z" fill="#171717"/>
<path d="M127.801 121.1C127.801 121.341 127.801 122.066 127.801 122.066C128.042 122.791 128.525 122.791 129.008 123.032C129.733 123.274 130.458 122.066 130.458 121.341C130.458 119.651 128.284 119.892 127.801 121.1Z" fill="#171717"/>
<path d="M103.406 11.9268C103.165 11.9268 102.44 11.9268 102.44 11.9268C101.715 12.1683 101.715 12.6514 101.474 13.1344C101.232 13.859 102.44 14.5836 103.165 14.5836C104.614 14.5836 104.614 12.4098 103.406 11.9268Z" fill="#171717"/>
<path d="M39.1603 74.002C39.1603 74.2435 39.6433 74.9681 39.6433 74.9681C40.1264 75.4512 40.6095 75.4512 41.0925 75.4512C41.8171 75.2096 42.0587 74.002 41.5756 73.2774C41.0925 71.5866 38.9187 72.7943 39.1603 74.002Z" fill="#171717"/>
<path d="M40.367 105.402L40.85 104.435C41.0916 103.952 40.85 103.469 40.367 102.986C39.8839 102.262 38.6762 102.986 38.1932 103.711C37.4686 105.16 39.4008 106.368 40.367 105.402Z" fill="#171717"/>
<path d="M79.2543 82.455L78.2881 81.972C77.5635 81.7304 77.322 82.2135 76.8389 82.6966C76.3559 83.4212 76.8389 84.3873 77.8051 84.8704C79.2543 85.595 80.2204 83.4212 79.2543 82.455Z" fill="#171717"/>
<path d="M31.6702 83.4209C31.6702 83.6624 32.1533 84.1455 32.1533 84.387C32.6363 84.8701 33.1194 84.8701 33.6025 84.6286C34.3271 84.387 34.3271 83.1794 33.844 82.4548C33.3609 81.0056 31.4287 82.2132 31.6702 83.4209Z" fill="#171717"/>
<path d="M17.9036 83.4201L17.6621 84.3863C17.6621 85.1109 17.9036 85.3524 18.6282 85.5939C19.3528 86.077 20.319 85.1109 20.5605 84.3863C20.8021 82.937 18.6282 82.454 17.9036 83.4201Z" fill="#171717"/>
<path d="M54.8584 131.97C54.8584 132.211 55.583 132.453 55.583 132.694C56.0661 132.936 56.5491 132.694 57.0322 132.453C57.7568 131.97 57.2737 130.762 56.5491 130.279C55.3415 129.071 54.1338 131.004 54.8584 131.97Z" fill="#171717"/>
<path d="M114.517 43.5689C114.517 43.8105 114.275 44.5351 114.275 44.5351C114.275 45.2597 114.758 45.5012 115.242 45.7427C115.966 45.9843 116.691 45.2597 116.932 44.2935C117.415 42.8443 115.242 42.6028 114.517 43.5689Z" fill="#171717"/>
<path d="M22.0107 49.3656C22.2522 49.3656 22.9768 49.124 22.9768 49.124C23.4599 48.8825 23.7015 48.1579 23.7015 47.6748C23.7015 46.7087 22.4938 46.4672 21.5276 46.7087C20.0784 46.9502 20.803 49.124 22.0107 49.3656Z" fill="#171717"/>
<path d="M108.239 64.5816C108.48 64.5816 109.205 64.3401 109.205 64.3401C109.688 64.0985 109.688 63.3739 109.688 62.8909C109.688 62.1663 108.48 61.9247 107.514 62.1663C106.307 62.4078 107.031 64.5816 108.239 64.5816Z" fill="#171717"/>
<path d="M138.671 113.614C138.43 113.614 137.705 113.855 137.705 113.855C137.222 114.097 136.98 114.821 136.98 115.305C136.98 116.029 138.188 116.512 139.154 116.271C140.603 116.029 139.879 113.855 138.671 113.614Z" fill="#171717"/>
<path d="M133.839 106.367C133.839 106.609 134.08 107.333 134.08 107.333C134.322 107.816 135.047 108.058 135.53 108.058C136.254 108.058 136.737 106.85 136.496 105.884C136.013 104.435 133.839 105.159 133.839 106.367Z" fill="#171717"/>
<path d="M41.3313 94.5319C41.3313 94.7735 41.8144 95.4981 41.8144 95.4981C42.2975 95.9811 42.7806 95.9811 43.2636 95.7396C43.9882 95.4981 43.9882 94.2904 43.5052 93.5658C43.0221 91.875 41.0898 93.0827 41.3313 94.5319Z" fill="#171717"/>
<path d="M144.466 63.1315C144.708 63.1315 145.432 62.6484 145.432 62.6484C145.915 62.1654 145.915 61.6823 145.674 61.1992C145.432 60.4746 144.225 60.2331 143.5 60.7162C142.051 61.4408 143.017 63.373 144.466 63.1315Z" fill="#171717"/>
<path d="M126.353 108.058C126.353 107.816 125.629 107.333 125.629 107.333C125.145 106.85 124.662 107.092 123.938 107.333C123.213 107.816 123.455 109.024 123.938 109.507C125.145 110.956 126.595 109.265 126.353 108.058Z" fill="#171717"/>
<path d="M91.5713 52.0229C91.3297 52.0229 90.6051 52.2645 90.6051 52.2645C90.1221 52.7476 90.1221 53.2306 90.1221 53.7137C90.1221 54.4383 91.3297 54.9214 92.2959 54.6798C93.7451 54.1968 93.0205 52.2645 91.5713 52.0229Z" fill="#171717"/>
<path d="M106.303 39.9459C106.062 39.9459 105.579 40.6705 105.579 40.6705C105.096 41.1536 105.337 41.6367 105.579 42.3613C106.062 43.0859 107.028 42.8443 107.753 42.3613C108.96 41.1536 107.511 39.4628 106.303 39.9459Z" fill="#171717"/>
<path d="M143.503 85.3525C143.503 85.5941 143.986 86.3187 143.986 86.3187C144.469 86.8017 144.952 86.8018 145.435 86.5602C146.16 86.3187 146.402 85.111 145.919 84.3864C145.194 82.9372 143.262 84.1449 143.503 85.3525Z" fill="#171717"/>
<path d="M122.246 39.7021C122.246 39.9437 122.488 40.6683 122.488 40.6683C122.729 41.1513 123.454 41.3929 123.937 41.3929C124.661 41.3929 125.145 40.1852 124.903 39.2191C124.42 37.7698 122.246 38.4944 122.246 39.7021Z" fill="#171717"/>
<path d="M53.893 5.88813L52.9269 5.40507C52.2023 5.16353 51.9608 5.6466 51.4777 6.12967C50.9946 6.85427 51.7192 7.82041 52.4438 8.06194C53.893 9.02808 54.6176 6.85427 53.893 5.88813Z" fill="#171717"/>
<path d="M4.85968 59.7503L5.10121 58.7841C5.10121 58.0595 4.85968 57.818 4.37661 57.3349C3.65201 56.8518 2.68587 57.5764 2.44434 58.5426C1.96127 59.9918 4.13508 60.7164 4.85968 59.7503Z" fill="#171717"/>
<path d="M44.2307 36.5632C44.2307 36.8048 44.9553 37.2878 44.9553 37.2878C45.4384 37.5294 45.9215 37.5294 46.4045 37.0463C47.1291 36.5632 46.8876 35.3556 46.163 34.8725C45.1969 33.6648 43.7476 35.3556 44.2307 36.5632Z" fill="#171717"/>
<path d="M45.6801 43.8088C45.4386 43.8088 44.9555 44.5334 44.9555 44.5334C44.714 45.0165 44.9555 45.4996 45.1971 45.9826C45.6801 46.7073 46.8878 46.2242 47.3709 45.7411C48.337 44.775 46.6463 43.3258 45.6801 43.8088Z" fill="#171717"/>
<path d="M105.582 122.551C105.824 122.551 106.549 122.309 106.549 122.309C107.273 122.068 107.273 121.585 107.273 120.86C107.273 120.135 106.307 119.652 105.341 119.652C104.133 120.135 104.375 122.309 105.582 122.551Z" fill="#171717"/>
<path d="M21.0424 92.5998L20.0763 92.1167C19.5932 91.8752 19.1101 92.1167 18.6271 92.5998C18.144 93.0829 18.6271 94.2905 19.3517 94.7736C20.8009 95.4982 21.767 93.5659 21.0424 92.5998Z" fill="#171717"/>
<path d="M120.073 65.5473C120.315 65.5473 121.039 65.0642 121.039 65.0642C121.522 64.8227 121.522 64.0981 121.522 63.615C121.522 62.8904 120.315 62.6488 119.349 62.8904C117.899 63.615 118.866 65.7888 120.073 65.5473Z" fill="#171717"/>
<path d="M110.653 7.81999C110.894 7.81999 111.378 7.09538 111.378 7.09538C111.619 6.61231 111.378 6.12925 111.136 5.64618C110.653 4.68004 109.445 5.16311 108.962 5.64618C107.755 6.85385 109.687 8.30305 110.653 7.81999Z" fill="#171717"/>
<path d="M44.9563 59.9929C44.9563 60.2345 45.6809 60.7175 45.6809 60.7175C46.164 60.9591 46.647 60.9591 47.1301 60.476C47.8547 59.9929 47.6132 58.7853 46.8886 58.3022C45.9224 57.0945 44.4732 58.7853 44.9563 59.9929Z" fill="#171717"/>
<path d="M19.3525 38.2547C19.3525 38.0132 19.111 37.2886 19.111 37.2886C18.8694 36.564 18.3864 36.564 17.6618 36.564C16.9372 36.564 16.4541 37.5301 16.4541 38.4962C16.9372 39.9454 19.111 39.4624 19.3525 38.2547Z" fill="#171717"/>
<path d="M47.6128 110.957C47.3712 110.957 46.6466 111.44 46.6466 111.44C46.1636 111.923 46.4051 112.406 46.4051 112.889C46.6466 113.614 47.8543 113.614 48.5789 113.131C50.0281 112.406 48.8205 110.474 47.6128 110.957Z" fill="#171717"/>
<path d="M23.9417 75.4496C23.9417 75.6912 23.7002 76.4158 23.7002 76.4158C23.7002 77.1404 24.1833 77.3819 24.6663 77.6234C25.3909 77.865 26.1155 76.8988 26.3571 76.1742C26.8401 74.4835 24.6663 74.2419 23.9417 75.4496Z" fill="#171717"/>
<path d="M138.912 32.9406C138.912 32.6991 138.188 32.4575 138.188 32.4575C137.704 32.216 137.221 32.4575 136.738 32.9406C136.014 33.4237 136.497 34.6314 137.221 35.1144C138.429 35.839 139.637 33.9068 138.912 32.9406Z" fill="#171717"/>
<path d="M86.9818 35.115C86.9818 35.3566 86.7402 36.0812 86.7402 36.0812C86.7402 36.8058 87.2233 37.0473 87.7064 37.2888C88.431 37.7719 89.3971 36.8058 89.6386 35.8396C89.8802 34.632 87.7064 34.1489 86.9818 35.115Z" fill="#171717"/>
<path d="M110.652 84.8696C110.652 85.1111 111.135 85.8357 111.135 85.8357C111.618 86.3188 112.102 86.3188 112.585 86.3188C113.309 86.0773 113.551 84.8696 113.068 84.145C112.826 82.6958 110.652 83.6619 110.652 84.8696Z" fill="#171717"/>
<path d="M117.174 122.791C117.415 122.791 118.14 122.791 118.14 122.791C118.865 122.791 119.106 122.066 119.106 121.583C119.348 120.858 118.382 120.134 117.415 120.134C116.208 120.134 115.966 122.308 117.174 122.791Z" fill="#171717"/>
<path d="M102.44 75.4511C102.44 75.2096 101.716 74.7265 101.716 74.7265C101.233 74.485 100.75 74.7265 100.267 74.968C99.542 75.4511 100.025 76.6588 100.75 77.1419C101.716 78.3495 102.924 76.4173 102.44 75.4511Z" fill="#171717"/>
<path d="M72.0081 27.3855L72.9743 27.8686C73.6989 28.1101 73.9404 27.6271 74.4235 27.3855C74.9065 26.6609 74.4235 25.6948 73.6989 25.2117C72.2497 24.4871 71.2835 26.4194 72.0081 27.3855Z" fill="#171717"/>
<path d="M56.7915 33.9075L56.3084 34.8736C56.0669 35.5982 56.5499 35.8397 57.033 36.3228C57.7576 36.8059 58.7237 36.0813 59.2068 35.3567C59.9314 33.9075 57.7576 32.9413 56.7915 33.9075Z" fill="#171717"/>
<path d="M115.968 12.1699C115.726 12.1699 115.002 12.653 115.002 12.653C114.519 13.1361 114.519 13.6191 114.76 14.1022C115.002 14.8268 116.209 14.8268 116.934 14.5853C118.383 14.1022 117.176 12.1699 115.968 12.1699Z" fill="#171717"/>
<path d="M77.5631 37.2887C77.5631 37.0472 77.3216 36.3226 77.3216 36.3226C77.0801 35.598 76.597 35.598 76.1139 35.3564C75.3893 35.1149 74.9062 36.3226 74.9062 37.2887C74.9062 38.9795 77.3216 38.4964 77.5631 37.2887Z" fill="#171717"/>
<path d="M92.7788 138.973L91.8127 138.49C91.0881 138.248 90.8465 138.731 90.3634 139.214C89.8804 139.939 90.605 140.905 91.3296 141.146C93.0203 142.113 93.7449 139.939 92.7788 138.973Z" fill="#171717"/>
<path d="M121.522 130.036C121.522 129.795 120.797 129.312 120.797 129.312C120.314 128.829 119.831 129.07 119.107 129.312C118.382 129.795 118.624 130.761 119.107 131.485C120.314 132.693 122.005 131.244 121.522 130.036Z" fill="#171717"/>
<path d="M31.1884 16.7568C31.1884 16.9983 30.9469 17.7229 31.1884 17.7229C31.1884 18.4475 31.6715 18.6891 32.1545 18.9306C32.8791 19.1721 33.6037 18.206 33.8453 17.4814C34.0868 15.7907 31.913 15.7907 31.1884 16.7568Z" fill="#171717"/>
<path d="M115.967 29.5596L115.484 30.5257C115.243 31.0088 115.484 31.4919 115.967 31.9749C116.451 32.6995 117.658 31.9749 118.141 31.2503C118.866 30.0426 116.934 28.835 115.967 29.5596Z" fill="#171717"/>
<path d="M124.421 21.8288C124.663 21.8288 125.387 21.3458 125.387 21.3458C125.87 20.8627 125.87 20.3796 125.629 19.8966C125.387 19.172 124.18 19.172 123.455 19.4135C121.764 20.1381 122.972 22.0704 124.421 21.8288Z" fill="#171717"/>
<path d="M36.9849 32.4571C36.9849 32.2155 37.2265 31.4909 37.2265 31.4909C37.2265 30.7663 36.7434 30.5248 36.2603 30.2833C35.5357 29.8002 34.8111 30.7663 34.5696 31.7325C33.845 33.1817 36.2603 33.6648 36.9849 32.4571Z" fill="#171717"/>
<path d="M47.8536 82.4559C47.6121 82.4559 46.8875 82.2144 46.8875 82.2144C46.1629 82.2144 45.9214 82.6974 45.6798 83.1805C45.1968 83.9051 46.1629 84.8712 46.8875 85.1128C48.5782 85.3543 49.0613 83.1805 47.8536 82.4559Z" fill="#171717"/>
<path d="M59.9304 89.2178C59.6888 89.2178 59.4473 89.9424 59.4473 89.9424C59.2058 90.4255 59.4473 90.9086 59.9304 91.3916C60.4134 92.1162 61.6211 91.6332 62.1042 90.9086C62.8288 89.9424 61.138 88.4932 59.9304 89.2178Z" fill="#171717"/>
<path d="M66.2112 120.134C66.2112 120.375 66.6943 120.858 66.6943 120.858C67.1774 121.341 67.6604 121.1 68.1435 121.1C68.8681 120.858 68.8681 119.651 68.385 118.926C67.902 117.718 65.9697 118.926 66.2112 120.134Z" fill="#171717"/>
<path d="M96.8865 41.3953L95.9204 41.1538C95.1958 41.1538 94.9542 41.3953 94.4711 41.8784C93.9881 42.603 94.7127 43.5692 95.6788 43.8107C97.128 44.2938 97.8526 42.1199 96.8865 41.3953Z" fill="#171717"/>
<path d="M9.20875 88.0111L8.24261 87.7695C7.51801 87.7695 7.27648 88.0111 6.79341 88.4941C6.31034 89.2187 7.03494 90.1849 8.00108 90.4264C9.45029 90.9095 10.1749 88.7357 9.20875 88.0111Z" fill="#171717"/>
<path d="M65.2441 39.2202C65.2441 39.4618 65.4857 40.1864 65.4857 40.1864C65.7272 40.911 66.2103 40.911 66.9349 40.911C67.6595 40.911 68.1425 39.9448 68.1425 38.9787C67.6595 37.5295 65.4857 38.0125 65.2441 39.2202Z" fill="#171717"/>
<path d="M43.9912 123.998C43.9912 124.24 44.4743 124.965 44.4743 124.965C44.7158 125.448 45.4404 125.448 45.9235 125.448C46.6481 125.448 46.8896 124.24 46.6481 123.274C46.165 121.825 44.2327 122.791 43.9912 123.998Z" fill="#171717"/>
<path d="M51.9607 28.8345C52.2022 28.8345 52.6853 28.1099 52.6853 28.1099C52.9268 27.6268 52.6853 27.1437 52.4438 26.6607C51.9607 25.9361 50.753 26.1776 50.27 26.9022C49.0623 27.8683 50.753 29.5591 51.9607 28.8345Z" fill="#171717"/>
<path d="M20.0786 69.8958C20.3202 69.8958 21.0448 69.6543 21.0448 69.6543C21.5278 69.4128 21.7694 68.9297 21.7694 68.2051C21.7694 67.239 20.5617 66.9974 19.8371 67.239C18.1464 67.4805 18.871 69.6543 20.0786 69.8958Z" fill="#171717"/>
<path d="M89.64 109.507L88.6739 109.024C87.9493 108.783 87.7077 109.266 87.2247 109.749C86.7416 110.473 87.2247 111.44 88.1908 111.923C89.64 112.406 90.6061 110.232 89.64 109.507Z" fill="#171717"/>
<path d="M129.734 84.3861C129.976 84.3861 130.7 83.903 130.7 83.903C131.184 83.6615 131.184 82.9369 131.184 82.4538C131.184 81.7292 129.976 81.4877 129.01 81.7292C127.561 82.4539 128.527 84.3861 129.734 84.3861Z" fill="#171717"/>
<path d="M81.1868 59.2662C81.1868 59.5078 81.9114 59.9908 81.9114 59.9908C82.3944 60.2324 82.8775 59.9908 83.3606 59.7493C84.0852 59.2662 83.6021 58.0586 83.119 57.5755C82.1529 56.3678 80.7037 58.3001 81.1868 59.2662Z" fill="#171717"/>
<path d="M67.6598 6.37177C67.6598 6.6133 68.3844 7.09637 68.3844 7.09637C68.8675 7.57944 69.3505 7.33791 70.0751 7.09637C70.7997 6.6133 70.5582 5.64717 70.0751 4.92256C68.8675 3.71489 67.1767 5.1641 67.6598 6.37177Z" fill="#171717"/>
<path d="M90.6056 75.6912L89.6395 75.4497C88.9149 75.4497 88.6733 75.9328 88.4318 76.4158C87.9487 77.1404 88.9149 78.1066 89.6395 78.3481C91.0887 78.8312 91.5717 76.6574 90.6056 75.6912Z" fill="#171717"/>
<path d="M64.5211 26.42C64.5211 26.1785 63.7965 25.6954 63.7965 25.6954C63.3134 25.2123 62.8304 25.4539 62.1058 25.6954C61.3812 25.9369 61.6227 27.1446 62.1058 27.8692C63.0719 29.0769 64.7626 27.6277 64.5211 26.42Z" fill="#171717"/>
<path d="M135.289 43.3271C135.289 43.0856 134.806 42.361 134.806 42.361C134.323 41.8779 133.84 41.8779 133.356 41.8779C132.632 42.1195 132.39 43.3271 132.873 44.0517C133.356 45.5009 135.289 44.5348 135.289 43.3271Z" fill="#171717"/>
<path d="M56.7905 123.033C57.0321 123.033 57.7567 122.55 57.7567 122.55C58.2397 122.067 58.2397 121.584 57.9982 121.101C57.7567 120.376 56.549 120.376 55.8244 120.859C54.3752 121.342 55.5829 123.274 56.7905 123.033Z" fill="#171717"/>
<path d="M81.1863 120.134C81.1863 119.893 80.7032 119.168 80.7032 119.168C80.2201 118.685 79.7371 118.685 79.254 118.927C78.5294 119.168 78.5294 120.376 79.0125 121.101C79.4955 122.791 81.4278 121.584 81.1863 120.134Z" fill="#171717"/>
<path d="M23.2172 103.228L22.2511 102.745C21.5265 102.503 21.2849 102.987 20.8019 103.228C20.3188 103.711 20.8019 104.919 21.5265 105.402C22.9757 106.127 24.1834 104.194 23.2172 103.228Z" fill="#171717"/>
<path d="M93.9877 5.6471L94.2292 4.68096C94.2292 3.95636 93.7462 3.71482 93.2631 3.47329C92.5385 2.99022 91.5724 3.95636 91.3308 4.68096C90.8478 6.13016 93.0216 6.61323 93.9877 5.6471Z" fill="#171717"/>
<path d="M81.6669 71.8265C81.9084 71.8265 82.15 71.1019 82.15 70.8604C82.3915 70.3773 82.15 69.8942 81.6669 69.4112C81.1838 68.6866 79.9762 69.1696 79.4931 69.8942C78.527 71.3434 80.4592 72.5511 81.6669 71.8265Z" fill="#171717"/>
<path d="M23.9421 22.0707L24.9082 22.3122C25.6328 22.3122 25.8744 21.8292 26.1159 21.3461C26.599 20.6215 25.6328 19.6554 24.9082 19.4138C23.459 18.9308 22.976 21.1046 23.9421 22.0707Z" fill="#171717"/>
<path d="M22.4945 59.9906L23.4606 60.4736C24.1852 60.7152 24.4267 60.2321 24.9098 59.9906C25.3929 59.266 24.9098 58.2998 24.1852 57.8167C22.736 56.8506 21.7699 59.0244 22.4945 59.9906Z" fill="#171717"/>
<path d="M26.1147 113.129L27.0808 113.371C27.8054 113.371 28.047 112.888 28.2885 112.405C28.7716 111.68 27.8054 110.714 27.0808 110.472C25.8732 110.231 25.1486 112.405 26.1147 113.129Z" fill="#171717"/>
<path d="M38.6761 49.124C38.4346 49.124 37.71 49.3656 37.71 49.3656C36.9854 49.6071 36.9854 50.3317 36.9854 50.8148C36.9854 51.5394 38.193 52.0224 38.9176 51.7809C40.3668 51.5394 39.8838 49.3656 38.6761 49.124Z" fill="#171717"/>
<path d="M130.942 64.0987L129.976 63.6156C129.251 63.3741 129.01 63.8572 128.526 64.0987C128.043 64.8233 128.526 65.7894 129.251 66.2725C130.7 66.9971 131.908 65.0648 130.942 64.0987Z" fill="#171717"/>
<path d="M123.453 89.702L122.487 89.4604C121.763 89.4604 121.521 89.9435 121.279 90.4266C120.796 91.1512 121.763 92.1173 122.487 92.3589C123.936 92.6004 124.419 90.4266 123.453 89.702Z" fill="#171717"/>
<path d="M59.2064 18.6897C59.448 18.6897 60.1726 18.2066 60.1726 18.2066C60.6556 17.7235 60.6556 17.2405 60.4141 16.7574C60.1726 16.0328 58.9649 16.0328 58.2403 16.5159C56.5496 16.9989 57.9988 18.9312 59.2064 18.6897Z" fill="#171717"/>
<path d="M50.7514 68.2056L49.7853 67.7226C49.0607 67.481 48.8191 67.9641 48.3361 68.2056C47.853 68.6887 48.336 69.8964 49.0607 70.3794C50.5099 71.104 51.7175 69.1718 50.7514 68.2056Z" fill="#171717"/>
<path d="M41.0917 24.9701C41.3332 24.9701 42.0578 24.7286 42.0578 24.487C42.5409 24.2455 42.5409 23.5209 42.5409 23.0378C42.5409 22.3132 41.3332 22.0717 40.3671 22.3132C38.9179 22.7963 39.6425 24.9701 41.0917 24.9701Z" fill="#171717"/>
<path d="M139.879 94.05C140.12 94.05 140.845 93.5669 140.845 93.5669C141.328 93.0838 141.328 92.6008 141.328 92.1177C141.087 91.3931 139.879 91.1516 139.154 91.6346C137.705 92.1177 138.671 94.2915 139.879 94.05Z" fill="#171717"/>
<path d="M80.4609 130.036C80.4609 129.795 79.7363 129.312 79.7363 129.312C79.2533 128.829 78.7702 129.07 78.2871 129.312C77.5625 129.795 77.8041 131.002 78.5287 131.485C79.4948 132.693 80.944 131.244 80.4609 130.036Z" fill="#171717"/>
<path d="M93.2627 100.57C93.2627 100.812 93.2627 101.537 93.2627 101.537C93.2627 102.261 93.9873 102.503 94.4704 102.503C95.195 102.744 95.9196 101.778 95.9196 100.812C96.1611 99.3628 93.7458 99.3628 93.2627 100.57Z" fill="#171717"/>
<path d="M67.1758 75.2083C67.1758 75.4499 67.1758 76.1745 67.1758 76.1745C67.4173 76.8991 67.9004 76.8991 68.3835 77.1406C69.1081 77.3821 69.8327 76.1745 69.8327 75.4499C70.0742 73.7591 67.6588 74.0007 67.1758 75.2083Z" fill="#171717"/>
<path d="M109.446 135.594L109.687 134.627C109.687 133.903 109.446 133.661 108.963 133.178C108.238 132.695 107.272 133.42 107.03 134.386C106.547 136.077 108.721 136.56 109.446 135.594Z" fill="#171717"/>
<path d="M71.5241 57.5769C71.5241 57.3353 71.5241 56.6107 71.5241 56.6107C71.5241 55.8861 71.0411 55.6446 70.558 55.4031C69.8334 55.1615 69.1088 56.1277 68.8673 56.8523C68.6257 58.543 70.7995 58.7845 71.5241 57.5769Z" fill="#171717"/>
<path d="M62.3464 59.5104C62.3464 59.2689 61.8633 58.7858 61.8633 58.7858C61.3803 58.3027 60.8972 58.5443 60.4141 58.5443C59.6895 58.7858 59.6895 59.9935 60.1726 60.7181C60.8972 62.1673 62.5879 60.7181 62.3464 59.5104Z" fill="#171717"/>
<path d="M91.5726 88.9758C91.8142 88.9758 92.2973 88.4927 92.5388 88.4927C93.0219 88.0097 93.0219 87.5266 92.7803 87.0435C92.5388 86.3189 91.3311 86.3189 90.6065 86.802C88.9158 87.2851 90.365 89.2173 91.5726 88.9758Z" fill="#171717"/>
<path d="M67.6585 15.5503L68.1416 14.5841C68.3831 13.8595 67.9 13.618 67.417 13.1349C66.6924 12.6519 65.7262 13.3765 65.4847 14.1011C64.7601 15.7918 66.9339 16.5164 67.6585 15.5503Z" fill="#171717"/>
<path d="M74.1816 113.372L75.1478 113.856C75.8724 114.097 76.1139 113.614 76.597 113.372C77.0801 112.889 76.597 111.682 75.8724 111.199C74.6647 110.233 73.457 112.165 74.1816 113.372Z" fill="#171717"/>
<path d="M59.2067 67.2388L58.7237 68.2049C58.4821 68.688 58.7237 69.171 59.2067 69.6541C59.6898 70.3787 60.8975 69.6541 61.3805 68.9295C62.1051 67.7218 60.1729 66.5142 59.2067 67.2388Z" fill="#171717"/>
<path d="M110.894 52.5039C110.653 52.5039 109.928 52.7454 109.928 52.7454C109.203 52.987 109.203 53.47 108.962 53.9531C108.962 54.6777 109.928 55.1608 110.894 55.1608C112.343 54.9192 112.102 52.7454 110.894 52.5039Z" fill="#171717"/>
<path d="M68.8685 97.6728C68.8685 97.4313 68.1439 96.9482 68.1439 96.9482C67.6608 96.7067 67.1778 96.9482 66.6947 97.1897C65.9701 97.6728 66.4532 98.8805 66.9362 99.3635C68.1439 100.571 69.5931 98.8805 68.8685 97.6728Z" fill="#171717"/>
<path d="M102.442 89.4597C102.2 89.4597 101.717 90.1843 101.717 90.1843C101.476 90.6674 101.717 91.1505 101.959 91.6335C102.442 92.3581 103.65 91.8751 104.133 91.392C105.34 90.4259 103.65 88.9767 102.442 89.4597Z" fill="#171717"/>
<path d="M74.1811 64.8237L73.215 64.3406C72.4904 64.0991 72.2489 64.5821 71.7658 65.0652C71.2827 65.7898 72.0073 66.756 72.7319 66.9975C74.1811 67.7221 75.1473 65.5483 74.1811 64.8237Z" fill="#171717"/>
<path d="M80.9428 5.40632L79.9767 4.92325C79.2521 4.68172 79.0105 5.16478 78.5275 5.40632C78.0444 6.13092 78.5275 7.09706 79.2521 7.58013C80.7013 8.30473 81.6674 6.37246 80.9428 5.40632Z" fill="#171717"/>
<path d="M111.619 71.1025L110.652 70.6194C109.928 70.3779 109.686 70.861 109.203 71.344C108.72 72.0686 109.203 73.0348 110.169 73.5178C111.619 74.2424 112.585 72.0686 111.619 71.1025Z" fill="#171717"/>
<path d="M104.856 103.227C105.098 103.227 105.822 102.985 105.822 102.985C106.305 102.744 106.547 102.261 106.547 101.536C106.547 100.57 105.339 100.328 104.614 100.57C102.924 100.812 103.648 102.985 104.856 103.227Z" fill="#171717"/>
<path d="M99.3018 61.9258C99.3018 61.6842 99.0603 60.9596 99.0603 60.9596C98.8188 60.4766 98.0941 60.4766 97.6111 60.4766C96.8865 60.4766 96.6449 61.6842 96.8865 62.6504C97.128 64.0996 99.0603 63.375 99.3018 61.9258Z" fill="#171717"/>
<path d="M12.1081 52.0221L12.3497 51.056C12.3497 50.3314 11.8666 50.0898 11.3835 49.8483C10.6589 49.3652 9.69278 50.3314 9.45125 51.056C9.20971 52.5052 11.3835 52.9882 12.1081 52.0221Z" fill="#171717"/>
<path d="M74.9062 17.7231C74.9062 17.9647 75.3893 18.6893 75.3893 18.6893C75.8724 19.1724 76.3555 19.1724 76.8385 18.9308C77.5631 18.6893 77.8047 17.4816 77.3216 16.757C76.8385 15.3078 74.9062 16.5155 74.9062 17.7231Z" fill="#171717"/>
<path d="M30.9463 41.6349C30.9463 41.8765 30.9463 42.6011 30.9463 42.6011C30.9463 43.3257 31.4294 43.5672 32.154 43.5672C32.8786 43.8088 33.6032 42.8426 33.6032 41.8765C33.6032 40.4273 31.4294 40.4273 30.9463 41.6349Z" fill="#171717"/>
<path d="M15.0066 62.8906C15.2481 62.8906 15.7312 62.166 15.7312 62.166C15.9727 61.683 15.7312 61.1999 15.4897 60.7168C15.0066 59.9922 13.7989 60.4753 13.3159 61.1999C12.1082 62.166 13.7989 63.6152 15.0066 62.8906Z" fill="#171717"/>
<path d="M102.44 3.71543C102.682 3.71543 103.165 2.99083 103.165 2.99083C103.648 2.50776 103.407 2.02469 103.165 1.30009C102.682 0.575489 101.716 0.817024 100.991 1.30009C99.542 2.26623 101.233 3.95697 102.44 3.71543Z" fill="#171717"/>
<path d="M8.48405 39.2207L8.00098 40.1868C8.00098 40.6699 8.24251 41.1529 8.72558 41.3945C9.45018 42.1191 10.4163 41.3945 10.6579 40.4283C11.3825 38.9791 9.20865 38.2545 8.48405 39.2207Z" fill="#171717"/>
<path d="M92.7791 121.826C92.7791 121.584 92.7791 120.86 92.7791 120.86C92.5376 120.135 92.0545 120.135 91.5715 119.894C90.8469 119.652 90.1222 120.86 90.3638 121.826C90.1222 123.275 92.5376 123.033 92.7791 121.826Z" fill="#171717"/>
<path d="M53.6522 97.4289C53.8938 97.4289 54.3768 96.9459 54.3768 96.9459C54.8599 96.4628 54.6184 95.9797 54.6184 95.4967C54.3768 94.7721 53.1692 94.7721 52.4446 95.2551C51.2369 95.9797 52.4446 97.912 53.6522 97.4289Z" fill="#171717"/>
<path d="M12.8317 74.4846C12.5901 74.4846 12.1071 75.2092 12.1071 75.2092C11.624 75.6923 11.8655 76.1754 12.3486 76.6584C12.8317 77.383 14.0393 77.1415 14.5224 76.4169C15.4885 75.4508 13.7978 74.0016 12.8317 74.4846Z" fill="#171717"/>
<path d="M123.697 52.5039C123.455 52.5039 122.73 52.7454 122.73 52.7454C122.247 52.987 122.006 53.47 122.006 54.1946C122.006 54.9192 123.214 55.4023 123.938 55.1608C125.629 54.9192 125.146 52.7454 123.697 52.5039Z" fill="#171717"/>
<path d="M49.304 17.2412C49.0625 17.2412 48.3379 17.4827 48.3379 17.4827C47.8548 17.7243 47.6133 18.4489 47.6133 18.9319C47.6133 19.6566 48.821 20.1396 49.7871 19.8981C51.2363 19.6566 50.5117 17.4827 49.304 17.2412Z" fill="#171717"/>
<path d="M84.8102 27.386C84.8102 27.6275 85.5348 28.1106 85.5348 28.1106C86.0178 28.3521 86.5009 28.1106 86.984 27.8691C87.7086 27.386 87.2255 26.1783 86.5009 25.6953C85.5348 24.4876 84.3271 26.1783 84.8102 27.386Z" fill="#171717"/>
<path d="M128.285 97.4304C128.285 97.672 129.009 98.155 129.009 98.155C129.492 98.3966 129.976 98.155 130.459 97.9135C131.183 97.4304 130.7 96.2228 129.976 95.7397C129.009 94.532 127.802 96.2228 128.285 97.4304Z" fill="#171717"/>
<path d="M88.4323 12.6509C88.1907 12.6509 87.4661 12.6509 87.4661 12.6509C86.7415 12.8924 86.7415 13.3755 86.5 13.8585C86.2585 14.5832 87.4661 15.3078 88.4323 15.0662C90.123 15.3078 89.6399 12.8924 88.4323 12.6509Z" fill="#171717"/>
<path d="M71.0402 89.4606C71.2818 89.4606 71.7648 88.7359 71.7648 88.7359C72.2479 88.2529 72.0064 87.7698 71.7648 87.0452C71.2818 86.3206 70.3156 86.5621 69.591 87.0452C68.3834 88.2529 69.8326 89.9436 71.0402 89.4606Z" fill="#171717"/>
<path d="M84.0838 46.4656C84.0838 46.7071 84.8084 46.9487 85.0499 46.9487C85.533 47.1902 86.0161 46.9487 86.4991 46.4656C87.2237 45.9825 86.7407 44.7749 86.0161 44.2918C84.5668 43.5672 83.3592 45.4995 84.0838 46.4656Z" fill="#171717"/>
<path d="M5.10296 69.4132L4.13682 68.9301C3.41222 68.6886 3.17068 69.1716 2.68761 69.4132C2.20455 69.8962 2.68761 71.1039 3.41222 71.587C4.86142 72.5531 5.82756 70.3793 5.10296 69.4132Z" fill="#171717"/>
<path d="M62.345 50.8147C62.345 51.0562 63.0696 51.5393 63.0696 51.5393C63.5526 51.7808 64.0357 51.5393 64.5188 51.2978C65.2434 50.8147 64.7603 49.607 64.2772 49.124C63.3111 47.9163 61.8619 49.607 62.345 50.8147Z" fill="#171717"/>
<path d="M29.0139 94.532C29.0139 94.7735 29.7385 95.2566 29.7385 95.2566C30.2216 95.4981 30.7047 95.4981 31.1877 95.0151C31.9123 94.532 31.6708 93.3243 30.9462 92.8412C29.9801 91.6336 28.5309 93.3243 29.0139 94.532Z" fill="#171717"/>
<path d="M101.233 132.211L101.716 131.245C101.958 130.521 101.475 130.279 101.233 129.796C100.509 129.313 99.5425 129.796 99.0594 130.762C98.0933 131.97 100.267 132.936 101.233 132.211Z" fill="#171717"/>
<path d="M41.8165 9.02783C41.575 9.02783 40.8504 9.02783 40.8504 9.02783C40.1258 9.02783 39.8842 9.75243 39.8842 10.2355C39.6427 10.9601 40.6088 11.6847 41.575 11.6847C43.0242 11.6847 43.0242 9.5109 41.8165 9.02783Z" fill="#171717"/>
<path d="M102.442 32.9402L103.408 33.4233C104.132 33.6648 104.374 33.1818 104.857 32.6987C105.34 31.9741 104.615 31.0079 103.891 30.7664C102.442 30.0418 101.475 31.9741 102.442 32.9402Z" fill="#171717"/>
<path d="M55.1012 105.642C54.8596 105.642 54.3766 106.367 54.3766 106.367C53.8935 106.85 54.135 107.333 54.3766 108.058C54.6181 108.782 55.8258 108.782 56.5504 108.058C57.758 107.091 56.3088 105.159 55.1012 105.642Z" fill="#171717"/>
<path d="M55.5847 54.4376L55.8262 53.4715C55.8262 52.7469 55.3431 52.5053 54.8601 52.2638C54.1355 51.7807 53.1693 52.7469 52.9278 53.4715C52.6863 54.6792 54.8601 55.4038 55.5847 54.4376Z" fill="#171717"/>
<path d="M112.584 110.714C112.584 110.955 112.826 111.68 112.826 111.68C113.067 112.404 113.55 112.404 114.033 112.646C114.758 112.888 115.241 111.68 115.241 110.714C115.241 109.265 112.826 109.506 112.584 110.714Z" fill="#171717"/>
<path d="M33.1202 68.4453C33.1202 68.2038 32.8786 67.4792 32.8786 67.4792C32.6371 66.9961 31.9125 66.7546 31.4294 66.9961C30.7048 66.9961 30.4633 68.2038 30.7048 69.1699C30.9464 70.3776 33.1202 69.653 33.1202 68.4453Z" fill="#171717"/>
<path d="M27.0811 31.2485C27.0811 31.0069 26.3565 30.5239 26.3565 30.5239C25.8734 30.2823 25.3903 30.5239 24.9073 30.7654C24.1827 31.2485 24.6657 32.4561 25.3903 32.9392C26.3565 34.1469 27.5641 32.4561 27.0811 31.2485Z" fill="#171717"/>
<path d="M77.3222 105.16C77.5637 105.16 78.2883 104.677 78.2883 104.677C78.7714 104.435 78.7714 103.711 78.7714 103.228C78.7714 102.503 77.5637 102.262 76.5976 102.503C75.1484 103.228 75.873 105.402 77.3222 105.16Z" fill="#171717"/>
<path d="M10.1759 101.054C10.1759 101.295 10.659 102.02 10.659 102.02C11.142 102.503 11.6251 102.503 12.1082 102.262C12.8328 102.02 13.0743 100.812 12.5912 100.088C12.1082 98.88 9.93436 99.8462 10.1759 101.054Z" fill="#171717"/>
<path d="M141.085 52.263C141.085 52.0215 140.843 51.2969 140.843 51.2969C140.602 50.8138 140.119 50.5723 139.394 50.5723C138.67 50.5723 138.187 51.7799 138.428 52.5045C138.67 53.9537 140.843 53.4707 141.085 52.263Z" fill="#171717"/>
<path d="M118.866 77.3835C118.866 77.625 119.59 78.1081 119.59 78.1081C120.074 78.5912 120.557 78.3496 121.281 78.1081C122.006 77.8666 121.764 76.6589 121.281 75.9343C120.074 74.7266 118.383 76.1758 118.866 77.3835Z" fill="#171717"/>
<path d="M88.1888 131.727C88.1888 131.968 87.9473 132.693 87.9473 132.693C87.9473 133.418 88.4303 133.659 88.9134 133.901C89.638 134.384 90.6041 133.418 90.8457 132.452C91.3287 131.002 88.9134 130.519 88.1888 131.727Z" fill="#171717"/>
<path d="M62.3465 2.99021L62.8296 2.02407C63.0711 1.29947 62.588 1.05794 62.105 0.57487C61.3804 0.0918013 60.4142 0.816404 60.1727 1.54101C59.2066 2.99021 61.3804 3.71481 62.3465 2.99021Z" fill="#171717"/>
<path d="M90.123 65.3071C89.8815 65.3071 89.1569 65.7902 89.1569 65.7902C88.6738 66.0317 88.6738 66.7563 88.6738 67.2394C88.6738 67.964 89.8815 68.2055 90.8476 67.964C92.2968 67.4809 91.3307 65.3071 90.123 65.3071Z" fill="#171717"/>
<path d="M114.758 100.57C115 100.57 115.724 100.328 115.724 100.328C116.208 100.087 116.449 99.6037 116.449 98.8791C116.449 98.1545 115.483 97.6714 114.517 97.6714C113.068 98.1545 113.551 100.328 114.758 100.57Z" fill="#171717"/>
<path d="M64.2769 110.232C64.5185 110.232 65.2431 110.473 65.2431 110.473C65.9677 110.473 66.2092 109.99 66.4508 109.507C66.9338 108.782 65.9677 108.058 65.0016 107.816C63.5523 107.092 63.3108 109.507 64.2769 110.232Z" fill="#171717"/>
<path d="M16.2118 28.8348C16.4534 28.8348 17.178 29.0763 17.178 29.0763C17.9026 29.0763 18.1441 28.5932 18.3856 28.1102C18.8687 27.3856 17.9026 26.661 16.9364 26.4194C15.4872 25.9364 15.0041 28.1102 16.2118 28.8348Z" fill="#171717"/>
<path d="M33.1201 56.6104C32.8786 56.6104 32.154 57.0934 32.154 57.0934C31.6709 57.335 31.6709 58.0596 31.6709 58.5426C31.6709 59.2672 32.8786 59.5088 33.8447 59.2672C35.2939 58.7842 34.3278 56.6104 33.1201 56.6104Z" fill="#171717"/>
<path d="M76.1129 47.6733C75.8714 47.6733 75.1468 47.6733 75.1468 47.6733C74.4222 47.9149 74.4222 48.3979 74.1807 48.881C73.9391 49.6056 75.1468 50.3302 76.1129 50.0887C77.5621 50.0887 77.3206 47.9149 76.1129 47.6733Z" fill="#171717"/>
<path d="M107.514 24.0049C107.756 24.0049 108.48 24.0049 108.48 24.0049C109.205 24.0049 109.447 23.2803 109.447 22.7972C109.688 22.0726 108.722 21.348 107.756 21.348C106.307 21.1064 106.307 23.5218 107.514 24.0049Z" fill="#171717"/>
<path d="M55.3426 45.0171C55.5841 45.0171 56.3087 45.0171 56.3087 45.0171C57.0333 45.0171 57.2749 44.534 57.5164 43.8094C57.7579 43.0848 56.7918 42.3602 55.8256 42.1187C54.3764 42.1187 54.1349 44.534 55.3426 45.0171Z" fill="#171717"/>
<path d="M99.783 113.614C100.025 113.614 100.749 113.614 100.749 113.614C101.474 113.614 101.715 113.131 101.957 112.406C102.198 111.681 101.232 110.957 100.266 110.715C98.8169 110.715 98.5753 113.131 99.783 113.614Z" fill="#171717"/>
<path d="M129.25 31.0071C129.492 31.0071 130.217 30.524 130.217 30.524C130.7 30.0409 130.7 29.5579 130.458 29.0748C130.217 28.3502 129.009 28.3502 128.284 28.8333C126.835 29.3163 128.043 31.2486 129.25 31.0071Z" fill="#171717"/>
<path d="M133.116 73.2765C132.874 73.2765 132.391 74.0011 132.391 74.0011C131.908 74.4842 132.15 74.9672 132.391 75.6918C132.633 76.4164 133.84 76.4164 134.565 75.6918C135.773 74.4842 134.323 72.7934 133.116 73.2765Z" fill="#171717"/>
<path d="M144.708 73.2763C144.708 73.5179 145.191 74.2425 145.191 74.2425C145.433 74.7255 146.157 74.7255 146.64 74.7255C147.365 74.484 147.606 73.5179 147.365 72.5517C146.882 71.1025 144.708 72.0687 144.708 73.2763Z" fill="#171717"/>
</g>
</svg>
